<svg viewBox="0 0 22 22" xmlns="http://www.w3.org/2000/svg"><circle transform="matrix(1 0 0 -1 0 -1030)" cx="11" cy="-1041" r="8" fill="#4d4d4d" opacity=".98"/><path transform="matrix(.7834 0 0 .7834 4.881 -804.3)" d="m3.555 1046.8c-.206-.387-.221-1.621-.03-2.548.412-2.01 1.307-3.861 2.618-5.423l.519-.619-2.391-2.531h7.259c.004.151 0 7.285 0 7.285l-2.552-2.344c-.441.169-2.848 2.458-3.504 3.33-.447.595-.973 1.588-1.247 2.355-.293.82-.443.929-.674.494z" fill="#fff" fill-opacity=".947" stroke="#f6f6f6" stroke-linecap="round" stroke-linejoin="round" stroke-width=".118"/></svg>
