<svg viewBox="0 0 48 48" xmlns="http://www.w3.org/2000/svg" xmlns:xlink="http://www.w3.org/1999/xlink"><defs><linearGradient id="c" x2="0" y1="537.2" y2="512" gradientUnits="userSpaceOnUse" xlink:href="#a"/><linearGradient id="d" x1="410" x2="407.4" y1="540.2" y2="505.7" gradientUnits="userSpaceOnUse" xlink:href="#b"/><linearGradient id="a"><stop stop-color="#d3d3d3" offset="0"/><stop stop-color="#fcf9f9" offset="1"/></linearGradient><linearGradient id="e" x1="407.7" x2="408.6" y1="544.5" y2="502.8" gradientUnits="userSpaceOnUse" xlink:href="#a"/><linearGradient id="b"><stop stop-color="#c61423" offset="0"/><stop stop-color="#ff4c63" offset="1"/></linearGradient><linearGradient id="f" x2="0" y1="545.1" y2="518.1" gradientUnits="userSpaceOnUse" xlink:href="#b"/></defs><g transform="translate(-384.6 -499.9)"><g transform="matrix(1.714 0 0 1.714 -278 -387.8)"><circle cx="400.6" cy="531.8" r="14" fill="url(#f)"/><circle cx="400.6" cy="531.8" r="14" fill="#5ea5fb" fill-opacity="0"/></g><g fill-rule="evenodd"><circle cx="408.6" cy="523.8" r="21.6" fill="url(#e)"/><circle cx="408.6" cy="523.8" r="19" fill="url(#d)"/></g><path d="m418.52 531.38h-.217l-8.364-18.11c-.246-.534-.781-.875-1.368-.875-.588 0-1.122.342-1.368.875l-8.364 18.11h-.217c-.832 0-1.507.675-1.507 1.507 0 .832.675 1.507 1.507 1.507h3.467c.832 0 1.507-.675 1.507-1.507 0-.809-.638-1.467-1.438-1.504l6.414-13.887 6.414 13.887c-.8.036-1.438.695-1.438 1.504 0 .832.675 1.507 1.507 1.507h3.467c.832 0 1.507-.675 1.507-1.507 0-.832-.675-1.507-1.507-1.507" fill="url(#c)"/></g></svg>
