<svg viewBox="0 0 48 48" xmlns="http://www.w3.org/2000/svg"><defs><linearGradient id="a" x2="0" y1="542.8" y2="507.8" gradientTransform="matrix(.6364 0 0 .6214 -173.5 -308.3)" gradientUnits="userSpaceOnUse"><stop stop-color="#197ff1" offset="0"/><stop stop-color="#21c6fb" offset="1"/></linearGradient></defs><g transform="matrix(1.714 0 0 1.714 -124.2 -6.488)" enable-background="new"><rect x="72.46" y="7.228" width="28" height="21.13" rx=".994" fill="url(#a)"/><g transform="matrix(.3636 0 0 .3636 45.92 19.81)" fill="#fff" fill-opacity=".85" stroke="#ddf1fe"><path d="m93.92 3.434h-11.44v-2.415q5.145-5.171 6.589-6.746 1.286-1.444 1.733-2.179 0.446-0.761 0.446-1.864 0-1.129-0.892-1.995t-2.389-0.866q-1.365 0-2.205 0.814-0.84 0.787-1.076 1.706l-2.205-0.893q0.446-1.418 1.864-2.678t3.675-1.26q2.494 0 4.095 1.523t1.601 3.649q0 2.625-2.861 5.617l-5.25 5.276h8.321v2.31z"/><path d="m108.7 1.15q-1.995 2.704-5.224 2.704t-5.224-2.704-1.995-6.694q0-4.02 1.995-6.694 1.995-2.704 5.224-2.704t5.224 2.704q1.995 2.678 1.995 6.694 0 3.99-1.995 6.694zm-5.224 0.394q2.153 0 3.439-2.02 1.313-2.02 1.313-5.066 0-3.071-1.313-5.066-1.286-2.02-3.439-2.02-2.179 0-3.465 2.02-1.286 1.995-1.286 5.066 0 3.045 1.286 5.066 1.286 2.02 3.465 2.02z"/><path d="m123.8 3.434h-2.415v-3.78h-8.531v-1.837l8.321-12.34h2.625v11.92h2.31v2.257h-2.31v3.78zm-2.415-6.04v-8.374h-0.105l-5.696 8.374h5.801z"/><path d="m138.8 2.305q-1.759 1.549-4.331 1.549t-4.331-1.549-1.759-3.833q0-1.496 0.814-2.625 0.814-1.155 2.126-1.811v-0.105q-1.024-0.656-1.68-1.654-0.656-1.024-0.656-2.126 0-2.179 1.549-3.623 1.549-1.47 3.938-1.47t3.938 1.47q1.549 1.444 1.549 3.623 0 1.103-0.656 2.126-0.656 0.998-1.68 1.654v0.105q1.313 0.656 2.126 1.811 0.814 1.129 0.814 2.625 0 2.284-1.759 3.833zm-6.51-10.16q0.866 0.761 2.179 0.761t2.153-0.761q0.866-0.787 0.866-2.047t-0.866-1.995q-0.84-0.735-2.153-0.735t-2.179 0.735q-0.84 0.735-0.84 1.995t0.84 2.047zm-0.394 8.505q1.05 0.893 2.572 0.893 1.523 0 2.572-0.893 1.05-0.892 1.05-2.31 0-1.391-1.05-2.284-1.05-0.892-2.572-0.892-1.523 0-2.572 0.893-1.05 0.893-1.05 2.284 0 1.417 1.05 2.31z"/></g></g></svg>
