<svg viewBox="0 0 48 48" xmlns="http://www.w3.org/2000/svg"><defs><linearGradient id="c" x1="860" x2="842.7" y1="526" y2="507.2" gradientUnits="userSpaceOnUse"><stop stop-color="#ffee97" offset="0"/><stop stop-color="#ffe76b" offset="1"/></linearGradient><linearGradient id="b" x1="858.8" x2="860" y1="529.5" y2="517.3" gradientUnits="userSpaceOnUse"><stop stop-color="#fed45b" offset="0"/><stop stop-color="#ffcc54" offset="1"/></linearGradient><linearGradient id="a" x1="859.2" x2="864.1" y1="526.3" y2="531.2" gradientUnits="userSpaceOnUse"><stop stop-color="#f0a23a" offset="0"/><stop stop-color="#fde46a" offset="1"/></linearGradient></defs><g transform="matrix(1.361 0 0 1.361 -1132 -679.3)"><rect x="831.9" y="499.1" width="35.04" height="34.79" rx="1.5" fill="url(#a)"/><g fill-rule="evenodd"><path d="m831.8 501.3v30.91s0.292 1.723 2.045 1.723h13c11.65-2.057 18.55-8.41 20.08-19.62v-13.38c0.084-1.866-1.563-1.952-1.563-1.952l-31.4 0.11c-2.337-0.161-2.167 2.21-2.167 2.21" fill="url(#c)"/><path d="m846.1 534.2c6.656-1.385 10.16-5.085 12.42-9.509 5.994-1.741 7.526-6.272 8.402-11.21 0.128 12.62-9.624 18.83-20.82 20.72" fill="url(#b)" opacity=".9"/></g><path transform="matrix(.04152.00414-.00414.04152 840.45 505.54)" d="m462.5 96.19-21.73-21.73c-8.951-8.95-23.56-8.95-32.59 0l-227.8 227.9-119.3-119.3c-8.95-8.951-23.56-8.951-32.59 0l-21.73 21.73c-8.95 8.951-8.95 23.56 0 32.59l157.3 157.3c4.514 4.514 10.33 6.809 16.22 6.809s11.78-2.295 16.22-6.809l265.8-265.8c9.18-9.103 9.18-23.64 0.23-32.59z" fill="#e8923a" opacity=".7" stroke="#cb8034" stroke-width="4.248"/></g></svg>
