<svg viewBox="0 0 48 48" xmlns="http://www.w3.org/2000/svg"><defs><linearGradient id="a" x2="0" y1="542.8" y2="507.8" gradientTransform="matrix(.6364 0 0 .6214 -173.5 -308.3)" gradientUnits="userSpaceOnUse"><stop stop-color="#2e3436" offset="0"/><stop stop-color="#555753" offset="1"/></linearGradient></defs><g transform="matrix(1.714 0 0 1.714 -124.2 -6.488)" enable-background="new"><rect x="72.46" y="7.228" width="28" height="21.13" rx=".994" fill="url(#a)"/><g transform="matrix(1.164 0 0 1.164 -14.42 -3.532)"><g fill="#3daefd"><circle cx="79.45" cy="23.35" r="1.331"/><circle cx="79.45" cy="18.56" r="1.331"/></g><g fill="#ff5959"><rect x="81.84" y="12.97" width="1.065" height=".532" rx=".266"/><rect x="83.44" y="12.97" width="1.597" height=".532" rx=".266"/><rect x="86.63" y="12.97" width="1.597" height=".532" rx=".266"/><rect x="89.29" y="12.97" width="3.194" height=".532" rx=".266"/><rect x="93.02" y="12.97" width="2.129" height=".532" rx=".266"/><rect x="81.84" y="14.04" width="2.129" height=".532" rx=".266"/><rect x="84.5" y="14.04" width="1.065" height=".532" rx=".266"/><rect x="86.63" y="14.04" width="4.258" height=".532" rx=".266"/></g><g fill="#3daefd"><rect x="81.84" y="17.76" width="1.065" height=".532" rx=".266"/><rect x="83.44" y="17.76" width="1.597" height=".532" rx=".266"/><rect x="86.63" y="17.76" width="2.129" height=".532" rx=".266"/><rect x="89.83" y="17.76" width="2.129" height=".532" rx=".266"/><rect x="92.49" y="17.76" width="2.661" height=".532" rx=".266"/><rect x="81.84" y="18.83" width="1.597" height=".532" rx=".266"/><rect x="86.63" y="18.83" width="1.597" height=".532" rx=".266"/><rect x="88.76" y="18.83" width=".532" height=".532" rx=".266"/><rect x="89.83" y="18.83" width="2.661" height=".532" rx=".266"/><g transform="scale(-1 1)"><rect x="-92.49" y="23.62" width="1.065" height=".532" rx=".266"/><rect x="-90.89" y="23.62" width="4.258" height=".532" rx=".266"/><rect x="-85.57" y="23.62" width="3.726" height=".532" rx=".266"/><rect x="-95.15" y="22.56" width="1.065" height=".532" rx=".266"/><rect x="-93.55" y="22.56" width="1.597" height=".532" rx=".266"/><rect x="-91.42" y="22.56" width="4.79" height=".532" rx=".266"/><rect x="-84.5" y="22.56" width="2.661" height=".532" rx=".266"/></g></g><path d="m78.12 12.97 1.331-0.532 1.331 0.532s-0.494 2.129-1.331 2.129-1.331-2.129-1.331-2.129" fill="#ff5959" fill-rule="evenodd"/></g></g></svg>
