<svg viewBox="0 0 48 48" xmlns="http://www.w3.org/2000/svg"><defs><linearGradient id="a" x2="0" y1="61.83" y2="-.203" gradientUnits="userSpaceOnUse"><stop stop-color="#003a56" offset="0"/><stop stop-color="#00607c" offset="1"/></linearGradient></defs><g fill-rule="evenodd"><rect width="48" height="48" rx="2.982" fill="url(#a)"/><path d="m37.1 16.77c-0.74-0.722-1.634-1.082-2.679-1.082h-3.317l-0.756-1.961c-0.188-0.472-0.531-0.877-1.029-1.218s-1.01-0.512-1.532-0.512h-7.58c-0.522 0-1.034 0.171-1.532 0.512s-0.841 0.748-1.029 1.218l-0.756 1.961h-3.317c-1.047 0-1.939 0.36-2.68 1.082-0.74 0.722-1.11 1.592-1.11 2.611v12.92c0 1.019 0.37 1.889 1.11 2.611s1.634 1.082 2.68 1.082h20.84c1.047 0 1.939-0.36 2.679-1.082s1.11-1.592 1.11-2.611v-12.92c0-1.019-0.37-1.889-1.11-2.611m-8.416 13.64c-1.297 1.265-2.859 1.896-4.686 1.896s-3.387-0.633-4.686-1.896c-1.297-1.265-1.948-2.786-1.948-4.565s0.649-3.301 1.948-4.565c1.297-1.265 2.859-1.896 4.686-1.896s3.387 0.633 4.686 1.896c1.297 1.265 1.948 2.786 1.948 4.565s-0.649 3.301-1.948 4.565m-4.686-8.719c-1.175 0-2.179 0.405-3.01 1.218-0.834 0.813-1.252 1.791-1.252 2.936s0.417 2.123 1.252 2.936c0.834 0.813 1.839 1.218 3.01 1.218 1.175 0 2.179-0.405 3.01-1.218 0.834-0.813 1.252-1.791 1.252-2.936s-0.417-2.123-1.252-2.936c-0.834-0.813-1.839-1.218-3.01-1.218" fill="#89ceeb"/></g></svg>
