<svg viewBox="0 0 48 48" xmlns="http://www.w3.org/2000/svg"><defs><linearGradient id="a" x2="0" y1="61.83" y2="-.203" gradientUnits="userSpaceOnUse"><stop stop-color="#0cb096" offset="0"/><stop stop-color="#34d6b6" offset="1"/></linearGradient></defs><g fill-rule="evenodd"><rect width="48" height="48" rx="2.982" fill="url(#a)"/><path transform="matrix(1 0 0 1 -88.73 22.66)" d="m120.73-.547h-5.646v-1.882c0-1.039-.843-1.882-1.882-1.882-1.039 0-1.882.843-1.882 1.882v.627c0 .554-.696 1.255-1.255 1.255-.558 0-1.255-.7-1.255-1.255v-5.646c0-1.039-.843-1.882-1.882-1.882-1.039 0-1.882.843-1.882 1.882v.627c0 .554-.696 2.509-1.254 2.509-.558 0-1.255-1.955-1.255-2.509v-6.901c0-1.039-.843-1.882-1.882-1.882-1.039 0-1.882.842-1.882 1.882v3.137h-.053c-.13.693-.553 1.255-1.899 1.255-1.226 0-1.626-.561-1.754-1.255h-.058v-.704c-.003-.186 0-.373 0-.551 0-1.109-.356-6.273-4.252-6.273-1.116 0-2.02.899-2.02 2.01v34.879c0 1.109.905 2.01 2.02 2.01 3.896 0 4.252-5.164 4.252-6.273 0-.178-.003-.365 0-.551v-.704h.058c.128-.693.527-1.255 1.754-1.255 1.243 0 1.721.565 1.906 1.255h.046v3.137c0 1.039.843 1.882 1.882 1.882 1.039 0 1.882-.843 1.882-1.882v-6.9c0-.554.696-2.509 1.255-2.509.558 0 1.254 1.955 1.254 2.509v.627c0 1.039.843 1.882 1.882 1.882 1.039 0 1.882-.843 1.882-1.882v-5.646c0-.554.696-1.255 1.255-1.255.558 0 1.255.7 1.255 1.255v.627c0 1.039.843 1.882 1.882 1.882 1.039 0 1.882-.843 1.882-1.882v-1.882h5.646c1.039 0 1.882-.843 1.882-1.882 0-1.039-.842-1.882-1.882-1.882" enable-background="new" fill="#075447"/></g></svg>
