<svg viewBox="0 0 48 48" xmlns="http://www.w3.org/2000/svg"><defs><linearGradient id="a" x1="25.63" x2="25.22" y1="48.2" y2="-.203" gradientUnits="userSpaceOnUse"><stop stop-color="#0074e3" offset="0"/><stop stop-color="#03b8ff" offset="1"/></linearGradient></defs><g fill-rule="evenodd"><rect width="48" height="48" rx="2.982" fill="url(#a)"/><g transform="matrix(-.07142-.03828.03828-.07142 22.579 43.34)" fill="#d9effd" fill-opacity=".851"><path d="m123.57 43.994c-11.433-12.278-20.463-21.978-17.47-38.655.293-1.64-.334-3.307-1.635-4.347-.819-.654-1.82-.992-2.831-.992-.598 0-1.201.118-1.771.358-25.717 10.891-53.4 45.836-53.4 96.83.002 23.16 5.347 42.33 15.462 55.43 2.642 3.418 5.588 6.38 8.776 8.891l55.27.261c2.092-1.575 4.09-3.329 5.955-5.271 8.979-9.334 19.412-27.23 18.15-59.49-.996-25.608-14.553-40.17-26.512-53.01"/><path d="m71.02 173.4c-2.805 15.87-5.354 33.6-5.354 45.54 0 23.82 11.48 186.7 11.97 193.6 0.78 11.03 9.953 19.58 21.01 19.58 11.06 0 20.23-8.552 21.01-19.58 0.488-6.933 11.97-170.1 11.97-193.6 0-11.78-2.536-29.42-5.329-45.28l-55.28-0.261"/></g></g></svg>
