<svg viewBox="0 0 48 48" xmlns="http://www.w3.org/2000/svg"><defs><linearGradient id="a" x2="0" y1="61.83" y2="-.203" gradientUnits="userSpaceOnUse"><stop stop-color="#fec600" offset="0"/><stop stop-color="#ffe636" offset="1"/></linearGradient></defs><g fill-rule="evenodd"><rect width="48" height="48" rx="2.982" fill="url(#a)"/><path d="m12.52 37.58h9.692v1.254h3.524v-1.254h9.734v1.417h3.524v-3.51h-1.3v-9.817h1.259v-3.51h-1.259v-9.113h1.3v-3.51h-3.524v0.714h-9.734v-1.254h-3.524v1.254h-9.692v-0.878h-3.524v3.51h1.259v9.277h-1.259v3.51h1.259v9.653h-1.259v3.51h3.524v-1.254m-1.01 0v0.251h-1.511v-1.505h1.514v1.251m11.71-27.33v-0.251h1.511v1.505h-1.511v-1.254m1.511 27.33v0.251h-1.511v-1.505h1.511v1.254m0.168-13.1c0.098 0.098 0.098 0.256 0 0.354-0.05 0.049-0.113 0.073-0.178 0.073-0.064 0-0.129-0.024-0.178-0.073l-0.566-0.564-0.566 0.564c-0.05 0.049-0.113 0.073-0.178 0.073s-0.129-0.024-0.178-0.073c-0.098-0.098-0.098-0.256 0-0.354l0.566-0.564-0.566-0.564c-0.098-0.097-0.098-0.257 0-0.354s0.258-0.097 0.356 0l0.567 0.564 0.566-0.564c0.098-0.097 0.257-0.097 0.356 0 0.098 0.097 0.098 0.257 0 0.354l-0.566 0.564 0.567 0.564m13.09 13.51h-1.51v-1.501h1.514v1.504m-2.518-2.507v1.09h-7.886c4.395-1.241 7.856-4.689 9.102-9.07v7.976h-1.217m2.476-10.82h-1.511v-1.505h1.511v1.505m-1.468-14.13h1.511v1.505h-1.514v-1.504m-1.01 0.714v1.793h1.217v7.272c-1.246-4.378-4.708-7.825-9.102-9.07h7.886m-25.47-0.878h1.511v1.505h-1.514v-1.505m2.518 2.507v-1.629h7.843c-4.395 1.242-7.856 4.688-9.102 9.07v-7.435h1.259m-2.518 10.28h1.511v1.505h-1.511v-1.505m1.259 4.349c1.247 4.378 4.707 7.825 9.102 9.07h-7.843v-1.254h-1.259v-7.812" fill="#826a03"/></g></svg>
