<svg viewBox="0 0 48 48" xmlns="http://www.w3.org/2000/svg"><defs><linearGradient id="a" x1="-124" x2="-125.2" y1="73.5" y2="-26.05" gradientTransform="matrix(.4943 0 0 .4778 86.64 13.1)" gradientUnits="userSpaceOnUse"><stop stop-color="#c52828" offset="0"/><stop stop-color="#ff5454" offset="1"/></linearGradient></defs><g fill-rule="evenodd"><rect width="48" height="48" rx="2.982" fill="url(#a)"/><path transform="matrix(1.27 0 0 1.27 -17.86 -1282)" d="m17.99 1015c0.011-0.018 0.038 25.59 0.038 25.63 0.036 0.033 10.69-25.64 10.66-25.63h-10.7m18.85 0s11.07 25.73 11.06 25.64c0 0.036 8e-3 -25.58 8e-3 -25.64h-11.07m-4.01 9.758c0.069-0.053-4.593 10.72-4.637 10.7h4.923c-0.022 0.026 2.141 5.155 2.141 5.206h4.564c7e-3 0.014-6.959-15.88-6.991-15.91" fill="#fce3e3"/></g></svg>
