<svg viewBox="0 0 48 48" xmlns="http://www.w3.org/2000/svg" xmlns:xlink="http://www.w3.org/1999/xlink"><defs><linearGradient id="e" x1="400.5" x2="401.3" y1="547.9" y2="521.8" gradientUnits="userSpaceOnUse" xlink:href="#a"/><linearGradient id="c" x1="393.2" x2="393.1" y1="546.7" y2="516.8" gradientUnits="userSpaceOnUse" xlink:href="#a"/><linearGradient id="d" x1="394.5" x2="395.4" y1="545.9" y2="517.9" gradientUnits="userSpaceOnUse" xlink:href="#a"/><linearGradient id="f" x1="406.2" x2="405.3" y1="545.8" y2="519.9" gradientUnits="userSpaceOnUse" xlink:href="#a"/><linearGradient id="g" x1="405" x2="404" y1="547.3" y2="517" gradientUnits="userSpaceOnUse" xlink:href="#a"/><linearGradient id="a" x2="0" y1="1053" y2="1004" gradientUnits="userSpaceOnUse"><stop stop-color="#ea0e79" offset="0"/><stop stop-color="#fa4ea9" offset="1"/></linearGradient><linearGradient id="b" x1="399.4" x2="397.8" y1="549.6" y2="516.8" gradientUnits="userSpaceOnUse" xlink:href="#a"/><linearGradient id="j" x2="0" y1="61.83" y2="-.203" gradientUnits="userSpaceOnUse" xlink:href="#a"/><linearGradient id="h" x1="404.6" x2="405.9" y1="545.6" y2="519.9" gradientUnits="userSpaceOnUse" xlink:href="#a"/><linearGradient id="i" x1="401.1" x2="401" y1="543.7" y2="518.3" gradientUnits="userSpaceOnUse" xlink:href="#a"/></defs><g fill-rule="evenodd"><rect width="48" height="48" rx="2.982" fill="url(#j)"/><g transform="matrix(1.613 0 0 1.613 -622.5 -834.2)" fill="#530b23" stroke-linecap="round" stroke-linejoin="round" stroke-width=".496"><path d="m400.4 543.9c4.644-3.427 5.21-7.04 0.165-10.91-5.898 4.307-3.738 7.688-0.165 10.91" stroke="url(#e)"/><path d="m400.4 519.9c4.644 3.427 5.21 7.04 0.165 10.91-5.898-4.307-3.738-7.688-0.165-10.91" stroke="url(#i)"/><path d="m412.7 531.7c-3.427 4.644-7.04 5.21-10.91 0.165 4.307-5.898 7.688-3.738 10.91-0.165" stroke="url(#g)"/><path d="m388.6 531.8c3.427 4.644 7.04 5.21 10.91 0.165-4.307-5.898-7.688-3.738-10.91-0.165" stroke="url(#c)"/><path d="m400 531.1c-5.758 0.399-8.529-1.987-7.191-8.2 7.283-0.54 7.828 3.434 7.191 8.2" stroke="url(#b)"/><path d="m392.66 540.9c5.758.399 8.529-1.987 7.191-8.2-7.283-.54-7.828 3.434-7.191 8.2" stroke="url(#d)"/><path d="m401.41 531.18c5.758.399 8.529-1.987 7.191-8.2-7.283-.54-7.828 3.434-7.191 8.2" stroke="url(#h)"/><path d="m408.73 540.92c-5.758.399-8.529-1.987-7.191-8.2 7.283-.54 7.828 3.434 7.191 8.2" stroke="url(#f)"/></g></g></svg>
