<svg viewBox="0 0 48 48" xmlns="http://www.w3.org/2000/svg"><defs><linearGradient id="a" x2="0" y1="61.83" y2="-.203" gradientUnits="userSpaceOnUse"><stop stop-color="#7737c5" offset="0"/><stop stop-color="#9371ff" offset="1"/></linearGradient></defs><g fill-rule="evenodd"><rect width="48" height="48" rx="2.982" fill="url(#a)"/><g transform="translate(49.09)" fill="#ece4f9"><g transform="matrix(1.714 0 0 1.714 -118.4 6.557)" enable-background="new" stroke="#ece4f9" stroke-width=".262"><path d="m58.49 2.866h4.442l3.471-3.071-3.471-3.397h-4.442l3.147 3.397z"/><path d="m42.64 2.866h4.442l3.471-3.071-3.471-3.397h-4.442l3.147 3.397z"/><path d="m50.48 2.866h4.442l3.471-3.071-3.471-3.397h-4.442l3.147 3.397z"/></g><path d="m-25.23 18.8c-6.094 0-11 4.906-11 11s4.906 11 11 11 11-4.906 11-11-4.906-11-11-11m-3.036 6.556 7.01 4.688-7.01 4.688v-9.374" stroke-width="1.317"/></g></g></svg>
