<svg viewBox="0 0 48 48" xmlns="http://www.w3.org/2000/svg" xmlns:xlink="http://www.w3.org/1999/xlink"><defs><linearGradient id="c" x1="317.9" x2="318" y1="569" y2="473.2" gradientUnits="userSpaceOnUse" xlink:href="#a"/><linearGradient id="b" x1="312.9" x2="312.3" y1="571.7" y2="475.8" gradientUnits="userSpaceOnUse" xlink:href="#a"/><linearGradient id="a"><stop stop-color="#4469b9" offset="0"/><stop stop-color="#5d91ff" offset="1"/></linearGradient></defs><g transform="matrix(.4728 0 0 .4728 -126.1 -222)"><path d="m317.9 472c-27.16 0-49.18 22.02-49.18 49.18s22.02 49.18 49.18 49.18 49.18-22.02 49.18-49.18-22.02-49.18-49.18-49.18" fill="url(#c)"/><g fill-rule="evenodd"><path d="m324 536.3c15.36 6.957 15.38 19.51 9.285 32.11 10.2-5.275 20.16-9.32 24.04-18.46l-14.17-18.22z" fill="#999"/><g transform="matrix(1.221 0 0 1.221 50.58 -113)"><g fill="#f1f1f1"><path d="m255.4 537.1c10.2-24.19 0.592-30.38-26.94-38.99-1.795-5.225-3.439-7.235-7.527-11.08 0.79 6.392-7.803 13.6 5.602 16.51-3.679 0.711-4.463 2-5.952 3.151 19.44 0.596 33.58 7.43 34.82 30.42"/><path d="m217.1 502.2 3.851-1.225-0.875-6.652c-4.143-3.145-5.473-5.664-5.427-7.877 0.074 5.252-1.108 10.5 2.451 15.76"/></g><path d="m188.8 525.1c7.319 13.63 14.92 7 35.27-3.256 6.895-3.476 9.327 0.723 15 0.356l-4.35 1.45c14.61 2.433 21.96 6.708 13.18 24.05 19.57-18.61 3.169-38.63-21.72-42.26 0.529-0.967 1.226-1.933 3.867-2.9-6.874-2.578-9.882-8.08-9.02-15.82-2.563 4.78-3.826 9.91-3.384 14.69-3.164 3.209-6.476 3.639-8.548 6.923-3.143 4.98 3.519 9.276-20.33 16.67z" fill="#dedede"/><path d="m211.8 514.8c0.026-4.738 3.722-5.556 8.584-5.238-2.23 2.863-3.776 5.536-8.584 5.238" fill="#999"/><path d="m194.5 531.8c6.744 3.327 14.27 1.537 18.55 0.944 24.71-3.423 40.19 1.128 31.95 17.57 6.896-5.399 19.51-20.91-6.213-29.19-0.557-1.796 2.086-1.991 4.201-2.451-12-4.176-23.29 3.44-36.39 9.853-3.336 1.634-8.133 3.02-12.1 3.276" fill="#c1c1c1"/></g></g><path d="m317.5 471.1c-27.16 0-49.18 22.02-49.18 49.18s22.02 49.18 49.18 49.18 49.18-22.02 49.18-49.18-22.02-49.18-49.18-49.18z" fill="none" stroke="url(#b)" stroke-width="3.174"/></g></svg>
