<svg viewBox="0 0 48 48" xmlns="http://www.w3.org/2000/svg" xmlns:xlink="http://www.w3.org/1999/xlink"><defs><linearGradient id="b" x2="0" y1="-15.39" y2="-39.39" gradientUnits="userSpaceOnUse" xlink:href="#a"/><linearGradient id="a"><stop stop-color="#2b65bd" offset="0"/><stop stop-color="#64a3dc" offset="1"/></linearGradient><linearGradient id="c" x1="-61.86" x2="-61.69" y1="-.386" y2="-31.86" gradientUnits="userSpaceOnUse"><stop stop-color="#bbbec4" offset="0"/><stop stop-color="#dddfe2" offset="1"/></linearGradient><linearGradient id="f" x2="0" y1="5.383" y2="2.392" gradientUnits="userSpaceOnUse"><stop stop-color="#040404" offset="0"/><stop stop-color="#121212" stop-opacity=".908" offset="1"/></linearGradient><linearGradient id="d" x1="10.09" x2="122.7" gradientTransform="matrix(.35 0 0 .3442 -84.47 -33.61)" gradientUnits="userSpaceOnUse"><stop stop-color="#1a1a1a" offset="0"/><stop stop-color="#2c2c2e" offset=".111"/><stop stop-color="#2b2b2d" offset=".29"/><stop stop-color="#2a2b2d" offset=".512"/><stop stop-color="#2b2b2d" offset=".752"/><stop stop-color="#323232" offset=".897"/><stop stop-color="#171717" offset="1"/></linearGradient><linearGradient id="e" x2="0" y1="544.3" y2="543" gradientTransform="matrix(.7122 0 0 1.409 -381.7 -762.3)" gradientUnits="userSpaceOnUse" xlink:href="#a"/></defs><g transform="matrix(1 0 0 1 -38.37 25.88)" enable-background="new"><g transform="matrix(1.046 0 0 1.046 123.5 15.19)"><path d="m-80.94.075l.35 5.517c0 .572.468 1.033 1.05 1.033h36.624c.582 0 1.05-.461 1.05-1.033l.35-5.517h-39.42" fill="url(#d)"/><path d="m-77.79-32.27h32.776c.582 0 1.05.461 1.05 1.033l2.451 31.14c0 .572-.468 1.033-1.05 1.033h-37.33c-.582 0-1.05-.461-1.05-1.033l2.1-31.14c0-.572.468-1.033 1.05-1.033" fill="url(#c)"/><rect x="-69.24" y="3.494" width="16.15" height="1.083" rx=".542" fill="url(#e)"/><ellipse cx="-46.39" cy="4.074" rx="1.495" ry="1.495" fill="url(#f)" opacity=".452"/><g fill="#e3e8ea" stroke-width="1.317"><path d="m-46.39 4.113c.034 0 .063-.012.088-.037.025-.025.037-.054.037-.088v-.623c0-.034-.012-.063-.037-.088-.025-.025-.054-.037-.088-.037-.034 0-.063.012-.088.037-.025.025-.037.054-.037.088v.623c0 .034.012.063.037.088.025.025.054.037.088.037" opacity=".668"/><path d="m-45.724 3.779c-.052-.104-.126-.192-.221-.263-.027-.021-.058-.029-.093-.024-.034.005-.062.021-.082.049-.021.027-.029.058-.024.092.005.034.021.062.048.082.064.048.113.107.147.176.035.069.052.143.052.222 0 .068-.013.132-.039.193-.026.061-.062.114-.107.159-.045.045-.098.08-.159.107-.061.026-.126.039-.193.039-.068 0-.132-.013-.193-.039-.061-.026-.114-.062-.159-.107-.045-.045-.08-.098-.107-.159-.026-.061-.039-.126-.039-.193 0-.079.017-.153.052-.222.035-.069.084-.128.148-.176.027-.021.043-.048.048-.082.005-.034-.003-.065-.024-.092-.02-.028-.047-.044-.081-.049-.034-.005-.065.004-.093.024-.095.071-.168.158-.221.263-.052.105-.078.216-.078.334 0 .101.02.198.059.29.04.092.093.172.16.239.067.067.146.12.239.16.092.04.189.059.29.059.101 0 .198-.02.29-.059.092-.04.172-.093.239-.16.067-.067.12-.146.16-.239.04-.092.059-.189.059-.29 0-.118-.026-.229-.078-.334" opacity=".668"/></g></g><path transform="matrix(.405 0 0 .405 83.77 -38.2)" d="m-70.84 65.49a3.624 3.137 0 0 0-3.624 3.137 3.624 3.137 0 0 0 3.624 3.137 3.624 3.137 0 0 0 3.624-3.137 3.624 3.137 0 0 0-3.624-3.137zm18.12 0-7.249 6.274 14.5 12.55-14.5 12.55 7.249 6.274 21.75-18.82-21.75-18.82zm-29 18.82a7.249 6.274 0 0 0-7.249 6.273 7.249 6.274 0 0 0 7.249 6.274 7.249 6.274 0 0 0 7.249-6.274 7.249 6.274 0 0 0-7.249-6.273zm14.5 18.82a7.249 6.274 0 0 0-7.249 6.274 7.249 6.274 0 0 0 7.249 6.274 7.249 6.274 0 0 0 7.249-6.274 7.249 6.274 0 0 0-7.249-6.274z" fill="#a1a7ae" stroke="#909296" stroke-width=".207"/><circle transform="matrix(1.046 0 0 1.046 122.3 15.34)" cx="-46.79" cy="-27.39" r="12" fill="url(#b)"/><path d="m74.87-11.22 2.7-2.7 2.1 2.1-6.3 6.3-6.3-6.3 2.1-2.1 2.7 2.7v-9.9h3v9.9" fill="#fff" fill-opacity=".854"/></g></svg>
