<svg viewBox="0 0 48 48" xmlns="http://www.w3.org/2000/svg"><defs><linearGradient id="a" x2="0" y1="545.1" y2="518.1" gradientUnits="userSpaceOnUse"><stop stop-color="#30cf41" offset="0"/><stop stop-color="#47f383" offset="1"/></linearGradient></defs><g transform="matrix(1.128 0 0 1.128 -363.5 -568.9)"><circle transform="matrix(1.519 0 0 1.519 -265.2 -282.6)" cx="400.6" cy="531.8" r="14" fill="url(#a)"/><g transform="matrix(1.981 0 0 1.981 -273.7 -523.3)" opacity=".9"><path d="m309.43 533.85l-.211 1.846c.15 1.021 1.399.828 1.582.158l.292-1.743 1.181.003.162 1.565c.077.949 1.722 1.057 1.646-.246l-.274-1.635c.851-.035 1.152-.492 1.216-1.014l.089-1.887 2.02-2.162c.528-.777-.218-1.814-1.108-1.108-.611.791-1.11 1.346-2.407 1.633-.926.204-2.54.314-4.02-.043-.801-.193-1.371-.433-2.196-1.513-.791-.94-2.103-.081-1.354.932l2.187 2.236.088 1.933c.063.694.762.863 1.104 1.046" fill="#154e22" fill-rule="evenodd" opacity="1"/><g transform="matrix(1 0 0 1 -.055 .055)"><g transform="translate(16.83 2.279)" fill="#154e22"><path d="m291.52 525.88c1.82 1.165 4.832 1.102 6.701.042.672-5.247-7.079-5.664-6.701-.042" fill-rule="evenodd" opacity="1"/><rect transform="matrix(.8617 -.5074 .5074 .8617 0 0)" x="-12.39" y="596.8" width=".382" height="2.672" rx=".191" opacity="1"/><rect transform="matrix(-.8617 -.5074 -.5074 .8617 0 0)" x="-520.5" y="297.6" width=".382" height="2.672" rx=".191" opacity="1"/></g><g fill="#40e86f"><circle cx="310.4" cy="526.4" r=".549" opacity="1"/><circle cx="313" cy="526.4" r=".549" opacity="1"/></g></g></g></g></svg>
