<svg viewBox="0 0 48 48" xmlns="http://www.w3.org/2000/svg"><defs><linearGradient id="a" x1="23.8" x2="22.98" y1="47.8" y2="-.407" gradientUnits="userSpaceOnUse"><stop stop-color="#18191b" offset="0"/><stop stop-color="#424649" offset="1"/></linearGradient><linearGradient id="d" x1="400.6" x2="400.4" y1="530.8" y2="519.9" gradientUnits="userSpaceOnUse"><stop stop-color="#eb4646" offset="0"/><stop stop-color="#ff8651" offset="1"/></linearGradient><linearGradient id="b" x2="0" y1="541.2" y2="533.1" gradientUnits="userSpaceOnUse"><stop stop-color="#0976da" offset="0"/><stop stop-color="#5de5f0" offset="1"/></linearGradient><linearGradient id="c" x1="405.2" x2="404.2" y1="540.4" y2="533" gradientUnits="userSpaceOnUse"><stop stop-color="#4fd127" offset="0"/><stop stop-color="#c6f61a" offset="1"/></linearGradient><linearGradient id="e" x1="406.5" x2="406.6" y1="534.8" y2="528.6" gradientUnits="userSpaceOnUse"><stop stop-color="#ffbc00" offset="0"/><stop stop-color="#ffec00" offset="1"/></linearGradient><linearGradient id="f" x1="394.5" x2="394.3" y1="535.2" y2="529" gradientUnits="userSpaceOnUse"><stop stop-color="#947ecb" offset="0"/><stop stop-color="#cab5ff" offset="1"/></linearGradient><linearGradient id="i" x1="405.3" x2="405.2" y1="530.9" y2="523" gradientUnits="userSpaceOnUse"><stop stop-color="#fc6e51" offset="0"/><stop stop-color="#ff937d" offset="1"/></linearGradient><linearGradient id="g" x2="0" y1="530.8" y2="523.4" gradientUnits="userSpaceOnUse"><stop stop-color="#ec87c0" offset="0"/><stop stop-color="#ffc1e4" offset="1"/></linearGradient><linearGradient id="h" x1="400.4" x2="400.6" y1="543.9" y2="533" gradientUnits="userSpaceOnUse"><stop stop-color="#41b99b" offset="0"/><stop stop-color="#59ffd5" offset="1"/></linearGradient></defs><ellipse cx="24" cy="24" rx="24" ry="24" fill="url(#a)"/><g transform="matrix(1.613 0 0 1.613 -622.4 -833.9)" fill-rule="evenodd"><path d="m400.4 543.9c4.644-3.427 5.21-7.04 0.165-10.91-5.898 4.307-3.738 7.688-0.165 10.91" fill="url(#h)"/><path d="m400.4 519.9c4.644 3.427 5.21 7.04 0.165 10.91-5.898-4.307-3.738-7.688-0.165-10.91" fill="url(#d)"/><path d="m412.7 531.7c-3.427 4.644-7.04 5.21-10.91 0.165 4.307-5.898 7.688-3.738 10.91-0.165" fill="url(#e)"/><path d="m388.6 531.8c3.427 4.644 7.04 5.21 10.91 0.165-4.307-5.898-7.688-3.738-10.91-0.165" fill="url(#f)"/><path d="m400 531.1c-5.758 0.399-8.529-1.987-7.191-8.2 7.283-0.54 7.828 3.434 7.191 8.2" fill="url(#g)"/><path d="m392.66 540.9c5.758.399 8.529-1.987 7.191-8.2-7.283-.54-7.828 3.434-7.191 8.2" fill="url(#b)"/><path d="m401.41 531.18c5.758.399 8.529-1.987 7.191-8.2-7.283-.54-7.828 3.434-7.191 8.2" fill="url(#i)"/><path d="m408.73 540.92c-5.758.399-8.529-1.987-7.191-8.2 7.283-.54 7.828 3.434 7.191 8.2" fill="url(#c)"/></g></svg>
