<svg viewBox="0 0 48 48" xmlns="http://www.w3.org/2000/svg"><defs><linearGradient id="b" x2="0" y1="546.1" y2="518.3" gradientUnits="userSpaceOnUse"><stop stop-color="#ff9300" offset="0"/><stop stop-color="#ffd702" offset="1"/></linearGradient><linearGradient id="a" x2="0" y1="98.87" y2="-4.869" gradientUnits="userSpaceOnUse"><stop stop-color="#e3e3e3" offset="0"/><stop stop-color="#fffcff" offset="1"/></linearGradient></defs><g transform="matrix(1.714 0 0 1.714 -662.7 -887.7)"><circle cx="400.6" cy="531.8" r="14" fill="url(#b)"/><circle cx="400.6" cy="531.8" r="14" fill="#5ea5fb" fill-opacity="0"/><path transform="matrix(.1725 0 0 .1725 392.9 524)" d="m80.58 9.423c-8.377-8.376-18.9-11.44-22.24-8.09l-13.48 13.48c-2.045 2.045-3.828 8.89-3.01 15.82l-40.8 40.81c-2.42 2.42-0.459 8.305 4.381 13.14 4.84 4.841 10.72 6.801 13.14 4.383l40.8-40.8c6.93 0.818 13.77-0.967 15.82-3.01l13.48-13.48c3.35-3.351 0.287-13.87-8.09-22.24m-44.87 40.78c-1.863-1.863-1.256-5.484 1.348-8.09 2.605-2.604 6.229-3.211 8.09-1.348 1.859 1.86 1.256 5.484-1.348 8.089-2.606 2.605-6.231 3.209-8.09 1.349zm33.75-29.66c-6.49-6.489-8.119-15.05-7.543-15.63 0.578-0.578 8.803 1.389 15.3 7.878 6.488 6.491 8.436 14.73 7.877 15.29-0.559 0.559-9.141-1.051-15.63-7.542" fill="url(#a)"/></g></svg>
