<svg viewBox="0 0 48 48" xmlns="http://www.w3.org/2000/svg"><defs><linearGradient id="a" x2="0" y1="547.3" y2="516.2" gradientUnits="userSpaceOnUse"><stop stop-color="#ff9300" offset="0"/><stop stop-color="#ffd702" offset="1"/></linearGradient></defs><g transform="matrix(1.543 0 0 1.543 -594.9 -796.9)"><circle cx="401" cy="531.9" r="15.55" fill="url(#a)"/><g transform="matrix(.08144 0 0 .08144 389 520)" fill="#fff" fill-opacity=".855"><path d="m298.2 149.1c0-14.36-33.49-23.24-37.7-36.2-4.36-13.43 17.36-40.27 9.225-51.45-8.215-11.29-40.51 1.117-51.8-7.098-11.18-8.134-9.311-42.72-22.74-47.08-12.96-4.206-31.72 24.74-46.08 24.74-14.36 0-33.13-28.94-46.08-24.74-13.43 4.36-11.56 38.95-22.74 47.08-11.29 8.215-43.59-4.19-51.8 7.098-8.134 11.18 13.58 38.02 9.225 51.45-4.207 12.96-37.7 21.84-37.7 36.2 0 14.36 33.49 23.24 37.7 36.2 4.359 13.43-17.36 40.27-9.225 51.45 8.215 11.29 40.51-1.117 51.8 7.098 11.18 8.135 9.311 42.72 22.74 47.08 12.96 4.207 31.72-24.74 46.08-24.74s33.12 28.94 46.08 24.74c13.43-4.359 11.56-38.95 22.74-47.08 11.29-8.215 43.59 4.19 51.8-7.098 8.134-11.18-13.58-38.02-9.225-51.45 4.208-12.96 37.7-21.84 37.7-36.2m-149.1 98.74c-54.44 0-98.74-44.29-98.74-98.74 0-54.44 44.29-98.74 98.74-98.74 54.44 0 98.74 44.29 98.74 98.74 0 54.44-44.29 98.74-98.74 98.74"/><path d="m149.1 66.35c-45.62 0-82.74 37.12-82.74 82.74 0 45.62 37.12 82.74 82.74 82.74 45.62 0 82.74-37.12 82.74-82.74 0-45.62-37.12-82.74-82.74-82.74m25.33 49.91c4.418 0 8 3.582 8 8 0 4.419-3.582 8-8 8s-8-3.581-8-8c0-4.418 3.582-8 8-8m-50 0c4.418 0 8 3.582 8 8 0 4.419-3.582 8-8 8s-8-3.581-8-8c0-4.418 3.582-8 8-8m71.27 50.56c-6.173 17.73-22.19 30.59-40.82 32.77-1.898 0.223-3.794 0.332-5.679 0.332-16.85 0-32.88-8.708-41.94-23.17-1.953-3.118-3.556-6.458-4.765-9.928-1.454-4.172 0.75-8.732 4.923-10.19 4.173-1.456 8.732 0.749 10.19 4.923 0.815 2.34 1.898 4.594 3.216 6.699 6.81 10.87 19.45 16.93 32.2 15.44 12.58-1.473 23.4-10.16 27.57-22.14 1.452-4.172 6.01-6.378 10.19-4.924 4.173 1.454 6.377 6.01 4.924 10.19"/></g></g></svg>
