<svg version="1.1" viewBox="0 0 48 48" xmlns="http://www.w3.org/2000/svg" xmlns:xlink="http://www.w3.org/1999/xlink"><defs><linearGradient id="a" x1="30.71" x2="29.9" y1="103.1" y2="54.92" gradientTransform="translate(-6.915 -55.32)" gradientUnits="userSpaceOnUse"><stop stop-color="#18191b" offset="0"/><stop stop-color="#424649" offset="1"/></linearGradient><linearGradient id="b" x1="407.8" x2="408" y1="543.6" y2="529.8" gradientTransform="matrix(1.938 0 0 1.932 -769 -1012)" gradientUnits="userSpaceOnUse"><stop stop-color="#dce2ff" offset="0"/><stop stop-color="#f8feff" offset="1"/></linearGradient></defs><ellipse cx="24" cy="24" rx="24" ry="24" fill="url(#a)" stroke-width="0"/><path d="m23.56 13.67-10.16 13.01c-1.905 2.438-1.372 6.783 1.066 8.688 2.44 1.905 6.783 1.372 8.689-1.066l10.16-13.01 1.269-1.627c1.271-1.627 0.9147-4.523-0.7112-5.792-1.626-1.271-4.523-0.9138-5.792 0.7109l-8.893 11.38-1.271 1.627c-0.6356 0.8133-0.4573 2.26 0.3546 2.896 0.8139 0.6356 2.262 0.4579 2.897-0.3555l8.893-11.38 1.626 1.271-8.893 11.38c-1.271 1.627-4.166 1.982-5.792 0.7109s-1.982-4.167-0.7112-5.792l10.16-13.01c1.905-2.438 6.25-2.971 8.689-1.066 2.44 1.905 2.973 6.25 1.068 8.688l-11.43 14.63c-2.541 3.251-8.333 3.962-11.58 1.422-3.252-2.54-3.963-8.332-1.422-11.59l10.16-13.01 1.626 1.271z" fill="url(#b)" stroke-width="0"/></svg>
