<svg viewBox="0 0 48 48" xmlns="http://www.w3.org/2000/svg"><defs><linearGradient id="a" x2="0" y1="22.13" y2="-25.87" gradientUnits="userSpaceOnUse"><stop stop-color="#1365f4" offset="0"/><stop stop-color="#05b2fc" offset="1"/></linearGradient></defs><g transform="matrix(1 0 0 1 -38.37 25.88)" enable-background="new"><rect x="38.37" y="-25.88" width="48" height="48" rx="24" fill="url(#a)"/><path d="m61.07-15.28-10.7 6.06 5.171 2.923 5.526-3.122zm2.227 0v5.856l5.519 3.129 5.175-2.923zm-1.115 6.982-6.205 3.509-4e-3 7.02 6.201 3.513 6.205-3.506v-7.02l-6.198-3.513m-12.92 0.966-4e-3 12.1 5.171-2.923v-6.262l-5.168-2.919m25.85 0-5.171 2.923v6.258l5.168 2.923 4e-3 -12.1m-19.56 11.06-5.175 2.93 10.7 6.06v-5.856zm13.27 0-5.523 3.122v5.856l10.69-6.05z" fill="#fff" fill-opacity=".85"/></g></svg>
