<svg viewBox="0 0 48 48" xmlns="http://www.w3.org/2000/svg" xmlns:xlink="http://www.w3.org/1999/xlink"><defs><linearGradient id="b" x1="390" x2="410.3" gradientTransform="matrix(1.037 -.1872 .1745 1.113 -504.6 -483.1)" gradientUnits="userSpaceOnUse" xlink:href="#a"/><linearGradient id="a"><stop stop-color="#c52828" offset="0"/><stop stop-color="#ff5454" offset="1"/></linearGradient><linearGradient id="c" x1="17.99" x2="18.96" y1="50.68" y2="2.175" gradientUnits="userSpaceOnUse" xlink:href="#a"/><linearGradient id="e" x1="32.73" x2="-5.04" y1="33" y2="12.64" gradientUnits="userSpaceOnUse"><stop stop-color="#d5dbff" offset="0"/><stop stop-color="#ebedff" offset="1"/></linearGradient><linearGradient id="d" x1="14.16" x2="13.71" y1="45.64" y2="1.62" gradientUnits="userSpaceOnUse"><stop stop-color="#363636" offset="0"/><stop stop-color="#4b4f59" offset="1"/></linearGradient></defs><g transform="matrix(1 0 0 1 11.63 .882)" enable-background="new"><path d="m10.938.679c-10.509.43-11.2 1.647-12.494 2.302-1.734.878-3.866 1.372-3.643-.048-.738.27-1.587 1.298-.867 2.583.72 1.286-.718 2.784-1.411 1.974-1.326-1.551-4.575-.334-4.101 1.65.467-.467 2.642-1.488 2.339.791-.302 2.279-.453 4.03 1.865 5.579 2.317 1.554 11.308-.018 11.308-.018z" fill="url(#b)" fill-rule="evenodd"/><path d="m13.71 1.62c-5.479 0-10.96 2.099-15.16 6.297-8.397 8.397-8.397 21.92 0 30.31 8.397 8.397 21.92 8.397 30.31 0 8.397-8.397 8.397-21.92 0-30.31-4.198-4.198-9.678-6.297-15.16-6.297" fill="url(#d)"/><path d="m2.422 3.538c-10.78 6.242-14.48 20.04-8.24 30.83 6.235 10.79 20.04 14.48 30.82 8.242 10.79-6.241 14.47-20.04 8.238-30.82-6.235-10.79-20.03-14.47-30.82-8.246m11.28 19.29 18.58 0.477c-0.025 1.55-0.238 3.092-0.632 4.588-1.226 4.563-4.154 8.645-8.536 11.22l-9.404-16.26-9.804 16.07c-2.53-1.564-4.73-3.75-6.329-6.517-1.677-2.9-2.474-6.06-2.493-9.182l18.61-0.396-9.193-15.9c4.42-2.505 9.417-3.01 13.98-1.793 1.314 0.35 2.587 0.849 3.798 1.481l-8.579 16.22z" fill="url(#e)"/><path d="m23.31 2.551c0.709 0.652 1.629 1.591 2.198 2.607 0.992 1.771 0.85 4.851-2.195 5.418s-3.162-0.471-3.152-1.7c-1.619 0.223-2.343 3.811 0.496 5.064 2.408 1.062 3.293 0.637 7.826 0.354s5.064 5.241 2.939 6.091-2.936-0.665-2.797-1.487c-1.703 0.665-1.911 2.52-1.062 3.399 6.625 6.865 3.448 12.17 1.629 12.71-2.254 0.674-3.843-0.662-2.691-2.443 0.938-1.452 0.129-3.846-1.01-4.694-1.14-0.848-3.354-0.645-4.3-0.015 1.365 0.516 3.364 1.31 2.833 3.081-0.41 1.367-1.754 2.228-3.435 2.196-3.829-0.075-2.617-3.534-2.089-3.931-2.058-0.255-3.432 3.5-2.089 4.781 1.321 1.26 3.179 1.963 2.054 3.895-1.18 2.026-2.833 3.116-5.666 2.55-2.833-0.567-4.391-2.373-4.04-4.04 0.354-1.664 1.181-1.886 2.62-1.912-0.898-1.902-5.312-1.912-5.241 1.381 0.037 1.701-2.811 1.981-4 0.071-1.346-2.16-0.208-3.084 1.31-2.727 0.101-2.405-1.948-1.239-2.479-3.895s1.334-3.394 1.334-3.394c-3.336 1.017-4.052 2.01-7.486 0.982-1.219-0.363 0.194-3.678-3.726-2.537 0.662 11.95 10.5 21.38 22.63 21.38 12.56 0 22.66-10.11 22.66-22.66 0-9.117-5.342-16.92-13.07-20.52" fill="url(#c)" fill-rule="evenodd"/></g></svg>
