<svg viewBox="0 0 48 48" xmlns="http://www.w3.org/2000/svg"><defs><linearGradient id="b" x2="0" y1="15.27" y2="-8.741" gradientUnits="userSpaceOnUse"><stop stop-color="#e3eef3" offset="0"/><stop stop-color="#f3f3f3" offset="1"/></linearGradient><linearGradient id="a" x1="-112.5" x2="-111.1" y1="260.2" y2="154.6" gradientTransform="matrix(.4161 0 0 .4173 111 -94.89)" gradientUnits="userSpaceOnUse"><stop stop-color="#1365f4" offset="0"/><stop stop-color="#05b2fc" offset="1"/></linearGradient></defs><g transform="matrix(1 0 0 1 -43.37 30.88)" enable-background="new"><rect x="43.42" y="-30.76" width="46.07" height="45.92" rx="3.601" fill="url(#a)"/><path d="m75.37-9.293h-5.646v-1.882c0-1.039-.843-1.882-1.882-1.882-1.039 0-1.882.843-1.882 1.882v.627c0 .554-.696 1.255-1.255 1.255-.558 0-1.255-.7-1.255-1.255v-5.646c0-1.039-.843-1.882-1.882-1.882-1.039 0-1.882.843-1.882 1.882v.627c0 .554-.696 2.509-1.254 2.509-.558 0-1.255-1.955-1.255-2.509v-6.901c0-1.039-.843-1.882-1.882-1.882-1.039 0-1.882.842-1.882 1.882v3.137h-.053c-.13.693-.553 1.255-1.899 1.255-1.226 0-1.626-.561-1.754-1.255h-.058v-.704c-.003-.186 0-.373 0-.551 0-1.109-.356-6.273-4.252-6.273-1.116 0-2.02.899-2.02 2.01v34.879c0 1.109.905 2.01 2.02 2.01 3.896 0 4.252-5.164 4.252-6.273 0-.178-.003-.365 0-.551v-.704h.058c.128-.693.527-1.255 1.754-1.255 1.243 0 1.721.565 1.906 1.255h.046v3.137c0 1.039.843 1.882 1.882 1.882 1.039 0 1.882-.843 1.882-1.882v-6.9c0-.554.696-2.509 1.255-2.509.558 0 1.254 1.955 1.254 2.509v.627c0 1.039.843 1.882 1.882 1.882 1.039 0 1.882-.843 1.882-1.882v-5.646c0-.554.696-1.255 1.255-1.255.558 0 1.255.7 1.255 1.255v.627c0 1.039.843 1.882 1.882 1.882 1.039 0 1.882-.843 1.882-1.882v-1.882h5.646c1.039 0 1.882-.843 1.882-1.882 0-1.039-.842-1.882-1.882-1.882" fill="#fff" fill-opacity=".852" fill-rule="evenodd"/><circle cx="77.93" cy="3.567" r="13.44" fill="url(#b)"/><path d="m77.81-4.573c-4.075 0-7.379 3.304-7.379 7.379v5.739c0 1.361 1.099 2.46 2.46 2.46h2.46v-6.559h-3.279v-1.64c0-3.173 2.566-5.739 5.739-5.739s5.739 2.566 5.739 5.739v1.64h-3.279v6.559h2.46c1.361 0 2.46-1.099 2.46-2.46v-5.739c0-4.075-3.304-7.379-7.379-7.379" fill="#1073f5"/></g></svg>
