<svg width="48" height="48" viewBox="0 0 13.55 13.55" xmlns="http://www.w3.org/2000/svg" xmlns:xlink="http://www.w3.org/1999/xlink"><defs><linearGradient id="c" x2="0" y1="546.3" y2="501.5" gradientUnits="userSpaceOnUse" xlink:href="#a"/><linearGradient id="a"><stop stop-color="#197cf1" offset="0"/><stop stop-color="#20bcfa" offset="1"/></linearGradient><linearGradient id="b" x1="408.8" x2="407.8" y1="546.3" y2="501.5" gradientUnits="userSpaceOnUse" xlink:href="#a"/></defs><text x="3.768" y="6.842" font-family="URW Chancery L" font-size="14.39" font-style="italic" font-weight="bold" letter-spacing="0" word-spacing="0" line-height="125%"><tspan x="3.768" y="6.842"/></text><g transform="matrix(.3025 0 0 .3025 -116.6 -151.7)"><circle cx="407.8" cy="523.9" r="22.39" fill="url(#c)"/><circle cx="407.8" cy="523.9" r="21.43" fill="none" stroke="url(#b)" stroke-linecap="round" stroke-linejoin="round" stroke-width="1.914"/><path transform="matrix(.9329 0 0 .9329 385.4 501.5)" d="m26.428 10.842c-1.55 0-3.715.896-4.811 1.992l-13.1 13.1c-1.096 1.096-1.096 2.89 0 3.986l10.11 10.1c1.096 1.096 2.888 1.096 3.984 0l13.1-13.1c1.096-1.096 1.992-3.261 1.992-4.811v-8.453c0-1.55-1.266-2.818-2.816-2.818h-8.455m4.709 3.75c1.553 0 2.813 1.259 2.813 2.813 0 1.553-1.259 2.813-2.813 2.813-1.553 0-2.813-1.259-2.813-2.813 0-1.553 1.259-2.813 2.813-2.813m-6.375 7.182c.247.044.43.277.43.59l-.021 8.123c-.081.606-.593 1.182-1.334 1.385-.929.255-1.842-.169-2.041-.93-.199-.76.382-1.583 1.311-1.838.515-.141 1.012-.055 1.398.158v-4.924l-4.816 1.361-.021 6.24c-.081.606-.591 1.182-1.332 1.385-.929.255-1.844-.171-2.043-.932-.199-.76.382-1.583 1.311-1.838.515-.141 1.012-.055 1.398.158v-6.602c0-.416.306-.845.688-.953l5.074-1.385" fill-opacity=".752"/></g></svg>
