<svg viewBox="0 0 48 48" xmlns="http://www.w3.org/2000/svg"><defs><linearGradient id="a" x1="423.6" x2="422.9" y1="578" y2="530.4" gradientUnits="userSpaceOnUse"><stop stop-color="#197cf1" offset="0"/><stop stop-color="#20bcfa" offset="1"/></linearGradient></defs><g transform="matrix(.05466 0 0 .0594 7.17 16.46)"><circle transform="matrix(17.27 0 0 15.89 -7007 -8692)" cx="423.6" cy="555" r="25.43" fill="url(#a)" fill-rule="evenodd"/><g transform="matrix(.3983 0 0 .3665 997.8 -173.2)" fill="#fff" fill-opacity=".855"><path d="m-1757 420.8c-10.8-37.16-47.11-61.43-104.4-69.8-45.59-6.661-171.7-0.065-408.7 21.38-167 15.11-166.8 15.07-176.6 34.41-4.373 8.644-4.599 34.39-3.967 451.3l0.67 442.1 6.44 6.855c11.62 12.37 18.64 12.65 106.1 4.239 281.8-27.1 440.8-35.26 490.8-25.18 24.63 4.966 54.19 18.16 68.16 30.43 10.3 9.05 22.35 29.66 23.49 40.2 0.36 3.321 0.958-202.8 1.33-458.1 0.594-407.6 0.19-465.8-3.322-477.9"/><path d="m-1701 1336c11.47-22.31 44.58-42.09 83.65-49.97 51.84-10.45 225.7-1.12 518.4 27.83 57.94 5.731 67.41 4.9 78.49-6.886l6.44-6.855 0.67-442.1c0.631-416.9 0.405-442.7-3.967-451.3-6.25-12.36-17.05-18-40.52-21.2-27.14-3.695-236.2-22.51-327.8-29.5-99.92-7.624-212.6-8.393-238.9-1.631-38.23 9.821-65.07 28.58-77.71 54.31l-7.422 15.11-0.405 469.5c-0.223 258.2 0.475 465.9 1.55 461.5 1.075-4.364 4.46-12.81 7.523-18.76"/></g><path d="m244.3 125.3h-40.27v-13.42c0-7.413-6.01-13.42-13.42-13.42s-13.42 6.01-13.42 13.42v4.475c0 3.954-4.967 8.949-8.949 8.949-3.981 0-8.949-4.996-8.949-8.949v-40.27c0-7.414-6.01-13.42-13.42-13.42s-13.42 6.01-13.42 13.42v4.475c0 3.955-4.967 17.9-8.948 17.9-3.982 0-8.949-13.94-8.949-17.9v-49.22c0-7.414-6.01-13.42-13.42-13.42-7.414 0-13.42 6.01-13.42 13.42v22.37h-0.375c-0.926 4.944-3.943 8.949-13.55 8.949-8.748 0-11.6-4.01-12.51-8.949h-0.416v-5.02c-0.019-1.33 0-2.658 0-3.931 0-7.909-2.541-44.75-30.33-44.75-7.963 0-14.42 6.411-14.42 14.32v248.8c0 7.908 6.455 14.32 14.42 14.32 27.79 0 30.33-36.84 30.33-44.74 0-1.273-0.019-2.6 0-3.931v-5.02h0.416c0.915-4.944 3.761-8.95 12.51-8.95 8.865 0 12.28 4.03 13.59 8.95h0.327v22.37c0 7.414 6.01 13.42 13.42 13.42s13.42-6.01 13.42-13.42v-49.22c0-3.954 4.967-17.9 8.949-17.9 3.981 0 8.948 13.94 8.948 17.9v4.474c0 7.414 6.01 13.42 13.42 13.42s13.42-6.01 13.42-13.42v-40.27c0-3.955 4.968-8.949 8.949-8.949 3.982 0 8.949 4.995 8.949 8.949v4.474c0 7.414 6.01 13.42 13.42 13.42s13.42-6.01 13.42-13.42v-13.42h40.27c7.414 0 13.42-6.01 13.42-13.42s-6.01-13.42-13.42-13.42" fill="#1c9af5" fill-rule="evenodd"/></g></svg>
