<svg viewBox="0 0 48 48" xmlns="http://www.w3.org/2000/svg"><defs><linearGradient id="a" x2="0" y1="545.1" y2="518.1" gradientUnits="userSpaceOnUse"><stop stop-color="#1a85f2" offset="0"/><stop stop-color="#20bafa" offset="1"/></linearGradient></defs><g transform="matrix(1.714 0 0 1.714 -662.6 -887.6)"><circle cx="400.6" cy="531.8" r="14" fill="url(#a)"/><g transform="matrix(.1589 0 0 .1589 392.3 523.2)" fill="#fff" fill-opacity=".85"><path d="m86.07 0c-24.6 0-29.22 35.04-15.38 35.04 13.84 0 39.98-35.04 15.38-35.04"/><path d="m45.22 30.7c7.369 0.45 15.45-28.12 1.604-26.32-13.84 1.797-8.976 25.88-1.604 26.32"/><path d="m11.44 48.45c5.241-2.307 0.675-24.87-8.237-18.72-8.908 6.155 2.996 21.02 8.237 18.72"/><path d="m26.21 36.64c6.239-1.272 6.581-26.86-4.545-22.27-11.13 4.592-1.689 23.55 4.545 22.27"/><path d="m58.79 93.91c1.107 8.454-6.202 12.63-13.36 7.179-22.79-17.35 37.73-26 33.74-49.71-3.311-19.67-63.68-13.62-70.55 17.17-4.653 20.82 19.15 49.71 43.99 49.71 12.22 0 26.32-11.03 28.95-25.01 2.01-10.66-23.7-6.388-22.78 0.665"/></g></g></svg>
