<svg viewBox="0 0 48 48" xmlns="http://www.w3.org/2000/svg"><defs><linearGradient id="a" x2="0" y1="1061" y2="1015" gradientUnits="userSpaceOnUse"><stop stop-color="#ec396c" offset="0"/><stop stop-color="#ff709a" offset="1"/></linearGradient></defs><g transform="matrix(1.043 0 0 1.043 25.04 -1060)"><circle cx="-1" cy="1038" r="21.98" fill="url(#a)" stroke="url(#a)" stroke-width="2.041"/><path d="m7.851 1028-3.899 5.894-4.03-5.894h7.929m-4.518 7.242h-8.65l4.324 16.45 4.325-16.45m-8.361-0.966h8.07l-4.04-5.903-4.04 5.903m-0.908-0.382 4.03-5.894h-7.928l3.899 5.894m4.03 18.11-4.406-16.76h-9.493l13.9 16.76m-13.88-17.72h8.953l-3.9-5.895-5.05 5.895m24.54-5.885-3.893 5.885h8.938l-5.04-5.885m-4.42 6.85-4.406 16.76 13.88-16.76h-9.477" fill="#fff" fill-opacity=".847"/></g></svg>
