<svg viewBox="0 0 48 48" xmlns="http://www.w3.org/2000/svg"><defs><linearGradient id="a" x1="-124" x2="-125.2" y1="73.5" y2="-26.05" gradientTransform="matrix(.4943 0 0 .4778 86.65 13.11)" gradientUnits="userSpaceOnUse"><stop stop-color="#c52828" offset="0"/><stop stop-color="#ff5454" offset="1"/></linearGradient></defs><g enable-background="new"><rect x="1e-4" y=".007" width="48" height="48" rx="2.982" fill="url(#a)" fill-rule="evenodd"/></g><path d="m23.708 10l-6.225 15.458 19.992 2.508c.014-.047.016-.099.029-.146l-15.345-7.087 1.608-10.733c-.019 0-.039 0-.058 0m4.735 1.05c-.102.018-.198.128-.234.117l-4.267 8.342 12.637 6.759c.328-.014.317-.211.194-.401l-8.622-7.846.526-6.562c-.024-.344-.132-.426-.234-.408m-10.113.175c-4.907 2.181-8.33 7.07-8.33 12.775 0 7.732 6.281 14 14.03 14 5.755 0 10.697-3.452 12.86-8.4h-21.921zm12.714 1.429l-1.549 4.754 6.968 6.745c.199.291 1.304.467 1.537-.386 0-4.571-2.129-8.386-5.524-10.937-.791-.409-1.303-.505-1.432-.175" fill="#fff" fill-opacity=".843"/></svg>
