<svg viewBox="0 0 48 48" xmlns="http://www.w3.org/2000/svg"><defs><linearGradient id="a" x2="0" y1="654" y2="301.3" gradientUnits="userSpaceOnUse"><stop stop-color="#c52828" offset="0"/><stop stop-color="#ff5454" offset="1"/></linearGradient></defs><g transform="matrix(2.875 0 0 2.875 -7.921 -2972)" enable-background="new" fill="#fff" fill-opacity=".851"><circle transform="matrix(.04813 0 0 .04813 26.79 1019)" cx="-325.9" cy="478.8" r="173.4" fill="url(#a)" fill-opacity="1"/><g transform="matrix(.3975 0 0 .3975 3.352 1037)"><g transform="translate(0-10)"><circle cx="12" cy="18" r="2"/><circle cx="17" cy="18" r="2"/><circle cx="22" cy="18" r="2"/><circle cx="27" cy="18" r="2"/></g><g transform="translate(0-5)"><circle cx="12" cy="18" r="2"/><circle cx="17" cy="18" r="2"/><circle cx="22" cy="18" r="2"/><circle cx="27" cy="18" r="2"/></g><g fill="#fff"><circle transform="translate(5-5)" cx="27" cy="18" r="2"/><circle transform="translate(-20-5)" cx="27" cy="18" r="2"/><circle transform="translate(-20)" cx="27" cy="18" r="2"/><circle transform="translate(-15)" cx="27" cy="18" r="2"/><circle transform="translate(5)" cx="27" cy="18" r="2"/><circle cx="27" cy="18" r="2"/></g></g></g></svg>
