<svg viewBox="0 0 48 48" xmlns="http://www.w3.org/2000/svg"><defs><linearGradient id="a" x2="0" y1="654" y2="301.3" gradientUnits="userSpaceOnUse"><stop stop-color="#f15f19" offset="0"/><stop stop-color="#fbb521" offset="1"/></linearGradient></defs><g transform="matrix(2.875 0 0 2.875 -7.921 -2972)" enable-background="new"><circle transform="matrix(.04813 0 0 .04813 26.79 1019)" cx="-325.9" cy="478.8" r="173.4" fill="url(#a)"/><path d="m10.931 1037.95c-.182 0-.408 0-.694 0-1.066.001-1.066.001-1.314.076-.505.136-1.038.488-1.366.872-.361.424-.628.905-.628 1.484 0 .274 0 1.932 0 2.972.057 2.245 1.366 2.886 2.435 2.942.228 0 3.13 0 3.478 0 1.33-.108 2.401-1.347 2.435-2.239v-1.245c.004-1.031.004-1.387-.113-1.526-.122-.145-.215-.213-.584-.213-.36 0-.489.016-.607-.073-.15-.113-.187-.212-.212-.534-.081-1.152-.798-2.075-1.867-2.41-.262-.083-.42-.109-.966-.113m-1.355 2.094h1.531c.307 0 .557.247.557.557 0 .309-.249.486-.557.486h-1.531c-.309 0-.557-.178-.557-.486 0-.309.247-.557.557-.557m0 3.13h3.061c.309 0 .557.179.557.486 0 .309-.247.557-.557.557h-3.061c-.309 0-.557-.247-.557-.557 0-.307.247-.486.557-.486" fill="#fff" fill-opacity=".85"/></g></svg>
