<svg viewBox="0 0 48 48" xmlns="http://www.w3.org/2000/svg"><defs><linearGradient id="a" x2="0" y1="53.94" y2="5.141" gradientUnits="userSpaceOnUse"><stop stop-color="#5dae33" offset="0"/><stop stop-color="#9be058" offset="1"/></linearGradient></defs><g transform="translate(-118 -5.695)"><circle cx="142" cy="29.7" r="24" fill="url(#a)"/><g transform="matrix(.07632 0 0 .07632 129.4 17.14)" fill="#fff" fill-opacity=".854"><path d="m99.31 119.1c-1.236 4.771 1.639 9.658 6.41 10.9 4.771 1.234 9.658-1.641 10.9-6.409 1.236-4.771-1.639-9.658-6.41-10.9-4.772-1.237-9.659 1.638-10.9 6.409"/><path d="m297.7 70.5h-8.552v-2.311c0-11.05-8.954-20-20-20h-78.1c-5.945-17.55-15.39-22.01-22.34-22.52-13.91-1.025-36.49 16.31-46.59 60.57l27.91 35.24c1.521 1.922 2.055 4.445 1.439 6.817l-17.76 68.52c-1.084 4.182-5.352 6.691-9.531 5.607l-69.75-18.08c-4.182-1.083-6.693-5.352-5.609-9.533l17.76-68.52c0.615-2.372 2.307-4.319 4.57-5.262l41.2-17.12c0.992-6.336 4.08-21.4 12.42-35.72h-104.8c-11.05 0-20 8.954-20 20v177.8c0 40.96 33.02 74.33 73.84 74.93 4.342 11.22 15.23 19.18 27.98 19.18h85.5c12.75 0 23.64-7.961 27.98-19.18 36.39-0.535 66.56-27.13 72.69-61.91h9.707c37.5 0 68-30.51 68-68v-52.49c1e-4 -37.49-30.5-68-68-68m-148-22.31c5.03-6.678 12.09-12.05 18.13-11.56 5.389 0.442 9.08 5.864 11.49 11.56h-29.62zm176 142.8c0 15.44-12.56 28-28 28h-8.552v-108.5h8.552c15.44 0 28 12.56 28 28v52.5"/></g></g></svg>
