<svg viewBox="0 0 48 48" xmlns="http://www.w3.org/2000/svg"><defs><linearGradient id="c" x1="-48.95" x2="-49.55" y1="-5.178" y2="-30.89" gradientUnits="userSpaceOnUse"><stop stop-color="#566069" offset="0"/><stop stop-color="#6c7884" offset="1"/></linearGradient><linearGradient id="b" x1="43.69" x2="42.36" y1="15.43" y2="-4.937" gradientUnits="userSpaceOnUse"><stop stop-color="#d5dbff" offset="0"/><stop stop-color="#f9ffff" offset="1"/></linearGradient><linearGradient id="a" x1="-56.27" x2="-56.38" y1="3.509" y2="-26.78" gradientUnits="userSpaceOnUse"><stop stop-color="#ff9300" offset="0"/><stop stop-color="#ffd702" offset="1"/></linearGradient></defs><g transform="matrix(1 0 0 1 -32.68 29.51)" enable-background="new"><rect transform="matrix(-1 -.00628 -.00628 1 0 0)" x="-76.55" y="-28.46" width="40.63" height="31.2" rx="1.217" fill="url(#c)"/><rect transform="matrix(-.9843 -.1764 -.1764 .9843 0 0)" x="-77.26" y="-27.35" width="40.63" height="31.2" rx="1.217" fill="url(#a)"/><path d="m67.797-4.321l-1.083-1.124c-.135-.14-.535.014-1.01.351l-.464-.482c.354-.457.524-.851.389-.991l-2.652-2.754c-1.598-.743-3.349-1.1-5.11-1.044l-.889.029c-.148.005-.279.096-.336.233-.056.137-.025.295.077.401.042.044.094.076.151.095l1 .336c1.137.381 2.055 1.231 2.522 2.335l.03.071.646.671-4.637 4.466c-.156-.124-.392-.119-.569.027l-6.03 4.458c-.531.436-.879 1.054-.959 1.701-.081.648.113 1.265.535 1.703.422.438 1.032.655 1.682.599.65-.056 1.279-.381 1.736-.895l4.683-5.853c.152-.172.166-.407.048-.568l4.637-4.466.877.91c.135.14.535-.014 1.01-.351l.464.482c-.354.457-.524.851-.389.991l1.083 1.124c.192.199.919-.189 1.624-.868.705-.679 1.12-1.39.928-1.59" fill-opacity=".737"/><path d="m43-5.036a10.47 10.47 0 0 0-10.32 10.61 10.47 10.47 0 0 0 10.61 10.32 10.47 10.47 0 0 0 10.32-10.61 10.47 10.47 0 0 0-10.61-10.32m-3.082 6.091 7.709 4.244-7.529 4.555-0.18-8.799z" fill="url(#b)"/></g></svg>
