<svg viewBox="0 0 48 48" xmlns="http://www.w3.org/2000/svg" xmlns:xlink="http://www.w3.org/1999/xlink"><defs><linearGradient id="b"><stop stop-color="#828282" offset="0"/><stop stop-color="#bfbfbf" offset="1"/></linearGradient><linearGradient id="a"><stop stop-color="#cdced2" offset="0"/><stop stop-color="#f1f1f1" offset="1"/></linearGradient><linearGradient id="c" x1="-11.01" x2="-9.467" y1="149.7" y2="229.3" gradientTransform="matrix(-1.002 -4e-5 -4e-5 -.9519 47.19 407.4)" gradientUnits="userSpaceOnUse" xlink:href="#a"/><linearGradient id="e" x1="-9.963" x2="-9.702" y1="153.6" y2="229.8" gradientTransform="matrix(1.0015.00148.00148-.95188-.497 407.36)" gradientUnits="userSpaceOnUse" xlink:href="#b"/><linearGradient id="f" x1="51.42" x2="49.91" y1="220.8" y2="153.6" gradientUnits="userSpaceOnUse" xlink:href="#b"/><linearGradient id="d" x1=".958" x2="1.065" y1="217.2" y2="152.8" gradientTransform="matrix(1.002 4e-5 4e-5 .9519 .292 11.94)" gradientUnits="userSpaceOnUse" xlink:href="#a"/></defs><g transform="matrix(.7004 0 0 .7004 -262 -351.3)"><g fill-rule="evenodd"><path transform="matrix(.6212 -.00047 .00047 .623 393.3 405.3)" d="m-23.525 154.67l47.829.036-.042 55.17-55.44-.042.037-48.05c.006-7.638 7.211-7.109 7.614-7.108" fill="url(#d)"/><path transform="matrix(.6212 -.00047 .00047 .623 393.3 405.3)" d="m71.58 154.74l-47.829-.036-.042 55.17 55.44.042.036-48.05c.006-7.638-7.2-7.119-7.603-7.12" fill="url(#f)"/><path transform="matrix(.6212 -.00047 .00047 .623 393.6 405.3)" d="m-24.1 264.6l47.829.036.042-55.17-55.44-.042-.036 48.05c-.006 7.638 7.2 7.119 7.603 7.12" fill="url(#e)"/><path transform="matrix(.6212 -.00047 .00047 .623 393.6 405.3)" d="m71 264.67l-47.829-.036.042-55.17 55.44.042-.037 48.05c-.006 7.638-7.211 7.109-7.614 7.108" fill="url(#c)"/></g><g transform="matrix(1.65 0 0 1.65 384 511.6)" fill="#171717"><path d="m21.595 24.502c-.562-.617-.354-2.674-.354-2.674 0 0 1.107-4.826 1.711-5.932.604-1.105.62-4.278.62-4.278 0 0-.118-1.963-.974-4.384-.856-2.42-3.852-4.44-5.872-4.766-.207-1.135-1.992-2.468-1.992-2.468 0 0 .295 2.439-.03 2.483-.325.044-1.682.443-1.682.443l.31 1c-1.756.518-2.458 1.019-2.458 1.019 0 0-.05.089-.375.753-.325.664-4.205 3.762-4.388 3.969-.183.207-.078.604-.078.604 0 0-.062.812-.106.856-.044.045-.163.664.051.93.214.267.376.59.803.944.428.354.546.118.546.118 0 0 .036.135 1.225.321 1.461.013 1.962-1.059 1.962-1.059 0 0 .428-.752 1.564-.531 2.272 1.181 3.815.292 3.815.292 0 0-1.849 1.532-4.603 5.564-2.754 4.03-.787 6.791-.787 6.791h11.09z"/><path d="m22.653 28.955c0 .26-.211.471-.472.471h-12.471c-.261 0-.472-.211-.472-.471v-3.533c0-.26.211-.471.472-.471h12.472c.261 0 .472.211.472.471v3.533"/></g></g></svg>
