<svg viewBox="0 0 48 48" xmlns="http://www.w3.org/2000/svg"><defs><linearGradient id="a" x2="0" y1="545.1" y2="518.1" gradientUnits="userSpaceOnUse"><stop stop-color="#2d6fbc" offset="0"/><stop stop-color="#5ea5fb" offset="1"/></linearGradient></defs><g transform="matrix(1.128 0 0 1.128 -363.5 -568.8)"><circle transform="matrix(1.519 0 0 1.519 -265.2 -282.6)" cx="400.6" cy="531.8" r="14" fill="url(#a)"/><g transform="matrix(1.235 0 0 1.235 -46.67 -87.23)" fill="#fff" opacity=".868"><ellipse cx="309.9" cy="490.2" rx="2.287" ry="2.287" opacity="1"/><ellipse cx="316" cy="490.2" rx="2.287" ry="2.287" opacity="1"/><ellipse cx="322" cy="490.2" rx="2.287" ry="2.287" opacity="1"/><ellipse cx="309.9" cy="496.5" rx="2.287" ry="2.287" opacity="1"/><ellipse cx="309.9" cy="502.6" rx="2.287" ry="2.287" opacity="1"/><ellipse cx="322" cy="496.4" rx="2.287" ry="2.287" opacity="1"/><ellipse cx="322" cy="502.4" rx="2.287" ry="2.287" opacity="1"/><ellipse transform="translate(6.312 12.26)" cx="309.7" cy="490.3" rx="2.287" ry="2.287" opacity="1"/><ellipse transform="translate(6.312 6.129)" cx="309.7" cy="490.3" rx="2.287" ry="2.287" opacity="1"/></g></g></svg>
