<svg version="1.1" viewBox="0 0 48 48" xmlns="http://www.w3.org/2000/svg" xmlns:xlink="http://www.w3.org/1999/xlink"><defs><linearGradient id="a" x1="-13.22" x2="-12.61" y1="43.32" y2="-7.119" gradientTransform="translate(35.19 6.305)" gradientUnits="userSpaceOnUse"><stop stop-color="#c52828" offset="0"/><stop stop-color="#ff5454" offset="1"/></linearGradient></defs><circle cx="24" cy="24" r="24" fill="url(#a)"/><g transform="translate(.002237 -.008509)" enable-background="new"><g transform="matrix(.8236 0 0 .8236 -2.453 -824.7)" fill="#fff" fill-opacity=".851"><path transform="matrix(.03906 0 0 .03906 21.19 1020)" d="m648.3 306.8h-69.51c-17.59 0-31.78 14.07-32.39 31.42-14.44 134.2-128 238.6-266.2 238.6-147.9 0-267.6-119.6-267.6-267.2 0-146.3 120.6-265.2 266.5-267.2v43.43c0 19.78 14.07 28.63 31.3 19.78l223.1-114.2c17.23-8.857 17.23-23.17 0-32.03l-223.1-113.9c-17.23-8.855-31.3 0-31.3 19.65v43.79c-219.9 2.063-400.3 180.9-400.3 400.9 0 221.4 179.7 400.9 401.4 400.9 212.1 0 385.8-164.1 400.3-372.3 0.121-17.47-14.56-31.66-32.27-31.66z" fill="#fff" fill-opacity=".851"/></g></g></svg>
