<svg viewBox="0 0 48 48" xmlns="http://www.w3.org/2000/svg"><defs><linearGradient id="b" x1="-124" x2="-125.2" y1="73.5" y2="-26.05" gradientTransform="matrix(.4943 0 0 .4778 86.64 13.1)" gradientUnits="userSpaceOnUse"><stop stop-color="#ffbc00" offset="0"/><stop stop-color="#ffec00" offset="1"/></linearGradient><linearGradient id="a" x1="-55.03" x2="-56.45" y1="61.66" y2="22.38" gradientUnits="userSpaceOnUse"><stop stop-color="#c52828" offset="0"/><stop stop-color="#ff5454" offset="1"/></linearGradient></defs><g fill-rule="evenodd"><path d="m2.982 0h42.04c1.652 0 2.982 1.33 2.982 2.982v42.04c0 1.652-1.33 2.982-2.982 2.982h-42.04c-1.652 0-2.982-1.33-2.982-2.982v-42.04c0-1.652 1.33-2.982 2.982-2.982" fill="url(#b)"/><path transform="matrix(1.2 0 0 1.2 90.87-25.791)" d="m-56.67 21.49a12.77 12.77 0 0 1 6.826 11.28 12.77 12.77 0 0 1-3.705 8.979 22.17 22.17 0 0 0 11.6-19.46 22.17 22.17 0 0 0-0.03906-0.8008h-14.68m-18.42 6.062a22.17 22.17 0 0 0-0.6387 0.03125v14.37a12.77 12.77 0 0 1 11.12-6.508 12.77 12.77 0 0 1 8.979 3.705 22.17 22.17 0 0 0-19.46-11.6m39.36 13.35a12.77 12.77 0 0 1-11.12 6.508 12.77 12.77 0 0 1-8.979-3.705 22.17 22.17 0 0 0 19.46 11.6 22.17 22.17 0 0 0 0.6406-0.03125v-14.37m-22.26 0.3262a22.17 22.17 0 0 0-11.6 19.46 22.17 22.17 0 0 0 0.03906 0.8008h14.68a12.77 12.77 0 0 1-6.826-11.28 12.77 12.77 0 0 1 3.707-8.98" fill="url(#a)"/></g></svg>
