<svg viewBox="0 0 48 48" xmlns="http://www.w3.org/2000/svg"><defs><linearGradient id="b" x1="26.44" x2="25.63" y1="44.75" y2="-3.458" gradientUnits="userSpaceOnUse"><stop stop-color="#18191b" offset="0"/><stop stop-color="#424649" offset="1"/></linearGradient><linearGradient id="a" x1="24.21" x2="23.78" y1="35.86" y2="11.74" gradientUnits="userSpaceOnUse"><stop stop-color="#dbdada" offset="0"/><stop stop-color="#fff" offset="1"/></linearGradient></defs><ellipse transform="translate(-2.644 3.051)" cx="26.64" cy="20.95" rx="24" ry="24" fill="url(#b)"/><g transform="matrix(1.714 0 0 1.714 -49.21 3.512)" enable-background="new"><path transform="matrix(.5833 0 0 .5833 28.71 -2.049)" d="m15.66 12.68a3.187 3.187 0 0 0-3.188 3.188 3.187 3.187 0 0 0 3.188 3.186 3.187 3.187 0 0 0 3.188-3.186 3.187 3.187 0 0 0-3.188-3.188m8.541 0a3.187 3.187 0 0 0-3.186 3.188 3.187 3.187 0 0 0 3.186 3.186 3.187 3.187 0 0 0 3.187-3.186 3.187 3.187 0 0 0-3.187-3.188m8.285 0a3.187 3.187 0 0 0-3.186 3.188 3.187 3.187 0 0 0 3.186 3.186 3.187 3.187 0 0 0 3.188-3.186 3.187 3.187 0 0 0-3.188-3.188m0 8.541a3.187 3.187 0 0 0-3.186 3.188 3.187 3.187 0 0 0 3.186 3.186 3.187 3.187 0 0 0 3.188-3.186 3.187 3.187 0 0 0-3.188-3.188m-8.285 0.127a3.187 3.187 0 0 0-3.188 3.186 3.187 3.187 0 0 0 3.188 3.188 3.187 3.187 0 0 0 3.186-3.188 3.187 3.187 0 0 0-3.186-3.186m-8.541 0.1289a3.187 3.187 0 0 0-3.188 3.186 3.187 3.187 0 0 0 3.188 3.188 3.187 3.187 0 0 0 3.188-3.188 3.187 3.187 0 0 0-3.188-3.186m16.83 8.162a3.187 3.187 0 0 0-3.186 3.188 3.187 3.187 0 0 0 3.186 3.187 3.187 3.187 0 0 0 3.188-3.187 3.187 3.187 0 0 0-3.188-3.188m-16.83 0.25a3.187 3.187 0 0 0-3.188 3.187 3.187 3.187 0 0 0 3.188 3.188 3.187 3.187 0 0 0 3.188-3.188 3.187 3.187 0 0 0-3.188-3.187m8.541 0a3.187 3.187 0 0 0-3.188 3.187 3.187 3.187 0 0 0 3.188 3.188 3.187 3.187 0 0 0 3.186-3.188 3.187 3.187 0 0 0-3.186-3.187" fill="url(#a)"/></g></svg>
