<svg version="1.1" viewBox="0 0 48 48" xmlns="http://www.w3.org/2000/svg"><path d="m38.9 22.14c-0.21 0.1882-0.5195 0.1979-0.7441 0.02792l-7.408-5.637-3.509 21c-0.01335 0.08012-0.04127 0.1517-0.08254 0.2185-0.704 3.01-4.545 5.254-9.062 5.254-5.063 0-9.183-2.804-9.183-6.25 0-3.447 4.119-6.251 9.183-6.251 2.079 0 4.056 0.4649 5.663 1.318l4.642-26.33c0.04127-0.2403 0.2294-0.4321 0.4734-0.4771 0.2355-0.04127 0.4819 0.06676 0.6069 0.2792l9.535 16.12c0.1445 0.2452 0.0959 0.5499-0.1153 0.738" enable-background="new" fill="#566060"/></svg>
