<svg viewBox="0 0 48 48" xmlns="http://www.w3.org/2000/svg"><defs><linearGradient id="a" x1="23.69" x2="24.3" y1="264.7" y2="154.7" gradientTransform="matrix(.4084-.0003.00031.38931 36.647-88.77)" gradientUnits="userSpaceOnUse"><stop stop-color="#4fd127" offset="0"/><stop stop-color="#c6f61a" offset="1"/></linearGradient><linearGradient id="b" x1="23.69" x2="24.3" y1="264.7" y2="154.7" gradientTransform="matrix(.4084-.0003.00031.38931 36.647-88.77)" gradientUnits="userSpaceOnUse"><stop stop-color="#eb4646" offset="0"/><stop stop-color="#ff8651" offset="1"/></linearGradient><linearGradient id="d" x1=".967" x2="3.419" y1="204.6" y2="147.6" gradientTransform="matrix(.4084-.0003.00031.38931 36.751-88.66)" gradientUnits="userSpaceOnUse"><stop stop-color="#ffbc00" offset="0"/><stop stop-color="#ffec00" offset="1"/></linearGradient><linearGradient id="c" x1="23.69" x2="26.18" y1="264.7" y2="157.5" gradientTransform="matrix(.4084-.0003.00031.38931 36.647-88.77)" gradientUnits="userSpaceOnUse"><stop stop-color="#0976da" offset="0"/><stop stop-color="#5de5f0" offset="1"/></linearGradient></defs><g transform="matrix(1 0 0 1 -38.37 25.88)" enable-background="new"><g transform="matrix(1.066 0 0 1.066 12.84 6.423)" fill-rule="evenodd"><path d="m27.08-30.28h19.5v22.56h-22.61v-19.65c0-3.124 2.938-2.91 3.103-2.91" fill="url(#d)"/><path d="m26.98 14.72h19.5v-22.56h-22.61v19.65c0 3.124 2.938 2.91 3.103 2.91" fill="url(#b)"/><path d="m65.92-30.28h-19.5v22.56h22.61v-19.65c0-3.124-2.938-2.91-3.103-2.91" fill="url(#a)"/><path d="m65.88 14.72h-19.5v-22.56h22.61v19.65c0 3.124-2.938 2.91-3.103 2.91" fill="url(#c)"/></g><path d="m59.998-14.963l.19.04c2.207-.733 7.16 2.153 6.06 4.725-.28.404-.232 1.121.105 1.573l-6.194 6.185c-.347-.346-1.118-.339-1.473 0l-10.243 9.814c-.934.895-.2 1.655.195 2.056l1.837 1.834c.402.399 1.463.937 2.217.14l9.667-10.17c.337-.354.34-1.114 0-1.463 0 0 .005-.005 0-.005l6.219-6.205c.657.591 1.277.642 1.865.481 1.136-.31 1.769.799 2.449 1.61l-.307.302c-.454.459-.412 1.231.097 1.74.509.508 1.286.551 1.74.097l2.032-2.026c.454-.459.412-1.231-.1-1.737-.459-.461-1.126-.521-1.59-.192-1.393-1.56-.662-1.794-2.499-3.825l-3.443-3.511c-2.479-2.427-5.7-2.425-8.82-1.46" fill="#fff" fill-opacity=".85" opacity=".9"/></g></svg>
