<svg viewBox="0 0 48 48" xmlns="http://www.w3.org/2000/svg" xmlns:xlink="http://www.w3.org/1999/xlink"><defs><linearGradient id="c" x1="56.49" x2="57.17" y1="3.779" y2="-6.928" gradientUnits="userSpaceOnUse"><stop stop-color="#197cf1" offset="0"/><stop stop-color="#20bcfa" offset="1"/></linearGradient><linearGradient id="d" x1="5186" x2="5206" y1="-539.3" y2="-1659" gradientTransform="matrix(.00543 0 0 .00537 43.19-.384)" gradientUnits="userSpaceOnUse" xlink:href="#a"/><linearGradient id="b" x2="0" y1="21.12" y2="-24.88" gradientUnits="userSpaceOnUse"><stop stop-color="#030303" offset="0"/><stop stop-color="#383838" offset="1"/></linearGradient><linearGradient id="e" x1="337.6" x2="416" y1="1659" y2="111.3" gradientTransform="matrix(.00542 0 0 .00536 62.14-20.829)" gradientUnits="userSpaceOnUse" xlink:href="#a"/><linearGradient id="a"><stop stop-color="#d3d3d3" offset="0"/><stop stop-color="#fcf9f9" offset="1"/></linearGradient><linearGradient id="g" x1="197.4" x2="259.7" y1="1746" y2="21.16" gradientTransform="matrix(.00543 0 0 .00537 40.91 -10.57)" gradientUnits="userSpaceOnUse" xlink:href="#a"/><linearGradient id="f" x1="1094" x2="1098" y1="-63.41" y2="-1743" gradientTransform="matrix(.00543 0 0 .00537 45.48-10.326)" gradientUnits="userSpaceOnUse" xlink:href="#a"/></defs><g transform="matrix(1.043 0 0 1.043 -35.86 25.96)" enable-background="new"><rect x="34.38" y="-24.88" width="46" height="46" rx="23" fill="url(#b)"/><path d="m70.31-7.586c-.209-.164-.472-.262-.757-.262-.672 0-1.219.542-1.236 1.217-.694.263-1.187.94-1.187 1.733 0 .937.689 1.711 1.582 1.833v.017h6.329v-.003c.882-.052 1.582-.792 1.582-1.697 0-.873-.651-1.592-1.489-1.689.004-.053.005-.107.005-.161 0-1.353-1.129-2.45-2.522-2.45-1.031 0-1.917.601-2.308 1.462" fill="url(#d)"/><path d="m51.628-19.358q1.699 0 2.86 1.171 1.161 1.171 1.161 2.829 0 .933-.404 1.544-.394.611-1.15.611-.777 0-1.161-.756-.508.756-1.451.756-.85 0-1.43-.591-.58-.601-.58-1.523 0-.912.58-1.513.58-.601 1.389-.601.798 0 1.326.611h.041v-.466h.746v2.705q0 .269.145.487.155.218.466.218.736 0 .736-1.482 0-1.368-.953-2.311-.953-.943-2.321-.943-1.368 0-2.321.943-.953.943-.953 2.311 0 1.368.953 2.311.953.943 2.321.943.736 0 1.316-.29l.29.705q-.725.332-1.606.332-1.72 0-2.891-1.161-1.171-1.171-1.171-2.839 0-1.658 1.171-2.829 1.181-1.171 2.891-1.171m-.964 5.01q.373.363.891.363.518 0 .881-.363.373-.363.373-.964 0-.601-.373-.964-.363-.363-.881-.363-.518 0-.891.363-.363.363-.363.964 0 .601.363.964" fill="url(#f)"/><path d="m62.903-19.09c-.295.083-.533.415-.533.738v5.113c-.299-.165-.684-.232-1.082-.123-.719.197-1.169.834-1.015 1.423.154.589.862.918 1.581.72.574-.157.969-.602 1.032-1.072l.017-4.832 3.729-1.054v3.812c-.299-.165-.684-.232-1.082-.123-.719.197-1.169.834-1.015 1.423.154.589.862.918 1.581.72.574-.157.969-.602 1.032-1.072l.017-6.29c0-.242-.142-.423-.333-.457l-3.928 1.072" fill="url(#e)"/><path d="m47.03-5.752l-1.34-1.34c-.128-.127-.088-.264.088-.303 0 0 .145-.033.324-.212.384-.384.384-1.01 0-1.391-.384-.384-1.01-.384-1.391 0-.179.179-.211.324-.211.324-.04.176-.176.216-.303.088l-1.34-1.339c-.127-.128-.336-.128-.464 0l-1.339 1.339c-.127.128-.088.264.088.304 0 0 .145.033.324.211.384.384.384 1.01 0 1.391-.384.384-1.01.384-1.391 0-.179-.179-.211-.324-.211-.324-.039-.176-.176-.215-.304-.088l-1.339 1.34c-.127.127-.127.336 0 .463l1.339 1.34c.127.127.088.264-.088.304 0 0-.145.033-.324.212-.384.384-.384 1.01 0 1.391.384.384 1.01.384 1.391 0 .179-.179.211-.324.211-.324.04-.176.176-.216.303-.088l1.34 1.339c.127.128.336.128.464 0l1.34-1.339c.127-.127.088-.264-.088-.304 0 0-.146-.033-.324-.211-.384-.384-.384-1.01 0-1.391.384-.384 1.01-.384 1.391 0 .179.179.211.324.211.324.04.176.176.216.304.088l1.34-1.34c.127-.127.127-.336 0-.463" fill="url(#g)"/><path d="m62.59-7.089s-7.807 2.394-9.301 3.886c-1.497 1.499-1.497 3.921 3e-3 5.419 1.492 1.497 3.917 1.497 5.415 0 1.493-1.499 3.883-9.305 3.883-9.305" fill="url(#c)"/></g></svg>
