<svg viewBox="0 0 48 48" xmlns="http://www.w3.org/2000/svg"><defs><linearGradient id="a" x2="0" y1="546.3" y2="501.5" gradientUnits="userSpaceOnUse"><stop stop-color="#197cf1" offset="0"/><stop stop-color="#20bcfa" offset="1"/></linearGradient></defs><g transform="translate(0 -1004)"><circle transform="matrix(1.072 0 0 1.072 -413.2 466.8)" cx="407.8" cy="523.9" r="22.39" fill="url(#a)"/><g transform="matrix(.4099 0 0 .4099 3 1007)" fill="#fff" fill-opacity=".853"><path d="m61.98 17.16-13.7 13.7c-0.789 0.79-2.074 0.79-2.866 0l-0.197-0.202v-10.09c-16.54 1.156-29.65 14.98-29.65 31.81 0 11.82 6.487 22.62 16.94 28.17 2.631 1.402 3.631 4.671 2.233 7.31-1.403 2.635-4.671 3.634-7.306 2.231-13.98-7.44-22.67-21.89-22.67-37.72 0-22.79 17.95-41.47 40.46-42.64v-8.941l0.197-0.199c0.792-0.79 2.077-0.79 2.866 0l13.7 13.7c0.794 0.794 0.794 2.08 0 2.867"/><path d="m54.17 101.9-13.7-13.7c-0.792-0.79-0.792-2.074 0-2.864l13.7-13.7c0.791-0.794 2.074-0.794 2.868 0l0.191 0.198 7e-3 10.08c16.54-1.154 29.65-14.97 29.65-31.8 0-11.82-6.491-22.61-16.94-28.18-2.635-1.4-3.635-4.675-2.234-7.31 1.406-2.635 4.678-3.634 7.312-2.231 13.98 7.44 22.67 21.89 22.67 37.72 0 22.79-17.95 41.47-40.46 42.64v8.942l-0.198 0.198c-0.795 0.792-2.078 0.792-2.869 1e-4"/></g></g></svg>
