<svg viewBox="0 0 48 48" xmlns="http://www.w3.org/2000/svg"><defs><linearGradient id="b" x1="-1093" x2="-1060" y1="203.1" y2="104.8" gradientTransform="matrix(.3553 0 0 .3492 314.9 -49.68)" gradientUnits="userSpaceOnUse"><stop stop-color="#f2b333" offset="0"/><stop stop-color="#fcde3f" offset="1"/></linearGradient><linearGradient id="a" x1="-50.95" x2="-55.93" y1="41.34" y2=".059" gradientUnits="userSpaceOnUse"><stop stop-color="#1584d8" offset="0"/><stop stop-color="#1cb2ff" offset="1"/></linearGradient></defs><g transform="matrix(1 0 0 1 -38.37 25.88)" enable-background="new"><g transform="translate(114.7 -29.98)"><rect transform="matrix(.94958-.31353.30858.9512 0 0)" x="-76.19" y="-10.38" width="31.9" height="40.04" rx=".977" fill="url(#b)"/><rect transform="matrix(.9919 -.1272 .1359 .9907 0 0)" x="-70.9" y="-.317" width="35.55" height="43.77" rx="1.068" fill="url(#a)"/></g><path transform="matrix(-1.707 .1174 -.1174 -1.707 85.35 18.61)" d="m7.405 4.914c-.52.914-.791.914-.271 1.829l3.191 5.616-1.855 3.226c-.401-.376-.934-.611-1.526-.611-1.248 0-2.253 1.02-2.253 2.286 0 1.267 1 2.286 2.253 2.286 1.248 0 2.253-1.02 2.253-2.286 0-.153-.016-.302-.044-.447l1.047-1.841c.703-.009.792-.708 1.202-.718l1.445 2.543c-.03.149-.046.304-.046.463 0 1.267 1 2.286 2.253 2.286 1.248 0 2.253-1.02 2.253-2.286 0-1.267-1-2.286-2.253-2.286-.589 0-1.119.233-1.519.605l-1.852-3.22 3.191-5.616c.52-.914.249-.914-.271-1.829l-3.6 6.262-3.6-6.262m3.595 7.316c.25 0 .451.204.451.457 0 .253-.201.457-.451.457-.25 0-.451-.204-.451-.457 0-.253.201-.457.451-.457zm-4.056 3.658c.749 0 1.352.612 1.352 1.372 0 .76-.603 1.372-1.352 1.372-.749 0-1.352-.612-1.352-1.372 0-.76.603-1.372 1.352-1.372zm8.112 0c.749 0 1.352.612 1.352 1.372 0 .76-.603 1.372-1.352 1.372-.749 0-1.352-.612-1.352-1.372 0-.76.603-1.372 1.352-1.372z" color-rendering="auto" fill="#dceffb" image-rendering="auto" shape-rendering="auto" solid-color="#000000" stroke="#ddeffb" stroke-linecap="round" stroke-linejoin="round" stroke-width=".584" isolation="auto" mix-blend-mode="normal" white-space="normal"/></g></svg>
