<svg viewBox="0 0 48 48" xmlns="http://www.w3.org/2000/svg" xmlns:xlink="http://www.w3.org/1999/xlink"><defs><linearGradient id="c" x2="0" y1="555.3" y2="507.3" gradientUnits="userSpaceOnUse" xlink:href="#a"/><linearGradient id="b" x2="0" y1="555.6" y2="507.6" gradientUnits="userSpaceOnUse" xlink:href="#a"/><linearGradient id="a"><stop stop-color="#197cf1" offset="0"/><stop stop-color="#21c9fb" offset="1"/></linearGradient></defs><g transform="matrix(1.021 0 0 1.021 -320.1 -516.6)"><circle transform="translate(-54.29-2.37)" cx="391.2" cy="531.7" r="22.5" fill="url(#c)" stroke="url(#b)" stroke-linecap="round" stroke-linejoin="round" stroke-width="2"/><g transform="matrix(.671 0 0 .671 60.89 177.2)" fill="#d2edfd" fill-rule="evenodd"><path d="m428.6 503.8-10 20 5 1zm-34 14-9 8 10-4 7 22 5-3 23 2-8-15-4-1-13 9-7-17z"/><path d="m403.6 527.8 3 5 11-6-8-2z"/><path d="m394.6 517.8-1.42 4.967 2.42-0.967-1-4"/><path d="m405.42 535.44l-1.779 7.717 3.928-2.357.146.014-1.859-5.211-.287.197-.148-.359"/><path d="m409.6 524.8-6 3 3 5 0.408-0.223 2.592-7.777"/><path d="m418.6 526.8-4.684 3.242 16.64 12.68-7.957-14.92-4-1"/></g></g></svg>
