<svg viewBox="0 0 48 48" xmlns="http://www.w3.org/2000/svg"><defs><linearGradient id="a" x2="0" y1="17.28" y2="-30.72" gradientUnits="userSpaceOnUse"><stop stop-color="#dc3c30" offset="0"/><stop stop-color="#ff786d" offset="1"/></linearGradient></defs><g transform="matrix(1 0 0 1 -33.42 30.73)" enable-background="new"><rect transform="scale(-1 1)" x="-81.43" y="-30.72" width="48" height="48" rx="24" fill="url(#a)"/><g fill-rule="evenodd"><path d="m67.14 4.16l-22.01-3.165c0 0-3.233-.127-1.267-2.521l14.932-18.19c.635-.694 1.361-.576 1.679.318l8.06 21.86c.931 2.202-1.401 1.696-1.401 1.696" fill="#f1f9ff"/><path d="m59.17 3.02l-2.682 2.682c-1.07 1.063-1.486.294-1.974-.275l-1.671-3.342 5.914-20.11c.297-.948 1.06-.508.963.206z" fill="#ccd3d8"/><path d="m56.4 2.324l-.739 3.608c-.817 1.334-2.729-3.789-2.729-3.789l5.914-20.226c.297-.948.743-.689.645.025z" fill="#dde4ea"/></g></g></svg>
