<svg viewBox="0 0 48 48" xmlns="http://www.w3.org/2000/svg"><defs><linearGradient id="c" x2="0" y1="536.6" y2="515.7" gradientUnits="userSpaceOnUse"><stop stop-color="#197ff1" offset="0"/><stop stop-color="#21c6fb" offset="1"/></linearGradient><linearGradient id="b" x2="0" y1="532.3" y2="510.7" gradientUnits="userSpaceOnUse"><stop stop-color="#ff9300" offset="0"/><stop stop-color="#ffd702" offset="1"/></linearGradient><linearGradient id="a" x2="0" y1="547.8" y2="499.8" gradientUnits="userSpaceOnUse"><stop stop-color="#e7e7e7" offset="0"/><stop stop-color="#fcfcfc" offset="1"/></linearGradient></defs><g transform="translate(-384.57-499.8)"><rect x="384.6" y="499.8" width="48" height="48" rx="24" fill="url(#a)"/><g transform="matrix(1.247 0 0 1.247 -100.8 -129.2)"><path d="m409.7 511c14.08 17.11 10.19 23.85-11.67 20.21 14.67-0.514 18.56-7.251 11.67-20.21" fill="url(#b)"/><path d="m408.72 515.46c-10.389.175-12.265 5.25-5.689 15.22.62-.108 1.213-.223 1.775-.365-2.513-8.837 2.259-13.485 14.32-13.907-4.098-.682-7.571-.996-10.406-.948m-4.838 16.484c1.027 1.465 2.208 3.03 3.574 4.692-.861-1.62-1.566-3.145-2.091-4.571-.479-.029-.977-.077-1.483-.122" fill="url(#c)"/></g></g></svg>
