<svg viewBox="0 0 48 48" xmlns="http://www.w3.org/2000/svg"><defs><linearGradient id="a" x2="0" y1="923.2" y2="859.6" gradientUnits="userSpaceOnUse"><stop stop-color="#eb4646" offset="0"/><stop stop-color="#ff8651" offset="1"/></linearGradient><linearGradient id="b" x2="0" y1="547.8" y2="499.8" gradientUnits="userSpaceOnUse"><stop stop-color="#e7e7e7" offset="0"/><stop stop-color="#fcfcfc" offset="1"/></linearGradient><linearGradient id="d" x2="0" y1="536.6" y2="515.7" gradientUnits="userSpaceOnUse"><stop stop-color="#197ff1" offset="0"/><stop stop-color="#21c6fb" offset="1"/></linearGradient><linearGradient id="c" x2="0" y1="532.3" y2="510.7" gradientUnits="userSpaceOnUse"><stop stop-color="#ff9300" offset="0"/><stop stop-color="#ffd702" offset="1"/></linearGradient></defs><g transform="translate(-384.57-499.8)"><rect x="384.6" y="499.8" width="48" height="48" rx="24" fill="url(#b)"/><g transform="matrix(1.247 0 0 1.247 -100.8 -129.2)"><path d="m409.7 511c14.08 17.11 10.19 23.85-11.67 20.21 14.67-0.514 18.56-7.251 11.67-20.21" fill="url(#c)"/><path d="m408.72 515.46c-10.389.175-12.265 5.25-5.689 15.22.62-.108 1.213-.223 1.775-.365-2.513-8.837 2.259-13.485 14.32-13.907-4.098-.682-7.571-.996-10.406-.948m-4.838 16.484c1.027 1.465 2.208 3.03 3.574 4.692-.861-1.62-1.566-3.145-2.091-4.571-.479-.029-.977-.077-1.483-.122" fill="url(#d)"/></g><g transform="matrix(.2817 0 0 .2817 338.8 289.7)"><circle transform="matrix(.9976 0 0 .9976 143.5 -9.631)" cx="153.8" cy="892.2" r="35.59" fill="url(#a)"/><path d="m320.66 878.08c-.076-.676-.865-1.184-1.546-1.184-2.204 0-4.16-1.294-4.981-3.296-.838-2.05-.298-4.441 1.345-5.948.517-.473.58-1.264.146-1.814-1.128-1.433-2.41-2.727-3.811-3.848-.548-.44-1.353-.379-1.828.148-1.434 1.588-4.01 2.178-5.999 1.348-2.071-.871-3.377-2.97-3.249-5.222.042-.708-.475-1.323-1.18-1.405-1.797-.208-3.609-.214-5.411-.014-.697.077-1.214.678-1.191 1.376.078 2.23-1.243 4.292-3.294 5.132-1.966.803-4.523.218-5.954-1.356-.473-.518-1.264-.582-1.815-.153-1.442 1.131-2.753 2.426-3.891 3.847-.444.552-.379 1.353.144 1.828 1.674 1.516 2.215 3.928 1.345 6-.83 1.977-2.883 3.251-5.234 3.251-.763-.024-1.306.487-1.389 1.181-.212 1.807-.214 3.648-.001 5.47.075.679.888 1.183 1.577 1.183 2.095-.053 4.105 1.243 4.949 3.296.841 2.05.3 4.44-1.345 5.948-.515.473-.58 1.263-.146 1.812 1.118 1.423 2.4 2.719 3.805 3.85.551.444 1.353.381 1.831-.145 1.439-1.592 4.01-2.181 5.996-1.349 2.076.868 3.382 2.967 3.254 5.221-.042.708.478 1.324 1.18 1.405.919.107 1.844.161 2.771.161.88 0 1.76-.048 2.64-.146.698-.077 1.214-.678 1.191-1.378-.081-2.229 1.243-4.291 3.291-5.129 1.979-.808 4.526-.217 5.957 1.355.476.517 1.261.58 1.815.152 1.439-1.128 2.747-2.422 3.891-3.847.444-.551.381-1.353-.144-1.828-1.674-1.516-2.217-3.928-1.348-6 .818-1.951 2.794-3.261 4.921-3.261l.297.008c.69.056 1.324-.475 1.408-1.179.212-1.809.214-3.648.011-5.47m-23.864 10.744c-4.424 0-8.02-3.599-8.02-8.02 0-4.424 3.599-8.02 8.02-8.02 4.424 0 8.02 3.599 8.02 8.02 0 4.424-3.599 8.02-8.02 8.02" fill="#fff" fill-opacity=".934" fill-rule="evenodd" stroke-width="1.317"/></g></g></svg>
