<svg viewBox="0 0 48 48" xmlns="http://www.w3.org/2000/svg" xmlns:xlink="http://www.w3.org/1999/xlink"><defs><linearGradient id="c" x1="-34.51" x2="-35.09" y1="-8.02" y2="-32.8" gradientUnits="userSpaceOnUse" xlink:href="#b"/><linearGradient id="f" x2="0" y1="-.413" y2="-3.765" gradientUnits="userSpaceOnUse" xlink:href="#a"/><linearGradient id="d" x1="-42.34" x2="-42.45" y1="1.559" y2="-27.63" gradientUnits="userSpaceOnUse"><stop stop-color="#0ba97d" offset="0"/><stop stop-color="#11e19b" offset="1"/></linearGradient><linearGradient id="e" x1="24.41" x2="24.27" y1="-4.811" y2="-7.02" gradientUnits="userSpaceOnUse" xlink:href="#a"/><linearGradient id="g" x1="391.6" x2="390.9" y1="531.8" y2="507.7" gradientTransform="matrix(.7009 0 0 .8642 -251.2 -444.5)" gradientUnits="userSpaceOnUse"><stop stop-color="#d3d3d3" offset="0"/><stop stop-color="#fcf9f9" offset="1"/></linearGradient><linearGradient id="j" x1="35.61" x2="35.32" y1="14.95" y2="-3.499" gradientUnits="userSpaceOnUse" xlink:href="#b"/><linearGradient id="h" x1="36.26" x2="35.64" y1="15.98" y2="-6.51" gradientUnits="userSpaceOnUse" xlink:href="#a"/><linearGradient id="b"><stop stop-color="#197ff1" offset="0"/><stop stop-color="#21c6fb" offset="1"/></linearGradient><linearGradient id="a"><stop stop-color="#222c35" offset="0"/><stop stop-color="#545e67" offset="1"/></linearGradient><linearGradient id="i" x1="29.43" x2="43.63" y1="-2.02" y2="12.18" gradientUnits="userSpaceOnUse" xlink:href="#a"/></defs><g transform="matrix(1 0 0 1 -18.37 30.88)" enable-background="new"><rect transform="matrix(-1 -.00628 -.00628 1 0 0)" x="-61.1" y="-30.46" width="39.15" height="30.06" rx="1.172" fill="url(#c)"/><rect transform="matrix(-.9843 -.1764 -.1764 .9843 0 0)" x="-62.57" y="-28.18" width="39.15" height="30.06" rx="1.172" fill="url(#d)"/><path d="m61.845 5.547l1.482-9.288.476-3.277c.039-.097.105-.292.054-.503-.063-.236-.27-.423-.411-.537.089-.635.125-1.099.056-1.113-.067-.013-.208.423-.354 1.047-.173.05-.443.154-.592.353-.128.177-.131.385-.132.488l-2.833 12.401-2.33-.447 1.494-9.397c0 0 .077-.358.035-.511-.041-.159-.159-.277-.264-.365.122-.741.169-1.317.1-1.33-.077-.015-.239.523-.4 1.248-.133.036-.319.11-.43.256-.088.128-.157.488-.157.488l-2.08 9.281-2.02-.388 1.282-6.686-.173-.054.244-1.27-1.255-.241-.217 1.133-1.19-.236-.138-.026.373-1.943-.411-.079c.026-.158.047-.501-.178-.923-.212-.395-.598-.732-.832-.912.151-.852.195-1.539.087-1.559-.104-.02-.314.629-.494 1.469-.276.069-.786.239-1.153.546-.075.061-.14.132-.192.192l.063-.328-.541-.104c.231-.139 2.333-1.524 2.396-3.455.062-1.884-1.512-3.352-2.735-4.631-.847-.878-1.28-1.459-1.482-1.895l-.039-.008c.053-.202.104-.426.149-.66.161-.842.192-1.535.11-1.712l.002-.001c-.018-.022-.021-.061-.037-.064h-.004-.004c-.001-.002-.033.034-.052.047l-.002.001c-.152.132-.37.789-.531 1.631-.045.234-.082.457-.106.669l-.043-.008c-.345.331-.966.71-2.08 1.212-1.607.734-3.608 1.518-4.25 3.289-.656 1.817.787 3.882.947 4.096l-.543-.104-.063.33c-.033-.074-.06-.164-.11-.247-.221-.422-.639-.771-.865-.934.152-.845.189-1.529.085-1.549-.108-.021-.318.638-.498 1.48-.283.084-.769.256-1.108.546-.365.309-.472.631-.507.792l-.413-.079-.369 1.923-1.334-.229.217-1.133-1.259-.241-.244 1.27-.175-.013-1.282 6.686-2.027-.389 1.504-9.392c0 0 .069-.36.033-.512-.048-.176-.196-.315-.305-.397.122-.733.166-1.293.092-1.308-.077-.015-.242.539-.399 1.273-.132.042-.288.108-.383.241-.094.129-.161.487-.161.487l-2.084 9.28-2.328-.447 1.956-12.567c.039-.097.111-.291.056-.503-.06-.238-.274-.434-.417-.545.095-.634.128-1.091.059-1.104-.067-.013-.21.427-.353 1.056-.179.053-.44.146-.586.344-.128.177-.137.384-.134.488l-.771 3.224-2.06 9.177-.724-.139-1.361 7.489 37.621 6.989c1.724.381 1.798-1.564 1.798-1.564l.956-5.432-.724-.139m-17.203-3.338l-3.148-.604.639-3.333c0 0 .154-.898 1.014-1.271.368-.156.639-.208.892-.163.251.052.487.202.772.482.659.665.47 1.556.47 1.556z" fill-opacity=".661"/><rect x="21.82" y="-6.752" width="3.882" height="1.941" rx=".647" fill="url(#e)"/><rect x="18.38" y="-5.674" width="33.64" height="20.74" rx=".971" fill="url(#g)"/><path d="m24.43 4.771a11.79 11.79 0 0 1 11.79-11.79 11.79 11.79 0 0 1 11.79 11.79 11.79 11.79 0 0 1-11.79 11.79 11.79 11.79 0 0 1-11.79-11.79" fill="url(#h)"/><circle cx="36.22" cy="4.771" r="9.263" fill="url(#i)"/><circle cx="36.22" cy="4.771" r="8.421" fill="url(#j)"/><circle cx="22.14" cy="-2.089" r="1.676" fill="url(#f)" fill-rule="evenodd"/></g></svg>
