<svg viewBox="0 0 48 48" xmlns="http://www.w3.org/2000/svg"><defs><linearGradient id="b" x1="-124" x2="-125.2" y1="73.5" y2="-26.05" gradientTransform="matrix(.4943 0 0 .4778 125 -12.77)" gradientUnits="userSpaceOnUse"><stop stop-color="#212121" offset="0"/><stop stop-color="#3f3f41" offset="1"/></linearGradient><linearGradient id="a" x1="24.53" x2="24.69" y1=".995" y2="45.94" gradientUnits="userSpaceOnUse"><stop stop-color="#69ec3e" offset="0"/><stop stop-color="#2ca815" offset="1"/></linearGradient></defs><path transform="matrix(1 0 0 1 -38.38 25.88)" d="m41.36-25.88h42.04c1.652 0 2.982 1.33 2.982 2.982v42.04c0 1.652-1.33 2.982-2.982 2.982h-42.04c-1.652 0-2.982-1.33-2.982-2.982v-42.04c0-1.652 1.33-2.982 2.982-2.982" fill="url(#b)" fill-rule="evenodd"/><path d="m8.416 13.33h12.92v-5.333h5.333v5.333h12.92v5.333h-12.92v5.333h5.333v16h-5.333v-10.67h-5.333v10.67h-5.333v-16h5.333v-5.333h-12.92" fill="url(#a)"/></svg>
