<svg viewBox="0 0 48 48" xmlns="http://www.w3.org/2000/svg"><defs><linearGradient id="c" x1="-54.67" x2="-55.27" y1="-1.587" y2="-27.3" gradientUnits="userSpaceOnUse"><stop stop-color="#566069" offset="0"/><stop stop-color="#6c7884" offset="1"/></linearGradient><linearGradient id="b" x1="49.38" x2="48.05" y1="19.06" y2="-1.31" gradientUnits="userSpaceOnUse"><stop stop-color="#d5dbff" offset="0"/><stop stop-color="#f9ffff" offset="1"/></linearGradient><linearGradient id="a" x1="-62.51" x2="-62.62" y1="6.075" y2="-24.22" gradientUnits="userSpaceOnUse"><stop stop-color="#197ff1" offset="0"/><stop stop-color="#21c6fb" offset="1"/></linearGradient></defs><g transform="matrix(1 0 0 1 -38.37 25.88)" enable-background="new"><rect transform="matrix(-1 -.00628 -.00628 1 0 0)" x="-82.27" y="-24.87" width="40.63" height="31.2" rx="1.217" fill="url(#c)"/><rect transform="matrix(-.9843 -.1764 -.1764 .9843 0 0)" x="-83.51" y="-24.78" width="40.63" height="31.2" rx="1.217" fill="url(#a)"/><path d="m48.7-1.409a10.47 10.47 0 0 0-10.32 10.61 10.47 10.47 0 0 0 10.61 10.32 10.47 10.47 0 0 0 10.32-10.61 10.47 10.47 0 0 0-10.61-10.32m-3.082 6.091 7.709 4.244-7.529 4.555-0.18-8.799" fill="url(#b)"/></g></svg>
