<svg viewBox="0 0 48 48" xmlns="http://www.w3.org/2000/svg"><defs><linearGradient id="a" x1="414.4" x2="387.2" y1="545.9" y2="517.7" gradientUnits="userSpaceOnUse"><stop stop-color="#80256c" offset="0"/><stop stop-color="#4567bd" offset="1"/></linearGradient></defs><g transform="matrix(1 0 0 1 -38.37 25.88)" enable-background="new"><g transform="matrix(1.714 0 0 1.714 -624.3 -913.5)"><circle cx="400.6" cy="531.8" r="14" fill="url(#a)"/><circle cx="400.6" cy="531.8" r="14" fill="#5ea5fb" fill-opacity="0"/></g><path transform="matrix(.06913 0 0 .06913 48.37-15.175)" d="m283.9 92.85c-36.58-49.35-73.69-89.27-74.06-89.66-1.892-2.029-4.54-3.182-7.313-3.182-2.774 0-5.423 1.152-7.314 3.182-0.371 0.397-37.48 40.32-74.06 89.66-49.97 67.4-75.31 119.7-75.31 155.5 0 86.4 70.29 156.7 156.7 156.7 86.4 0 156.7-70.29 156.7-156.7 0-35.79-25.34-88.11-75.31-155.5" fill="#fff" fill-opacity=".772"/></g></svg>
