<svg version="1.1" viewBox="0 0 48 48" xmlns="http://www.w3.org/2000/svg" xmlns:xlink="http://www.w3.org/1999/xlink"><defs><linearGradient id="b" x1="408" x2="407.8" y1="517.5" y2="512.5" gradientTransform="matrix(.8963 0 0 .8963 -432.7 -441.4)" gradientUnits="userSpaceOnUse" xlink:href="#a"/><linearGradient id="a" x1="400.5" x2="400.7" y1="546.1" y2="517.8" gradientUnits="userSpaceOnUse"><stop stop-color="#2e3e46" offset="0"/><stop stop-color="#435a64" offset="1"/></linearGradient><linearGradient id="d" x1="248.2" x2="248" y1="-6.236" y2="-40.76" gradientTransform="matrix(.4309 0 0 .4338 -176.4 16.09)" gradientUnits="userSpaceOnUse" xlink:href="#a"/><linearGradient id="c" x1="407.9" x2="407.4" y1="542.6" y2="505" gradientTransform="matrix(.8963 0 0 .8963 -432.7 -441.4)" gradientUnits="userSpaceOnUse"><stop stop-color="#197ff1" offset="0"/><stop stop-color="#21c6fb" offset="1"/></linearGradient></defs><g transform="translate(90.51 -.8136)"><path d="m-88.38 3.304c-0.4774 0-0.8618 0.3869-0.8618 0.8675v35.4l44.84 0.1041v-30.38c0-0.4806-0.3844-0.8675-0.8618-0.8675h-20.94c-0.8786 0.07808-0.9915-0.03904-1.425-0.6225-0.6157-0.8294-1.545-3.062-2.151-3.873-0.4865-0.7083-0.5653-0.6259-1.372-0.6259z" color="#000000" fill="url(#d)"/><rect x="-90.51" y="10.99" width="48" height="35.33" rx="1.663" fill="url(#c)"/><rect x="-73.77" y="19.65" width="14.52" height="2.689" rx="1.182" fill="url(#b)" fill-rule="evenodd"/></g></svg>
