<svg viewBox="0 0 48 48" xmlns="http://www.w3.org/2000/svg"><defs><linearGradient id="a" x1="-124" x2="-125.2" y1="73.5" y2="-26.05" gradientTransform="matrix(1.035 0 0 1 4.382 0)" gradientUnits="userSpaceOnUse"><stop stop-color="#c52828" offset="0"/><stop stop-color="#ff5454" offset="1"/></linearGradient></defs><path transform="matrix(.4778 0 0 .4778 84.55 13.1)" d="m-170.5-27.42h87.55c3.577 0 6.458 2.783 6.458 6.241v87.98c0 3.457-2.88 6.241-6.457 6.241h-87.55c-3.577 0-6.457-2.783-6.457-6.241v-87.98c0-3.457 2.88-6.241 6.457-6.241" fill="url(#a)" fill-rule="evenodd"/><g transform="matrix(1.062 0 0 1.062 -143.7 -19.06)" fill="#fff" fill-opacity=".851"><path d="m135.2 24.52a16 16 0 0 1 13.91 7.972 16 16 0 0 1 0.0159 16.03 16 16 0 0 1-13.89 7.999"/><path d="m180.4 24.52a16 16 0 0 0-13.91 7.972 16 16 0 0 0-0.0159 16.03 16 16 0 0 0 13.89 7.999"/></g></svg>
