<svg width="48" height="48" viewBox="0 0 13.55 13.55" xmlns="http://www.w3.org/2000/svg"><defs><linearGradient id="a" x2="0" y1="56.36" y2="24.9" gradientUnits="userSpaceOnUse"><stop stop-color="#197cf1" offset="0"/><stop stop-color="#20bcfa" offset="1"/></linearGradient></defs><text x="3.768" y="6.842" font-family="URW Chancery L" font-size="14.39" font-style="italic" font-weight="bold" letter-spacing="0" word-spacing="0" line-height="125%"><tspan x="3.768" y="6.842"/></text><path transform="matrix(.4516 0 0 .4516 21.55 -11.95)" d="m-28.99 26.48c-1.55 0-3.715 0.896-4.811 1.992l-13.1 13.1c-1.096 1.096-1.096 2.89 0 3.986l10.11 10.1c1.096 1.096 2.888 1.096 3.984 0l13.1-13.1c1.096-1.096 1.992-3.261 1.992-4.811v-8.453c0-1.55-1.266-2.818-2.816-2.818h-8.455m4.709 3.75c1.553 0 2.813 1.259 2.813 2.813 0 1.553-1.259 2.813-2.813 2.813-1.553 0-2.813-1.259-2.813-2.813 0-1.553 1.259-2.813 2.813-2.813" fill="url(#a)"/><path transform="matrix(.2782 0 0 .2782 -88.47 -141.5)" d="m339.8 546.9q-4.142 0-6.754-2.761-2.575-2.761-2.575-6.978 0-3.993 2.5-6.866 2.537-2.873 6.455-2.873 4.067 0 6.493 2.649 2.463 2.649 2.463 7.09l-0.037 0.634h-14.44q0.149 2.761 1.828 4.366 1.716 1.605 3.993 1.605 3.694 0 5-3.134l3.06 1.269q-0.896 2.127-2.948 3.582-2.052 1.418-5.04 1.418m4.926-11.94q-0.112-1.567-1.455-2.985-1.306-1.418-3.918-1.418-1.903 0-3.321 1.194-1.381 1.194-1.903 3.209h10.6" fill="#fff" fill-opacity=".85"/></svg>
