<svg viewBox="0 0 48 48" xmlns="http://www.w3.org/2000/svg"><defs><linearGradient id="a" x1="-124" x2="-125.2" y1="73.5" y2="-26.05" gradientTransform="matrix(1.035 0 0 1 4.382 0)" gradientUnits="userSpaceOnUse"><stop stop-color="#d3d3d3" offset="0"/><stop stop-color="#fcf9f9" offset="1"/></linearGradient></defs><path transform="matrix(.4778 0 0 .4778 84.55 13.1)" d="m-170.5-27.42h87.55c3.577 0 6.458 2.783 6.458 6.241v87.98c0 3.457-2.88 6.241-6.457 6.241h-87.55c-3.577 0-6.457-2.783-6.457-6.241v-87.98c0-3.457 2.88-6.241 6.457-6.241" fill="url(#a)" fill-rule="evenodd"/><g transform="matrix(1.067 0 0 1.067 -412.3 -537.1)"><path d="m394.85 521.44c-2.643 0-4.846 1.121-4.846 4.505 0 2.68 1.481 4.368 4.914 4.368 4.04 0 4.3-2.662 4.3-2.662h-1.958c0 0-.42 1.433-2.461 1.433-1.663 0-2.859-1.123-2.859-2.698h7.483v-.988c0-1.558-.989-3.959-4.573-3.959m-.068 1.263c1.583 0 2.662.97 2.662 2.423h-5.46c0-1.543 1.408-2.423 2.798-2.423" fill="#e53238"/><path d="m399.42 518.17v10.45c0 .593-.042 1.426-.042 1.426h1.867c0 0 .067-.598.067-1.145 0 0 .923 1.443 3.431 1.443 2.642 0 4.436-1.834 4.436-4.462 0-2.445-1.648-4.411-4.432-4.411-2.607 0-3.417 1.408-3.417 1.408v-4.709zm4.846 4.594c1.794 0 2.935 1.331 2.935 3.118 0 1.916-1.318 3.169-2.922 3.169-1.915 0-2.948-1.495-2.948-3.152 0-1.544.927-3.135 2.935-3.135" fill="#0064d2"/><path d="m413.82 521.44c-3.977 0-4.232 2.177-4.232 2.525h1.979c0 0 .104-1.271 2.116-1.271 1.307 0 2.321.598 2.321 1.749v.409h-2.321c-3.081 0-4.709.901-4.709 2.73 0 1.8 1.505 2.779 3.538 2.779 2.771 0 3.664-1.531 3.664-1.531 0 .609.047 1.209.047 1.209h1.76c0 0-.068-.744-.068-1.22v-4.114c0-2.698-2.176-3.265-4.095-3.265m2.184 4.641v.546c0 .712-.439 2.483-3.03 2.483-1.417 0-2.024-.707-2.024-1.527 0-1.492 2.045-1.502 5.05-1.502" fill="#f5af02"/><path d="m416.8 521.8h2.227l3.196 6.402 3.188-6.402h2.02l-5.807 11.4h-2.116l1.676-3.177z" fill="#86b817"/></g></svg>
