<svg viewBox="0 0 48 48" xmlns="http://www.w3.org/2000/svg"><defs><linearGradient id="a" x1="-124" x2="-125.2" y1="73.5" y2="-26.05" gradientTransform="matrix(1.035 0 0 1 4.382 0)" gradientUnits="userSpaceOnUse"><stop stop-color="#566069" offset="0"/><stop stop-color="#6c7884" offset="1"/></linearGradient></defs><path transform="matrix(.4778 0 0 .4778 84.55 13.1)" d="m-170.5-27.42h87.55c3.577 0 6.458 2.783 6.458 6.241v87.98c0 3.457-2.88 6.241-6.457 6.241h-87.55c-3.577 0-6.457-2.783-6.457-6.241v-87.98c0-3.457 2.88-6.241 6.457-6.241" fill="url(#a)" fill-rule="evenodd"/><path transform="matrix(1.124 0 0 1.124 48.34 1.904)" d="m-32.659 33.906v-1.28h2.64q1.08 0 1.08-1.08v-23.76q0-1.08-1.08-1.08h-2.88v-1.28h22.32l.16 9.04h-1l-.04-.8q-.08-.84-.48-2.2-.4-1.36-1.12-2.44-1.52-2.32-4.68-2.32h-6.44q-1.08 0-1.08 1.08v10.92h3.52q1.08 0 1.8-.48.72-.52 1-1.44.28-.92.36-1.72.12-.8.12-1.88h1.04v12.52h-1.04q0-1.12-.08-1.88-.08-.8-.4-1.72-.28-.96-1-1.44-.72-.52-1.8-.52h-3.52v11.4q0 1.08 1.08 1.08h3.52v1.28h-12" fill="#fff" fill-opacity=".85"/></svg>
