<svg viewBox="0 0 48 48" xmlns="http://www.w3.org/2000/svg"><defs><linearGradient id="a" x1="-124" x2="-125.2" y1="73.5" y2="-26.05" gradientTransform="matrix(1.035 0 0 1 140.3 142.6)" gradientUnits="userSpaceOnUse"><stop stop-color="#5dae33" offset="0"/><stop stop-color="#9be058" offset="1"/></linearGradient></defs><rect transform="matrix(.4778 0 0 .4778 19.606-55.02)" x="-41.04" y="115.2" width="100.5" height="100.5" rx="6.241" fill="url(#a)" fill-rule="evenodd"/><g fill="#fff" fill-opacity=".849"><path transform="matrix(1.084 0 0 1.084 114.2 -56.94)" d="m-81.85 88.9q-.76.8-1.92.8-1.16 0-1.96-.8-.76-.8-.76-1.92 0-1.12.76-1.92.8-.8 1.96-.8 1.16 0 1.92.8.8.8.8 1.92 0 1.12-.8 1.92m-.04-8.32h-3.76v-1.88q0-1.8.76-3.08.76-1.32 2.68-3.08 1.08-1 1.52-1.48.48-.52.92-1.4.48-.92.48-1.88 0-1.84-1.2-2.96-1.16-1.12-3.24-1.12-3.44 0-4.72 3.84l-3.44-1.44q.84-2.28 2.88-4.08 2.08-1.84 5.28-1.84 3.64 0 5.92 2.16 2.28 2.12 2.28 5.44 0 1.44-.76 2.92-.76 1.48-1.36 2.12-.56.6-1.6 1.56-.12.12-.2.2-2.44 2.2-2.44 4.4v1.6" fill="#fff" fill-opacity=".849"/></g></svg>
