<svg version="1.1" viewBox="0 0 48 48" xmlns="http://www.w3.org/2000/svg" xmlns:xlink="http://www.w3.org/1999/xlink"><defs><linearGradient id="a" x1="-13.06" x2="-13.38" y1="70.78" y2="23.8" gradientTransform="translate(-23.8 -29.9)" gradientUnits="userSpaceOnUse"><stop stop-color="#4469b9" offset="0"/><stop stop-color="#5d91ff" offset="1"/></linearGradient></defs><g transform="translate(60.2 6.305)"><rect x="-57.8" y="-6.305" width="43.2" height="48" rx="2.4" fill="url(#a)"/><path d="m-39.42-6.285v17.15h-0.01563v5.615c-0.3684 3.612 6.831 3.612 6.449 0v-2.783-2.832-17.15h-6.434z" fill-opacity=".404" fill-rule="evenodd"/><path d="m-37.45-4.976c-0.591 0-1.066 0.4754-1.066 1.066v0.2656c0 0.591 0.4754 1.068 1.066 1.068h2.666c0.591 0 1.066-0.4774 1.066-1.068v-0.2656c0-0.591-0.4754-1.066-1.066-1.066h-2.666zm-0.01172 3.467c-0.591 0-1.066 0.4774-1.066 1.068v0.2656c0 0.591 0.4754 1.066 1.066 1.066h2.666c0.591 0 1.066-0.4754 1.066-1.066v-0.2656c0-0.591-0.4754-1.068-1.066-1.068h-2.666zm-0.02344 3.434c-0.591 0-1.068 0.4754-1.068 1.066v0.2656c0 0.591 0.4774 1.066 1.068 1.066h2.666c0.591 0 1.066-0.4754 1.066-1.066v-0.2656c0-0.591-0.4754-1.066-1.066-1.066h-2.666zm0.04687 3.576c-0.591 0-1.066 0.4754-1.066 1.066v0.2656c0 0.591 0.4754 1.066 1.066 1.066h2.666c0.591 0 1.068-0.4754 1.068-1.066v-0.2656c0-0.591-0.4774-1.066-1.068-1.066h-2.666zm0 3.504c-0.591 0-1.066 0.4754-1.066 1.066v0.2656c0 0.591 0.4754 1.066 1.066 1.066h2.666c0.591 0 1.068-0.4754 1.068-1.066v-0.2656c0-0.591-0.4774-1.066-1.068-1.066h-2.666zm-0.0039 3.592c-0.591 0-1.066 0.4754-1.066 1.066v0.2656c0 0.591 0.4754 1.066 1.066 1.066h2.666c0.591 0 1.068-0.4754 1.068-1.066v-0.2656c0-0.591-0.4774-1.066-1.068-1.066h-2.666zm0.2207 3.625c-0.42 0-0.7617 0.3413-0.7617 0.7637v1.514l-1.178 3.469c-0.3288 0.9672-0.1721 2.04 0.4219 2.873 0.5928 0.8316 1.555 1.328 2.574 1.328 1.019 0 1.981-0.4977 2.574-1.328 0.5928-0.8328 0.7507-1.905 0.4219-2.871l-1.176-3.471v-1.514c0-0.4224-0.3405-0.7637-0.7617-0.7637h-2.115zm-0.09375 5.078h2.303l0.3945 1.164c0.1692 0.498 0.08725 1.053-0.2188 1.482v2e-3c-0.6108 0.8568-2.045 0.8568-2.656 0-0.306-0.4296-0.386-0.9852-0.2168-1.484l0.3945-1.164z" fill="#e4edf8" opacity=".929"/></g></svg>
