<svg viewBox="0 0 48 48" xmlns="http://www.w3.org/2000/svg"><defs><linearGradient id="c" x1="-423.1" x2="-425" y1="519.5" y2="228" gradientUnits="userSpaceOnUse"><stop stop-color="#e01728" offset="0"/><stop stop-color="#ff566a" offset="1"/></linearGradient><linearGradient id="b" x1="-206.7" x2="-208.3" y1="315.4" y2="23.36" gradientTransform="matrix(.9978 0 0 1 -218.9 203)" gradientUnits="userSpaceOnUse"><stop stop-color="#c71625" offset="0"/><stop stop-color="#ff6d7b" offset="1"/></linearGradient><linearGradient id="a" x2="0" y1="446" y2="304.5" gradientUnits="userSpaceOnUse"><stop stop-color="#f7abb2" offset="0"/><stop stop-color="#f9dce0" offset="1"/></linearGradient></defs><g transform="matrix(.099 0 0 .099 65.889-9.608)"><path transform="matrix(-4.168 0 0 4.168 -18.57 316.7)" d="m43.887-36.699c-1.108 0-2 .892-2 2v38.729l111 .24v-29.08c0-1.108-.892-2-2-2h-60.17c-2.039.18-2.301-.09-3.308-1.435-1.429-1.912-3.586-5.145-4.992-7.01-1.129-1.633-1.312-1.443-3.184-1.443z" fill="#e64150"/><rect x="-655.5" y="225.8" width="463.8" height="295.1" rx="9.63" fill="url(#c)"/><rect x="-654.9" y="225.8" width="462.8" height="295.1" rx="9.63" fill="none" stroke="url(#b)" stroke-linecap="round" stroke-width="2"/><path d="m-473 304.5-26.54 123.9h26.54l11.51-53.09h65.17l-58.98 53.09 17.7 17.7c26.54-17.7 53.09 14.16 79.63-12.39l-5.305-21.24-7.967 6.204c-12.02 6.907-21.9-0.871-35.93-3.01l40.35-40.35 8.848-26.54h-97.33l4.424-17.7h66.36l8.848-26.54z" fill="url(#a)" fill-rule="evenodd"/></g></svg>
