<svg viewBox="0 0 48 48" xmlns="http://www.w3.org/2000/svg"><defs><linearGradient id="b" x1="-59.48" x2="-59.53" y1="1038" y2="1022" gradientUnits="userSpaceOnUse"><stop stop-color="#4469b9" offset="0"/><stop stop-color="#5d91ff" offset="1"/></linearGradient><linearGradient id="c" x1="-124" x2="-125.2" y1="73.5" y2="-26.05" gradientTransform="matrix(1.035 0 0 1 4.382 0)" gradientUnits="userSpaceOnUse"><stop stop-color="#dce2ff" offset="0"/><stop stop-color="#f8feff" offset="1"/></linearGradient><linearGradient id="a" x1="-41.63" x2="-42.04" y1="1038" y2="1022" gradientUnits="userSpaceOnUse"><stop stop-color="#d50081" offset="0"/><stop stop-color="#ff79c1" offset="1"/></linearGradient></defs><g transform="translate(0 -1004)" fill-rule="evenodd"><path transform="matrix(.4778 0 0 .4778 84.54 1017)" d="m-170.5-27.42h87.55c3.577 0 6.458 2.783 6.458 6.241v87.98c0 3.457-2.88 6.241-6.457 6.241h-87.55c-3.577 0-6.457-2.783-6.457-6.241v-87.98c0-3.457 2.88-6.241 6.457-6.241" fill="url(#c)"/><g transform="matrix(1.139 0 0 1.139 80.92 -145.1)" color-rendering="auto" image-rendering="auto" shape-rendering="auto"><path d="m-50.75 1030a7.5 7.5 0 0 1-7.5 7.5 7.5 7.5 0 0 1-7.5-7.5 7.5 7.5 0 0 1 7.5-7.5 7.5 7.5 0 0 1 7.5 7.5" fill="url(#b)" solid-color="#000000" isolation="auto" mix-blend-mode="normal"/><path d="m-34.16 1030a7.5 7.5 0 0 1-7.5 7.5 7.5 7.5 0 0 1-7.5-7.5 7.5 7.5 0 0 1 7.5-7.5 7.5 7.5 0 0 1 7.5 7.5" fill="url(#a)" solid-color="#000000" isolation="auto" mix-blend-mode="normal"/></g></g></svg>
