<svg viewBox="0 0 48 48" xmlns="http://www.w3.org/2000/svg" xmlns:xlink="http://www.w3.org/1999/xlink"><defs><linearGradient id="a" x1="76.5" x2="76.62" y1="8.125" y2="-8" gradientUnits="userSpaceOnUse"><stop stop-color="#f15f19" offset="0"/><stop stop-color="#fbb521" offset="1"/></linearGradient><linearGradient id="b" x2="0" y1="1052" y2="1023" gradientUnits="userSpaceOnUse"><stop stop-color="#4469b9" offset="0"/><stop stop-color="#5d91ff" offset="1"/></linearGradient><linearGradient id="c" x1="53.37" x2="51.38" y1="27.12" y2="-20.29" gradientUnits="userSpaceOnUse"><stop stop-color="#ffbc4c" offset="0"/><stop stop-color="#ffdea5" offset="1"/></linearGradient></defs><g transform="matrix(1 0 0 1 -38.37 25.88)" enable-background="new"><circle transform="translate(10-5)" cx="52.37" cy="3.125" r="24" fill="url(#c)"/><path d="m84 0.75a10 10 0 0 1-10 10 10 10 0 0 1-10-10 10 10 0 0 1 10-10 10 10 0 0 1 10 10" color-rendering="auto" fill="url(#a)" fill-rule="evenodd" image-rendering="auto" shape-rendering="auto" solid-color="#000000" isolation="auto" mix-blend-mode="normal"/><path transform="matrix(1.2 0 0 1.2 33.66 -1236)" d="m17.25 1024c-5.44 0-9.797 2.245-13.2 5.264a20 20 0 0 0 19.96 18.77 20 20 0 0 0 18.06-11.47c-10-9.22-18.2-12.56-24.81-12.56" fill="url(#b)"/></g></svg>
