<svg viewBox="0 0 48 48" xmlns="http://www.w3.org/2000/svg"><defs><linearGradient id="b" x1="156.2" x2="155" y1="219.6" y2="120.1" gradientUnits="userSpaceOnUse"><stop stop-color="#ececec" offset="0"/><stop stop-color="#fcfcfc" offset="1"/></linearGradient><linearGradient id="a" x2="0" y1="41.6" y2="9.604" gradientUnits="userSpaceOnUse"><stop stop-color="#00cafe" offset="0"/><stop stop-color="#1460f3" offset="1"/></linearGradient></defs><rect transform="matrix(.4778 0 0 .4778-49.32-56.708)" x="104.9" y="118.7" width="97.1" height="100.5" rx="6.241" fill="url(#b)" fill-rule="evenodd"/><path transform="matrix(.8216 0 0 .8216 62.14 2.962)" d="m-54.26 9.604c-.824 0-1.492.668-1.492 1.492v29.02c0 .824.668 1.492 1.492 1.492h15.672c.824 0 1.492-.668 1.492-1.492v-29.02c0-.824-.668-1.492-1.492-1.492h-15.672m13.11 2.762c.632 0 1.143.511 1.143 1.143 0 .632-.511 1.145-1.143 1.145-.632 0-1.145-.513-1.145-1.145 0-.632.513-1.143 1.145-1.143m-22.344 2.881c-1.326 0-2.402 1.076-2.402 2.402 0 1.326 1.076 2.4 2.402 2.4.762 0 1.441-.356 1.881-.91h3.25v-2.982h-3.25c-.44-.554-1.118-.91-1.881-.91m34.14 0c-.762 0-1.441.356-1.881.91h-3.25v2.982h3.25c.44.554 1.118.91 1.881.91 1.326 0 2.402-1.074 2.402-2.4 0-1.326-1.076-2.402-2.402-2.402m-34.14 7.955c-1.326 0-2.402 1.076-2.402 2.402 0 1.326 1.076 2.402 2.402 2.402.762 0 1.441-.356 1.881-.91h3.25v-2.984h-3.25c-.44-.554-1.118-.91-1.881-.91m34.14 0c-.762 0-1.441.356-1.881.91h-3.25v2.984h3.25c.44.554 1.118.91 1.881.91 1.326 0 2.402-1.076 2.402-2.402 0-1.326-1.076-2.402-2.402-2.402m-34.14 7.957c-1.326 0-2.402 1.074-2.402 2.4 0 1.326 1.076 2.402 2.402 2.402.762 0 1.441-.356 1.881-.91h3.25v-2.982h-3.25c-.44-.554-1.118-.91-1.881-.91m34.14 0c-.762 0-1.441.356-1.881.91h-3.25v2.982h3.25c.44.554 1.118.91 1.881.91 1.326 0 2.402-1.076 2.402-2.402 0-1.326-1.076-2.4-2.402-2.4" fill="url(#a)"/></svg>
