<svg viewBox="0 0 48 48" xmlns="http://www.w3.org/2000/svg"><defs><linearGradient id="b" x2="0" y1="211.2" y2="157.2" gradientUnits="userSpaceOnUse"><stop stop-color="#222c35" offset="0"/><stop stop-color="#545e67" offset="1"/></linearGradient><linearGradient id="a" x1="765.6" x2="766.1" y1="212.5" y2="172.4" gradientUnits="userSpaceOnUse"><stop stop-color="#ff433a" offset="0"/><stop stop-color="#ff9436" offset="1"/></linearGradient></defs><g transform="matrix(.8572 0 0 .8572 -635 -138.8)"><circle transform="translate(0 5.385)" cx="768.9" cy="184.6" r="28" fill="url(#b)"/><path d="m781.9 192.3c-2.149 2.149-5.01 3.332-8.04 3.332-1.926 0-3.778-0.477-5.424-1.372l-2.448 2.112c-0.12 1.284-0.757 2.638-1.879 3.76-0.068 0.068-0.137 0.134-0.207 0.198l0.373 3.764 0.902 0.902 3.242-3.242c0.425-0.425 0.99-0.659 1.591-0.659s1.166 0.234 1.591 0.659l0.017 0.017c0.422 0.422 0.656 0.987 0.656 1.588s-0.234 1.166-0.659 1.591l-4.893 4.893c-0.247 0.247-0.572 0.371-0.896 0.371s-0.649-0.124-0.896-0.371l-1.404-1.404c-0.238-0.238-0.371-0.56-0.371-0.896 0-0.269 0.087-0.528 0.243-0.743l-12.08-12.08c-0.221 0.161-0.482 0.242-0.743 0.242-0.324 0-0.649-0.124-0.896-0.371l-1.404-1.404c-0.238-0.238-0.371-0.56-0.371-0.896s0.133-0.658 0.371-0.896l4.893-4.893c0.425-0.425 0.99-0.659 1.591-0.659s1.166 0.234 1.591 0.659l0.014 0.014c0.425 0.425 0.659 0.99 0.659 1.591s-0.234 1.166-0.659 1.591l-3.242 3.242 0.902 0.902 3.767 0.373c0.064-0.07 0.128-0.14 0.195-0.207 1.078-1.078 2.423-1.743 3.751-1.868l2.125-2.463c-2.334-4.312-1.684-9.824 1.956-13.46 2.148-2.148 5.01-3.331 8.04-3.331 3.039 0 5.895 1.183 8.04 3.332 4.436 4.435 4.436 11.65 0 16.09" fill="url(#a)"/></g></svg>
