<svg viewBox="0 0 48 48" xmlns="http://www.w3.org/2000/svg" xmlns:xlink="http://www.w3.org/1999/xlink"><defs><linearGradient id="b" x1="412.2" x2="413" y1="548.9" y2="505.9" gradientUnits="userSpaceOnUse" xlink:href="#a"/><linearGradient id="a"><stop stop-color="#00cafe" offset="0"/><stop stop-color="#1460f3" offset="1"/></linearGradient><linearGradient id="c" x1="390" x2="410.3" gradientTransform="matrix(.91926-.16589.15464.98614-51.07 75.74)" gradientUnits="userSpaceOnUse" xlink:href="#a"/><linearGradient id="e" x1="408.8" x2="408.4" y1="544.4" y2="505.4" gradientUnits="userSpaceOnUse"><stop stop-color="#363636" offset="0"/><stop stop-color="#4b4f59" offset="1"/></linearGradient><linearGradient id="d" x1="15.37" x2="14.99" y1="29.24" y2=".736" gradientUnits="userSpaceOnUse"><stop stop-color="#d5dbff" offset="0"/><stop stop-color="#ebedff" offset="1"/></linearGradient></defs><g transform="matrix(1.128 0 0 1.128 -435.4 -567.7)"><path d="m405.9 504.6c-9.315 0.382-9.927 1.46-11.07 2.041-1.537 0.778-3.427 1.216-3.229-0.043-0.654 0.239-1.407 1.15-0.769 2.29s-0.637 2.468-1.25 1.749c-1.175-1.375-4.055-0.296-3.635 1.463 0.414-0.414 2.341-1.319 2.073 0.701s-0.401 3.568 1.653 4.945 10.02-0.016 10.02-0.016z" fill="url(#c)" fill-rule="evenodd"/><path d="m408.4 505.4c-4.857 0-9.714 1.861-13.44 5.582-7.443 7.443-7.443 19.43 0 26.87s19.43 7.443 26.87 0 7.443-19.43 0-26.87c-3.721-3.721-8.579-5.582-13.44-5.582" fill="url(#e)"/><path transform="matrix(.6487 -1.166 1.166 .6487 381.2 532.2)" d="m22.68 2.124c-7.107-4.244-16.31-1.931-20.56 5.174-4.248 7.104-1.932 16.31 5.171 20.56 7.108 4.248 16.31 1.93 20.56-5.174s1.932-16.3-5.168-20.56m-7.553 12.78 5.724 10.94c-0.908 0.486-1.872 0.861-2.868 1.115-3.045 0.762-6.36 0.381-9.269-1.332l6.405-10.71-12.5-0.5c0.091-1.974 0.649-3.957 1.739-5.779 1.142-1.91 2.719-3.394 4.525-4.413l6.241 10.68 6.264-10.47c2.882 1.757 4.792 4.493 5.557 7.538 0.221 0.876 0.343 1.776 0.367 2.683l-12.19 0.259" fill="url(#d)"/><path d="m416.9 506.23c.629.578 1.444 1.411 1.948 2.311.879 1.569.753 4.3-1.946 4.802-2.699.502-2.803-.417-2.794-1.507-1.435.198-2.077 3.378.439 4.489 2.134.942 2.919.565 6.937.314 4.02-.251 4.489 4.646 2.605 5.399-1.883.753-2.602-.589-2.48-1.318-1.509.589-1.694 2.234-.942 3.01 5.873 6.085 3.056 10.787 1.444 11.269-1.998.597-3.406-.587-2.386-2.166.832-1.287.114-3.409-.897-4.161-1.01-.752-2.973-.572-3.812-.014 1.21.457 2.982 1.161 2.511 2.731-.364 1.212-1.555 1.975-3.045 1.946-3.394-.067-2.319-3.133-1.852-3.484-1.824-.226-3.042 3.102-1.852 4.237 1.171 1.117 2.817 1.74 1.821 3.453-1.046 1.796-2.511 2.762-5.02 2.26-2.511-.502-3.892-2.103-3.578-3.578.314-1.475 1.047-1.672 2.323-1.695-.796-1.686-4.708-1.695-4.646 1.224.033 1.508-2.492 1.756-3.547.063-1.193-1.915-.184-2.734 1.161-2.417.09-2.131-1.726-1.099-2.197-3.453-.471-2.354 1.183-3.01 1.183-3.01-2.957.901-3.592 1.777-6.636.871-1.081-.322.172-3.26-3.303-2.249.587 10.595 9.309 18.951 20.06 18.951 11.129 0 20.09-8.96 20.09-20.09 0-8.08-4.736-15-11.584-18.19" fill="url(#b)" fill-rule="evenodd"/></g></svg>
