<svg viewBox="0 0 48 48" xmlns="http://www.w3.org/2000/svg"><defs><linearGradient id="b" x2="0" y1="12.53" y2="-36.27" gradientUnits="userSpaceOnUse"><stop stop-color="#d3d3d3" offset="0"/><stop stop-color="#fcf9f9" offset="1"/></linearGradient><linearGradient id="a" x1="95.62" x2="569" y1="-9.559" y2="698.1" gradientUnits="userSpaceOnUse"><stop stop-color="#69159f" offset="0"/><stop stop-color="#b92ff5" offset="1"/></linearGradient></defs><g transform="matrix(.05229 0 0 .05229 7.799 8.01)" enable-background="new"><circle transform="matrix(19.12 0 0 19.12 73.19 530)" cx="12.37" cy="-11.72" r="24" fill="url(#b)"/><path d="m161.6 26.15v72.36l-92.97 53.75 0.037 107.5-26.89 15.61-41.72 24.21 19.31 33.28 41.84-24.28 13.45-7.77 13.45-7.807 92.86 53.53 112.1-64.85-0.075-129.5-92.9-53.6v-72.39h-38.51m270.9 61.26-112.1 64.85 0.075 129.6 112.2 64.7 112.2-64.85-0.037-108.3 67.24-38.96-19.31-33.32-68.06 39.44-92.15-53.12m-125.1 214.9-112.2 64.85v2.241l0.075 127.3 92.9 53.6v73.85h38.51v-73.81l92.97-53.75-0.075-129.6-110.3-63.58-1.942-1.121" fill="url(#a)"/></g></svg>
