<svg viewBox="0 0 48 48" xmlns="http://www.w3.org/2000/svg"><defs><linearGradient id="a" x1="-124" x2="-125.2" y1="73.5" y2="-26.05" gradientTransform="matrix(.4943 0 0 .4778 86.64 13.1)" gradientUnits="userSpaceOnUse"><stop stop-color="#1074f5" offset="0"/><stop stop-color="#02befd" offset="1"/></linearGradient></defs><rect width="48" height="48" rx="2.982" fill="url(#a)" fill-rule="evenodd"/><g transform="matrix(.03442 0 0 .03442 8 8)" fill="#fff" fill-opacity=".85"><path d="m404.3 894.6c0 19.3 15.7 35 35 35h59c19.3 0 35-15.7 35-35v-157h-129v157"/><path d="m533.3 35c0-19.3-15.7-35-35-35h-59c-19.3 0-35 15.7-35 35v30.7h129v-30.7"/><path d="m404.3 365.7h129v71.9h-129z"/><path d="m779.3 109.4c-6.6-8.6-16.9-13.7-27.8-13.7h-557.7c-19.3 0-35 15.7-35 35v170c0 19.3 15.7 35 35 35h557.7c10.9 0 21.2-5.1 27.8-13.7l65.2-85c9.6-12.6 9.6-30 0-42.6l-65.2-85"/><path d="m533.3 707.6h202.5c19.3 0 35-15.7 35-35v-170c0-19.3-15.7-35-35-35h-557.7c-10.9 0-21.2 5.1-27.8 13.7l-65.2 85c-9.6 12.6-9.6 30 0 42.6l65.2 85c6.601 8.6 16.9 13.7 27.8 13.7h355.2"/></g></svg>
