<svg viewBox="0 0 48 48" xmlns="http://www.w3.org/2000/svg" xmlns:xlink="http://www.w3.org/1999/xlink"><defs><linearGradient id="c" x1="-423.1" x2="-425" y1="519.5" y2="228" gradientUnits="userSpaceOnUse" xlink:href="#a"/><linearGradient id="b" x1="-206.7" x2="-208.3" y1="315.4" y2="23.36" gradientTransform="matrix(.9978 0 0 1 -218.9 203)" gradientUnits="userSpaceOnUse" xlink:href="#a"/><linearGradient id="a"><stop stop-color="#2e3e46" offset="0"/><stop stop-color="#435a64" offset="1"/></linearGradient></defs><g transform="matrix(-.099 0 0 .099-17.961-9.608)"><path transform="matrix(-4.168 0 0 4.168 -18.57 316.7)" d="m43.887-36.699c-1.108 0-2 .892-2 2v38.729l111 .24v-29.08c0-1.108-.892-2-2-2h-60.17c-2.039.18-2.301-.09-3.308-1.435-1.429-1.912-3.586-5.145-4.992-7.01-1.129-1.633-1.312-1.443-3.184-1.443z" fill="#304149"/><rect x="-655.5" y="225.8" width="463.8" height="295.1" rx="9.63" fill="url(#c)"/><rect x="-654.9" y="225.8" width="462.8" height="295.1" rx="9.63" fill="none" stroke="url(#b)" stroke-linecap="round" stroke-width="2"/><g transform="matrix(-.3893 0 0 .3893 -174.6 188.4)" fill="#e0e3e5"><path d="m447.5 384.8c17.78 0 28.28-14.55 28.28-27.48 0-14.55-10.51-25.05-28.28-25.05h-141.8c-17.78 0-28.69 10.51-28.69 25.05v229.5c0 14.14 10.91 25.05 28.69 25.05 14.14 0 24.24-10.91 24.24-25.05v-84.85h103c14.55 0 29.09-10.91 29.09-24.24 0-14.14-14.55-28.69-29.09-28.69h-103v-64.25h117.6"/><path d="m596.4 586.8c0 35.96 53.34 35.15 53.34 0v-204h67.07c35.96 0 35.96-51.72 0-51.72h-191.1c-35.15 0-35.15 51.72 0 51.72h70.71v204"/><path d="m782.8 584c0 17.78 14.14 27.88 27.48 27.88 14.55 0 25.86-10.1 25.86-27.88v-53.34h67.48c52.53 0 99.8-35.56 99.8-99.4 0-67.48-47.28-102.6-99.8-102.6h-93.34c-16.97 0-27.48 14.55-27.48 27.88v227.5m120.8-204.4c27.07 0 48.49 23.44 48.49 51.72 0 25.05-21.42 48.89-48.49 48.89h-67.48v-100.6h67.48"/></g></g></svg>
