<svg viewBox="0 0 48 48" xmlns="http://www.w3.org/2000/svg"><defs><linearGradient id="a" x1="4.195" x2="16.75" y1="28.72" y2="-2.245" gradientTransform="matrix(.96226-.3241.32553.9665-29.625 13.376)" gradientUnits="userSpaceOnUse"><stop stop-color="#1074f5" offset="0"/><stop stop-color="#02befd" offset="1"/></linearGradient><linearGradient id="b" x1="-124" x2="-125.2" y1="73.5" y2="-26.05" gradientTransform="matrix(1.035 0 0 1 4.382 0)" gradientUnits="userSpaceOnUse"><stop stop-color="#2e3e46" offset="0"/><stop stop-color="#435a64" offset="1"/></linearGradient></defs><path transform="matrix(.4778 0 0 .4778 84.54 13.1)" d="m-170.5-27.42h87.55c3.577 0 6.458 2.783 6.458 6.241v87.98c0 3.457-2.88 6.241-6.457 6.241h-87.55c-3.577 0-6.457-2.783-6.457-6.241v-87.98c0-3.457 2.88-6.241 6.457-6.241" fill="url(#b)" fill-rule="evenodd"/><path transform="translate(39.24 2.222)" d="m-21.22 5.777-8.193 2.76-1.695 8.506 6.496 5.748 8.193-2.76 1.695-8.506-6.496-5.748m15.36 3.15-8.193 2.76-1.697 8.506 6.498 5.748 8.191-2.76 1.697-8.508-6.496-5.746m-10.32 11.84-8.193 2.76-1.695 8.508 6.496 5.746 8.193-2.76 1.695-8.506-6.496-5.748z" fill="url(#a)"/></svg>
