<svg viewBox="0 0 48 48" xmlns="http://www.w3.org/2000/svg"><defs><linearGradient id="a" x2="0" y1="545.1" y2="518.1" gradientUnits="userSpaceOnUse"><stop stop-color="#197ff1" offset="0"/><stop stop-color="#21c6fb" offset="1"/></linearGradient></defs><g transform="matrix(1.714 0 0 1.714 -662.9 -887.7)"><g transform="translate(.135.045)"><circle cx="400.6" cy="531.8" r="14" fill="url(#a)"/><circle cx="400.6" cy="531.8" r="14" fill="#5ea5fb" fill-opacity="0"/></g><path d="m407.4 537-2.886-2.886c0.695-1 1.043-2.123 1.043-3.357 0-0.802-0.156-1.569-0.467-2.301s-0.732-1.363-1.262-1.893-1.161-0.951-1.893-1.262-1.499-0.467-2.301-0.467-1.569 0.156-2.301 0.467-1.363 0.732-1.893 1.262-0.951 1.161-1.262 1.893-0.467 1.499-0.467 2.301 0.156 1.569 0.467 2.301 0.732 1.363 1.262 1.893 1.161 0.951 1.893 1.262c0.732 0.312 1.499 0.467 2.301 0.467 1.234 0 2.353-0.348 3.357-1.043l2.886 2.877c0.202 0.213 0.454 0.32 0.757 0.32 0.292 0 0.544-0.107 0.757-0.32s0.32-0.466 0.32-0.757c0-0.297-0.103-0.55-0.311-0.757m-5.102-3.58c-0.738 0.738-1.625 1.106-2.663 1.106s-1.925-0.369-2.663-1.106c-0.738-0.738-1.106-1.625-1.106-2.663s0.369-1.925 1.106-2.663c0.738-0.738 1.625-1.106 2.663-1.106s1.925 0.369 2.663 1.106c0.738 0.738 1.106 1.625 1.106 2.663s-0.369 1.925-1.106 2.663" fill="#fff" fill-opacity=".847"/></g></svg>
