<svg viewBox="0 0 48 48" xmlns="http://www.w3.org/2000/svg"><defs><linearGradient id="a" x1="-124" x2="-125.2" y1="73.5" y2="-26.05" gradientTransform="matrix(.07441 0 0 .1285 437.5 521.4)" gradientUnits="userSpaceOnUse"><stop stop-color="#ff9300" offset="0"/><stop stop-color="#ffd702" offset="1"/></linearGradient><linearGradient id="b" x1="-124" x2="-125.2" y1="73.5" y2="-26.05" gradientTransform="matrix(.07441 0 0 .1285 437.5 507)" gradientUnits="userSpaceOnUse"><stop stop-color="#0a80fd" offset="0"/><stop stop-color="#56c5fa" offset="1"/></linearGradient><linearGradient id="d" x1="-124" x2="-125.2" y1="73.5" y2="-26.05" gradientTransform="matrix(.4367 0 0 .4778 462 512.9)" gradientUnits="userSpaceOnUse"><stop stop-color="#141414" offset="0"/><stop stop-color="#2d2d2f" offset="1"/></linearGradient><linearGradient id="c" x1="-124" x2="-125.2" y1="73.5" y2="-26.05" gradientTransform="matrix(.07441 0 0 .1285 437.5 535.9)" gradientUnits="userSpaceOnUse"><stop stop-color="#5dae33" offset="0"/><stop stop-color="#9be058" offset="1"/></linearGradient></defs><g transform="translate(-384.57-499.8)"><g fill-rule="evenodd" stroke-width="1.114"><rect x="424.5" y="503.4" width="7.225" height="12.91" rx=".557" fill="url(#b)"/><rect x="424.5" y="517.9" width="7.225" height="12.91" rx=".557" fill="url(#a)"/><rect x="424.5" y="532.4" width="7.225" height="12.91" rx=".557" fill="url(#c)"/><rect x="385.4" y="499.8" width="42.4" height="48" rx="1.114" fill="url(#d)"/></g><path d="m409.62 526.55c-.138-.045-1.01-.439-.466-2.097h-.008c1.422-1.464 2.508-3.821 2.508-6.141 0-3.567-2.372-5.437-5.129-5.437-2.759 0-5.117 1.869-5.117 5.437 0 2.329 1.08 4.695 2.511 6.156.558 1.463-.439 2.01-.648 2.081-1.944.629-7.231 3.762-7.147 8.326h20.889c.093-4.359-4.089-7.19-7.394-8.326" fill="#feffff" fill-opacity=".85" stroke-width=".2"/></g></svg>
