<svg viewBox="0 0 48 48" xmlns="http://www.w3.org/2000/svg"><defs><linearGradient id="b" x1="62.6" x2="62.15" y1="11.85" y2="-35.48" gradientUnits="userSpaceOnUse"><stop stop-color="#d3d3d3" offset="0"/><stop stop-color="#fcf9f9" offset="1"/></linearGradient><linearGradient id="a" x1="24.23" x2="24.49" y1="38.09" y2="9.187" gradientUnits="userSpaceOnUse"><stop stop-color="#c52828" offset="0"/><stop stop-color="#ff5454" offset="1"/></linearGradient></defs><g transform="matrix(1 0 0 1 -38.47 35.82)" enable-background="new"><circle cx="62.47" cy="-11.82" r="24" fill="url(#b)"/><g transform="matrix(1.714 0 0 1.714 -587.1 -926.2)"><flowRoot transform="translate(355.6 516.1)" font-family="sans-serif" font-size="10" letter-spacing="0" word-spacing="0" line-height="125%"><flowRegion><path d="m22 3h27v15h-27z"/></flowRegion><flowPara>Plasm</flowPara></flowRoot><path transform="matrix(.5833 0 0 .5833 364.9 519.4)" d="m24 10c-1.481 0-2.748 0.528-3.803 1.582s-1.582 2.322-1.582 3.803v8.615c0 1.481 0.528 2.749 1.582 3.803s2.322 1.58 3.803 1.58 2.748-0.526 3.803-1.58c1.054-1.054 1.582-2.322 1.582-3.803v-8.615c0-1.481-0.527-2.748-1.582-3.803-1.054-1.054-2.322-1.582-3.803-1.582m-8.615 10.77c-0.292 0-0.545 0.105-0.758 0.318s-0.32 0.466-0.32 0.758v2.154c0 2.478 0.83 4.636 2.484 6.471 1.654 1.834 3.698 2.885 6.133 3.154v2.221h-4.309c-0.292 0-0.543 0.107-0.756 0.32s-0.32 0.466-0.32 0.758c0 0.291 0.107 0.543 0.32 0.756s0.464 0.32 0.756 0.32h10.77c0.292 0 0.543-0.107 0.756-0.32s0.32-0.464 0.32-0.756-0.107-0.545-0.32-0.758-0.464-0.32-0.756-0.32h-4.309v-2.221c2.434-0.269 4.478-1.32 6.133-3.154 1.654-1.834 2.482-3.991 2.482-6.471v-2.154c0-0.292-0.105-0.544-0.318-0.758h-2e-3c-0.213-0.213-0.464-0.318-0.756-0.318s-0.545 0.105-0.758 0.318-0.32 0.466-0.32 0.758v2.154c0 2.076-0.738 3.849-2.213 5.324s-3.249 2.213-5.324 2.213c-2.076 0-3.851-0.738-5.326-2.213s-2.213-3.249-2.213-5.324v-2.154c0-0.292-0.105-0.545-0.318-0.758s-0.466-0.318-0.758-0.318" fill="url(#a)" fill-opacity=".85"/></g></g></svg>
