<svg viewBox="0 0 48 48" xmlns="http://www.w3.org/2000/svg" xmlns:xlink="http://www.w3.org/1999/xlink"><defs><linearGradient id="c" x1="44.16" x2="44.26" y1="490.6" y2="461.9" gradientUnits="userSpaceOnUse" xlink:href="#a"/><linearGradient id="b" x1="72.85" x2="72.29" y1="491.2" y2="462.7" gradientTransform="matrix(1.0021 0 0 1-.15.002)" gradientUnits="userSpaceOnUse" xlink:href="#a"/><linearGradient id="d" x1="96.68" x2="96.33" y1="490.4" y2="462.8" gradientUnits="userSpaceOnUse" xlink:href="#a"/><linearGradient id="a"><stop stop-color="#2e3436" offset="0"/><stop stop-color="#555753" offset="1"/></linearGradient><linearGradient id="e" x1="70.03" x2="66.53" y1="569.2" y2="491.1" gradientUnits="userSpaceOnUse"><stop stop-color="#c52828" offset="0"/><stop stop-color="#ff5454" offset="1"/></linearGradient></defs><g transform="translate(-384.57-499.8)"><g transform="matrix(.3987 0 0 .3987 379.8 317.7)"><rect x="11.9" y="465.2" width="120.4" height="106.8" rx="5.03" fill="url(#e)"/><g fill-rule="evenodd"><path d="m18.54 462.2h107.1c3.856 0 6.711 3.098 6.711 6.947v21.9h-120.5v-21.9c0-3.848 2.855-6.947 6.711-6.947z" fill="url(#b)" stroke="url(#b)" stroke-linecap="round" stroke-linejoin="round" stroke-width=".107"/><g fill="#fce5e5" stroke-width="1.125"><path d="m79.77 490.5h19.1l14.93-13.2-14.93-14.61h-19.1l13.53 14.61z" stroke="url(#d)"/><path d="m31.68 490.5h19.1l14.93-13.2-14.93-14.61h-19.1l13.53 14.61z" stroke="url(#c)"/></g></g></g><path transform="matrix(.9091 0 0 .9091 293 527.3)" d="m127.4-8.353c-6.083 0-11 4.914-11 11 0 6.085 4.918 11 11 11 6.35-2e-3 10.56-4.461 10.56-10.75 0-0.723-0.08-1.274-0.174-1.824h-10.39v3.774h6.241c-0.25 1.617-1.885 4.743-6.241 4.743-3.754 0-6.821-3.11-6.821-6.943 0-3.834 3.065-6.943 6.821-6.943 2.139 0 3.568 0.913 4.385 1.694l2.992-2.872c-1.917-1.796-4.4-2.879-7.373-2.879" enable-background="new" fill="#fce5e5"/></g></svg>
