<svg viewBox="0 0 48 48" xmlns="http://www.w3.org/2000/svg"><defs><linearGradient id="b" x2="0" y1="30.8" y2="17.09" gradientUnits="userSpaceOnUse"><stop stop-color="#ef4e06" offset="0"/><stop stop-color="#f9841c" offset="1"/></linearGradient><linearGradient id="a" x1="22.26" x2="22.37" y1="31.32" y2="15.89" gradientUnits="userSpaceOnUse"><stop stop-color="#fed9a5" offset="0"/><stop stop-color="#fffdfb" offset="1"/></linearGradient><linearGradient id="c" x2="0" y1="34" y2="13.38" gradientUnits="userSpaceOnUse"><stop stop-color="#ee6708" offset="0"/><stop stop-color="#f9aa2b" offset="1"/></linearGradient><linearGradient id="e" x2="0" y1="36.55" y2="10.12" gradientUnits="userSpaceOnUse"><stop stop-color="#f7891b" offset="0"/><stop stop-color="#fbc969" offset="1"/></linearGradient><linearGradient id="d" x2="0" y1="37.92" y2="9.352" gradientUnits="userSpaceOnUse"><stop stop-color="#f7881a" offset="0"/><stop stop-color="#fbc967" offset="1"/></linearGradient></defs><g transform="matrix(1.714 0 0 1.714 -14.3 -16.57)" enable-background="new"><circle cx="22.34" cy="23.67" r="13.55" fill="url(#e)" stroke="url(#d)" stroke-linejoin="round" stroke-width=".893"/><circle cx="22.36" cy="23.96" r="10.57" fill="url(#c)"/><circle cx="22.18" cy="24.12" r="7.03" fill="url(#b)"/><path d="m27.988 18.483c-.924-1.371-2.581-2.166-4.922-2.364h-.004c-.173-.02-.338-.029-.493-.029-1.18 0-1.599.591-1.599 1.097v8.805c-.464-.14-.962-.18-1.454-.118-.857.108-1.625.51-2.162 1.133-.537.622-.779 1.39-.682 2.162.181 1.433 1.522 2.514 3.12 2.514.15 0 .302-.001.452-.029 1.656-.209 2.859-1.523 2.859-3.124v-8.64c.124-.008.249-.013.37-.013 1.46 0 2.803.611 3.883 1.767.445.476.758.95.941 1.264.045.077.133.118.221.102.088-.016.157-.084.173-.172.177-.973.321-2.832-.706-4.355" fill="url(#a)" stroke-width="1.317"/></g></svg>
