<svg version="1.1" viewBox="0 0 48 48" xmlns="http://www.w3.org/2000/svg" xmlns:xlink="http://www.w3.org/1999/xlink"><defs><linearGradient id="c" x2="0" y1="547.3" y2="500.7" gradientTransform="translate(-.1137 -.1594)" gradientUnits="userSpaceOnUse"><stop stop-color="#0d5ec2" offset="0"/><stop stop-color="#38b2fa" offset="1"/></linearGradient><radialGradient id="b" cx="263124" cy="87578" r="148554" gradientTransform="matrix(1.208 1.237 -1.141 1.08 80628 -398160)" gradientUnits="userSpaceOnUse"><stop stop-color="#fff" offset="0"/><stop stop-color="#fff" stop-opacity="0" offset="1"/></radialGradient><radialGradient id="a" cx="263124" cy="87578" r="148554" gradientTransform="matrix(1.208 1.237 -1.141 1.08 80628 -398160)" gradientUnits="userSpaceOnUse" xlink:href="#b"/></defs><g transform="matrix(1.029 0 0 1.029 -451.3 -514.8)"><rect x="438.8" y="500.5" width="46.67" height="46.67" rx="23.33" fill="url(#c)" stroke-width="1.167"/><g transform="matrix(.0001527 0 0 .0001552 416.6 514)" fill="url(#a)" opacity=".663"><path d="m203282-6745c51486 0 142083 111002 238329 122276 2455-7766 4334-15796 5567-24039-43758-9699-98766-61656-118551-81230-30926-30599-59791-61313-99397-61313-13511 0-25912 2366-36643 5650-19875 18870-34786 43080-42516 70390 15883-16156 34035-31734 53211-31734"/><path d="m358692 157586c-89518 0-157157-48501-181207-48501-9807 0-15465 6885-18729 15038 15451 32922 42088 59496 74991 74776-4639-11979-7437-27831 10264-27831 15643 0 31231 13537 88961 13537 26360 0 50636-5526 68485-11126 9449-8526 17849-18202 24973-28815-17051 6101-41884 12921-67737 12921"/><path d="m298539-86914c-19324 0-37811 3613-54845 10192 6538-904.9 14367-1465 23762-1465 53582 0 83966 23544 106049 48501 14738 16656 40333 66291 59341 66291 5530-483.3 9876-4813 13295-11443-18463-64727-77552-112076-147602-112076"/></g></g></svg>
