<svg viewBox="0 0 48 48" xmlns="http://www.w3.org/2000/svg"><defs><linearGradient id="b" x1="7.827" x2="7.797" y1="2.421" y2="-5.183" gradientUnits="userSpaceOnUse"><stop stop-color="#4fd127" offset="0"/><stop stop-color="#c6f61a" offset="1"/></linearGradient><linearGradient id="a" x1="26.44" x2="25.63" y1="44.75" y2="-3.458" gradientUnits="userSpaceOnUse"><stop stop-color="#18191b" offset="0"/><stop stop-color="#424649" offset="1"/></linearGradient><linearGradient id="c" x2="0" y1="1.37" y2="-5.934" gradientUnits="userSpaceOnUse"><stop stop-color="#0976da" offset="0"/><stop stop-color="#5de5f0" offset="1"/></linearGradient><linearGradient id="e" x1="13.41" x2="13.26" y1="-4.607" y2="-16.01" gradientUnits="userSpaceOnUse"><stop stop-color="#eb4646" offset="0"/><stop stop-color="#ff8651" offset="1"/></linearGradient><linearGradient id="d" x1="5.669" x2="5.538" y1="-4.691" y2="-11.86" gradientUnits="userSpaceOnUse"><stop stop-color="#ffbc00" offset="0"/><stop stop-color="#ffec00" offset="1"/></linearGradient></defs><ellipse transform="translate(-2.644 3.051)" cx="26.64" cy="20.95" rx="24" ry="24" fill="url(#a)"/><g transform="matrix(1.714 0 0 1.714 5.789 33.51)" enable-background="new" stroke-width="1.317"><path d="m21.05-5.187c.042-.039.066-.094.066-.156 0-.12-.099-.219-.219-.219h-10.296v5.477h5.477l4.973-5.102" fill="url(#c)"/><path d="m10.226 4.888c.039.042.094.066.156.066.12 0 .219-.099.219-.219v-5.836-4.46h-5.477v5.477l4.03 3.927z" fill="url(#b)"/><path d="m.151-5.936c-.042.039-.066.094-.066.156 0 .12.099.219.219.219h10.296v-5.477h-5.477l-4.973 5.102" fill="url(#d)"/><path d="m10.976-16.01c-.039-.042-.094-.066-.156-.066-.12 0-.219.099-.219.219v10.296h5.477v-5.477l-5.102-4.973" fill="url(#e)"/></g></svg>
