<svg viewBox="0 0 48 48" xmlns="http://www.w3.org/2000/svg"><defs><linearGradient id="a" x2="0" y1="21" y2="-25.29" gradientUnits="userSpaceOnUse"><stop stop-color="#c52828" offset="0"/><stop stop-color="#ff5454" offset="1"/></linearGradient></defs><g transform="matrix(1 0 0 1 -38.37 25.88)" enable-background="new"><circle cx="62.37" cy="-1.875" r="24" fill="url(#a)"/><path d="m56.37-13.28c-6.636 0-12 5.361-12 12 0 6.638 5.365 12 12 12 6.928-2e-3 11.52-4.867 11.52-11.73 0-0.789-0.087-1.39-0.189-1.99h-11.33v4.117h6.809c-0.273 1.764-2.057 5.174-6.809 5.174-4.095 0-7.441-3.392-7.441-7.574s3.343-7.574 7.441-7.574c2.334 0 3.892 0.996 4.783 1.848l3.264-3.133c-2.091-1.959-4.8-3.141-8.04-3.141m18 6v3h-3v3h3v3h3v-3h3v-3h-3v-3h-3" fill="#fce5e5"/></g></svg>
