<svg viewBox="0 0 48 48" xmlns="http://www.w3.org/2000/svg" xmlns:xlink="http://www.w3.org/1999/xlink"><defs><linearGradient id="a"><stop stop-color="#dfe9f0" offset="0"/><stop stop-color="#ecf0f3" offset="1"/></linearGradient><linearGradient id="c" x1="456" x2="459" y1="150.2" y2="91.67" gradientTransform="matrix(.05312 0 0 .07756 21.4 -13.68)" gradientUnits="userSpaceOnUse" xlink:href="#a"/><linearGradient id="b" x1="29.55" x2="35.72" gradientUnits="userSpaceOnUse" xlink:href="#a"/><linearGradient id="d" x1=".967" x2="1.19" y1="204.6" y2="148.8" gradientTransform="matrix(.2433-.00018.00018.23193 33.463-45.516)" gradientUnits="userSpaceOnUse"><stop stop-color="#232323" offset="0"/><stop stop-color="#4f4f4f" offset="1"/></linearGradient><linearGradient id="f" x2="0" y1="16.14" y2="2.119" gradientUnits="userSpaceOnUse"><stop stop-color="#00b167" offset="0"/><stop stop-color="#44ffbc" offset="1"/></linearGradient><linearGradient id="g" x1="21.98" x2="22.37" y1="263" y2="150.2" gradientTransform="matrix(.2433-.00018.00018.23193 33.4-45.578)" gradientUnits="userSpaceOnUse"><stop stop-color="#4f4f4f" offset="0"/><stop stop-color="#808080" offset="1"/></linearGradient><linearGradient id="e" x1="29.67" x2="35.46" gradientUnits="userSpaceOnUse"><stop stop-color="#cdd7dc" offset="0"/><stop stop-color="#ecf0f3" offset="1"/></linearGradient></defs><g transform="matrix(1.714 0 0 1.714 -44.21 18.51)" enable-background="new"><g fill-rule="evenodd"><path d="m27.7-10.74h11.62v13.44h-13.47v-11.71c0-1.861 1.751-1.733 1.849-1.733" fill="url(#d)"/><g fill="url(#g)"><path d="m27.64 16.07h11.62v-13.44h-13.47v11.71c0 1.861 1.751 1.733 1.849 1.733"/><path d="m50.84-10.74h-11.62v13.44h13.47v-11.71c0-1.861-1.751-1.733-1.849-1.733"/><path d="m50.81 16.07h-11.62v-13.44h13.47v11.71c0 1.861-1.751 1.733-1.849 1.733"/></g></g><circle cx="45.94" cy="9.306" r="7.85" fill="url(#f)"/><path d="m33.2-7.103v2.521h2.511v1.135h-2.511v2.521h-1.145v-2.521h-2.511v-1.135h2.511v-2.521h1.145" fill="url(#b)"/><path d="m42.84-4.698h6.02v1.241h-6.02v-1.241" fill="url(#c)"/><path d="m35.462 7.19l-2.088 2.088 2.088 2.078-.808.808-2.088-2.078-2.088 2.078-.808-.808 2.088-2.078-2.088-2.088.808-.808 2.088 2.088 2.088-2.088.808.808" fill="url(#e)"/><path d="m42.86 7.766h6.167v1.13h-6.167v-1.13m0 2.189h6.167v1.14h-6.167v-1.14" fill="#e5ecf1"/></g></svg>
