<svg viewBox="0 0 48 48" xmlns="http://www.w3.org/2000/svg"><defs><linearGradient id="a" x2="0" y1="545.1" y2="518.1" gradientUnits="userSpaceOnUse"><stop stop-color="#197ff1" offset="0"/><stop stop-color="#21c6fb" offset="1"/></linearGradient></defs><g transform="matrix(.9231 0 0 .9231 -685.7 -151.3)"><g transform="matrix(1.857 0 0 1.857 24.94 -797.7)"><circle cx="400.6" cy="531.8" r="14" fill="url(#a)"/><circle cx="400.6" cy="531.8" r="14" fill="#5ea5fb" fill-opacity="0"/></g><g transform="matrix(.6838 0 0 .6838 395.5 -163.6)" fill="#fff" fill-opacity=".855" fill-rule="evenodd"><path d="m546 495.2a4.875 4.875 0 0 1 4.875 4.875 4.875 4.875 0 0 1-4.875 4.875 4.875 4.875 0 0 1-4.875-4.875 4.875 4.875 0 0 1 4.875-4.875"/><path d="m545.4 509.8h1.038c1.736 0 3.142 1.396 3.142 3.133v22.98c0 1.736-1.406 3.133-3.142 3.133h-1.038c-1.736 0-3.133-1.396-3.133-3.133v-22.98c0-1.736 1.396-3.133 3.133-3.133"/></g></g></svg>
