<svg viewBox="0 0 48 48" xmlns="http://www.w3.org/2000/svg" xmlns:xlink="http://www.w3.org/1999/xlink"><defs><linearGradient id="a" x2="0" y1="542.8" y2="507.8" gradientTransform="matrix(1.052 0 0 1.028 -21.29 -14.59)" gradientUnits="userSpaceOnUse"><stop stop-color="#566069" offset="0"/><stop stop-color="#6c7884" offset="1"/></linearGradient></defs><rect transform="matrix(1.037 0 0 1.037 -399.6 -519.9)" x="385.5" y="507.2" width="46.3" height="34.94" rx="1.644" fill="url(#a)"/><path transform="matrix(1.571 0 0 1.571 -606.2 -815.9)" d="m405.44 527.49c-2.844 0-3.377 4.155-1.777 4.155 1.599 0 4.622-4.155 1.777-4.155m-4.381.639c-.045 0-.094.004-.144.009-1.612.196-1.044 2.818-.186 2.867.831.048 1.74-2.871.33-2.876m-2.794.968c-.099-.006-.208.012-.329.06-1.295.511-.197 2.623.529 2.481.658-.129.753-2.481-.199-2.541m-2.114 1.726c-.113-.003-.234.034-.364.127-1.037.744.349 2.542.959 2.263.534-.244.193-2.363-.595-2.39m6.124 1.716c-2.247-.037-5.21 1.059-5.716 3.261-.547 2.383 2.254 5.689 5.176 5.689 1.437 0 3.095-1.263 3.406-2.863.237-1.22-2.788-.731-2.679.076.13.968-.73 1.446-1.572.822-2.681-1.986 4.439-2.976 3.969-5.689-.146-.844-1.236-1.274-2.584-1.297" fill="#fff" fill-opacity=".852"/></svg>
