<svg viewBox="0 0 48 48" xmlns="http://www.w3.org/2000/svg"><defs><linearGradient id="a" x1="24.61" x2="22.78" y1="48.41" y2=".407" gradientUnits="userSpaceOnUse"><stop stop-color="#2b65bd" offset="0"/><stop stop-color="#64a3dc" offset="1"/></linearGradient></defs><path d="m2.982 0h42.04c1.652 0 2.982 1.33 2.982 2.982v42.04c0 1.652-1.33 2.982-2.982 2.982h-42.04c-1.652 0-2.982-1.33-2.982-2.982v-42.04c0-1.652 1.33-2.982 2.982-2.982" fill="url(#a)" fill-rule="evenodd"/><path transform="matrix(1.222 0 0 1.222 -108.7 -1240)" d="m94.69 1022v25.67h4.282v-9.625h6.423v9.625h17.13v-25.67h-17.13v11.76h-6.423v-11.76h-4.282m12.85 5.347h12.85v8.555h-9.635v3.208h9.635v3.208h-12.85v-8.555h9.635v-3.208h-9.635v-3.208" fill="#e3ecf7"/></svg>
