<svg version="1.1" viewBox="0 0 48 48" xmlns="http://www.w3.org/2000/svg" xmlns:xlink="http://www.w3.org/1999/xlink"><defs><linearGradient id="d" x2="0" y1="556.2" y2="510.2" gradientUnits="userSpaceOnUse"><stop stop-color="#dbdada" offset="0"/><stop stop-color="#fff" offset="1"/></linearGradient><linearGradient id="a" x1="421.9" x2="422.5" y1="540.4" y2="522.5" gradientUnits="userSpaceOnUse"><stop stop-color="#1584d8" offset="0"/><stop stop-color="#1cb2ff" offset="1"/></linearGradient><linearGradient id="c" x1="319.6" x2="319.4" y1="557" y2="509.9" gradientUnits="userSpaceOnUse" xlink:href="#a"/><linearGradient id="b" x1="421.9" x2="422.5" y1="540.4" y2="522.5" gradientUnits="userSpaceOnUse" xlink:href="#a"/></defs><g transform="matrix(1.017 0 0 1.017 -495.4 -511.6)" stroke-width="1.317"><rect transform="matrix(.9951 0 0 .9951 192.4 -3.883)" x="297" y="510.2" width="46" height="46" rx="23" fill="url(#d)" stroke="url(#c)" stroke-width="1.437"/><path transform="matrix(1.337 0 0 1.337 -54.71 -185.6)" d="m423.4 523.6-1.172 4.7h3.223l1.184-4.7h2.698l-1.184 4.7h3.381v2.6h-4.03l-0.842 3.345h3.467v2.625h-4.102l-1.172 4.675h-2.698l1.172-4.675h-3.223l-1.172 4.675h-2.722l1.172-4.675h-3.406v-2.625h4l0.854-3.345h-3.455v-2.6h4.126l1.172-4.7h2.722m1.379 7.3h-3.223l-0.854 3.345h3.223l0.854-3.345" fill="url(#b)"/></g></svg>
