<svg viewBox="0 0 48 48" xmlns="http://www.w3.org/2000/svg" xmlns:xlink="http://www.w3.org/1999/xlink"><defs><linearGradient id="a" x1="99.4" x2="99.1" y1="68.66" y2="21.07" gradientUnits="userSpaceOnUse"><stop stop-color="#dce2ff" offset="0"/><stop stop-color="#f8feff" offset="1"/></linearGradient><linearGradient id="b" x1="408.8" x2="408.6" y1="546.8" y2="501" gradientUnits="userSpaceOnUse"><stop stop-color="#197cf1" offset="0"/><stop stop-color="#20bcfa" offset="1"/></linearGradient></defs><path transform="matrix(1.043 0 0 1.043 -402.3 -522.6)" d="m408.6 500.8c12.74 0 23 10.26 23 23s-10.26 23-23 23-23-10.26-23-23 10.26-23 23-23" fill="url(#b)" stroke-width="1.15"/><path transform="translate(-78.92 -20.36)" d="m94.94 30.61a2.174 2.168 0 0 0-2.175 2.168 2.174 2.168 0 0 0 2.175 2.168 2.174 2.168 0 0 0 2.175-2.168 2.174 2.168 0 0 0-2.175-2.168m12.32 0-4.123 4.111 6.342 6.322-6.569 7.451 4.349 3.793 10.14-11.56-10.14-10.12m-15.23 10.12a3.624 3.613 0 0 0-3.624 3.613 3.624 3.613 0 0 0 3.624 3.611 3.624 3.613 0 0 0 3.626-3.611 3.624 3.613 0 0 0-3.626-3.613zm6.524 10.11a4.349 4.335 0 0 0-4.349 4.337 4.349 4.335 0 0 0 4.349 4.335 4.349 4.335 0 0 0 4.349-4.335 4.349 4.335 0 0 0-4.349-4.337" fill="url(#a)"/></svg>
