<svg viewBox="0 0 48 48" xmlns="http://www.w3.org/2000/svg" xmlns:xlink="http://www.w3.org/1999/xlink"><defs><linearGradient id="b" x1="409.6" x2="409.5" y1="542.8" y2="516.5" gradientTransform="matrix(.692 0 0 .6758 117.9 177.1)" gradientUnits="userSpaceOnUse"><stop stop-color="#e54141" offset="0"/><stop stop-color="#ffbd00" offset="1"/></linearGradient></defs><g transform="translate(-384.57-499.8)"><flowRoot transform="translate(389.6 520.8)" font-family="sans-serif" font-size="10" letter-spacing="0" word-spacing="0" line-height="125%"><flowRegion><path id="a" d="m22 3h27v15h-27z"/></flowRegion><flowPara>Plasm</flowPara></flowRoot><g transform="matrix(1.576 0 0 1.576 -222.8 -314.3)"><rect x="385.4" y="520.2" width="30.45" height="22.98" rx="1.081" fill="url(#b)" stroke-width=".658"/><g transform="translate(-36.836-.954)"><flowRoot transform="translate(389.6 520.8)" font-family="sans-serif" font-size="10" letter-spacing="0" word-spacing="0" line-height="125%"><flowRegion><use xlink:href="#a"/></flowRegion><flowPara>Plasm</flowPara></flowRoot><g transform="matrix(.3734 -.04589 .04589 .3734 244 379.4)"><path transform="scale(-1)" d="m-438.1-487.3c0 10.05-7.161 18.67-17.04 20.52-9.878 1.846-19.67-3.609-23.3-12.98-1.73-4.469-1.825-9.223-0.524-13.55 1.427-4.745 3.711-2.276 8.182-5.04l8.121 5.097 3.686 5.956z" fill="#ffffa9" fill-opacity=".733"/><path d="m418.1 482.8c37.81-6.125 30.8 11.88 80.62 6.259l-1.139 10.36c-0.159 3.559-3.701 2.873-3.701 2.873l-74.27-9.129s-2.691-1.031-2.305-4.111z" fill="#7a2b1d" fill-rule="evenodd"/></g></g></g></g></svg>
