<svg viewBox="0 0 48 48" xmlns="http://www.w3.org/2000/svg"><defs><linearGradient id="a" x2="0" y1="654" y2="301.3" gradientUnits="userSpaceOnUse"><stop stop-color="#ff9300" offset="0"/><stop stop-color="#ffd702" offset="1"/></linearGradient></defs><g transform="matrix(.1095 0 0 .1095 59.32 -25.38)"><circle transform="matrix(1.263 0 0 1.263 89.31 -154)" cx="-325.9" cy="478.8" r="173.4" fill="url(#a)"/><g transform="matrix(7.303 0 0 7.303 -497.6 275.4)" fill="#342300"><path d="m19.98 17.906c.723.34 4.363-.371 4.738-.051.375.324-.918 1.551-.191 2.09 1.727 1.285 6.289 1.664 10.387.152l1.551 4.266c-2.25 1.242-5.621 1.961-9.934 1.551l11.328 11.406-4.195 3.777-8.715-9.152c-3.527 6.176-8.137 8.594-11.762 10.805l-3.047-4.805c14.383-9.08 6.41-13.148 9.898-18.336.277-.414-.531-1.305-.059-1.703"/><path d="m29.65 12.11c0 3.789-3.07 6.863-6.859 6.863-3.793 0-6.863-3.074-6.863-6.863s3.07-6.863 6.863-6.863c3.789 0 6.859 3.074 6.859 6.863"/></g></g></svg>
