<svg viewBox="0 0 48 48" xmlns="http://www.w3.org/2000/svg"><defs><linearGradient id="a" x2="0" y1="545.1" y2="518.1" gradientUnits="userSpaceOnUse"><stop stop-color="#4469b9" offset="0"/><stop stop-color="#5d91ff" offset="1"/></linearGradient></defs><g transform="matrix(1 0 0 1 -38.37 25.88)" enable-background="new"><g transform="matrix(1.714 0 0 1.714 -624.3 -913.5)"><circle cx="400.6" cy="531.8" r="14" fill="url(#a)"/><circle cx="400.6" cy="531.8" r="14" fill="#5ea5fb" fill-opacity="0"/></g><path transform="matrix(1 0 0 1 64.78 -10.29)" d="m-6.444-1.542c-.864.243-1.56 1.207-1.56 2.144v14.856c-.876-.481-2-.675-3.169-.357-2.106.573-3.426 2.424-2.974 4.135.451 1.711 2.526 2.666 4.632 2.093 1.68-.457 2.838-1.75 3.02-3.114l.049-14.04 10.921-3.063v11.08c-.876-.481-2-.675-3.169-.357-2.106.573-3.425 2.425-2.974 4.135.451 1.711 2.526 2.666 4.632 2.093 1.68-.457 2.838-1.75 3.02-3.114l.049-18.276c0-.703-.415-1.228-.975-1.327l-11.506 3.114z" fill="#e4ebf9" fill-opacity=".724"/></g></svg>
