<svg viewBox="0 0 48 48" xmlns="http://www.w3.org/2000/svg"><defs><linearGradient id="a" x1="-124" x2="-125.2" y1="73.5" y2="-26.05" gradientUnits="userSpaceOnUse"><stop stop-color="#8798a9" offset="0"/><stop stop-color="#aeb6be" offset="1"/></linearGradient></defs><g transform="matrix(.4778 0 0 .4778-219.93 4.444)"><g transform="translate(637.2 18.12)" fill-rule="evenodd"><rect x="-175.3" y="-27.42" width="97.1" height="100.5" rx="6.241" fill="url(#a)"/><g fill="#474d55"><circle cx="-164" cy="-17.74" r="3.5"/><circle cx="-154.8" cy="-17.74" r="3.5"/><circle cx="-145.5" cy="-17.74" r="3.5"/></g></g><path transform="matrix(.5674 0 0 .5674 482.5 22.18)" d="m72.77 74.28c-13.37-10.45-3.933-53.44-3.933-53.44h16.34c1.705 0 8.389-1.072 8.389-9.08 0-9.846-8.168-9.241-8.168-9.241h-60.15c-9.873 0-18.78 11.3-23.9 19.39-2.723 4.318-1.183 5.528 3.493 3.493 16.39-7.178 21.01-4.593 21.01-4.593 1.155 5.528 1.54 30.47-2.667 40.32-4.263 9.269-12.13 21.01-0.578 27.92 9.02 5.115 18.48-5.391 17.55-23.27-0.44-9.461-1.183-44.94-1.183-44.94h15.07c-0.469 5.528-3.02 33.74-0.357 50.47 2.777 27.92 33.11 22.5 38.78 6.685 1.402-4.373 1.073-7.729 0.027-10.26-1.926-4.702-5.144-4.949-4.785-2.75 0.221 1.402 0.083 2.777-0.138 4.02-0.661 3.823-8.471 9.817-14.8 5.281" fill="#474d55" fill-opacity=".85" opacity=".9"/></g></svg>
