<svg viewBox="0 0 48 48" xmlns="http://www.w3.org/2000/svg" xmlns:xlink="http://www.w3.org/1999/xlink"><defs><linearGradient id="b" x1="19.31" x2="18.9" y1="23.48" y2="-7.233" gradientUnits="userSpaceOnUse" xlink:href="#a"/><linearGradient id="a"><stop stop-color="#b4b4b4" offset="0"/><stop stop-color="#f3f3f3" offset="1"/></linearGradient><linearGradient id="c" x2="0" y1="19.37" y2="-7.344" gradientUnits="userSpaceOnUse"><stop stop-color="#222e34" offset="0"/><stop stop-color="#435a64" offset="1"/></linearGradient><linearGradient id="e" x1="407.4" x2="407.5" y1="529.6" y2="510" gradientTransform="matrix(.5505 0 0 .5517 -205.6 -280.6)" gradientUnits="userSpaceOnUse"><stop stop-color="#08f" offset="0"/><stop stop-color="#02c3ff" offset="1"/></linearGradient><linearGradient id="f" x1="398.3" x2="419.8" y1="509.5" y2="531" gradientTransform="matrix(.4325 0 0 .4335 -157.4 -219.2)" gradientUnits="userSpaceOnUse" xlink:href="#a"/><linearGradient id="d" x1="408.5" x2="409.3" y1="506.5" y2="533.2" gradientTransform="matrix(-.5505 0 0 -.5517 244.2 292.9)" gradientUnits="userSpaceOnUse" xlink:href="#a"/></defs><g transform="matrix(1.714 0 0 1.714 -69.21 13.51)" enable-background="new"><path d="m61.53 5.232c-.101.09-.25.095-.357.013l-3.56-2.709-1.687 10.09c-.006.038-.02.073-.04.105-.338 1.446-2.184 2.525-4.355 2.525-2.433 0-4.413-1.347-4.413-3 0-1.656 1.979-3 4.413-3 .999 0 1.949.223 2.721.633l2.231-12.653c.02-.115.11-.208.228-.229.113-.02.232.032.292.134l4.582 7.744c.069.118.046.265-.055.355" fill="#fff" fill-opacity=".846"/><g transform="translate(35)"><rect x="6.02" y="-7.344" width="26.72" height="26.72" rx="13.36" fill="url(#c)"/><rect x="6.02" y="-7.233" width="26.72" height="26.72" rx="13.36" fill="none" stroke="url(#b)" stroke-width="1.284"/><path d="m11.57 6.125a7.706 7.723 0 0 1 7.706-7.723 7.706 7.723 0 0 1 7.706 7.723 7.706 7.723 0 0 1-7.706 7.723 7.706 7.723 0 0 1-7.706-7.723" fill="url(#d)"/><ellipse cx="19.27" cy="6.125" rx="6.06" ry="6.068" fill="url(#f)"/><ellipse cx="19.27" cy="6.125" rx="5.505" ry="5.517" fill="url(#e)"/></g></g></svg>
