<svg viewBox="0 0 48 48" xmlns="http://www.w3.org/2000/svg"><defs><linearGradient id="a" x1="61.57" x2="60.75" y1="22.94" y2="-27.71" gradientUnits="userSpaceOnUse"><stop stop-color="#197cf1" offset="0"/><stop stop-color="#21c9fb" offset="1"/></linearGradient></defs><path transform="matrix(1 0 0 1 -38.38 25.88)" d="m41.36-25.88h42.04c1.652 0 2.982 1.33 2.982 2.982v42.04c0 1.652-1.33 2.982-2.982 2.982h-42.04c-1.652 0-2.982-1.33-2.982-2.982v-42.04c0-1.652 1.33-2.982 2.982-2.982" fill="url(#a)" fill-rule="evenodd"/><g transform="matrix(.3257 0 0 .3257 -85.38 -152.7)" fill="#daeffe"><path d="m307.9 521.4v0.23l-15.29 17.65 16.33 23.06v0.23h-6.497l-13.4-19.2-6.324 7.302v11.9h-5.289v-41.17h5.289v21.22h0.23l18.11-21.22h6.842"/><path d="m329 562.8h-5.289v-36.11h-11.5v-5.059h28.29v5.059h-11.5v36.11"/><path d="m353.2 563.7q-6.382 0-10.41-4.255-3.967-4.255-3.967-10.75 0-6.152 3.852-10.58 3.91-4.427 9.946-4.427 6.267 0 10 4.082 3.795 4.082 3.795 10.92l-0.058 0.977h-22.25q0.23 4.255 2.817 6.727 2.645 2.472 6.152 2.472 5.692 0 7.704-4.83l4.715 1.955q-1.38 3.277-4.542 5.519-3.162 2.185-7.762 2.185m7.589-18.4q-0.172-2.415-2.242-4.6-2.01-2.185-6.04-2.185-2.932 0-5.117 1.84-2.127 1.84-2.932 4.944h16.33"/><path d="m394.1 562.8h-6.209l-6.957-10.41-6.842 10.41h-6.209l9.946-14.32-9.716-13.86h5.979l6.957 9.946 6.612-9.946h6.209l-9.831 13.86 10.06 14.32"/></g></svg>
