<svg viewBox="0 0 48 48" xmlns="http://www.w3.org/2000/svg" xmlns:xlink="http://www.w3.org/1999/xlink"><defs><linearGradient id="c" x1="391.6" x2="390.9" y1="531.8" y2="507.7" gradientTransform="matrix(1 0 0 1.233 -346.2 -642.8)" gradientUnits="userSpaceOnUse"><stop stop-color="#d3d3d3" offset="0"/><stop stop-color="#fcf9f9" offset="1"/></linearGradient><linearGradient id="d" x2="0" y1="-9.27" y2="-14.05" gradientUnits="userSpaceOnUse" xlink:href="#a"/><linearGradient id="b" x1="46.98" x2="46.78" y1="-15.54" y2="-18.69" gradientUnits="userSpaceOnUse" xlink:href="#a"/><linearGradient id="e" x1="63.89" x2="63" y1="14.12" y2="-17.97" gradientUnits="userSpaceOnUse" xlink:href="#a"/><linearGradient id="f" x1="54.15" x2="74.41" y1="-11.57" y2="8.697" gradientUnits="userSpaceOnUse" xlink:href="#a"/><linearGradient id="g" x1="62.96" x2="62.56" y1="12.65" y2="-13.67" gradientUnits="userSpaceOnUse"><stop stop-color="#197ff1" offset="0"/><stop stop-color="#21c6fb" offset="1"/></linearGradient><linearGradient id="a"><stop stop-color="#222c35" offset="0"/><stop stop-color="#545e67" offset="1"/></linearGradient></defs><g transform="matrix(1 0 0 1 -38.37 25.88)" enable-background="new"><rect x="43.29" y="-18.31" width="5.538" height="2.769" rx=".923" fill="url(#b)"/><rect x="38.37" y="-16.78" width="48" height="29.59" rx="1.385" fill="url(#c)"/><path d="m47.02-1.875a16.82 16.82 0 0 1 16.82-16.82 16.82 16.82 0 0 1 16.82 16.82 16.82 16.82 0 0 1-16.82 16.82 16.82 16.82 0 0 1-16.82-16.82" fill="url(#e)"/><circle cx="63.84" cy="-1.875" r="13.21" fill="url(#f)"/><circle cx="63.84" cy="-1.875" r="12.01" fill="url(#g)"/><circle cx="43.75" cy="-11.66" r="2.391" fill="url(#d)" fill-rule="evenodd"/></g></svg>
