<svg viewBox="0 0 48 48" xmlns="http://www.w3.org/2000/svg"><defs><linearGradient id="b" x2="0" y1="65.44" y2="42.17" gradientUnits="userSpaceOnUse"><stop stop-color="#2e3436" offset="0"/><stop stop-color="#555753" offset="1"/></linearGradient><linearGradient id="a" x1="37.67" x2="37.1" y1="65.53" y2="19.76" gradientUnits="userSpaceOnUse"><stop stop-color="#cdced2" offset="0"/><stop stop-color="#f1f1f1" offset="1"/></linearGradient></defs><g transform="matrix(1 0 0 1 -13.37 -19.12)" enable-background="new"><rect x="14.08" y="19.12" width="44.65" height="46.19" rx="2.87" fill="url(#a)" fill-rule="evenodd"/><path d="m22.69 41.62-1e-3 -9.443 10.59-1.578v11.02h-10.58m12.35-11.3 14.12-2.254v13.56h-14.12v-11.3m14.12 13.24-3e-3 13.56-14.12-2.179v-11.38h14.12m-15.89 11.13-10.58-1.591v-9.539h10.58v11.13" fill="#545652"/><circle cx="47.64" cy="54.1" r="13.03" fill="url(#b)"/><path d="m47.962 46.526l-2.659.256v10.955l2.631-.398v-4.67l3.54 5.182 2.773-.881-3.625-4.983 3.653-4.699-2.83-.648-3.511 4.699.028-4.813m-6.03 2.67c-.03.003-.063.011-.085.034l-1.045 1.045c-.044.044-.049.111-.017.165l1.222 2.02c-.217.365-.393.756-.517 1.17l-2.244.466c-.062.013-.108.072-.108.136v1.477c0 .062.047.116.108.131l2.176.528c.116.48.296.94.534 1.358l-1.261 1.92c-.035.054-.028.125.017.17l1.045 1.045c.044.044.112.049.165.017l1.977-1.199c.388.224.808.403 1.25.523l.46 2.216c.013.063.067.108.131.108h1.477c.062 0 .116-.042.131-.102l.545-2.227c.456-.123.886-.306 1.284-.54l1.949 1.278c.054.035.125.028.17-.017l1.04-1.045c.044-.044.055-.112.023-.165l-.71-1.17-.233.074c-.034.001-.071-.005-.091-.034 0 0-.449-.66-1.034-1.517-.7 1.37-2.128 2.307-3.773 2.307-2.337 0-4.233-1.896-4.233-4.233 0-1.719 1.028-3.196 2.5-3.858v-1.091c-.268.094-.527.207-.773.341 0 0 0-.005 0-.006l-1.994-1.307c-.027-.018-.055-.02-.085-.017" fill="#eff9fe"/></g></svg>
