<svg viewBox="0 0 48 48" xmlns="http://www.w3.org/2000/svg" xmlns:xlink="http://www.w3.org/1999/xlink"><defs><linearGradient id="d" x1="96.68" x2="96.33" y1="490.4" y2="462.8" gradientUnits="userSpaceOnUse" xlink:href="#a"/><linearGradient id="c" x1="44.16" x2="44.26" y1="490.6" y2="461.9" gradientUnits="userSpaceOnUse" xlink:href="#a"/><linearGradient id="a"><stop stop-color="#2e3436" offset="0"/><stop stop-color="#555753" offset="1"/></linearGradient><linearGradient id="e" x1="70.03" x2="66.53" y1="569.2" y2="491.1" gradientUnits="userSpaceOnUse"><stop stop-color="#0a80fd" offset="0"/><stop stop-color="#56c5fa" offset="1"/></linearGradient><linearGradient id="b" x1="72.85" x2="72.29" y1="491.2" y2="462.7" gradientTransform="matrix(1.0021 0 0 1-.15.002)" gradientUnits="userSpaceOnUse" xlink:href="#a"/></defs><g transform="matrix(.3987 0 0 .3987 -4.744 -182.1)"><rect x="11.9" y="465.2" width="120.4" height="106.8" rx="5.03" fill="url(#e)"/><g fill-rule="evenodd"><path d="m18.54 462.2h107.1c3.856 0 6.711 3.098 6.711 6.947v21.9h-120.5v-21.9c0-3.848 2.855-6.947 6.711-6.947z" fill="url(#b)" stroke="url(#b)" stroke-linecap="round" stroke-linejoin="round" stroke-width=".107"/><g fill="#fff" fill-opacity=".948" stroke-width="1.125"><path d="m79.77 490.5h19.1l14.93-13.2-14.93-14.61h-19.1l13.53 14.61z" stroke="url(#d)"/><path d="m31.68 490.5h19.1l14.93-13.2-14.93-14.61h-19.1l13.53 14.61z" stroke="url(#c)"/></g></g><g transform="matrix(9.018 0 0 9.014 -3467 -4065)" fill="#0b3969"><g transform="matrix(.01087 -.00473 .00473 .01087 386 508.9)" opacity=".83"><path d="m65.46 55.53-61.28 8.9 44.33 43.23-10.46 61.02 54.81-28.82 54.81 28.82-10.46-61.02 44.33-43.23-61.28-8.9-27.4-55.53z"/><path d="m326.2 248.9-35.94 72.82-80.34 11.68 58.13 56.66-13.72 80.03 71.87-37.79 71.87 37.79-13.73-80.03 58.14-56.66-80.35-11.68z"/><path d="m392.9 78.2 23.66 33.74 15.65-38.11 33.75-23.64-38.11-15.66-23.66-33.74-15.65 38.12-33.74 23.65z"/><path d="m120.3 242.6-21.15-23.82-8.64 30.66-23.82 21.13 30.64 8.65 21.15 23.82 8.66-30.65 23.8-21.14z"/><path d="m93.35 372.8-14.37-43.57-14.35 43.57-43.58 14.37 43.58 14.35 14.35 43.58 14.37-43.58 43.58-14.35z"/><path d="m264.4 170.5-16.93 42.65 38.95-24.23 42.66 16.93-24.23-38.97 16.92-42.64-38.95 24.23-42.65-16.94z"/></g><g transform="matrix(-.01066 -.01426 -.01425 .01066 400.5 512)" opacity=".766"><path d="m264.4 48.53c4.334-3.385 7.922-1.652 7.972 3.848l0.562 64.61c0.046 5.5 3.815 12.52 8.373 15.6l53.55 36.17c4.56 3.078 4.02 7.03-1.194 8.77l-61.28 20.5c-5.218 1.744-10.73 7.498-12.25 12.78l-17.85 62.1c-1.521 5.286-5.439 5.993-8.711 1.571l-38.44-51.94c-3.271-4.421-10.44-7.885-15.94-7.695l-64.58 2.217c-5.498 0.188-7.381-3.322-4.188-7.799l37.52-52.61c3.194-4.478 4.27-12.37 2.393-17.54l-22.06-60.73c-1.879-5.169 0.877-8.05 6.122-6.393l61.63 19.43c5.246 1.654 13.09 0.239 17.42-3.145l50.95-39.75"/><path d="m280.7 4.524c1.922-3.979 6.703-5.647 10.68-3.727 3.979 1.92 5.646 6.703 3.727 10.68l-7.827 16.21c-1.92 3.979-6.702 5.647-10.68 3.728-3.979-1.92-5.647-6.703-3.727-10.68l7.824-16.21"/><path d="m93.9 168.5c-4.294 1.042-8.618-1.589-9.665-5.884-1.042-4.293 1.59-8.62 5.882-9.664l17.49-4.253c4.293-1.045 8.621 1.588 9.664 5.881 1.043 4.294-1.589 8.62-5.883 9.665l-17.49 4.255"/><path d="m150 29.23c-2.031-3.925-0.499-8.75 3.424-10.78 3.925-2.031 8.751-0.5 10.78 3.422l8.279 15.99c2.03 3.922 0.499 8.75-3.423 10.78-3.924 2.032-8.752 0.5-10.78-3.424l-8.28-15.98"/><path d="m286.3 261.4c1.854 4.01 6.604 5.76 10.62 3.907 4.01-1.854 5.763-6.606 3.908-10.62l-7.552-16.34c-1.854-4.01-6.604-5.762-10.62-3.907-4.01 1.854-5.761 6.605-3.908 10.62l7.549 16.34"/><path d="m360.46 130.82c4.335-.851 7.16-5.05 6.312-9.389-.852-4.336-5.05-7.164-9.389-6.314l-17.665 3.462c-4.337.849-7.163 5.05-6.314 9.386.853 4.336 5.05 7.164 9.392 6.313l17.664-3.458"/></g></g></g></svg>
