<svg viewBox="0 0 48 48" xmlns="http://www.w3.org/2000/svg" xmlns:xlink="http://www.w3.org/1999/xlink"><defs><linearGradient id="c" x1="76.45" x2="59.87" y1="1010" y2="1010" gradientUnits="userSpaceOnUse" xlink:href="#a"/><linearGradient id="d" x1="55.08" x2="58.91" y1="1025" y2="1023" gradientUnits="userSpaceOnUse"><stop stop-color="#62c8f7" offset="0"/><stop stop-color="#36aaf2" offset="1"/></linearGradient><linearGradient id="b" x1="74.21" x2="57.95" y1="983.2" y2="986.1" gradientUnits="userSpaceOnUse"><stop stop-color="#7ed6fb" offset="0"/><stop stop-color="#8edcfc" offset="1"/></linearGradient><linearGradient id="e" x1="37.23" x2="44.45" y1="1023" y2="1026" gradientUnits="userSpaceOnUse"><stop stop-color="#1581ce" offset="0"/><stop stop-color="#32a9e0" offset="1"/></linearGradient><linearGradient id="f" x1="19.65" x2="39.04" y1="1011" y2="1010" gradientUnits="userSpaceOnUse" xlink:href="#a"/><linearGradient id="g" x1="16.09" x2="47.02" gradientUnits="userSpaceOnUse"><stop stop-color="#7ed6fb" offset="0"/><stop stop-color="#90ddfc" offset="1"/></linearGradient><linearGradient id="a"><stop stop-color="#7ed6fb" offset="0"/><stop stop-color="#8fdcfc" offset="1"/></linearGradient></defs><g transform="matrix(.6667 0 0 .6667 -8.101 -645.3)"><path d="m47.85 984.2 21.38 13.23-21.23 13.32-21.48-13.32" fill="#7ed6fb"/><path d="m12 985.4 21.38-13.23 14.52 11.95-21.37 13.26" fill="url(#g)"/><path d="m47.86 984.2 21.42 13.26 14.62-11.9-21.48-13.32z" fill="url(#b)"/><path d="m47.85 984.2-1e-4 22.7-21.23 13.32-0.103-22.79z" fill="#62c8f7"/><path d="m47.85 984.2 1e-4 22.7 21.23 13.32 0.103-22.79z" fill="#32a9e0"/><path d="m69.19 997.4-1e-4 25.76-21.23 13.32-0.103-25.85z" fill="url(#d)"/><path d="m48 1011 21.38-13.23 14.62 11.9-21.48 13.32" fill="url(#c)"/><path d="m26.52 997.4 1e-4 25.76 21.43 13.34-0.097-25.87z" fill="url(#e)"/><path d="m12 1009 21.38 13.23 14.62-11.9-21.48-13.32" fill="url(#f)"/></g></svg>
