<svg viewBox="0 0 48 48" xmlns="http://www.w3.org/2000/svg"><defs><linearGradient id="c" x1="-1093" x2="-1060" y1="203.1" y2="104.8" gradientTransform="matrix(.3982 0 0 .3937 482.6 -60.76)" gradientUnits="userSpaceOnUse"><stop stop-color="#1365f4" offset="0"/><stop stop-color="#05b2fc" offset="1"/></linearGradient><linearGradient id="b" x1="-989.7" x2="-1004" y1="433.3" y2="317.4" gradientTransform="matrix(.3552 0 0 .3475 412.4 -120.4)" gradientUnits="userSpaceOnUse"><stop stop-color="#d5dbff" offset="0"/><stop stop-color="#f9ffff" offset="1"/></linearGradient><linearGradient id="a" x1="-1093" x2="-1060" y1="203.1" y2="104.8" gradientTransform="matrix(.3589 0 0 .3517 430.7 -39.47)" gradientUnits="userSpaceOnUse"><stop stop-color="#ffce69" offset="0"/><stop stop-color="#ffce54" offset="1"/></linearGradient></defs><g transform="matrix(1 0 0 1 -33.37 20.88)" enable-background="new"><rect transform="matrix(.9499-.31256.30954.95089 0 0)" x="35.76" y=".12" width="32.21" height="40.32" rx=".984" fill="url(#a)"/><rect transform="matrix(.9922 -.1244 .139 .9903 0 0)" x="40.95" y="-10.47" width="35.46" height="42.71" rx="1.042" fill="url(#b)"/><rect transform="matrix(.99941-.03422.01692.99986 0 0)" x="44.32" y="-16.45" width="35.75" height="45.13" rx="1.102" fill="url(#c)"/><g fill="#fff" fill-opacity=".847"><path d="m62.24-2.28c-4.51.155-8.306 2.947-9.959 6.845-.051.118-.046.254.013.371 1.917 3.775 5.896 6.3 10.405 6.145 4.51-.155 8.306-2.947 9.959-6.845.051-.118.046-.254-.013-.371-1.917-3.775-5.896-6.3-10.405-6.145m.388 11.29c-2.547.087-4.68-1.906-4.767-4.45-.087-2.547 1.906-4.68 4.45-4.767 2.547-.087 4.68 1.906 4.767 4.45.087 2.545-1.906 4.68-4.45 4.767z"/><circle transform="matrix(.99941-.03433.03433.99941 0 0)" cx="62.28" cy="6.541" r="2.952"/></g></g></svg>
