<svg viewBox="0 0 48 48" xmlns="http://www.w3.org/2000/svg"><defs><linearGradient id="a" x2="0" y1="546.8" y2="500.8" gradientUnits="userSpaceOnUse"><stop stop-color="#141414" offset="0"/><stop stop-color="#2d2d2f" offset="1"/></linearGradient></defs><g transform="translate(-486.8 -502.7)" stroke-width="1.317"><rect transform="matrix(1.043 0 0 1.043 84.43 -19.85)" x="385.6" y="500.8" width="46" height="46" rx="23" fill="url(#a)" stroke-width="1.515"/><path transform="matrix(.1242 0 0 .1242 494.1 510)" d="m267.9 119.5c-0.425-3.778-4.83-6.617-8.639-6.617-12.32 0-23.24-7.231-27.83-18.41-4.682-11.45-1.663-24.81 7.515-33.23 2.889-2.641 3.24-7.06 0.817-10.13-6.303-8-13.47-15.23-21.29-21.5-3.063-2.458-7.557-2.116-10.21 0.825-8.01 8.871-22.4 12.17-33.52 7.529-11.57-4.867-18.87-16.59-18.15-29.18 0.235-3.953-2.654-7.39-6.595-7.849-10.04-1.161-20.16-1.197-30.23-0.08-3.896 0.43-6.785 3.786-6.654 7.689 0.438 12.46-6.946 23.98-18.4 28.67-10.98 4.487-25.27 1.218-33.27-7.574-2.642-2.896-7.06-3.252-10.14-0.853-8.05 6.319-15.38 13.56-21.74 21.49-2.481 3.086-2.116 7.559 0.802 10.21 9.353 8.47 12.37 21.94 7.514 33.53-4.639 11.05-16.11 18.16-29.24 18.16-4.261-0.137-7.296 2.723-7.762 6.597-1.182 10.1-1.196 20.38-0.058 30.56 0.422 3.794 4.961 6.608 8.812 6.608 11.7-0.299 22.94 6.946 27.65 18.42 4.698 11.45 1.678 24.8-7.514 33.23-2.875 2.641-3.24 7.06-0.817 10.13 6.244 7.953 13.41 15.19 21.26 21.51 3.079 2.481 7.559 2.131 10.23-0.81 8.04-8.893 22.43-12.18 33.5-7.536 11.6 4.852 18.9 16.58 18.18 29.17-0.233 3.955 2.67 7.398 6.595 7.85 5.135 0.599 10.3 0.898 15.48 0.898 4.917 0 9.835-0.27 14.75-0.817 3.897-0.43 6.784-3.786 6.653-7.696-0.451-12.45 6.946-23.97 18.39-28.66 11.06-4.517 25.29-1.211 33.28 7.572 2.657 2.89 7.05 3.239 10.14 0.848 8.04-6.304 15.35-13.53 21.74-21.49 2.48-3.079 2.13-7.559-0.803-10.21-9.353-8.47-12.39-21.95-7.529-33.52 4.568-10.9 15.61-18.22 27.49-18.22l1.662 0.043c3.853 0.313 7.398-2.655 7.865-6.588 1.184-10.1 1.198-20.38 0.06-30.56m-133.3 60.03c-24.72 0-44.82-20.11-44.82-44.82 0-24.72 20.11-44.82 44.82-44.82 24.72 0 44.82 20.11 44.82 44.82 0 24.72-20.11 44.82-44.82 44.82" fill="#fff" fill-opacity=".847" fill-rule="evenodd"/></g></svg>
