<svg viewBox="0 0 48 48" xmlns="http://www.w3.org/2000/svg"><defs><linearGradient id="a" x2="0" y1="542.8" y2="507.8" gradientTransform="matrix(1.091 0 0 1.065 -421.7 -535.1)" gradientUnits="userSpaceOnUse"><stop stop-color="#155bc2" offset="0"/><stop stop-color="#369dff" offset="1"/></linearGradient></defs><g fill="#fff" fill-opacity=".847"><rect y="5.894" width="48" height="36.22" rx="1.704" fill="url(#a)" fill-opacity="1" stroke-width="1.037"/></g><g transform="matrix(1.069 0 0 1.069 -2.572 -1.622)"><path transform="matrix(.9916 0 0 .9916 -473 114.1)" d="m505.99-87.12v3.12h3.12l7.88-7.88-3.12-3.12zm13.76-7.51c.33-.33.33-.85 0-1.18l-1.95-1.95c-.33-.33-.85-.33-1.18 0l-1.63 1.64 3.12 3.12z" fill="#fff" fill-opacity=".851"/><g transform="matrix(.0494 0 0 .04891 21.29 -15.5)" fill="#deebfa" stroke="#4f96d1"><path transform="matrix(.7872 0 0 .7952 415.3 430.1)" d="m-884.1 294.8c-4.626 0-8.349 3.718-8.349 8.335v119.4l468.2 1v-79.2c0-4.618-3.724-8.335-8.35-8.335h-272.6c-8.51 0.751-9.607-0.377-13.81-5.981-5.964-7.968-14.97-21.44-20.84-29.21-4.712-6.805-5.477-6.02-13.29-6.02z" stroke="none"/><path transform="matrix(23.61 0 0 23.85 -291.8 616.8)" d="m.588 4.07c-.178 0-.32.142-.32.32v9.199c0 .178.142.32.32.32h14.824c.178 0 .32-.142.32-.32v-9.199c0-.178-.142-.32-.32-.32z" stroke="#aaa" stroke-width=".079"/><rect transform="matrix(.7872 0 0 .7952 415.3 430.1)" x="-890.3" y="356.8" width="463.8" height="295.1" rx="9.63" stroke="#deebfa" stroke-linecap="round" stroke-linejoin="round" stroke-width="5.376"/></g></g></svg>
