<svg viewBox="0 0 48 48" xmlns="http://www.w3.org/2000/svg"><defs><linearGradient id="a" x2="0" y1="545.1" y2="518.1" gradientUnits="userSpaceOnUse"><stop stop-color="#197ff1" offset="0"/><stop stop-color="#21c6fb" offset="1"/></linearGradient></defs><g transform="matrix(1.714 0 0 1.714 -662.9 -887.7)"><g transform="translate(.135.045)"><circle cx="400.6" cy="531.8" r="14" fill="url(#a)"/><circle cx="400.6" cy="531.8" r="14" fill="#5ea5fb" fill-opacity="0"/></g><path transform="matrix(.1076 0 0 .1076 393.2 524.7)" d="m132.8 118-27.94-27.94c6.735-9.722 10.1-20.56 10.1-32.51 0-7.767-1.508-15.2-4.523-22.28-3.01-7.089-7.088-13.2-12.22-18.33s-11.24-9.207-18.33-12.22c-7.09-3.01-14.52-4.522-22.28-4.522s-15.2 1.507-22.28 4.522c-7.089 3.01-13.2 7.088-18.33 12.22s-9.207 11.24-12.22 18.33c-3.01 7.089-4.522 14.52-4.522 22.28s1.507 15.19 4.522 22.28c3.01 7.088 7.088 13.2 12.22 18.33 5.133 5.134 11.24 9.207 18.33 12.22 7.089 3.02 14.52 4.522 22.28 4.522 11.95 0 22.79-3.369 32.51-10.1l27.94 27.86c1.955 2.064 4.397 3.096 7.332 3.096 2.824 0 5.27-1.032 7.332-3.096 2.064-2.063 3.096-4.508 3.096-7.332 1e-4 -2.877-1-5.322-3.01-7.331m-49.41-34.67c-7.143 7.143-15.74 10.71-25.79 10.71-10.05 0-18.64-3.572-25.79-10.71-7.143-7.143-10.71-15.74-10.71-25.79 0-10.05 3.572-18.64 10.71-25.79 7.142-7.143 15.74-10.71 25.79-10.71 10.05 0 18.64 3.572 25.79 10.71 7.143 7.142 10.72 15.74 10.72 25.79 0 10.05-3.573 18.64-10.72 25.79" fill="#fff" fill-opacity=".85"/></g></svg>
