<svg version="1.1" viewBox="0 0 48 48" xmlns="http://www.w3.org/2000/svg" xmlns:xlink="http://www.w3.org/1999/xlink"><defs><linearGradient id="c" x1="-206.7" x2="-208.3" y1="315.4" y2="23.36" gradientTransform="matrix(.9978 0 0 1 -218.9 203)" gradientUnits="userSpaceOnUse"><stop stop-color="#155bc2" offset="0"/><stop stop-color="#369dff" offset="1"/></linearGradient><linearGradient id="d" x1="-423.1" x2="-425" y1="519.5" y2="228" gradientTransform="matrix(.1032 0 0 .1032 80.14 -31.1)" gradientUnits="userSpaceOnUse" xlink:href="#a"/><linearGradient id="a" x2="0" y1="542.8" y2="507.8" gradientTransform="matrix(1.248 0 0 1.218 -512.7 -600.5)" gradientUnits="userSpaceOnUse"><stop stop-color="#155bc2" offset="0"/><stop stop-color="#369dff" offset="1"/></linearGradient><linearGradient id="b" x1="-425" x2="-423.1" y1="228" y2="519.5" gradientTransform="matrix(.1032 0 0 .1032 80.14 -31.1)" gradientUnits="userSpaceOnUse" xlink:href="#a"/></defs><g transform="translate(60.41 19.73)"><path d="m-59.34-14.19c-0.4767 0-0.8605 0.3838-0.8605 0.8605v16.66l47.76 0.1033v-12.51c0-0.4767-0.3838-0.8605-0.8605-0.8605h-25.89c-0.8773 0.07745-0.99-0.03872-1.423-0.6174-0.6149-0.8227-1.543-2.214-2.148-3.016-0.4858-0.7026-0.5645-0.6209-1.37-0.6209z" color="#000000" fill="#1864d4"/><rect transform="scale(-1,1)" x="12.46" y="-7.784" width="47.89" height="30.47" rx=".9942" fill="url(#d)" stroke="url(#b)" stroke-width=".1032"/></g><g transform="matrix(-.1032 0 0 .1032 -19.73 -11.4)"><rect x="-654.9" y="225.8" width="462.8" height="295.1" rx="9.63" fill="none" stroke="url(#c)" stroke-linecap="round" stroke-width="2"/><g transform="matrix(-.3893 0 0 .3893 -174.6 188.4)" fill="#fff" fill-opacity=".85"><path d="m447.5 384.8c17.78 0 28.28-14.55 28.28-27.48 0-14.55-10.51-25.05-28.28-25.05h-141.8c-17.78 0-28.69 10.51-28.69 25.05v229.5c0 14.14 10.91 25.05 28.69 25.05 14.14 0 24.24-10.91 24.24-25.05v-84.85h103c14.55 0 29.09-10.91 29.09-24.24 0-14.14-14.55-28.69-29.09-28.69h-103v-64.25h117.6"/><path d="m596.4 586.8c0 35.96 53.34 35.15 53.34 0v-204h67.07c35.96 0 35.96-51.72 0-51.72h-191.1c-35.15 0-35.15 51.72 0 51.72h70.71v204"/><path d="m782.8 584c0 17.78 14.14 27.88 27.48 27.88 14.55 0 25.86-10.1 25.86-27.88v-53.34h67.48c52.53 0 99.8-35.56 99.8-99.4 0-67.48-47.28-102.6-99.8-102.6h-93.34c-16.97 0-27.48 14.55-27.48 27.88v227.5m120.8-204.4c27.07 0 48.49 23.44 48.49 51.72 0 25.05-21.42 48.89-48.49 48.89h-67.48v-100.6h67.48"/></g></g></svg>
