<svg viewBox="0 0 48 48" xmlns="http://www.w3.org/2000/svg"><defs><linearGradient id="a" x1="-124" x2="-125.2" y1="73.5" y2="-26.05" gradientTransform="matrix(1.035 0 0 1 4.382 0)" gradientUnits="userSpaceOnUse"><stop stop-color="#5dae33" offset="0"/><stop stop-color="#9be058" offset="1"/></linearGradient></defs><path transform="matrix(.4778 0 0 .4778 84.55 13.1)" d="m-170.5-27.42h87.55c3.577 0 6.458 2.783 6.458 6.241v87.98c0 3.457-2.88 6.241-6.457 6.241h-87.55c-3.577 0-6.457-2.783-6.457-6.241v-87.98c0-3.457 2.88-6.241 6.457-6.241" fill="url(#a)" fill-rule="evenodd"/><g transform="matrix(.6577 0 0 .6577 21.39 5.428)" fill="#e9f5e1"><path d="m-22.08 41.96c1.4 0 2.44-1.08 2.44-2.48v-8.76h13.04v8.76c0 1.4 1.28 2.48 2.72 2.48 1.4 0 2.48-1.08 2.48-2.48v-22.72c0-1.44-1.08-2.48-2.48-2.48-1.44 0-2.72 1.04-2.72 2.48v8.72h-13.04v-8.72c0-1.44-1.04-2.48-2.44-2.48-1.8 0-2.84 1.04-2.84 2.48v22.72c0 1.4 1.04 2.48 2.84 2.48"/><path d="m32.864 28.32c0-9.84-7.28-14.84-14.72-14.84-7.08 0-15.08 5-15.08 14.84 0 9.84 8.04 14.68 15.08 14.68 3.24 0 5.68-.68 7.76-2.12l1.36 1.08c2.68 2.52 6.12-1.4 3.48-3.8l-.64-.76c1.8-2.48 2.76-5.28 2.76-9.08m-6.6 5.2l-4.52-4.52c-2.68-2.36-6.04 1.28-3.92 3.84l4.56 4.2c-1.4.36-2.8.72-4.24.72-5.64 0-9.76-4.6-9.76-9.44 0-6.36 4.84-9.6 9.76-9.6 4.56 0 9.56 3.24 9.56 9.6 0 2.08-.44 3.8-1.44 5.2"/></g></svg>
