<svg viewBox="0 0 48 48" xmlns="http://www.w3.org/2000/svg"><defs><linearGradient id="a" x2="0" y1="542.8" y2="507.8" gradientTransform="matrix(1.091 0 0 1.065 -383.3 -560.9)" gradientUnits="userSpaceOnUse"><stop stop-color="#197ff1" offset="0"/><stop stop-color="#21c6fb" offset="1"/></linearGradient></defs><g transform="matrix(.2266 0 0 .2266 -51.8 16.96)" enable-background="new"><rect transform="matrix(4.414 0 0 4.414 59.28 39.36)" x="38.38" y="-19.98" width="48" height="36.22" rx="1.704" fill="url(#a)" stroke-width="1.714"/><path transform="matrix(.8497 0 0 .8497 189.3 35.16)" d="m258-38.3c-2.332-5.96-8.423-9.574-14.77-8.778-48.12 6.03-96.24 6.03-144.4 0-6.362-0.797-12.44 2.808-14.77 8.778-8.735 22.33-8.735 44.66 0 66.99 2.332 5.96 8.423 9.574 14.77 8.778 48.12-6.03 96.24-6.03 144.4 0 6.362 0.797 12.44-2.808 14.77-8.778 8.735-22.33 8.735-44.66 0-66.99" fill="#fff" fill-opacity=".85"/></g></svg>
