<svg viewBox="0 0 48 48" xmlns="http://www.w3.org/2000/svg"><defs><linearGradient id="a" x1="-124" x2="-125.2" y1="73.5" y2="-26.05" gradientTransform="matrix(1.035 0 0 1 4.382 0)" gradientUnits="userSpaceOnUse"><stop stop-color="#2fae61" offset="0"/><stop stop-color="#4bdf88" offset="1"/></linearGradient></defs><g fill-rule="evenodd"><path transform="matrix(.4778 0 0 .4778 84.55 13.1)" d="m-170.5-27.42h87.55c3.577 0 6.458 2.783 6.458 6.241v87.98c0 3.457-2.88 6.241-6.457 6.241h-87.55c-3.577 0-6.457-2.783-6.457-6.241v-87.98c0-3.457 2.88-6.241 6.457-6.241" fill="url(#a)"/><path d="m6.009 30.9a5.458 5.458 0 0 0 5.461 5.454 5.458 5.458 0 0 0 5.335-4.333l13.68-9e-3c0.534 0 0.963-0.43 0.963-0.964v-0.33c0-0.534-0.43-0.963-0.964-0.963l-13.68 9e-3a5.458 5.458 0 0 0-5.337-4.325 5.458 5.458 0 0 0-5.454 5.461m-0.00927-13.79a5.458 5.458 0 0 0 5.461 5.454 5.458 5.458 0 0 0 5.335-4.333l13.68-9e-3c0.534 0 0.963-0.43 0.963-0.964v-0.33c0-0.534-0.43-0.963-0.964-0.963l-13.68 9e-3a5.458 5.458 0 0 0-5.337-4.325 5.458 5.458 0 0 0-5.454 5.461m10.56 7.124c0 0.534 0.43 0.963 0.964 0.963l13.68-9e-3a5.458 5.458 0 0 0 5.341 4.325 5.458 5.458 0 0 0 5.454-5.461 5.458 5.458 0 0 0-5.461-5.454 5.458 5.458 0 0 0-5.331 4.333l-13.68 9e-3c-0.534 0-0.963 0.43-0.963 0.964v0.33" color-rendering="auto" fill="#fff" fill-opacity=".846" image-rendering="auto" shape-rendering="auto" solid-color="#000000" isolation="auto" mix-blend-mode="normal"/></g></svg>
