<svg viewBox="0 0 48 48" xmlns="http://www.w3.org/2000/svg"><defs><linearGradient id="c" x1="411.6" x2="412.1" y1="562.6" y2="524.3" gradientUnits="userSpaceOnUse"><stop stop-color="#11aa43" offset="0"/><stop stop-color="#65ff5d" offset="1"/></linearGradient><linearGradient id="b" x1="429" x2="429.5" y1="563.2" y2="550.8" gradientUnits="userSpaceOnUse"><stop stop-color="#276ad6" offset="0"/><stop stop-color="#41aaff" offset="1"/></linearGradient><linearGradient id="a" x1="413.2" x2="412.9" y1="539.2" y2="530.6" gradientUnits="userSpaceOnUse"><stop stop-color="#ffcc06" offset="0"/><stop stop-color="#fff834" offset="1"/></linearGradient></defs><g transform="matrix(1.036 0 0 1.036 -418 -539.3)"><path transform="matrix(2.853 0 0 2.845 -740.8 -985.1)" d="m406.3 530.5h5.753l5.243 9.255h-5.728z" fill="url(#a)" stroke-opacity=".8"/><path d="m411.8 563.9 14.92-25.79s-4.289-7.604-6.507-11.38c-0.293-0.5-0.707-1.314-1.085-1.9-0.317-0.491-0.52-0.882-0.52-0.882s-0.046-0.041-0.07 0c-4.966 8.688-14.9 26.19-14.9 26.19l8.161 13.77" fill="url(#c)"/><path d="m411.7 563.9h29.69l8.565-13.66-30.32-0.031-7.929 13.7" fill="url(#b)"/></g></svg>
