<svg viewBox="0 0 48 48" xmlns="http://www.w3.org/2000/svg"><defs><linearGradient id="b" x1="-1093" x2="-1060" y1="203.1" y2="104.8" gradientTransform="matrix(.3555 0 0 .3508 406.26-72.43)" gradientUnits="userSpaceOnUse"><stop stop-color="#6c7482" offset="0"/><stop stop-color="#868d97" offset="1"/></linearGradient><linearGradient id="a" x1="-989.7" x2="-1004" y1="433.3" y2="317.4" gradientTransform="matrix(.356 0 0 .3512 387.1 -150.1)" gradientUnits="userSpaceOnUse"><stop stop-color="#1584d8" offset="0"/><stop stop-color="#1cb2ff" offset="1"/></linearGradient></defs><g transform="matrix(1 0 0 1 -3.371 45.88)" enable-background="new"><rect transform="matrix(.9491 -.3149 .3072 .9516 0 0)" x="15.01" y="-32.95" width="31.91" height="40.21" rx=".981" fill="url(#b)"/><rect transform="matrix(.9921-.12541.13781.99046 0 0)" x="14.8" y="-39.03" width="35.54" height="43.17" rx="1.054" fill="url(#a)"/><path d="m22.316-14.294l.788 3.819 3.819-.788 7.654-11.635-4.607-3.03zm14.944-12.668c.321-.487.189-1.124-.298-1.444l-2.879-1.894c-.487-.321-1.124-.189-1.444.298l-1.581 2.419 4.607 3.03z" fill="#fff" fill-opacity=".847"/></g></svg>
