<svg viewBox="0 0 48 48" xmlns="http://www.w3.org/2000/svg"><defs><linearGradient id="c" x1="264.9" x2="264.4" y1="544.1" y2="534.6" gradientUnits="userSpaceOnUse"><stop stop-color="#d8d8d8" offset="0"/><stop stop-color="#f9f9f9" offset="1"/></linearGradient><linearGradient id="b" x1="269.5" x2="268.7" y1="543.6" y2="523.2" gradientUnits="userSpaceOnUse"><stop stop-color="#cfd0d2" offset="0"/><stop stop-color="#f4f4f5" offset="1"/></linearGradient><linearGradient id="a" x1="268.2" x2="268.1" y1="539.2" y2="522.8" gradientUnits="userSpaceOnUse"><stop stop-color="#0a80fd" offset="0"/><stop stop-color="#56c5fa" offset="1"/></linearGradient></defs><g transform="matrix(1.122 0 0 1.122 -433.4 -563.4)"><g transform="matrix(1.847 0 0 1.847 -88.79 -462.2)"><path d="m280.3 530.1-11.66-7.097-11.5 7.106 20.08 14.04h1.455s1.618-0.012 1.623-1.505z" fill="url(#b)"/><path d="m261.23 524.02h15.15c.796 0 1.438.641 1.438 1.438v6.455l-9.455 6.516-8.57-6.071v-6.9c0-.796.641-1.438 1.438-1.438" fill="url(#a)"/><path d="m257.2 530.1 20.17 14.04h-18.55s-1.618-0.012-1.623-1.505z" fill="url(#c)"/></g><path transform="matrix(.5181 0 0 .5181 167.5 259.6)" d="m463.5 484.5q5.846 0 9.838 4.03t3.992 9.731q0 3.208-1.39 5.311-1.354 2.103-3.956 2.103-2.673 0-3.992-2.602-1.747 2.602-4.99 2.602-2.923 0-4.919-2.032-1.996-2.067-1.996-5.24 0-3.137 1.996-5.204t4.776-2.067q2.745 0 4.562 2.103h0.143v-1.604h2.566v9.303q0 0.927 0.499 1.675 0.535 0.749 1.604 0.749 2.531 0 2.531-5.097 0-4.705-3.279-7.948-3.279-3.244-7.984-3.244t-7.984 3.244-3.279 7.948q0 4.705 3.279 7.948 3.279 3.244 7.984 3.244 2.531 0 4.527-0.998l0.998 2.424q-2.495 1.141-5.525 1.141-5.917 0-9.945-3.992-4.03-4.03-4.03-9.766 0-5.703 4.03-9.731 4.063-4.03 9.945-4.03m-3.315 17.22q1.283 1.248 3.065 1.248t3.03-1.248q1.283-1.248 1.283-3.315t-1.283-3.315q-1.248-1.248-3.03-1.248t-3.065 1.248q-1.248 1.248-1.248 3.315t1.248 3.315" fill="#fff" fill-opacity=".849"/></g></svg>
