<svg viewBox="0 0 48 48" xmlns="http://www.w3.org/2000/svg"><defs><linearGradient id="b" x1="-124" x2="-125.2" y1="73.5" y2="-26.05" gradientTransform="matrix(.4943 0 0 .4778 86.64 13.1)" gradientUnits="userSpaceOnUse"><stop stop-color="#2e3e46" offset="0"/><stop stop-color="#435a64" offset="1"/></linearGradient><linearGradient id="a" x1="399" x2="398.2" y1="546.4" y2="525.8" gradientUnits="userSpaceOnUse"><stop stop-color="#0973d9" offset="0"/><stop stop-color="#0cbffe" offset="1"/></linearGradient></defs><path d="m2.982 0h42.04c1.652 0 2.982 1.33 2.982 2.982v42.04c0 1.652-1.33 2.982-2.982 2.982h-42.04c-1.652 0-2.982-1.33-2.982-2.982v-42.04c0-1.652 1.33-2.982 2.982-2.982" fill="url(#b)" fill-rule="evenodd"/><path transform="matrix(1.714 0 0 1.714 -660.5 -887.9)" d="m403.37 536.63c-2.29-1.79-.674-9.154-.674-9.154 0 0 2.506 0 2.798 0 .292 0 1.437-.184 1.437-1.555 0-1.687-1.399-1.583-1.399-1.583 0 0-7.67 0-10.304 0-1.691 0-3.218 1.936-4.094 3.321-.466.74-.203.947.598.598 2.808-1.23 3.599-.787 3.599-.787.198.947.264 5.22-.457 6.907-.73 1.588-2.078 3.599-.099 4.782 1.545.876 3.166-.923 3.01-3.986-.075-1.621-.203-7.698-.203-7.698h2.581c-.08.947-.517 5.78-.061 8.645.476 4.782 5.672 3.854 6.642 1.145.24-.749.184-1.324.005-1.758-.33-.805-.881-.848-.82-.471.038.24.014.476-.024.689-.113.655-1.451 1.682-2.535.905" fill="url(#a)" opacity=".9"/></svg>
