<svg viewBox="0 0 48 48" xmlns="http://www.w3.org/2000/svg"><defs><linearGradient id="b" x1="61.57" x2="60.75" y1="22.94" y2="-27.71" gradientUnits="userSpaceOnUse"><stop stop-color="#141414" offset="0"/><stop stop-color="#2d2d2f" offset="1"/></linearGradient><linearGradient id="a" x1="24.55" x2="25.18" y1="44.28" y2="4.153" gradientUnits="userSpaceOnUse"><stop stop-color="#4fd127" offset="0"/><stop stop-color="#c6f61a" offset="1"/></linearGradient></defs><path transform="matrix(1 0 0 1 -38.38 25.88)" d="m41.36-25.88h42.04c1.652 0 2.982 1.33 2.982 2.982v42.04c0 1.652-1.33 2.982-2.982 2.982h-42.04c-1.652 0-2.982-1.33-2.982-2.982v-42.04c0-1.652 1.33-2.982 2.982-2.982" fill="url(#b)" fill-rule="evenodd"/><g transform="matrix(.07692 0 0 .07692 7 7)" fill="#e2e5e7"><path transform="matrix(13 0 0 13-91-91)" d="m19.816 11.141c-.425 0-.77.343-.77.768v4.777c0 .425.345.77.77.77h8.367c.425 0 .77-.345.77-.77v-4.777c0-.425-.345-.768-.77-.768h-8.367m4.184 7.082c-.425 0-.77.345-.77.77v4.238h-11.277c-.425 0-.77.345-.77.77v5.01c0 .425.345.77.77.77.425 0 .77-.345.77-.77v-4.238h22.555v4.238c0 .425.345.77.77.77.425 0 .77-.345.77-.77v-5.01c0-.425-.345-.77-.77-.77h-11.277v-4.238c0-.425-.345-.77-.77-.77m0 7.277c-.425 0-.77.345-.77.77v2.738c0 .425.345.77.77.77.425 0 .77-.345.77-.77v-2.738c0-.425-.345-.77-.77-.77m-16.23 5.04c-.425 0-.77.345-.77.77v4.777c0 .425.345.768.77.768h8.369c.425 0 .768-.343.768-.768v-4.777c0-.425-.343-.77-.768-.77h-8.369m12.05 0c-.425 0-.77.345-.77.77v4.777c0 .425.345.768.77.768h8.367c.425 0 .77-.343.77-.768v-4.777c0-.425-.345-.77-.77-.77h-8.367m12.04 0c-.425 0-.768.345-.768.77v4.777c0 .425.343.768.768.768h8.369c.425 0 .77-.343.77-.768v-4.777c0-.425-.345-.77-.77-.77h-8.369" fill="url(#a)"/></g></svg>
