<svg viewBox="0 0 48 48" xmlns="http://www.w3.org/2000/svg" xmlns:xlink="http://www.w3.org/1999/xlink"><defs><path id="a" d="m50.19 53.628l.566-.051c4.266-.5 7.585-4.134 7.585-8.529 0-5.868-13.207-17.812-13.207-17.812-.504-.559-1.221-.559-1.725 0 0 0-13.207 11.944-13.207 17.812 0 4.396 3.32 8.03 7.585 8.529l.567.051c.146.009.291.011.439.011 1.227 0 2.408-.256 3.492-.736.387 5.275-8.202 6.465-8.01 6.381v2.443h19.999v-2.443c.188.084-8.4-1.104-8.02-6.381 1.084.48 2.267.736 3.492.736.152 0 .297-.002.443-.011" fill="#fff" fill-opacity=".851"/><linearGradient id="b" x1="211.4" x2="207.4" y1="214.7" y2="118.4" gradientUnits="userSpaceOnUse"><stop stop-color="#2b65bd" offset="0"/><stop stop-color="#64a3dc" offset="1"/></linearGradient></defs><rect transform="matrix(.43254 0 0 .4778-66.57-55.02)" x="160.8" y="115.2" width="97.1" height="100.5" rx="5.581" fill="url(#b)" fill-rule="evenodd"/><use transform="matrix(.548 0 0 .548 -.132 .758)" xlink:href="#a"/><use transform="matrix(.1757 0 0 .1757 31.15 34.72)" xlink:href="#a"/><use transform="matrix(.1757 0 0 .1757 1.297 -2.283)" xlink:href="#a"/></svg>
