<svg viewBox="0 0 48 48" xmlns="http://www.w3.org/2000/svg"><defs><linearGradient id="a" x2="0" y1="542.8" y2="507.8" gradientTransform="matrix(1.248 0 0 1.218 -512.7 -600.5)" gradientUnits="userSpaceOnUse"><stop stop-color="#155bc2" offset="0"/><stop stop-color="#369dff" offset="1"/></linearGradient></defs><g transform="matrix(.8743 0 0 .8743 26.53 -9.992)" fill="#fff" fill-opacity=".847"><rect x="-30.34" y="18.17" width="54.9" height="41.43" rx="1.949" fill="url(#a)" fill-opacity="1" stroke-width="1.186"/><path transform="matrix(1.134 0 0 1.134 -571.3 142)" d="m505.99-87.12v3.12h3.12l7.88-7.88-3.12-3.12zm13.76-7.51c.33-.33.33-.85 0-1.18l-1.95-1.95c-.33-.33-.85-.33-1.18 0l-1.63 1.64 3.12 3.12z" fill-opacity=".851"/><path d="m-20.363 47.972q-1.95 0-3.275-1.125-1.3-1.125-1.3-2.975 0-2 1.55-3.125 1.55-1.15 3.825-1.15 2.025 0 3.325.75v-.35q0-1.35-.925-2.15-.925-.825-2.275-.825-1 0-1.825.475-.8.475-1.1 1.3l-2.1-.9q.425-1.1 1.675-2.025 1.25-.95 3.3-.95 2.35 0 3.9 1.375 1.55 1.375 1.55 3.875v7.4h-2.2v-1.7h-.1q-1.375 2.1-4.03 2.1m.375-2.1q1.425 0 2.575-1.05 1.175-1.075 1.175-2.525-.975-.8-2.925-.8-1.675 0-2.525.725-.85.725-.85 1.7 0 .9.775 1.425.775.525 1.775.525"/><path d="m-4.97 47.97q-1.4 0-2.525-0.6-1.1-0.6-1.65-1.5h-0.1v1.7h-2.2v-17.9h2.3v5.65l-0.1 1.7h0.1q0.55-0.9 1.65-1.5 1.125-0.6 2.525-0.6 2.375 0 4.1 1.875t1.725 4.65-1.725 4.65-4.1 1.875m-0.375-2.1q1.6 0 2.75-1.2 1.15-1.225 1.15-3.225t-1.15-3.2q-1.15-1.225-2.75-1.225-1.625 0-2.775 1.2-1.125 1.2-1.125 3.225t1.125 3.225q1.15 1.2 2.775 1.2"/></g></svg>
