<svg viewBox="0 0 48 48" xmlns="http://www.w3.org/2000/svg"><defs><linearGradient id="a" x2="0" y1="542.8" y2="507.8" gradientTransform="matrix(1.091 0 0 1.065 -421.7 -535.1)" gradientUnits="userSpaceOnUse"><stop stop-color="#155bc2" offset="0"/><stop stop-color="#369dff" offset="1"/></linearGradient></defs><g fill="#fff" fill-opacity=".847"><rect y="5.894" width="48" height="36.22" rx="1.704" fill="url(#a)" fill-opacity="1" stroke-width="1.037"/></g><path transform="translate(-49.52-2.601)" d="m91.04 36.869l-.034-6.919c-.0001-.157-.064-.307-.175-.417-.111-.11-.262-.172-.419-.171l-2.154.011c-.238-3.606-1.767-6.96-4.347-9.514-.038-.038-.077-.076-.116-.114-2.793-2.707-6.474-4.188-10.365-4.169-3.891.019-7.557 1.535-10.323 4.27-2.625 2.594-4.163 6.01-4.369 9.671l-2.154.011c-.326.002-.59.267-.588.593l.034 6.919c.0001.157.064.307.175.417.111.11.262.172.419.171l4.091-.02-.018-2.943c-.003-.435.348-.79.783-.793.435-.003.79.348.792.783l.018 2.945 3.262-.016-.018-2.893c-.003-.435.348-.79.783-.793.435-.003.79.348.792.783l.018 2.895 3.196-.016-.018-2.925c-.003-.435.348-.79.783-.793.435-.003.79.348.792.783l.018 2.927 3.281-.016-.018-2.875c-.003-.435.348-.79.783-.793.435-.003.79.348.792.783l.018 2.877 3.182-.016-.018-2.867c-.003-.435.348-.79.783-.793.435-.003.79.348.792.783l.018 2.869 3.295-.016-.018-2.858c-.003-.435.348-.79.783-.793.435-.003.79.348.792.783l.017 2.86 4.069-.019c.157-.0001.307-.064.417-.175.11-.111.172-.262.171-.419zm-25.689-7.274c.12-2 .968-3.874 2.409-5.298 1.518-1.501 3.527-2.338 5.655-2.356 2.128-.018 4.138.785 5.66 2.26.021.02.042.041.063.062 1.406 1.392 2.235 3.224 2.358 5.195l-16.15.138" fill="#daeffe"/></svg>
