<svg viewBox="0 0 48 48" xmlns="http://www.w3.org/2000/svg"><defs><linearGradient id="b" x2="0" y1="549.9" y2="516.9" gradientUnits="userSpaceOnUse"><stop stop-color="#317a02" offset="0"/><stop stop-color="#8cff58" offset="1"/></linearGradient><linearGradient id="a" x2="0" y1="549.9" y2="516.9" gradientUnits="userSpaceOnUse"><stop stop-color="#1e56e6" offset="0"/><stop stop-color="#1f9aed" offset="1"/></linearGradient></defs><g transform="matrix(1.131 0 0 1.131-438.11-568.22)"><g transform="matrix(1.444 0 0 1.444 -169.8 -244.4)" fill="url(#b)" stroke="url(#b)" stroke-width="1.385"><circle cx="400.6" cy="531.8" r="14"/><circle cx="400.6" cy="531.8" r="14" fill="url(#a)" stroke="url(#a)"/></g><g transform="matrix(.04583 0 0 .04583 397.7 512.9)" fill="#fff" fill-opacity=".85"><path d="m420.5 352h-113v-35.57l-32.49 43.03-32.51 43.02 32.51 43.03 32.49 43.03v-24.62l60.2-2.275c53.21-3.215 65.93-25.19 65.93-25.19l59.78-111.1c-22.04 30.73-72.96 26.62-72.96 26.62"/><path d="m451.5 192.2-96.35 55.96 48.17 83.51c49.09 4.577 64.21-10.56 64.21-10.56 39.33-22.25 17.46-71.59 17.46-71.59l-33.49-57.33"/><path d="m66.96 425.7c-14.87-34.75 15.08-76.19 15.08-76.19l58.55-96.58 30.4 18.44-19.97-50.1-19.92-50.09-107.3 10.98 21.03 12.74-29.22 52.67c-24.84 47.16-12.61 69.43-12.61 69.43l63.94 108.7"/><path d="m83.71 408.6c-1.347 45.19 52.17 52.02 52.17 52.02l66.43 1.099 2.072-111.4-96.38-2.076c-29.38 39.59-24.29 60.38-24.29 60.38"/><path d="m324.4 181 53.28 8.152 22.4-49.05 22.43-49.03-21.64 11.68-30.6-51.86c-28.11-45.3-53.52-46.03-53.52-46.03l-126.1 0.163c37.53 4.774 58.1 51.55 58.1 51.55l53.66 99.36-31.27 16.9 53.31 8.158"/><path d="m236.7 75.57c-19.3-45.37-39.81-51.51-39.81-51.51-38.27-24.01-71.26 18.68-71.26 18.68l-34.56 56.72 95.03 58.17 50.59-82.06"/></g></g></svg>
