<svg viewBox="0 0 48 48" xmlns="http://www.w3.org/2000/svg"><defs><linearGradient id="a" x1="62.4" x2="61.71" y1="9.832" y2="-35.09" gradientUnits="userSpaceOnUse"><stop stop-color="#0063ac" offset="0"/><stop stop-color="#00b5ff" offset="1"/></linearGradient></defs><g transform="matrix(1 0 0 1 -38.37 35.88)" enable-background="new"><circle cx="62.37" cy="-11.88" r="24" fill="url(#a)" fill-rule="evenodd"/><g fill="#fff" fill-opacity=".855"><path d="m61.828-20.545c-.235-.809-1.026-1.337-2.273-1.52-.993-.145-3.737-.0001-8.896.465-3.635.329-3.63.328-3.843.749-.095.188-.1.749-.086 9.825l.015 9.625.14.149c.253.269.406.275 2.309.092 6.134-.59 9.596-.767 10.684-.548.536.108 1.18.395 1.484.662.224.197.486.646.511.875.008.072.021-4.415.029-9.972.013-8.874.004-10.14-.072-10.403"/><path d="m63.05-.619c.25-.486.97-.916 1.821-1.088 1.129-.228 4.913-.024 11.284.606 1.261.125 1.468.107 1.709-.15l.14-.149.015-9.625c.014-9.08.009-9.636-.086-9.825-.136-.269-.371-.392-.882-.461-.591-.08-5.142-.49-7.136-.642-2.175-.166-4.627-.183-5.2-.035-.832.214-1.417.622-1.692 1.182l-.162.329-.009 10.22c-.005 5.621.001 10.142.034 10.05.023-.095.097-.279.164-.408"/></g></g></svg>
