<svg viewBox="0 0 48 48" xmlns="http://www.w3.org/2000/svg"><defs><linearGradient id="a" x1="24.2" x2="25.63" y1="47.59" gradientUnits="userSpaceOnUse"><stop stop-color="#74cb32" offset="0"/><stop stop-color="#abeb6b" offset="1"/></linearGradient></defs><circle cx="24" cy="24" r="24" fill="url(#a)"/><path d="m23.905 7c-.431-.001-.858.145-1.179.468l-5.474 5.498c-.643.645-.616 1.709.062 2.385l9.08 9.05c.678.676 1.742.699 2.385.054l5.476-5.496c.643-.645.614-1.709-.065-2.385l-9.08-9.05c-.339-.338-.774-.514-1.205-.524m-10.233 9.851c-.279.009-.561.127-.778.349l-5.836 5.959c-.436.445-.446 1.139-.026 1.557l3.581 3.553c.421.417 1.11.395 1.546-.05l5.836-5.961c.436-.445.446-1.139.026-1.557l-3.581-3.551c-.21-.209-.488-.309-.768-.3zm23.678 3.348c-.3-.018-.593.08-.804.295l-8.355 8.514c-.423.431-.365 1.172.132 1.66l2.654 2.607c.497.488 1.237.532 1.66.101l8.357-8.516c.423-.431.363-1.17-.134-1.658l-2.654-2.607c-.248-.244-.556-.378-.856-.397m-17.207 5.884c-.361-.009-.718.12-.987.388l-4.586 4.573c-.539.537-.514 1.423.054 1.986l7.611 7.535c.568.563 1.458.582 1.996.045l4.586-4.573c.539-.537.514-1.423-.054-1.986l-7.609-7.533c-.284-.281-.65-.427-1.011-.436" fill-opacity=".722"/></svg>
