<svg viewBox="0 0 48 48" xmlns="http://www.w3.org/2000/svg"><defs><linearGradient id="a" x2="0" y1="542.8" y2="507.8" gradientTransform="matrix(1.091 0 0 1.065 -428.3 -535.9)" gradientUnits="userSpaceOnUse"><stop stop-color="#197cf1" offset="0"/><stop stop-color="#20bcfa" offset="1"/></linearGradient></defs><g transform="matrix(1 0 0 1 6.629 .882)" enable-background="new"><rect x="-6.625" y="5.02" width="48" height="36.22" rx="1.704" fill="url(#a)"/><path d="m18.502 12.925l-3.656.352v15.06l3.617-.547v-6.422l4.867 7.125 3.813-1.211-4.984-6.852 5.02-6.461-3.891-.891-4.828 6.461.039-6.617m-8.289 3.672c-.041.004-.086.016-.117.047l-1.438 1.438c-.06.061-.068.153-.023.227l1.68 2.773c-.298.501-.54 1.039-.711 1.609l-3.086.641c-.086.018-.148.099-.148.188v2.031c0 .086.065.159.148.18l2.992.727c.16.66.407 1.292.734 1.867l-1.734 2.641c-.048.074-.039.172.023.234l1.438 1.438c.061.06.153.068.227.023l2.719-1.648c.533.308 1.111.555 1.719.719l.633 3.047c.018.086.092.148.18.148h2.031c.085 0 .159-.057.18-.141l.75-3.063c.627-.169 1.219-.42 1.766-.742l2.68 1.758c.074.048.172.039.234-.023l1.43-1.438c.061-.061.076-.153.031-.227l-.977-1.609-.32.102c-.046.014-.098-.007-.125-.047 0 0-.617-.907-1.422-2.086-.963 1.884-2.926 3.172-5.188 3.172-3.213 0-5.82-2.607-5.82-5.82 0-2.364 1.413-4.394 3.438-5.305v-1.5c-.368.129-.724.285-1.063.469-.0001 0 .0001-.007 0-.008l-2.742-1.797c-.037-.024-.076-.028-.117-.023" fill="#fff" fill-opacity=".85"/></g></svg>
