<svg viewBox="0 0 48 48" xmlns="http://www.w3.org/2000/svg"><defs><linearGradient id="c" x1="25.28" x2="24.71" y1="47.54" y2="1.316" gradientUnits="userSpaceOnUse"><stop stop-color="#dce2ff" offset="0"/><stop stop-color="#f8feff" offset="1"/></linearGradient><linearGradient id="b" x1="10.37" x2="10.11" y1="50.6" y2="-.747" gradientUnits="userSpaceOnUse"><stop stop-color="#dc3c30" offset="0"/><stop stop-color="#ff786d" offset="1"/></linearGradient><linearGradient id="a" x2="0" y1="18.76" y2="1.078" gradientUnits="userSpaceOnUse"><stop stop-color="#f26156" offset="0"/><stop stop-color="#fe766b" offset="1"/></linearGradient></defs><g transform="matrix(.96853 0 0 .96853.755.755)"><rect x="1.458" y=".678" width="45.08" height="46.64" rx="2.898" fill="url(#c)" fill-rule="evenodd" stroke-width=".464"/><path transform="matrix(2.043 0 0 2.043 -20.17 -2067)" d="m17.8 1020c2.099 0 3.801 1.699 3.801 3.798h-3.801c1e-4 0 1e-4 -3.798 0-3.798m-1.069 1.033v3.801h3.801c0 2.102-1.701 3.801-3.801 3.801s-3.8-1.7-3.8-3.801c0-2.1 1.7-3.801 3.8-3.801" fill="#eb554a"/><g fill-rule="evenodd"><g transform="matrix(.97176 0 0 .97176.678.678)"><path d="m28.49 20.529c-.757 0-1.365.611-1.365 1.367 0 .757.609 1.365 1.365 1.365h11.529c.757 0 1.365-.609 1.365-1.365 0-.757-.609-1.367-1.365-1.367h-11.529m.016 4.832c-.757 0-1.367.609-1.367 1.365v.045c0 .757.611 1.365 1.367 1.365h11.336c.757 0 1.367-.609 1.367-1.365v-.045c0-.757-.611-1.365-1.367-1.365h-11.336m.016 4.99c-.753 0-1.359.606-1.359 1.359 0 .753.606 1.359 1.359 1.359h11.504c.753 0 1.359-.606 1.359-1.359 0-.753-.606-1.359-1.359-1.359h-11.504" fill="#ea5549"/><path d="m3.784 0h40.43c1.652 0 2.982 1.33 2.982 2.982v42.04c0 1.652-1.33 2.982-2.982 2.982h-40.43c-1.652 0-2.982-1.33-2.982-2.982v-42.04c0-1.652 1.33-2.982 2.982-2.982" fill="none" stroke="url(#b)" stroke-linecap="round" stroke-linejoin="round" stroke-width="3"/></g><path d="m26.11 1.091 19.93 17.67 6e-3 -17.68" fill="url(#a)"/></g></g></svg>
