<svg viewBox="0 0 48 48" xmlns="http://www.w3.org/2000/svg"><defs><linearGradient id="c" x1="25.28" x2="24.71" y1="47.54" y2="1.316" gradientUnits="userSpaceOnUse"><stop stop-color="#dce2ff" offset="0"/><stop stop-color="#f8feff" offset="1"/></linearGradient><linearGradient id="b" x1="10.37" x2="10.11" y1="50.6" y2="-.747" gradientUnits="userSpaceOnUse"><stop stop-color="#242425" offset="0"/><stop stop-color="#2c2c2e" offset="1"/></linearGradient><linearGradient id="a" x2="0" y1="18.76" y2="1.078" gradientUnits="userSpaceOnUse"><stop stop-color="#29292b" offset="0"/><stop stop-color="#2c2c2e" offset="1"/></linearGradient></defs><g transform="matrix(.96852 0 0 .96852.759.762)" enable-background="new" fill-rule="evenodd"><rect x="1.458" y=".678" width="45.08" height="46.64" rx="2.898" fill="url(#c)" stroke-width=".464"/><path transform="matrix(.97176 0 0 .97176.678.678)" d="m3.784 0h40.43c1.652 0 2.982 1.33 2.982 2.982v42.04c0 1.652-1.33 2.982-2.982 2.982h-40.43c-1.652 0-2.982-1.33-2.982-2.982v-42.04c0-1.652 1.33-2.982 2.982-2.982" fill="none" stroke="url(#b)" stroke-linecap="round" stroke-linejoin="round" stroke-width="3"/><path d="m26.11 1.091 19.93 17.67 6e-3 -17.68" fill="url(#a)"/></g></svg>
