<svg viewBox="0 0 48 48" xmlns="http://www.w3.org/2000/svg"><defs><linearGradient id="c" x1="93.25" x2="92.68" y1="47.54" y2="1.316" gradientUnits="userSpaceOnUse"><stop stop-color="#dce2ff" offset="0"/><stop stop-color="#f8feff" offset="1"/></linearGradient><linearGradient id="b" x1="10.37" x2="10.11" y1="50.6" y2="-.747" gradientUnits="userSpaceOnUse"><stop stop-color="#1e56e6" offset="0"/><stop stop-color="#1f9aed" offset="1"/></linearGradient><linearGradient id="a" x2="0" y1="18.76" y2="1.078" gradientUnits="userSpaceOnUse"><stop stop-color="#1f81ea" offset="0"/><stop stop-color="#1f98ed" offset="1"/></linearGradient></defs><g transform="matrix(.96853 0 0 .96853-65.08.755)"><g fill-rule="evenodd"><rect x="69.43" y=".678" width="45.08" height="46.64" rx="2.898" fill="url(#c)" stroke-width=".464"/><path transform="matrix(.9718 0 0 .9718 68.65 .678)" d="m3.784 0h40.43c1.652 0 2.982 1.33 2.982 2.982v42.04c0 1.652-1.33 2.982-2.982 2.982h-40.43c-1.652 0-2.982-1.33-2.982-2.982v-42.04c0-1.652 1.33-2.982 2.982-2.982" fill="none" stroke="url(#b)" stroke-linecap="round" stroke-linejoin="round" stroke-width="3"/><path transform="translate(67.97)" d="m26.11 1.091 19.93 17.67 6e-3 -17.68" fill="url(#a)"/></g><path d="m80.47 32.69v5.123h5.123l12.939-12.939-5.123-5.123zm22.594-12.331c.542-.542.542-1.396 0-1.938l-3.202-3.202c-.542-.542-1.396-.542-1.938 0l-2.676 2.693 5.123 5.123z" fill="#1e70e9"/></g></svg>
