<svg viewBox="0 0 48 48" xmlns="http://www.w3.org/2000/svg"><defs><linearGradient id="c" x1="417.7" x2="483.8" y1="1127" y2="-491.1" gradientUnits="userSpaceOnUse"><stop stop-color="#dce2ff" offset="0"/><stop stop-color="#f8feff" offset="1"/></linearGradient><linearGradient id="b" x1="10.37" x2="10.11" y1="50.6" y2="-.747" gradientUnits="userSpaceOnUse"><stop stop-color="#974eb7" offset="0"/><stop stop-color="#d164ff" offset="1"/></linearGradient><linearGradient id="a" x2="0" y1="18.76" y2="1.078" gradientUnits="userSpaceOnUse"><stop stop-color="#bb5ce4" offset="0"/><stop stop-color="#cf63fc" offset="1"/></linearGradient></defs><g transform="matrix(.02824 0 0 .02824 12.38 15.68)" enable-background="new" fill="#a654c9"><g fill-rule="evenodd"><rect x="-361.5" y="-505.3" width="1546" height="1600" rx="99.37" fill="url(#c)" stroke-width="15.92"/><path transform="matrix(33.32 0 0 33.32 -388.3 -505.3)" d="m3.784 0h40.43c1.652 0 2.982 1.33 2.982 2.982v42.04c0 1.652-1.33 2.982-2.982 2.982h-40.43c-1.652 0-2.982-1.33-2.982-2.982v-42.04c0-1.652 1.33-2.982 2.982-2.982" fill="none" stroke="url(#b)" stroke-linecap="round" stroke-linejoin="round" stroke-width="3"/><path transform="matrix(34.29 0 0 34.29 -411.5 -528.5)" d="m26.11 1.091 19.93 17.67 6e-3 -17.68" fill="url(#a)"/></g><path d="m411.5 823c210.4 0 381-48.4 381-108v-136.2c-2.5 1.9-5 3.7-7.699 5.5-22.7 15.2-54 28.5-93 39.6-75.4 21.3-174.9 33.1-280.3 33.1s-204.9-11.8-280.3-33.1c-39-11.1-70.3-24.4-93-39.6-2.7-1.8-5.2-3.6-7.7-5.5v136.2c0 59.6 170.6 108 381 108"/><path d="m411.5 617c203.3 0 369.4-45.1 380.4-102 0.4-2 0.6-4 0.6-6v-137.2c-2.5 1.9-5 3.7-7.699 5.5-19.1 12.8-44.4 24.3-75.3 34.2-5.699 1.8-11.6 3.6-17.7 5.4-6.1 1.699-12.3 3.399-18.7 5-14.8 3.699-30.3 7-46.5 10-63.7 11.8-137.8 18.1-215.1 18.1s-151.4-6.3-215.2-18.1c-16.2-3-31.7-6.4-46.5-10-6.4-1.601-12.6-3.2-18.7-5-6.1-1.7-12-3.5-17.7-5.4-30.9-9.9-56.2-21.4-75.3-34.2-2.7-1.8-5.2-3.6-7.7-5.5v137.2c0 2 0.2 4 0.6 6 11.1 56.9 177.2 102 380.5 102"/><path d="m196.3 391.1c20.7 4 42.8 7.5 66.1 10.3 45.8 5.5 96.2 8.6 149.1 8.6s103.3-3.1 149.1-8.6c23.3-2.801 45.4-6.301 66.1-10.3 94.2-18.3 158-48.3 165.2-82.6 0.5-2.2 0.699-4.3 0.699-6.5v-194c0-59.6-170.6-108-381-108s-381 48.4-381 108v194c0 2.2 0.2 4.3 0.7 6.5 7.101 34.3 70.8 64.3 165 82.6"/></g></svg>
