<svg viewBox="0 0 48 48" xmlns="http://www.w3.org/2000/svg" xmlns:xlink="http://www.w3.org/1999/xlink"><defs><linearGradient id="d" x1="-61.63" x2="-60.81" y1="71.71" y2="47.31" gradientUnits="userSpaceOnUse" xlink:href="#b"/><linearGradient id="c" x1="-62.13" x2="-62.53" y1="47.27" y2="24.29" gradientUnits="userSpaceOnUse" xlink:href="#a"/><linearGradient id="a" x1="26.4" x2="26.73" y1=".7" y2="-47.82" gradientUnits="userSpaceOnUse"><stop stop-color="#2f3f47" offset="0"/><stop stop-color="#425963" offset="1"/></linearGradient><linearGradient id="b" x1="22.64" x2="24.3" y1="221.2" y2="154.7" gradientTransform="matrix(.43368-.00031.00033.41341 31.937-92.88)" gradientUnits="userSpaceOnUse"><stop stop-color="#0a80fd" offset="0"/><stop stop-color="#56c5fa" offset="1"/></linearGradient><linearGradient id="f" x1="22.64" x2="24.3" y1="221.2" y2="154.7" gradientTransform="matrix(.43368-.00031.00033.41341-61.08-37.801)" gradientUnits="userSpaceOnUse" xlink:href="#b"/><linearGradient id="e" x1="-38.34" x2="-38.44" y1="71.51" y2="47.92" gradientUnits="userSpaceOnUse" xlink:href="#a"/></defs><g transform="translate(74.64-24.2)"><path d="m-71.24 24.31h20.71v23.96h-24.01v-20.87c0-3.317 3.12-3.09 3.295-3.09" fill="url(#c)"/><path d="m-71.35 72.1h20.71v-23.96h-24.01v20.87c0 3.317 3.12 3.09 3.295 3.09" fill="url(#d)"/><path d="m-29.99 24.31h-20.71v23.96h24.01v-20.87c0-3.317-3.12-3.09-3.295-3.09" fill="url(#f)"/><path d="m-29.95 72.1h-20.8v-23.96h24.11v20.87c0 3.317-3.134 3.09-3.309 3.09" fill="url(#e)"/></g></svg>
