<svg viewBox="0 0 48 48" xmlns="http://www.w3.org/2000/svg"><defs><clipPath id="a"><path transform="matrix(15.33 0 0 11.5 415 -125.5)" d="m-24 13c0 1.105-0.672 2-1.5 2s-1.5-0.895-1.5-2 0.672-2 1.5-2 1.5 0.895 1.5 2" fill="#1890d0"/></clipPath><linearGradient id="b" x1="24.61" x2="23.59" y1="47.59" y2="-.203" gradientUnits="userSpaceOnUse"><stop stop-color="#ff433a" offset="0"/><stop stop-color="#ff9436" offset="1"/></linearGradient></defs><rect width="48" height="48" rx="2.982" fill="url(#b)" fill-rule="evenodd"/><g transform="translate(-72.41 5.695)"><g transform="matrix(1.067 0 0 1.067 70.81 -7.295)" clip-path="url(#a)" fill="#fff"><g fill="#ffe8e1"><path d="m24.05 9c-4.211 0-8.05 1.805-10.73 4.539-2.676 2.723-4.316 6.453-4.316 10.52 0 4.066 1.637 7.793 4.316 10.52 2.688 2.738 6.527 4.43 10.73 4.43 4.215 0 7.949-1.699 10.63-4.43 2.68-2.723 4.313-6.449 4.313-10.52 0-4.063-1.641-7.793-4.313-10.52-2.68-2.727-6.418-4.539-10.63-4.539m0 5.535c2.426 0 4.625 1.051 6.313 2.766 1.68 1.711 2.766 4.082 2.766 6.754s-1.098 5.05-2.766 6.754c-1.68 1.707-3.875 2.656-6.313 2.656s-4.641-0.953-6.309-2.656c-1.664-1.691-2.77-4.063-2.77-6.754 0-2.688 1.098-5.05 2.77-6.754 1.676-1.707 3.887-2.766 6.309-2.766"/><path d="m34 28.5c0 3.039-2.465 5.5-5.5 5.5-3.039 0-5.5-2.461-5.5-5.5s2.461-5.5 5.5-5.5c3.035 0 5.5 2.461 5.5 5.5"/></g></g></g></svg>
