<svg viewBox="0 0 48 48" xmlns="http://www.w3.org/2000/svg"><defs><linearGradient id="b" x1="24.61" x2="23.59" y1="47.59" y2="-.203" gradientUnits="userSpaceOnUse"><stop stop-color="#dce2ff" offset="0"/><stop stop-color="#f8feff" offset="1"/></linearGradient><linearGradient id="a" x1="24.61" x2="24.46" y1="47.59" y2="34.89" gradientUnits="userSpaceOnUse"><stop stop-color="#1867c9" offset="0"/><stop stop-color="#5185ff" offset="1"/></linearGradient></defs><rect width="48" height="48" rx="2.982" fill="url(#b)" fill-rule="evenodd"/><path transform="matrix(1.206 0 0 1.206 -468.7 -608.9)" d="m413.54 513.39l1.125 1.406c-2.625 1.813-6.156 3.406-10.594 4.781h6.844c-.25-.562-.563-1.062-.938-1.5l1.688-.563c.5.625.875 1.313 1.125 2.063h5.813v1.594h-7.125v1.688h6.375v1.594h-6.375v1.688h6.375v1.594h-6.375v1.688h7.5v1.688h-15.938v.75h-1.781v-11.438l-2.531.656-.844-1.688c3.875-.875 7.094-1.844 9.656-2.906v-6.188h1.875v5.344c1.437-.687 2.812-1.437 4.125-2.25m-10.5 7.781v1.688h6.563v-1.688h-6.563m0 3.281v1.688h6.563v-1.688h-6.563m0 3.281v1.688h6.563v-1.688h-6.563m11.813-16.5c1.625.938 3.094 2.031 4.406 3.281l-1.313 1.594c-1.313-1.375-2.719-2.594-4.219-3.656l1.125-1.219m-11.438.469l1.406 1.219c-1.25 1.625-2.844 2.906-4.781 3.844l-1.031-1.594c1.688-.812 3.156-1.969 4.406-3.469" fill-opacity=".69"/><path d="m0 36h48v9.022c0 1.652-1.33 2.982-2.982 2.982h-42.04c-1.652 0-2.982-1.33-2.982-2.982v-6.04z" fill="url(#a)" fill-rule="evenodd"/></svg>
