<svg viewBox="0 0 48 48" xmlns="http://www.w3.org/2000/svg" xmlns:xlink="http://www.w3.org/1999/xlink"><defs><linearGradient id="b" x1="-.584" x2="-.625" y1="32.78" y2="21.7" gradientUnits="userSpaceOnUse" xlink:href="#a"/><linearGradient id="c" x2="0" y1="542.8" y2="507.8" gradientTransform="matrix(.6364 0 0 .6214 -261 -296.7)" gradientUnits="userSpaceOnUse"><stop stop-color="#141414" offset="0"/><stop stop-color="#2d2d2f" offset="1"/></linearGradient><linearGradient id="d" x1="-.315" x2="-.17" y1="38.62" y2="30.99" gradientUnits="userSpaceOnUse" xlink:href="#a"/><linearGradient id="a"><stop stop-color="#00cafe" offset="0"/><stop stop-color="#1460f3" offset="1"/></linearGradient></defs><g transform="matrix(1.714 0 0 1.714 25.79 -26.49)" enable-background="new"><rect x="-15.04" y="18.89" width="28" height="21.13" rx=".994" fill="url(#c)"/><path d="m-9.454 37.82c0-0.022 0.425-0.457 0.944-0.967l0.944-0.927v-0.75c0-0.412-0.03-0.75-0.066-0.75s-0.49 0.426-1.01 0.946l-0.943 0.946-0.086-2.244-2.146 2.062-2.06 8e-3 5.236-5.24 0.086 2.214 2.318-2.196 0.086 3.588 3.65-3.632v2.033c0 1.118 0.024 2.033 0.053 2.033s0.995-0.913 2.146-2.028l2.093-2.028v1.084c0 0.596 0.03 1.084 0.066 1.084s0.567-0.503 1.181-1.118l1.115-1.118 0.086 3.53 3.52-3.434 4.04-6e-3 -1.28 1.288h-1.047c-1 0-1.059 1e-3 -1.312 0.222-0.145 0.122-0.264 0.257-0.264 0.301 0 0.043 0.221 0.078 0.492 0.078h0.492l-1.366 1.374h-0.565c-0.533 0-0.581 0.017-0.856 0.301l-0.291 0.301h1.777c0.977 0 1.777 0.033 1.777 0.074 0 0.04-0.306 0.35-0.679 0.687l-0.679 0.613h-5.54l0.187-0.199c0.158-0.168 0.187-0.299 0.187-0.859 0-0.363-0.024-0.66-0.054-0.66s-0.494 0.41-1.03 0.91l-0.976 0.91v-2.29l-2.192 2.186h-2.358v-0.859c0-0.472-0.029-0.857-0.064-0.855s-0.856 0.775-1.825 1.717l-1.76 1.713h-1.01c-0.555 0-1.01-0.018-1.01-0.04" fill="url(#d)"/><path d="m-4.26 21.591c-.065 0-.081.054-.081.12v.709c0 .065.016.114.081.114h.713c.065 0 .117-.051.116-.116-.002-.236-.002-.473-.002-.709 0-.065-.052-.117-.117-.117h-.71m5.729 0c-.065 0-.154.053-.154.118v.713c0 .065.071.118.136.117.236-.002.464-.002.7-.002.065 0 .108-.053.108-.118v-.71c0-.065-.016-.118-.081-.118h-.709m-4.757.947c-.065 0-.109.052-.109.117v.729c0 .065-.084.092-.149.092h-.723c-.065 0-.071.079-.071.144v.72c0 .065-.1.079-.165.079h-.721c-.065 0-.174.092-.174.157v.721c0 .065.003.064-.062.064h-.71c-.065 0-.171.107-.171.172v2.612c0 .065.106.162.171.162h.71c.065 0 .062-.097.062-.162v-1.662c0-.065.108-.062.173-.062h.729c.065 0 .158-.003.158.062v1.674c0 .065.033.117.098.117.242 0 .486.0001.719.002.065.0001.126-.052.126-.117v-.718c0-.065.015-.077.08-.077h4.554c.065 0 .117.033.117.098 0 .242 0 .486-.002.721 0 .065.052.124.117.124h.718c.065 0 .072-.086.072-.152v-1.671c0-.065.098-.063.163-.063h.733c.065 0 .165-.002.165.063v1.661c0 .065.006.162.071.162h.701c.065 0 .171-.097.171-.162v-2.617c0-.065-.106-.167-.171-.167h-.717c-.065 0-.173-.003-.173-.068v-.723c0-.065.004-.15-.062-.15h-.72c-.065 0-.161-.02-.161-.085v-.719c0-.065-.001-.139-.075-.139h-.718c-.065 0-.15-.032-.15-.097v-.723c0-.065-.036-.117-.101-.116-.235.002-.476.002-.72.002-.065 0-.121.052-.121.117v.717c0 .065-.029.1-.095.1h-2.644c-.065 0-.089-.035-.089-.1v-.717c0-.065-.067-.118-.132-.118-.242 0-.468 0-.701-.002m-.026 1.881h.72c.065 0 .139.084.139.149 0 .24 0 .478 0 .719 0 .065-.074.074-.139.074h-.72c-.065 0-.083-.009-.083-.074v-.719c0-.065.018-.149.083-.149m3.826 0h.719c.065 0 .084.085.084.15v.72c0 .065-.019.072-.084.072h-.719c-.065 0-.139-.007-.139-.072v-.72c0-.065.074-.15.139-.15m-3.828 3.859c-.065 0-.118.053-.117.118.002.236.002.487.002.722 0 .065.051.131.116.131h1.667c.065 0 .136-.081.136-.146v-.703c0-.065-.061-.119-.126-.118-.177 0-.357 0-.531 0-.381-.0001-.765-.003-1.146-.005m4.594.002c-.018.0001-.028.015-.047.015-.561 0-1.113.013-1.674.013h-.054c-.029 0-.073.028-.073.093v.704c0 .065.073.145.138.145h1.665c.065 0 .082-.08.082-.145v-.713c0-.065-.007-.114-.038-.112" fill="url(#b)"/></g></svg>
