<svg viewBox="0 0 48 48" xmlns="http://www.w3.org/2000/svg"><defs><linearGradient id="a" x1="-112.5" x2="-111.1" y1="260.2" y2="154.6" gradientTransform="matrix(.4336 0 0 .4348 128.8 -67.62)" gradientUnits="userSpaceOnUse"><stop stop-color="#197cf1" offset="0"/><stop stop-color="#20bcfa" offset="1"/></linearGradient></defs><g transform="matrix(1 0 0 1 -38.37 25.88)" enable-background="new"><rect transform="translate(-20-25)" x="58.37" y="-.801" width="48" height="47.85" rx="3.752" fill="url(#a)" stroke-width="1.042"/><g transform="matrix(1.263 0 0 1.263 32.06 -32.19)" fill="#cdebfd"><path d="m28.694 10.506c-3.532.052-7.355.828-9.864 4.579-2.747 4.108-1.427 9.288 1.413 10.727 2.702 1.531 4.391-.343 3.757-1.812-.397 1.406-2.444 1.344-2.917-.912-.453-3.327 1.742-5.696 4.845-6.04 5.24-.572 9.33 4.624 9.749 9.522.582 7.738-4.04 13.988-11.06 16.425h17.382c.552 0 1-.448 1-1v-24.25c-1.158-1.314-2.698-2.82-4.234-3.842-2.988-1.99-6.54-3.454-10.07-3.402"/><path d="m19.733 36.942c3.532-.052 7.548-1.292 9.863-5.02 2.316-3.628 1.375-8.678-1.059-10.483-2.391-1.793-5.184.588-4.537 2.557.587-1.359 2.728-2.02 3.336.367.453 3.327-1.751 5.831-4.854 6.17-5.24.572-9.848-3.784-10.161-9.565-.504-9.329 5.376-14.847 11.679-15.972h-18c-.552 0-1 .448-1 1v23.792c1.158 1.314 3.108 2.868 4.644 3.891 2.988 1.989 6.557 3.311 10.09 3.259"/></g></g></svg>
