<svg viewBox="0 0 48 48" xmlns="http://www.w3.org/2000/svg"><defs><linearGradient id="b" x1="16.96" x2="17.59" y1="7.07" y2="-40.9" gradientUnits="userSpaceOnUse"><stop stop-color="#3889e9" offset="0"/><stop stop-color="#5ea5fb" offset="1"/></linearGradient><linearGradient id="a" x1="16.64" x2="17.35" y1="1.442" y2="-34.84" gradientUnits="userSpaceOnUse"><stop stop-color="#e7f0f4" offset="0"/><stop stop-color="#f4faff" offset="1"/></linearGradient></defs><g transform="matrix(1 0 0 1 6.629 40.72)" enable-background="new"><circle cx="17.37" cy="-16.72" r="24" fill="url(#b)"/><path d="m17.5-35.5a19 19 0 0 0-19 19 19 19 0 0 0 19 19 19 19 0 0 0 19-19 19 19 0 0 0-19-19m-6.398 8.219c0.406 0 0.944-0.043 1.377 0.215l14.64 9.225c1.202 0.715 0.994 1.559 0.994 1.559s0.207 0.844-0.994 1.559l-14.64 9.223c-0.433 0.258-0.971 0.215-1.377 0.215-1.623 0-1.615-1.302-1.615-1.57v-18.85c0-0.318-8e-3 -1.57 1.615-1.57" fill="url(#a)"/></g></svg>
