<svg viewBox="0 0 48 48" xmlns="http://www.w3.org/2000/svg"><defs><linearGradient id="a" x1="24.2" x2="25.63" y1="47.59" gradientUnits="userSpaceOnUse"><stop stop-color="#74cb32" offset="0"/><stop stop-color="#abeb6b" offset="1"/></linearGradient></defs><circle cx="24" cy="24" r="24" fill="url(#a)"/><g transform="matrix(.05078 0 0 .05078 10 10)" fill="#283d16"><path d="m413.7 0s-45.37 44.01-94.43 61.76c-363.3 131.4-210.1 387.5-205.1 388.4 0 0 20.37-35.48 47.9-55.72 174.6-128.4 210.1-276.2 210.1-276.2s-39.19 177.8-194.6 288.5c-34.32 24.43-57.55 84.57-67.39 144.7 0 0 24.32-9.828 34.78-12.49 4.079-26.62 12.61-52.11 27.03-74.88 217.2 25.85 288.3-149.1 297.6-210.1 21.93-144.1-55.93-253.9-55.93-253.9"/></g></svg>
