<svg width="48" height="48" viewBox="0 0 13.55 13.55" xmlns="http://www.w3.org/2000/svg"><defs><linearGradient id="a" x1="-166.6" x2="-158.1" y1="14.93" y2="-11.74" gradientUnits="userSpaceOnUse"><stop stop-color="#cdfce4" offset="0"/><stop stop-color="#f6fbff" offset="1"/></linearGradient><linearGradient id="b" x2="0" y1="32.74" y2="-35" gradientUnits="userSpaceOnUse"><stop stop-color="#226f45" offset="0"/><stop stop-color="#2d995f" offset="1"/></linearGradient><linearGradient id="d" x2="0" y1="30.39" y2="-26.06" gradientUnits="userSpaceOnUse"><stop stop-color="#f7f7f7" offset="0"/><stop stop-color="#fcfdfc" offset="1"/></linearGradient><linearGradient id="c" x1="-475.5" x2="-475.2" y1="80.49" y2="-68.12" gradientUnits="userSpaceOnUse"><stop stop-color="#29292b" offset="0"/><stop stop-color="#3f3f3f" offset="1"/></linearGradient></defs><g transform="matrix(.1874 0 0 .1874 35.12 6.367)"><rect x="-152.7" y="-25.44" width="35.28" height="55.83" rx="1.411" color-rendering="auto" fill="url(#d)" fill-rule="evenodd" image-rendering="auto" shape-rendering="auto" solid-color="#000000" isolation="auto" mix-blend-mode="normal"/><path transform="scale(.2822)" d="m-519.2-66.42v20.19h42.18v-20.19h-42.18m46.36 0v20.19h42.18v-20.19h-42.18m-46.36 31.73v20.19h42.18v-20.19h-42.18m46.36 0v20.19h42.18v-20.19h-42.18m-46.36 31.73v20.19h42.18v-20.19h-42.18m46.36 0v20.19h42.18v-20.19h-42.18m-46.36 31.73v20.19h42.18v-20.19h-42.18m46.36 0v20.19h42.18v-20.19h-42.18m-46.36 31.73v20.19h42.18v-20.19h-42.18m46.36 0v20.19h42.18v-20.19h-42.18" fill="url(#c)"/><path transform="translate(241.3.474)" d="m-425.03-26.529l40.922-7.902c.768-.148 1.411.629 1.411 1.411v69.43c0 .782-.644 1.559-1.411 1.411l-40.922-7.902c-.768-.148-1.411-.629-1.411-1.411v-53.622c0-.782.644-1.263 1.411-1.411" color-rendering="auto" fill="url(#b)" fill-rule="evenodd" image-rendering="auto" shape-rendering="auto" solid-color="#000000" isolation="auto" mix-blend-mode="normal"/><path d="m-160.61-11.864c1.988-.141 3.986-.264 5.983-.361-2.349 4.813-4.707 9.625-7.1 14.421 2.42 4.927 4.892 9.819 7.32 14.746-2.12-.123-4.232-.255-6.352-.405-1.496-3.669-3.317-7.215-4.39-11.05-1.197 3.572-2.903 6.942-4.276 10.444-1.927-.026-3.854-.106-5.781-.185 2.261-4.426 4.443-8.886 6.775-13.286-1.98-4.531-4.153-8.974-6.194-13.479 1.936-.114 3.871-.229 5.807-.334 1.311 3.44 2.745 6.836 3.827 10.364 1.161-3.739 2.895-7.259 4.382-10.875" fill="url(#a)"/></g></svg>
