<svg width="48" height="48" viewBox="0 0 13.55 13.55" xmlns="http://www.w3.org/2000/svg" xmlns:xlink="http://www.w3.org/1999/xlink"><defs><linearGradient id="c" x2="0" y1="32.74" y2="-35" gradientUnits="userSpaceOnUse" xlink:href="#a"/><linearGradient id="b" x1="-79.5" x2="-68.03" y1="-61.98" y2="-89.27" gradientUnits="userSpaceOnUse"><stop stop-color="#f4aeec" offset="0"/><stop stop-color="#fffafe" offset="1"/></linearGradient><linearGradient id="d" x1="-374.9" x2="-375.6" y1="22.84" y2="-17.66" gradientUnits="userSpaceOnUse"><stop stop-color="#29292b" offset="0"/><stop stop-color="#3f3f3f" offset="1"/></linearGradient><linearGradient id="a"><stop stop-color="#5e184a" offset="0"/><stop stop-color="#802f72" offset="1"/></linearGradient><linearGradient id="f" x1="-101.1" x2="-103.7" y1="-143.7" y2="-290.9" gradientUnits="userSpaceOnUse" xlink:href="#a"/><linearGradient id="e" x2="0" y1="30.48" y2="-25.96" gradientTransform="matrix(3.359 0 0 3.543 1563 -277.2)" gradientUnits="userSpaceOnUse"><stop stop-color="#f7f7f7" offset="0"/><stop stop-color="#fcfdfc" offset="1"/></linearGradient></defs><g transform="matrix(.1874 0 0 .1874 18.28 21.01)"><path transform="scale(.2822)" d="m-107.9-293c-2.77 0-5 2.23-5 5v40.3c0 2.77 2.23 5 5 5h9.201c2.77 0 5-2.23 5-5v-40.3c0-2.77-2.23-5-5-5h-9.201m0 63.94c-2.77 0-5 2.23-5 5v40.3c0 2.77 2.23 5 5 5h9.201c2.77 0 5-2.23 5-5v-40.3c0-2.77-2.23-5-5-5h-9.201" color-rendering="auto" fill="url(#f)" fill-rule="evenodd" image-rendering="auto" shape-rendering="auto" solid-color="#000000" isolation="auto" mix-blend-mode="normal"/><g transform="translate(329.73-77.65)" color-rendering="auto" fill-rule="evenodd" image-rendering="auto" shape-rendering="auto"><path transform="matrix(.2822 0 0 .2822 -399.2 77.65)" d="m23.352-366.97c-2.77 0-5 2.23-5 5v187.83c0 2.77 2.23 5 5 5h108.48c2.77 0 5-2.23 5-5v-127.75c.391.098.793.166 1.215.166h10.637c2.77 0 5-2.23 5-5v-42.13c0-2.77-2.23-5-5-5h-10.637c-.422 0-.824.068-1.215.166v-8.277c0-2.77-2.23-5-5-5h-108.48" fill="url(#e)" solid-color="#000000" isolation="auto" mix-blend-mode="normal"/><path d="m-385.9-18.52v2.376h20.08v-2.376h-20.08m0 7.586v2.376h20.08v-2.376h-20.08m0 7.663v2.376h20.08v-2.376h-20.08m0 7.51v2.375h20.08v-2.375h-20.08m0 7.51v2.376h20.08v-2.376h-20.08m0 7.702v2.375h20.08v-2.375h-20.08" fill="url(#d)" solid-color="#000000" isolation="auto" mix-blend-mode="normal"/><path d="m-425.03-26.529l40.922-7.902c.768-.148 1.411.629 1.411 1.411v69.43c0 .782-.644 1.559-1.411 1.411l-40.922-7.902c-.768-.148-1.411-.629-1.411-1.411v-53.622c0-.782.644-1.263 1.411-1.411" fill="url(#c)" solid-color="#000000" isolation="auto" mix-blend-mode="normal"/></g><path d="m-70.72-90.58c1.793-0.096 3.596-0.193 5.407-0.271v29c-1.947-0.079-3.875-0.184-5.804-0.289-3.587-6.695-7.471-13.24-10.94-20 0.198 6.477 0.081 12.96 0.099 19.44-1.64-0.105-3.262-0.201-4.893-0.298 0.027-8.892 0.018-17.79 0-26.68 1.856-0.096 3.704-0.193 5.569-0.289 3.524 6.266 7.101 12.51 10.53 18.83 0.072-6.477 0-12.96 0.036-19.44" fill="url(#b)"/></g></svg>
