<svg width="48" height="48" viewBox="0 0 13.55 13.55" xmlns="http://www.w3.org/2000/svg"><defs><linearGradient id="a" x1="-85.16" x2="-81.11" y1="16.13" y2="-11.61" gradientUnits="userSpaceOnUse"><stop stop-color="#fbcdc3" offset="0"/><stop stop-color="#f8feff" offset="1"/></linearGradient><linearGradient id="b" x2="0" y1="32.74" y2="-35" gradientUnits="userSpaceOnUse"><stop stop-color="#b8462b" offset="0"/><stop stop-color="#f26949" offset="1"/></linearGradient><linearGradient id="d" x2="0" y1="29.81" y2="-26.63" gradientUnits="userSpaceOnUse"><stop stop-color="#f7f7f7" offset="0"/><stop stop-color="#fcfdfc" offset="1"/></linearGradient><linearGradient id="c" x1="-188.7" x2="-189.7" y1="85.1" y2="-66.58" gradientUnits="userSpaceOnUse"><stop stop-color="#29292b" offset="0"/><stop stop-color="#3f3f3f" offset="1"/></linearGradient></defs><g transform="matrix(.1874 0 0 .1874 19.97 6.475)"><g color-rendering="auto" fill-rule="evenodd" image-rendering="auto" shape-rendering="auto"><rect x="-71.81" y="-26.02" width="35.28" height="55.83" rx="1.411" fill="url(#d)" solid-color="#000000" isolation="auto" mix-blend-mode="normal"/><path transform="scale(.2822)" d="m-189.3-64.81c6e-3 0 6e-3 29.15 0 29.15h29.18c0-16.11-13.06-29.15-29.18-29.15m-8.203 7.928c-16.11 0-29.16 13.06-29.16 29.18 0 16.13 13.05 29.18 29.16 29.18 16.12 0 29.18-13.05 29.18-29.18h-29.18v-29.18m32.8 59.95v45.7h9.984v-45.7h-9.984m-14.59 10.75v34.94h9.217v-34.94h-9.217m-16.51 9.6v25.34h9.6v-25.34h-9.6m-14.98 11.9v13.44h9.6v-13.44h-9.6m-7.104 23.04v8.449h61.82v-8.449h-61.82m0 16.9v8.449h61.82v-8.449h-61.82" fill="url(#c)" solid-color="#000000" isolation="auto" mix-blend-mode="normal"/></g><path transform="translate(322.17-.101)" d="m-425.03-26.529l40.922-7.902c.768-.148 1.411.629 1.411 1.411v69.43c0 .782-.644 1.559-1.411 1.411l-40.922-7.902c-.768-.148-1.411-.629-1.411-1.411v-53.622c0-.782.644-1.263 1.411-1.411" color-rendering="auto" fill="url(#b)" fill-rule="evenodd" image-rendering="auto" shape-rendering="auto" solid-color="#000000" isolation="auto" mix-blend-mode="normal"/><path d="m-84.68-12.214c-2.895.055-5.907.533-8.63.417-.12 9.504-.1 19.02-.009 28.52 1.986.142 3.982.294 5.968.445-.001-3.479-.0001-6.958.009-10.438 2.477.071 5.086.213 7.362-.819 6.409-2.785 7.553-11.345 3.23-15.999-2.257-1.811-5.03-2.18-7.93-2.126m-.334 5.156c1.317.031 2.586.292 3.419 1.321 1.143 1.744 1.083 4.04.13 5.838-1.143 1.833-3.732 1.655-5.728 1.869-.211-2.981-.19-5.963-.16-8.953.741-.03 1.548-.094 2.338-.075" fill="url(#a)"/></g></svg>
