<svg width="48" height="48" viewBox="0 0 13.55 13.55" xmlns="http://www.w3.org/2000/svg"><defs><linearGradient id="a" x2="0" y1="29.92" y2="-26.53" gradientUnits="userSpaceOnUse"><stop stop-color="#f7f7f7" offset="0"/><stop stop-color="#fcfdfc" offset="1"/></linearGradient><linearGradient id="b" x1="-340.8" x2="-320.7" y1="16.87" y2="-11.74" gradientUnits="userSpaceOnUse"><stop stop-color="#c2dafc" offset="0"/><stop stop-color="#f7fcff" offset="1"/></linearGradient><linearGradient id="d" x1="-1318" x2="-1321" y1="80.92" y2="-62.58" gradientUnits="userSpaceOnUse"><stop stop-color="#29292b" offset="0"/><stop stop-color="#3f3f3f" offset="1"/></linearGradient><linearGradient id="c" x2="0" y1="32.74" y2="-35" gradientUnits="userSpaceOnUse"><stop stop-color="#255192" offset="0"/><stop stop-color="#477ccc" offset="1"/></linearGradient></defs><g transform="matrix(.1874 0 0 .1874 66.06 6.456)" fill-rule="evenodd"><g transform="translate(76.2)" color-rendering="auto" image-rendering="auto" shape-rendering="auto"><rect x="-394" y="-25.92" width="35.28" height="55.83" rx="1.411" fill="url(#a)" solid-color="#000000" isolation="auto" mix-blend-mode="normal"/><path transform="scale(.2822)" d="m-1357-65.63v8.418h71.14v-8.418h-71.14m0 26.88v8.418h71.14v-8.418h-71.14m0 27.15v8.418h71.14v-8.418h-71.14m0 26.61v8.416h71.14v-8.416h-71.14m0 26.61v8.418h71.14v-8.418h-71.14m0 27.29v8.416h71.14v-8.416h-71.14" fill="url(#d)" solid-color="#000000" isolation="auto" mix-blend-mode="normal"/><path d="m-425.03-26.529l40.922-7.902c.768-.148 1.411.629 1.411 1.411v69.43c0 .782-.644 1.559-1.411 1.411l-40.922-7.902c-.768-.148-1.411-.629-1.411-1.411v-53.622c0-.782.644-1.263 1.411-1.411" fill="url(#c)" solid-color="#000000" isolation="auto" mix-blend-mode="normal"/></g><path d="m-344.5-11.51 4.828-0.153 2.682 19.69 3.602-20.31 5.288-0.153 3.448 20.69 3.219-21.07 5.288-0.383-5.901 30.65-5.441-0.383-3.525-20.38-3.448 19.85-5.441-0.383z" fill="url(#b)"/></g></svg>
