<svg viewBox="0 0 48 48" xmlns="http://www.w3.org/2000/svg" xmlns:xlink="http://www.w3.org/1999/xlink"><defs><linearGradient id="a" x1="23.3" x2="24.13" y1="47.87" y2=".989" gradientUnits="userSpaceOnUse"><stop stop-color="#fa183c" offset="0"/><stop stop-color="#fe590a" offset="1"/></linearGradient></defs><circle cx="24" cy="24" r="24" fill="url(#a)"/><g transform="matrix(1.714 0 0 1.714 -676.4 -873.1)" enable-background="new"><path d="m408.6 536.1c7.088 0 12.83-5.746 12.83-12.83 0-7.088-5.746-12.83-12.83-12.83v2.406c5.759 0 10.43 4.668 10.43 10.43s-4.668 10.43-10.43 10.43v2.406" fill-opacity=".392"/><path d="m395.7 523.3c0 7.088 5.746 12.83 12.83 12.83v-2.406c-5.759 0-10.43-4.668-10.43-10.43s4.668-10.43 10.43-10.43v-2.406c-7.088 0-12.83 5.746-12.83 12.83" fill="#fedfdf"/></g><path d="m33.02 22.869c-.127.113-.315.12-.45.016l-4.486-3.413-2.126 12.714c-.008.048-.025.092-.05.132-.426 1.822-2.752 3.182-5.488 3.182-3.066 0-5.561-1.697-5.561-3.78 0-2.087 2.494-3.78 5.561-3.78 1.259 0 2.456.281 3.429.798l2.811-15.943c.025-.145.139-.262.287-.289.142-.025.292.04.368.169l5.774 9.758c.087.149.058.334-.069.447" fill="#fff" fill-opacity=".846"/></svg>
