<svg viewBox="0 0 48 48" xmlns="http://www.w3.org/2000/svg"><defs><linearGradient id="b" x1="27.46" x2="26.44" y1="47.39" y2="1.017" gradientUnits="userSpaceOnUse"><stop stop-color="#2e3436" offset="0"/><stop stop-color="#555753" offset="1"/></linearGradient><linearGradient id="a" x1="-24.37" x2="-24.33" y1="28.99" y2="11.45" gradientUnits="userSpaceOnUse"><stop stop-color="#197ff1" offset="0"/><stop stop-color="#21c6fb" offset="1"/></linearGradient></defs><g transform="matrix(1.714 0 0 1.714 15.79 -1.488)" enable-background="new"><path transform="matrix(.5833 0 0 .5833-9.209.869)" d="m2.98-2e-3h42.04c1.652 0 2.982 1.33 2.982 2.982v42.04c0 1.652-1.33 2.982-2.982 2.982h-42.04c-1.652 0-2.982-1.33-2.982-2.982v-42.04c0-1.652 1.33-2.982 2.982-2.982" fill="url(#b)" fill-rule="evenodd"/><path transform="translate(30.15-5.395)" d="m-24.33 28.99q-3.687 0-6.183-2.497-2.497-2.497-2.497-6.23t2.497-6.23 6.183-2.497q3.78 0 6.137 2.73l-1.493 1.447q-1.703-2.123-4.643-2.123-2.73 0-4.62 1.843-1.867 1.843-1.867 4.83t1.867 4.83q1.89 1.843 4.62 1.843 3.01 0 5.133-2.427l1.493 1.493q-1.143 1.377-2.87 2.193-1.727 0.793-3.757 0.793z" fill="url(#a)" stroke="url(#a)" stroke-linecap="round" stroke-linejoin="round" stroke-width="1.167"/></g></svg>
