<svg viewBox="0 0 48 48" xmlns="http://www.w3.org/2000/svg"><defs><clipPath id="c"><path transform="matrix(15.33 0 0 11.5 415 -125.5)" d="m-24 13c0 1.105-0.672 2-1.5 2s-1.5-0.895-1.5-2 0.672-2 1.5-2 1.5 0.895 1.5 2" fill="#1890d0"/></clipPath><linearGradient id="a" x1="8.154" x2="8.368" y1="9.731" y2="5.346" gradientUnits="userSpaceOnUse"><stop stop-color="#ffbc00" offset="0"/><stop stop-color="#ffec00" offset="1"/></linearGradient><linearGradient id="b" x1="6" x2="5.986" y1="8.213" y2="3.524" gradientUnits="userSpaceOnUse"><stop stop-color="#4965b6" offset="0"/><stop stop-color="#8d9dcc" offset="1"/></linearGradient><linearGradient id="d" x1="-10.77" x2="-11.23" y1="4.675" y2="-22.85" gradientTransform="matrix(1.774 0 0 1.714 42.46 39.38)" gradientUnits="userSpaceOnUse"><stop stop-color="#2e3436" offset="0"/><stop stop-color="#555753" offset="1"/></linearGradient></defs><rect width="48" height="48" rx="3.085" fill="url(#d)"/><g transform="translate(-54.31-.204)"><g transform="matrix(1.333 0 0 1.333 46.31 -7.787)" clip-path="url(#c)"><path transform="scale(3.543)" d="m6.735 3.535c-.267 0-.519.022-.745.063-.659.116-.782.357-.782.803v.589h1.562v.196h-2.148c-.454 0-.852.27-.979.783-.14.591-.15.957 0 1.571.111.456.376.785.83.785h.461v-.785c0-.507.445-.958.978-.958h1.637c.431 0 .842-.355.842-.786v-1.396c0-.419-.421-.733-.842-.803-.269-.044-.548-.064-.817-.063" fill="url(#b)"/><path transform="scale(3.543)" d="m8.614 5.186v.686c0 .532-.456.916-.978.916h-1.712c-.43 0-.784.428-.784.849v1.473c0 .419.368.665.784.785.494.142 1.033.17 1.624 0 .39-.116.781-.342.781-.785v-.591h-1.56v-.194h2.342c.453 0 .624-.313.783-.785.163-.485.153-.947 0-1.571-.112-.444-.326-.783-.783-.783" fill="url(#a)"/></g></g></svg>
