<svg viewBox="0 0 48 48" xmlns="http://www.w3.org/2000/svg"><defs><clipPath id="a"><path transform="matrix(15.33 0 0 11.5 415 -125.5)" d="m-24 13c0 1.105-0.672 2-1.5 2s-1.5-0.895-1.5-2 0.672-2 1.5-2 1.5 0.895 1.5 2" fill="#1890d0"/></clipPath><linearGradient id="b" x1="-1093" x2="-1060" y1="203.1" y2="104.8" gradientTransform="matrix(.9983 0 0 .9851 -2.169 6.702)" gradientUnits="userSpaceOnUse"><stop stop-color="#e4e4e4" offset="0"/><stop stop-color="#eee" offset="1"/></linearGradient><linearGradient id="c" x1="-989.7" x2="-1004" y1="433.3" y2="317.4" gradientTransform="matrix(.9998 0 0 .9863 -.833 5.996)" gradientUnits="userSpaceOnUse"><stop stop-color="#1584d8" offset="0"/><stop stop-color="#1cb2ff" offset="1"/></linearGradient></defs><g transform="translate(-384.9-499.85)"><text x="300.29" y="516.22" font-family="sans-serif" font-size="5" letter-spacing="0" word-spacing="0" line-height="125%"><tspan x="300.29" y="516.22"/></text><g transform="matrix(1.074 -.1393 .1393 1.074 -153.2 32.48)"><g transform="matrix(.326 .04227 -.04227 .326 785 394)"><rect transform="matrix(.9491 -.3149 .3072 .9516 0 0)" x="-1101" y="117.6" width="89.62" height="112.9" rx="2.756" fill="url(#b)"/><rect transform="matrix(.9921-.12541.13781.99046 0 0)" x="-1046" y="318" width="99.8" height="121.2" rx="2.959" fill="url(#c)"/></g><g transform="matrix(.9194 -.0849 .0849 .9194 434.6 497.5)" clip-path="url(#a)" fill="#fff" fill-opacity=".831"><path d="m22.57 26.523c.082-.262-.086-.52-.375-.52h-4.91c-.289 0-.352-.238-.164-.449l10.484-13.414c.184-.211.254-.176.148.082l-2.305 9.371c-.102.254.047.41.336.41h4.922c.289 0 .379.23.203.449l-10.512 13.406c-.176.223-.254.184-.168-.082" fill="#fff" fill-opacity=".831" fill-rule="evenodd"/></g></g><flowRoot font-family="sans-serif" font-size="10" letter-spacing="0" word-spacing="0" line-height="125%"><flowRegion><path d="m-1370-469.3h135.6v166.6h-135.6z"/></flowRegion><flowPara/></flowRoot></g></svg>
