<svg viewBox="0 0 48 48" xmlns="http://www.w3.org/2000/svg"><defs><clipPath id="a"><path transform="matrix(15.33 0 0 11.5 415 -125.5)" d="m-24 13c0 1.105-0.672 2-1.5 2s-1.5-0.895-1.5-2 0.672-2 1.5-2 1.5 0.895 1.5 2" fill="#1890d0"/></clipPath><linearGradient id="b" x2="0" y1="556.2" y2="510.2" gradientUnits="userSpaceOnUse"><stop stop-color="#1584d8" offset="0"/><stop stop-color="#1cb2ff" offset="1"/></linearGradient></defs><g transform="translate(-486.8 -502.7)" stroke-width="1.317"><rect transform="matrix(.9951 0 0 .9951 192.4 -3.883)" x="297" y="510.2" width="46" height="46" rx="23" fill="url(#b)" stroke-width="2.164"/><g transform="matrix(1.333 0 0 1.333 478.8 494.7)" clip-path="url(#a)" enable-background="new" fill="#ddf1fd"><path d="m24 12c-6.629 0-12 5.371-12 12 0 6.629 5.371 12 12 12 6.629 0 12-5.371 12-12 0-6.629-5.371-12-12-12m.723 3.429c.02.006.024.057.008.151l-.132 6.596c-.03.185.092.268.285.224l3.285-.738c.193-.043.287.097.203.27l-5 10.518c-.084.175-.141.16-.124-.03l.174-6.524c.015-.187-.135-.333-.328-.29l-3.275.735c-.193.043-.271-.106-.177-.275l4.984-10.52c.046-.084.082-.123.102-.117z"/></g><g transform="translate(-10.93 23.06)" font-family="sans-serif" letter-spacing="0" word-spacing="0" line-height="125%"><text x="300.29" y="516.22" font-size="5"><tspan x="300.29" y="516.22"/></text><flowRoot font-size="10"><flowRegion><path d="m-1370-469.3h135.6v166.6h-135.6z"/></flowRegion><flowPara/></flowRoot></g></g></svg>
