<svg viewBox="0 0 48 48" xmlns="http://www.w3.org/2000/svg"><defs><linearGradient id="a" x2="0" y1="544.2" y2="543.1" gradientTransform="matrix(.8489 0 0 1.68 -339.5 -905.2)" gradientUnits="userSpaceOnUse"><stop stop-color="#1074f5" offset="0"/><stop stop-color="#02befd" offset="1"/></linearGradient><linearGradient id="b" x2="0" y1="9.877" y2="6.312" gradientUnits="userSpaceOnUse"><stop stop-color="#040404" offset="0"/><stop stop-color="#121212" stop-opacity=".908" offset="1"/></linearGradient><linearGradient id="d" x1="41.68" x2="41.88" y1="3" y2="-34.52" gradientUnits="userSpaceOnUse"><stop stop-color="#b6b9bf" offset="0"/><stop stop-color="#dddfe2" offset="1"/></linearGradient><linearGradient id="c" x1="10.09" x2="122.7" gradientTransform="matrix(.4173 0 0 .4103 14.73 -36.6)" gradientUnits="userSpaceOnUse"><stop stop-color="#1a1a1a" offset="0"/><stop stop-color="#2c2c2e" offset=".111"/><stop stop-color="#2b2b2d" offset=".29"/><stop stop-color="#2a2b2d" offset=".512"/><stop stop-color="#2b2b2d" offset=".752"/><stop stop-color="#323232" offset=".897"/><stop stop-color="#171717" offset="1"/></linearGradient></defs><g transform="matrix(1 0 0 1 -18.44 35.83)" enable-background="new"><path d="m18.941 3.549l.417 6.576c0 .682.558 1.231 1.252 1.231h43.656c.693 0 1.252-.549 1.252-1.231l.417-6.576h-46.994" fill="url(#c)"/><path d="m22.699-35h39.07c.693 0 1.252.549 1.252 1.231l2.921 37.12c0 .682-.558 1.231-1.252 1.231h-44.493c-.693 0-1.252-.549-1.252-1.231l2.503-37.12c0-.682.558-1.231 1.252-1.231" fill="url(#d)"/><rect x="32.89" y="7.625" width="19.26" height="1.291" rx=".646" fill="url(#a)"/><ellipse cx="60.12" cy="8.317" rx="1.783" ry="1.783" fill="url(#b)" opacity=".452"/><g fill="#e3e8ea"><path d="m60.12 8.363c.04 0 .075-.015.104-.044.029-.029.044-.064.044-.104v-.743c0-.04-.015-.075-.044-.104-.029-.029-.064-.044-.104-.044-.04 0-.075.015-.104.044-.029.029-.044.064-.044.104v.743c0 .04.015.075.044.104.029.029.064.044.104.044" opacity=".668"/><path d="m60.918 7.965c-.062-.125-.15-.229-.263-.313-.032-.025-.069-.034-.11-.029-.041.005-.074.025-.097.058-.025.032-.034.069-.028.11.006.041.025.073.057.098.076.057.134.127.176.21.041.083.062.171.062.265 0 .08-.016.157-.047.23-.031.073-.074.136-.127.19-.053.053-.117.096-.19.127-.073.031-.15.047-.23.047-.08 0-.157-.016-.23-.047-.073-.031-.136-.074-.19-.127-.053-.053-.096-.117-.127-.19-.031-.073-.047-.15-.047-.23 0-.094.021-.182.062-.265.041-.083.1-.153.176-.21.032-.025.052-.057.057-.098.006-.041-.004-.077-.028-.11-.024-.033-.056-.053-.097-.058-.041-.005-.078.004-.111.029-.113.084-.201.189-.263.313-.062.125-.093.257-.093.398 0 .121.024.236.071.346.047.11.111.205.19.284.08.08.174.143.284.19.11.047.225.071.346.071.121 0 .236-.024.346-.071.11-.047.205-.111.284-.19.08-.08.143-.174.19-.284.047-.11.071-.225.071-.346 0-.141-.031-.273-.093-.398" opacity=".668"/></g><g transform="matrix(.8103 .586 -.8117 .5841 0 0)" fill="#a1a7ae" stroke="#909296" stroke-linecap="round" stroke-linejoin="round" stroke-width=".156"><rect x="2.536" y="-49.67" width="8.702" height="8.751" rx=".772"/><rect x="12.98" y="-49.67" width="8.702" height="8.751" rx=".772"/><rect x="12.98" y="-39.17" width="8.702" height="8.751" rx=".772"/><rect x="2.576" y="-39.27" width="8.702" height="8.751" rx=".772"/></g></g></svg>
