<svg viewBox="0 0 48 48" xmlns="http://www.w3.org/2000/svg" xmlns:xlink="http://www.w3.org/1999/xlink"><defs><linearGradient id="a" x2="0" y1="515.2" y2="545.8" gradientUnits="userSpaceOnUse"><stop stop-color="#00cafe" offset="0"/><stop stop-color="#1460f3" offset="1"/></linearGradient></defs><g transform="matrix(1.043 0 0 1.043 -402.3 -522.6)" stroke-width="1.317"><circle transform="matrix(1.57 0 0 1.57 -220.3 -311.1)" cx="400.6" cy="531.8" r="14" fill="url(#a)" stroke="url(#a)" stroke-width="1.3"/><path transform="matrix(1.676 0 0 1.685 -253.4 -392.8)" d="m391.84 540.91c-.421-.329-.949-.524-1.523-.524-1.351 0-2.451 1.084-2.485 2.435-1.395.526-2.388 1.88-2.388 3.466 0 1.874 1.385 3.423 3.182 3.667v.034h12.73v-.006c1.775-.104 3.182-1.584 3.182-3.395 0-1.747-1.309-3.186-2.994-3.379.007-.106.011-.214.011-.322 0-2.707-2.271-4.901-5.072-4.901-2.073 0-3.856 1.202-4.643 2.925" fill="#fff" fill-opacity=".847"/><path transform="matrix(.1625 0 0 .1959 416.5 420.4)" d="m-23.99 538-42.14 24.33v-48.66z" fill="#0c8af7" fill-rule="evenodd" stroke="#0c8bf7" stroke-linecap="round" stroke-linejoin="round" stroke-width="4.792"/></g></svg>
