<svg viewBox="0 0 48 48" xmlns="http://www.w3.org/2000/svg"><defs><linearGradient id="b" x2="0" y1="546.8" y2="507.9" gradientTransform="matrix(-.5534 0 0 .6025 156.8 -274.9)" gradientUnits="userSpaceOnUse"><stop stop-color="#d3d3d3" offset="0"/><stop stop-color="#fcf9f9" offset="1"/></linearGradient><linearGradient id="a" x1="-61.22" x2="-61.43" y1="55.24" y2="8.868" gradientUnits="userSpaceOnUse"><stop stop-color="#00a661" offset="0"/><stop stop-color="#37ce97" offset="1"/></linearGradient></defs><g transform="translate(85.42-8.339)"><path d="m-44.5 16.375c-4.526-3.683-10.535-5.711-16.921-5.711-6.386 0-12.395 2.028-16.921 5.711-4.565 3.715-7.079 8.666-7.079 13.943 0 5.04 2.291 9.775 6.469 13.426-.075.17-.135.348-.173.535l-1.373 6.752c-.163.802.057 1.281.269 1.541.246.3.61.466 1.025.466.314 0 .651-.093 1-.276l7.985-4.148c2.764.89 5.736 1.357 8.791 1.357 6.386 0 12.395-2.028 16.921-5.711 4.565-3.715 7.079-8.666 7.079-13.943 0-5.276-2.514-10.227-7.079-13.943" fill="url(#a)"/><path d="m-58.21 34.05c2.263-2.01 5.268-3.11 8.461-3.11 3.193 0 6.197 1.104 8.461 3.11 2.283 2.022 3.54 4.718 3.54 7.59 0 2.742-1.146 5.321-3.235 7.309.038.093.067.189.087.291l.686 3.676c.082.437-.028.698-.135.839-.123.164-.305.253-.513.253-.157 0-.326-.051-.501-.15l-3.992-2.258c-1.382.484-2.868.739-4.397.739-3.193 0-6.197-1.104-8.461-3.11-2.283-2.022-3.54-4.718-3.54-7.59 0-2.872 1.257-5.568 3.54-7.59" fill="url(#b)"/><g fill="#11b271"><circle cx="-54.74" cy="41.62" r="2.18"/><circle cx="-49.78" cy="41.62" r="2.18"/><circle cx="-44.56" cy="41.62" r="2.18"/></g></g></svg>
