<svg viewBox="0 0 48 48" xmlns="http://www.w3.org/2000/svg"><defs><linearGradient id="a" x1="-10.77" x2="-11.23" y1="4.675" y2="-22.85" gradientTransform="matrix(1.774 0 0 1.714 42.46 39.38)" gradientUnits="userSpaceOnUse"><stop stop-color="#155bc2" offset="0"/><stop stop-color="#369dff" offset="1"/></linearGradient></defs><g enable-background="new"><rect width="48" height="48" rx="3.085" fill="url(#a)" stroke-width="1.714"/></g><path d="m25.747 12.919c-1.217-.002-2.234.233-3.213.744-.907.474-2.02 1.405-2.564 2.153-.927 1.265-.878 1.224-1.317 1.042-1.382-.575-2.981-.676-4.251-.267-2.353.756-4.04 3.112-4.138 5.784-.018.43-.066.843-.111.92-.045.073-.333.204-.638.284-1.446.379-2.598 1.343-3.199 2.678-.285.634-.317.84-.317 2.116 0 1.341.021 1.452.379 2.21.632 1.337 1.979 2.508 3.25 2.822.46.113 3.788.148 3.892.041.042-.043-.028-.287-.157-.546-.337-.688-.581-1.892-.581-2.873-.0001-2.698 1.56-4.806 4.235-5.719.864-.295 1.066-.424 1.066-.684 0-.367.638-1.841 1.139-2.632.702-1.11 1.631-1.963 2.788-2.557 2.895-1.485 6.302-1.014 8.389 1.158l.741.768.811-.219c.446-.12.957-.223 1.136-.227.408-.006.425-.311.078-1.391-1.084-3.38-4.02-5.595-7.418-5.603zm-.236 6.082c-1.442-.006-2.045.131-3.237.752-1.139.594-2.207 2.046-2.783 3.788-.127.383-.23.815-.23.96 0 .463-.267.663-1.139.849-1.751.374-3.083 1.391-3.586 2.738-.205.55-.264.96-.263 1.815.003 2.674 1.218 4.477 3.397 5.04.453.117 3.074.147 11.317.13l10.728-.02.481-.271c1.027-.572 1.675-1.723 1.782-3.165.163-2.206-.736-3.706-2.653-4.421l-.673-.251-.071-.955c-.274-3.492-3.672-5.581-7.08-4.353l-.706.254-.784-.86c-1.429-1.562-2.452-2.023-4.5-2.035" fill="#dfebfa"/></svg>
