<svg viewBox="0 0 48 48" xmlns="http://www.w3.org/2000/svg"><defs><linearGradient id="b" x2="0" y1="1046" y2="1007" gradientUnits="userSpaceOnUse"><stop stop-color="#d3d3d3" offset="0"/><stop stop-color="#fcf9f9" offset="1"/></linearGradient><linearGradient id="a" x1="56.58" x2="56.82" y1="81.49" y2="36.61" gradientUnits="userSpaceOnUse"><stop stop-color="#00a661" offset="0"/><stop stop-color="#37ce97" offset="1"/></linearGradient></defs><g transform="matrix(1.2 0 0 1.2 3.138 -1208)" stroke-width="1.317"><circle cx="17.39" cy="1027" r="20" fill="url(#b)"/><path transform="matrix(.8856 0 0 .8856 -33.13 974.7)" d="m57.04 40.05c-2.052 0-4.03 0.33-5.881 0.937v17.88c0 3.248 2.633 5.881 5.881 5.881s5.881-2.633 5.881-5.881-2.633-5.881-5.881-5.881v-5.881c6.496 0 11.76 5.266 11.76 11.76s-5.266 11.76-11.76 11.76-11.76-5.266-11.76-11.76v-14.68c-4.299 3.449-7.06 8.743-7.06 14.68 0 10.39 8.425 18.82 18.82 18.82 10.39 0 18.82-8.425 18.82-18.82 0-10.39-8.425-18.82-18.82-18.82" fill="url(#a)" stroke-linecap="round" stroke-linejoin="round" stroke-width=".941"/></g></svg>
