<svg viewBox="0 0 48 48" xmlns="http://www.w3.org/2000/svg" xmlns:xlink="http://www.w3.org/1999/xlink"><defs><linearGradient id="b" x1="61.57" x2="60.75" y1="22.94" y2="-27.71" gradientUnits="userSpaceOnUse"><stop stop-color="#197cf1" offset="0"/><stop stop-color="#21c9fb" offset="1"/></linearGradient><linearGradient id="a" x1="239.6" x2="242.1" y1="539.6" y2="-17.63" gradientUnits="userSpaceOnUse" xlink:href="#b"/></defs><path transform="matrix(1 0 0 1 -38.38 25.88)" d="m41.36-25.88h42.04c1.652 0 2.982 1.33 2.982 2.982v42.04c0 1.652-1.33 2.982-2.982 2.982h-42.04c-1.652 0-2.982-1.33-2.982-2.982v-42.04c0-1.652 1.33-2.982 2.982-2.982" fill="url(#b)" fill-rule="evenodd"/><g transform="matrix(.08492 0 0 .08492 3.683 1.813)" fill="#daeffe" stroke="#daeffe" stroke-linecap="round" stroke-linejoin="round" stroke-width="7.467"><path d="m441.5 122-28.58 16.5c-35.92-58.29-100.3-97.24-173.7-97.24s-137.8 38.94-173.7 97.24l-28.58-16.5c-2.63-1.519-5.994-0.618-7.513 2.01-1.519 2.63-0.618 5.994 2.01 7.513l28.55 16.48c-15.72 28.89-24.66 61.98-24.66 97.12 0 110.6 88.48 200.9 198.4 203.8v26.84c0 3.038 2.462 5.5 5.5 5.5s5.5-2.462 5.5-5.5v-26.84c109.9-2.92 198.4-93.22 198.4-203.8 0-35.14-8.936-68.23-24.66-97.12l28.55-16.49c2.631-1.519 3.532-4.883 2.01-7.513-1.519-2.63-4.879-3.534-7.512-2.01z"/><path d="m366.1 168.7-124.1-71.66c-1.702-0.982-3.798-0.982-5.5 0l-124.1 71.65c-1.702 0.982-2.75 2.798-2.75 4.764l0.012 146.2c0 1.964 1.048 3.779 2.749 4.762l124.1 71.71c0.851 0.492 1.801 0.738 2.751 0.738 0.949 0 1.899-0.246 2.75-0.737l124.1-71.66c1.702-0.982 2.75-2.798 2.75-4.763v-146.3c0-1.965-1.048-3.781-2.75-4.763zm-126.9-60.54 113.1 65.31-113.1 65.31-113.1-65.31 113.1-65.3m-118.6 74.83 113.1 65.31-1e-3 133.6-113.1-65.35-0.011-133.5m237.2 133.6-113.1 65.31 1e-3 -133.6 113.1-65.31v133.6z" fill="url(#a)" stroke="url(#a)"/></g></svg>
