<svg viewBox="0 0 48 48" xmlns="http://www.w3.org/2000/svg" xmlns:xlink="http://www.w3.org/1999/xlink"><defs><linearGradient id="c" x2="0" y1="32.74" y2="-35" gradientUnits="userSpaceOnUse"><stop stop-color="#0661b2" offset="0"/><stop stop-color="#2089da" offset="1"/></linearGradient><linearGradient id="b" x1="-284.7" x2="-274.6" y1="14.4" y2="-10.74" gradientUnits="userSpaceOnUse"><stop stop-color="#c6e7fc" offset="0"/><stop stop-color="#f4fbfe" offset="1"/></linearGradient><linearGradient id="d" x1="-292.9" x2="-292.6" y1="1227" y2="1182" gradientTransform="matrix(1.031 0 0 1 150.5 -.226)" gradientUnits="userSpaceOnUse" xlink:href="#a"/><linearGradient id="e" x1="-292.7" x2="-293.5" y1="1171" y2="1135" gradientTransform="matrix(.9647 0 0 .9967 130.8 2.455)" gradientUnits="userSpaceOnUse" xlink:href="#a"/><linearGradient id="f" x1="-155" x2="-157.6" y1="1226" y2="1136" gradientUnits="userSpaceOnUse"><stop stop-color="#29292b" offset="0"/><stop stop-color="#3f3f3f" offset="1"/></linearGradient><linearGradient id="a"><stop stop-color="#f7f7f7" offset="0"/><stop stop-color="#fcfdfc" offset="1"/></linearGradient></defs><g transform="matrix(.664 0 0 .664 199.7 22.65)"><g transform="translate(-195.55.436)"><g transform="matrix(.3352 0 0 .3963 -4.948 -465.5)" stroke-width="1.317"><path d="m-221.5 1132h135.3v94.65h-135.3z" fill="url(#f)"/><g fill-rule="evenodd"><path d="m-217.6 1132 64.21 40.49 62.96-40.49z" fill="url(#e)"/><path d="m-207.2 1227v-69.83l53.78 31.49 67.31-43.06v76.44s-2e-3 5.01-5.507 4.957h-9.04z" fill="url(#d)"/></g></g><path transform="translate(322.17-.101)" d="m-425.03-26.529l40.922-7.902c.768-.148 1.411.629 1.411 1.411v69.43c0 .782-.644 1.559-1.411 1.411l-40.922-7.902c-.768-.148-1.411-.629-1.411-1.411v-53.622c0-.782.644-1.263 1.411-1.411" color-rendering="auto" fill="url(#c)" fill-rule="evenodd" image-rendering="auto" shape-rendering="auto" solid-color="#000000" isolation="auto" mix-blend-mode="normal"/></g><path d="m-279.12-12.13c-1.245-.057-2.507.126-3.719.584-8.252 2.948-9.748 14.02-6.671 21.21 2.338 6.24 10.942 8.742 16.07 4.35 5.57-4.874 5.965-13.693 3.163-20.14-1.541-3.513-5.112-5.837-8.846-6.01m-1.1 5.328c1.82-.043 3.632 1 4.437 2.699 1.719 3.404 1.71 7.556.584 11.148-.799 2.553-3.593 4.659-6.3 3.653-3.378-1.066-4.4-5.071-4.435-8.209-.043-3.249.704-7.298 3.927-8.871.572-.273 1.18-.407 1.786-.422" fill="url(#b)"/></g></svg>
