<svg viewBox="0 0 48 48" xmlns="http://www.w3.org/2000/svg"><defs><linearGradient id="a" x1="24.05" x2="23.99" y1="48.44" y2="-.311" gradientUnits="userSpaceOnUse"><stop stop-color="#c52828" offset="0"/><stop stop-color="#ff5454" offset="1"/></linearGradient></defs><path d="m24 0c-13.26 0-24 10.74-24 24s10.74 24 24 24 24-10.74 24-24-10.74-24-24-24" fill="url(#a)"/><path transform="matrix(.08993 0 0 .08993 9.881 9.881)" d="m310 242.6-44.27-39.62c-3.384-3.03-8.188-3.889-12.41-2.221l-3.699 1.461c1.719-8.662 2.636-17.7 2.636-27 0-17.79-3.337-34.64-9.291-49.69l12.28-4.844 38.76 34.68c2.29 2.049 5.151 3.059 8 3.059 3.297 0 6.578-1.35 8.949-4 4.421-4.939 4-12.53-0.94-16.95l-44.27-39.62c-3.384-3.03-8.186-3.889-12.41-2.221l-21.38 8.439c-9.646-14.85-22.25-26.75-36.72-34.43l8.195-18.98 33.8 12.07c6.243 2.23 13.11-1.023 15.34-7.269 2.23-6.242-1.024-13.11-7.268-15.34l-44.4-15.85c-5.959-2.129-12.55 0.736-15.06 6.545l-13.26 30.71c-5.065-1.01-10.26-1.539-15.56-1.539s-10.5 0.531-15.56 1.539l-13.26-30.71c-2.508-5.811-9.1-8.674-15.06-6.545l-44.39 15.85c-6.243 2.229-9.497 9.1-7.268 15.34s9.1 9.498 15.34 7.268l33.79-12.07 8.196 18.98c-14.48 7.678-27.08 19.58-36.72 34.42l-21.38-8.438c-4.223-1.666-9.03-0.809-12.41 2.221l-44.28 39.62c-4.941 4.42-5.363 12.01-0.941 16.95 2.371 2.65 5.653 4 8.949 4 2.85 0 5.71-1.01 8-3.059l38.76-34.68 12.27 4.844c-5.955 15.05-9.292 31.9-9.292 49.69 0 9.299 0.917 18.34 2.636 27l-3.694-1.459c-4.225-1.666-9.03-0.807-12.41 2.221l-44.28 39.62c-4.94 4.42-5.363 12.01-0.942 16.95 2.371 2.65 5.653 4 8.95 4 2.85 0 5.71-1.01 8-3.057l38.76-34.68 15.26 6.02c16.35 35 47.39 58.63 82.98 58.63 35.6 0 66.63-23.63 82.98-58.63l15.26-6.02 38.76 34.68c2.291 2.051 5.15 3.059 8 3.059 3.297 0 6.579-1.35 8.949-4 4.421-4.94 3.999-12.53-0.942-16.95m-190.8-104.4c0-8.586 6.967-15.55 15.56-15.55 8.593 0 15.56 6.967 15.56 15.55 0 8.588-6.966 15.55-15.56 15.55-8.596 0-15.56-6.963-15.56-15.55m31.12 93.58c-8.595 0-15.56-6.973-15.56-15.56s6.964-15.55 15.56-15.55c8.585 0 15.55 6.963 15.55 15.55s-6.967 15.56-15.55 15.56m30.62-58.23c0-9.606 7.802-17.4 17.41-17.4 9.614 0 17.4 7.791 17.4 17.4 0 9.621-7.791 17.41-17.4 17.41-9.612 0-17.41-7.789-17.41-17.41" fill="#fff" fill-opacity=".852"/></svg>
