<svg viewBox="0 0 48 48" xmlns="http://www.w3.org/2000/svg" xmlns:xlink="http://www.w3.org/1999/xlink"><defs><linearGradient id="b" x1="90.72" x2="155.1" y1="1035" y2="818.4" gradientUnits="userSpaceOnUse" xlink:href="#a"/><linearGradient id="c" x2="0" y1="543.8" y2="507.8" gradientUnits="userSpaceOnUse" xlink:href="#a"/><linearGradient id="a"><stop stop-color="#197ff1" offset="0"/><stop stop-color="#21c6fb" offset="1"/></linearGradient><linearGradient id="d" x2="0" y1="542" y2="507" gradientUnits="userSpaceOnUse"><stop stop-color="#1d1e1e" offset="0"/><stop stop-color="#44484c" offset="1"/></linearGradient></defs><g transform="matrix(1.157 0 0 1.157 -444.7 -582.8)"><circle cx="405.3" cy="524.8" r="20" fill="url(#d)" stroke="url(#c)" stroke-linecap="round" stroke-linejoin="round" stroke-width="1.5"/><g transform="matrix(.06433 0 0 .06433 313.1 442)" fill="url(#b)" fill-rule="evenodd"><path d="m1443 1197-0.242 234.3-59.46-20.42-0.418-274.2 75.9 21.19c48.58 13.79 78.31 40.58 77.83 87.55-0.483 54.62-25.86 75.82-68.85 55.84v-101.3c0-14.94-24.75-25.85-24.75-2.995"/><path d="m1371 1303-8.941 2.881-86.55 31.04c-18.22 8.355-33.44 13.76-33.53 27.37 0.457 17.23 27.46 25.61 67 32.22 21.07 4.223 42.6 1.392 61.03-2.512l0.015-32.46s-34.17 13.28-42.29 14.38l-16.44-0.09c-12.2-0.067-17.89-7.884-5.73-12.08l65.44-24.76 0.011-35.99"/><path d="m1524 1318c-22.72-0.075-54.19 6.117-69.79 13.37v37l41.13-15.04 32.58-10.36c33.93-5.587 47.42 6.262 14.37 16.16l-88.08 32.23-0.107 35.88 128.7-46.3c14.2-4.953 34.18-14.95 34.22-27.24-3.447-19.03-32.07-30.13-76.52-34.84-3.987-0.411-7.993-0.669-11.97-0.788-1.516-0.044-3.02-0.083-4.537-0.088z"/></g></g></svg>
