<svg viewBox="0 0 48 48" xmlns="http://www.w3.org/2000/svg"><defs><linearGradient id="a" x1="25.6" x2="24.13" y1="47.73" y2=".701" gradientUnits="userSpaceOnUse"><stop stop-color="#00a661" offset="0"/><stop stop-color="#37ce97" offset="1"/></linearGradient></defs><path d="m2.98-2e-3h42.04c1.652 0 2.982 1.33 2.982 2.982v42.04c0 1.652-1.33 2.982-2.982 2.982h-42.04c-1.652 0-2.982-1.33-2.982-2.982v-42.04c0-1.652 1.33-2.982 2.982-2.982" fill="url(#a)" fill-rule="evenodd"/><g transform="matrix(1.244 0 0 1.244 -57.41 9.167)" fill="#e6ffff"><path transform="matrix(.4762 0 0 .4762 1.143 1.143)" d="m135-4.37-13.91 15.56 6.971 1.8-13.66 13.08 7.183 1.8-13.55 12.42 22.54 4.7v4.64h8.917v-4.62l22.54-4.72-13.55-12.42 7.183-1.8-13.66-13.08 6.971-1.8-13.91-15.56h-0.071" fill="#dcf4eb"/></g></svg>
