<svg viewBox="0 0 48 48" xmlns="http://www.w3.org/2000/svg"><defs><linearGradient id="b" x1="319.7" x2="319.6" y1="602.4" y2="592.3" gradientUnits="userSpaceOnUse"><stop stop-color="#eb4646" offset="0"/><stop stop-color="#ff8651" offset="1"/></linearGradient><linearGradient id="a" x1="319.6" x2="318.7" y1="591.8" y2="578.4" gradientUnits="userSpaceOnUse"><stop stop-color="#4fd127" offset="0"/><stop stop-color="#c6f61a" offset="1"/></linearGradient><linearGradient id="c" x1="133.2" x2="136" y1="333.4" y2="210.2" gradientTransform="matrix(.2233 0 0 .223 276.6 532.3)" gradientUnits="userSpaceOnUse"><stop stop-color="#197cf1" offset="0"/><stop stop-color="#20bcfa" offset="1"/></linearGradient><linearGradient id="e" x1="-10.77" x2="-11.23" y1="4.675" y2="-22.85" gradientTransform="matrix(1.774 0 0 1.714 -5.989 28.57)" gradientUnits="userSpaceOnUse"><stop stop-color="#e1e1e1" offset="0"/><stop stop-color="#f4f4ff" offset="1"/></linearGradient><linearGradient id="d" x1="226.9" x2="226.2" y1="284.5" y2="249.6" gradientTransform="matrix(.2233 0 0 .223 276.4 532.3)" gradientUnits="userSpaceOnUse"><stop stop-color="#ffbc00" offset="0"/><stop stop-color="#ffec00" offset="1"/></linearGradient></defs><g transform="translate(48.45 10.8)"><rect x="-48.45" y="-10.8" width="48" height="48" rx="3.085" fill="url(#e)"/><g transform="matrix(1.111 0 0 1.111 -377.5 -645.5)"><path d="m324.14 597.23c3.413-1.866 6.02-3.291 6.257-3.42.707-.387 1.448-1.373 0-2.162-.466-.254-3-1.635-6.261-3.411l-4.482 4.511 4.486 4.483" fill="url(#d)"/><path d="m319.66 592.75l-14.336 14.426c.324.041.713-.045 1.161-.289.927-.507 10.886-5.95 17.662-9.655l-4.487-4.482" fill="url(#b)"/><path d="m319.7 592.8 4.482-4.511s-16.66-9.08-17.66-9.621c-0.383-0.209-0.801-0.282-1.171-0.2l14.35 14.33" fill="url(#a)"/><path d="m319.8 592.8-14.35-14.33c-0.593 0.132-1.078 0.644-1.078 1.674v25.36c0 0.97 0.382 1.651 1.088 1.719l14.34-14.43" fill="url(#c)"/></g></g></svg>
