<svg version="1.1" viewBox="0 0 48 48" xmlns="http://www.w3.org/2000/svg" xmlns:xlink="http://www.w3.org/1999/xlink"><defs><linearGradient id="a"><stop stop-color="#141414" offset="0"/><stop stop-color="#2d2d2f" offset="1"/></linearGradient><linearGradient id="f" x1="408.3" x2="408.2" y1="527.3" y2="519.7" gradientTransform="matrix(.9231 0 0 .9231 -295.7 -458.9)" gradientUnits="userSpaceOnUse" xlink:href="#b"/><linearGradient id="b" x1="408.8" x2="408.9" y1="527.7" y2="509.3" gradientTransform="matrix(.9231 0 0 .9231 -295.7 -458.9)" gradientUnits="userSpaceOnUse"><stop stop-color="#cdced2" offset="0"/><stop stop-color="#f1f1f1" offset="1"/></linearGradient><linearGradient id="g" x2="0" y1="539.8" y2="506.1" gradientTransform="matrix(1.079 0 0 1.079 -359.1 -540.7)" gradientUnits="userSpaceOnUse" xlink:href="#b"/><linearGradient id="h" x1="410.5" x2="0" y1="-505.7" y2="-543.7" gradientTransform="translate(-327.1 499.2)" gradientUnits="userSpaceOnUse"><stop stop-color="#c0c1c4" offset="0"/><stop stop-color="#eaeaea" offset="1"/></linearGradient><linearGradient id="e" x1="81.64" x2="81.17" y1="45.61" y2="3.762" gradientUnits="userSpaceOnUse" xlink:href="#a"/><linearGradient id="d" x1="81.55" x2="80.96" y1="44.46" y2="5.777" gradientUnits="userSpaceOnUse" xlink:href="#a"/><linearGradient id="c" x1="408.2" x2="408.3" y1="519.4" y2="528.6" gradientTransform="matrix(.9231 0 0 .9231 -295.7 -458.9)" gradientUnits="userSpaceOnUse" xlink:href="#a"/></defs><g transform="translate(-57.48 -.6154)"><rect x="57.48" y="3.665" width="48" height="41.9" rx="2.898" fill="url(#e)" stroke-width="1.079"/><circle transform="scale(1,-1)" cx="81.47" cy="-24.62" r="16.72" fill="url(#h)"/><circle cx="81.47" cy="24.61" r="16" fill="url(#g)"/><path d="m93.4 23.28c-0.03785-0.3369-0.4311-0.5908-0.7717-0.5908-1.099 0-2.076-0.6462-2.485-1.644-0.4182-1.023-0.1486-2.215 0.6711-2.968 0.2575-0.2363 0.2889-0.6305 0.07292-0.9046-0.5631-0.7145-1.203-1.361-1.902-1.92-0.2732-0.2197-0.6748-0.1892-0.912 0.07385-0.7154 0.792-2 1.086-2.993 0.672-1.033-0.4348-1.685-1.482-1.621-2.606 0.02123-0.3526-0.2372-0.66-0.5889-0.7006-0.8963-0.1034-1.801-0.1071-2.7-0.0083-0.348 0.03877-0.6055 0.3378-0.5945 0.6868 0.03877 1.113-0.6203 2.142-1.643 2.561-0.9812 0.4006-2.257 0.1089-2.97-0.6766-0.2363-0.2585-0.6305-0.2908-0.9055-0.07569-0.7191 0.564-1.374 1.21-1.941 1.919-0.2215 0.276-0.1892 0.6748 0.072 0.912 0.8354 0.756 1.105 1.96 0.6711 2.994-0.4145 0.9868-1.438 1.622-2.611 1.622-0.3803-0.012-0.6517 0.2428-0.6932 0.5889-0.1052 0.9018-0.1071 1.82-0.0046 2.73 0.03785 0.3388 0.4431 0.5898 0.7865 0.5898 1.045-0.02677 2.048 0.6203 2.469 1.644 0.4191 1.023 0.1495 2.215-0.6711 2.968-0.2566 0.2354-0.2889 0.6305-0.07292 0.9046 0.5575 0.7098 1.197 1.356 1.899 1.921 0.2751 0.2215 0.6748 0.1902 0.9129-0.072 0.7182-0.7938 2.003-1.088 2.992-0.6729 1.036 0.4329 1.687 1.48 1.624 2.605-0.02031 0.3535 0.2382 0.6609 0.5889 0.7006 0.4588 0.05354 0.9203 0.08031 1.383 0.08031 0.4394 0 0.8778-0.024 1.317-0.07292 0.348-0.03877 0.6055-0.3378 0.5945-0.6877-0.04062-1.112 0.6203-2.141 1.642-2.559 0.9877-0.4034 2.258-0.108 2.972 0.6766 0.2372 0.2585 0.6295 0.2889 0.9055 0.07569 0.7182-0.5631 1.371-1.208 1.941-1.919 0.2215-0.2751 0.1902-0.6748-0.072-0.912-0.8354-0.756-1.106-1.96-0.672-2.994 0.408-0.9729 1.394-1.626 2.455-1.626l0.1486 0.0028c0.3443 0.02769 0.6609-0.2372 0.7025-0.588 0.1062-0.9028 0.1071-1.82 0.0046-2.73zm-11.91 5.36c-2.207 0-4.002-1.795-4.002-4.002s1.795-4.002 4.002-4.002 4.002 1.795 4.002 4.002-1.795 4.002-4.002 4.002" fill="url(#d)" stroke-width="1.317"/><circle cx="81.47" cy="24.61" r="4.615" fill="url(#c)"/><circle cx="81.47" cy="24.61" r="3.231" fill="url(#f)"/></g></svg>
