<svg version="1.1" viewBox="0 0 48 48" xmlns="http://www.w3.org/2000/svg" xmlns:xlink="http://www.w3.org/1999/xlink"><defs><path id="a" d="m22 3h27v15h-27z"/><linearGradient id="c" x2="0" y1="547.4" y2="514" gradientUnits="userSpaceOnUse"><stop stop-color="#197cf1" offset="0"/><stop stop-color="#20bcfa" offset="1"/></linearGradient><linearGradient id="b" x2="0" y1="547.4" y2="514" gradientUnits="userSpaceOnUse" xlink:href="#c"/></defs><g transform="translate(-397.8 -464.7)"><flowRoot transform="translate(389.6 520.8)" font-family="sans-serif" font-size="10px" letter-spacing="0" word-spacing="0" style="line-height:125%" line-height="125%"><flowRegion><use width="100%" height="100%" xlink:href="#a"/></flowRegion><flowPara>Plasm</flowPara></flowRoot><g transform="matrix(1.576 0 0 1.576 -223 -314.4)"><g transform="matrix(.6576 0 0 .6576 163.4 180.5)"><g transform="translate(16.01 -30.42)" fill="url(#b)"><rect x="334.2" y="513.1" width="46.3" height="34.94" rx="1.644"/><flowRoot transform="matrix(1.521 0 0 1.521 386.5 514.7)" font-family="sans-serif" font-size="10px" letter-spacing="0" word-spacing="0" style="line-height:125%" line-height="125%"><flowRegion><use width="100%" height="100%" fill="url(#b)" xlink:href="#a"/></flowRegion><flowPara>Plasm</flowPara></flowRoot></g></g><flowRoot transform="translate(352.7 519.8)" font-family="sans-serif" font-size="10px" letter-spacing="0" word-spacing="0" style="line-height:125%" line-height="125%"><flowRegion><use width="100%" height="100%" xlink:href="#a"/></flowRegion><flowPara>Plasm</flowPara></flowRoot></g></g><g transform="translate(-384.6 -499.8)"><flowRoot transform="translate(389.6 520.8)" font-family="sans-serif" font-size="10px" letter-spacing="0" word-spacing="0" style="line-height:125%" line-height="125%"><flowRegion><path d="m22 3h27v15h-27z"/></flowRegion><flowPara>Plasm</flowPara></flowRoot><g transform="matrix(1.037 0 0 1.037 38.2 -26.36)"><g transform="matrix(1.521 0 0 1.521 -204.4 -290.4)" fill="#fff" fill-opacity=".852"><flowRoot transform="translate(389.6 520.8)" font-family="sans-serif" font-size="10px" letter-spacing="0" word-spacing="0" style="line-height:125%" line-height="125%"><flowRegion><path d="m22 3h27v15h-27z" fill="#fff" fill-opacity=".852"/></flowRegion><flowPara>Plasm</flowPara></flowRoot><path transform="matrix(.8157 0 0 .8157 360.4 -308.7)" d="m16.66 1039v-2.317c0-3.144-2.558-5.703-5.703-5.703s-5.703 2.559-5.703 5.703v2.317c-0.449 0.094-0.788 0.494-0.788 0.971v8.682c0 0.547 0.445 0.992 0.992 0.992h11c0.547 0 0.992-0.445 0.992-0.992v-8.682c0-0.477-0.339-0.876-0.788-0.971m-4.371 7.401c0.02 0.109-0.052 0.195-0.162 0.195h-2.315c-0.109 0-0.182-0.086-0.162-0.195l0.369-1.954c-0.279-0.254-0.454-0.621-0.454-1.028 0-0.769 0.623-1.392 1.392-1.392s1.392 0.623 1.392 1.392c0 0.396-0.166 0.753-0.432 1.01zm2.387-7.422h-7.438v-2.296c0-2.051 1.668-3.719 3.719-3.719s3.719 1.668 3.719 3.719z"/></g></g></g></svg>
