<svg viewBox="0 0 48 48" xmlns="http://www.w3.org/2000/svg"><defs><linearGradient id="a" x2="0" y1="27.12" y2="-32.88" gradientUnits="userSpaceOnUse"><stop stop-color="#116ef4" offset="0"/><stop stop-color="#02bffd" offset="1"/></linearGradient></defs><g transform="matrix(1 0 0 1 -18.37 25.88)" enable-background="new"><circle cx="42.37" cy="-1.875" r="22.94" fill="url(#a)" stroke="url(#a)" stroke-width="2.13"/><path d="m55.55-1.947l-4.04-4.04c-.385-.384-.265-.795.265-.914 0 0 .438-.099.977-.638 1.158-1.157 1.157-3.036 0-4.192-1.158-1.158-3.035-1.158-4.193 0-.54.539-.638.977-.638.977-.119.531-.531.65-.915.265l-4.04-4.04c-.384-.385-1.014-.385-1.398 0l-4.04 4.04c-.384.385-.265.797.265.916 0 0 .438.099.977.637 1.156 1.157 1.158 3.035 0 4.194-1.157 1.157-3.036 1.156-4.193 0-.539-.54-.638-.978-.638-.978-.119-.531-.531-.649-.915-.265l-4.04 4.04c-.384.384-.384 1.012 0 1.397l4.04 4.04c.384.384.265.796-.265.915 0 0-.438.099-.977.638-1.158 1.158-1.158 3.035 0 4.192 1.157 1.157 3.035 1.158 4.193 0 .54-.539.638-.977.638-.977.119-.531.531-.65.915-.265l4.04 4.04c.384.385 1.014.385 1.398 0l4.04-4.04c.384-.384.265-.797-.265-.915 0 0-.439-.099-.978-.637-1.158-1.158-1.158-3.035 0-4.194 1.157-1.157 3.035-1.158 4.193 0 .539.539.637.978.637.978.119.531.531.651.915.266l4.04-4.04c.384-.384.384-1.012 0-1.397" fill="#fff" fill-opacity=".851"/></g></svg>
