<svg viewBox="0 0 48 48" xmlns="http://www.w3.org/2000/svg"><defs><linearGradient id="a" x1="455.6" x2="455.8" y1="548" y2="518.8" gradientUnits="userSpaceOnUse"><stop stop-color="#69159f" offset="0"/><stop stop-color="#b92ff5" offset="1"/></linearGradient></defs><g transform="matrix(1.043 0 0 1.043 -402.3 -522.6)"><circle transform="matrix(1.586 0 0 1.586 -314 -322.4)" cx="455.6" cy="533.4" r="14.5" fill="url(#a)"/><g transform="matrix(.0581 0 0 .0581 393 507.8)" fill="#fff" fill-opacity=".847"><path d="m542 272.3h-37.22c-3.379 0-9.01-0.202-9.01-3.58v-37.56c0-3.378 0.158-7.815-3.221-7.815h-37.39c-3.385 0-8.354-1.047-8.354-4.425v-37.36c0-3.384-0.502-7.172-3.881-7.172h-37.28c-3.379 0-7.797-1.702-7.797-5.08v-37.55c0-3.378-1.898-6.089-5.275-6.06-12.21 0.098-24.72 0.11-37.39 0.11-3.377 0-6.285 2.742-6.285 6.12v37.22c-6e-3 3.39-1.561 5.239-4.945 5.239h-137.3c-3.378 0-4.639-1.849-4.639-5.227v-37.25c0-3.378-3.476-6.12-6.854-6.12-12.55 0-24.33-0.012-36.42-0.11-3.391-0.024-5.686 2.687-5.686 6.07v37.9c0 3.385-4.352 4.75-7.736 4.75h-37.59c-3.378 0-3.635 4.106-3.635 7.484v37.41c0 3.384-5.227 4.064-8.605 4.064h-37.46c-3.378 0-9.02 4.792-9.02 8.176v37.46c0 3.378 0.153 3.323-3.225 3.323h-36.88c-3.378 0-8.85 5.532-8.85 8.91v135.7c0 3.385 5.471 8.36 8.85 8.36h36.87c3.378 0 3.244-4.988 3.244-8.366v-86.38c0-3.385 5.618-3.17 8.997-3.17h37.83c3.378 0 8.25-0.208 8.25 3.17v86.94c0 3.378 1.67 6.114 5.06 6.114 12.56 0 25.24 0.018 37.33 0.109 3.378 0.031 6.573-2.68 6.573-6.06v-37.32c0-3.379 0.759-3.984 4.143-3.984h236.5c3.379 0 6.119 1.677 6.119 5.06 0 12.56-0.018 25.23-0.115 37.46-0.025 3.384 2.68 6.45 6.06 6.45h37.27c3.371 0 3.738-4.468 3.738-7.846v-86.82c0-3.379 5.117-3.256 8.5-3.256h38.04c3.377 0 8.543-0.123 8.543 3.256v86.3c0 3.378 0.324 8.366 3.703 8.366h36.4c3.379 0 8.857-4.981 8.857-8.36v-136c2e-3 -3.383-5.471-8.659-8.848-8.659m-340-3.862c0 3.379-3.831 3.862-7.209 3.862h-37.39c-3.384 0-4.363-0.478-4.363-3.855v-37.33c0-3.378 0.985-7.778 4.37-7.778h37.37c3.378 0 7.215 4.4 7.215 7.785-1e-4 12.44-1e-4 24.78-1e-4 37.31m195.8 0.099c0 3.378-1.023 3.764-4.4 3.764h-37.32c-3.385 0-7.24-0.386-7.24-3.771v-37.34c0-3.372 3.861-7.846 7.24-7.846h37.32c3.377 0 4.4 4.467 4.4 7.846v37.35"/><path d="m244.3 424.1c-9.21 6e-3 -18.5 0.018-27.56-7e-3 -19.8-0.061-39.72-0.146-59.53-0.227-3.378-0.012-6.151 2.718-6.12 6.103 0.098 12.24 0.08 25.27 0.085 37.52 0 3.378 2.711 6.842 6.09 6.842h86.57c3.378-6e-3 7.04-4.204 7.04-7.582v-36.52c0-3.385-3.201-6.133-6.579-6.126"/><path d="m395.8 423.9c-0.949 0.073-1.463 0.753-2.43 0.753-29.14 0.018-57.82 0.648-86.95 0.648h-2.773c-1.529 0-3.799 1.469-3.799 4.847v36.62c0 3.378 3.77 7.497 7.154 7.497h86.49c3.379 0 4.279-4.125 4.279-7.503v-37.06c1e-4 -3.378-0.366-5.918-1.964-5.795"/><path d="m108.2 125.5h37.06c3.378 0 6.083-2.644 6.06-6.02-0.098-12.24-0.11-24.56-0.116-36.81 0-3.378-2.742-6.126-6.126-6.126h-36.87c-3.378-6e-3 -4.174 2.846-4.174 6.23v36.81c-1e-4 3.377 0.794 5.918 4.173 5.918"/><path d="m404.8 125.8c12.24-0.098 24.05-0.11 36.3-0.116 3.383 0 5.617-2.748 5.617-6.126v-36.88c0-3.378-0.82-6.163-4.197-6.163h-36.8c-3.377 0-7.967 2.796-7.967 6.175v37.06c0 3.378 3.664 6.083 7.04 6.05"/></g></g></svg>
