<svg version="1.1" viewBox="0 0 48 48" xmlns="http://www.w3.org/2000/svg" xmlns:xlink="http://www.w3.org/1999/xlink"><defs><linearGradient id="c" x1="18.6" x2="20.03" y1="261.3" y2="155.6" gradientTransform="matrix(.4336 0 0 .4348 -57.02 -61.89)" gradientUnits="userSpaceOnUse"><stop stop-color="#2a2c2f" offset="0"/><stop stop-color="#424649" offset="1"/></linearGradient><linearGradient id="a" x1="403.4" x2="402.5" y1="545.2" y2="518.1" gradientTransform="matrix(1.601 0 0 1.601 -657.6 -827.3)" gradientUnits="userSpaceOnUse" xlink:href="#c"/><linearGradient id="b" x1="403.7" x2="403.9" y1="545.3" y2="531.1" gradientTransform="matrix(1.696 0 0 1.691 -704.1 -884.4)" gradientUnits="userSpaceOnUse"><stop stop-color="#d3d3d3" offset="0"/><stop stop-color="#fcf9f9" offset="1"/></linearGradient></defs><g transform="translate(40.27 -.2034)"><circle cx="-16.27" cy="24.2" r="22.78" fill="url(#a)" stroke="url(#a)" stroke-width="2.44"/><path d="m-10.46 28.33c-1.389 0-2.613 0.6627-3.409 1.675l-7.42-3.799c0.09667-0.3635 0.1679-0.7371 0.1679-1.131 0-0.4294-0.0831-0.8335-0.1984-1.227l7.387-3.78c0.7954 1.06 2.052 1.752 3.478 1.752 2.417 0 4.37-1.956 4.37-4.372 0-2.414-1.955-4.372-4.37-4.372-2.412 0-4.367 1.958-4.367 4.372 0 0.3956 0.06953 0.7709 0.1679 1.134l-7.418 3.799c-0.8005-1.014-2.028-1.679-3.426-1.679-2.413 0-4.367 1.958-4.367 4.374 0 2.416 1.954 4.372 4.367 4.372 1.428 0 2.683-0.6949 3.482-1.755l7.384 3.78c-0.1153 0.3922-0.2001 0.7997-0.2001 1.231 0 2.416 1.957 4.372 4.367 4.372 2.417 0 4.37-1.958 4.37-4.372 0-2.418-1.955-4.374-4.37-4.374" fill="url(#b)"/></g></svg>
