<svg viewBox="0 0 48 48" xmlns="http://www.w3.org/2000/svg"><defs><linearGradient id="a" x1="-112.5" x2="-111.1" y1="260.2" y2="154.6" gradientTransform="matrix(.4336 0 0 .4348 98.78 -102.6)" gradientUnits="userSpaceOnUse"><stop stop-color="#2a2c2f" offset="0"/><stop stop-color="#424649" offset="1"/></linearGradient></defs><g transform="matrix(1 0 0 1 -28.37 35.88)" enable-background="new"><rect x="28.38" y="-35.8" width="48" height="47.85" rx="3.752" fill="url(#a)"/><path d="m59.27-9.275h-2.4v-4.8h2.4c2.651 0 4.8-2.149 4.8-4.8s-2.149-4.8-4.8-4.8-4.8 2.149-4.8 4.8v2.4h-4.8v-2.4c0-2.651-2.149-4.8-4.8-4.8s-4.8 2.149-4.8 4.8 2.149 4.8 4.8 4.8h2.4v4.8h-2.4c-2.651 0-4.8 2.149-4.8 4.8s2.149 4.8 4.8 4.8 4.8-2.149 4.8-4.8v-2.4h4.8v2.394 6e-3c0 2.651 2.149 4.8 4.8 4.8s4.8-2.149 4.8-4.8-2.149-4.799-4.8-4.8m0-12c1.325 0 2.4 1.075 2.4 2.4s-1.075 2.4-2.4 2.4h-2.4v-2.4c0-1.325 1.075-2.4 2.4-2.4m-16.8 2.4c0-1.325 1.075-2.4 2.4-2.4s2.4 1.075 2.4 2.4v2.4h-2.4c-1.325 0-2.4-1.075-2.4-2.4m2.4 16.8c-1.325 0-2.4-1.075-2.4-2.4s1.075-2.4 2.4-2.4h2.4v2.4c0 1.325-1.075 2.4-2.4 2.4m4.8-7.2v-4.8h4.8v4.8h-4.8m9.6 7.2c-1.325 0-2.4-1.075-2.4-2.4v-2.4h2.4c1.325 0 2.4 1.075 2.4 2.4s-1.074 2.4-2.4 2.4" fill="#fff" fill-opacity=".847" stroke-width="1.317"/></g></svg>
