<svg viewBox="0 0 48 48" xmlns="http://www.w3.org/2000/svg"><defs><clipPath id="d"><path d="m596.5 511.7c-6.962 6.661-20.97 17.64-31.63 14.28-5.954-1.882-8.839-7.319-2.055-7.441 13.84-0.25 20.62 0.731 33.68-6.836"/></clipPath><clipPath id="c"><path d="m556.8 546.2h27.01v-29.58h-27.01v29.58"/></clipPath><clipPath id="b"><path d="m556.8 516.6c2.252 9.368 8.092 26.19 18.87 29.12 6.02 1.639 11.39-1.373 5.753-5.147-11.5-7.696-17.74-10.54-24.63-23.97"/></clipPath><clipPath id="f"><path d="m0 792h612v-792h-612v792"/></clipPath><clipPath id="a"><path d="m547 542.9h13.05v-38.14h-13.05v38.14"/></clipPath><clipPath id="e"><path d="m558.9 526.6h37.6v-14.9h-37.6v14.9"/></clipPath><linearGradient id="i" x2="0" y1="544.3" y2="543" gradientTransform="matrix(.7122 0 0 1.409 -381.7 -762.3)" gradientUnits="userSpaceOnUse"><stop stop-color="#fd3865" offset="0"/><stop stop-color="#fc5e37" offset="1"/></linearGradient><linearGradient id="h" x1="10.09" x2="122.7" gradientTransform="matrix(.35 0 0 .3442 -84.47 -33.61)" gradientUnits="userSpaceOnUse"><stop stop-color="#1a1a1a" offset="0"/><stop stop-color="#2c2c2e" offset=".111"/><stop stop-color="#2b2b2d" offset=".29"/><stop stop-color="#2a2b2d" offset=".512"/><stop stop-color="#2b2b2d" offset=".752"/><stop stop-color="#323232" offset=".897"/><stop stop-color="#171717" offset="1"/></linearGradient><linearGradient id="g" x1="-61.86" x2="-61.69" y1="-.386" y2="-31.86" gradientUnits="userSpaceOnUse"><stop stop-color="#bbbec4" offset="0"/><stop stop-color="#dddfe2" offset="1"/></linearGradient><linearGradient id="j" x2="0" y1="5.383" y2="2.392" gradientUnits="userSpaceOnUse"><stop stop-color="#040404" offset="0"/><stop stop-color="#121212" stop-opacity=".908" offset="1"/></linearGradient></defs><g transform="translate(-384.57-499.8)"><flowRoot transform="translate(389.6 520.8)" font-family="sans-serif" font-size="10" letter-spacing="0" word-spacing="0" line-height="125%"><flowRegion><path d="m22 3h27v15h-27z"/></flowRegion><flowPara>Plasm</flowPara></flowRoot><g transform="matrix(1.13 0 0 1.13 341.4 521.8)" enable-background="new"><g transform="matrix(1.046 0 0 1.046 123.5 15.19)"><path d="m-80.94.075l.35 5.517c0 .572.468 1.033 1.05 1.033h36.624c.582 0 1.05-.461 1.05-1.033l.35-5.517h-39.42" fill="url(#h)"/><path d="m-77.79-32.27h32.776c.582 0 1.05.461 1.05 1.033l2.451 31.14c0 .572-.468 1.033-1.05 1.033h-37.33c-.582 0-1.05-.461-1.05-1.033l2.1-31.14c0-.572.468-1.033 1.05-1.033" fill="url(#g)"/><rect x="-69.24" y="3.494" width="16.15" height="1.083" rx=".542" fill="url(#i)"/><ellipse cx="-46.39" cy="4.074" rx="1.495" ry="1.495" fill="url(#j)" opacity=".452"/><g fill="#e3e8ea" stroke-width="1.317"><path d="m-46.39 4.113c.034 0 .063-.012.088-.037.025-.025.037-.054.037-.088v-.623c0-.034-.012-.063-.037-.088-.025-.025-.054-.037-.088-.037-.034 0-.063.012-.088.037-.025.025-.037.054-.037.088v.623c0 .034.012.063.037.088.025.025.054.037.088.037" opacity=".668"/><path d="m-45.724 3.779c-.052-.104-.126-.192-.221-.263-.027-.021-.058-.029-.093-.024-.034.005-.062.021-.082.049-.021.027-.029.058-.024.092.005.034.021.062.048.082.064.048.113.107.147.176.035.069.052.143.052.222 0 .068-.013.132-.039.193-.026.061-.062.114-.107.159-.045.045-.098.08-.159.107-.061.026-.126.039-.193.039-.068 0-.132-.013-.193-.039-.061-.026-.114-.062-.159-.107-.045-.045-.08-.098-.107-.159-.026-.061-.039-.126-.039-.193 0-.079.017-.153.052-.222.035-.069.084-.128.148-.176.027-.021.043-.048.048-.082.005-.034-.003-.065-.024-.092-.02-.028-.047-.044-.081-.049-.034-.005-.065.004-.093.024-.095.071-.168.158-.221.263-.052.105-.078.216-.078.334 0 .101.02.198.059.29.04.092.093.172.16.239.067.067.146.12.239.16.092.04.189.059.29.059.101 0 .198-.02.29-.059.092-.04.172-.093.239-.16.067-.067.12-.146.16-.239.04-.092.059-.189.059-.29 0-.118-.026-.229-.078-.334" opacity=".668"/></g></g><g transform="matrix(.4891 0 0 -.4341 -219.4 225.6)" clip-path="url(#f)" fill="#a1a7ae" stroke="#909296" stroke-width=".192"><g transform="translate(-3.313-2.692)" clip-path="url(#e)"><g clip-path="url(#d)" stroke-width=".192"><path d="m596.5 511.7c-6.962 6.661-20.97 17.64-31.63 14.28-5.954-1.882-8.839-7.319-2.055-7.441 13.84-0.25 20.62 0.731 33.68-6.836" fill-rule="evenodd" stroke-width=".192"/></g></g><g transform="translate(-1.553)" clip-path="url(#c)"><g clip-path="url(#b)" stroke-width=".192"><path d="m556.8 516.6c2.252 9.368 8.092 26.19 18.87 29.12 6.02 1.639 11.39-1.373 5.753-5.147-11.5-7.696-17.74-10.54-24.63-23.97" fill-rule="evenodd" stroke-width=".192"/></g></g><g clip-path="url(#a)"><path d="m560.1 504.7c-6.172 7.399-16.18 22.12-12.09 32.52 2.281 5.812 7.902 8.321 7.563 1.544-0.691-13.82-2.131-20.52 4.531-34.07" fill-rule="evenodd" stroke-width=".192"/></g></g></g></g></svg>
