<svg viewBox="0 0 48 48" xmlns="http://www.w3.org/2000/svg"><defs><linearGradient id="a" x2="0" y1="986.7" y2="-2.623" gradientUnits="userSpaceOnUse"><stop stop-color="#ff9300" offset="0"/><stop stop-color="#ffd702" offset="1"/></linearGradient></defs><g transform="translate(-486.8 -502.7)" stroke-width="1.317"><path transform="matrix(.04892 0 0 .04892 486.8 502.7)" d="m946.2 206.6c-0.3-23-18-42-40.9-44.1-190.3-17.8-345.6-119.5-396.8-156.7-10.7-7.8-25.2-7.8-35.9 0-51.1 37.2-206.4 138.9-396.7 156.7-22.9 2.101-40.5 21.1-40.9 44.1-2.3 150.1 21.8 659.7 444.1 773.1 7.5 2 15.4 2 22.9 0 422.3-113.3 446.4-623 444.2-773.1" fill="url(#a)" stroke-width="9.512"/><path transform="matrix(.1737 0 0 .1737 478.1 480)" d="m215 310.9c0.408 2.162-1.058 3.931-3.258 3.931h-46.68c-2.2 0-3.666-1.769-3.258-3.931l7.432-39.39c-5.626-5.131-9.157-12.52-9.157-20.73 0-15.5 12.56-28.06 28.06-28.06 15.5 0 28.06 12.56 28.06 28.06 0 7.991-3.346 15.2-8.707 20.3z" fill="#251800"/></g></svg>
