<svg version="1.1" viewBox="0 0 48 48" xmlns="http://www.w3.org/2000/svg" xmlns:xlink="http://www.w3.org/1999/xlink"><defs><linearGradient id="c" x1="18.6" x2="20.03" y1="261.3" y2="155.6" gradientTransform="matrix(.4336 0 0 .4348 -57.02 -61.89)" gradientUnits="userSpaceOnUse"><stop stop-color="#2a2c2f" offset="0"/><stop stop-color="#424649" offset="1"/></linearGradient><linearGradient id="b" x1="433.1" x2="434" y1="543" y2="527" gradientTransform="matrix(1.524 0 0 1.524 -633.3 -747.7)" gradientUnits="userSpaceOnUse"><stop stop-color="#d3d3d3" offset="0"/><stop stop-color="#fcf9f9" offset="1"/></linearGradient><linearGradient id="a" x1="403.4" x2="402.5" y1="545.2" y2="518.1" gradientTransform="matrix(1.601 0 0 1.601 -614.1 -790.3)" gradientUnits="userSpaceOnUse" xlink:href="#c"/></defs><g transform="translate(-3.254 -37.22)"><circle cx="27.25" cy="61.22" r="22.78" fill="url(#a)" stroke="url(#a)" stroke-width="2.44"/><path d="m27.2 56.84c-2.533 0-4.571 2.039-4.571 4.571s2.039 4.571 4.571 4.571c2.533 0 4.571-2.039 4.571-4.571s-2.039-4.571-4.571-4.571m-11.43 0c-2.533 0-4.571 2.039-4.571 4.571s2.039 4.571 4.571 4.571 4.571-2.039 4.571-4.571-2.039-4.571-4.571-4.571m22.86 0c-2.533 0-4.571 2.039-4.571 4.571s2.039 4.571 4.571 4.571c2.533 0 4.571-2.039 4.571-4.571s-2.039-4.571-4.571-4.571" fill="url(#b)"/></g></svg>
