<svg version="1.1" viewBox="0 0 48 48" xmlns="http://www.w3.org/2000/svg" xmlns:xlink="http://www.w3.org/1999/xlink"><defs><linearGradient id="a" x1="23.31" x2="23.23" y1="46.55" y2="37.24" gradientTransform="translate(20.74 39.05)" gradientUnits="userSpaceOnUse"><stop stop-color="#1074f5" offset="0"/><stop stop-color="#02befd" offset="1"/></linearGradient><linearGradient id="b" x1="165.4" x2="164.5" y1="51.11" y2="-56.04" gradientTransform="matrix(.4404 0 0 .4404 -28.49 63.12)" gradientUnits="userSpaceOnUse"><stop stop-color="#2a2c2f" offset="0"/><stop stop-color="#424649" offset="1"/></linearGradient></defs><g transform="translate(-20.75 -39.05)"><path d="m43.56 39.05c-3.053 0.03391-6.335 0.3122-8.571 2.409-3.426 3.212-2.993 5.433-3.33 9.828-0.687 8.973-0.421 21.27 1.403 30.1 0.535 2.592 2.98 4.417 5.572 4.914 1.99 0.3831 4.048 0.6733 6.109 0.7433 2.061-0.07002 4.119-0.3602 6.109-0.7433 2.593-0.4989 5.037-2.323 5.572-4.914 1.824-8.834 2.09-21.13 1.403-30.1-0.3364-4.395 0.096-6.619-3.33-9.828-2.237-2.097-5.519-2.375-8.571-2.409-0.399-4.4e-4 -0.7949-4.4e-5 -1.183 0-0.3884-4.4e-5 -0.7843-4.4e-4 -1.183 0" fill="url(#b)"/><path d="m42.77 76.57a0.5395 0.5379 0 0 0-0.5391 0.5391 0.5395 0.5379 0 0 0 0.5391 0.5371 0.5395 0.5379 0 0 0 0.541-0.5371 0.5395 0.5379 0 0 0-0.541-0.5391zm3.059 0-1.023 1.02 1.574 1.57-1.631 1.848 1.08 0.9414 2.518-2.869-2.518-2.51zm-3.777 2.51a0.8992 0.8965 0 0 0-0.8984 0.8965 0.8992 0.8965 0 0 0 0.8984 0.8965 0.8992 0.8965 0 0 0 0.8984-0.8965 0.8992 0.8965 0 0 0-0.8984-0.8965zm1.619 2.512a1.079 1.076 0 0 0-1.08 1.074 1.079 1.076 0 0 0 1.08 1.076 1.079 1.076 0 0 0 1.078-1.076 1.079 1.076 0 0 0-1.078-1.074z" fill="url(#a)"/></g></svg>
