<svg viewBox="0 0 48 48" xmlns="http://www.w3.org/2000/svg"><defs><linearGradient id="b" x1="-10.77" x2="-11.23" y1="4.675" y2="-22.85" gradientTransform="matrix(1.774 0 0 1.714 -5.989 28.57)" gradientUnits="userSpaceOnUse"><stop stop-color="#e1e1e1" offset="0"/><stop stop-color="#f4f4ff" offset="1"/></linearGradient><linearGradient id="a" x1="61.57" x2="60.75" y1="22.94" y2="-27.71" gradientUnits="userSpaceOnUse"><stop stop-color="#197cf1" offset="0"/><stop stop-color="#21c9fb" offset="1"/></linearGradient></defs><g transform="translate(48.45 10.8)"><rect x="-48.45" y="-10.8" width="48" height="48" rx="3.085" fill="url(#b)"/><path transform="matrix(1 0 0 1 -86.83 15.07)" d="m38.38-1.871h48v21.02c0 1.652-1.33 2.982-2.982 2.982h-42.04c-1.652 0-2.982-1.33-2.982-2.982v-21.02" fill="url(#a)" fill-rule="evenodd"/><path d="m-19.228 6.212c.004-.904.007-2.283.007-3.065v-1.422h-.035c-.019 0-1.514-.015-3.323-.038-1.809-.019-3.354-.038-3.434-.038h-.146v2.417c0 1.33.0001 2.417.003 2.417.002 0 1.552.308 3.445.684 1.893.376 3.45.684 3.459.685.015-.0001.017-.154.024-1.644zm-7.523-2.205c.004-1.298.006-2.361.004-2.363-.002 0-4.119-.049-4.25-.047h-.082v1.954 1.955l.024.014c.019.014 4.266.85 4.291.854.004 0 .009-1.068.013-2.366zm-2.075-2.909c.979-.014 1.848-.019 1.931-.021h.151v-2.365-2.365l-.029.014c-.016 0-.991.196-2.167.429l-2.138.424v1.958 1.957h.236c.13 0 1.037-.015 2.02-.026zm6.268-.07c1.832-.02 3.332-.04 3.334-.041.002 0 .002-1.383.0001-3.069l-.003-3.065-3.15.625c-1.733.344-3.291.653-3.464.687l-.313.063-.003 2.419-.003 2.419h.135c.075 0 1.635-.017 3.467-.039z" fill="#1da0f6"/><path d="m-29.65 19.2v12l10.4-6z" fill="#deeffd" stroke="#deeffd" stroke-linecap="round" stroke-linejoin="round"/></g></svg>
