<svg viewBox="0 0 48 48" xmlns="http://www.w3.org/2000/svg"><defs><linearGradient id="a" x2="0" y1="654" y2="301.3" gradientUnits="userSpaceOnUse"><stop stop-color="#4965b6" offset="0"/><stop stop-color="#8d9dcc" offset="1"/></linearGradient></defs><circle transform="matrix(.1384 0 0 .1384 69.1 -42.09)" cx="-325.9" cy="478.8" r="173.4" fill="url(#a)"/><path transform="matrix(1.004 0 0 1 -386 -499.8)" d="m420.5 521.55c.034-.117.035-.24.035-.368v-1.367c0-3.235-1.222-6.259-3.472-8.515-2.252-2.258-5.265-3.502-8.499-3.502-3.234 0-6.234 1.244-8.486 3.502-2.25 2.256-3.467 5.28-3.467 8.515v1.367c0 .128 0 .251.035.368-2.062.163-3.71 2.362-3.71 5.04 0 2.692 1.649 4.899 3.724 5.05.555.748 1.45 1.202 2.402 1.202 1.656 0 3-1.348 3-3.01v-6.482c0-1.606-1.231-2.922-2.815-3v-.534c0-5.259 4.075-9.378 9.323-9.378 5.248 0 9.323 4.119 9.323 9.378v.534c-1.583.081-2.815 1.396-2.815 3v6.482c0 1.084.577 2.036 1.439 2.565-.983 1.446-2.364 2.589-3.999 3.287-.447-.498-1.096-.813-1.817-.813h-3.385c-1.346 0-2.442 1.095-2.442 2.442v.043c0 1.346 1.095 2.442 2.442 2.442h3.385c.99 0 1.844-.593 2.227-1.443 1.616-.588 3.093-1.52 4.336-2.76.926-.923 1.681-1.976 2.25-3.12.379-.205.714-.489.973-.838 2.075-.146 3.719-2.353 3.719-5.05 0-2.68-1.648-4.879-3.71-5.04" fill="#dee3f1"/></svg>
