<svg viewBox="0 0 48 48" xmlns="http://www.w3.org/2000/svg"><defs><linearGradient id="b" x1="-23.82" x2="3.118" y1="-9.504" y2="-9.596" gradientTransform="matrix(1.774 0 0 1.714 -5.989 28.57)" gradientUnits="userSpaceOnUse"><stop stop-color="#dc3c30" offset="0"/><stop stop-color="#ff786d" offset="1"/></linearGradient><linearGradient id="a" x1="38.42" x2="86.5" y1="9.995" y2="9.975" gradientUnits="userSpaceOnUse"><stop stop-color="#197cf1" offset="0"/><stop stop-color="#21c9fb" offset="1"/></linearGradient></defs><g transform="matrix(0-1 1 0 10.804-.449)"><path d="m-45.36-10.8h41.83c1.709 0 3.085 1.376 3.085 3.085v24.92h-48v-24.92c0-1.709 1.376-3.085 3.085-3.085" fill="url(#b)"/><path transform="matrix(1 0 0 1 -86.83 15.07)" d="m38.38-1.871h48v21.02c0 1.652-1.33 2.982-2.982 2.982h-42.04c-1.652 0-2.982-1.33-2.982-2.982v-21.02" fill="url(#a)" fill-rule="evenodd"/></g><g fill="#fff" fill-opacity=".848"><path transform="matrix(.03886 0 0 .03886 27 15)" d="m418.2 245.2-84.25 22.56-32.48-18.73v-35.16l32.11-18.44 84.62 22.67c1.701 0.454 3.41 0.678 5.104 0.678 8.692 0 16.65-5.805 19-14.6 2.815-10.51-3.415-21.31-13.92-24.12l-46.39-12.43 42.77-24.55c9.426-5.414 12.69-17.45 7.273-26.88-5.433-9.43-17.44-12.7-26.87-7.27l-42.85 24.61 12.43-46.41c2.812-10.5-3.409-21.31-13.92-24.12-10.44-2.739-21.28 3.422-24.1 13.92l-22.58 84.26-32.31 18.55-30.62-17.71v-37.15l61.93-61.93c7.688-7.692 7.688-20.15 0-27.84-7.69-7.691-20.15-7.691-27.84 0l-34.09 34.09v-49.49c1e-4 -10.87-8.817-19.69-19.69-19.69-10.87 0-19.69 8.815-19.69 19.69v49.24l-33.84-33.84c-7.691-7.691-20.15-7.691-27.84 0-7.691 7.692-7.691 20.15 0 27.84l61.68 61.68v37.54l-30.39 17.53-32.31-18.54-22.56-84.24c-2.811-10.5-13.6-16.68-24.1-13.92-10.51 2.812-16.74 13.61-13.93 24.12l12.43 46.4-42.85-24.6c-9.447-5.428-21.47-2.168-26.88 7.275-5.411 9.432-2.148 21.46 7.281 26.87l42.76 24.55-46.39 12.43c-10.51 2.812-16.74 13.61-13.93 24.12 2.355 8.793 10.31 14.6 19 14.6 1.693 0 3.403-0.224 5.109-0.678l84.63-22.68 32.07 18.41 0.033 35.19-32.49 18.77-84.25-22.6c-10.43-2.738-21.29 3.43-24.11 13.92-2.814 10.5 3.419 21.31 13.93 24.1l46.22 12.4-42.64 24.62c-9.413 5.441-12.64 17.47-7.199 26.89 3.647 6.336 10.26 9.844 17.06 9.844 3.337 0 6.724-0.83 9.827-2.646l42.86-24.73-12.47 46.58c-2.815 10.52 3.42 21.29 13.93 24.12 1.701 0.461 3.41 0.679 5.104 0.679 8.689 0 16.64-5.814 19-14.61l22.68-84.61 32.25-18.61 30.34 17.5v38.02l-61.68 61.68c-7.691 7.69-7.691 20.15 0 27.84 3.846 3.846 8.875 5.752 13.92 5.752 5.03 0 10.08-1.906 13.92-5.752l33.84-33.84v49.23c0 10.89 8.817 19.69 19.69 19.69 10.87 0 19.69-8.799 19.69-19.69v-49.47l34.09 34.09c3.845 3.846 8.874 5.752 13.92 5.752 5.05 0 10.08-1.906 13.92-5.752 7.688-7.693 7.688-20.15 0-27.84l-61.93-61.93v-37.63l30.6-17.66 32.24 18.61 22.68 84.61c2.352 8.799 10.3 14.61 18.99 14.61 1.688 0 3.402-0.218 5.107-0.679 10.51-2.829 16.73-13.6 13.92-24.12l-12.49-46.58 42.87 24.73c3.104 1.814 6.49 2.646 9.828 2.646 6.797 0 13.41-3.508 17.06-9.844 5.443-9.414 2.215-21.44-7.199-26.89l-42.64-24.61 46.22-12.4c10.51-2.797 16.74-13.6 13.92-24.1-2.798-10.5-13.61-16.68-24.1-13.92m-156.1 3.83-30.47 17.6-30.45-17.6-0.034-35.22 30.48-17.59 30.47 17.61v35.19" fill="#fff" fill-opacity=".848"/></g><g fill="#fff" fill-opacity=".848"><path transform="matrix(.1425 0 0 .1425-9.282 2.067)" d="m174.3 155.6c3.862-3.64 13.56-6.834 16.05-11.77 5.286 15.51 14.38 51.62-27.72 72.16 7.265-12.47 4.426-23.87 3.14-29.27-3.616 3.6-7.01 3.03-7.01 3.03 2.962-8.913-3.273-17.27-6.705-22.94-3.515 12.39-21.45 19.42-21.45 32.61 0 6.335 2.106 12.4 4.824 17.61-14.21-6.643-34.93-21.14-32.96-48.76 2.428-34.04 54.6-33.64 43.37-77.56 12.23 5.126 35.58 21.77 28.46 64.89" fill="#fff" fill-opacity=".848"/></g></svg>
