<svg viewBox="0 0 48 48" xmlns="http://www.w3.org/2000/svg" xmlns:xlink="http://www.w3.org/1999/xlink"><defs><linearGradient id="c" x1="-10.77" x2="-11.23" y1="4.675" y2="-22.85" gradientTransform="matrix(1.774 0 0 1.714 42.46 39.38)" gradientUnits="userSpaceOnUse" xlink:href="#a"/><linearGradient id="a" x1="61.57" x2="60.75" y1="22.94" y2="-27.71" gradientUnits="userSpaceOnUse"><stop stop-color="#197cf1" offset="0"/><stop stop-color="#21c9fb" offset="1"/></linearGradient><linearGradient id="b" x1="-23.53" x2="-22.63" y1="40.33" y2="-5.147" gradientUnits="userSpaceOnUse" xlink:href="#a"/></defs><rect width="48" height="48" rx="3.085" fill="url(#c)"/><g transform="matrix(1.062 0 0 1.062 48.23 4.975)"><path d="m-37.88 5.563h30v20h-30z" fill="url(#b)"/><path transform="matrix(.05229 0 0 .05229 -38.8 1.904)" d="m578.8 51.49v-0.895h-545.8v0.895c-17.66 1.214-30.84 15.27-32.93 32.32v358.7c0 6.898 1.795 12.71 4.791 17.95 6.893 12.14 17.07 18.27 31.14 18.27h197v49.7h-37.42c-9.281 0-16.47 7.218-16.47 16.48s7.186 16.48 16.47 16.48h220.7c9.281 0 16.77-7.218 16.77-16.48 0-9.263-7.486-16.48-16.77-16.48h-37.42v-49.7h197c14.08 0 24.34-6.132 31.14-18.27 3.085-5.493 5.091-11.37 5.091-17.95v-358.7c-2.096-17.06-16.17-31.11-33.24-32.32m-1.91 39.14v348.1c0 2.108-0.895 3-2.996 3h-534.1c-2.095 0-2.996-0.894-2.996-3v-351.1h540.1v3z" fill="#deeffd"/></g><path d="m24.94 13.7-6.576 8 4.437 2.401-1.149 5.599 6.576-8-4.437-2.401z" fill="#deeffd"/></svg>
