<svg viewBox="0 0 48 48" xmlns="http://www.w3.org/2000/svg"><defs><clipPath id="b"><path transform="matrix(15.33 0 0 11.5 415 -125.5)" d="m-24 13c0 1.105-0.672 2-1.5 2s-1.5-0.895-1.5-2 0.672-2 1.5-2 1.5 0.895 1.5 2" fill="#1890d0"/></clipPath><linearGradient id="c" x1="-10.77" x2="-11.23" y1="4.675" y2="-22.85" gradientTransform="matrix(1.774 0 0 1.714 42.46 39.38)" gradientUnits="userSpaceOnUse"><stop stop-color="#e1e1e1" offset="0"/><stop stop-color="#f4f4ff" offset="1"/></linearGradient><linearGradient id="a" x1="23.66" x2="23.93" y1="45.36" y2=".407" gradientUnits="userSpaceOnUse"><stop stop-color="#b62b76" offset="0"/><stop stop-color="#e04d9d" offset="1"/></linearGradient></defs><rect width="48" height="48" rx="3.085" fill="url(#c)"/><g transform="translate(-54.31-.204)"><g transform="matrix(1.333 0 0 1.333 44.97 -6.463)" clip-path="url(#b)"><path transform="matrix(.75 0 0 .75 7 5)" d="m8 8v10.67h10.67l-10.67-10.67m0 13.33v9.332h9.334l-9.334-9.332m10.67 9.332 9.334 9.334h12l-9.334-9.334h-12m-10.67 2.668v6.666h6.666l-6.666-6.666" fill="url(#a)"/></g></g></svg>
