<svg viewBox="0 0 48 48" xmlns="http://www.w3.org/2000/svg"><defs><linearGradient id="a" x1=".967" x2="3.419" y1="204.6" y2="147.6" gradientTransform="matrix(1.002 4e-5 4e-5 .9519 .292 11.94)" gradientUnits="userSpaceOnUse"><stop stop-color="#f15400" offset="0"/><stop stop-color="#fa8c00" offset="1"/></linearGradient><linearGradient id="b" x1="363.4" x2="359" y1="400.9" y2="332.5" gradientUnits="userSpaceOnUse"><stop stop-color="#d73b00" offset="0"/><stop stop-color="#e05800" offset="1"/></linearGradient><linearGradient id="d" x2="0" y1="473.9" y2="253.9" gradientTransform="matrix(.2623 0 0 .2616 -44.88 141)" gradientUnits="userSpaceOnUse"><stop stop-color="#cdd7dc" offset="0"/><stop stop-color="#ecf0f3" offset="1"/></linearGradient><linearGradient id="c" x1="22.55" x2="21.17" y1="267" y2="148.1" gradientTransform="matrix(.41708-.0003.00032.39759 13.04-59.63)" gradientUnits="userSpaceOnUse"><stop stop-color="#f16419" offset="0"/><stop stop-color="#feb600" offset="1"/></linearGradient></defs><g transform="matrix(.11 0 0 .11 -5.961 -5.668)" enable-background="new" fill="url(#b)"><g fill-rule="evenodd"><path transform="matrix(3.785 -.00288 .00287 3.796 172.5 -534.7)" d="m-23.525 154.67l47.829.036-.042 55.17-55.44-.042.037-48.05c.006-7.638 7.211-7.109 7.614-7.108" fill="url(#a)"/><path transform="matrix(9.088 0 0 9.088 54.15 51.64)" d="m23.02 0.094v22.92h-23.02v20.07c0 3.191 3 2.971 3.168 2.971h39.73c0.168 0 3.168 0.22 3.168-2.971v-19.95h0.047v-20.07c0-3.191-3-2.973-3.168-2.973h-19.92" fill="url(#c)"/></g><ellipse transform="matrix(3.785 0 0 3.796 172.5 -534.7)" cx="51.67" cy="236.9" rx="32.31" ry="32.22" fill="url(#d)"/><g fill="#fff" fill-opacity=".855"><path transform="translate(17.23 13.7)" d="m152.4 95.41v39.27h39.12v17.69h-39.12v39.27h-17.84v-39.27h-39.12v-17.69h39.12v-39.27h17.84"/><path transform="matrix(.8276 0 0 1.208 -14.23 6.677)" d="m403.6 115.8h113.4v16h-113.4v-16"/><path transform="translate(16.178-4.24)" d="m188.6 336-32.53 32.53 32.53 32.38-12.59 12.59-32.53-32.38-32.53 32.38-12.59-12.59 32.53-32.38-32.53-32.53 12.59-12.59 32.53 32.53 32.53-32.53 12.59 12.59"/></g><path d="m320 340.8h96.08v17.61h-96.08v-17.61m0 34.1h96.08v17.76h-96.08v-17.76" fill="#f47713" stroke-width="5.233"/></g></svg>
