<svg viewBox="0 0 48 48" xmlns="http://www.w3.org/2000/svg"><defs><linearGradient id="a" x1="72.09" x2="71.56" y1="42.65" y2="7.276" gradientUnits="userSpaceOnUse"><stop stop-color="#183b69" offset="0"/><stop stop-color="#245aa1" offset="1"/></linearGradient></defs><g transform="matrix(1.057 0 0 1.057 -1.501 -1064)" enable-background="new"><rect transform="matrix(.9405 .00104 -.00096 1.015 -43.62 1003)" x="47.94" y="7.164" width="48.23" height="36.3" rx="1.5" fill="url(#a)"/><path d="m19.47 1017c-1.765 0-3.229 1.301-3.469 3h-6.032v8h-2v1h5v-1h-2v-7h5.032c0.24 1.699 1.703 3 3.469 3 1.765 0 3.229-1.301 3.469-3h4.032v2h9v-2h2v16h-3.03c-0.24-1.699-1.703-3-3.469-3-1.765 0-3.229 1.301-3.469 3h-3.125c-0.204-0.586-0.75-1-1.406-1-0.828 0-1.5 0.672-1.5 1.5s0.672 1.5 1.5 1.5c0.656 0 1.202-0.414 1.406-1h3.125c0.24 1.699 1.703 3 3.469 3 1.765 0 3.229-1.301 3.469-3h4.03v-18h-3v-2h-9v2h-4.032c-0.24-1.699-1.703-3-3.469-3m0 1c0.503 0 0.983 0.15 1.375 0.406l-1.375 1.375-1.375-1.375c0.392-0.256 0.872-0.406 1.375-0.406m-2.094 1.125 1.375 1.375-1.375 1.375c-0.256-0.392-0.406-0.872-0.406-1.375s0.15-0.983 0.406-1.375m4.188 0c0.256 0.392 0.406 0.872 0.406 1.375s-0.15 0.983-0.406 1.375l-1.375-1.375 1.375-1.375m-2.094 2.094 1.375 1.375c-0.392 0.256-0.872 0.406-1.375 0.406s-0.983-0.15-1.375-0.406l1.375-1.375m-10.5 8.781v1h1v7h4.094c0.204 0.586 0.75 1 1.406 1 0.828 0 1.5-0.672 1.5-1.5 0-0.103-0.011-0.215-0.031-0.313l5.313-3.063-0.5-0.875-5.344 3.094c-0.258-0.21-0.579-0.344-0.938-0.344-0.656 0-1.202 0.414-1.406 1h-3.094v-6h1v-1h-3m22.5 5c1.381 0 2.5 1.119 2.5 2.5s-1.119 2.5-2.5 2.5-2.5-1.119-2.5-2.5 1.119-2.5 2.5-2.5m-16 2c0.276 0 0.5 0.224 0.5 0.5s-0.224 0.5-0.5 0.5-0.5-0.224-0.5-0.5 0.224-0.5 0.5-0.5m8 0c0.276 0 0.5 0.224 0.5 0.5s-0.224 0.5-0.5 0.5-0.5-0.224-0.5-0.5 0.224-0.5 0.5-0.5" fill="#fff" fill-opacity=".855" fill-rule="evenodd"/></g></svg>
