<svg viewBox="0 0 48 48" xmlns="http://www.w3.org/2000/svg"><defs><linearGradient id="a" x2="0" y1="654" y2="301.3" gradientUnits="userSpaceOnUse"><stop stop-color="#566069" offset="0"/><stop stop-color="#6c7884" offset="1"/></linearGradient></defs><circle transform="matrix(.1384 0 0 .1384 69.1 -42.09)" cx="-325.9" cy="478.8" r="173.4" fill="url(#a)"/><path transform="matrix(.1259 0 0 .1259 7.01 9.49)" d="m269.8 50.74c-1.78-5.744-11.06-9.395-21-10.38-12.22-1.223-27.84 1.321-41.43 6.959-10.32 4.283-19.89 9.614-29.72 17.35-15.46 12.15-23.65 21.94-27.8 27.4-3.347 4.413-4.059 9.449-7.13 11.77-0.155-1.163 0.258-4.226-1.739-5.387-0.588-0.341-1.249-0.736-1.913-1.123 0.748-3.086 4.615-17.91 10.82-26.41 7.539-10.35 15.96-16.27 17.06-16.95 1.333-0.841 2.749-0.906 3.678-1.487 0.705-0.437 1.175-2.367 0.789-2.579-1.432-0.783-3.02 0.91-4.01 1.987-1.045 1.142-11.98 8.63-18.66 18.38-6.25 9.104-10.19 23.66-10.9 26.4-1.17-0.627-2.244-1.112-2.847-1.112-0.544 0-1.467 0.395-2.486 0.917-0.816-3.171-4.734-17.42-10.84-26.34-6.688-9.745-17.62-17.1-18.67-18.24-0.979-1.077-2.575-2.77-4-1.987-0.402 0.211 0.073 2.142 0.778 2.579 0.936 0.581 2.34 0.646 3.683 1.487 1.091 0.68 9.514 6.475 17.06 16.82 6.077 8.331 9.904 22.82 10.78 26.34-0.794 0.453-1.6 0.929-2.301 1.332-1.979 1.161-1.572 4.225-1.734 5.387-2.77-1.487-5-7.965-9.06-13.98-4.31-6.413-10.4-13.04-25.85-25.19-9.851-7.732-19.41-13.06-29.73-17.35-13.59-5.639-29.22-8.183-41.44-6.959-9.951 0.989-19.24 4.64-21 10.38-1.365 4.454 4.734 18.27 10.39 26.3 4.203 5.967 5.081 12.86 6.631 19.67 2.211 9.724 6.223 24.23 17.25 27.84 10.09 3.318 29.83-2.649 29.83-2.649s0.433 3.533-6.193 6.185c-6.896 2.763-10.62 7.07-14.58 14.58-3.563 6.74-6.402 15.78-6.402 19.77 0 6.187 1.545 8.397 1.316 11.27-0.268 3.554 0.996 7.07 3.436 9.721 2.737 3 1.65 5.635 2.872 8.951 1.102 2.996 5.411 5.416 5.411 5.416s-0.487 6.78 4.422 11.27c3.966 3.642 8.461 6.02 11.38 8.611 2.971 2.658 5.192 4.76 11.59 5.973 3.69 0.701 5.972 6.706 13.7 6.266 8.388-0.48 8.366-0.14 13.71-2.327 8.607-3.531 12.46-20.2 16.12-36.3 2.881-12.6 5.086-20.42 8.896-23.07-1.081 7.376 0.533 19.63 0.533 19.63s-1.169 6.293-0.09 7.375c-0.499 3.233 0.504 7.656 1.051 7.547 0.224 2.642 1.602 7.447 3.539 7.447 1.935 0 3.318-4.806 3.529-7.447 0.561 0.109 1.551-4.313 1.057-7.547 1.076-1.082-0.088-7.375-0.088-7.375s1.489-11.51 0.498-19.8c3.402 1.734 6.05 10.63 8.921 23.23 3.676 16.1 7.521 32.76 16.14 36.3 5.332 2.188 5.317-0.034 13.7 0.444 7.734 0.441 10.01-6.875 13.7-7.568 6.413-1.217 8.623-3.315 11.6-5.969 2.934-2.596 7.404-4.973 11.39-8.617 4.891-4.492 4.41-11.27 4.41-11.27s4.332-2.429 5.428-5.415c1.197-3.313 0.117-5.951 2.86-8.949 2.433-2.648 3.704-6.167 3.424-9.72-0.218-2.874 1.337-5.085 1.337-11.27 0-3.99-2.848-9.841-6.424-16.58-3.972-7.514-7.678-11.82-14.58-14.58-6.626-2.652-6.185-6.185-6.185-6.185s19.71 5.967 29.84 2.649c11.01-3.609 15.03-18.12 17.23-27.84 1.549-6.804 2.433-13.7 6.629-19.67 5.64-8.03 11.76-21.84 10.38-26.3" fill="#fff" fill-opacity=".776"/></svg>
