<svg viewBox="0 0 48 48" xmlns="http://www.w3.org/2000/svg"><defs><linearGradient id="a" x1="70.03" x2="66.53" y1="569.2" y2="491.1" gradientTransform="matrix(.2326 0 0 .2402 37.61 -115.6)" gradientUnits="userSpaceOnUse"><stop stop-color="#2e3436" offset="0"/><stop stop-color="#555753" offset="1"/></linearGradient></defs><g transform="matrix(1.714 0 0 1.714 -69.21 8.602)" enable-background="new"><rect x="40.38" y="-3.838" width="28" height="25.65" rx="1.207" fill="url(#a)"/><g fill="#e2e3e3" fill-rule="evenodd" stroke="#50524f" stroke-width=".262"><path d="m58.49 2.866h4.442l3.471-3.071-3.471-3.397h-4.442l3.147 3.397z"/><path d="m42.64 2.866h4.442l3.471-3.071-3.471-3.397h-4.442l3.147 3.397z"/><path d="m50.48 2.866h4.442l3.471-3.071-3.471-3.397h-4.442l3.147 3.397z"/></g><path d="m58.769 8.361c-1.175-.956-2.736-1.483-4.394-1.483-1.658 0-3.219.527-4.394 1.483-1.185.965-1.838 2.251-1.838 3.62 0 1.308.595 2.538 1.68 3.486-.02.044-.035.09-.045.139l-.356 1.753c-.042.208.015.333.07.4.064.078.158.121.266.121.082 0 .169-.024.26-.072l2.073-1.077c.718.231 1.49.352 2.284.352 1.658 0 3.219-.527 4.394-1.483 1.185-.965 1.838-2.25 1.838-3.62 0-1.37-.653-2.656-1.838-3.62" fill="#fff" fill-opacity=".846"/></g></svg>
