<svg viewBox="0 0 48 48" xmlns="http://www.w3.org/2000/svg" xmlns:xlink="http://www.w3.org/1999/xlink"><defs><linearGradient id="b" x1="405.2" x2="405.1" y1="525.3" y2="519.5" gradientUnits="userSpaceOnUse"><stop stop-color="#ff9300" offset="0"/><stop stop-color="#ffd702" offset="1"/></linearGradient><linearGradient id="c" x1="421.5" x2="421.4" y1="521.2" y2="515" gradientUnits="userSpaceOnUse"><stop stop-color="#197cf1" offset="0"/><stop stop-color="#21c9fb" offset="1"/></linearGradient><linearGradient id="a" x1="405.1" x2="405" y1="531.8" y2="515.1" gradientUnits="userSpaceOnUse"><stop stop-color="#2e3436" offset="0"/><stop stop-color="#555753" offset="1"/></linearGradient><linearGradient id="d" x1="414.6" x2="414.4" y1="532.6" y2="525.5" gradientUnits="userSpaceOnUse"><stop stop-color="#00a661" offset="0"/><stop stop-color="#37ce97" offset="1"/></linearGradient><linearGradient id="e" x1="395.1" x2="394.9" y1="532.7" y2="524.7" gradientUnits="userSpaceOnUse"><stop stop-color="#dc3c30" offset="0"/><stop stop-color="#ff786d" offset="1"/></linearGradient><linearGradient id="f" x1="-10.77" x2="-11.23" y1="4.675" y2="-22.85" gradientTransform="matrix(1.774 0 0 1.714 42.46 39.38)" gradientUnits="userSpaceOnUse"><stop stop-color="#e1e1e1" offset="0"/><stop stop-color="#f4f4ff" offset="1"/></linearGradient></defs><rect width="48" height="48" rx="3.085" fill="url(#f)"/><g transform="matrix(1.211 0 0 1.211 -470.2 -609.9)"><path d="m421.84 520.67c-.307 0-.597-.063-.87-.163l-4.02 6.294c.558.528.91 1.27.91 2.098 0 1.598-1.296 2.893-2.894 2.893-1.598 0-2.893-1.295-2.893-2.893 0-.443.107-.858.285-1.234l-5.278-3.857c-.411.351-.937.57-1.519.57-.643 0-1.226-.26-1.65-.678l-5.398 3.376c.276.481.436 1.038.436 1.632 0 1.818-1.473 3.291-3.29 3.291-1.817 0-3.29-1.473-3.29-3.291 0-1.818 1.473-3.291 3.29-3.291.827 0 1.582.308 2.16.813l5.523-3.456c-.079-.236-.132-.485-.132-.748 0-1.298 1.052-2.351 2.35-2.351 1.299 0 2.351 1.053 2.351 2.351 0 .323-.066.631-.185.912l5.269 3.85c.517-.482 1.205-.783 1.968-.783.379 0 .738.078 1.07.21l4.01-6.285c-.46-.458-.744-1.092-.744-1.792 0-1.399 1.133-2.532 2.532-2.532 1.398 0 2.532 1.133 2.532 2.532 0 1.399-1.133 2.531-2.531 2.531z" fill="url(#a)" stroke="url(#a)"/><ellipse cx="395.5" cy="528.4" rx="4.312" ry="4.312" fill="url(#e)"/><ellipse cx="415" cy="528.8" rx="3.833" ry="3.833" fill="url(#d)"/><ellipse cx="421.9" cy="517.9" rx="3.354" ry="3.354" fill="url(#c)"/><ellipse cx="405.6" cy="522.2" rx="3.115" ry="3.115" fill="url(#b)"/></g></svg>
