<svg viewBox="0 0 48 48" xmlns="http://www.w3.org/2000/svg"><defs><linearGradient id="a" x1="24" x2="23.59" y1="48.2" y2=".407" gradientUnits="userSpaceOnUse"><stop stop-color="#00a661" offset="0"/><stop stop-color="#37ce97" offset="1"/></linearGradient></defs><circle cx="24" cy="24" r="24" fill="url(#a)"/><circle transform="matrix(1.714 0 0 1.714 -662.7 -887.7)" cx="400.6" cy="531.8" r="14" fill="#5ea5fb" fill-opacity="0"/><path d="m14.28 11.99c1.998 0 3.921 0.259 5.769 0.775 1.849 0.517 3.579 1.249 5.191 2.195s3.08 2.081 4.403 3.404 2.458 2.791 3.404 4.403 1.678 3.343 2.195 5.191c0.517 1.849 0.775 3.772 0.775 5.769 0 0.631-0.223 1.169-0.67 1.616s-0.986 0.67-1.616 0.67c-0.631 0-1.169-0.223-1.617-0.67-0.447-0.447-0.67-0.986-0.67-1.616 0-1.577-0.206-3.097-0.618-4.561-0.412-1.463-0.99-2.83-1.735-4.1s-1.638-2.427-2.681-3.469c-1.043-1.043-2.199-1.936-3.469-2.681s-2.637-1.323-4.1-1.735-2.983-0.618-4.56-0.618c-0.631 0-1.169-0.223-1.616-0.67s-0.67-0.986-0.67-1.616c0-0.631 0.223-1.169 0.67-1.616s0.986-0.67 1.616-0.67m0 8.648c1.805 0 3.5 0.346 5.086 1.038s2.97 1.63 4.153 2.812c1.183 1.183 2.12 2.567 2.812 4.153s1.038 3.281 1.038 5.086c0 0.631-0.223 1.169-0.67 1.616s-0.986 0.67-1.617 0.67-1.169-0.223-1.616-0.67-0.67-0.986-0.67-1.616c0-1.174-0.223-2.278-0.67-3.312s-1.056-1.936-1.827-2.707-1.673-1.38-2.707-1.827-2.138-0.67-3.312-0.67c-0.631 0-1.169-0.223-1.616-0.67s-0.67-0.986-0.67-1.617 0.223-1.169 0.67-1.616 0.986-0.67 1.616-0.67m4.206 12.01c0 0.456-0.083 0.876-0.25 1.262-0.166 0.386-0.394 0.723-0.683 1.012s-0.631 0.517-1.025 0.683-0.81 0.25-1.249 0.25c-0.456 0-0.876-0.083-1.262-0.25-0.386-0.166-0.723-0.394-1.012-0.683s-0.517-0.626-0.683-1.012-0.25-0.806-0.25-1.262c0-0.438 0.083-0.854 0.25-1.249 0.166-0.394 0.394-0.736 0.683-1.025s0.626-0.517 1.012-0.683 0.806-0.25 1.262-0.25c0.438 0 0.854 0.083 1.249 0.25 0.394 0.167 0.736 0.394 1.025 0.683s0.517 0.631 0.683 1.025 0.25 0.81 0.25 1.249z" fill="#dcf4eb"/></svg>
