<svg viewBox="0 0 48 48" xmlns="http://www.w3.org/2000/svg"><defs><linearGradient id="a" x1="24.34" x2="-23.26" y1="37.65" y2="-9.331" gradientUnits="userSpaceOnUse"><stop stop-color="#fa183c" offset="0"/><stop stop-color="#fe590a" offset="1"/></linearGradient></defs><g transform="translate(22.85 9.941)"><circle cx="1.153" cy="14.06" r="23" fill="#6f1314"/><path d="m1.151-9.942c-13.2 0-24 10.8-24 24s10.8 24 24 24 24-10.8 24-24-10.8-24-24-24m0 45c-11.7 0-21-9.3-21-21 0-7.2 3.6-13.8 9.6-17.7-0.3 1.8-0.6 3.9-0.6 5.7 0 14.7 12 26.7 26.7 27-3.9 3.9-9 6-14.7 6" fill="url(#a)"/></g></svg>
