<svg viewBox="0 0 48 48" xmlns="http://www.w3.org/2000/svg"><defs><linearGradient id="b" x1="455.6" x2="455.8" y1="548" y2="518.8" gradientUnits="userSpaceOnUse"><stop stop-color="#141414" offset="0"/><stop stop-color="#2d2d2f" offset="1"/></linearGradient><linearGradient id="a" x2="0" y1="38" y2="13" gradientUnits="userSpaceOnUse"><stop stop-color="#00cafe" offset="0"/><stop stop-color="#1460f3" offset="1"/></linearGradient></defs><g transform="matrix(.06062 0 0 .06062 7.709 7.302)" enable-background="new"><circle transform="matrix(27.3 0 0 27.3 -12169 -14289)" cx="455.6" cy="533.4" r="14.5" fill="url(#b)"/><path transform="matrix(16.5 0 0 16.5 -127.1 -120.5)" d="m14.264 11.941c-.205 0-.252.174-.252.379v2.23c0 .205.047.359.252.359h2.248c.205 0 .369-.16.367-.365-.006-.742-.007-1.488-.008-2.23 0-.205-.166-.373-.371-.373h-2.236m18.04 0c-.205 0-.482.17-.482.375v2.246c0 .205.221.369.426.367.742-.006 1.459-.005 2.201-.006.205 0 .342-.168.342-.373v-2.234c0-.205-.051-.375-.256-.375h-2.23m-14.979 2.984c-.206-.002-.346.162-.346.367v2.297c0 .205-.264.289-.469.289h-2.277c-.205 0-.221.248-.221.453v2.268c0 .205-.317.246-.521.246h-2.271c-.205 0-.547.291-.547.496v2.271c0 .205.009.201-.195.201h-2.236c-.205 0-.537.334-.537.539v8.229c0 .205.332.508.537.508h2.234c.205 0 .197-.303.197-.508v-5.236c0-.205.34-.191.545-.191h2.295c.205 0 .5-.013.5.191v5.27c0 .205.101.371.307.371.761 0 1.529 0 2.262.006.205.002.398-.162.398-.367v-2.262c0-.205.047-.242.252-.242h14.34c.205 0 .371.102.371.307 0 .761 0 1.53-.006 2.271-.002.205.162.391.367.391h2.258c.204 0 .227-.272.227-.477v-5.262c0-.205.311-.197.516-.197h2.307c.205 0 .518-.008.518.197v5.23c0 .205.02.508.225.508h2.207c.205 0 .537-.303.537-.508v-8.242c0-.205-.332-.525-.537-.525h-2.256c-.205 0-.547-.012-.547-.217v-2.277c0-.205.001-.475-.195-.475h-2.266c-.205 0-.508-.063-.508-.268v-2.266c0-.205-.03-.434-.234-.434h-2.26c-.205 0-.473-.104-.473-.309v-2.275c0-.205-.116-.371-.32-.369-.74.006-1.499.008-2.268.008-.205 0-.381.166-.381.371v2.256c0 .206-.094.318-.299.318h-8.324c-.205 0-.281-.114-.281-.318v-2.258c0-.205-.211-.371-.416-.371-.761 0-1.474 0-2.207-.006m-.08 5.92h2.266c.205 0 .438.267.438.473 0 .754 0 1.502 0 2.262 0 .205-.233.234-.438.234h-2.266c-.205 0-.266-.03-.266-.234v-2.262c0-.205.06-.473.266-.473m12.05 0h2.262c.205 0 .268.272.268.477v2.264c0 .205-.063.229-.268.229h-2.262c-.205 0-.439-.023-.439-.229v-2.264c0-.204.235-.477.439-.477m-12.05 12.152c-.205-.0001-.373.166-.371.371.006.742.004 1.531.004 2.273 0 .205.164.416.369.416h5.248c.205 0 .428-.256.428-.461v-2.213c0-.205-.194-.372-.398-.371-.558 0-1.123 0-1.672-.002-1.201-.004-2.407-.009-3.607-.014m14.463.006c-.058.004-.09.047-.148.047-1.767.0001-3.503.039-5.27.039h-.17c-.093 0-.229.088-.229.293v2.221c0 .205.228.455.434.455h5.242c.205 0 .26-.25.26-.455v-2.248c0-.205-.022-.359-.119-.352" fill="url(#a)"/></g></svg>
