<svg viewBox="0 0 48 48" xmlns="http://www.w3.org/2000/svg" xmlns:xlink="http://www.w3.org/1999/xlink"><defs><linearGradient id="c" x1="22.65" x2="22.5" y1="13.16" y2="1.368" gradientUnits="userSpaceOnUse" xlink:href="#a"/><linearGradient id="b" x1="-35.78" x2="-35.81" y1="25.99" y2="11.14" gradientUnits="userSpaceOnUse" xlink:href="#a"/><linearGradient id="d" x1="-35.03" x2="-34.32" y1="5.231" y2="-8.396" gradientUnits="userSpaceOnUse" xlink:href="#a"/><linearGradient id="e" x1="-33.97" x2="-34.98" y1="34.57" y2="-8.143" gradientUnits="userSpaceOnUse"><stop stop-color="#74cb32" offset="0"/><stop stop-color="#abeb6b" offset="1"/></linearGradient><linearGradient id="a"><stop stop-color="#141414" offset="0"/><stop stop-color="#2d2d2f" offset="1"/></linearGradient></defs><g transform="translate(57.56 10.58)"><rect x="-57.56" y="-7.267" width="48" height="42.59" rx="2.01" fill="url(#e)"/><path d="m-54.91-8.451h42.71c1.537 0 2.676 1.235 2.676 2.77v8.731h-48.06v-8.731c0-1.534 1.138-2.77 2.676-2.77z" fill="url(#d)" stroke="#2c3e1b" stroke-linecap="round" stroke-linejoin="round" stroke-width=".043"/><path transform="translate(-57.56-10.576)" d="m9.906 3.07 4.676 5.05-4.676 4.564h6.602l5.158-4.564-5.158-5.05h-6.602zm16.62 0 4.676 5.05-4.676 4.564h6.6l5.158-4.564-5.158-5.05h-6.6z" fill="#a4e764" stroke="url(#c)" stroke-width=".389"/><path d="m-28.33 18.87-10.46 7.283v-14.57z" fill="url(#b)" stroke="url(#b)" stroke-linecap="round" stroke-linejoin="round" stroke-width="1.306"/></g></svg>
