<svg viewBox="0 0 48 48" xmlns="http://www.w3.org/2000/svg"><defs><linearGradient id="a" x1="24.2" x2="23.8" y1="41.7" y2="6.305" gradientUnits="userSpaceOnUse"><stop stop-color="#ffbc00" offset="0"/><stop stop-color="#ffec00" offset="1"/></linearGradient></defs><rect y="5.89" width="48" height="36.22" rx="1.704" fill="url(#a)" stroke-width="1.037"/><path d="m3.03 7.671v14.8h1.234v-14.8h-1.234zm3.701 0v7.401h1.234v-7.401h-1.234zm3.701 0v7.401h1.234v-7.401h-1.234zm3.701 0v7.401h1.234v-7.401h-1.234zm3.701 0v7.401h1.234v-7.401h-1.234zm3.701 0v11.1h1.234v-11.1h-1.234zm3.701 0v7.401h1.234v-7.401h-1.234zm3.701 0v7.401h1.234v-7.401h-1.234zm3.701 0v7.401h1.234v-7.401h-1.234zm3.701 0v7.401h1.234v-7.401h-1.234zm3.701 0v14.8h1.234v-14.8h-1.234zm3.701 0v7.401h1.234v-7.401h-1.234z" fill="#271e00" stroke="#271f00" stroke-linecap="round" stroke-linejoin="round" stroke-width=".3"/><g fill="#271f00" stroke="#271e00"><path transform="matrix(.2106 0 0 .2106 17.79 19.78)" d="m-56.98 44.11q-3.04 4.12-7.96 4.12t-7.96-4.12-3.04-10.2q0-6.12 3.04-10.2 3.04-4.12 7.96-4.12t7.96 4.12q3.04 4.08 3.04 10.2 0 6.08-3.04 10.2zm-7.96 0.6q3.28 0 5.24-3.08 2-3.08 2-7.72 0-4.68-2-7.72-1.96-3.08-5.24-3.08-3.32 0-5.28 3.08-1.96 3.04-1.96 7.72 0 4.64 1.96 7.72t5.28 3.08z"/></g><g fill="#271f00" stroke="#271e00"><path transform="matrix(.2135 0 0 .2135 59.83 21.99)" d="m-85.42 35.39h-3.68v-22.8l-5.32 2.32-1.4-3.12 8.04-3.76h2.36v27.36z"/></g></svg>
