<svg viewBox="0 0 48 48" xmlns="http://www.w3.org/2000/svg" xmlns:xlink="http://www.w3.org/1999/xlink"><defs><linearGradient id="c" x1="544" x2="543.7" y1="484.8" y2="427.5" gradientTransform="matrix(.5336 0 0 .5348 -223.2 -206.2)" gradientUnits="userSpaceOnUse" xlink:href="#b"/><linearGradient id="f" x2="0" y1="38.44" y2="35.17" gradientUnits="userSpaceOnUse" xlink:href="#a"/><linearGradient id="d" x1="69.39" x2="69.26" y1="34.14" y2="31.99" gradientUnits="userSpaceOnUse" xlink:href="#a"/><linearGradient id="e" x1="391.6" x2="390.9" y1="531.8" y2="507.7" gradientTransform="matrix(.6849 0 0 .8444 -199.9 -395.5)" gradientUnits="userSpaceOnUse"><stop stop-color="#d3d3d3" offset="0"/><stop stop-color="#fcf9f9" offset="1"/></linearGradient><linearGradient id="g" x1="80.98" x2="80.37" y1="54.46" y2="32.48" gradientUnits="userSpaceOnUse" xlink:href="#a"/><linearGradient id="a"><stop stop-color="#222c35" offset="0"/><stop stop-color="#545e67" offset="1"/></linearGradient><linearGradient id="i" x1="80.34" x2="80.06" y1="53.46" y2="35.43" gradientUnits="userSpaceOnUse" xlink:href="#b"/><linearGradient id="h" x1="74.3" x2="88.18" y1="36.87" y2="50.75" gradientUnits="userSpaceOnUse" xlink:href="#a"/><linearGradient id="b"><stop stop-color="#ff433a" offset="0"/><stop stop-color="#ff9436" offset="1"/></linearGradient></defs><g transform="matrix(1 0 0 1 -48.37 -9.118)" enable-background="new"><rect transform="matrix(.9925-.12226.12173.99256 0 0)" x="45.92" y="21.87" width="40.99" height="31.54" rx="1.23" fill="url(#c)"/><path d="m51.623 43.84l8.01-3.442 2.866 1.365 5.88-2.682 6.301 1.198 4.476.376 3.207-1.463 3.999-1.442 5.04-6.582 1.414 11.249-38.893 4.78c-1.803.426-1.995-.959-1.995-.959z" fill="#512811" fill-rule="evenodd"/><circle transform="matrix(.9925 -.122 .122 .9925 0 0)" cx="55.43" cy="30.74" r="4.5" fill-opacity=".68"/><rect x="66.86" y="32.25" width="3.793" height="1.897" rx=".632" fill="url(#d)"/><rect x="63.5" y="33.3" width="32.87" height="20.26" rx=".948" fill="url(#e)"/><path d="m69.42 43.51a11.52 11.52 0 0 1 11.52-11.52 11.52 11.52 0 0 1 11.52 11.52 11.52 11.52 0 0 1-11.52 11.52 11.52 11.52 0 0 1-11.52-11.52" fill="url(#g)"/><circle cx="80.94" cy="43.51" r="9.05" fill="url(#h)"/><circle cx="80.94" cy="43.51" r="8.228" fill="url(#i)"/><circle cx="67.18" cy="36.8" r="1.638" fill="url(#f)" fill-rule="evenodd"/></g></svg>
