<svg viewBox="0 0 48 48" xmlns="http://www.w3.org/2000/svg"><path transform="matrix(1.692 0 0 1.692 -16.61 -16.62)" d="m11.883 16.07c-.486 0-.883.396-.883.883v14.09c0 .486.396.883.883.883h17.797c.486 0 .883-.396.883-.883v-4.939l5.03 4.332c.252.218.611.267.912.129.303-.139.496-.442.496-.775v-11.582c0-.333-.193-.634-.496-.773-.302-.139-.66-.091-.912.127l-5.03 4.332v-4.939c0-.486-.396-.883-.883-.883h-17.797m4.695 3.928h2.666v8h-2.666v-8m5.334 0h2.666v8h-2.666v-8" enable-background="new" fill="#4d4d4d"/></svg>
