<svg viewBox="0 0 48 48" xmlns="http://www.w3.org/2000/svg"><path transform="matrix(1.1 0 0 1.1 26.78 3.972)" d="m-21.17 6.02c-0.748 0-1.358 0.609-1.358 1.358v21.68c0 0.748 0.609 1.358 1.358 1.358h27.38c0.748 0 1.358-0.609 1.358-1.358v-7.599l7.737 6.665c0.388 0.335 0.939 0.411 1.403 0.198 0.465-0.214 0.763-0.68 0.763-1.193v-17.82c0-0.513-0.297-0.976-0.763-1.19-0.465-0.213-1.015-0.139-1.403 0.195l-7.737 6.665v-7.599c0-0.748-0.609-1.358-1.358-1.358h-27.38m13.5 6.043a6.154 6.154 0 0 1 6.154 6.154 6.154 6.154 0 0 1-6.154 6.154 6.154 6.154 0 0 1-6.154-6.154 6.154 6.154 0 0 1 6.154-6.154" enable-background="new" fill="#4d4d4d"/></svg>
