<svg viewBox="0 0 48 48" xmlns="http://www.w3.org/2000/svg"><defs><linearGradient id="a" x1="342" x2="341.1" y1="550.7" y2="511.1" gradientUnits="userSpaceOnUse"><stop stop-color="#197cf1" offset="0"/><stop stop-color="#20bcfa" offset="1"/></linearGradient></defs><g transform="translate(-384.57-499.8)"><path transform="matrix(.9383 0 0 .9383 89.12 23.53)" d="m358.77 517c-4.823-3.925-11.228-6.087-18.03-6.087-6.806 0-13.21 2.162-18.03 6.087-4.865 3.96-7.545 9.236-7.545 14.859 0 5.366 2.442 10.417 6.895 14.309-.08.181-.144.371-.185.57l-1.463 7.196c-.174.855.06 1.365.286 1.643.262.32.65.497 1.093.497.335 0 .694-.099 1.069-.293l8.509-4.421c2.946.948 6.113 1.446 9.373 1.446 6.806 0 13.21-2.162 18.03-6.087 4.865-3.959 7.545-9.236 7.545-14.859 0-5.623-2.679-10.9-7.545-14.859" fill="url(#a)"/><g transform="matrix(.4701 0 0 .4701 242.4 283.3)" fill="#fff" fill-opacity=".853"><path d="m328.4 519.9q-3.28 0-5.44-1.6-2.12-1.6-3.12-4l3.28-1.36q1.56 3.68 5.32 3.68 1.72 0 2.8-0.76 1.12-0.76 1.12-2 0-1.92-2.68-2.6l-3.96-0.96q-1.88-0.48-3.56-1.8-1.68-1.36-1.68-3.64 0-2.6 2.28-4.2 2.32-1.64 5.48-1.64 2.6 0 4.64 1.2 2.04 1.16 2.92 3.36l-3.2 1.32q-1.08-2.6-4.48-2.6-1.64 0-2.76 0.68t-1.12 1.84q0 1.68 2.6 2.28l3.88 0.92q2.76 0.64 4.08 2.2t1.32 3.52q0 2.64-2.16 4.4t-5.56 1.76"/><path d="m339 519.3v-19.6h3.52v2.72h0.16q0.84-1.4 2.56-2.36 1.76-1 3.48-1 4.56 0 6.2 3.76 2.4-3.76 6.84-3.76 3.48 0 5.24 2.24 1.76 2.2 1.76 6v12h-3.68v-11.44q0-2.96-1.08-4.2t-3.28-1.24q-2.16 0-3.6 1.84-1.4 1.84-1.4 4.2v10.84h-3.68v-11.44q0-2.96-1.08-4.2t-3.28-1.24q-2.16 0-3.6 1.84-1.4 1.84-1.4 4.2v10.84h-3.68"/><path d="m380.1 519.9q-3.28 0-5.44-1.6-2.12-1.6-3.12-4l3.28-1.36q1.56 3.68 5.32 3.68 1.72 0 2.8-0.76 1.12-0.76 1.12-2 0-1.92-2.68-2.6l-3.96-0.96q-1.88-0.48-3.56-1.8-1.68-1.36-1.68-3.64 0-2.6 2.28-4.2 2.32-1.64 5.48-1.64 2.6 0 4.64 1.2 2.04 1.16 2.92 3.36l-3.2 1.32q-1.08-2.6-4.48-2.6-1.64 0-2.76 0.68t-1.12 1.84q0 1.68 2.6 2.28l3.88 0.92q2.76 0.64 4.08 2.2t1.32 3.52q0 2.64-2.16 4.4t-5.56 1.76"/></g></g></svg>
