<svg viewBox="0 0 48 48" xmlns="http://www.w3.org/2000/svg" xmlns:xlink="http://www.w3.org/1999/xlink"><defs><linearGradient id="a" x1="410.5" x2="408.6" y1="547.3" y2="500.3" gradientUnits="userSpaceOnUse"><stop stop-color="#ff6835" offset="0"/><stop stop-color="#ff956f" offset="1"/></linearGradient><linearGradient id="b" x2="0" y1="546.8" y2="500.8" gradientUnits="userSpaceOnUse"><stop stop-color="#1f2121" offset="0"/><stop stop-color="#404447" offset="1"/></linearGradient></defs><g transform="matrix(1.055 0 0 1.055 -517.9 -533.9)" stroke-width="1.317"><g transform="matrix(.8776 0 0 .8776 154.5 68.52)"><rect x="383.1" y="498.4" width="50.89" height="50.89" rx="1.468" fill="url(#a)" fill-rule="evenodd"/><g transform="matrix(.8 0 0 .8 389.4 504.6)"><g font-family="'Bitstream Vera Sans'"><g font-size="12.67"><text x="877.23" y="10.813" opacity=".8"><tspan x="877.23" y="10.813"/></text><text x="901.19" y="-29.929" opacity=".8"><tspan x="901.19" y="-29.929"/></text><text x="-569.37" y="-60.01" opacity=".8"><tspan x="-569.37" y="-60.01"/></text><text x="-2393.06" y="685.55" opacity=".8"><tspan x="-2393.06" y="685.55"/></text><text x="-454.88" y="-445.33" opacity=".8"><tspan x="-454.88" y="-445.33"/></text><text x="352.72" y="-858.8" opacity=".8"><tspan x="352.72" y="-858.8"/></text><text x="376.68" y="-899.54" opacity=".8"><tspan x="376.68" y="-899.54"/></text><text x="-1114.78" y="-906.75" opacity=".8"><tspan x="-1114.78" y="-906.75"/></text><text x="345.76" y="-1179.98" opacity=".8"><tspan x="345.76" y="-1179.98"/></text><text x="1831.89" y="-553.29" opacity=".8"><tspan x="1831.89" y="-553.29"/></text><text x="1855.85" y="-594.03" opacity=".8"><tspan x="1855.85" y="-594.03"/></text><text x="364.38" y="-601.24" opacity=".8"><tspan x="364.38" y="-601.24"/></text><text x="1824.93" y="-874.48" opacity=".8"><tspan x="1824.93" y="-874.48"/></text><text x="-573.43" y="-649.34" opacity=".8"><tspan x="-573.43" y="-649.34"/></text><text x="-2397.12" y="96.22" opacity=".8"><tspan x="-2397.12" y="96.22"/></text><text x="-682.36" y="189.09" opacity=".8"><tspan x="-682.36" y="189.09"/></text><text x="426.66" y="9.908" opacity=".8"><tspan x="426.66" y="9.908"/></text><text x="450.62" y="-30.834" opacity=".8"><tspan x="450.62" y="-30.834"/></text><text x="-1040.84" y="-38.04" opacity=".8"><tspan x="-1040.84" y="-38.04"/></text><text x="419.7" y="-311.28" opacity=".8"><tspan x="419.7" y="-311.28"/></text><text x="-608.03" y="-40.758" opacity=".8"><tspan x="-608.03" y="-40.758"/></text><text x="-2431.72" y="704.8" opacity=".8"><tspan x="-2431.72" y="704.8"/></text><text x="-456.94" y="-902.29" opacity=".8"><tspan x="-456.94" y="-902.29"/></text><text x="350.66" y="-1315.76" opacity=".8"><tspan x="350.66" y="-1315.76"/></text><text x="374.62" y="-1356.5" opacity=".8"><tspan x="374.62" y="-1356.5"/></text><text x="-1116.84" y="-1363.71" opacity=".8"><tspan x="-1116.84" y="-1363.71"/></text><text x="343.7" y="-1636.94" opacity=".8"><tspan x="343.7" y="-1636.94"/></text><text x="1829.83" y="-1010.25" opacity=".8"><tspan x="1829.83" y="-1010.25"/></text><text x="1853.79" y="-1050.99" opacity=".8"><tspan x="1853.79" y="-1050.99"/></text><text x="362.32" y="-1058.2" opacity=".8"><tspan x="362.32" y="-1058.2"/></text><text x="1822.87" y="-1331.44" opacity=".8"><tspan x="1822.87" y="-1331.44"/></text><text x="-575.49" y="-1106.3" opacity=".8"><tspan x="-575.49" y="-1106.3"/></text><text x="-2399.18" y="-360.74" opacity=".8"><tspan x="-2399.18" y="-360.74"/></text><text x="-684.42" y="-267.87" opacity=".8"><tspan x="-684.42" y="-267.87"/></text><text x="155.59" y="-26.956" opacity=".8"><tspan x="155.59" y="-26.956"/></text><text x="179.55" y="-67.7" opacity=".8"><tspan x="179.55" y="-67.7"/></text><text x="-1090.26" y="-261.73" opacity=".8"><tspan x="-1090.26" y="-261.73"/></text><text x="-282.66" y="-675.2" opacity=".8"><tspan x="-282.66" y="-675.2"/></text><text x="-258.7" y="-715.94" opacity=".8"><tspan x="-258.7" y="-715.94"/></text><text x="-1750.16" y="-723.15" opacity=".8"><tspan x="-1750.16" y="-723.15"/></text><text x="-289.62" y="-996.38" opacity=".8"><tspan x="-289.62" y="-996.38"/></text><text x="1196.5" y="-369.69" opacity=".8"><tspan x="1196.5" y="-369.69"/></text><text x="1220.46" y="-410.43" opacity=".8"><tspan x="1220.46" y="-410.43"/></text><text x="-271" y="-417.64" opacity=".8"><tspan x="-271" y="-417.64"/></text><text x="1189.54" y="-690.88" opacity=".8"><tspan x="1189.54" y="-690.88"/></text><text x="-1208.82" y="-465.73" opacity=".8"><tspan x="-1208.82" y="-465.73"/></text><text x="-3032.5" y="279.82" opacity=".8"><tspan x="-3032.5" y="279.82"/></text></g><text transform="matrix(.9048 0 0 .9048 -716.8 -676.3)" x="-664.27" y="1159.42" font-size="14" opacity=".8"><tspan x="-664.27" y="1159.42"/></text><g font-size="12.67"><text x="877.23" y="18.05" opacity=".8"><tspan x="877.23" y="18.05"/></text><text x="901.19" y="-22.691" opacity=".8"><tspan x="901.19" y="-22.691"/></text><text x="-569.37" y="-52.769" opacity=".8"><tspan x="-569.37" y="-52.769"/></text><text x="-2393.06" y="692.78" opacity=".8"><tspan x="-2393.06" y="692.78"/></text><text x="-454.88" y="-438.09" opacity=".8"><tspan x="-454.88" y="-438.09"/></text><text x="352.72" y="-851.56" opacity=".8"><tspan x="352.72" y="-851.56"/></text><text x="376.68" y="-892.3" opacity=".8"><tspan x="376.68" y="-892.3"/></text><text x="-1114.78" y="-899.51" opacity=".8"><tspan x="-1114.78" y="-899.51"/></text><text x="345.76" y="-1172.75" opacity=".8"><tspan x="345.76" y="-1172.75"/></text><text x="1831.89" y="-546.05" opacity=".8"><tspan x="1831.89" y="-546.05"/></text><text x="1855.85" y="-586.8" opacity=".8"><tspan x="1855.85" y="-586.8"/></text><text x="364.38" y="-594.01" opacity=".8"><tspan x="364.38" y="-594.01"/></text><text x="1824.93" y="-867.24" opacity=".8"><tspan x="1824.93" y="-867.24"/></text><text x="-573.43" y="-642.1" opacity=".8"><tspan x="-573.43" y="-642.1"/></text><text x="-2397.12" y="103.46" opacity=".8"><tspan x="-2397.12" y="103.46"/></text><text x="-682.36" y="196.33" opacity=".8"><tspan x="-682.36" y="196.33"/></text><text x="426.66" y="17.15" opacity=".8"><tspan x="426.66" y="17.15"/></text><text x="450.62" y="-23.596" opacity=".8"><tspan x="450.62" y="-23.596"/></text><text x="-1040.84" y="-30.806" opacity=".8"><tspan x="-1040.84" y="-30.806"/></text><text x="419.7" y="-304.04" opacity=".8"><tspan x="419.7" y="-304.04"/></text><text x="-608.03" y="-33.52" opacity=".8"><tspan x="-608.03" y="-33.52"/></text><text x="-2431.72" y="712.03" opacity=".8"><tspan x="-2431.72" y="712.03"/></text><text x="-456.94" y="-895.05" opacity=".8"><tspan x="-456.94" y="-895.05"/></text><text x="350.66" y="-1308.52" opacity=".8"><tspan x="350.66" y="-1308.52"/></text><text x="374.62" y="-1349.26" opacity=".8"><tspan x="374.62" y="-1349.26"/></text><text x="-1116.84" y="-1356.47" opacity=".8"><tspan x="-1116.84" y="-1356.47"/></text><text x="343.7" y="-1629.71" opacity=".8"><tspan x="343.7" y="-1629.71"/></text><text x="1829.83" y="-1003.02" opacity=".8"><tspan x="1829.83" y="-1003.02"/></text><text x="1853.79" y="-1043.76" opacity=".8"><tspan x="1853.79" y="-1043.76"/></text><text x="362.32" y="-1050.97" opacity=".8"><tspan x="362.32" y="-1050.97"/></text><text x="1822.87" y="-1324.2" opacity=".8"><tspan x="1822.87" y="-1324.2"/></text><text x="-575.49" y="-1099.06" opacity=".8"><tspan x="-575.49" y="-1099.06"/></text><text x="-2399.18" y="-353.5" opacity=".8"><tspan x="-2399.18" y="-353.5"/></text><text x="-684.42" y="-260.63" opacity=".8"><tspan x="-684.42" y="-260.63"/></text><text x="155.59" y="-19.718" opacity=".8"><tspan x="155.59" y="-19.718"/></text><text x="179.55" y="-60.46" opacity=".8"><tspan x="179.55" y="-60.46"/></text><text x="-1090.26" y="-254.49" opacity=".8"><tspan x="-1090.26" y="-254.49"/></text><text x="-282.66" y="-667.96" opacity=".8"><tspan x="-282.66" y="-667.96"/></text><text x="-258.7" y="-708.7" opacity=".8"><tspan x="-258.7" y="-708.7"/></text><text x="-1750.16" y="-715.91" opacity=".8"><tspan x="-1750.16" y="-715.91"/></text><text x="-289.62" y="-989.14" opacity=".8"><tspan x="-289.62" y="-989.14"/></text><text x="1196.5" y="-362.45" opacity=".8"><tspan x="1196.5" y="-362.45"/></text><text x="1220.46" y="-403.19" opacity=".8"><tspan x="1220.46" y="-403.19"/></text><text x="-271" y="-410.4" opacity=".8"><tspan x="-271" y="-410.4"/></text><text x="1189.54" y="-683.64" opacity=".8"><tspan x="1189.54" y="-683.64"/></text><text x="-1208.82" y="-458.5" opacity=".8"><tspan x="-1208.82" y="-458.5"/></text><text x="-3032.5" y="287.06" opacity=".8"><tspan x="-3032.5" y="287.06"/></text></g><text transform="matrix(.9048 0 0 .9048 -716.8 -669)" x="-664.27" y="1159.42" font-size="14" opacity=".8"><tspan x="-664.27" y="1159.42"/></text></g><g font-size="12.67"><text x="435.9" y="-361.23" font-family="'Droid Sans'"><tspan x="435.9" y="-361.23"/><tspan x="435.9" y="-345.39"/></text><g font-family="'Bitstream Vera Sans'"><text x="901.09" y="-843.27" opacity=".8"><tspan x="901.09" y="-843.27"/></text><text x="-922.6" y="-97.72" opacity=".8"><tspan x="-922.6" y="-97.72"/></text><text x="1628.17" y="-1128.27" opacity=".8"><tspan x="1628.17" y="-1128.27"/></text><text x="1652.13" y="-1169.01" opacity=".8"><tspan x="1652.13" y="-1169.01"/></text><text x="160.67" y="-1176.22" opacity=".8"><tspan x="160.67" y="-1176.22"/></text><text x="1621.21" y="-1449.45" opacity=".8"><tspan x="1621.21" y="-1449.45"/></text></g></g></g></g><path transform="matrix(.01637 0 0 .0162 508.7 512.7)" d="m31.72 324.5c-54.47 15.56-98.31 77.46-98.31 137.6v953.3c-55.23-30.84-126.2-43.3-199.7-22.93-132.7 36.76-215.8 155.6-187.4 265.3 28.44 109.8 159.2 171.1 291.9 134.3 105.9-29.33 178.8-112.3 190.5-199.8l3.072-900.9 688.2-196.6v710.9c-55.23-30.84-126.2-43.3-199.7-22.93-132.7 36.76-215.8 155.6-187.4 265.3 28.44 109.8 159.2 171.1 291.9 134.3 105.9-29.33 178.8-112.3 190.5-199.8l3.072-1173c0-45.09-26.14-78.83-61.45-85.17l-725.1 199.8" fill="#fff" fill-opacity=".851" stroke-opacity=".8"/><g transform="matrix(.4348 0 0 .4348 304.1 312.4)"><rect transform="translate(102.2 2.931)" x="385.6" y="500.8" width="46" height="46" rx="23" fill="url(#b)" stroke-width="1.515"/><g transform="matrix(1.231 0 0 1.231 481.2 496)"><g font-family="'Bitstream Vera Sans'"><g font-size="12.67"><text x="877.23" y="10.813" opacity=".8"><tspan x="877.23" y="10.813"/></text><text x="901.19" y="-29.929" opacity=".8"><tspan x="901.19" y="-29.929"/></text><text x="-569.37" y="-60.01" opacity=".8"><tspan x="-569.37" y="-60.01"/></text><text x="-2393.06" y="685.55" opacity=".8"><tspan x="-2393.06" y="685.55"/></text><text x="-454.88" y="-445.33" opacity=".8"><tspan x="-454.88" y="-445.33"/></text><text x="352.72" y="-858.8" opacity=".8"><tspan x="352.72" y="-858.8"/></text><text x="376.68" y="-899.54" opacity=".8"><tspan x="376.68" y="-899.54"/></text><text x="-1114.78" y="-906.75" opacity=".8"><tspan x="-1114.78" y="-906.75"/></text><text x="345.76" y="-1179.98" opacity=".8"><tspan x="345.76" y="-1179.98"/></text><text x="1831.89" y="-553.29" opacity=".8"><tspan x="1831.89" y="-553.29"/></text><text x="1855.85" y="-594.03" opacity=".8"><tspan x="1855.85" y="-594.03"/></text><text x="364.38" y="-601.24" opacity=".8"><tspan x="364.38" y="-601.24"/></text><text x="1824.93" y="-874.48" opacity=".8"><tspan x="1824.93" y="-874.48"/></text><text x="-573.43" y="-649.34" opacity=".8"><tspan x="-573.43" y="-649.34"/></text><text x="-2397.12" y="96.22" opacity=".8"><tspan x="-2397.12" y="96.22"/></text><text x="-682.36" y="189.09" opacity=".8"><tspan x="-682.36" y="189.09"/></text><text x="426.66" y="9.908" opacity=".8"><tspan x="426.66" y="9.908"/></text><text x="450.62" y="-30.834" opacity=".8"><tspan x="450.62" y="-30.834"/></text><text x="-1040.84" y="-38.04" opacity=".8"><tspan x="-1040.84" y="-38.04"/></text><text x="419.7" y="-311.28" opacity=".8"><tspan x="419.7" y="-311.28"/></text><text x="-608.03" y="-40.758" opacity=".8"><tspan x="-608.03" y="-40.758"/></text><text x="-2431.72" y="704.8" opacity=".8"><tspan x="-2431.72" y="704.8"/></text><text x="-456.94" y="-902.29" opacity=".8"><tspan x="-456.94" y="-902.29"/></text><text x="350.66" y="-1315.76" opacity=".8"><tspan x="350.66" y="-1315.76"/></text><text x="374.62" y="-1356.5" opacity=".8"><tspan x="374.62" y="-1356.5"/></text><text x="-1116.84" y="-1363.71" opacity=".8"><tspan x="-1116.84" y="-1363.71"/></text><text x="343.7" y="-1636.94" opacity=".8"><tspan x="343.7" y="-1636.94"/></text><text x="1829.83" y="-1010.25" opacity=".8"><tspan x="1829.83" y="-1010.25"/></text><text x="1853.79" y="-1050.99" opacity=".8"><tspan x="1853.79" y="-1050.99"/></text><text x="362.32" y="-1058.2" opacity=".8"><tspan x="362.32" y="-1058.2"/></text><text x="1822.87" y="-1331.44" opacity=".8"><tspan x="1822.87" y="-1331.44"/></text><text x="-575.49" y="-1106.3" opacity=".8"><tspan x="-575.49" y="-1106.3"/></text><text x="-2399.18" y="-360.74" opacity=".8"><tspan x="-2399.18" y="-360.74"/></text><text x="-684.42" y="-267.87" opacity=".8"><tspan x="-684.42" y="-267.87"/></text><text x="155.59" y="-26.956" opacity=".8"><tspan x="155.59" y="-26.956"/></text><text x="179.55" y="-67.7" opacity=".8"><tspan x="179.55" y="-67.7"/></text><text x="-1090.26" y="-261.73" opacity=".8"><tspan x="-1090.26" y="-261.73"/></text><text x="-282.66" y="-675.2" opacity=".8"><tspan x="-282.66" y="-675.2"/></text><text x="-258.7" y="-715.94" opacity=".8"><tspan x="-258.7" y="-715.94"/></text><text x="-1750.16" y="-723.15" opacity=".8"><tspan x="-1750.16" y="-723.15"/></text><text x="-289.62" y="-996.38" opacity=".8"><tspan x="-289.62" y="-996.38"/></text><text x="1196.5" y="-369.69" opacity=".8"><tspan x="1196.5" y="-369.69"/></text><text x="1220.46" y="-410.43" opacity=".8"><tspan x="1220.46" y="-410.43"/></text><text x="-271" y="-417.64" opacity=".8"><tspan x="-271" y="-417.64"/></text><text x="1189.54" y="-690.88" opacity=".8"><tspan x="1189.54" y="-690.88"/></text><text x="-1208.82" y="-465.73" opacity=".8"><tspan x="-1208.82" y="-465.73"/></text><text x="-3032.5" y="279.82" opacity=".8"><tspan x="-3032.5" y="279.82"/></text></g><text transform="matrix(.9048 0 0 .9048 -716.8 -676.3)" x="-664.27" y="1159.42" font-size="14" opacity=".8"><tspan x="-664.27" y="1159.42"/></text><g font-size="12.67"><text x="877.23" y="18.05" opacity=".8"><tspan x="877.23" y="18.05"/></text><text x="901.19" y="-22.691" opacity=".8"><tspan x="901.19" y="-22.691"/></text><text x="-569.37" y="-52.769" opacity=".8"><tspan x="-569.37" y="-52.769"/></text><text x="-2393.06" y="692.78" opacity=".8"><tspan x="-2393.06" y="692.78"/></text><text x="-454.88" y="-438.09" opacity=".8"><tspan x="-454.88" y="-438.09"/></text><text x="352.72" y="-851.56" opacity=".8"><tspan x="352.72" y="-851.56"/></text><text x="376.68" y="-892.3" opacity=".8"><tspan x="376.68" y="-892.3"/></text><text x="-1114.78" y="-899.51" opacity=".8"><tspan x="-1114.78" y="-899.51"/></text><text x="345.76" y="-1172.75" opacity=".8"><tspan x="345.76" y="-1172.75"/></text><text x="1831.89" y="-546.05" opacity=".8"><tspan x="1831.89" y="-546.05"/></text><text x="1855.85" y="-586.8" opacity=".8"><tspan x="1855.85" y="-586.8"/></text><text x="364.38" y="-594.01" opacity=".8"><tspan x="364.38" y="-594.01"/></text><text x="1824.93" y="-867.24" opacity=".8"><tspan x="1824.93" y="-867.24"/></text><text x="-573.43" y="-642.1" opacity=".8"><tspan x="-573.43" y="-642.1"/></text><text x="-2397.12" y="103.46" opacity=".8"><tspan x="-2397.12" y="103.46"/></text><text x="-682.36" y="196.33" opacity=".8"><tspan x="-682.36" y="196.33"/></text><text x="426.66" y="17.15" opacity=".8"><tspan x="426.66" y="17.15"/></text><text x="450.62" y="-23.596" opacity=".8"><tspan x="450.62" y="-23.596"/></text><text x="-1040.84" y="-30.806" opacity=".8"><tspan x="-1040.84" y="-30.806"/></text><text x="419.7" y="-304.04" opacity=".8"><tspan x="419.7" y="-304.04"/></text><text x="-608.03" y="-33.52" opacity=".8"><tspan x="-608.03" y="-33.52"/></text><text x="-2431.72" y="712.03" opacity=".8"><tspan x="-2431.72" y="712.03"/></text><text x="-456.94" y="-895.05" opacity=".8"><tspan x="-456.94" y="-895.05"/></text><text x="350.66" y="-1308.52" opacity=".8"><tspan x="350.66" y="-1308.52"/></text><text x="374.62" y="-1349.26" opacity=".8"><tspan x="374.62" y="-1349.26"/></text><text x="-1116.84" y="-1356.47" opacity=".8"><tspan x="-1116.84" y="-1356.47"/></text><text x="343.7" y="-1629.71" opacity=".8"><tspan x="343.7" y="-1629.71"/></text><text x="1829.83" y="-1003.02" opacity=".8"><tspan x="1829.83" y="-1003.02"/></text><text x="1853.79" y="-1043.76" opacity=".8"><tspan x="1853.79" y="-1043.76"/></text><text x="362.32" y="-1050.97" opacity=".8"><tspan x="362.32" y="-1050.97"/></text><text x="1822.87" y="-1324.2" opacity=".8"><tspan x="1822.87" y="-1324.2"/></text><text x="-575.49" y="-1099.06" opacity=".8"><tspan x="-575.49" y="-1099.06"/></text><text x="-2399.18" y="-353.5" opacity=".8"><tspan x="-2399.18" y="-353.5"/></text><text x="-684.42" y="-260.63" opacity=".8"><tspan x="-684.42" y="-260.63"/></text><text x="155.59" y="-19.718" opacity=".8"><tspan x="155.59" y="-19.718"/></text><text x="179.55" y="-60.46" opacity=".8"><tspan x="179.55" y="-60.46"/></text><text x="-1090.26" y="-254.49" opacity=".8"><tspan x="-1090.26" y="-254.49"/></text><text x="-282.66" y="-667.96" opacity=".8"><tspan x="-282.66" y="-667.96"/></text><text x="-258.7" y="-708.7" opacity=".8"><tspan x="-258.7" y="-708.7"/></text><text x="-1750.16" y="-715.91" opacity=".8"><tspan x="-1750.16" y="-715.91"/></text><text x="-289.62" y="-989.14" opacity=".8"><tspan x="-289.62" y="-989.14"/></text><text x="1196.5" y="-362.45" opacity=".8"><tspan x="1196.5" y="-362.45"/></text><text x="1220.46" y="-403.19" opacity=".8"><tspan x="1220.46" y="-403.19"/></text><text x="-271" y="-410.4" opacity=".8"><tspan x="-271" y="-410.4"/></text><text x="1189.54" y="-683.64" opacity=".8"><tspan x="1189.54" y="-683.64"/></text><text x="-1208.82" y="-458.5" opacity=".8"><tspan x="-1208.82" y="-458.5"/></text><text x="-3032.5" y="287.06" opacity=".8"><tspan x="-3032.5" y="287.06"/></text></g><text transform="matrix(.9048 0 0 .9048 -716.8 -669)" x="-664.27" y="1159.42" font-size="14" opacity=".8"><tspan x="-664.27" y="1159.42"/></text></g><g font-size="12.67"><text x="435.9" y="-361.23" font-family="'Droid Sans'"><tspan x="435.9" y="-361.23"/><tspan x="435.9" y="-345.39"/></text><g font-family="'Bitstream Vera Sans'"><text x="901.09" y="-843.27" opacity=".8"><tspan x="901.09" y="-843.27"/></text><text x="-922.6" y="-97.72" opacity=".8"><tspan x="-922.6" y="-97.72"/></text><text x="1628.17" y="-1128.27" opacity=".8"><tspan x="1628.17" y="-1128.27"/></text><text x="1652.13" y="-1169.01" opacity=".8"><tspan x="1652.13" y="-1169.01"/></text><text x="160.67" y="-1176.22" opacity=".8"><tspan x="160.67" y="-1176.22"/></text><text x="1621.21" y="-1449.45" opacity=".8"><tspan x="1621.21" y="-1449.45"/></text><text x="808.48" y="9.592" opacity=".8"><tspan x="808.48" y="9.592"/></text><text x="832.44" y="-31.15" opacity=".8"><tspan x="832.44" y="-31.15"/></text><text x="-638.12" y="-61.23" opacity=".8"><tspan x="-638.12" y="-61.23"/></text><text x="-2461.8" y="684.33" opacity=".8"><tspan x="-2461.8" y="684.33"/></text><text x="-523.63" y="-446.55" opacity=".8"><tspan x="-523.63" y="-446.55"/></text><text x="283.98" y="-860.02" opacity=".8"><tspan x="283.98" y="-860.02"/></text><text x="307.94" y="-900.76" opacity=".8"><tspan x="307.94" y="-900.76"/></text><text x="-1183.53" y="-907.97" opacity=".8"><tspan x="-1183.53" y="-907.97"/></text><text x="277.02" y="-1181.2" opacity=".8"><tspan x="277.02" y="-1181.2"/></text><text x="1763.14" y="-554.51" opacity=".8"><tspan x="1763.14" y="-554.51"/></text><text x="1787.1" y="-595.25" opacity=".8"><tspan x="1787.1" y="-595.25"/></text><text x="295.64" y="-602.46" opacity=".8"><tspan x="295.64" y="-602.46"/></text><text x="1756.18" y="-875.7" opacity=".8"><tspan x="1756.18" y="-875.7"/></text><text x="-642.18" y="-650.56" opacity=".8"><tspan x="-642.18" y="-650.56"/></text><text x="-2465.86" y="95" opacity=".8"><tspan x="-2465.86" y="95"/></text><text x="-751.11" y="187.87" opacity=".8"><tspan x="-751.11" y="187.87"/></text><text x="357.92" y="8.688" opacity=".8"><tspan x="357.92" y="8.688"/></text><text x="381.88" y="-32.05" opacity=".8"><tspan x="381.88" y="-32.05"/></text><text x="-1109.59" y="-39.26" opacity=".8"><tspan x="-1109.59" y="-39.26"/></text><text x="350.96" y="-312.5" opacity=".8"><tspan x="350.96" y="-312.5"/></text><text x="-676.78" y="-41.978" opacity=".8"><tspan x="-676.78" y="-41.978"/></text><text x="-2500.46" y="703.58" opacity=".8"><tspan x="-2500.46" y="703.58"/></text><text x="-525.69" y="-903.51" opacity=".8"><tspan x="-525.69" y="-903.51"/></text><text x="281.92" y="-1316.98" opacity=".8"><tspan x="281.92" y="-1316.98"/></text><text x="305.88" y="-1357.72" opacity=".8"><tspan x="305.88" y="-1357.72"/></text><text x="-1185.59" y="-1364.93" opacity=".8"><tspan x="-1185.59" y="-1364.93"/></text><text x="274.96" y="-1638.16" opacity=".8"><tspan x="274.96" y="-1638.16"/></text><text x="1761.08" y="-1011.47" opacity=".8"><tspan x="1761.08" y="-1011.47"/></text><text x="1785.04" y="-1052.22" opacity=".8"><tspan x="1785.04" y="-1052.22"/></text><text x="293.58" y="-1059.43" opacity=".8"><tspan x="293.58" y="-1059.43"/></text><text x="1754.12" y="-1332.66" opacity=".8"><tspan x="1754.12" y="-1332.66"/></text><text x="-644.24" y="-1107.52" opacity=".8"><tspan x="-644.24" y="-1107.52"/></text><text x="-2467.92" y="-361.96" opacity=".8"><tspan x="-2467.92" y="-361.96"/></text><text x="-753.17" y="-269.09" opacity=".8"><tspan x="-753.17" y="-269.09"/></text><text x="86.85" y="-28.18" opacity=".8"><tspan x="86.85" y="-28.18"/></text><text x="110.81" y="-68.918" opacity=".8"><tspan x="110.81" y="-68.918"/></text><text x="-1159.01" y="-262.95" opacity=".8"><tspan x="-1159.01" y="-262.95"/></text><text x="-351.41" y="-676.42" opacity=".8"><tspan x="-351.41" y="-676.42"/></text><text x="-327.45" y="-717.16" opacity=".8"><tspan x="-327.45" y="-717.16"/></text><text x="-1818.91" y="-724.37" opacity=".8"><tspan x="-1818.91" y="-724.37"/></text><text x="-358.37" y="-997.6" opacity=".8"><tspan x="-358.37" y="-997.6"/></text><text x="1127.76" y="-370.91" opacity=".8"><tspan x="1127.76" y="-370.91"/></text><text x="1151.72" y="-411.65" opacity=".8"><tspan x="1151.72" y="-411.65"/></text><text x="-339.75" y="-418.86" opacity=".8"><tspan x="-339.75" y="-418.86"/></text><text x="1120.8" y="-692.1" opacity=".8"><tspan x="1120.8" y="-692.1"/></text><text x="-1277.56" y="-466.95" opacity=".8"><tspan x="-1277.56" y="-466.95"/></text><text x="-3101.25" y="278.6" opacity=".8"><tspan x="-3101.25" y="278.6"/></text></g></g><g font-family="'Bitstream Vera Sans'"><text transform="matrix(.9048 0 0 .9048 -785.5 -677.5)" x="-664.27" y="1159.42" font-size="14" opacity=".8"><tspan x="-664.27" y="1159.42"/></text><g font-size="12.67"><text x="808.48" y="16.83" opacity=".8"><tspan x="808.48" y="16.83"/></text><text x="832.44" y="-23.911" opacity=".8"><tspan x="832.44" y="-23.911"/></text><text x="-638.12" y="-53.99" opacity=".8"><tspan x="-638.12" y="-53.99"/></text><text x="-2461.8" y="691.56" opacity=".8"><tspan x="-2461.8" y="691.56"/></text><text x="-523.63" y="-439.31" opacity=".8"><tspan x="-523.63" y="-439.31"/></text><text x="283.98" y="-852.78" opacity=".8"><tspan x="283.98" y="-852.78"/></text><text x="307.94" y="-893.52" opacity=".8"><tspan x="307.94" y="-893.52"/></text><text x="-1183.53" y="-900.73" opacity=".8"><tspan x="-1183.53" y="-900.73"/></text><text x="277.02" y="-1173.97" opacity=".8"><tspan x="277.02" y="-1173.97"/></text><text x="1763.14" y="-547.28" opacity=".8"><tspan x="1763.14" y="-547.28"/></text><text x="1787.1" y="-588.02" opacity=".8"><tspan x="1787.1" y="-588.02"/></text><text x="295.64" y="-595.23" opacity=".8"><tspan x="295.64" y="-595.23"/></text><text x="1756.18" y="-868.46" opacity=".8"><tspan x="1756.18" y="-868.46"/></text><text x="-642.18" y="-643.32" opacity=".8"><tspan x="-642.18" y="-643.32"/></text><text x="-2465.86" y="102.24" opacity=".8"><tspan x="-2465.86" y="102.24"/></text><text x="-751.11" y="195.11" opacity=".8"><tspan x="-751.11" y="195.11"/></text><text x="357.92" y="15.926" opacity=".8"><tspan x="357.92" y="15.926"/></text><text x="381.88" y="-24.816" opacity=".8"><tspan x="381.88" y="-24.816"/></text><text x="-1109.59" y="-32.03" opacity=".8"><tspan x="-1109.59" y="-32.03"/></text><text x="350.96" y="-305.26" opacity=".8"><tspan x="350.96" y="-305.26"/></text><text x="-676.78" y="-34.74" opacity=".8"><tspan x="-676.78" y="-34.74"/></text><text x="-2500.46" y="710.81" opacity=".8"><tspan x="-2500.46" y="710.81"/></text><text x="-525.69" y="-896.27" opacity=".8"><tspan x="-525.69" y="-896.27"/></text><text x="281.92" y="-1309.74" opacity=".8"><tspan x="281.92" y="-1309.74"/></text><text x="305.88" y="-1350.48" opacity=".8"><tspan x="305.88" y="-1350.48"/></text><text x="-1185.59" y="-1357.69" opacity=".8"><tspan x="-1185.59" y="-1357.69"/></text><text x="274.96" y="-1630.93" opacity=".8"><tspan x="274.96" y="-1630.93"/></text><text x="1761.08" y="-1004.24" opacity=".8"><tspan x="1761.08" y="-1004.24"/></text><text x="1785.04" y="-1044.98" opacity=".8"><tspan x="1785.04" y="-1044.98"/></text><text x="293.58" y="-1052.19" opacity=".8"><tspan x="293.58" y="-1052.19"/></text><text x="1754.12" y="-1325.42" opacity=".8"><tspan x="1754.12" y="-1325.42"/></text><text x="-644.24" y="-1100.28" opacity=".8"><tspan x="-644.24" y="-1100.28"/></text><text x="-2467.92" y="-354.72" opacity=".8"><tspan x="-2467.92" y="-354.72"/></text><text x="-753.17" y="-261.85" opacity=".8"><tspan x="-753.17" y="-261.85"/></text><text x="86.85" y="-20.939" opacity=".8"><tspan x="86.85" y="-20.939"/></text><text x="110.81" y="-61.68" opacity=".8"><tspan x="110.81" y="-61.68"/></text><text x="-1159.01" y="-255.71" opacity=".8"><tspan x="-1159.01" y="-255.71"/></text><text x="-351.41" y="-669.18" opacity=".8"><tspan x="-351.41" y="-669.18"/></text><text x="-327.45" y="-709.92" opacity=".8"><tspan x="-327.45" y="-709.92"/></text><text x="-1818.91" y="-717.13" opacity=".8"><tspan x="-1818.91" y="-717.13"/></text><text x="-358.37" y="-990.36" opacity=".8"><tspan x="-358.37" y="-990.36"/></text><text x="1127.76" y="-363.67" opacity=".8"><tspan x="1127.76" y="-363.67"/></text><text x="1151.72" y="-404.42" opacity=".8"><tspan x="1151.72" y="-404.42"/></text><text x="-339.75" y="-411.63" opacity=".8"><tspan x="-339.75" y="-411.63"/></text><text x="1120.8" y="-684.86" opacity=".8"><tspan x="1120.8" y="-684.86"/></text><text x="-1277.56" y="-459.72" opacity=".8"><tspan x="-1277.56" y="-459.72"/></text><text x="-3101.25" y="285.84" opacity=".8"><tspan x="-3101.25" y="285.84"/></text></g><text transform="matrix(.9048 0 0 .9048 -785.5 -670.3)" x="-664.27" y="1159.42" font-size="14" opacity=".8"><tspan x="-664.27" y="1159.42"/></text></g><g font-size="12.67"><text x="367.16" y="-362.45" font-family="'Droid Sans'"><tspan x="367.16" y="-362.45"/><tspan x="367.16" y="-346.61"/></text><g font-family="'Bitstream Vera Sans'"><text x="832.34" y="-844.49" opacity=".8"><tspan x="832.34" y="-844.49"/></text><text x="-991.34" y="-98.94" opacity=".8"><tspan x="-991.34" y="-98.94"/></text><text x="1559.42" y="-1129.49" opacity=".8"><tspan x="1559.42" y="-1129.49"/></text><text x="1583.38" y="-1170.23" opacity=".8"><tspan x="1583.38" y="-1170.23"/></text><text x="91.92" y="-1177.44" opacity=".8"><tspan x="91.92" y="-1177.44"/></text><text x="1552.46" y="-1450.67" opacity=".8"><tspan x="1552.46" y="-1450.67"/></text><text x="747.23" y="8.597" opacity=".8"><tspan x="747.23" y="8.597"/></text><text x="771.19" y="-32.14" opacity=".8"><tspan x="771.19" y="-32.14"/></text><text x="-699.37" y="-62.22" opacity=".8"><tspan x="-699.37" y="-62.22"/></text><text x="-2523.06" y="683.33" opacity=".8"><tspan x="-2523.06" y="683.33"/></text><text x="-584.88" y="-447.54" opacity=".8"><tspan x="-584.88" y="-447.54"/></text><text x="222.72" y="-861.01" opacity=".8"><tspan x="222.72" y="-861.01"/></text><text x="246.68" y="-901.76" opacity=".8"><tspan x="246.68" y="-901.76"/></text><text x="-1244.78" y="-908.97" opacity=".8"><tspan x="-1244.78" y="-908.97"/></text><text x="215.76" y="-1182.2" opacity=".8"><tspan x="215.76" y="-1182.2"/></text><text x="1701.89" y="-555.51" opacity=".8"><tspan x="1701.89" y="-555.51"/></text><text x="1725.85" y="-596.25" opacity=".8"><tspan x="1725.85" y="-596.25"/></text><text x="234.39" y="-603.46" opacity=".8"><tspan x="234.39" y="-603.46"/></text><text x="1694.93" y="-876.69" opacity=".8"><tspan x="1694.93" y="-876.69"/></text><text x="-703.43" y="-651.55" opacity=".8"><tspan x="-703.43" y="-651.55"/></text><text x="-2527.12" y="94" opacity=".8"><tspan x="-2527.12" y="94"/></text><text x="-812.36" y="186.87" opacity=".8"><tspan x="-812.36" y="186.87"/></text><text x="296.66" y="7.692" opacity=".8"><tspan x="296.66" y="7.692"/></text><text x="320.62" y="-33.05" opacity=".8"><tspan x="320.62" y="-33.05"/></text><text x="-1170.84" y="-40.26" opacity=".8"><tspan x="-1170.84" y="-40.26"/></text><text x="289.7" y="-313.49" opacity=".8"><tspan x="289.7" y="-313.49"/></text><text x="-738.03" y="-42.973" opacity=".8"><tspan x="-738.03" y="-42.973"/></text><text x="-2561.72" y="702.58" opacity=".8"><tspan x="-2561.72" y="702.58"/></text><text x="-586.94" y="-904.5" opacity=".8"><tspan x="-586.94" y="-904.5"/></text><text x="220.66" y="-1317.97" opacity=".8"><tspan x="220.66" y="-1317.97"/></text><text x="244.63" y="-1358.72" opacity=".8"><tspan x="244.63" y="-1358.72"/></text><text x="-1246.84" y="-1365.93" opacity=".8"><tspan x="-1246.84" y="-1365.93"/></text><text x="213.7" y="-1639.16" opacity=".8"><tspan x="213.7" y="-1639.16"/></text><text x="1699.83" y="-1012.47" opacity=".8"><tspan x="1699.83" y="-1012.47"/></text><text x="1723.79" y="-1053.21" opacity=".8"><tspan x="1723.79" y="-1053.21"/></text><text x="232.33" y="-1060.42" opacity=".8"><tspan x="232.33" y="-1060.42"/></text><text x="1692.87" y="-1333.65" opacity=".8"><tspan x="1692.87" y="-1333.65"/></text><text x="-705.49" y="-1108.51" opacity=".8"><tspan x="-705.49" y="-1108.51"/></text><text x="-2529.18" y="-362.96" opacity=".8"><tspan x="-2529.18" y="-362.96"/></text><text x="-814.42" y="-270.09" opacity=".8"><tspan x="-814.42" y="-270.09"/></text><text x="25.594" y="-29.17" opacity=".8"><tspan x="25.594" y="-29.17"/></text><text x="49.555" y="-69.913" opacity=".8"><tspan x="49.555" y="-69.913"/></text><text x="-1220.26" y="-263.94" opacity=".8"><tspan x="-1220.26" y="-263.94"/></text><text x="-412.66" y="-677.41" opacity=".8"><tspan x="-412.66" y="-677.41"/></text><text x="-388.7" y="-718.15" opacity=".8"><tspan x="-388.7" y="-718.15"/></text><text x="-1880.16" y="-725.36" opacity=".8"><tspan x="-1880.16" y="-725.36"/></text><text x="-419.62" y="-998.6" opacity=".8"><tspan x="-419.62" y="-998.6"/></text><text x="1066.5" y="-371.91" opacity=".8"><tspan x="1066.5" y="-371.91"/></text><text x="1090.47" y="-412.65" opacity=".8"><tspan x="1090.47" y="-412.65"/></text><text x="-401" y="-419.86" opacity=".8"><tspan x="-401" y="-419.86"/></text><text x="1059.54" y="-693.09" opacity=".8"><tspan x="1059.54" y="-693.09"/></text><text x="-1338.81" y="-467.95" opacity=".8"><tspan x="-1338.81" y="-467.95"/></text><text x="-3162.5" y="277.6" opacity=".8"><tspan x="-3162.5" y="277.6"/></text><text x="-1447.74" y="370.48" opacity=".8"><tspan x="-1447.74" y="370.48"/></text><text x="747.23" y="15.835" opacity=".8"><tspan x="747.23" y="15.835"/></text><text x="771.19" y="-24.907" opacity=".8"><tspan x="771.19" y="-24.907"/></text><text x="-699.37" y="-54.985" opacity=".8"><tspan x="-699.37" y="-54.985"/></text><text x="-2523.06" y="690.57" opacity=".8"><tspan x="-2523.06" y="690.57"/></text><text x="-584.88" y="-440.31" opacity=".8"><tspan x="-584.88" y="-440.31"/></text><text x="222.72" y="-853.78" opacity=".8"><tspan x="222.72" y="-853.78"/></text><text x="246.68" y="-894.52" opacity=".8"><tspan x="246.68" y="-894.52"/></text><text x="-1244.78" y="-901.73" opacity=".8"><tspan x="-1244.78" y="-901.73"/></text><text x="215.76" y="-1174.96" opacity=".8"><tspan x="215.76" y="-1174.96"/></text><text x="1701.89" y="-548.27" opacity=".8"><tspan x="1701.89" y="-548.27"/></text><text x="1725.85" y="-589.01" opacity=".8"><tspan x="1725.85" y="-589.01"/></text><text x="234.39" y="-596.22" opacity=".8"><tspan x="234.39" y="-596.22"/></text><text x="1694.93" y="-869.46" opacity=".8"><tspan x="1694.93" y="-869.46"/></text><text x="-703.43" y="-644.31" opacity=".8"><tspan x="-703.43" y="-644.31"/></text><text x="-2527.12" y="101.24" opacity=".8"><tspan x="-2527.12" y="101.24"/></text><text x="-812.36" y="194.11" opacity=".8"><tspan x="-812.36" y="194.11"/></text><text x="296.66" y="14.93" opacity=".8"><tspan x="296.66" y="14.93"/></text><text x="320.62" y="-25.811" opacity=".8"><tspan x="320.62" y="-25.811"/></text><text x="-1170.84" y="-33.02" opacity=".8"><tspan x="-1170.84" y="-33.02"/></text><text x="289.7" y="-306.26" opacity=".8"><tspan x="289.7" y="-306.26"/></text><text x="-738.03" y="-35.735" opacity=".8"><tspan x="-738.03" y="-35.735"/></text><text x="-2561.72" y="709.82" opacity=".8"><tspan x="-2561.72" y="709.82"/></text><text x="-586.94" y="-897.27" opacity=".8"><tspan x="-586.94" y="-897.27"/></text><text x="220.66" y="-1310.74" opacity=".8"><tspan x="220.66" y="-1310.74"/></text><text x="244.63" y="-1351.48" opacity=".8"><tspan x="244.63" y="-1351.48"/></text><text x="-1246.84" y="-1358.69" opacity=".8"><tspan x="-1246.84" y="-1358.69"/></text><text x="213.7" y="-1631.92" opacity=".8"><tspan x="213.7" y="-1631.92"/></text><text x="1699.83" y="-1005.23" opacity=".8"><tspan x="1699.83" y="-1005.23"/></text><text x="1723.79" y="-1045.97" opacity=".8"><tspan x="1723.79" y="-1045.97"/></text><text x="232.33" y="-1053.18" opacity=".8"><tspan x="232.33" y="-1053.18"/></text><text x="1692.87" y="-1326.42" opacity=".8"><tspan x="1692.87" y="-1326.42"/></text><text x="-705.49" y="-1101.27" opacity=".8"><tspan x="-705.49" y="-1101.27"/></text><text x="-2529.18" y="-355.72" opacity=".8"><tspan x="-2529.18" y="-355.72"/></text><text x="-814.42" y="-262.85" opacity=".8"><tspan x="-814.42" y="-262.85"/></text><text x="25.594" y="-21.934" opacity=".8"><tspan x="25.594" y="-21.934"/></text><text x="49.555" y="-62.68" opacity=".8"><tspan x="49.555" y="-62.68"/></text><text x="-1220.26" y="-256.7" opacity=".8"><tspan x="-1220.26" y="-256.7"/></text><text x="-412.66" y="-670.17" opacity=".8"><tspan x="-412.66" y="-670.17"/></text><text x="-388.7" y="-710.92" opacity=".8"><tspan x="-388.7" y="-710.92"/></text><text x="-1880.16" y="-718.13" opacity=".8"><tspan x="-1880.16" y="-718.13"/></text><text x="-419.62" y="-991.36" opacity=".8"><tspan x="-419.62" y="-991.36"/></text><text x="1066.5" y="-364.67" opacity=".8"><tspan x="1066.5" y="-364.67"/></text><text x="1090.47" y="-405.41" opacity=".8"><tspan x="1090.47" y="-405.41"/></text><text x="-401" y="-412.62" opacity=".8"><tspan x="-401" y="-412.62"/></text><text x="1059.54" y="-685.85" opacity=".8"><tspan x="1059.54" y="-685.85"/></text><text x="-1338.81" y="-460.71" opacity=".8"><tspan x="-1338.81" y="-460.71"/></text><text x="-3162.5" y="284.84" opacity=".8"><tspan x="-3162.5" y="284.84"/></text><text x="-1447.74" y="377.71" opacity=".8"><tspan x="-1447.74" y="377.71"/></text></g><text x="305.91" y="-363.44" font-family="'Droid Sans'"><tspan x="305.91" y="-363.44"/><tspan x="305.91" y="-347.61"/></text><g font-family="'Bitstream Vera Sans'"><text x="771.09" y="-845.49" opacity=".8"><tspan x="771.09" y="-845.49"/></text><text x="-1052.6" y="-99.93" opacity=".8"><tspan x="-1052.6" y="-99.93"/></text><text x="1498.17" y="-1130.48" opacity=".8"><tspan x="1498.17" y="-1130.48"/></text><text x="1522.13" y="-1171.22" opacity=".8"><tspan x="1522.13" y="-1171.22"/></text><text x="30.667" y="-1178.43" opacity=".8"><tspan x="30.667" y="-1178.43"/></text><text x="1491.21" y="-1451.67" opacity=".8"><tspan x="1491.21" y="-1451.67"/></text></g></g></g></g><path transform="matrix(.4855 0 0 .4855 331.6 283.4)" d="m400.1 520.1-6.589 11.49c-1.385 2.43-1.492 5.519 0 8.12 2.242 3.911 7.23 5.263 11.14 3.02 3.911-2.242 5.263-7.23 3.02-11.14l-6.589-11.49c-0.218-0.38-0.765-0.38-0.983 0" fill="#fff" fill-opacity=".851"/></g></svg>
