<svg viewBox="0 0 48 48" xmlns="http://www.w3.org/2000/svg"><defs><linearGradient id="a" x1="-36.1" x2="-36.21" y1="413.6" y2="404.4" gradientUnits="userSpaceOnUse"><stop stop-color="#ff433a" offset="0"/><stop stop-color="#ff9436" offset="1"/></linearGradient><linearGradient id="b" x1="-10.77" x2="-11.23" y1="4.675" y2="-22.85" gradientTransform="matrix(15.93 0 0 15.39 -156.5 587.3)" gradientUnits="userSpaceOnUse"><stop stop-color="#141414" offset="0"/><stop stop-color="#2d2d2f" offset="1"/></linearGradient></defs><g transform="matrix(.1114 0 0 .1114 59.9 -26.03)"><rect x="-537.8" y="233.7" width="431" height="431" rx="27.7" fill="url(#b)"/><path transform="matrix(31.82 0 0 31.82 818.1 -12568)" d="m-36.489 404.42l-1.136.304.649 2.424-1.774-1.774-.831.831 1.774 1.774-2.424-.649-.304 1.136 2.423.649-2.423.649.304 1.136 3.803-1.019v3.937h1.176v-3.937l3.803 1.019.305-1.136-2.424-.649 2.424-.649-.305-1.136-2.423.649 1.774-1.774-.831-.831-1.775 1.775.65-2.425-1.136-.304-.649 2.424-.649-2.424" fill="url(#a)"/></g></svg>
