<svg viewBox="0 0 48 48" xmlns="http://www.w3.org/2000/svg"><defs><clipPath id="a"><path transform="matrix(15.33 0 0 11.5 415 -125.5)" d="m-24 13c0 1.105-0.672 2-1.5 2s-1.5-0.895-1.5-2 0.672-2 1.5-2 1.5 0.895 1.5 2" fill="#1890d0"/></clipPath><linearGradient id="b" x1="-10.77" x2="-11.23" y1="4.675" y2="-22.85" gradientTransform="matrix(1.774 0 0 1.714 42.46 39.38)" gradientUnits="userSpaceOnUse"><stop stop-color="#c52828" offset="0"/><stop stop-color="#ff5454" offset="1"/></linearGradient></defs><g enable-background="new"><rect width="48" height="48" rx="3.085" fill="url(#b)" stroke-width="1.714"/></g><g transform="matrix(1.416 0 0 1.416 -9.995 -9.989)" fill="#f9ebeb"><g transform="matrix(1.032 0 0 1.032 -.766 .254)" clip-path="url(#a)"><path d="m24 16-3.75 6-5.25-3 0.996 5.75-4.996 1.25 4.996 4v0c0-4.418 3.582-8 8-8s8 3.578 8 8l5-4-5-1.25 1-5.75-5.254 3"/></g></g></svg>
