<svg viewBox="0 0 48 48" xmlns="http://www.w3.org/2000/svg"><defs><linearGradient id="a" x1="25.31" x2="24.73" y1="49.17" y2="1.607" gradientUnits="userSpaceOnUse"><stop stop-color="#dc3c30" offset="0"/><stop stop-color="#ff786d" offset="1"/></linearGradient></defs><g transform="translate(0-.951)" fill="#fce5e3"><g fill-rule="evenodd"><rect x=".802" y=".951" width="46.4" height="48" rx="2.982" fill="url(#a)" stroke-width=".478"/><g transform="matrix(.4778 0 0 .4778 84.55 14.05)" fill="#6c2621"><circle cx="-164" cy="-17.74" r="3.5"/><circle cx="-154.8" cy="-17.74" r="3.5"/><circle cx="-145.5" cy="-17.74" r="3.5"/></g></g><g fill="#6c2621"><path transform="matrix(2.103 0 0 2.103 -21.45 -2127)" d="m17.8 1020c2.099 0 3.801 1.699 3.801 3.798h-3.801c1e-4 0 1e-4 -3.798 0-3.798m-1.069 1.033v3.801h3.801c0 2.102-1.701 3.801-3.801 3.801s-3.8-1.7-3.8-3.801c0-2.1 1.7-3.801 3.8-3.801"/><g fill-rule="evenodd"><rect x="27.12" y="21.48" width="14.26" height="2.732" rx="1.366"/><rect x="27.14" y="26.31" width="14.07" height="2.777" rx="1.366"/><rect x="27.16" y="31.3" width="14.22" height="2.719" rx="1.36"/></g></g></g></svg>
