<svg viewBox="0 0 48 48" xmlns="http://www.w3.org/2000/svg"><defs><linearGradient id="b" x1="-989.7" x2="-1004" y1="433.3" y2="317.4" gradientTransform="matrix(.9998 0 0 .9863 -.833 5.996)" gradientUnits="userSpaceOnUse"><stop stop-color="#1584d8" offset="0"/><stop stop-color="#1cb2ff" offset="1"/></linearGradient><linearGradient id="a" x1="-1093" x2="-1060" y1="203.1" y2="104.8" gradientTransform="matrix(.9983 0 0 .9851 -2.169 6.702)" gradientUnits="userSpaceOnUse"><stop stop-color="#f2b333" offset="0"/><stop stop-color="#fcde3f" offset="1"/></linearGradient></defs><g transform="translate(-384.9-499.85)"><text x="300.29" y="516.22" font-family="sans-serif" font-size="5" letter-spacing="0" word-spacing="0" line-height="125%"><tspan x="300.29" y="516.22"/></text><g transform="matrix(1.074 -.1393 .1393 1.074 -153.2 32.48)"><g transform="matrix(.326 .04227 -.04227 .326 785 394)"><rect transform="matrix(.9491 -.3149 .3072 .9516 0 0)" x="-1101" y="117.6" width="89.62" height="112.9" rx="2.756" fill="url(#a)"/><rect transform="matrix(.9921-.12541.13781.99046 0 0)" x="-1046" y="318" width="99.8" height="121.2" rx="2.959" fill="url(#b)"/></g><path transform="matrix(.04269-.0014.0014.04269 448.43 507.86)" d="m462.5 96.19-21.73-21.73c-8.951-8.95-23.56-8.95-32.59 0l-227.8 227.9-119.3-119.3c-8.95-8.951-23.56-8.951-32.59 0l-21.73 21.73c-8.95 8.951-8.95 23.56 0 32.59l157.3 157.3c4.514 4.514 10.33 6.809 16.22 6.809s11.78-2.295 16.22-6.809l265.8-265.8c9.18-9.103 9.18-23.64 0.23-32.59" fill="#fff" opacity=".7" stroke-width="4.248"/></g><flowRoot font-family="sans-serif" font-size="10" letter-spacing="0" word-spacing="0" line-height="125%"><flowRegion><path d="m-1370-469.3h135.6v166.6h-135.6z"/></flowRegion><flowPara/></flowRoot></g></svg>
