<svg viewBox="0 0 48 48" xmlns="http://www.w3.org/2000/svg"><defs><linearGradient id="a" x2="0" y1="232.5" y2="176.5" gradientUnits="userSpaceOnUse"><stop stop-color="#ffc515" offset="0"/><stop stop-color="#ffd55b" offset="1"/></linearGradient></defs><path transform="matrix(.8642 0 0 .8642 -621.9 -152.6)" d="m773.16 188.32c-.017-1.302-1.019-2.377-2.315-2.496-10.772-1.01-19.563-6.764-22.461-8.87-.606-.442-1.426-.442-2.032 0-2.893 2.106-11.683 7.863-22.456 8.87-1.296.119-2.293 1.194-2.315 2.496-.13 8.497 1.234 37.34 25.14 43.762.425.113.872.113 1.296 0 23.905-6.413 25.27-35.27 25.14-43.762" fill="url(#a)"/><g fill="#40330d"><path transform="matrix(.03866 0 0 .03866 14.02 14.02)" d="m353.8 0c-89.89 0-162.6 72.67-162.6 162.6 0 19.12 3.825 38.25 9.562 57.37l-200.8 200.8v95.62h95.62v-57.37h57.37v-57.37h57.37l86.06-86.06c17.21 5.737 36.34 9.562 57.37 9.562 89.89 0 162.6-72.68 162.6-162.6 0-89.89-72.67-162.6-162.6-162.6m47.81 172.1c-32.51 0-57.37-24.86-57.37-57.37 0-32.51 24.86-57.37 57.37-57.37 32.51 0 57.37 24.86 57.37 57.37 0 32.51-24.86 57.37-57.37 57.37z" stroke="#1f2a47"/></g></svg>
