<svg viewBox="0 0 48 48" xmlns="http://www.w3.org/2000/svg"><defs><linearGradient id="a" x1="-10.77" x2="-11.23" y1="4.675" y2="-22.85" gradientTransform="matrix(1.774 0 0 1.714 42.46 39.38)" gradientUnits="userSpaceOnUse"><stop stop-color="#197cf1" offset="0"/><stop stop-color="#21c9fb" offset="1"/></linearGradient></defs><rect width="48" height="48" rx="3.085" fill="url(#a)"/><path d="m26.814 12.623c-3.908 0-7.27 2.279-8.754 5.545h-.002c-.794-.624-1.789-.994-2.871-.994-2.547 0-4.621 2.056-4.686 4.617-2.63.997-4.502 3.562-4.502 6.568 0 3.552 2.612 6.489 6 6.951v.066h24v-.012c3.347-.197 6-3 6-6.436 0-3.312-2.468-6.04-5.645-6.406.013-.201.021-.405.021-.609 0-5.131-4.281-9.291-9.563-9.291m-1.17 4.576l-1.15 5.6 4.438 2.4-6.576 8 1.15-5.598-4.438-2.402 6.576-8" fill="#fff" fill-opacity=".848"/></svg>
