<svg viewBox="0 0 48 48" xmlns="http://www.w3.org/2000/svg" xmlns:xlink="http://www.w3.org/1999/xlink"><defs><linearGradient id="b" x1="63.44" x2="58.43" y1="46.08" y2="4.511" gradientUnits="userSpaceOnUse"><stop stop-color="#2a2c2f" offset="0"/><stop stop-color="#424649" offset="1"/></linearGradient><linearGradient id="c" x1="-1093" x2="-1060" y1="203.1" y2="104.8" gradientTransform="matrix(.3578 0 0 .3517 429.1 -23.82)" gradientUnits="userSpaceOnUse" xlink:href="#a"/><linearGradient id="d" x1="79.11" x2="79.02" y1="33.27" y2="14.71" gradientUnits="userSpaceOnUse" xlink:href="#a"/><linearGradient id="a"><stop stop-color="#ff9300" offset="0"/><stop stop-color="#ffd702" offset="1"/></linearGradient></defs><g transform="matrix(1 0 0 1 -38.37 5.882)" enable-background="new"><rect transform="matrix(.94958-.31353.30858.9512 0 0)" x="35.25" y="15.76" width="32.12" height="40.32" rx=".984" fill="url(#c)"/><rect transform="matrix(.9919 -.1272 .1359 .9907 0 0)" x="43.35" y="4.133" width="35.8" height="44.08" rx="1.076" fill="url(#b)"/><g fill="#fff" fill-opacity=".851"><path d="m57.733 12.926c-.367-.251-.867-.157-1.118.21l-4.071 5.95c-.12.176-.166.393-.127.602.039.21.16.395.336.515l5.925 4.053c.183.125.4.165.602.127.202-.038.39-.153.515-.336.251-.367.157-.867-.21-1.118l-5.261-3.599 3.617-5.286c.251-.367.157-.867-.21-1.117"/><path d="m76.4 14.589l-5.926-4.053c-.366-.251-.867-.157-1.117.21-.251.367-.157.867.21 1.118l5.262 3.599-3.617 5.286c-.251.367-.157.867.21 1.118.183.125.4.165.602.127.202-.038.39-.153.515-.336l4.071-5.95c.12-.176.166-.393.127-.602-.04-.209-.16-.395-.337-.515"/><path d="m67.76 10.828c-.398-.196-.88-.032-1.076.367l-5.684 11.557c-.196.398-.032.88.367 1.076.162.08.338.1.502.069.24-.045.458-.199.574-.436l5.684-11.557c.196-.398.032-.88-.366-1.076"/></g><circle transform="matrix(.9941 .1086 -.1086 .9941 0 0)" cx="79.45" cy="23.84" r="9.767" fill="url(#d)"/><path d="m78.23 34.735c-.206 1.953-3.107 1.375-4.235.605-.468-.385-.866-.261-1.224.096-.248.371-.261.976.192 1.347 1.897 1.568 6.957 1.485 7.05-2.01.096-3.657-5.885-2.365-5.514-4.62.289-1.43 2.599-1.128 3.616-.481.825.605 1.815-.591.88-1.348-1.897-1.457-5.926-.976-6.242 1.691-.426 3.905 5.294 2.681 5.472 4.716z" fill="#fff" fill-opacity=".851" stroke="#ffefda" stroke-width=".4"/></g></svg>
