<svg viewBox="0 0 48 48" xmlns="http://www.w3.org/2000/svg"><defs><linearGradient id="a" x1="-10.77" x2="-11.23" y1="4.675" y2="-22.85" gradientTransform="matrix(1.774 0 0 1.714 42.46 39.38)" gradientUnits="userSpaceOnUse"><stop stop-color="#197cf1" offset="0"/><stop stop-color="#21c9fb" offset="1"/></linearGradient></defs><rect width="48" height="48" rx="3.085" fill="url(#a)"/><g fill="#fff" fill-opacity=".836"><path transform="matrix(.1019 0 0 .1019 7.999 7.999)" d="m282.6 222.6v-49.85c0-17.34-14.06-31.4-31.4-31.4h-78.5v-49.84c18.29-6.474 31.4-23.87 31.4-44.37 0-26.01-21.1-47.1-47.1-47.1-26.01 0-47.1 21.09-47.1 47.1 0 20.5 13.12 37.89 31.4 44.37v49.84h-78.5c-17.34 0-31.4 14.06-31.4 31.4v49.85c-18.29 6.46-31.4 23.86-31.4 44.35 0 26 21.09 47.1 47.1 47.1s47.1-21.1 47.1-47.1c0-20.5-13.12-37.9-31.4-44.35v-49.85h78.5v49.85c-18.28 6.46-31.4 23.86-31.4 44.35 0 26 21.09 47.1 47.1 47.1 26 0 47.1-21.1 47.1-47.1 0-20.5-13.12-37.9-31.4-44.35v-49.85h78.5v49.85c-18.28 6.46-31.4 23.86-31.4 44.35 0 26 21.09 47.1 47.1 47.1s47.1-21.1 47.1-47.1c-2e-3 -20.5-13.12-37.89-31.4-44.35" fill="#fff" fill-opacity=".836"/></g></svg>
