<svg viewBox="0 0 48 48" xmlns="http://www.w3.org/2000/svg" xmlns:xlink="http://www.w3.org/1999/xlink"><defs><linearGradient id="b" x1="-67.12" x2="-67.53" y1="44.93" y2="11.17" gradientUnits="userSpaceOnUse"><stop stop-color="#197ff1" offset="0"/><stop stop-color="#21c6fb" offset="1"/></linearGradient><linearGradient id="c" x1="248.2" x2="248" y1="-6.236" y2="-40.76" gradientTransform="matrix(.4309 0 0 .4338 -176.4 16.09)" gradientUnits="userSpaceOnUse" xlink:href="#a"/><linearGradient id="d" x1="-67.06" x2="-67.19" y1="22.42" y2="17.94" gradientUnits="userSpaceOnUse" xlink:href="#a"/><linearGradient id="a" x1="400.5" x2="400.7" y1="546.1" y2="517.8" gradientUnits="userSpaceOnUse"><stop stop-color="#2e3e46" offset="0"/><stop stop-color="#435a64" offset="1"/></linearGradient></defs><g transform="translate(90.51-.814)"><path d="m-88.38 3.304c-.477 0-.862.387-.862.868v35.4l44.839.104v-30.381c0-.481-.384-.868-.862-.868h-20.942c-.879.078-.991-.039-1.425-.622-.616-.829-1.545-3.062-2.151-3.873-.486-.708-.565-.626-1.372-.626z" fill="url(#c)"/><rect x="-90.51" y="10.99" width="48" height="35.33" rx="1.663" fill="url(#b)"/><rect x="-73.77" y="19.65" width="14.52" height="2.689" rx="1.182" fill="url(#d)" fill-rule="evenodd"/></g></svg>
