<svg version="1.1" viewBox="0 0 48 48" xmlns="http://www.w3.org/2000/svg" xmlns:xlink="http://www.w3.org/1999/xlink"><defs><linearGradient id="d" x1="81.55" x2="80.96" y1="44.46" y2="5.777" gradientUnits="userSpaceOnUse" xlink:href="#b"/><linearGradient id="e" x1="81.64" x2="81.17" y1="45.61" y2="3.762" gradientUnits="userSpaceOnUse" xlink:href="#b"/><linearGradient id="c" x1="81.17" x2="81.24" y1="20.52" y2="29.03" gradientUnits="userSpaceOnUse" xlink:href="#b"/><linearGradient id="a" x2="0" y1="-6.537" y2="-44.52" gradientUnits="userSpaceOnUse"><stop stop-color="#c0c1c4" offset="0"/><stop stop-color="#eaeaea" offset="1"/></linearGradient><linearGradient id="f" x2="0" y1="41.92" y2="5.564" gradientUnits="userSpaceOnUse" xlink:href="#a"/><linearGradient id="b"><stop stop-color="#141414" offset="0"/><stop stop-color="#2d2d2f" offset="1"/></linearGradient><linearGradient id="g" x1="81.26" x2="81.15" y1="27.84" y2="20.84" gradientUnits="userSpaceOnUse" xlink:href="#a"/></defs><g transform="translate(-57.48-.615)"><rect x="57.48" y="3.665" width="48" height="41.9" rx="2.898" fill="url(#e)" stroke-width="1.079"/><circle transform="scale(1-1)" cx="81.47" cy="-24.62" r="16.72" fill="url(#a)"/><circle cx="81.47" cy="24.61" r="16" fill="url(#f)"/><path d="m93.4 23.285c-.038-.337-.431-.591-.772-.591-1.099 0-2.076-.646-2.485-1.644-.418-1.023-.149-2.215.671-2.968.258-.236.289-.63.073-.905-.563-.714-1.203-1.361-1.902-1.92-.273-.22-.675-.189-.912.074-.715.792-2 1.086-2.993.672-1.033-.435-1.685-1.482-1.621-2.606.021-.353-.237-.66-.589-.701-.896-.103-1.801-.107-2.7-.008-.348.039-.606.338-.594.687.039 1.113-.62 2.142-1.643 2.561-.981.401-2.257.109-2.97-.677-.236-.258-.63-.291-.906-.076-.719.564-1.374 1.21-1.941 1.919-.222.276-.189.675.072.912.835.756 1.105 1.96.671 2.994-.414.987-1.438 1.622-2.611 1.622-.38-.012-.652.243-.693.589-.105.902-.107 1.82-.005 2.73.038.339.443.59.786.59 1.045-.027 2.048.62 2.469 1.644.419 1.023.15 2.215-.671 2.968-.257.235-.289.63-.073.905.558.71 1.197 1.356 1.899 1.921.275.222.675.19.913-.072.718-.794 2-1.088 2.992-.673 1.036.433 1.687 1.48 1.624 2.605-.02.354.238.661.589.701.459.054.92.08 1.383.08.439 0 .878-.024 1.317-.073.348-.039.606-.338.594-.688-.041-1.112.62-2.141 1.642-2.559.988-.403 2.258-.108 2.972.677.237.258.63.289.906.076.718-.563 1.371-1.208 1.941-1.919.222-.275.19-.675-.072-.912-.835-.756-1.106-1.96-.672-2.994.408-.973 1.394-1.626 2.455-1.626l.149.003c.344.028.661-.237.702-.588.106-.903.107-1.82.005-2.73m-11.907 5.36c-2.207 0-4-1.795-4-4 0-2.207 1.795-4 4-4 2.207 0 4 1.795 4 4 0 2.207-1.795 4-4 4" fill="url(#d)" stroke-width="1.317"/><circle cx="81.47" cy="24.61" r="4.615" fill="url(#c)"/><circle cx="81.47" cy="24.61" r="3.231" fill="url(#g)"/></g></svg>
