<svg viewBox="0 0 48 48" xmlns="http://www.w3.org/2000/svg"><defs><linearGradient id="a" x1="294.4" x2="290.3" y1="182.6" y2="30.6" gradientUnits="userSpaceOnUse"><stop stop-color="#566069" offset="0"/><stop stop-color="#6c7884" offset="1"/></linearGradient></defs><circle transform="matrix(1.638 0 0 1.638 -632.3 -847.2)" cx="400.6" cy="531.8" r="14" fill="#5ea5fb" fill-opacity="0"/><path transform="matrix(.3287 0 0 .3287 -72.11 -11.33)" d="m290.3 145.6c2.824 0 5.27-1.031 7.332-3.096 2.064-2.063 3.098-4.508 3.098-7.332v-52.14c0-2.825-1.033-5.269-3.098-7.332-2.062-2.065-4.507-3.097-7.332-3.097s-5.269 1.033-7.333 3.097c-2.064 2.063-3.096 4.508-3.096 7.332v52.14c0 2.824 1.032 5.269 3.096 7.332 2.064 2.065 4.509 3.096 7.333 3.096m75.09-38.06c0 40.32-32.69 73.01-73.01 73.01-40.32 0-73.01-32.69-73.01-73.01 0-40.32 32.69-73.01 73.01-73.01 40.32 0 73.01 32.69 73.01 73.01" fill="url(#a)"/></svg>
