<svg viewBox="0 0 48 48" xmlns="http://www.w3.org/2000/svg"><defs><linearGradient id="a" x2="0" y1="35.14" y2="4.445" gradientTransform="matrix(1.4 0 0 1.4 109.9 1027)" gradientUnits="userSpaceOnUse"><stop stop-color="#ff433a" offset="0"/><stop stop-color="#ff9436" offset="1"/></linearGradient></defs><path transform="matrix(1.143 0 0 1.143 -51.08 -1182)" d="m65.69 1034c-11.61 0-21 9.393-21 21 0 11.61 9.391 21 21 21s21-9.39 21-21c0-11.61-9.391-21-21-21" fill="url(#a)"/><g enable-background="new"><path transform="matrix(-1.043 0 0 1.043 135.7 11.94)" d="m96.42 19.336l3.261-3.901c.65-.774 1.833-.858 2.637-.186l1.965 1.643c.108-.073.22-.149.338-.23 1.083-.733 2.565-1.738 4.059-3.526 1.499-1.793 2.225-3.432 2.757-4.628.056-.127.11-.249.163-.365l-1.319-1.101-.649-.543c-.805-.673-.931-1.852-.283-2.629l3.261-3.902c.648-.775 1.832-.859 2.637-.186l1.1.925-.025.03c.377.402.704.874.963 1.393.24.494.404.971.503 1.455.823 3.878-.648 7.621-5.075 12.917-6.12 7.32-11.581 7.296-11.817 7.292-.514-.015-1.013-.093-1.526-.242-.551-.16-1.074-.398-1.536-.697l-.02.022-1.112-.91c-.804-.673-.931-1.853-.283-2.63" fill-opacity=".653"/></g></svg>
