<svg viewBox="0 0 48 48" xmlns="http://www.w3.org/2000/svg"><defs><linearGradient id="a" x2="0" y1="542.8" y2="507.8" gradientTransform="matrix(.6364 0 0 .6214 -252.2 -311.1)" gradientUnits="userSpaceOnUse"><stop stop-color="#c52828" offset="0"/><stop stop-color="#ff5454" offset="1"/></linearGradient></defs><g transform="matrix(1.714 0 0 1.714 10.65 -1.748)" enable-background="new"><rect x="-6.211" y="4.461" width="28" height="21.13" rx=".994" fill="url(#a)"/><g fill-opacity=".751" stroke="#3e1414" stroke-linecap="round" stroke-linejoin="round" stroke-width=".175"><path d="m5.085 13.1c-.031-.029-.07-.044-.118-.044h-4.923c-.048 0-.087.015-.118.044-.031.029-.046.067-.046.112v.312c0 .046.015.083.046.112.031.029.07.044.118.044h4.923c.048 0 .087-.015.118-.044.031-.029.046-.067.046-.112v-.312c0-.046-.015-.083-.046-.112z"/><path d="m-2.792 8.489c-.034-.033-.074-.049-.118-.049-.044 0-.084.016-.118.049l-.256.244c-.034.033-.051.07-.051.112 0 .042.017.08.051.112l2.02 1.917-2.02 1.918c-.034.033-.051.07-.051.112 0 .042.017.08.051.112l.256.244c.034.033.073.049.118.049.044 0 .084-.016.118-.049l2.39-2.274c.034-.033.051-.07.051-.112 0-.042-.017-.08-.051-.112l-2.39-2.274z"/></g></g></svg>
