<svg viewBox="0 0 48 48" xmlns="http://www.w3.org/2000/svg" xmlns:xlink="http://www.w3.org/1999/xlink"><defs><linearGradient id="a"><stop stop-color="#124da4" offset="0"/><stop stop-color="#2896ff" offset="1"/></linearGradient><linearGradient id="c" x1="317.9" x2="318" y1="569" y2="473.2" gradientUnits="userSpaceOnUse" xlink:href="#a"/><linearGradient id="b" x1="205" x2="204.7" y1="573.2" y2="473.6" gradientUnits="userSpaceOnUse" xlink:href="#a"/></defs><g transform="matrix(.4677 0 0 .4677-72.04-220.2)"><g transform="matrix(1.01 0 0 1.01 -2.49 -5.618)"><path transform="translate(-111.7 1.997)" d="m317.9 472c-27.16 0-49.18 22.02-49.18 49.18s22.02 49.18 49.18 49.18 49.18-22.02 49.18-49.18-22.02-49.18-49.18-49.18" fill="url(#c)"/><g transform="matrix(.7515 -.2314 .2314 .7515 71.74 462.4)" fill-rule="evenodd"><path d="m196.1 154.9c7.198-20.3 7.779-41.2-17.64-56.11l4.317-3.19c-33.41-13.9-50.55-6.02-60.17 9.209l5.185-1.514c1.562 20.79 14.9 19.71 22.71 28.9 43.89-14.31 39.51 8.194 45.6 22.71" fill="#f1f1f1"/><path d="m167.1 177.8c8.641-2.653 22.37-12.91 27.05-27.05 0 0 0.927 0.564 1.815 4.556 7.521-14.86 2.477-26.25-4.317-37.16-0.071 4.666-3.941 6.756-3.941 6.756-5.01-7.951-12.58-12.51-21.49-15.31-11.41-3.587-30.63 8.1-38.19-5.518 1.189 11.77 6.298 18.57 13.32 19.33 10.95 15.72 36.46 24.24 25.75 54.4" fill="#dedede"/><path d="m124.8 181.3c27.86 9.665 66.27-5.834 53.82-42.36-0.842 2.036-4.504 4.129-4.504 4.129-14.14-24.21-34.68-21.71-54.61-21.77 22.76-0.355 30.36 37.04 5.301 60" fill="#c1c1c1"/><path d="m116.2 178.5c19.42 11.24 37.62-5.289 41.93-27.98 0 0-4.263 4.02-7.01 4.193 10.58-27.77-18.53-34.05-32.2-32.48 26.76 9.961 28.85 41-2.716 56.27" fill="#999"/><path d="m105.5 135c4.911-8.397 13.75-13.69 31.03-13.45-5.117-4.987-7.896-10.78-8.509-18.46-21.69 2.823-23.46 17.28-22.52 31.9" fill="#dedede"/><path d="m148.7 110.36c.424 12.609 16.17 6.077 13.761-1.562-4.295.131-8.506.15-13.761 1.562" fill="#999"/></g></g><path d="m205.4 472.4c-27.45 0-49.7 22.25-49.7 49.7s22.25 49.7 49.7 49.7 49.7-22.25 49.7-49.7-22.25-49.7-49.7-49.7z" fill="none" stroke="url(#b)" stroke-width="3.241"/></g></svg>
