<svg viewBox="0 0 48 48" xmlns="http://www.w3.org/2000/svg"><defs><linearGradient id="a" x1="-10.77" x2="-11.23" y1="4.675" y2="-22.85" gradientTransform="matrix(1.774 0 0 1.714 42.46 39.38)" gradientUnits="userSpaceOnUse"><stop stop-color="#155bc2" offset="0"/><stop stop-color="#369dff" offset="1"/></linearGradient></defs><g enable-background="new"><rect width="48" height="48" rx="3.085" fill="url(#a)" stroke-width="1.714"/></g><path d="m8.416 8c-.23 0-.416.186-.416.416v31.17c0 .23.186.416.416.416h11.635c.23 0 .416-.186.416-.416v-31.17c0-.23-.186-.416-.416-.416h-11.635m19.533 0c-.23 0-.416.186-.416.416v19.324c0 .23.186.416.416.416h11.635c.23 0 .416-.186.416-.416v-19.324c0-.23-.186-.416-.416-.416h-11.635" fill="#dfebfa"/></svg>
