<svg viewBox="0 0 48 48" xmlns="http://www.w3.org/2000/svg"><defs><clipPath id="b"><path transform="matrix(15.33 0 0 11.5 415 -125.5)" d="m-24 13c0 1.105-0.672 2-1.5 2s-1.5-0.895-1.5-2 0.672-2 1.5-2 1.5 0.895 1.5 2" fill="#1890d0"/></clipPath><linearGradient id="c" x2="0" y1="22.37" y2="-26.43" gradientUnits="userSpaceOnUse"><stop stop-color="#d8d8d8" offset="0"/><stop stop-color="#fff" offset="1"/></linearGradient><linearGradient id="a" x1="6.579" x2="6.382" y1="3.106" y2="10.57" gradientUnits="userSpaceOnUse"><stop stop-color="#0a80fd" offset="0"/><stop stop-color="#56c5fa" offset="1"/></linearGradient></defs><g enable-background="new"><circle transform="matrix(1 0 0 1 -38.37 25.88)" cx="62.37" cy="-1.875" r="24" fill="url(#c)"/></g><g transform="translate(-.953.003)"><g clip-path="url(#b)"><path transform="matrix(3.233 0 0 3.27 2.475 2.249)" d="m9.803 3.153c-.535-.398-3.888 3.202-4.04 3.13-.25-.147.412-2.681.145-2.804-.505-.245-2.832 4.442-3.441 6.123l.484.423c.822-2.03 5.07.399 5.28.135.124-.208-2.357-1.767-2.247-1.994.175-.355 4.319 1.28 4.467 1.031.116-.202-1.897-1.711-1.874-1.92.098-.233 2.948-1.325 2.884-1.608-.353-.859-4.867 1.41-5.076 1.151-.121-.225 3.776-3.373 3.414-3.667" fill="url(#a)" stroke="url(#a)" stroke-width=".282"/></g></g></svg>
