<svg viewBox="0 0 48 48" xmlns="http://www.w3.org/2000/svg" xmlns:xlink="http://www.w3.org/1999/xlink"><defs><linearGradient id="a"><stop stop-color="#f4501b" offset="0"/><stop stop-color="#fdbc4b" offset="1"/></linearGradient><linearGradient id="b" x2="0" y1="-15.39" y2="-39.39" gradientUnits="userSpaceOnUse" xlink:href="#a"/><linearGradient id="c" x1="-61.86" x2="-61.69" y1="-.386" y2="-31.86" gradientUnits="userSpaceOnUse"><stop stop-color="#bbbec4" offset="0"/><stop stop-color="#dddfe2" offset="1"/></linearGradient><linearGradient id="f" x2="0" y1="5.383" y2="2.392" gradientUnits="userSpaceOnUse"><stop stop-color="#040404" offset="0"/><stop stop-color="#121212" stop-opacity=".908" offset="1"/></linearGradient><linearGradient id="d" x1="10.09" x2="122.7" gradientTransform="matrix(.35 0 0 .3442 -84.47 -33.61)" gradientUnits="userSpaceOnUse"><stop stop-color="#1a1a1a" offset="0"/><stop stop-color="#2c2c2e" offset=".111"/><stop stop-color="#2b2b2d" offset=".29"/><stop stop-color="#2a2b2d" offset=".512"/><stop stop-color="#2b2b2d" offset=".752"/><stop stop-color="#323232" offset=".897"/><stop stop-color="#171717" offset="1"/></linearGradient><linearGradient id="e" x2="0" y1="544.3" y2="543" gradientTransform="matrix(.7122 0 0 1.409 -381.7 -762.3)" gradientUnits="userSpaceOnUse" xlink:href="#a"/></defs><g transform="matrix(1 0 0 1 -38.37 25.88)" enable-background="new"><g transform="matrix(1.046 0 0 1.046 123.5 15.19)"><path d="m-80.94.075l.35 5.517c0 .572.468 1.033 1.05 1.033h36.624c.582 0 1.05-.461 1.05-1.033l.35-5.517h-39.42" fill="url(#d)"/><path d="m-77.79-32.27h32.776c.582 0 1.05.461 1.05 1.033l2.451 31.14c0 .572-.468 1.033-1.05 1.033h-37.33c-.582 0-1.05-.461-1.05-1.033l2.1-31.14c0-.572.468-1.033 1.05-1.033" fill="url(#c)"/><rect x="-69.24" y="3.494" width="16.15" height="1.083" rx=".542" fill="url(#e)"/><ellipse cx="-46.39" cy="4.074" rx="1.495" ry="1.495" fill="url(#f)" opacity=".452"/><g fill="#e3e8ea" stroke-width="1.317"><path d="m-46.39 4.113c.034 0 .063-.012.088-.037.025-.025.037-.054.037-.088v-.623c0-.034-.012-.063-.037-.088-.025-.025-.054-.037-.088-.037-.034 0-.063.012-.088.037-.025.025-.037.054-.037.088v.623c0 .034.012.063.037.088.025.025.054.037.088.037" opacity=".668"/><path d="m-45.724 3.779c-.052-.104-.126-.192-.221-.263-.027-.021-.058-.029-.093-.024-.034.005-.062.021-.082.049-.021.027-.029.058-.024.092.005.034.021.062.048.082.064.048.113.107.147.176.035.069.052.143.052.222 0 .068-.013.132-.039.193-.026.061-.062.114-.107.159-.045.045-.098.08-.159.107-.061.026-.126.039-.193.039-.068 0-.132-.013-.193-.039-.061-.026-.114-.062-.159-.107-.045-.045-.08-.098-.107-.159-.026-.061-.039-.126-.039-.193 0-.079.017-.153.052-.222.035-.069.084-.128.148-.176.027-.021.043-.048.048-.082.005-.034-.003-.065-.024-.092-.02-.028-.047-.044-.081-.049-.034-.005-.065.004-.093.024-.095.071-.168.158-.221.263-.052.105-.078.216-.078.334 0 .101.02.198.059.29.04.092.093.172.16.239.067.067.146.12.239.16.092.04.189.059.29.059.101 0 .198-.02.29-.059.092-.04.172-.093.239-.16.067-.067.12-.146.16-.239.04-.092.059-.189.059-.29 0-.118-.026-.229-.078-.334" opacity=".668"/></g></g><path transform="matrix(.36634 0 0 .36634-9.559-31.13)" d="m202.8 58.7c3.02 1.463 6.876 0.595 8.618-1.937 1.743-2.533 0.71-5.771-2.309-7.233-3.02-1.462-6.876-0.595-8.619 1.938-1.742 2.532-0.709 5.77 2.309 7.231zm-12.92 34.24c-2.775 0-5.405-0.518-7.765-1.439l-4.385 6.594c3.663 1.522 7.786 2.382 12.15 2.382 2.538 0 4.992-0.295 7.324-0.837 0.413-2.127 1.918-4.087 4.317-5.25 2.395-1.16 5.167-1.275 7.567-0.514 4.666-3.85 7.703-9.09 8.145-14.92l-8.994-0.11c-0.828 7.902-8.728 14.1-18.36 14.1zm0-30.94c9.631 0 17.53 6.196 18.36 14.1l8.994-0.11c-0.443-5.833-3.479-11.07-8.146-14.92-2.399 0.76-5.171 0.645-7.566-0.515-2.399-1.162-3.904-3.122-4.316-5.249-2.332-0.541-4.786-0.837-7.324-0.837-4.364 0-8.487 0.86-12.15 2.382l4.385 6.593c2.36-0.921 4.99-1.439 7.765-1.439zm-18.43 15.47c0-5.234 3.099-9.856 7.838-12.66l-4.613-6.486c-5.522 3.097-9.631 7.83-11.34 13.37 1.993 1.363 3.267 3.44 3.267 5.767s-1.274 4.404-3.267 5.767c1.706 5.545 5.814 10.28 11.34 13.37l4.614-6.486c-4.739-2.799-7.838-7.421-7.838-12.66zm31.35 18.77c-3.02 1.462-4.052 4.7-2.31 7.232 1.743 2.533 5.6 3.401 8.619 1.938 3.02-1.462 4.051-4.7 2.309-7.232s-5.6-3.4-8.618-1.938zm-45.06-24.07c-3.486 0-6.311 2.37-6.311 5.296 0 2.925 2.825 5.295 6.311 5.295 3.485 0 6.31-2.37 6.31-5.295s-2.825-5.296-6.31-5.296" fill="#a1a7ae" stroke="#909296" stroke-width=".302"/><circle transform="matrix(1.046 0 0 1.046 122.3 15.34)" cx="-46.79" cy="-27.39" r="12" fill="url(#b)"/><path d="m74.87-11.22 2.7-2.7 2.1 2.1-6.3 6.3-6.3-6.3 2.1-2.1 2.7 2.7v-9.9h3v9.9" fill="#fff" fill-opacity=".854"/></g></svg>
