<svg viewBox="0 0 48 48" xmlns="http://www.w3.org/2000/svg"><defs><linearGradient id="a" x2="0" y1="545.1" y2="518.1" gradientUnits="userSpaceOnUse"><stop stop-color="#97a9b1" offset="0"/><stop stop-color="#cfdce1" offset="1"/></linearGradient></defs><g transform="matrix(1.714 0 0 1.714 -69.21 13.51)" enable-background="new"><g transform="translate(-346.2 -525.7)"><circle cx="400.6" cy="531.8" r="14" fill="url(#a)"/><circle cx="400.6" cy="531.8" r="14" fill="#5ea5fb" fill-opacity="0"/></g><path transform="translate(-29.53 -11.36)" d="m84.988 25.632q-.443.467-1.12.467-.677 0-1.143-.467-.443-.467-.443-1.12 0-.653.443-1.12.467-.467 1.143-.467.677 0 1.12.467.467.467.467 1.12 0 .653-.467 1.12m-.023-4.853h-2.193v-1.097q0-1.05.443-1.797.443-.77 1.563-1.797.63-.583.887-.863.28-.303.537-.817.28-.537.28-1.097 0-1.073-.7-1.727-.677-.653-1.89-.653-2.01 0-2.753 2.24l-2.01-.84q.49-1.33 1.68-2.38 1.213-1.073 3.08-1.073 2.123 0 3.453 1.26 1.33 1.237 1.33 3.173 0 .84-.443 1.703-.443.863-.793 1.237-.327.35-.933.91-.07.07-.117.117-1.423 1.283-1.423 2.567v.933" fill-opacity=".763"/></g></svg>
