<svg viewBox="0 0 48 48" xmlns="http://www.w3.org/2000/svg"><defs><linearGradient id="a" x1="407.2" x2="406.3" y1="549.7" y2="498.4" gradientUnits="userSpaceOnUse"><stop stop-color="#69159f" offset="0"/><stop stop-color="#b92ff5" offset="1"/></linearGradient></defs><g color-rendering="auto" image-rendering="auto" shape-rendering="auto"><circle transform="translate(-384.57-499.8)" cx="408.6" cy="523.8" r="24" fill="url(#a)"/></g><path transform="matrix(.09744 0 0 .09744 92.46-31.611)" d="m-560.3 545.8c-1-1.311-2.296-2.092-3.929-2.34l-34.23-5.238c-1.871-5.986-4.429-12.1-7.672-18.33 2.243-3.118 5.61-7.513 10.1-13.19 4.489-5.676 7.669-9.821 9.541-12.44 0.999-1.373 1.495-2.806 1.495-4.303 0-1.745-0.434-3.116-1.309-4.115-4.489-6.363-14.78-16.96-30.87-31.8-1.493-1.247-3.054-1.869-4.673-1.869-1.871 0-3.369 0.56-4.491 1.681l-26.56 20.02c-5.116-2.62-10.73-4.928-16.84-6.935l-5.238-34.42c-0.124-1.621-0.843-2.962-2.152-4.02-1.311-1.061-2.836-1.589-4.586-1.589h-41.54c-3.617 0-5.862 1.745-6.735 5.238-1.621 6.234-3.431 17.83-5.426 34.79-5.862 1.874-11.53 4.243-17.02 7.111l-25.82-20.02c-1.621-1.247-3.242-1.869-4.863-1.869-2.744 0-8.636 4.457-17.68 13.38-9.04 8.919-15.18 15.62-18.44 20.11-1.123 1.621-1.683 3.056-1.683 4.303 0 1.497 0.622 2.994 1.869 4.489 8.356 10.1 15.03 18.71 20.02 25.82-3.118 5.736-5.55 11.47-7.295 17.21l-34.79 5.238c-1.371 0.25-2.556 1.061-3.555 2.434-0.999 1.371-1.497 2.806-1.497 4.301v41.54c0 1.623 0.498 3.086 1.497 4.395 0.999 1.311 2.296 2.094 3.929 2.342l34.24 5.05c1.745 6.11 4.301 12.28 7.669 18.51-2.243 3.118-5.612 7.513-10.1 13.19-4.489 5.676-7.672 9.821-9.541 12.44-0.999 1.375-1.497 2.806-1.497 4.303 0 1.621 0.436 3.054 1.309 4.301 4.863 6.737 15.15 17.22 30.87 31.43 1.373 1.373 2.932 2.057 4.677 2.057 1.871 0 3.431-0.56 4.677-1.681l26.38-20.02c5.116 2.62 10.73 4.928 16.84 6.935l5.238 34.42c0.126 1.621 0.843 2.962 2.152 4.02 1.309 1.063 2.838 1.589 4.583 1.589h41.54c3.621 0 5.865-1.745 6.739-5.238 1.619-6.237 3.426-17.83 5.421-34.79 5.862-1.871 11.55-4.243 17.02-7.111l25.82 20.21c1.745 1.121 3.369 1.681 4.863 1.681 2.742 0 8.604-4.425 17.58-13.28 8.983-8.854 15.16-15.59 18.51-20.21 1.123-1.247 1.685-2.68 1.685-4.301s-0.622-3.185-1.871-4.677c-8.978-10.98-15.65-19.58-20.02-25.82 2.494-4.615 4.928-10.29 7.297-17.02l34.6-5.235c1.495-0.25 2.746-1.063 3.743-2.436s1.493-2.808 1.493-4.303v-41.54c0-1.621-0.494-3.084-1.495-4.395m-108.3 58.65c-9.353 9.355-20.64 14.03-33.86 14.03s-24.51-4.677-33.86-14.03c-9.353-9.353-14.03-20.64-14.03-33.86 0-13.22 4.675-24.51 14.03-33.86 9.355-9.353 20.64-14.03 33.86-14.03 13.22 0 24.51 4.677 33.86 14.03 9.353 9.355 14.03 20.64 14.03 33.86 0 13.22-4.677 24.51-14.03 33.86" fill="#fff" fill-opacity=".85"/></svg>
