<svg viewBox="0 0 48 48" xmlns="http://www.w3.org/2000/svg" xmlns:xlink="http://www.w3.org/1999/xlink"><defs><linearGradient id="a" x2="0" y1="22.37" y2="-26.43" gradientUnits="userSpaceOnUse"><stop stop-color="#d8d8d8" offset="0"/><stop stop-color="#fff" offset="1"/></linearGradient><linearGradient id="b" x1="316.9" x2="319.8" y1="298.3" y2="151.4" gradientUnits="userSpaceOnUse"><stop stop-color="#494c86" offset="0"/><stop stop-color="#7277d1" offset="1"/></linearGradient><linearGradient id="d" x2="0" y1="35.14" y2="4.445" gradientTransform="matrix(1.4 0 0 1.4 109.9 1027)" gradientUnits="userSpaceOnUse" xlink:href="#a"/><linearGradient id="c" x1="24.79" x2="24.2" y1="47.32" y2=".483" gradientUnits="userSpaceOnUse" xlink:href="#a"/></defs><path transform="matrix(1.143 0 0 1.143 -51.08 -1182)" d="m65.69 1034c-11.61 0-21 9.393-21 21 0 11.61 9.391 21 21 21s21-9.39 21-21c0-11.61-9.391-21-21-21" fill="url(#d)"/><path transform="matrix(.18959 0 0 .18959-38.35-9.58)" d="m349.6 176.8c54 34.69 106.4 0.671 106.4 0.671-13.47 58.91-27.26 119.4-138.4 125.9-78.94-15.91-116.1-76.56-114.3-117.5 17.77-1.656 42.05-5.469 50.36-10.22 20-11.4 42-33.59 96 1.095" fill="url(#b)"/><path d="m24 0.68c-12.89 0-23.32 10.43-23.32 23.32 0 12.89 10.43 23.32 23.32 23.32s23.32-10.43 23.32-23.32c0-12.89-10.43-23.32-23.32-23.32z" fill="none" stroke="url(#c)" stroke-width="1.36"/></svg>
