<svg viewBox="0 0 48 48" xmlns="http://www.w3.org/2000/svg" xmlns:xlink="http://www.w3.org/1999/xlink"><defs><linearGradient id="d" x1="96.68" x2="96.33" y1="490.4" y2="462.8" gradientUnits="userSpaceOnUse" xlink:href="#a"/><linearGradient id="c" x1="44.16" x2="44.26" y1="490.6" y2="461.9" gradientUnits="userSpaceOnUse" xlink:href="#a"/><linearGradient id="b" x1="72.85" x2="72.29" y1="491.2" y2="462.7" gradientTransform="matrix(1.0021 0 0 1-.15.002)" gradientUnits="userSpaceOnUse" xlink:href="#a"/><linearGradient id="a"><stop stop-color="#2e3436" offset="0"/><stop stop-color="#555753" offset="1"/></linearGradient><linearGradient id="e" x1="68.77" x2="66.53" y1="571.8" y2="491.1" gradientUnits="userSpaceOnUse"><stop stop-color="#ff803f" offset="0"/><stop stop-color="#ffc200" offset="1"/></linearGradient></defs><g transform="matrix(.3987 0 0 .3987 -4.744 -182.1)"><rect x="11.9" y="465.2" width="120.4" height="106.8" rx="5.03" fill="url(#e)"/><g fill-rule="evenodd"><path d="m18.54 462.2h107.1c3.856 0 6.711 3.098 6.711 6.947v21.9h-120.5v-21.9c0-3.848 2.855-6.947 6.711-6.947z" fill="url(#b)" stroke="url(#b)" stroke-linecap="round" stroke-linejoin="round" stroke-width=".107"/><g fill="#fff" fill-opacity=".948" stroke-width="1.125"><path d="m79.77 490.5h19.1l14.93-13.2-14.93-14.61h-19.1l13.53 14.61z" stroke="url(#d)"/><path d="m31.68 490.5h19.1l14.93-13.2-14.93-14.61h-19.1l13.53 14.61z" stroke="url(#c)"/></g><path transform="matrix(.6228 0 0 .7508 100.2 126.8)" d="m-23.99 538-42.14 24.33v-48.66z" fill="#fefefe" fill-opacity=".847" stroke="#feecd7" stroke-linecap="round" stroke-linejoin="round" stroke-width="4.792"/></g></g></svg>
