<svg viewBox="0 0 48 48" xmlns="http://www.w3.org/2000/svg"><defs><linearGradient id="a" x1="61.57" x2="60.75" y1="22.94" y2="-27.71" gradientUnits="userSpaceOnUse"><stop stop-color="#2b65bd" offset="0"/><stop stop-color="#64a3dc" offset="1"/></linearGradient></defs><path transform="matrix(1 0 0 1 -38.38 25.88)" d="m41.36-25.88h42.04c1.652 0 2.982 1.33 2.982 2.982v42.04c0 1.652-1.33 2.982-2.982 2.982h-42.04c-1.652 0-2.982-1.33-2.982-2.982v-42.04c0-1.652 1.33-2.982 2.982-2.982" fill="url(#a)" fill-rule="evenodd"/><path d="m8.475 8c-1.149 0-2.075.841-2.075 1.886v28.23c0 1.045.926 1.886 2.075 1.886h31.05c1.149 0 2.075-.841 2.075-1.886v-28.23c0-1.045-.926-1.886-2.075-1.886m-29.575 3.784h28.1v18.614h-5.6v2.619h-3.1v3.199h-10.6v-3.199h-3.3v-2.619h-5.5zm2.831 2.813v7.362h4v-7.362zm6.281 0v7.362h4v-7.362zm6.082 0v7.362h4v-7.362zm6.082 0v7.362h3.999v-7.362z" fill="#e4edf7"/></svg>
