<svg viewBox="0 0 48 48" xmlns="http://www.w3.org/2000/svg" xmlns:xlink="http://www.w3.org/1999/xlink"><defs><linearGradient id="c" x1="438.2" x2="438.1" y1="564" y2="545.9" gradientUnits="userSpaceOnUse" xlink:href="#a"/><linearGradient id="d" x1="-10.77" x2="-11.23" y1="4.675" y2="-22.85" gradientTransform="matrix(1.774 0 0 1.714 42.46 39.38)" gradientUnits="userSpaceOnUse"><stop stop-color="#0e2732" offset="0"/><stop stop-color="#1b5571" offset="1"/></linearGradient><linearGradient id="b" x1="444.7" x2="443" y1="561.7" y2="536.9" gradientUnits="userSpaceOnUse" xlink:href="#a"/><linearGradient id="a" x2="0" y1="551.7" y2="528.3" gradientUnits="userSpaceOnUse"><stop stop-color="#197ff1" offset="0"/><stop stop-color="#21c6fb" offset="1"/></linearGradient></defs><g enable-background="new"><rect width="48" height="48" rx="3.085" fill="url(#d)" stroke-width="1.714"/></g><g transform="matrix(1.247 0 0 1.247 -522.3 -663.1)"><path d="m438.2 538.3a12.62 12.62 0 0 0-12.62 12.62 12.62 12.62 0 0 0 0.2784 2.567 9.317 9.317 0 0 1 9.293-8.835 9.317 9.317 0 0 1 9.317 9.317 9.317 9.317 0 0 1-1.426 4.927c1.482 0.14 3.383 0.106 5.191-0.337a12.62 12.62 0 0 0 2.587-7.639 12.62 12.62 0 0 0-12.62-12.62" fill="url(#b)"/><path d="m428.8 549.8c-1.124 1.463-1.735 3.198-1.737 4.937 0 2.399 1.183 4.784 3.216 6.481s4.889 2.684 7.764 2.684c1.753-1e-4 3.505-0.359 5.061-1.035s2.912-1.668 3.92-2.866c-1.757 0.208-3.584-0.044-5.175-0.713-1.591-0.67-2.939-1.754-3.818-3.071-1.132-1.386-1.704-3.1-1.597-4.787 0.107-1.688 0.891-3.339 2.191-4.612-4.33-0.893-7.501 0.186-9.823 2.983" fill="url(#c)"/></g></svg>
