<svg viewBox="0 0 48 48" xmlns="http://www.w3.org/2000/svg"><defs><linearGradient id="a" x1="23.06" x2="22.72" y1="34.84" y2="7.091" gradientUnits="userSpaceOnUse"><stop stop-color="#276ad6" offset="0"/><stop stop-color="#41aaff" offset="1"/></linearGradient></defs><g transform="matrix(1.714 0 0 1.714 -69.21 13.51)" enable-background="new"><g transform="translate(32.08-14.583)" fill-rule="evenodd"><rect x="8.76" y="6.708" width="27.06" height="28" rx="1.739" fill="url(#a)"/><g fill="#fcfcfc" fill-opacity=".85"><circle cx="11.89" cy="9.405" r=".976"/><circle cx="14.47" cy="9.405" r=".976"/><circle cx="17.07" cy="9.405" r=".976"/></g></g><path transform="matrix(0-.05719.05719 0 40.571-14.933)" d="m-394.8 88.29c-84.49 0-153 68.5-153 153s68.51 153 153 153 153-68.51 153-153-68.5-153-153-153m0 79.16c5.702 0 10.31 4.633 10.31 10.33v109.4l42.58-42.58c4.04-4.03 10.57-4.01 14.62 0.025 4.04 4.03 4.04 10.55 0 14.59l-58.42 58.45c-2.479 2.468-5.887 3.232-9.09 2.664-3.213 0.568-6.61-0.186-9.09-2.665l-58.42-58.45c-4.04-4.03-4.04-10.55 0-14.59 4.03-4.04 10.55-4.04 14.59 0l42.58 42.56v-109.4c0-5.702 4.633-10.33 10.33-10.33" fill="#e0f0fd"/></g></svg>
