<svg viewBox="0 0 48 48" xmlns="http://www.w3.org/2000/svg" xmlns:xlink="http://www.w3.org/1999/xlink"><defs><linearGradient id="b" x1="4.199" x2="4.065" y1="12.93" y2="-6.998" gradientUnits="userSpaceOnUse"><stop stop-color="#3d65cb" offset="0"/><stop stop-color="#4571d1" offset="1"/></linearGradient><linearGradient id="d" x1=".152" x2=".021" y1="18.84" y2="7.269" gradientUnits="userSpaceOnUse" xlink:href="#a"/><linearGradient id="c" x1="5.71" x2="4.751" y1="18.23" y2="-6.444" gradientUnits="userSpaceOnUse" xlink:href="#a"/><linearGradient id="a"><stop stop-color="#197cf1" offset="0"/><stop stop-color="#59d0ff" offset="1"/></linearGradient></defs><g transform="matrix(1.714 0 0 1.714 -69.21 13.51)" enable-background="new"><g transform="translate(49.58)"><path d="m18.79 1.925-14.1-8.582-13.9 8.592 24.28 16.97h1.759s1.956-0.014 1.962-1.82z" fill="url(#c)"/><path d="m-4.292-5.481h18.319c.963 0 1.738.775 1.738 1.738v7.805l-11.433 7.88-10.363-7.341v-8.344c0-.963.775-1.738 1.738-1.738" fill="url(#b)"/><path d="m-9.208 1.925 24.4 16.97h-22.43s-1.956-0.014-1.962-1.82z" fill="url(#d)"/></g><path transform="matrix(.4947 0 0 .4947 -323.3 -96.52)" d="m773.85 193.97l-1.89-1.89c-.259-.259-.574-.389-.945-.389-.371 0-.686.13-.945.389l-9.116 9.13-4.085-4.099c-.259-.259-.574-.389-.945-.389-.371 0-.686.13-.945.389l-1.89 1.89c-.259.259-.389.574-.389.945 0 .37.13.686.389.945l5.03 5.03 1.89 1.89c.259.259.574.389.945.389.37 0 .685-.13.945-.389l1.89-1.89 10.06-10.06c.259-.259.389-.574.389-.945 0-.37-.13-.685-.389-.945" fill="#fff" fill-opacity=".851"/></g></svg>
