<svg viewBox="0 0 48 48" xmlns="http://www.w3.org/2000/svg"><defs><linearGradient id="b" x1="-126.1" x2="-127.3" y1="69.3" y2="-29.39" gradientUnits="userSpaceOnUse"><stop stop-color="#197cf1" offset="0"/><stop stop-color="#20bcfa" offset="1"/></linearGradient><linearGradient id="a" x2="0" y1="923.2" y2="859.6" gradientUnits="userSpaceOnUse"><stop stop-color="#2e3436" offset="0"/><stop stop-color="#555753" offset="1"/></linearGradient></defs><g transform="matrix(.4638 0 0 .4638 19.73 -51.86)"><g transform="translate(135.9 142.6)"><rect x="-177" y="-30.75" width="96.27" height="99.6" rx="6.187" fill="url(#b)" fill-rule="evenodd"/><g transform="matrix(.7894 0 0 .7894 -226 -659.6)"><path d="m85.61 858.1-0.026-25.79 28.93-4.31v30.1h-28.9m33.72-30.87 38.56-6.156v37.03h-38.56v-30.87m38.57 36.16-9e-3 37.03-38.56-5.952v-31.08h38.57m-43.39 30.4-28.9-4.347-2e-3 -26.06h28.9v30.4" fill="#eff9fe"/><circle cx="153.8" cy="892.2" r="35.59" fill="url(#a)"/></g></g><path d="m23.79 174c-2.02-3.068-7.144 0.307-4.383 3.594 2.673 3.112 5.347 6.486 8.108 9.949l-8.809 11.18c-2.498 2.98 2.454 6.574 4.69 3.375l7.933-10.56 8.06 10.34c2.367 3.243 7.188 0.088 4.777-3.199l-8.941-11.13c2.63-3.462 5.391-6.837 8.02-9.949 2.498-2.849-1.928-6.662-4.207-3.682l-7.626 9.554-7.626-9.467" fill="#eff8fe"/></g></svg>
