<svg viewBox="0 0 48 48" xmlns="http://www.w3.org/2000/svg"><defs><linearGradient id="b" x1="-126.1" x2="-127.3" y1="69.3" y2="-29.39" gradientUnits="userSpaceOnUse"><stop stop-color="#197cf1" offset="0"/><stop stop-color="#20bcfa" offset="1"/></linearGradient><linearGradient id="a" x2="0" y1="923.2" y2="859.6" gradientUnits="userSpaceOnUse"><stop stop-color="#2e3436" offset="0"/><stop stop-color="#555753" offset="1"/></linearGradient></defs><g transform="matrix(.4638 0 0 .4638 19.73 -51.86)"><g transform="translate(135.9 142.6)"><rect x="-177" y="-30.75" width="96.27" height="99.6" rx="6.187" fill="url(#b)" fill-rule="evenodd"/><g transform="matrix(.7894 0 0 .7894 -226 -659.6)"><path d="m85.61 858.1-0.026-25.79 28.93-4.31v30.1h-28.9m33.72-30.87 38.56-6.156v37.03h-38.56v-30.87m38.57 36.16-9e-3 37.03-38.56-5.952v-31.08h38.57m-43.39 30.4-28.9-4.347-2e-3 -26.06h28.9v30.4" fill="#eff9fe"/><circle cx="153.8" cy="892.2" r="35.59" fill="url(#a)"/></g></g><path d="m32.372 202.24q-.816.832-2.063.832-1.246 0-2.105-.832-.816-.832-.816-1.997 0-1.165.816-1.997.859-.832 2.105-.832 1.246 0 2.063.832.859.832.859 1.997 0 1.165-.859 1.997m-.043-8.654h-4.04v-1.955q0-1.872.816-3.204.816-1.373 2.879-3.204 1.16-1.04 1.633-1.539.516-.541.988-1.456.516-.957.516-1.955 0-1.914-1.289-3.079-1.246-1.165-3.48-1.165-3.695 0-5.07 3.994l-3.695-1.498q.902-2.372 3.094-4.244 2.234-1.914 5.672-1.914 3.91 0 6.359 2.247 2.449 2.205 2.449 5.658 0 1.498-.816 3.037-.816 1.539-1.461 2.205-.602.624-1.719 1.623-.129.125-.215.208-2.621 2.288-2.621 4.577v1.664" fill="#eff9fe"/></g></svg>
