<svg viewBox="0 0 48 48" xmlns="http://www.w3.org/2000/svg"><defs><linearGradient id="a" x1="506.1" x2="488.3" y1="1134" y2="-314.9" gradientUnits="userSpaceOnUse"><stop stop-color="#0c7eed" offset="0"/><stop stop-color="#0bb6ff" offset="1"/></linearGradient></defs><g transform="matrix(.03284 0 0 .03284 8.696 11)" fill="#fff" fill-opacity=".873"><g fill-rule="evenodd"><rect x="-240.4" y="-334.9" width="1413" height="1462" rx="90.81" fill="url(#a)" fill-opacity="1" stroke-width="14.55"/><g transform="matrix(14.55 0 0 14.55 2310 64.12)" fill="#fcfcfc" fill-opacity=".85"><circle cx="-164" cy="-17.74" r="3.5"/><circle cx="-154.8" cy="-17.74" r="3.5"/><circle cx="-145.5" cy="-17.74" r="3.5"/></g></g><g fill="#fff" fill-opacity=".873"><path d="m466.1 161.5c-205.6 0-382.8 121.2-464.2 296.1-2.5 5.3-2.5 11.5 0 16.9 81.4 174.9 258.6 296.1 464.2 296.1s382.8-121.2 464.2-296.1c2.5-5.3 2.5-11.5 0-16.9-81.4-174.9-258.6-296.1-464.2-296.1m0 514.7c-116.1 0-210.1-94.1-210.1-210.1 0-116.1 94.1-210.1 210.1-210.1 116.1 0 210.1 94.1 210.1 210.1s-94.1 210.1-210.1 210.1"/><circle cx="466.1" cy="466" r="134.5"/></g></g></svg>
