<svg viewBox="0 0 48 48" xmlns="http://www.w3.org/2000/svg"><defs><linearGradient id="a" x2="0" y1="1031" y2="1060" gradientTransform="matrix(1.2 0 0 1.198 -119.4 -1222)" gradientUnits="userSpaceOnUse"><stop stop-color="#f7f7f7" offset="0"/><stop stop-color="#d8d8d8" offset="1"/></linearGradient><linearGradient id="c" x1="-124" x2="-125.2" y1="73.5" y2="-26.05" gradientTransform="matrix(.4943 0 0 .4778 99.25 50.12)" gradientUnits="userSpaceOnUse"><stop stop-color="#f15400" offset="0"/><stop stop-color="#fa8c00" offset="1"/></linearGradient><radialGradient id="b" cx="90.38" cy="1048" r="13.69" gradientTransform="matrix(-1.757 .4709 -.3009 -1.123 531 2209)" gradientUnits="userSpaceOnUse"><stop stop-color="#f7f7f7" offset="0"/><stop stop-color="#efefef" offset=".497"/><stop stop-color="#d8d8d8" stop-opacity="0" offset="1"/></radialGradient></defs><path transform="translate(-12.61-37.02)" d="m15.59 37.02h42.04c1.652 0 2.982 1.33 2.982 2.982v42.04c0 1.652-1.33 2.982-2.982 2.982h-42.04c-1.652 0-2.982-1.33-2.982-2.982v-42.04c0-1.652 1.33-2.982 2.982-2.982" fill="url(#c)" fill-rule="evenodd"/><path d="m29.789 13.913c-5.128 0-9.393 3.405-10.492 7.968-1.216-1.508-2.992-2.455-4.946-2.455-3.67 0-6.632 3.354-6.632 7.477 0 .425.052.84.112 1.246-.921-.586-2.027-.944-3.222-.944-1.865 0-3.554.858-4.609 2.152-.058 4.384 0 11.553 0 15.993 0 0-.229 2.954 4.244 2.649h19.76 20.16c4.215.098 3.799-3.249 3.799-3.249l.037-16.337c-.001-.014-.028-.023-.037-.037-.006-.012.006-.029 0-.037-1.01-1.552-2.796-2.605-4.834-2.605-1.055 0-2 .311-2.848.793.184-.752.3-1.536.3-2.341 0-5.673-4.832-10.272-10.792-10.272z" fill="url(#a)"/><g transform="translate(-383.8 -496.5)" fill="#f87f00"><path transform="matrix(.8502 0 0 .8502 62.55 81.13)" d="m416.22 515.26c-1.477-2.192-4.128-3.464-7.872-3.781h-.006c-.276-.031-.541-.047-.788-.047-1.887 0-2.557.945-2.557 1.754v14.08c-.742-.224-1.539-.288-2.325-.189-1.37.173-2.598.816-3.457 1.812-.859.995-1.246 2.223-1.09 3.458.289 2.292 2.434 4.02 4.99 4.02.24 0 .483-.015.724-.046 2.649-.334 4.572-2.435 4.572-4.996v-13.817c.199-.013.398-.02.592-.02 2.336 0 4.483.977 6.21 2.825.712.762 1.212 1.52 1.506 2.02.072.123.213.189.354.164.14-.025.251-.135.276-.275.283-1.556.514-4.529-1.129-6.965" stroke-width="1.317"/></g><path transform="matrix(.9915 0 0 1 -41.72 -1039)" d="m51.43 1072c-3.843 0-7.229 2.262-9.292 5.732v2.473c0 3.319 2.676 6.03 5.995 6.03h25.7c0.706-0.927 1.124-2.01 1.124-3.185 0-3.307-3.228-5.957-7.194-5.957-2.542 0-4.756 1.073-6.03 2.735-1.818-4.625-5.738-7.83-10.3-7.83" fill="url(#b)"/></svg>
