<svg viewBox="0 0 48 48" xmlns="http://www.w3.org/2000/svg"><defs><linearGradient id="a" x2="0" y1="860.4" y2="828.2" gradientTransform="matrix(.9042 0 0 .9054 -499 -767.6)" gradientUnits="userSpaceOnUse"><stop stop-color="#d5dbff" offset="0"/><stop stop-color="#f9ffff" offset="1"/></linearGradient><linearGradient id="c" x1="66.06" x2="66.38" y1="32.83" y2="19.07" gradientUnits="userSpaceOnUse"><stop stop-color="#016ed4" offset="0"/><stop stop-color="#00b1ff" offset="1"/></linearGradient><linearGradient id="b" x1="66.06" x2="66.38" y1="32.83" y2="19.07" gradientUnits="userSpaceOnUse"><stop stop-color="#fe3f3c" offset="0"/><stop stop-color="#ff8729" offset="1"/></linearGradient></defs><g transform="matrix(1.714 0 0 1.714 -69.21 13.51)" enable-background="new"><ellipse cx="54.37" cy="6.125" rx="13.31" ry="13.32" fill="url(#a)" stroke="url(#a)" stroke-width="1.358"/><g transform="translate(-11.67 -20.42)"><path d="m66.04 21.21c-3.603 0-6.708 2.124-8.134 5.188-.044.093-.044.202 0 .296 1.426 3.065 4.531 5.188 8.134 5.188 3.603 0 6.708-2.124 8.134-5.188.044-.093.044-.202 0-.296-1.426-3.065-4.531-5.188-8.134-5.188m0 9.02c-2.034 0-3.681-1.649-3.681-3.681 0-2.034 1.649-3.681 3.681-3.681 2.034 0 3.681 1.649 3.681 3.681 0 2.033-1.649 3.681-3.681 3.681" fill="url(#b)"/><circle cx="66.04" cy="26.54" r="2.357" fill="url(#c)"/></g></g></svg>
