<svg viewBox="0 0 48 48" xmlns="http://www.w3.org/2000/svg"><defs><linearGradient id="c" x1="29.65" x2="26.28" y1="6.598" y2="-32.11" gradientUnits="userSpaceOnUse"><stop stop-color="#016ed4" offset="0"/><stop stop-color="#00b1ff" offset="1"/></linearGradient><linearGradient id="a" x2="0" y1="867.5" y2="845" gradientTransform="matrix(2.657 0 0 2.661 -1648 -2291)" gradientUnits="userSpaceOnUse"><stop stop-color="#2a2c2f" offset="0"/><stop stop-color="#4d5153" offset="1"/></linearGradient><linearGradient id="b" x1="27.97" x2="27.29" y1="2.33" y2="-20.21" gradientUnits="userSpaceOnUse"><stop stop-color="#ff9300" offset="0"/><stop stop-color="#ffd702" offset="1"/></linearGradient></defs><g transform="matrix(1 0 0 1 -3.361 35.88)" enable-background="new"><ellipse cx="27.36" cy="-11.88" rx="22.82" ry="22.84" fill="url(#a)" stroke="url(#a)" stroke-width="2.328"/><path d="m31.469-21.432c-5.15 1.373-9.111 5.976-13.674 9.163 1.945-.796 4.389-2.046 5.386-2.133l-3.217 3.568 2.483-1.084c-1.11 3.3-2.426 6.382-5.629 7.589l10.56 8.123 11.06-8.682c-4.319.118-8.157-.389-8.568-5.35-.105-.594.048-4.722 5.981-6.609-.599-.411-2.605-.135-4.02-.14-.062-.56.284-2.981 4.861-3.252-1.149-1.181-2.596-1.272-4.651-.63-.218-.21-.346-.188-.56-.56" fill="url(#b)"/><path d="m20.31-27.87c-5.74 2.662-9.723 8.467-9.723 15.21 0 9.267 7.515 16.78 16.79 16.78 9.267 0 16.78-7.515 16.78-16.78 0-6.662-3.887-12.41-9.512-15.11l-0.175 0.175c4.442 2.492 7.453 7.235 7.453 12.69 0 7.327-5.408 13.36-12.45 14.37l-2.098 3.536-2.098-3.536c-7.04-1.014-12.45-7.05-12.45-14.37 0-5.513 3.073-10.3 7.589-12.76-0.03-0.066-0.074-0.14-0.105-0.21" fill="url(#c)"/></g></svg>
