<svg viewBox="0 0 48 48" xmlns="http://www.w3.org/2000/svg"><defs><linearGradient id="c" x1="-1093" x2="-1060" y1="203.1" y2="104.8" gradientTransform="matrix(.3555 0 0 .3508 457.51-34.4)" gradientUnits="userSpaceOnUse"><stop stop-color="#016ed4" offset="0"/><stop stop-color="#00b1ff" offset="1"/></linearGradient><linearGradient id="b" x1="-989.7" x2="-1004" y1="433.3" y2="317.4" gradientTransform="matrix(.356 0 0 .3512 444.1 -122.7)" gradientUnits="userSpaceOnUse"><stop stop-color="#e7f0f4" offset="0"/><stop stop-color="#f4faff" offset="1"/></linearGradient><linearGradient id="a" x1="85.46" x2="88.85" y1="10.51" y2="-11.23" gradientUnits="userSpaceOnUse"><stop stop-color="#0173dd" offset="0"/><stop stop-color="#00b1ff" offset="1"/></linearGradient></defs><g transform="matrix(1 0 0 1 -63.7 25.83)" enable-background="new"><rect transform="matrix(.9491 -.3149 .3072 .9516 0 0)" x="66.26" y="5.081" width="31.91" height="40.21" rx=".981" fill="url(#c)"/><rect transform="matrix(.9921-.12541.13781.99046 0 0)" x="71.79" y="-11.57" width="35.54" height="43.17" rx="1.054" fill="url(#b)"/><path d="m83.24-10.85c-1.881-2.143-5.463 1.01-2.985 3.237 2.392 2.106 4.812 4.414 7.309 6.781l-5.574 9.546c-1.601 2.562 2.596 4.793 3.971 2.091l4.966-8.98 7.317 7.089c2.17 2.24 5.539-0.706 3.331-2.976l-8.08-7.602c1.65-2.947 3.411-5.84 5.099-8.517 1.615-2.461-2.201-4.917-3.633-2.379l-4.838 8.171-6.886-6.462" fill="url(#a)"/></g></svg>
