<svg viewBox="0 0 48 48" xmlns="http://www.w3.org/2000/svg"><defs><linearGradient id="a" x2="0" y1="542.8" y2="507.8" gradientTransform="matrix(1.091 0 0 1.065 -363.3 -560.9)" gradientUnits="userSpaceOnUse"><stop stop-color="#197cf1" offset="0"/><stop stop-color="#20bcfa" offset="1"/></linearGradient></defs><g transform="matrix(1 0 0 1 -58.37 25.88)" enable-background="new"><rect x="58.37" y="-19.98" width="48" height="36.22" rx="1.704" fill="url(#a)"/><g fill="#e9f6fe" stroke="#e9f6fe" stroke-linecap="round" stroke-linejoin="round" stroke-width=".3"><path d="m77.74-5.167c-.053-.05-.12-.075-.202-.075h-8.439c-.082 0-.149.025-.202.075-.053.05-.079.114-.079.192v.535c0 .078.026.142.079.192.053.05.12.075.202.075h8.439c.082 0 .149-.025.202-.075.053-.05.079-.114.079-.192v-.535c0-.078-.026-.142-.079-.192z"/><path d="m64.24-13.08c-.059-.056-.126-.084-.202-.084-.076 0-.144.028-.202.084l-.44.418c-.059.056-.088.12-.088.192 0 .073.029.137.088.192l3.455 3.287-3.455 3.287c-.059.056-.088.12-.088.192 0 .073.029.137.088.192l.44.418c.059.056.126.084.202.084.076 0 .144-.028.202-.084l4.097-3.898c.059-.056.088-.12.088-.192 0-.072-.029-.137-.088-.192l-4.097-3.898z"/></g></g></svg>
