<svg viewBox="0 0 48 48" xmlns="http://www.w3.org/2000/svg"><defs><linearGradient id="b" x2="0" y1="31.74" y2="-16.26" gradientUnits="userSpaceOnUse"><stop stop-color="#2a2c2f" offset="0"/><stop stop-color="#424649" offset="1"/></linearGradient><linearGradient id="a" x1="45.36" x2="46.27" y1="26.17" y2="-10.41" gradientUnits="userSpaceOnUse"><stop stop-color="#4da70e" offset="0"/><stop stop-color="#9ded46" offset="1"/></linearGradient></defs><g transform="matrix(1 0 0 1 -19.5 16.27)" enable-background="new"><rect x="19.51" y="-16.26" width="48" height="48" rx="24" fill="url(#b)"/><path d="m43.54-8.956c3.513 8e-3 7.08 1.103 9.858 3.27 1.956 2.254-1.771 4.667-3.45 2.47-5.05-3.058-12.18-1.981-15.98 2.59-2.023 2.269-3.163 5.296-3.149 8.335h3.34l-5.344 8.02-5.344-8.02h3.34c-0.107-7.256 5.112-14.16 12.12-16.04 1.503-0.412 3.052-0.644 4.613-0.627m14.66 8.683 5.344 8.02h-3.34c0.095 7.343-5.257 14.32-12.39 16.1-4.811 1.343-10.25 0.363-14.2-2.71-2.02-2.291 1.762-4.681 3.456-2.464 4.896 2.971 11.75 2.028 15.62-2.214 2.238-2.306 3.525-5.502 3.508-8.715h-3.34l5.344-8.02" fill="url(#a)" stroke-width="1.317"/></g></svg>
