<svg viewBox="0 0 48 48" xmlns="http://www.w3.org/2000/svg"><defs><linearGradient id="b" x1="466.4" x2="466.5" y1="542.7" y2="502.4" gradientTransform="matrix(1.016 0 0 .8864 -65.09 59.63)" gradientUnits="userSpaceOnUse"><stop stop-color="#54b60f" offset="0"/><stop stop-color="#92dc41" offset="1"/></linearGradient><linearGradient id="a" x1="258.7" x2="257.5" y1="1.708" y2="564" gradientUnits="userSpaceOnUse"><stop stop-color="#e9e9e9" offset="0"/><stop stop-color="#f9f9f9" offset="1"/></linearGradient></defs><g transform="translate(-384.57-499.8)"><g transform="matrix(.98533-.11469.11469.98533-53.44 54.1)"><path transform="matrix(.09534.00019.00018-.07825 386.28 547.88)" d="m418 467.5c0 9.979 8.175 18.29 19 20.12v27.76c-10.82 1.831-19 10.14-19 20.12s8.175 18.29 19 20.12v29.38h-24.23c-1.474-11.32-9.988-20-20.27-20s-18.8 8.682-20.27 20h-27.46c-1.474-11.32-9.988-20-20.27-20s-18.8 8.682-20.27 20h-23.61c-1.832-10.82-10.14-19-20.12-19s-18.29 8.175-20.12 19h-27.76c-1.831-10.82-10.14-19-20.12-19s-18.29 8.175-20.12 19h-21.76c-1.831-10.82-10.14-19-20.12-19s-18.29 8.175-20.12 19h-27.76c-1.831-10.82-10.14-19-20.12-19s-18.29 8.175-20.12 19h-24.38v-32.38c10.82-1.832 19-10.14 19-20.12s-8.175-18.29-19-20.12v-25.43c12.28-0.676 22-9.572 22-20.45s-9.721-19.78-22-20.45v-25.16c11.8-1.089 21-9.798 21-20.38s-9.197-19.29-21-20.38v-21.16c0.497 0.027 0.996 0.046 1.5 0.046 12.98 0 23.5-9.178 23.5-20.5s-10.52-20.5-23.5-20.5c-0.504 0-1 0.019-1.5 0.046v-26.16c11.8-1.09 21-9.799 21-20.38s-9.197-19.29-21-20.38v-28.34c11.32-1.474 20-9.988 20-20.27s-8.682-18.8-20-20.27v-27.27c12.28-0.676 22-9.572 22-20.45s-9.721-19.78-22-20.45v-25.09c12.28-0.676 22-9.572 22-20.45s-9.721-19.78-22-20.45v-27.05h22.23c-0.149 1.143-0.228 2.311-0.228 3.5 0 12.98 9.178 23.5 20.5 23.5s20.5-10.52 20.5-23.5c0-1.189-0.079-2.357-0.228-3.5h27.46c-0.149 1.143-0.228 2.311-0.228 3.5 0 12.98 9.178 23.5 20.5 23.5s20.5-10.52 20.5-23.5c0-1.189-0.079-2.357-0.228-3.5h21.46c-0.149 1.143-0.228 2.311-0.228 3.5 0 12.98 9.178 23.5 20.5 23.5s20.5-10.52 20.5-23.5c0-1.189-0.079-2.357-0.228-3.5h27.46c-0.149 1.143-0.228 2.311-0.228 3.5 0 12.98 9.178 23.5 20.5 23.5s20.5-10.52 20.5-23.5c0-1.189-0.079-2.357-0.228-3.5h23.34c-0.075 0.821-0.116 1.655-0.116 2.5 0 12.98 9.178 23.5 20.5 23.5s20.5-10.52 20.5-23.5c0-0.845-0.041-1.679-0.116-2.5h27.23c-0.075 0.821-0.116 1.655-0.116 2.5 0 12.98 9.178 23.5 20.5 23.5s20.5-10.52 20.5-23.5c0-0.845-0.041-1.679-0.116-2.5h26.12v27.12c-11.8 1.09-21 9.799-21 20.38s9.197 19.29 21 20.38v27.23c-11.8 1.09-21 9.799-21 20.38s9.197 19.29 21 20.38v24.23c-11.8 1.09-21 9.799-21 20.38s9.197 19.29 21 20.38v27.23c-11.8 1.09-21 9.799-21 20.38s9.197 19.29 21 20.38v23.23c-11.8 1.089-21 9.798-21 20.38s9.197 19.29 21 20.38v27.23c-11.8 1.089-21 9.798-21 20.38s9.197 19.29 21 20.38v25.5c-10.82 1.831-19 10.14-19 20.12" fill="url(#a)"/><rect transform="matrix(1 .00201-.00235 1 0 0)" x="393.6" y="504.9" width="31.07" height="36.08" rx=".532" fill="url(#b)"/></g><path transform="matrix(2.146 -.2858 .2858 2.146 -1004 -201.2)" d="m602.54 413.97q1.814 0 3.053 1.25 1.239 1.25 1.239 3.02 0 .996-.431 1.648-.42.653-1.228.653-.83 0-1.239-.807-.542.807-1.549.807-.907 0-1.526-.63-.619-.642-.619-1.626 0-.973.619-1.615.619-.642 1.482-.642.852 0 1.416.653h.044v-.498h.796v2.887q0 .288.155.52.166.232.498.232.785 0 .785-1.582 0-1.46-1.018-2.467-1.018-1.01-2.478-1.01-1.46 0-2.478 1.01-1.018 1.01-1.018 2.467 0 1.46 1.018 2.467 1.018 1.01 2.478 1.01.785 0 1.405-.31l.31.752q-.774.354-1.715.354-1.836 0-3.086-1.239-1.25-1.25-1.25-3.03 0-1.77 1.25-3.02 1.261-1.25 3.086-1.25m-1.029 5.343q.398.387.951.387.553 0 .94-.387.398-.387.398-1.029 0-.642-.398-1.029-.387-.387-.94-.387-.553 0-.951.387-.387.387-.387 1.029 0 .642.387 1.029" fill="#fff" fill-opacity=".852"/></g></svg>
