<svg viewBox="0 0 48 48" xmlns="http://www.w3.org/2000/svg"><defs><linearGradient id="a" x2="0" y1="18.56" y2="-27.72" gradientUnits="userSpaceOnUse"><stop stop-color="#4da70e" offset="0"/><stop stop-color="#9ded46" offset="1"/></linearGradient></defs><g transform="matrix(1 0 0 1 -53.9 28.31)" enable-background="new"><circle cx="77.91" cy="-4.307" r="24" fill="url(#a)"/><path d="m81.23-1.389c-.151-.049-1.103-.478-.508-2.287h-.008c1.551-1.597 2.736-4.168 2.736-6.699 0-3.891-2.588-5.931-5.595-5.931-3.01 0-5.583 2.039-5.583 5.931 0 2.541 1.179 5.122 2.739 6.716.608 1.596-.479 2.188-.707 2.27-2.12.686-7.888 4.104-7.797 9.08h22.788c.102-4.756-4.461-7.844-8.07-9.08" fill="#fff" fill-opacity=".847" stroke-width="1.317"/></g></svg>
