<svg viewBox="0 0 48 48" xmlns="http://www.w3.org/2000/svg" xmlns:xlink="http://www.w3.org/1999/xlink"><defs><linearGradient id="d" x1="113" x2="112.4" y1="14.66" y2="-2.118" gradientUnits="userSpaceOnUse" xlink:href="#a"/><linearGradient id="a"><stop stop-color="#4da70e" offset="0"/><stop stop-color="#9ded46" offset="1"/></linearGradient><linearGradient id="c" x1="307" x2="308.6" y1="499.5" y2="536.5" gradientTransform="matrix(1.186 0 0 -1.026 -280.2 528.3)" gradientUnits="userSpaceOnUse" xlink:href="#a"/><linearGradient id="e" x1="102" x2="110.3" y1="20.92" y2="17.9" gradientUnits="userSpaceOnUse" xlink:href="#a"/><linearGradient id="b"><stop stop-color="#dcebe8" offset="0"/><stop stop-color="#f6f8f7" offset="1"/></linearGradient><linearGradient id="g" x1="90.6" x2="89.61" y1="5.111" y2="-12.81" gradientUnits="userSpaceOnUse" xlink:href="#b"/><linearGradient id="f" x1="331.2" x2="330.7" y1="531.9" y2="493.8" gradientTransform="matrix(1.357 0 0 -1.034 -339.6 538)" gradientUnits="userSpaceOnUse" xlink:href="#b"/></defs><g transform="matrix(1 0 0 1 -76.25 21.72)" enable-background="new"><path d="m102.7 26.16-13.23-38.98h28.76c5.383-0.219 5.997 3.562 5.997 3.562v31.16s0.943 4.254-4.758 4.254z" fill="url(#f)" fill-rule="evenodd"/><path d="m106.32 2.522h9.709c-.274 1.753-1.203 3.621-2.766 5.555-.996-1.595-1.636-3.143-2-4.173-.092-.26-.338-.434-.614-.434h-1.598c-.208 0-.403.099-.526.267-.123.168-.158.383-.095.582.379 1.192 1.25 3.532 2.862 5.91-1.904 1.851-3.801 3.185-4.535 3.677-.292.196-.376.588-.189.886l.802 1.282c.093.148.242.253.413.291.046.001.093.015.139.015.126 0 .251-.037.358-.107.756-.497 2.716-1.852 4.769-3.819.76.792 2.545 2.179 3.603 2.949.161.117.368.154.561.1.192-.055.349-.195.425-.38l.598-1.462c.12-.294.011-.632-.259-.799-.689-.428-1.987-1.306-3.047-2.447 2.326-2.722 3.652-5.376 3.944-7.891h.513c.359 0 .651-.292.651-.651v-1.735c0-.359-.291-.651-.651-.651h-5.07v-.891c0-.36-.291-.651-.651-.651h-1.624c-.359 0-.651.291-.651.651v.891h-5.07c-.359 0-.651.291-.651.651v1.735c0 .359.291.65.651.65" fill="url(#d)"/><g fill-rule="evenodd"><path d="m98.97 16.72 3.562 9.516 8.535-9.516z" fill="url(#e)"/><path d="m98.09-21.68 12.98 38.69h-30.05c-4.707 0.218-4.769-3.536-4.769-3.536v-30.93s0.125-4.223 5.109-4.223z" fill="url(#c)"/></g><path d="m93.05-10.754c-.097-.312-.386-.525-.713-.525h-4.145c-.328 0-.617.214-.713.528l-4.953 16.194c-.069.226-.027.472.114.663.141.19.363.302.6.302h2.571c.335 0 .629-.224.719-.546l1.11-3.995h5.067l1.202 4.01c.094.316.385.532.715.532h2.733c.238 0 .46-.113.6-.303.141-.191.182-.437.112-.664l-5.02-16.195m-4.836 9.633l1.866-7.164h.051l1.996 7.164h-3.913z" fill="url(#g)"/></g></svg>
