<svg viewBox="0 0 48 48" xmlns="http://www.w3.org/2000/svg"><defs><linearGradient id="a" x2="0" y1="556.2" y2="510.2" gradientUnits="userSpaceOnUse"><stop stop-color="#ff9300" offset="0"/><stop stop-color="#ffd702" offset="1"/></linearGradient></defs><g transform="matrix(1.049 0 0 1.049 -511.6 -528.4)" stroke-width="1.317"><rect transform="matrix(.9951 0 0 .9951 192.4 -3.883)" x="297" y="510.2" width="46" height="46" rx="23" fill="url(#a)" stroke-width="2.164"/><path transform="matrix(1.491 0 0 1.491 518.1 -1016)" d="m-1.726 1033.54h-6.415v-1.98c0-1.769 1.439-3.207 3.207-3.207 1.769 0 3.207 1.439 3.207 3.207zm1.711.018v-1.998c0-2.712-2.206-4.919-4.919-4.919-2.712 0-4.919 2.207-4.919 4.919v1.998c-.388.081-.68.426-.68.837v7.488c0 .472.384.855.856.855h9.485c.472 0 .856-.384.856-.855v-7.488c0-.411-.292-.756-.68-.837" fill-opacity=".796"/></g></svg>
