<svg viewBox="0 0 48 48" xmlns="http://www.w3.org/2000/svg"><defs><linearGradient id="a" x2="0" y1="544.2" y2="503" gradientUnits="userSpaceOnUse"><stop stop-color="#0bac83" offset="0"/><stop stop-color="#10da96" offset="1"/></linearGradient></defs><g transform="matrix(1.164 0 0 1.164 -451.4 -585.3)"><rect x="387.9" y="503" width="41.24" height="41.24" rx="20.62" fill="url(#a)"/><path transform="matrix(-1.553 -.00329 .00328 -1.548 1038 1356)" d="m412.39 537.33c-.401-.404-1.052-.404-1.453 0l-4.057 4.497-4.057-4.497c-.402-.404-1.052-.404-1.453 0-.402.404-.402 1.058 0 1.461l4.719 5.231c.217.218.507.314.791.296.284.018.574-.078.791-.296l4.719-5.231c.401-.404.401-1.058 0-1.461m-5.516-4.351c.935 0 1.693-.761 1.693-1.7 0-.939-.758-1.7-1.693-1.7-.935 0-1.693.761-1.693 1.7 0 .939.758 1.7 1.693 1.7m0 4.858c.935 0 1.693-.761 1.693-1.7 0-.939-.758-1.7-1.693-1.7-.935 0-1.693.761-1.693 1.7 0 .939.758 1.7 1.693 1.7" fill="#fff" fill-opacity=".855"/></g></svg>
