<svg viewBox="0 0 48 48" xmlns="http://www.w3.org/2000/svg"><defs><linearGradient id="b" x1="-1093" x2="-1060" y1="203.1" y2="104.8" gradientTransform="matrix(.3555 0 0 .3508 420.7 -51.9)" gradientUnits="userSpaceOnUse"><stop stop-color="#1584d8" offset="0"/><stop stop-color="#1cb2ff" offset="1"/></linearGradient><linearGradient id="a" x1="-989.7" x2="-1004" y1="433.3" y2="317.4" gradientTransform="matrix(.356 0 0 .3512 404.8 -132.7)" gradientUnits="userSpaceOnUse"><stop stop-color="#e7f0f4" offset="0"/><stop stop-color="#f4faff" offset="1"/></linearGradient></defs><g transform="matrix(1 0 0 1 -23.37 30.88)" enable-background="new"><rect transform="matrix(.9491 -.3149 .3072 .9516 0 0)" x="29.43" y="-12.42" width="31.91" height="40.21" rx=".981" fill="url(#b)"/><rect transform="matrix(.9921-.12541.13781.99046 0 0)" x="32.54" y="-21.64" width="35.54" height="43.17" rx="1.054" fill="url(#a)"/><path d="m59.53-14.249l-1.154-.83c-.475-.342-1.143-.233-1.488.243l-8.704 12.1-6.339-4.56c-.475-.342-1.143-.233-1.488.243l-.83 1.154c-.342.475-.233 1.143.243 1.488l8.354 6.01c.24.172.522.234.791.19.269-.044.521-.193.69-.432l10.158-14.12c.351-.484.243-1.148-.232-1.49" fill="#1897e8"/></g></svg>
