<svg viewBox="0 0 48 48" xmlns="http://www.w3.org/2000/svg"><defs><linearGradient id="a" x2="0" y1="654" y2="301.3" gradientUnits="userSpaceOnUse"><stop stop-color="#0a80fd" offset="0"/><stop stop-color="#56c5fa" offset="1"/></linearGradient></defs><circle transform="matrix(.1384 0 0 .1384 69.1 -42.25)" cx="-325.9" cy="478.8" r="173.4" fill="url(#a)"/><path transform="matrix(.1086 0 0 .1115 60.2 -26.54)" d="m-374.7 462.4c-4.616-21.58 13.52-40.58 34.07-43.34 29-3.889 53.57 20.4 56.1 48.32 3.303 36.39-27.3 66.62-62.58 68.87-43.76 2.783-79.71-34.19-81.63-76.83-2.298-51.12 41.09-92.82 91.09-94.39 58.48-1.834 106 47.98 107.2 105.3 1.384 65.84-54.88 119.1-119.6 119.9-73.2 0.943-132.2-61.77-132.7-133.8-0.509-80.56 68.67-145.4 148.1-145.4 87.92-0.079 158.5 75.56 158.2 162.4-0.138 37.8-13.38 74.98-36.84 104.6" fill="none" fill-rule="evenodd" stroke="#fff" stroke-linecap="round" stroke-linejoin="round" stroke-opacity=".851" stroke-width="26.01"/></svg>
