<svg viewBox="0 0 16 16" xmlns="http://www.w3.org/2000/svg"><path transform="matrix(.2917 0 0 .2917 18.72 5.738)" d="m-35.29-9.068a16.82 16.82 0 0 0-7.783 1.918h-7.229v-0.615c0-0.511-0.412-0.924-0.924-0.924h-3.691c-0.511 0-0.924 0.412-0.924 0.924v0.615h-3.527c-0.767 0-1.385 0.618-1.385 1.385v26.82c0 0.767 0.618 1.385 1.385 1.385h15.9a16.82 16.82 0 0 0 8.18 2.129 16.82 16.82 0 0 0 8.15-2.129h13c0.767 0 1.385-0.618 1.385-1.385v-26.82c0-0.767-0.618-1.385-1.385-1.385h-13.38a16.82 16.82 0 0 0-7.771-1.918m0 3.604a13.21 13.21 0 0 1 13.22 13.21 13.21 13.21 0 0 1-13.21 13.21 13.21 13.21 0 0 1-13.21-13.21 13.21 13.21 0 0 1 13.21-13.21m-20.09 1.037a2.391 2.391 0 0 1 2.393 2.391 2.391 2.391 0 0 1-2.393 2.393 2.391 2.391 0 0 1-2.391-2.393 2.391 2.391 0 0 1 2.391-2.391z" fill="#fff"/></svg>
