<svg viewBox="0 0 16 16" xmlns="http://www.w3.org/2000/svg"><path transform="matrix(.02288 0 0 .02288 1 .998)" d="m578.8 51.49v-0.895h-545.8v0.895c-17.66 1.214-30.84 15.27-32.93 32.32v358.7c0 6.898 1.795 12.71 4.791 17.95 6.893 12.14 17.07 18.27 31.14 18.27h197v49.7h-37.42c-9.281 0-16.47 7.218-16.47 16.48s7.186 16.48 16.47 16.48h220.7c9.281 0 16.77-7.218 16.77-16.48 0-9.263-7.486-16.48-16.77-16.48h-37.42v-49.7h197c14.08 0 24.34-6.132 31.14-18.27 3.085-5.493 5.091-11.37 5.091-17.95v-358.7c-2.096-17.06-16.17-31.11-33.24-32.32m0 35.32v355.7c0 2.108-0.895 3-2.996 3h-539.8c-2.095 0-2.996-0.894-2.996-3v-358.7h545.8v3z" fill="#fff"/></svg>
