<svg viewBox="0 0 16 16" xmlns="http://www.w3.org/2000/svg"><g transform="matrix(.3794 0 0 .3794 1.17 1.768)" fill="#fff"><path transform="matrix(1 0 0 .8217 0 4.457)" d="m31.8 27-0.5 5h-26.5l-0.5-5h27.5m2.2-2h-32l0.497 7.2c0.1 1 0.698 1.8 1.698 1.8h27.71c1 0 1.598-0.8 1.698-1.8z"/><path d="m6.769 0.49c-1.063 0-1.699 0.743-1.806 1.806l-2.867 22.64 0.213 1.062h31.04l0.64-1.062-2.873-22.64c-0.213-1.063-0.737-1.806-1.8-1.806h-22.54m8.164 5.751a0.9722 0.8414 0 0 1 0.974 0.8427 0.9722 0.8414 0 0 1-0.974 0.8427 0.9722 0.8414 0 0 1-0.9685-0.8427 0.9722 0.8414 0 0 1 0.9685-0.8427m4.864 0 5.833 5.05-5.833 5.05-1.948-1.68 3.89-3.365-3.89-3.365 1.948-1.685zm-7.781 5.05a1.944 1.683 0 0 1 1.948 1.68 1.944 1.683 0 0 1-1.948 1.685 1.944 1.683 0 0 1-1.942-1.685 1.944 1.683 0 0 1 1.942-1.68m3.89 5.045a1.944 1.683 0 0 1 1.942 1.685 1.944 1.683 0 0 1-1.942 1.68 1.944 1.683 0 0 1-1.942-1.68 1.944 1.683 0 0 1 1.942-1.685"/></g></svg>
