<svg viewBox="0 0 16 16" xmlns="http://www.w3.org/2000/svg"><g transform="matrix(.02948 0 0 .02948 1.992 1.988)" fill="#fff"><path d="m402.1 84.01-79.03-79.03c-3.189-3.189-7.514-4.981-12.03-4.981h-294.1c-9.392 0-17 7.614-17 17v373.1c0 9.392 7.613 17 17 17h373.1c9.392 0 17-7.613 17-17v-294.1c0-4.509-1.791-8.835-4.981-12.02m-101.4 79.56h-233.5v-124.7h233.5v124.7"/><path d="m214 148.2h43.08c3.131 0 5.668-2.538 5.668-5.669v-82.91c0-3.13-2.537-5.668-5.668-5.668h-43.08c-3.131 0-5.668 2.538-5.668 5.668v82.91c0 3.131 2.537 5.669 5.668 5.669"/></g></svg>
