<svg viewBox="0 0 22 22" xmlns="http://www.w3.org/2000/svg"><g transform="matrix(1.372 0 0 1.372 -27.48 -15.47)" fill="#fff"><path d="m28.04 13.847c-2.891 0-5.608 1.126-7.652 3.17l1.167 1.167c1.732-1.732 4.04-2.686 6.485-2.686 2.45 0 4.753.954 6.485 2.686l1.167-1.167c-2.044-2.044-4.761-3.17-7.652-3.17"/><path d="m22.47 19.09 1.167 1.167c1.178-1.178 2.745-1.828 4.412-1.828s3.233 0.649 4.412 1.828l1.167-1.167c-1.49-1.49-3.471-2.311-5.579-2.311s-4.089 0.821-5.579 2.311"/><path d="m24.54 21.17 1.167 1.167c0.624-0.624 1.454-0.968 2.337-0.968s1.712 0.344 2.337 0.968l1.167-1.167c-0.936-0.936-2.18-1.451-3.504-1.451s-2.568 0.515-3.504 1.451"/><path d="m28.04 22.994c-.429 0-.858.164-1.185.491-.011.011-.022.023-.033.035l1.218 1.222 1.221-1.218c-.012-.013-.024-.026-.036-.038-.327-.327-.756-.491-1.185-.491"/></g></svg>
