<svg viewBox="0 0 48 48" xmlns="http://www.w3.org/2000/svg"><defs><linearGradient id="b" x2="0" y1="518.1" y2="545.2" gradientUnits="userSpaceOnUse"><stop stop-color="#db50c8" offset="0"/><stop stop-color="#981fe7" offset="1"/></linearGradient><linearGradient id="a" x1="403.4" x2="402.5" y1="545.2" y2="518.1" gradientUnits="userSpaceOnUse"><stop stop-color="#981fe7" offset="0"/><stop stop-color="#db50c8" offset="1"/></linearGradient></defs><g transform="matrix(1 0 0 1 -38.37 25.88)" enable-background="new"><circle transform="matrix(1.601 0 0 1.601 -579 -853.4)" cx="400.5" cy="531.7" r="14.23" fill="url(#a)" stroke="url(#b)" stroke-width="1.524"/><path d="m44.37-9.589 1.071 1.58 9.375 13.85h4.642l2.526-3.73-2.317-3.422-2.53 3.738-8.134-12.02h-4.634m10.45 0-2.52 3.723 2.315 3.42 2.531-3.738 8.14 12.02h4.641l2.52-3.721-2.315-3.422-2.525 3.728-8.133-12.01h-4.654m10.46 0-2.515 3.715 2.317 3.42 2.525-3.728 8.138 12.02h4.634l-1.071-1.58-9.375-13.85h-4.652m10.46 0-2.52 3.723 2.315 3.42 3.767-5.563 1.071-1.58h-4.634m-26.53 8.285-3.767 5.563-1.071 1.58h4.634l2.52-3.721-2.315-3.422" fill="#fff" fill-opacity=".843"/></g></svg>
