<svg viewBox="0 0 48 48" xmlns="http://www.w3.org/2000/svg"><defs><linearGradient id="a" x2="0" y1="542.8" y2="507.8" gradientTransform="matrix(1.091 0 0 1.065 -390.8 -511.9)" gradientUnits="userSpaceOnUse"><stop stop-color="#141414" offset="0"/><stop stop-color="#2d2d2f" offset="1"/></linearGradient></defs><g transform="translate(-30.915-23.19)"><rect x="30.92" y="29.08" width="48" height="36.22" rx="1.704" fill="url(#a)"/><path d="m61.52 49.39h-2.2v-4.4h2.2c2.43 0 4.4-1.97 4.4-4.4s-1.97-4.4-4.4-4.4-4.4 1.97-4.4 4.4v2.2h-4.4v-2.2c0-2.43-1.97-4.4-4.4-4.4s-4.4 1.97-4.4 4.4 1.97 4.4 4.4 4.4h2.2v4.4h-2.2c-2.43 0-4.4 1.97-4.4 4.4s1.97 4.4 4.4 4.4 4.4-1.97 4.4-4.4v-2.2h4.4v2.194 5e-3c0 2.43 1.97 4.4 4.4 4.4s4.4-1.97 4.4-4.4-1.97-4.399-4.4-4.4m0-11c1.215 0 2.2 0.985 2.2 2.2s-0.985 2.2-2.2 2.2h-2.2v-2.2c0-1.215 0.985-2.2 2.2-2.2m-15.4 2.2c0-1.215 0.985-2.2 2.2-2.2s2.2 0.985 2.2 2.2v2.2h-2.2c-1.215 0-2.2-0.985-2.2-2.2m2.2 15.4c-1.215 0-2.2-0.985-2.2-2.2s0.985-2.2 2.2-2.2h2.2v2.2c0 1.215-0.985 2.2-2.2 2.2m4.4-6.6v-4.4h4.4v4.4h-4.4m8.8 6.6c-1.215 0-2.2-0.985-2.2-2.2v-2.2h2.2c1.215 0 2.2 0.985 2.2 2.2s-0.985 2.2-2.2 2.2" fill="#fff" fill-opacity=".846" stroke-width="1.317"/></g></svg>
