<svg viewBox="0 0 48 48" xmlns="http://www.w3.org/2000/svg"><defs><linearGradient id="b" x1="-989.7" x2="-1004" y1="433.3" y2="317.4" gradientUnits="userSpaceOnUse"><stop stop-color="#1584d8" offset="0"/><stop stop-color="#1cb2ff" offset="1"/></linearGradient><linearGradient id="a" x1="-1093" x2="-1060" y1="203.1" y2="104.8" gradientTransform="matrix(.9978 0 0 .9808 -3.688 11.35)" gradientUnits="userSpaceOnUse"><stop stop-color="#f2b333" offset="0"/><stop stop-color="#fcde3f" offset="1"/></linearGradient><linearGradient id="c" x1="215.7" x2="576.3" gradientUnits="userSpaceOnUse"><stop stop-color="#e7f0f4" offset="0"/><stop stop-color="#f4faff" offset="1"/></linearGradient></defs><g transform="translate(-384.57-499.8)"><g font-family="sans-serif" letter-spacing="0" word-spacing="0" line-height="125%"><text x="300.29" y="516.22" font-size="5"><tspan x="300.29" y="516.22"/></text><flowRoot font-size="10"><flowRegion><path d="m-1370-469.3h135.6v166.6h-135.6z"/></flowRegion><flowPara/></flowRoot></g><g transform="matrix(.03235.0119-.0119.03235 403.55 507.35)"><rect transform="matrix(8.145 -6.473 6.43 8.179 7714 -7882)" x="-1102" y="121.7" width="89.57" height="112.4" rx="2.744" fill="url(#a)"/><rect transform="matrix(9.228 -4.805 4.886 9.185 7714 -7882)" x="-1046" y="316.3" width="99.83" height="122.9" rx="3" fill="url(#b)"/><path d="m507.4 185.7c-13.46 2.444-22.43 14.84-19.99 28.32l64.09 353.1c6.544 36.06-1.125 67.96-21.75 97.73-20.62 29.77-48.23 48.24-84.71 54.86-35.62 6.465-68.31-0.611-98.08-21.23-29.77-20.62-47.88-48.74-54.35-84.36l-24.2-133.4-12.93-71.23-47.14-259.8-0.158-0.872-0.158-0.871c-4.336-23.89 0.694-46.23 14.44-66.33 13.92-20.36 32.97-33.35 57.74-37.85 24.76-4.494 47.18 0.972 67.35 15.14 19.93 14 32.49 33.14 36.83 57.03l0.158 0.871 0.315 1.734 71.51 394c4.492 24.75-11.15 47.34-35.91 51.83-23.89 4.336-47.07-12.09-51.41-35.98l-37.45-206.3c-2.444-13.46-14.76-22-28.23-19.55-13.46 2.444-22 14.76-19.55 28.23l37.45 206.3c4.65 25.62 17.28 45.77 38.32 60.35 21.04 14.58 43.91 19.4 69.54 14.75 25.62-4.65 45.51-17.46 60.35-38.32 14.48-20.37 19.48-43.47 14.67-69.96l-71.82-395.7-0.158-0.871c-6.78-37.35-26.17-66.93-57.38-88.74-31.48-22-65.97-29.75-103.3-22.97-37.36 6.781-66.94 26.16-88.67 57.82-21.55 31.39-29.32 65.89-22.54 103.2l0.158 0.871 47.3 260.6 12.93 71.23 24.2 133.4c8.909 49.09 33.85 87.63 74.4 115.7 40.54 28.09 85.4 37.9 134.5 28.99 49.09-8.909 88.65-33.14 117.1-74.2 28.44-41.06 37.66-86.69 28.91-134.9l-64.09-353.1c-2.446-13.48-14.76-22.01-28.23-19.56" fill="#fff" fill-opacity=".85"/></g></g></svg>
