<svg viewBox="0 0 48 48" xmlns="http://www.w3.org/2000/svg"><defs><linearGradient id="a" x1="-124" x2="-125.2" y1="73.5" y2="-26.05" gradientTransform="matrix(.4943 0 0 .4778 99.25 50.12)" gradientUnits="userSpaceOnUse"><stop stop-color="#5dae33" offset="0"/><stop stop-color="#9be058" offset="1"/></linearGradient></defs><g transform="translate(-12.61-37.02)"><rect x="12.61" y="37.02" width="48" height="48" rx="2.982" fill="url(#a)" fill-rule="evenodd"/><path d="m38.13 76.45q-.824.867-2.081.867-1.257 0-2.125-.867-.824-.867-.824-2.081 0-1.214.824-2.081.867-.867 2.125-.867 1.257 0 2.081.867.867.867.867 2.081 0 1.214-.867 2.081m-.043-9.02h-4.076v-2.038q0-1.951.824-3.339.824-1.431 2.905-3.339 1.171-1.084 1.648-1.604.52-.564.997-1.518.52-.997.52-2.038 0-1.995-1.301-3.209-1.257-1.214-3.512-1.214-3.729 0-5.117 4.163l-3.729-1.561q.911-2.472 3.122-4.423 2.255-1.995 5.724-1.995 3.946 0 6.417 2.341 2.472 2.298 2.472 5.897 0 1.561-.824 3.165-.824 1.604-1.474 2.298-.607.65-1.734 1.691-.13.13-.217.217-2.645 2.385-2.645 4.77v1.734" fill="#fff" fill-opacity=".849"/></g></svg>
