<svg viewBox="0 0 48 48" xmlns="http://www.w3.org/2000/svg"><defs><linearGradient id="b" x1="99.25" x2="99.74" y1="56.05" y2="28.97" gradientUnits="userSpaceOnUse"><stop stop-color="#197cf1" offset="0"/><stop stop-color="#20bcfa" offset="1"/></linearGradient><linearGradient id="a" x2="0" y1="67.77" y2="18.97" gradientUnits="userSpaceOnUse"><stop stop-color="#212121" offset="0"/><stop stop-color="#3f3f41" offset="1"/></linearGradient></defs><g transform="translate(-78.92 -19.52)"><circle cx="102.9" cy="43.52" r="24" fill="url(#a)"/><path d="m94.94 29.91a2.174 2.168 0 0 0-2.175 2.168 2.174 2.168 0 0 0 2.175 2.168 2.174 2.168 0 0 0 2.175-2.168 2.174 2.168 0 0 0-2.175-2.168m12.32 0-4.123 4.111 6.342 6.322-6.569 7.451 4.349 3.793 10.14-11.56-10.14-10.12m-15.23 10.12a3.624 3.613 0 0 0-3.624 3.613 3.624 3.613 0 0 0 3.624 3.611 3.624 3.613 0 0 0 3.626-3.611 3.624 3.613 0 0 0-3.626-3.613zm6.524 10.11a4.349 4.335 0 0 0-4.349 4.337 4.349 4.335 0 0 0 4.349 4.335 4.349 4.335 0 0 0 4.349-4.335 4.349 4.335 0 0 0-4.349-4.337" fill="url(#b)"/></g></svg>
