<svg viewBox="0 0 48 48" xmlns="http://www.w3.org/2000/svg"><defs><linearGradient id="a" x2="0" y1="53.94" y2="5.141" gradientUnits="userSpaceOnUse"><stop stop-color="#197cf1" offset="0"/><stop stop-color="#20bcfa" offset="1"/></linearGradient></defs><g transform="translate(-118 -5.695)"><circle cx="142" cy="29.7" r="24" fill="url(#a)"/><path d="m138 19.59c-0.847 0.238-1.529 1.183-1.529 2.102v14.56c-0.859-0.471-1.963-0.662-3.107-0.35-2.064 0.562-3.358 2.377-2.915 4.054s2.476 2.613 4.541 2.052c1.647-0.448 2.782-1.716 2.963-3.053l0.048-13.76 10.71-3v10.86c-0.859-0.471-1.963-0.662-3.107-0.35-2.064 0.562-3.358 2.377-2.915 4.054s2.476 2.613 4.54 2.052c1.647-0.448 2.782-1.716 2.963-3.053l0.048-17.92c0-0.689-0.407-1.204-0.956-1.301l-11.28 3.053z" fill="#fff" fill-opacity=".851"/></g></svg>
