<svg viewBox="0 0 48 48" xmlns="http://www.w3.org/2000/svg"><defs><linearGradient id="a" x2="0" y1="546.9" y2="516.5" gradientUnits="userSpaceOnUse"><stop stop-color="#ff9300" offset="0"/><stop stop-color="#ffd702" offset="1"/></linearGradient></defs><circle transform="matrix(1.631 0 0 1.631 -629.4 -843.4)" cx="400.6" cy="531.8" r="14" fill="url(#a)" stroke="url(#a)" stroke-width="1.427"/><path transform="matrix(1.083 0 0 1.083 -120.9 -24.29)" d="m146.3 41.878c0-.373-.282-.605-.847-.696l-7.591-1.104-3.403-6.881c-.191-.413-.439-.62-.741-.62-.302 0-.549.207-.741.62l-3.403 6.881-7.592 1.104c-.564.091-.847.323-.847.696 0 .212.126.454.378.726l5.505 5.353-1.3 7.561c-.02.141-.03.242-.03.303 0 .212.053.391.159.537.106.146.265.219.476.219.182 0 .383-.06.605-.181l6.79-3.569 6.791 3.569c.212.121.414.181.605.181.202 0 .356-.073.461-.219.106-.146.159-.325.159-.537 0-.131-.005-.232-.015-.303l-1.301-7.561 5.489-5.353c.262-.262.393-.504.393-.726" fill="#fff" fill-opacity=".85" stroke-width="1.317"/></svg>
