<svg viewBox="0 0 48 48" xmlns="http://www.w3.org/2000/svg" xmlns:xlink="http://www.w3.org/1999/xlink"><defs><linearGradient id="b" x1=".967" x2="3.419" y1="204.6" y2="147.6" gradientTransform="matrix(1.002 4e-5 4e-5 .9519 .292 11.94)" gradientUnits="userSpaceOnUse"><stop stop-color="#f15400" offset="0"/><stop stop-color="#fa8c00" offset="1"/></linearGradient><linearGradient id="a" x1="22.55" x2="21.17" y1="267" y2="148.1" gradientTransform="matrix(.41708-.0003.00032.39759 13.04-59.63)" gradientUnits="userSpaceOnUse"><stop stop-color="#f16419" offset="0"/><stop stop-color="#feb600" offset="1"/></linearGradient><linearGradient id="c" x2="0" y1="473.9" y2="253.9" gradientTransform="matrix(.2623 0 0 .2616 -44.88 141)" gradientUnits="userSpaceOnUse"><stop stop-color="#cdd7dc" offset="0"/><stop stop-color="#ecf0f3" offset="1"/></linearGradient></defs><g transform="matrix(.41648-.0003.0003.41767 13.01-64.52)"><g fill-rule="evenodd"><path d="m-23.525 154.67l47.829.036-.042 55.17-55.44-.042.037-48.05c.006-7.638 7.211-7.109 7.614-7.108" fill="url(#b)"/><path transform="matrix(2.401 .00182 -.00182 2.394 -31.39 154.4)" d="m23.02 0.094v22.92h-23.02v20.07c0 3.191 3 2.971 3.168 2.971h39.73c0.168 0 3.168 0.22 3.168-2.971v-19.95h0.047v-20.07c0-3.191-3-2.973-3.168-2.973h-19.92" fill="url(#a)"/></g><ellipse transform="matrix(1 .00076-.00076 1 0 0)" cx="51.67" cy="236.9" rx="32.31" ry="32.22" fill="url(#c)"/><g fill="#fff" fill-opacity=".855"><path transform="matrix(.2642.0002-.0002.26342-41.14 144.44)" d="m152.4 95.41v39.27h39.12v17.69h-39.12v39.27h-17.84v-39.27h-39.12v-17.69h39.12v-39.27h17.84" stroke-width="5.233"/><path transform="matrix(.21864.00017-.00024.31831-49.45 142.58)" d="m403.6 115.8h113.4v16h-113.4v-16" stroke-width="4.331"/><path transform="matrix(.2642.0002-.0002.26342-41.41 139.71)" d="m188.6 336-32.53 32.53 32.53 32.38-12.59 12.59-32.53-32.38-32.53 32.38-12.59-12.59 32.53-32.38-32.53-32.53 12.59-12.59 32.53 32.53 32.53-32.53 12.59 12.59" stroke-width="5.233"/></g><path transform="matrix(.2642 2e-4 -2e-4 .2634 -45.69 140.8)" d="m320 340.8h96.08v17.61h-96.08v-17.61m0 34.1h96.08v17.76h-96.08v-17.76" fill="#f47713" stroke-width="5.233"/></g></svg>
