<svg viewBox="0 0 48 48" xmlns="http://www.w3.org/2000/svg" xmlns:xlink="http://www.w3.org/1999/xlink"><defs><linearGradient id="a"><stop stop-color="#212121" offset="0"/><stop stop-color="#3f3f41" offset="1"/></linearGradient><linearGradient id="b" x1="216.2" x2="215.6" y1="323.4" y2="299.3" gradientUnits="userSpaceOnUse" xlink:href="#a"/><linearGradient id="c" x1="224.4" x2="226.2" y1="304.6" y2="300.3" gradientUnits="userSpaceOnUse" xlink:href="#a"/><linearGradient id="f" x1="216.2" x2="215.6" y1="323.4" y2="299.3" gradientUnits="userSpaceOnUse"><stop stop-color="#2e3e46" offset="0"/><stop stop-color="#435a64" offset="1"/></linearGradient><linearGradient id="e" x1="473.8" x2="473.5" y1="536.5" y2="513.1" gradientUnits="userSpaceOnUse"><stop stop-color="#197cf1" offset="0"/><stop stop-color="#20bcfa" offset="1"/></linearGradient><linearGradient id="d" x1="207.8" x2="205.6" y1="305.2" y2="300.1" gradientUnits="userSpaceOnUse" xlink:href="#a"/></defs><g transform="matrix(.9363 0 0 .9368 -410.4 -466.1)"><g transform="matrix(1.917 0 0 1.916 49.75 -73.71)"><path d="m216 302c-6.06 0-11 4.935-11 11 0 6.06 4.935 11 11 11 6.06 0 11-4.935 11-11 0-6.06-4.935-11-11-11" fill="url(#b)"/><path d="m204.28 306.49l-1.244-1.462c-.537-.642-.452-1.606.191-2.145l4.196-3.585c.642-.536 1.675-.41 2.214.233l1.462 1.719c-2.745 1.08-5.05 3.039-6.571 5.53z" fill="url(#d)"/><path d="m229.07 304.99l-1.562 1.867c-1.502-2.503-3.797-4.477-6.535-5.574l1.45-1.732c.532-.646 1.564-.782 2.21-.25l4.229 3.546c.646.533.739 1.497.208 2.143" fill="url(#c)"/></g><path d="m463.9 513.34c.868 0 1.579.711 1.579 1.578v10.809l6.129 4.792c.71.526.817 1.525.291 2.209-.289.395-.765.602-1.238.602-.342 0-.682-.13-.971-.341l-6.759-5.259c-.368-.289-.608-.74-.608-1.239v-11.573c0-.868.71-1.578 1.578-1.578" fill="url(#e)" opacity=".99"/></g></svg>
