<svg viewBox="0 0 48 48" xmlns="http://www.w3.org/2000/svg"><defs><linearGradient id="b" x2="0" y1="545.8" y2="501.8" gradientUnits="userSpaceOnUse"><stop stop-color="#197cf1" offset="0"/><stop stop-color="#20bcfa" offset="1"/></linearGradient><linearGradient id="a" x1="22.03" x2="21.59" y1="49.03" y2=".437" gradientUnits="userSpaceOnUse"><stop stop-color="#212121" offset="0"/><stop stop-color="#3f3f41" offset="1"/></linearGradient></defs><g transform="matrix(1.043 0 0 1.044 -402.3 -522.8)"><rect x="386.6" y="501.8" width="44" height="44" rx="22" fill="url(#b)" stroke-width="1.15"/><path transform="matrix(.9583 0 0 .958 385.6 500.8)" d="m23.961 0c-3.254 0-6.348.645-9.318 1.92-5.9 2.532-10.221 6.826-12.756 12.738-1.27 2.962-1.887 6.06-1.887 9.314 0 3.256.616 6.383 1.887 9.346 2.535 5.912 6.857 10.229 12.756 12.762 2.971 1.275 6.06 1.92 9.318 1.92 3.254 0 6.369-.652 9.342-1.92 5.949-2.539 10.248-6.86 12.779-12.762 1.274-2.972 1.918-6.09 1.918-9.346 0-3.255-.643-6.342-1.918-9.314-2.531-5.903-6.83-10.2-12.779-12.738-2.973-1.269-6.087-1.92-9.342-1.92m-.494 9.799c1.128 0 2.053.924 2.053 2.053v14.06l7.969 6.232c.923.684 1.061 1.984.377 2.873-.376.513-.994.783-1.609.783-.444 0-.886-.17-1.262-.443l-8.787-6.84c-.479-.376-.791-.961-.791-1.611v-15.05c0-1.129.922-2.053 2.051-2.053" fill="url(#a)" opacity=".99"/></g></svg>
