<svg viewBox="0 0 48 48" xmlns="http://www.w3.org/2000/svg"><defs><linearGradient id="a" x2="0" y1="654" y2="301.3" gradientUnits="userSpaceOnUse"><stop stop-color="#0a80fd" offset="0"/><stop stop-color="#56c5fa" offset="1"/></linearGradient></defs><g transform="matrix(.1114 0 0 .1114 59.9 -26.19)"><circle transform="matrix(1.243 0 0 1.243 82.65 -144.2)" cx="-325.9" cy="478.8" r="173.4" fill="url(#a)"/><path d="m-434.3 548.3c8.476-7.654 17.32-15.6 19.66-17.66s4.261-3.953 4.277-4.21c0.028-0.47-24.81-17.18-25.93-17.45-0.333-0.075-0.82 0.546-1.092 1.403-0.606 1.91-8.342 30.84-12.65 47.33-0.92 3.517-0.934 4.503-0.066 4.503 0.216 0 7.329-6.262 15.8-13.92zm234.7 12.38c4.513-5.917 7.04-18.72 5.966-30.2-1.225-13.06-4.779-22.1-11.59-29.48-5.05-5.478-9.334-6.672-14.23-3.968-7.629 4.216-14.87 8.685-15.94 9.845-3.21 3.459-2.989 9.09 0.638 16.29 3.668 7.276 7.654 11.43 16.52 17.22 9.151 5.974 12.86 10.54 14.87 18.29 0.644 2.485 1.306 3.523 2.262 3.544 0.18 5e-3 0.856-0.686 1.502-1.533m-198.1-53.69c17.31-30.86 39.4-69.15 53.11-92.09 2.992-5 5.439-9.239 5.439-9.416 0-0.572-25.76-16.4-26.44-16.25-0.688 0.152-23.72 38.91-40.06 67.44-5.183 9.04-12.88 21.91-17.12 28.6-4.232 6.689-8.334 13.17-9.115 14.41-0.82 1.298-1.245 2.418-1 2.649 1.159 1.111 27.14 17.74 27.54 17.62 0.25-0.075 3.693-5.912 7.651-12.97m168.2-10.96c6.689-3.804 12.56-7.293 13.06-7.754 0.874-0.82 0.841-0.929-1.629-5.194-1.387-2.396-4.758-8.25-7.49-13.01-2.733-4.76-5.284-8.716-5.669-8.792-1.021-0.2-26.3 14.55-26.48 15.45-0.144 0.746 13.13 24.16 14.61 25.75 0.424 0.459 0.921 0.752 1.104 0.649 0.184-0.103 5.807-3.299 12.5-7.102m50.38-24.74c0.188-0.337 0.297-7.538 0.241-16l-0.102-15.39-28.45-0.121c-24.83-0.105-28.43-0.038-28.3 0.567 0.085 0.378 4.045 7.632 8.803 16.12l8.652 15.43 1.873 0.138c1.03 0.075 9.764 0.075 19.41 0 13.86-0.108 17.61-0.265 17.88-0.75m-90.01-0.659c0.075-0.234-3.53-7.03-8.02-15.11l-8.16-14.68h-69.39l-8.192 14.83c-4.505 8.157-8.088 15-7.962 15.2 0.327 0.528 101.5 0.288 101.7-0.241m-149-2.545c0.928-1.608 4.76-8.236 8.517-14.73 3.757-6.493 6.83-12.02 6.83-12.28 0-0.32-9.585-0.437-29.12-0.356l-29.12 0.121-0.156 3.274c-0.085 1.801-1e-3 8.589 0.169 15.09l0.326 11.81h40.86zm171.6-5.964c11.88-6.539 11.69-6.424 11.69-7.26 0-0.814-6.259-11.88-27.51-48.64-23.36-40.4-33.64-58.21-40.48-70.09-6.739-11.7-8.333-13.89-11.22-15.36-2.277-1.162-5.916-1.342-8.27-0.41-2.242 0.888-10.14 5.488-12.23 7.122-3.35 2.621-4.62 7.803-2.914 11.89 0.921 2.204 0.295 1.105 22.39 39.25 34.79 60.06 52.67 90.34 53.77 91.08 0.273 0.183 1.551-0.262 2.84-0.986 1.288-0.725 6.658-3.693 11.93-6.596m-85.92-69.11c5.539-9.242 6.351-10.86 6.69-13.34 0.705-5.141-2-8.587-10.55-13.44-4.847-2.748-5.635-3.046-8.476-3.207-3.884-0.219-5.801 0.597-8.474 3.608-2 2.255-9.75 16.04-9.736 17.33 5e-3 0.458 4.827 3.692 12.75 8.55 7.01 4.297 12.88 7.823 13.06 7.835 0.178 8e-3 2.31-3.292 4.738-7.344" fill="#fff" fill-opacity=".852"/></g></svg>
