<svg viewBox="0 0 32 32" xmlns="http://www.w3.org/2000/svg" xmlns:xlink="http://www.w3.org/1999/xlink"><defs><linearGradient id="d" x1="-591" x2="-601.2" y1="664" y2="353" gradientUnits="userSpaceOnUse"><stop stop-color="#289bf7" offset="0"/><stop stop-color="#4caaf4" offset="1"/></linearGradient><linearGradient id="c" x1="-398.8" x2="-394.8" y1="390.4" y2="88.29" gradientUnits="userSpaceOnUse" xlink:href="#b"/><linearGradient id="a" x1="-701.2" x2="-704" y1="647.8" y2="354.3" gradientUnits="userSpaceOnUse"><stop stop-color="#9fd2fa" offset="0"/><stop stop-color="#cde8fe" offset="1"/></linearGradient><linearGradient id="e" x1="59.12" x2="59.15" y1="-13.3" y2="-37.78" gradientTransform="matrix(4.175 0 0 4.168 -1070 447.7)" gradientUnits="userSpaceOnUse" xlink:href="#b"/><linearGradient id="b"><stop stop-color="#289bf7" offset="0"/><stop stop-color="#71b9f1" offset="1"/></linearGradient></defs><g transform="translate(-384.57-515.8)"><g transform="matrix(.0558 0 0 .0558 437.3 505.4)"><path d="m-884.1 294.8c-4.626 0-8.349 3.718-8.349 8.335v161.4l468.2 1v-121.2c0-4.618-3.724-8.335-8.35-8.335h-272.6c-8.51 0.751-9.607-0.377-13.81-5.981-5.964-7.968-14.97-21.44-20.84-29.21-4.712-6.805-5.477-6.02-13.29-6.02z" fill="url(#e)"/><rect x="-890.3" y="356.8" width="463.8" height="295.1" rx="9.63" fill="url(#a)" stroke="url(#a)" stroke-width="2.378"/><rect x="-890.3" y="356.8" width="463.8" height="295.1" rx="9.63" fill="none" stroke="url(#d)" stroke-linecap="round" stroke-linejoin="round" stroke-width="5.376"/></g><path transform="matrix(.03922 0 0 .03922 415.9 524.2)" d="m-394.8 88.29c-84.49 0-153 68.5-153 153s68.51 153 153 153 153-68.51 153-153-68.5-153-153-153m0 79.16c5.702 0 10.31 4.633 10.31 10.33v109.4l42.58-42.58c4.04-4.03 10.57-4.01 14.62 0.025 4.04 4.03 4.04 10.55 0 14.59l-58.42 58.45c-2.479 2.468-5.887 3.232-9.09 2.664-3.213 0.568-6.61-0.186-9.09-2.665l-58.42-58.45c-4.04-4.03-4.04-10.55 0-14.59 4.03-4.04 10.55-4.04 14.59 0l42.58 42.56v-109.4c0-5.702 4.633-10.33 10.33-10.33" fill="url(#c)"/></g></svg>
