<svg viewBox="0 0 32 32" xmlns="http://www.w3.org/2000/svg" xmlns:xlink="http://www.w3.org/1999/xlink"><defs><linearGradient id="d" x1="396.4" x2="395.7" y1="546.9" y2="524.8" gradientUnits="userSpaceOnUse"><stop stop-color="#289bf7" offset="0"/><stop stop-color="#4caaf4" offset="1"/></linearGradient><linearGradient id="c" x1="391.6" x2="391.6" y1="543.7" y2="528.1" gradientUnits="userSpaceOnUse" xlink:href="#b"/><linearGradient id="a" x1="-701.2" x2="-704" y1="647.8" y2="354.3" gradientUnits="userSpaceOnUse"><stop stop-color="#9fd2fa" offset="0"/><stop stop-color="#cde8fe" offset="1"/></linearGradient><linearGradient id="e" x1="59.12" x2="59.15" y1="-13.3" y2="-37.78" gradientTransform="matrix(4.175 0 0 4.168 -1070 447.7)" gradientUnits="userSpaceOnUse" xlink:href="#b"/><linearGradient id="b"><stop stop-color="#289bf7" offset="0"/><stop stop-color="#71b9f1" offset="1"/></linearGradient></defs><g transform="matrix(.7852 0 0 .7852 -291.5 -402.9)" stroke-width=".102"><path transform="matrix(.07107 0 0 .07107 438.4 499.8)" d="m-884.1 294.8c-4.626 0-8.349 3.718-8.349 8.335v161.4l468.2 1v-121.2c0-4.618-3.724-8.335-8.35-8.335h-272.6c-8.51 0.751-9.607-0.377-13.81-5.981-5.964-7.968-14.97-21.44-20.84-29.21-4.712-6.805-5.477-6.02-13.29-6.02z" fill="url(#e)"/><rect transform="matrix(.07107 0 0 .07107 438.4 499.8)" x="-890.3" y="356.8" width="463.8" height="295.1" rx="9.63" fill="url(#a)" stroke="url(#a)" stroke-width="2.378"/><rect x="375.1" y="525.1" width="32.97" height="20.98" rx=".684" fill="none" stroke="url(#d)" stroke-linecap="round" stroke-linejoin="round" stroke-width=".382"/><path d="m391.6 528.1q3.324 0 5.594 2.29t2.27 5.533q0 1.824-0.79 3.02-0.77 1.196-2.25 1.196-1.52 0-2.27-1.48-0.993 1.48-2.837 1.48-1.662 0-2.797-1.155-1.135-1.176-1.135-2.979 0-1.784 1.135-2.959 1.135-1.176 2.716-1.176 1.561 0 2.594 1.196h0.081v-0.912h1.459v5.29q0 0.527 0.284 0.953 0.304 0.426 0.912 0.426 1.439 0 1.439-2.898 0-2.675-1.865-4.52-1.865-1.844-4.54-1.844t-4.54 1.844-1.865 4.52q0 2.675 1.865 4.52 1.865 1.844 4.54 1.844 1.439 0 2.574-0.567l0.567 1.378q-1.419 0.649-3.141 0.649-3.364 0-5.655-2.27-2.29-2.29-2.29-5.553 0-3.243 2.29-5.533 2.31-2.29 5.655-2.29m-1.885 9.789q0.73 0.709 1.743 0.709t1.723-0.709q0.73-0.709 0.73-1.885t-0.73-1.885q-0.709-0.709-1.723-0.709-1.013 0-1.743 0.709-0.709 0.709-0.709 1.885t0.709 1.885" fill="url(#c)"/></g></svg>
