<svg viewBox="0 0 32 32" xmlns="http://www.w3.org/2000/svg" xmlns:xlink="http://www.w3.org/1999/xlink"><defs><linearGradient id="d" x1="89.07" x2="83.5" y1="144.9" y2="-26.16" gradientUnits="userSpaceOnUse"><stop stop-color="#289bf7" offset="0"/><stop stop-color="#4caaf4" offset="1"/></linearGradient><linearGradient id="c" x1="17.92" x2="17.96" y1="23.88" y2="11.99" gradientUnits="userSpaceOnUse" xlink:href="#b"/><linearGradient id="a" x1="-701.2" x2="-704" y1="647.8" y2="354.3" gradientUnits="userSpaceOnUse"><stop stop-color="#9fd2fa" offset="0"/><stop stop-color="#cde8fe" offset="1"/></linearGradient><linearGradient id="e" x1="59.12" x2="59.15" y1="-13.3" y2="-37.78" gradientTransform="matrix(4.175 0 0 4.168 -1070 447.7)" gradientUnits="userSpaceOnUse" xlink:href="#b"/><linearGradient id="b"><stop stop-color="#289bf7" offset="0"/><stop stop-color="#71b9f1" offset="1"/></linearGradient></defs><g transform="translate(-384.57-515.8)" fill="#60aae5"><g transform="matrix(.2603 0 0 .2603 294.2 397.4)" font-size="12.67" stroke="#60aae5"><g font-family="'Bitstream Vera Sans'"><text x="1172.2" y="504.23" opacity=".8"><tspan x="1172.2" y="504.23"/></text><text x="1196.16" y="463.49" opacity=".8"><tspan x="1196.16" y="463.49"/></text><text x="-274.39" y="433.41" opacity=".8"><tspan x="-274.39" y="433.41"/></text><text x="-2098.08" y="1178.96" opacity=".8"><tspan x="-2098.08" y="1178.96"/></text><text x="-159.9" y="48.09" opacity=".8"><tspan x="-159.9" y="48.09"/></text><text x="647.7" y="-365.38" opacity=".8"><tspan x="647.7" y="-365.38"/></text><text x="671.66" y="-406.12" opacity=".8"><tspan x="671.66" y="-406.12"/></text><text x="-819.8" y="-413.33" opacity=".8"><tspan x="-819.8" y="-413.33"/></text><text x="640.74" y="-686.57" opacity=".8"><tspan x="640.74" y="-686.57"/></text><text x="2126.86" y="-59.877" opacity=".8"><tspan x="2126.86" y="-59.877"/></text><text x="2150.82" y="-100.62" opacity=".8"><tspan x="2150.82" y="-100.62"/></text><text x="659.36" y="-107.83" opacity=".8"><tspan x="659.36" y="-107.83"/></text><text x="2119.9" y="-381.06" opacity=".8"><tspan x="2119.9" y="-381.06"/></text><text x="-278.45" y="-155.92" opacity=".8"><tspan x="-278.45" y="-155.92"/></text><text x="-2102.14" y="589.63" opacity=".8"><tspan x="-2102.14" y="589.63"/></text><text x="-387.38" y="682.51" opacity=".8"><tspan x="-387.38" y="682.51"/></text><text x="721.64" y="503.32" opacity=".8"><tspan x="721.64" y="503.32"/></text><text x="745.6" y="462.58" opacity=".8"><tspan x="745.6" y="462.58"/></text><text x="-745.86" y="455.37" opacity=".8"><tspan x="-745.86" y="455.37"/></text><text x="714.68" y="182.14" opacity=".8"><tspan x="714.68" y="182.14"/></text><text x="-313.05" y="452.66" opacity=".8"><tspan x="-313.05" y="452.66"/></text><text x="-2136.74" y="1198.21" opacity=".8"><tspan x="-2136.74" y="1198.21"/></text><text x="-161.96" y="-408.87" opacity=".8"><tspan x="-161.96" y="-408.87"/></text><text x="645.64" y="-822.34" opacity=".8"><tspan x="645.64" y="-822.34"/></text><text x="669.6" y="-863.08" opacity=".8"><tspan x="669.6" y="-863.08"/></text><text x="-821.86" y="-870.29" opacity=".8"><tspan x="-821.86" y="-870.29"/></text><text x="638.68" y="-1143.53" opacity=".8"><tspan x="638.68" y="-1143.53"/></text><text x="2124.8" y="-516.84" opacity=".8"><tspan x="2124.8" y="-516.84"/></text><text x="2148.77" y="-557.58" opacity=".8"><tspan x="2148.77" y="-557.58"/></text><text x="657.3" y="-564.79" opacity=".8"><tspan x="657.3" y="-564.79"/></text><text x="2117.84" y="-838.02" opacity=".8"><tspan x="2117.84" y="-838.02"/></text><text x="-280.51" y="-612.88" opacity=".8"><tspan x="-280.51" y="-612.88"/></text><text x="-2104.2" y="132.67" opacity=".8"><tspan x="-2104.2" y="132.67"/></text><text x="-389.44" y="225.55" opacity=".8"><tspan x="-389.44" y="225.55"/></text><text x="450.57" y="466.46" opacity=".8"><tspan x="450.57" y="466.46"/></text><text x="474.53" y="425.72" opacity=".8"><tspan x="474.53" y="425.72"/></text><text x="-795.29" y="231.69" opacity=".8"><tspan x="-795.29" y="231.69"/></text><text x="12.316" y="-181.78" opacity=".8"><tspan x="12.316" y="-181.78"/></text><text x="36.28" y="-222.52" opacity=".8"><tspan x="36.28" y="-222.52"/></text><text x="-1455.19" y="-229.73" opacity=".8"><tspan x="-1455.19" y="-229.73"/></text><text x="5.357" y="-502.97" opacity=".8"><tspan x="5.357" y="-502.97"/></text><text x="1491.48" y="123.72" opacity=".8"><tspan x="1491.48" y="123.72"/></text><text x="1515.44" y="82.983" opacity=".8"><tspan x="1515.44" y="82.983"/></text><text x="23.978" y="75.77" opacity=".8"><tspan x="23.978" y="75.77"/></text><text x="1484.52" y="-197.46" opacity=".8"><tspan x="1484.52" y="-197.46"/></text><text x="-913.84" y="27.682" opacity=".8"><tspan x="-913.84" y="27.682"/></text><text x="-2737.52" y="773.24" opacity=".8"><tspan x="-2737.52" y="773.24"/></text><text x="-1022.77" y="866.11" opacity=".8"><tspan x="-1022.77" y="866.11"/></text><text x="1172.2" y="511.47" opacity=".8"><tspan x="1172.2" y="511.47"/></text><text x="1196.16" y="470.72" opacity=".8"><tspan x="1196.16" y="470.72"/></text><text x="-274.39" y="440.65" opacity=".8"><tspan x="-274.39" y="440.65"/></text><text x="-2098.08" y="1186.2" opacity=".8"><tspan x="-2098.08" y="1186.2"/></text><text x="-159.9" y="55.33" opacity=".8"><tspan x="-159.9" y="55.33"/></text><text x="647.7" y="-358.14" opacity=".8"><tspan x="647.7" y="-358.14"/></text><text x="671.66" y="-398.89" opacity=".8"><tspan x="671.66" y="-398.89"/></text><text x="-819.8" y="-406.1" opacity=".8"><tspan x="-819.8" y="-406.1"/></text><text x="640.74" y="-679.33" opacity=".8"><tspan x="640.74" y="-679.33"/></text><text x="2126.86" y="-52.639" opacity=".8"><tspan x="2126.86" y="-52.639"/></text><text x="2150.82" y="-93.38" opacity=".8"><tspan x="2150.82" y="-93.38"/></text><text x="659.36" y="-100.59" opacity=".8"><tspan x="659.36" y="-100.59"/></text><text x="2119.9" y="-373.82" opacity=".8"><tspan x="2119.9" y="-373.82"/></text><text x="-278.45" y="-148.68" opacity=".8"><tspan x="-278.45" y="-148.68"/></text><text x="-2102.14" y="596.87" opacity=".8"><tspan x="-2102.14" y="596.87"/></text><text x="-387.38" y="689.74" opacity=".8"><tspan x="-387.38" y="689.74"/></text><text x="721.64" y="510.56" opacity=".8"><tspan x="721.64" y="510.56"/></text><text x="745.6" y="469.82" opacity=".8"><tspan x="745.6" y="469.82"/></text><text x="-745.86" y="462.61" opacity=".8"><tspan x="-745.86" y="462.61"/></text><text x="714.68" y="189.38" opacity=".8"><tspan x="714.68" y="189.38"/></text><text x="-313.05" y="459.9" opacity=".8"><tspan x="-313.05" y="459.9"/></text><text x="-2136.74" y="1205.45" opacity=".8"><tspan x="-2136.74" y="1205.45"/></text><text x="-161.96" y="-401.63" opacity=".8"><tspan x="-161.96" y="-401.63"/></text><text x="645.64" y="-815.11" opacity=".8"><tspan x="645.64" y="-815.11"/></text><text x="669.6" y="-855.85" opacity=".8"><tspan x="669.6" y="-855.85"/></text><text x="-821.86" y="-863.06" opacity=".8"><tspan x="-821.86" y="-863.06"/></text><text x="638.68" y="-1136.29" opacity=".8"><tspan x="638.68" y="-1136.29"/></text><text x="2124.8" y="-509.6" opacity=".8"><tspan x="2124.8" y="-509.6"/></text><text x="2148.77" y="-550.34" opacity=".8"><tspan x="2148.77" y="-550.34"/></text><text x="657.3" y="-557.55" opacity=".8"><tspan x="657.3" y="-557.55"/></text><text x="2117.84" y="-830.79" opacity=".8"><tspan x="2117.84" y="-830.79"/></text><text x="-280.51" y="-605.64" opacity=".8"><tspan x="-280.51" y="-605.64"/></text><text x="-2104.2" y="139.91" opacity=".8"><tspan x="-2104.2" y="139.91"/></text><text x="-389.44" y="232.78" opacity=".8"><tspan x="-389.44" y="232.78"/></text><text x="450.57" y="473.7" opacity=".8"><tspan x="450.57" y="473.7"/></text><text x="474.53" y="432.96" opacity=".8"><tspan x="474.53" y="432.96"/></text><text x="-795.29" y="238.93" opacity=".8"><tspan x="-795.29" y="238.93"/></text><text x="12.316" y="-174.54" opacity=".8"><tspan x="12.316" y="-174.54"/></text><text x="36.28" y="-215.28" opacity=".8"><tspan x="36.28" y="-215.28"/></text><text x="-1455.19" y="-222.49" opacity=".8"><tspan x="-1455.19" y="-222.49"/></text><text x="5.357" y="-495.73" opacity=".8"><tspan x="5.357" y="-495.73"/></text><text x="1491.48" y="130.96" opacity=".8"><tspan x="1491.48" y="130.96"/></text><text x="1515.44" y="90.22" opacity=".8"><tspan x="1515.44" y="90.22"/></text><text x="23.978" y="83.01" opacity=".8"><tspan x="23.978" y="83.01"/></text><text x="1484.52" y="-190.22" opacity=".8"><tspan x="1484.52" y="-190.22"/></text><text x="-913.84" y="34.92" opacity=".8"><tspan x="-913.84" y="34.92"/></text><text x="-2737.52" y="780.47" opacity=".8"><tspan x="-2737.52" y="780.47"/></text><text x="-1022.77" y="873.35" opacity=".8"><tspan x="-1022.77" y="873.35"/></text></g><text x="730.88" y="132.19" font-family="'Droid Sans'"><tspan x="730.88" y="132.19"/><tspan x="730.88" y="148.02"/></text><g font-family="'Bitstream Vera Sans'"><text x="1196.07" y="-349.85" opacity=".8"><tspan x="1196.07" y="-349.85"/></text><text x="-627.62" y="395.7" opacity=".8"><tspan x="-627.62" y="395.7"/></text><text x="1923.15" y="-634.85" opacity=".8"><tspan x="1923.15" y="-634.85"/></text><text x="1947.11" y="-675.59" opacity=".8"><tspan x="1947.11" y="-675.59"/></text><text x="455.64" y="-682.8" opacity=".8"><tspan x="455.64" y="-682.8"/></text><text x="1916.19" y="-956.04" opacity=".8"><tspan x="1916.19" y="-956.04"/></text></g></g><g transform="matrix(.1015 0 0 .1015 395.3 527.7)"><path transform="matrix(.5499 0 0 .5499 414.1 -220.3)" d="m-884.1 294.8c-4.626 0-8.349 3.718-8.349 8.335v161.4l468.2 1v-121.2c0-4.618-3.724-8.335-8.35-8.335h-272.6c-8.51 0.751-9.607-0.377-13.81-5.981-5.964-7.968-14.97-21.44-20.84-29.21-4.712-6.805-5.477-6.02-13.29-6.02z" fill="url(#e)"/><rect transform="matrix(.5499 0 0 .5499 414.1 -220.3)" x="-890.3" y="356.8" width="463.8" height="295.1" rx="9.63" fill="url(#a)" stroke="url(#a)" stroke-width="2.378"/><rect x="-75.5" y="-24.02" width="255.1" height="162.3" rx="5.296" fill="none" stroke="url(#d)" stroke-linecap="round" stroke-linejoin="round" stroke-width="2.956"/><path transform="matrix(9.855 0 0 9.855-109.58-121.3)" d="m19.852 12.309c-2.496 0-2.965 3.555-1.561 3.555 1.404 0 4.057-3.555 1.561-3.555m-3.982.443c-1.405.182-.91 2.626-.162 2.672.748.046 1.567-2.854.162-2.672m-2.354.961c-.062.007-.129.024-.199.053-1.129.466-.17 2.389.463 2.26.594-.121.66-2.411-.264-2.313m-1.754 1.506c-.098-.003-.205.029-.318.107-.904.625.304 2.132.836 1.898.465-.205.17-1.983-.518-2.01m5.162 1.154c-1.938-.033-4.494.938-4.93 2.891-.472 2.113 1.942 5.04 4.463 5.04 1.24 0 2.67-1.121 2.938-2.539.204-1.082-2.404-.647-2.311.068.112.858-.629 1.282-1.355.729-2.312-1.76 3.829-2.64 3.424-5.04-.126-.749-1.066-1.129-2.229-1.148" fill="url(#c)"/></g></g></svg>
