<svg viewBox="0 0 32 32" xmlns="http://www.w3.org/2000/svg" xmlns:xlink="http://www.w3.org/1999/xlink"><defs><linearGradient id="d" x1="206.9" x2="200.3" y1="300.8" y2="96.96" gradientUnits="userSpaceOnUse"><stop stop-color="#289bf7" offset="0"/><stop stop-color="#4caaf4" offset="1"/></linearGradient><linearGradient id="c" x1="14.34" x2="15.98" y1="23.79" y2="11.79" gradientUnits="userSpaceOnUse" xlink:href="#b"/><linearGradient id="a" x1="-701.2" x2="-704" y1="647.8" y2="354.3" gradientUnits="userSpaceOnUse"><stop stop-color="#9fd2fa" offset="0"/><stop stop-color="#cde8fe" offset="1"/></linearGradient><linearGradient id="e" x1="59.12" x2="59.15" y1="-13.3" y2="-37.78" gradientTransform="matrix(4.175 0 0 4.168 -1070 447.7)" gradientUnits="userSpaceOnUse" xlink:href="#b"/><linearGradient id="b"><stop stop-color="#289bf7" offset="0"/><stop stop-color="#71b9f1" offset="1"/></linearGradient></defs><g transform="matrix(.08512 0 0 .08512 2.143.954)"><path transform="matrix(.6556 0 0 .6556 594.4 -134.4)" d="m-884.1 294.8c-4.626 0-8.349 3.718-8.349 8.335v161.4l468.2 1v-121.2c0-4.618-3.724-8.335-8.35-8.335h-272.6c-8.51 0.751-9.607-0.377-13.81-5.981-5.964-7.968-14.97-21.44-20.84-29.21-4.712-6.805-5.477-6.02-13.29-6.02z" fill="url(#e)"/><rect transform="matrix(.6556 0 0 .6556 594.4 -134.4)" x="-890.3" y="356.8" width="463.8" height="295.1" rx="9.63" fill="url(#a)" stroke="url(#a)" stroke-width="2.378"/><rect x="10.75" y="99.49" width="304.1" height="193.5" rx="6.313" fill="none" stroke="url(#d)" stroke-linecap="round" stroke-linejoin="round" stroke-width="3.524"/><path transform="matrix(11.75 0 0 11.75 -25.18 -11.7)" d="m17.836 11.936c-.073.03-.131.087-.162.16l-4.682 11.07c-.064.152.007.327.158.391l.785.332c.037.016.076.023.115.023.038 0 .077-.007.113-.021.073-.03.131-.087.162-.16l4.682-11.07c.064-.152-.007-.327-.158-.391l-.785-.332c-.073-.031-.155-.032-.229-.002m-5.43 2.049c-.075-.011-.155.007-.221.057l-4.439 3.32c-.075.056-.119.144-.119.238 0 .094.044.182.119.238l4.439 3.32c.053.04.116.059.178.059.091 0 .18-.041.238-.119l.51-.682c.047-.063.068-.142.057-.221-.011-.078-.052-.148-.115-.195l-3.209-2.4 3.209-2.4c.063-.047.104-.117.115-.195.011-.078-.009-.157-.057-.221l-.51-.682c-.049-.066-.12-.106-.195-.117m7.188 0c-.075.011-.146.051-.195.117l-.51.682c-.047.063-.068.142-.057.221.011.078.052.148.115.195l3.209 2.4-3.209 2.4c-.063.047-.104.117-.115.195-.011.078.009.157.057.221l.51.682c.059.078.148.119.238.119.062 0 .124-.019.178-.059l4.439-3.32c.075-.056.119-.144.119-.238 0-.094-.044-.182-.119-.238l-4.439-3.32c-.066-.049-.145-.068-.221-.057z" fill="url(#c)"/></g></svg>
