<svg viewBox="0 0 32 32" xmlns="http://www.w3.org/2000/svg" xmlns:xlink="http://www.w3.org/1999/xlink"><defs><linearGradient id="d" x1="-591" x2="-601.2" y1="664" y2="353" gradientUnits="userSpaceOnUse"><stop stop-color="#289bf7" offset="0"/><stop stop-color="#4caaf4" offset="1"/></linearGradient><linearGradient id="c" x1="16.02" x2="15.61" y1="24.06" y2="12.52" gradientUnits="userSpaceOnUse" xlink:href="#b"/><linearGradient id="a" x1="-701.2" x2="-704" y1="647.8" y2="354.3" gradientUnits="userSpaceOnUse"><stop stop-color="#9fd2fa" offset="0"/><stop stop-color="#cde8fe" offset="1"/></linearGradient><linearGradient id="e" x1="59.12" x2="59.15" y1="-13.3" y2="-37.78" gradientTransform="matrix(4.175 0 0 4.168 -1070 447.7)" gradientUnits="userSpaceOnUse" xlink:href="#b"/><linearGradient id="b"><stop stop-color="#289bf7" offset="0"/><stop stop-color="#71b9f1" offset="1"/></linearGradient></defs><g transform="translate(-384.57-515.8)"><g transform="matrix(.0558 0 0 .0558 437.3 505.4)"><path d="m-884.1 294.8c-4.626 0-8.349 3.718-8.349 8.335v161.4l468.2 1v-121.2c0-4.618-3.724-8.335-8.35-8.335h-272.6c-8.51 0.751-9.607-0.377-13.81-5.981-5.964-7.968-14.97-21.44-20.84-29.21-4.712-6.805-5.477-6.02-13.29-6.02z" fill="url(#e)"/><rect x="-890.3" y="356.8" width="463.8" height="295.1" rx="9.63" fill="url(#a)" stroke="url(#a)" stroke-width="2.378"/><rect x="-890.3" y="356.8" width="463.8" height="295.1" rx="9.63" fill="none" stroke="url(#d)" stroke-linecap="round" stroke-linejoin="round" stroke-width="5.376"/></g><path transform="translate(384.6 515.7)" d="m12.691 12.268c-.499 0-.903.403-.902.9 0 .497.404.9.902.9.499 0 .903-.403.902-.9 0-.497-.404-.9-.902-.9m5.113 0l-1.805 1.665 2.727 2.665-2.727 3.094 1.805 1.574 4.213-4.799zm-6.316 4.199c-.832-.0001-1.506.671-1.506 1.5 0 .829.674 1.501 1.506 1.5.831 0 1.504-.672 1.504-1.5 0-.828-.673-1.5-1.504-1.5m2.707 4.199c-.997 0-1.804.805-1.805 1.799-.0001.994.807 1.801 1.805 1.801.997 0 1.805-.807 1.805-1.801 0-.993-.808-1.799-1.805-1.799" fill="url(#c)"/></g></svg>
