<svg viewBox="0 0 32 32" xmlns="http://www.w3.org/2000/svg" xmlns:xlink="http://www.w3.org/1999/xlink"><defs><linearGradient id="d" x1="-591" x2="-601.2" y1="664" y2="353" gradientUnits="userSpaceOnUse"><stop stop-color="#289bf7" offset="0"/><stop stop-color="#4caaf4" offset="1"/></linearGradient><linearGradient id="c" x1="265.3" x2="294.7" y1="1553" y2="309.3" gradientUnits="userSpaceOnUse" xlink:href="#b"/><linearGradient id="a" x1="-701.2" x2="-704" y1="647.8" y2="354.3" gradientUnits="userSpaceOnUse"><stop stop-color="#9fd2fa" offset="0"/><stop stop-color="#cde8fe" offset="1"/></linearGradient><linearGradient id="e" x1="59.12" x2="59.15" y1="-13.3" y2="-37.78" gradientTransform="matrix(4.175 0 0 4.168 -1070 447.7)" gradientUnits="userSpaceOnUse" xlink:href="#b"/><linearGradient id="b"><stop stop-color="#289bf7" offset="0"/><stop stop-color="#71b9f1" offset="1"/></linearGradient></defs><g transform="matrix(.00781 0 0 .00773 13.8 10.41)"><path transform="matrix(7.142 0 0 7.215 4984 -2702)" d="m-884.1 294.8c-4.626 0-8.349 3.718-8.349 8.335v161.4l468.2 1v-121.2c0-4.618-3.724-8.335-8.35-8.335h-272.6c-8.51 0.751-9.607-0.377-13.81-5.981-5.964-7.968-14.97-21.44-20.84-29.21-4.712-6.805-5.477-6.02-13.29-6.02z" fill="url(#e)"/><rect transform="matrix(7.142 0 0 7.215 4984 -2702)" x="-890.3" y="356.8" width="463.8" height="295.1" rx="9.63" fill="url(#a)" stroke="url(#a)" stroke-width="2.378"/><rect transform="matrix(7.142 0 0 7.215 4984 -2702)" x="-890.3" y="356.8" width="463.8" height="295.1" rx="9.63" fill="none" stroke="url(#d)" stroke-linecap="round" stroke-linejoin="round" stroke-width="5.376"/><path d="m58.69 358.3c-50.36 14.39-90.9 71.62-90.9 127.2v881.4c-51.06-28.51-116.6-40.04-184.6-21.2-122.7 33.99-199.6 143.8-173.3 245.3s147.2 158.2 269.9 124.2c97.88-27.12 165.4-103.8 176.1-184.8l2.84-832.9 636.3-181.7v657.3c-51.07-28.51-116.6-40.04-184.6-21.2-122.7 33.99-199.6 143.8-173.3 245.3s147.2 158.2 269.9 124.2c97.88-27.12 165.4-103.8 176.1-184.8l2.84-1084c0-41.69-24.17-72.88-56.81-78.75l-670.4 184.8" fill="url(#c)"/></g></svg>
