<svg viewBox="0 0 32 32" xmlns="http://www.w3.org/2000/svg" xmlns:xlink="http://www.w3.org/1999/xlink"><defs><linearGradient id="d" x1="-591" x2="-601.2" y1="664" y2="353" gradientUnits="userSpaceOnUse"><stop stop-color="#289bf7" offset="0"/><stop stop-color="#4caaf4" offset="1"/></linearGradient><linearGradient id="c" x1="400.7" x2="400.4" y1="539.8" y2="528.6" gradientUnits="userSpaceOnUse" xlink:href="#b"/><linearGradient id="a" x1="-701.2" x2="-704" y1="647.8" y2="354.3" gradientUnits="userSpaceOnUse"><stop stop-color="#9fd2fa" offset="0"/><stop stop-color="#cde8fe" offset="1"/></linearGradient><linearGradient id="e" x1="59.12" x2="59.15" y1="-13.3" y2="-37.78" gradientTransform="matrix(4.175 0 0 4.168 -1070 447.7)" gradientUnits="userSpaceOnUse" xlink:href="#b"/><linearGradient id="b"><stop stop-color="#289bf7" offset="0"/><stop stop-color="#71b9f1" offset="1"/></linearGradient></defs><g transform="translate(-384.57-515.8)"><g transform="matrix(.0558 0 0 .0558 437.3 505.4)"><path d="m-884.1 294.8c-4.626 0-8.349 3.718-8.349 8.335v161.4l468.2 1v-121.2c0-4.618-3.724-8.335-8.35-8.335h-272.6c-8.51 0.751-9.607-0.377-13.81-5.981-5.964-7.968-14.97-21.44-20.84-29.21-4.712-6.805-5.477-6.02-13.29-6.02z" fill="url(#e)"/><rect x="-890.3" y="356.8" width="463.8" height="295.1" rx="9.63" fill="url(#a)" stroke="url(#a)" stroke-width="2.378"/><rect x="-890.3" y="356.8" width="463.8" height="295.1" rx="9.63" fill="none" stroke="url(#d)" stroke-linecap="round" stroke-linejoin="round" stroke-width="5.376"/></g><path d="m406.45 530.51c-.332-.323-.733-.485-1.202-.485h-1.488l-.339-.88c-.084-.211-.238-.394-.462-.547-.224-.153-.453-.23-.687-.23h-3.4c-.235 0-.464.077-.687.23-.224.153-.377.335-.461.547l-.339.88h-1.488c-.469 0-.87.162-1.202.485-.332.324-.498.714-.498 1.171v5.797c0 .457.166.848.498 1.171.332.324.733.485 1.202.485h9.35c.469 0 .87-.162 1.202-.485.332-.323.498-.714.498-1.171v-5.797c0-.457-.166-.848-.498-1.171m-3.775 6.118c-.582.567-1.283.851-2.102.851-.819 0-1.52-.284-2.102-.851-.582-.567-.873-1.25-.873-2.048 0-.798.291-1.481.873-2.048.582-.567 1.283-.851 2.102-.851.819 0 1.52.284 2.102.851.582.567.873 1.25.873 2.048 0 .798-.291 1.481-.873 2.048m-2.102-3.911c-.527 0-.977.182-1.351.547-.374.365-.561.803-.561 1.317 0 .513.187.952.561 1.317.374.364.825.547 1.351.547.527 0 .977-.182 1.351-.547.374-.365.561-.803.561-1.317 0-.513-.187-.952-.561-1.317-.374-.365-.825-.547-1.351-.547" fill="url(#c)"/></g></svg>
