<svg viewBox="0 0 32 32" xmlns="http://www.w3.org/2000/svg" xmlns:xlink="http://www.w3.org/1999/xlink"><defs><linearGradient id="d" x1="-591" x2="-601.2" y1="664" y2="353" gradientUnits="userSpaceOnUse"><stop stop-color="#289bf7" offset="0"/><stop stop-color="#4caaf4" offset="1"/></linearGradient><linearGradient id="c" x1="390.8" x2="391.2" y1="543.8" y2="528.8" gradientUnits="userSpaceOnUse" xlink:href="#b"/><linearGradient id="a" x1="-701.2" x2="-704" y1="647.8" y2="354.3" gradientUnits="userSpaceOnUse"><stop stop-color="#9fd2fa" offset="0"/><stop stop-color="#cde8fe" offset="1"/></linearGradient><linearGradient id="e" x1="59.12" x2="59.15" y1="-13.3" y2="-37.78" gradientTransform="matrix(4.175 0 0 4.168 -1070 447.7)" gradientUnits="userSpaceOnUse" xlink:href="#b"/><linearGradient id="b"><stop stop-color="#289bf7" offset="0"/><stop stop-color="#71b9f1" offset="1"/></linearGradient></defs><g transform="translate(-384.57-515.8)"><g transform="matrix(.0558 0 0 .0558 437.3 505.4)"><path d="m-884.1 294.8c-4.626 0-8.349 3.718-8.349 8.335v161.4l468.2 1v-121.2c0-4.618-3.724-8.335-8.35-8.335h-272.6c-8.51 0.751-9.607-0.377-13.81-5.981-5.964-7.968-14.97-21.44-20.84-29.21-4.712-6.805-5.477-6.02-13.29-6.02z" fill="url(#e)"/><rect x="-890.3" y="356.8" width="463.8" height="295.1" rx="9.63" fill="url(#a)" stroke="url(#a)" stroke-width="2.378"/><rect x="-890.3" y="356.8" width="463.8" height="295.1" rx="9.63" fill="none" stroke="url(#d)" stroke-linecap="round" stroke-linejoin="round" stroke-width="5.376"/></g><path transform="matrix(.7233 0 0 .7211 117.9 146.7)" d="m398.38 530.3c-.83-.821-1.978-1.232-3.443-1.232-.405 0-.819.071-1.241.213-.422.142-.814.334-1.177.576-.363.242-.675.468-.937.68-.261.212-.51.437-.745.675-.235-.238-.484-.463-.745-.675-.262-.212-.574-.439-.937-.68-.363-.242-.755-.434-1.177-.576-.422-.142-.835-.213-1.241-.213-1.465 0-2.612.411-3.443 1.232-.83.821-1.246 1.96-1.246 3.416 0 .444.077.901.231 1.371.154.47.329.871.525 1.202.196.331.418.654.667.968.248.315.43.531.544.65.114.119.204.205.27.258l6.121 5.979c.118.119.262.179.432.179.17 0 .314-.06.432-.179l6.111-5.959c1.497-1.516 2.246-3.01 2.246-4.469 0-1.457-.415-2.595-1.246-3.416" fill="url(#c)"/></g></svg>
