<svg viewBox="0 0 32 32" xmlns="http://www.w3.org/2000/svg" xmlns:xlink="http://www.w3.org/1999/xlink"><defs><linearGradient id="k" x1="400.6" x2="400.6" y1="539.8" y2="527.6" gradientUnits="userSpaceOnUse" xlink:href="#a"/><linearGradient id="l" x1="15.97" x2="16.03" y1="23.95" y2="11.78" gradientUnits="userSpaceOnUse" xlink:href="#a"/><linearGradient id="m" x1="492.2" x2="492" y1="549.9" y2="537.8" gradientUnits="userSpaceOnUse" xlink:href="#a"/><linearGradient id="j" x1="1762" x2="1725" y1="1644" y2="226.7" gradientUnits="userSpaceOnUse" xlink:href="#a"/><linearGradient id="i" x1="400.4" x2="400.6" y1="539.7" y2="527.6" gradientUnits="userSpaceOnUse" xlink:href="#a"/><linearGradient id="e" x1="232.5" x2="236.3" y1="114.6" y2="-347.2" gradientUnits="userSpaceOnUse" xlink:href="#a"/><linearGradient id="d" x1="257" x2="269.7" y1="1708" y2="225.6" gradientUnits="userSpaceOnUse" xlink:href="#a"/><linearGradient id="f" x1="-104.5" x2="-102.5" y1="921.2" y2="746.9" gradientUnits="userSpaceOnUse" xlink:href="#a"/><linearGradient id="h" x1="201.8" x2="203.1" y1="414.4" y2="-.136" gradientUnits="userSpaceOnUse" xlink:href="#a"/><linearGradient id="g" x1="46.72" x2="47.46" y1="86.25" y2="4.54" gradientUnits="userSpaceOnUse" xlink:href="#a"/><linearGradient id="n" x1="255.2" x2="286" y1="1617" y2="172.4" gradientUnits="userSpaceOnUse" xlink:href="#a"/><linearGradient id="v" x1="-591" x2="-601.2" y1="664" y2="353" gradientUnits="userSpaceOnUse"><stop stop-color="#289bf7" offset="0"/><stop stop-color="#4caaf4" offset="1"/></linearGradient><linearGradient id="o" x1="391.6" x2="391.6" y1="543.7" y2="528.1" gradientUnits="userSpaceOnUse" xlink:href="#a"/><linearGradient id="c" x1="-701.2" x2="-704" y1="647.8" y2="354.3" gradientUnits="userSpaceOnUse"><stop stop-color="#9fd2fa" offset="0"/><stop stop-color="#cde8fe" offset="1"/></linearGradient><linearGradient id="w" x1="59.12" x2="59.15" y1="-13.3" y2="-37.78" gradientTransform="matrix(4.175 0 0 4.168 -1070 447.7)" gradientUnits="userSpaceOnUse" xlink:href="#a"/><linearGradient id="a"><stop stop-color="#289bf7" offset="0"/><stop stop-color="#71b9f1" offset="1"/></linearGradient><linearGradient id="u" x1="401" x2="400.9" y1="538.8" y2="528.2" gradientUnits="userSpaceOnUse" xlink:href="#a"/><linearGradient id="p" x1="400.8" x2="400.6" y1="539.2" y2="527.9" gradientUnits="userSpaceOnUse" xlink:href="#a"/><linearGradient id="b" x1="398.6" x2="398.1" y1="539.6" y2="527.9" gradientUnits="userSpaceOnUse" xlink:href="#a"/><linearGradient id="q" x1="400.8" x2="400.6" y1="538.8" y2="527.6" gradientUnits="userSpaceOnUse" xlink:href="#a"/><linearGradient id="s" x1="399.1" x2="398.5" y1="539.4" y2="528" gradientUnits="userSpaceOnUse" xlink:href="#a"/><linearGradient id="t" x1="17.92" x2="17.96" y1="23.88" y2="11.99" gradientUnits="userSpaceOnUse" xlink:href="#a"/><linearGradient id="r" x1="32.67" x2="32.84" y1="2.465" y2="-21.02" gradientUnits="userSpaceOnUse" xlink:href="#a"/></defs><g transform="translate(-384.57-515.8)"><path d="m397.7 530.92c-.383-.298-.864-.476-1.387-.476-1.23 0-2.231.984-2.263 2.21-1.27.478-2.174 1.706-2.174 3.146 0 1.701 1.261 3.107 2.897 3.328v.03h11.589v-.005c1.616-.094 2.897-1.438 2.897-3.081 0-1.585-1.192-2.891-2.726-3.066.006-.097.001-.194.001-.292 0-2.457-2.067-4.448-4.617-4.448-1.888 0-3.511 1.091-4.227 2.654" fill="url(#u)"/><path d="m405.83 530.77c-.543-.934-1.281-1.673-2.212-2.218-.931-.545-1.948-.817-3.051-.817-1.103 0-2.12.273-3.051.817-.931.545-1.668 1.284-2.212 2.218-.543.934-.815 1.953-.815 3.059 0 1.328.386 2.522 1.159 3.583.773 1.061 1.771 1.795 2.995 2.202.142.027.248.008.317-.055.069-.063.103-.143.103-.238 0-.016-.0001-.159-.004-.428-.003-.27-.004-.505-.004-.706l-.182.032c-.116.021-.262.03-.439.028-.177-.002-.36-.021-.55-.056-.19-.034-.367-.114-.53-.238-.163-.124-.28-.287-.348-.488l-.079-.183c-.053-.122-.136-.257-.249-.405-.113-.148-.228-.249-.344-.302l-.055-.04c-.037-.027-.071-.058-.103-.095-.032-.037-.055-.074-.071-.111-.016-.037-.003-.067.039-.091.042-.024.119-.035.23-.035l.158.024c.105.021.236.085.392.19.156.106.284.243.384.412.121.217.268.382.439.496.171.114.344.171.518.171.174 0 .324-.013.451-.04.127-.026.245-.066.356-.119.048-.355.177-.627.388-.817-.301-.032-.571-.08-.811-.143-.24-.063-.488-.167-.744-.31-.256-.143-.468-.32-.637-.532-.169-.212-.307-.489-.415-.833-.108-.344-.162-.741-.162-1.19 0-.64.208-1.185.625-1.635-.195-.481-.177-1.021.055-1.619.153-.048.38-.012.681.107.301.119.521.221.661.306.14.085.252.156.336.214.491-.138.997-.206 1.519-.206.522 0 1.029.069 1.52.206l.301-.19c.206-.127.448-.243.728-.349.28-.106.493-.135.641-.087.237.598.258 1.137.063 1.619.417.45.625.995.625 1.635 0 .45-.054.848-.162 1.194-.108.347-.248.624-.419.833-.172.209-.385.385-.641.528-.256.143-.504.246-.744.31-.24.063-.51.111-.811.143.274.238.411.614.411 1.127v1.674c0 .095.033.175.099.238.066.063.17.082.313.056 1.224-.407 2.222-1.141 2.995-2.202.773-1.061 1.159-2.255 1.159-3.583 0-1.105-.272-2.125-.815-3.059z" fill="url(#b)" stroke="url(#b)" stroke-width=".26"/><path transform="matrix(1 0 0 1 384.2 515.4)" d="m19.852 12.309c-2.496 0-2.965 3.555-1.561 3.555 1.404 0 4.057-3.555 1.561-3.555m-3.982.443c-1.405.182-.91 2.626-.162 2.672.748.046 1.567-2.854.162-2.672m-2.354.961c-.062.007-.129.024-.199.053-1.129.466-.17 2.389.463 2.26.594-.121.66-2.411-.264-2.313m-1.754 1.506c-.098-.003-.205.029-.318.107-.904.625.304 2.132.836 1.898.465-.205.17-1.983-.518-2.01m5.162 1.154c-1.938-.033-4.494.938-4.93 2.891-.472 2.113 1.942 5.04 4.463 5.04 1.24 0 2.67-1.121 2.938-2.539.204-1.082-2.404-.647-2.311.068.112.858-.629 1.282-1.355.729-2.312-1.76 3.829-2.64 3.424-5.04-.126-.749-1.066-1.129-2.229-1.148" fill="url(#t)"/><path d="m397.49 531.61c.13 0 .257.019.376.056.45-.504.949-.963 1.489-1.37-.023-.095-.035-.195-.035-.297 0-.142.024-.278.067-.405-.606-.433-1.263-.798-1.964-1.079-.655.405-1.227.933-1.684 1.553.338.6.741 1.159 1.199 1.668.167-.081.354-.127.553-.127m-1.277 1.276c0-.179.038-.35.104-.504-.41-.451-.781-.937-1.105-1.454-.408.81-.639 1.725-.639 2.694 0 1.121.309 2.17.845 3.068.192-1.079.555-2.099 1.057-3.034-.163-.214-.26-.482-.26-.771m4.383-4.163c.337 0 .642.131.871.345.666-.286 1.367-.507 2.097-.647-.881-.508-1.902-.8-2.992-.8-.743 0-1.454.136-2.11.383.521.258 1.018.558 1.485.897.19-.113.412-.179.649-.179m1.908 6.01c.08-.166.192-.312.332-.428-.377-1.159-.974-2.22-1.743-3.132-.153.065-.321.1-.498.1-.277 0-.532-.089-.742-.238-.463.352-.892.745-1.281 1.176.123.195.194.425.194.672 0 .132-.02.261-.059.382 1.12.747 2.409 1.261 3.796 1.467m1.656 1.724c.017.242.027.485.027.731 0 .433-.027.86-.08 1.279 1.017-.743 1.792-1.799 2.183-3.03-.463.112-.938.192-1.422.238-.113.35-.373.632-.708.777m-1.955-.865c-1.482-.246-2.855-.811-4.05-1.62-.194.119-.422.188-.666.188-.091 0-.177-.009-.262-.027-.572 1.084-.938 2.294-1.043 3.577.571.613 1.268 1.107 2.051 1.438.973-1.495 2.332-2.732 3.97-3.556m2.395-6.419c-.962.093-1.88.335-2.735.697.004.043.006.086.006.128 0 .202-.048.391-.131.56.855 1 1.518 2.172 1.936 3.451.52.001.963.327 1.154.779.578-.059 1.14-.17 1.681-.329.039-.274.06-.554.06-.839-.0001-1.763-.761-3.35-1.973-4.447m-1.752 7.101c-1.529.716-2.807 1.819-3.732 3.167.466.117.954.179 1.457.179.905 0 1.762-.202 2.532-.56.124-.605.189-1.231.189-1.871 0-.232-.001-.461-.028-.688-.154-.05-.295-.126-.417-.227" fill="url(#s)"/><path transform="matrix(.4738 0 0 .4738 384.7 537.9)" d="m37.07-5.998c-.159-.052-1.164-.505-.536-2.414h-.009c1.637-1.686 2.888-4.399 2.888-7.07 0-4.107-2.731-6.26-5.905-6.26-3.176 0-5.892 2.152-5.892 6.26 0 2.682 1.244 5.406 2.891 7.088.642 1.684-.506 2.309-.746 2.396-2.238.724-8.325 4.332-8.229 9.586h24.05c.107-5.02-4.708-8.279-8.513-9.586" fill="url(#r)"/><path d="m400.56 527.59c-.213.249-1.58 1.083-1.811 1.225-.568.426-.744 1.048-.709 1.35.009.073.018.142.031.211.029.016.055.037.076.064l2.039 2.668c.042-.014.083-.029.127-.039v-.988c0-.136.11-.246.246-.246.136 0 .246.11.246.246v.988c.075.016.148.039.217.068l2.033-2.805c.009-.055.018-.11.025-.168.035-.302-.143-.924-.711-1.35-.231-.142-1.597-.976-1.811-1.225m3.689 2.855c-.269-.029-.499.009-.637.072-.044.02-.086.04-.127.061l-2.064 2.848c.056.061.103.128.145.199l.943-.307c.128-.042.268.029.311.158.042.129-.029.267-.158.309l-.945.307c.004.039.014.077.014.117 0 .004-.002.008-.002.012l3.311 1.113c.043-.007.087-.014.131-.023.298-.06.833-.42 1.063-1.092.064-.263.435-1.82.605-2.1-.301-.126-1.516-1.168-1.723-1.344-.29-.204-.597-.301-.865-.33m-7.348.043c-.268.029-.575.126-.865.33-.206.175-1.421 1.218-1.723 1.344.171.279.54 1.837.604 2.1.23.672.767 1.032 1.064 1.092.067.014.132.024.197.033l3.223-1.086c-.002-.031-.001-.06-.001-.092 0-.04.008-.078.012-.117l-.945-.307c-.129-.042-.2-.181-.158-.311.042-.129.182-.2.311-.158l.943.307c.057-.097.126-.185.207-.262l-2.01-2.623c-.022-.029-.035-.059-.043-.092-.056-.03-.114-.058-.174-.086-.138-.063-.368-.102-.637-.072m3.658 3.045c-.017 0-.031.003-.047.004-.114.008-.221.044-.313.102-.004.003-.001.005-.014.008-.047.031-.087.068-.125.109-.11.12-.178.278-.178.453 0 .062.001.121.025.178.0001.005.004.001.006.016.083.279.339.484.645.484.005 0 .012-.002.018-.002.005 0 .001-.002.016-.002.297-.014.541-.219.617-.496.002-.005.005-.001.006-.016.013-.052.022-.106.022-.162 0-.223-.111-.419-.277-.543-.004-.003-.007-.007-.012-.001-.111-.078-.244-.123-.389-.123m1.056 1.17c-.048.104-.112.197-.188.281l.582.803c.08.11.056.264-.055.344-.044.032-.094.047-.145.047-.076 0-.151-.036-.199-.102l-.582-.799c-.055.025-.113.041-.172.057v3.441c.019.037.039.075.06.113.149.265.657.663 1.367.674.27-.021 1.867-.15 2.186-.074.026-.326.641-1.804.744-2.055.209-.679-.012-1.284-.219-1.508-.041-.044-.081-.086-.123-.127l-3.258-1.096m-2.074.07l-3.262 1.1c-.026.026-.051.052-.076.08-.206.223-.428.83-.219 1.508.103.251.718 1.728.744 2.055.318-.076 1.915.053 2.186.074.71-.011 1.217-.409 1.365-.674.031-.055.059-.108.086-.162v-3.395c-.098-.016-.189-.043-.277-.082l-.582.801c-.048.067-.123.1-.199.1-.05 0-.101-.015-.145-.047-.11-.08-.135-.232-.055-.342l.584-.803c-.058-.065-.108-.136-.15-.213" fill="url(#q)"/><path d="m400.56 527.62c-.318 0-.605.19-.765.476l-5.448 10.286c-.128.254-.129.603.029.857.158.254.412.381.729.381h10.934c.318 0 .604-.159.732-.413.16-.254.161-.571.035-.857l-5.487-10.286c-.158-.286-.442-.444-.76-.444m.016 4.061c.268 0 .482.215.482.48v2.889c0 .262-.215.48-.482.48-.268 0-.48-.215-.48-.48v-2.889c0-.262.214-.48.48-.48m0 4.812c.267 0 .482.216.482.482 0 .266-.216.48-.482.48-.266 0-.48-.214-.48-.48 0-.266.214-.482.48-.482" fill="url(#p)"/><path transform="matrix(.7852 0 0 .7852 93.09 113)" d="m391.6 528.1q3.324 0 5.594 2.29t2.27 5.533q0 1.824-0.79 3.02-0.77 1.196-2.25 1.196-1.52 0-2.27-1.48-0.993 1.48-2.837 1.48-1.662 0-2.797-1.155-1.135-1.176-1.135-2.979 0-1.784 1.135-2.959 1.135-1.176 2.716-1.176 1.561 0 2.594 1.196h0.081v-0.912h1.459v5.29q0 0.527 0.284 0.953 0.304 0.426 0.912 0.426 1.439 0 1.439-2.898 0-2.675-1.865-4.52-1.865-1.844-4.54-1.844t-4.54 1.844-1.865 4.52q0 2.675 1.865 4.52 1.865 1.844 4.54 1.844 1.439 0 2.574-0.567l0.567 1.378q-1.419 0.649-3.141 0.649-3.364 0-5.655-2.27-2.29-2.29-2.29-5.553 0-3.243 2.29-5.533 2.31-2.29 5.655-2.29m-1.885 9.789q0.73 0.709 1.743 0.709t1.723-0.709q0.73-0.709 0.73-1.885t-0.73-1.885q-0.709-0.709-1.723-0.709-1.013 0-1.743 0.709-0.709 0.709-0.709 1.885t0.709 1.885" fill="url(#o)" stroke-width=".102"/><path transform="matrix(.00781 0 0 .00773 398.4 526.3)" d="m31.72 324.5c-54.47 15.56-98.31 77.46-98.31 137.6v953.3c-55.23-30.84-126.2-43.3-199.7-22.93-132.7 36.76-215.8 155.6-187.4 265.3 28.44 109.8 159.2 171.1 291.9 134.3 105.9-29.33 178.8-112.3 190.5-199.8l3.072-900.9 688.2-196.6v710.9c-55.23-30.84-126.2-43.3-199.7-22.93-132.7 36.76-215.8 155.6-187.4 265.3 28.44 109.8 159.2 171.1 291.9 134.3 105.9-29.33 178.8-112.3 190.5-199.8l3.072-1173c0-45.09-26.14-78.83-61.45-85.17l-725.1 199.8" fill="url(#n)"/><path transform="translate(-91.43-10.163)" d="m498.17 539.88h-1.648v-1.483c0-.303-.246-.549-.549-.549h-7.963c-.303 0-.549.246-.549.549v1.483h-1.648c-.303 0-.549.246-.549.549v5.382c0 .303.246.549.549.549h1.648v1.945.949c0 .183.037.32.179.449.066.06.136.099.222.124.08.022.158.02.239.02h3.891 3.891c.08 0 .159.002.239-.02.086-.024.156-.063.222-.124.142-.13.178-.266.178-.45v-.949-1.944h1.648c.303 0 .549-.246.549-.549v-5.382c0-.303-.246-.549-.549-.549m-2.197 9.419h-7.963v-4.339h7.963zm0-9.419h-7.963v-.934-.549h7.964v.549c0 .311 0 .622 0 .934" fill="url(#m)"/><path transform="matrix(1 0 0 1 384.6 515.8)" d="m15.355 11.969c-.288 0-.52.232-.52.52v.129c0 .288.232.52.52.52h1.299c.288 0 .52-.232.52-.52v-.129c0-.288-.232-.52-.52-.52h-1.299m.025 1.738c-.288 0-.52.232-.52.52v.129c0 .288.232.52.52.52h1.299c.288 0 .52-.232.52-.52v-.129c0-.288-.232-.52-.52-.52h-1.299m0 1.707c-.288 0-.52.232-.52.52v.131c0 .288.232.52.52.52h1.299c.288 0 .52-.232.52-.52v-.131c0-.288-.232-.52-.52-.52h-1.299m0 1.748c-.288 0-.52.232-.52.52v.131c0 .288.232.52.52.52h1.299c.288 0 .52-.232.52-.52v-.131c0-.288-.232-.52-.52-.52h-1.299m.104 1.768c-.205 0-.371.168-.371.373v.736l-.572 1.689c-.16.471-.084.995.205 1.4.289.405.758.646 1.254.646.496 0 .965-.242 1.254-.646.289-.405.365-.93.205-1.4l-.572-1.689v-.736c0-.205-.166-.373-.371-.373h-1.031m-.045 2.475h1.121l.193.566c.082.243.042.514-.107.723-.297.418-.996.418-1.293 0-.149-.209-.19-.48-.107-.723l.193-.566" fill="url(#l)" opacity=".929"/><path d="m400.56 527.72c-.814 0-1.588.161-2.331.48-1.476.633-2.556 1.706-3.19 3.184-.318.74-.472 1.515-.472 2.329 0 .814.154 1.596.472 2.337.634 1.478 1.715 2.557 3.19 3.19.743.319 1.517.48 2.331.48.814 0 1.593-.163 2.337-.48 1.488-.635 2.563-1.715 3.196-3.19.319-.743.48-1.523.48-2.337 0-.814-.161-1.586-.48-2.329-.633-1.476-1.708-2.55-3.196-3.184-.744-.317-1.523-.48-2.337-.48m-.372 2.201c.306 0 .557.251.557.557v3.812l2.162 1.69c.25.186.288.538.102.779-.102.139-.27.212-.437.212-.121 0-.24-.046-.342-.12l-2.384-1.855c-.13-.102-.214-.26-.214-.437v-4.081c0-.306.251-.557.557-.557" fill="url(#k)" opacity=".99"/><path transform="matrix(.00788 0 0 .0078 387 526)" d="m2472 955.2-226.7-229.1c-21.6-21.79-14.87-45.09 14.9-51.86 0 0 24.59-5.602 54.87-36.2 65.02-65.65 64.96-172.2 0-237.8-65.05-65.68-170.4-65.68-235.4 0-30.32 30.59-35.8 55.4-35.8 55.4-6.703 30.13-29.83 36.87-51.37 15.02l-226.7-229c-21.57-21.82-56.91-21.82-78.48 0l-226.7 229c-21.54 21.85-14.87 45.21 14.9 51.96 0 0 24.62 5.602 54.87 36.13 64.93 65.65 65.02 172.2 0 237.9-64.99 65.65-170.5 65.59-235.4 0-30.25-30.62-35.8-55.46-35.8-55.46-6.672-30.1-29.83-36.84-51.4-15.05l-226.7 229.1c-21.57 21.79-21.57 57.43 0 79.22l226.7 229.1c21.57 21.79 14.87 45.15-14.9 51.92 0 0-24.59 5.602-54.87 36.2-65.02 65.68-65.02 172.2 0 237.8 64.99 65.62 170.4 65.68 235.4 0 30.32-30.59 35.8-55.4 35.8-55.4 6.703-30.13 29.83-36.87 51.37-15.02l226.7 229c21.57 21.82 56.91 21.82 78.48 0l226.8-229c21.57-21.79 14.87-45.21-14.9-51.92 0 0-24.65-5.602-54.9-36.13-65.05-65.68-65.02-172.2 0-237.9 64.99-65.65 170.4-65.71 235.4 0 30.28 30.6 35.77 55.46 35.77 55.46 6.703 30.1 29.8 36.9 51.4 15.11l226.7-229.1c21.57-21.79 21.57-57.43 0-79.22" fill="url(#j)"/><path d="m400.6 527.6a6 6 0 0 0-6 6 6 6 0 0 0 6 6 6 6 0 0 0 6-6 6 6 0 0 0-6-6m1.514 2.672c0.022 1e-4 0.048 0.011 0.069 0.017 0.106 0.03 0.195 0.121 0.226 0.227l1.093 3.981 0.573-0.777c0.058-0.086 0.147-0.146 0.251-0.149h0.633c0.013 0 0.026 0.014 0.026 0.026v0.611c0 0.013-0.013 0.017-0.025 0.017h-0.469l-0.841 1.17c-0.144 0.19-0.503 0.124-0.573-0.105l-0.997-3.545-0.685 2.261c-0.042 0.128-0.178 0.216-0.312 0.219h-1.136l-0.928 3.072c-0.046 0.167-0.243 0.277-0.408 0.227-0.106-0.03-0.195-0.121-0.226-0.227l-1.102-3.989-0.563 0.777c-0.058 0.087-0.157 0.137-0.26 0.139h-0.65c-0.012 0-0.017-5e-3 -0.017-0.017v-0.611c0-0.013 5e-3 -0.026 0.017-0.026h0.494l0.841-1.152c0.144-0.19 0.502-0.123 0.572 0.105l0.989 3.545 0.693-2.27c0.042-0.128 0.17-0.225 0.304-0.227h1.136l0.936-3.055c0.035-0.125 0.151-0.219 0.278-0.236 0.021-2e-3 0.039-8e-3 0.061-8e-3" fill="url(#i)"/><path transform="matrix(.0295 0 0 .0295 394.6 527.7)" d="m36.01 406.8h334.8c14.26 0 25.92-11.66 25.92-25.91v-355c0-14.22-11.67-25.91-25.92-25.91h-334.8c-14.29 0-25.94 11.69-25.94 25.91v355c0 14.25 11.65 25.91 25.94 25.91m297.5-375.1c0-4.3 3.52-7.771 7.779-7.771h24.3c4.292 0 7.763 3.471 7.763 7.771v25.03c0 4.3-3.471 7.771-7.763 7.771h-24.3c-4.259 0-7.779-3.463-7.779-7.771v-25.03m0 63.67c0-4.3 3.52-7.779 7.779-7.779h24.3c4.292 0 7.763 3.479 7.763 7.779v25.03c0 4.292-3.471 7.795-7.763 7.795h-24.3c-4.259 0-7.779-3.503-7.779-7.795v-25.03m0 63.72c0-4.292 3.52-7.795 7.779-7.795h24.3c4.292 0 7.763 3.503 7.763 7.795v25.04c0 4.259-3.471 7.763-7.763 7.763h-24.3c-4.259 0-7.779-3.503-7.779-7.763v-25.04m0 63.67c0-4.3 3.52-7.795 7.779-7.795h24.3c4.292 0 7.763 3.495 7.763 7.795v25.04c0 4.292-3.471 7.771-7.763 7.771h-24.3c-4.259 0-7.779-3.479-7.779-7.771v-25.04m0 63.67c0-4.3 3.52-7.771 7.779-7.771h24.3c4.292 0 7.763 3.463 7.763 7.771v25.05c0 4.276-3.471 7.755-7.763 7.755h-24.3c-4.259 0-7.779-3.479-7.779-7.755v-25.05m0 63.67c0-4.276 3.52-7.771 7.779-7.771h24.3c4.292 0 7.763 3.495 7.763 7.771v25.08c0 4.243-3.471 7.755-7.763 7.755h-24.3c-4.259 0-7.779-3.503-7.779-7.755v-25.08m-233.5-299.6c0-4.3 3.503-7.771 7.795-7.771h191.3c4.268 0 7.763 3.471 7.763 7.771v123.9c0 4.259-3.495 7.795-7.763 7.795h-191.3c-4.292 0-7.795-3.536-7.795-7.795-1e-4 0-1e-4 -123.9-1e-4 -123.9m0 191.1c0-4.268 3.503-7.747 7.795-7.747h191.3c4.268 0 7.763 3.479 7.763 7.747v114.6c0 4.276-3.495 7.771-7.763 7.771h-191.3c-4.292 0-7.795-3.495-7.795-7.771-1e-4 0-1e-4 -114.6-1e-4 -114.6m-66.52-209.9c0-4.3 3.495-7.771 7.779-7.771h24.31c4.268 0 7.755 3.471 7.755 7.771v25.03c0 4.3-3.487 7.771-7.755 7.771h-24.31c-4.284 0-7.779-3.463-7.779-7.771v-25.03m0 63.67c0-4.3 3.495-7.779 7.779-7.779h24.31c4.268 0 7.755 3.479 7.755 7.779v25.03c0 4.292-3.487 7.795-7.755 7.795h-24.31c-4.284 0-7.779-3.503-7.779-7.795v-25.03m0 63.72c0-4.292 3.495-7.795 7.779-7.795h24.31c4.268 0 7.755 3.503 7.755 7.795v25.04c0 4.259-3.487 7.763-7.755 7.763h-24.31c-4.284 0-7.779-3.503-7.779-7.763v-25.04m0 63.67c0-4.3 3.495-7.795 7.779-7.795h24.31c4.268 0 7.755 3.495 7.755 7.795v25.04c0 4.292-3.487 7.771-7.755 7.771h-24.31c-4.284 0-7.779-3.479-7.779-7.771v-25.04m0 63.67c0-4.3 3.495-7.771 7.779-7.771h24.31c4.268 0 7.755 3.463 7.755 7.771v25.05c0 4.276-3.487 7.755-7.755 7.755h-24.31c-4.284 0-7.779-3.479-7.779-7.755v-25.05m0 63.67c0-4.276 3.495-7.771 7.779-7.771h24.31c4.268 0 7.755 3.495 7.755 7.771v25.08c0 4.243-3.487 7.755-7.755 7.755h-24.31c-4.284 0-7.779-3.503-7.779-7.755v-25.08" fill="url(#h)"/><path transform="matrix(.1473 0 0 .1473 393.6 527)" d="m93.23 23.522c-1.104-.507-2.408-.324-3.33.471l-18.385 15.83v-18.05c0-1.778-1.447-3.226-3.226-3.226h-65.06c-1.778 0-3.225 1.447-3.225 3.226v51.51c0 1.777 1.446 3.226 3.225 3.226h65.06c1.777 0 3.227-1.446 3.227-3.226v-18.05l18.385 15.829c.922.796 2.228.978 3.33.472 1.106-.508 1.815-1.613 1.815-2.832v-42.34c-.0001-1.218-.709-2.323-1.817-2.831" fill="url(#g)"/><path transform="matrix(.07089 0 0 .07017 407.9 475.2)" d="m-67.45 887.5c-3.547 0-7.086-1.54-9.659-4.563-6.599-7.773-16-12.22-25.8-12.22-9.963 0-19.12 4.313-25.78 12.15-4.834 5.704-13.08 6.14-18.42 0.965-5.338-5.166-5.747-13.96-0.904-19.64 11.49-13.53 27.93-21.3 45.1-21.3 17.14 0 33.58 7.782 45.11 21.34 4.843 5.695 4.434 14.49-0.904 19.65-2.486 2.421-5.625 3.608-8.755 3.608m28.93-34.81c-3.33 0-6.66-1.354-9.198-4.053-14.76-15.67-34.36-24.29-55.19-24.29-20.87 0-40.48 8.607-55.22 24.24-5.103 5.417-13.36 5.389-18.44-0.055s-5.06-14.26 0.055-19.67c19.65-20.85 45.79-32.33 73.6-32.33 27.77 0 53.9 11.5 73.59 32.39 5.112 5.417 5.13 14.23 0.055 19.68-2.547 2.718-5.903 4.1-9.25 4.1zm28.87-34.75c-3.243 0-6.494-1.289-9.02-3.868-22.77-23.28-52.68-36.1-84.24-36.1-31.62 0-61.55 12.8-84.25 36.06-5.19 5.315-13.45 5.138-18.44-0.408-4.99-5.547-4.817-14.36 0.373-19.67 27.6-28.25 63.93-43.81 102.3-43.81 38.31 0 74.64 15.57 102.3 43.83 5.199 5.315 5.373 14.13 0.392 19.67-2.565 2.847-5.99 4.285-9.416 4.285m-94.9 103.2c8.7 0 15.75-7.139 15.75-15.94s-7.05-15.94-15.75-15.94c-8.7 0-15.75 7.139-15.75 15.94s7.05 15.94 15.75 15.94" fill="url(#f)"/><g transform="matrix(.02646 0 0 .02646 394.3 536.8)" fill="#60aa5f"><path d="m272.5-344-75.37 7.247v310.5l74.56-11.27v-132.4l100.3 146.9 78.59-24.96-102.7-141.2 103.6-133.2-80.2-18.36-99.52 133.2 0.805-136.4m-170.9 75.69c-0.852 0.088-1.774 0.323-2.416 0.966l-29.63 29.63c-1.244 1.248-1.397 3.159-0.483 4.67l34.62 57.17c-6.148 10.34-11.14 21.42-14.65 33.17l-63.61 13.2c-1.77 0.366-3.06 2.051-3.06 3.865v41.87c0 1.77 1.346 3.286 3.06 3.704l61.68 14.98c3.298 13.61 8.393 26.63 15.14 38.49l-35.75 54.43c-0.997 1.52-0.803 3.548 0.483 4.831l29.63 29.63c1.248 1.244 3.163 1.4 4.67 0.483l56.04-33.98c10.99 6.346 22.89 11.43 35.43 14.82l13.04 62.8c0.366 1.775 1.891 3.06 3.704 3.06h41.87c1.757 0 3.286-1.18 3.704-2.899l15.46-63.13c12.93-3.486 25.12-8.661 36.39-15.3l55.24 36.23c1.523 0.992 3.54 0.8 4.831-0.483l29.47-29.63c1.252-1.25 1.561-3.163 0.644-4.67l-20.13-33.17-6.603 2.093c-0.953 0.294-2.01-0.137-2.577-0.966 0 0-12.72-18.7-29.31-43-19.84 38.83-60.32 65.38-106.9 65.38-66.24 0-120-53.74-120-120 0-48.72 29.14-90.57 70.86-109.3v-30.92c-7.593 2.658-14.93 5.864-21.9 9.662-0.013-8e-3 0.013-0.153 0-0.161l-56.52-37.04c-0.76-0.497-1.563-0.571-2.416-0.483" fill="url(#e)"/></g><g transform="matrix(.07032 0 0 .06961 407.6 475.6)" fill="#60aa89"><g transform="matrix(.1177 0 0 .1177 -131.6 724)"><path d="m123.2 740.6c-51.4-10.33-84.79-60.8-74.58-112.7 10.22-51.94 60.19-85.67 111.6-75.34 51.42 10.33 84.82 60.8 74.6 112.7-10.23 51.94-60.19 85.67-111.6 75.34"/><path d="m410.3 764.5c3.847 0.713 7.576 1.946 11.1 3.675l95.1 46.61c21.53 10.55 30.52 36.74 20.07 58.49-7.491 15.6-22.94 24.68-39.02 24.68-6.344 0-12.79-1.415-18.89-4.406l-89.8-44.01-39.84-7.379 30.64 145.7c0.616 2.928 1.057 5.844 1.356 8.755l55.52 144.3 117 99.11c21.83 18.49 24.68 51.36 6.372 73.41-10.2 12.29-24.82 18.63-39.55 18.63-11.69 0-23.46-3.995-33.12-12.18l-127.1-107.7c-6.649-5.633-11.79-12.88-14.93-21.05l-39.59-102.9c-0.864 0.075-1.723 0.097-2.582 0.137l-77.73 68.72-22.2 147.1c-3.892 25.79-25.88 44.27-50.94 44.27-2.587 0-5.203-0.194-7.836-0.6-28.16-4.337-47.52-30.92-43.22-59.37l25.04-166c1.836-12.16 7.864-23.26 17.02-31.36l75.54-66.79c-0.147-0.634-0.35-1.244-0.48-1.883l-29.39-139.7-39.13 30.88c-4.102 3.236-8.751 5.701-13.72 7.271l-111.4 35.28c-4.311 1.364-8.678 2.01-12.97 2.01-18.43 0-35.53-11.98-41.34-30.7-7.152-23.07 5.559-47.63 28.39-54.86l103.9-32.9 104-82.08c0.864-0.679 1.763-1.284 2.661-1.883 9.632-7.682 21.06-13.38 33.87-16.12 12.51-2.694 24.93-2.266 36.59 0.594l130.6 24.21"/></g><g transform="matrix(.1171 0 0 .1171 -131.2 721.6)"><path transform="matrix(6.777 0 0 6.846 4732 -2519)" d="m-884.1 294.8c-4.626 0-8.349 3.718-8.349 8.335v161.4l468.2 1v-121.2c0-4.618-3.724-8.335-8.35-8.335h-272.6c-8.51 0.751-9.607-0.377-13.81-5.981-5.964-7.968-14.97-21.44-20.84-29.21-4.712-6.805-5.477-6.02-13.29-6.02z" fill="url(#w)"/><rect transform="matrix(6.777 0 0 6.846 4732 -2519)" x="-890.3" y="356.8" width="463.8" height="295.1" rx="9.63" fill="url(#c)" stroke="url(#c)" stroke-width="2.378"/><rect transform="matrix(6.777 0 0 6.846 4732 -2519)" x="-890.3" y="356.8" width="463.8" height="295.1" rx="9.63" fill="none" stroke="url(#v)" stroke-linecap="round" stroke-linejoin="round" stroke-width="5.376"/><path d="m-498 1018 148.8 157.7 124-131.4v631h992.2v-631l124 131.4 148.8-157.7-768.9-815-768.9 815m1067-709.8v78.87l198.4 210.3v-289.2h-198.4z" fill="url(#d)"/></g></g></g></svg>
