<svg viewBox="0 0 32 32" xmlns="http://www.w3.org/2000/svg" xmlns:xlink="http://www.w3.org/1999/xlink"><defs><linearGradient id="d" x1="415.8" x2="414.8" y1="535.7" y2="506" gradientUnits="userSpaceOnUse"><stop stop-color="#289bf7" offset="0"/><stop stop-color="#4caaf4" offset="1"/></linearGradient><linearGradient id="c" x1="409.3" x2="409.4" y1="531.2" y2="510" gradientUnits="userSpaceOnUse" xlink:href="#b"/><linearGradient id="a" x1="-701.2" x2="-704" y1="647.8" y2="354.3" gradientUnits="userSpaceOnUse"><stop stop-color="#9fd2fa" offset="0"/><stop stop-color="#cde8fe" offset="1"/></linearGradient><linearGradient id="e" x1="59.12" x2="59.15" y1="-13.3" y2="-37.78" gradientTransform="matrix(4.175 0 0 4.168 -1070 447.7)" gradientUnits="userSpaceOnUse" xlink:href="#b"/><linearGradient id="b"><stop stop-color="#289bf7" offset="0"/><stop stop-color="#71b9f1" offset="1"/></linearGradient></defs><g transform="matrix(.5844 0 0 .5844 -223.2 -286.5)"><path transform="matrix(.09549 0 0 .09549 472.2 472.3)" d="m-884.1 294.8c-4.626 0-8.349 3.718-8.349 8.335v161.4l468.2 1v-121.2c0-4.618-3.724-8.335-8.35-8.335h-272.6c-8.51 0.751-9.607-0.377-13.81-5.981-5.964-7.968-14.97-21.44-20.84-29.21-4.712-6.805-5.477-6.02-13.29-6.02z" fill="url(#e)"/><rect transform="matrix(.09549 0 0 .09549 472.2 472.3)" x="-890.3" y="356.8" width="463.8" height="295.1" rx="9.63" fill="url(#a)" stroke="url(#a)" stroke-width="2.378"/><rect x="387.2" y="506.4" width="44.29" height="28.18" rx=".92" fill="none" stroke="url(#d)" stroke-linecap="round" stroke-linejoin="round" stroke-width=".513"/><path d="m408.2 510.31c-.5 0-.904.403-.904.904v.224c0 .5.403.904.904.904h2.259c.5 0 .904-.403.904-.904v-.224c0-.5-.403-.904-.904-.904h-2.259m.044 3.02c-.5 0-.904.403-.904.904v.224c0 .5.403.904.904.904h2.259c.5 0 .904-.403.904-.904v-.224c0-.5-.403-.904-.904-.904h-2.259m0 2.969c-.5 0-.904.403-.904.904v.228c0 .5.403.904.904.904h2.259c.5 0 .904-.403.904-.904v-.228c0-.5-.403-.904-.904-.904h-2.259m0 3.04c-.5 0-.904.403-.904.904v.228c0 .5.403.904.904.904h2.259c.5 0 .904-.403.904-.904v-.228c0-.5-.403-.904-.904-.904h-2.259m.18 3.074c-.356 0-.645.292-.645.649v1.281l-.995 2.938c-.279.819-.146 1.73.357 2.436.502.704 1.318 1.124 2.181 1.124.863 0 1.678-.421 2.181-1.124.502-.705.635-1.617.357-2.436l-.995-2.938v-1.281c0-.357-.289-.649-.645-.649h-1.794m-.078 4.304h1.95l.336.985c.143.422.072.893-.187 1.257-.517.726-1.732.726-2.249 0-.259-.364-.33-.834-.187-1.257l.336-.985" fill="url(#c)" opacity=".929"/></g></svg>
