<svg viewBox="0 0 32 32" xmlns="http://www.w3.org/2000/svg" xmlns:xlink="http://www.w3.org/1999/xlink"><defs><linearGradient id="d" x1="-591" x2="-601.2" y1="664" y2="353" gradientUnits="userSpaceOnUse"><stop stop-color="#289bf7" offset="0"/><stop stop-color="#4caaf4" offset="1"/></linearGradient><linearGradient id="c" x1="1762" x2="1725" y1="1644" y2="226.7" gradientUnits="userSpaceOnUse" xlink:href="#b"/><linearGradient id="a" x1="-701.2" x2="-704" y1="647.8" y2="354.3" gradientUnits="userSpaceOnUse"><stop stop-color="#9fd2fa" offset="0"/><stop stop-color="#cde8fe" offset="1"/></linearGradient><linearGradient id="e" x1="59.12" x2="59.15" y1="-13.3" y2="-37.78" gradientTransform="matrix(4.175 0 0 4.168 -1070 447.7)" gradientUnits="userSpaceOnUse" xlink:href="#b"/><linearGradient id="b"><stop stop-color="#289bf7" offset="0"/><stop stop-color="#71b9f1" offset="1"/></linearGradient></defs><g transform="matrix(.00788 0 0 .0078 2.409 10.11)"><path transform="matrix(7.084 0 0 7.157 6390 -2642)" d="m-884.1 294.8c-4.626 0-8.349 3.718-8.349 8.335v161.4l468.2 1v-121.2c0-4.618-3.724-8.335-8.35-8.335h-272.6c-8.51 0.751-9.607-0.377-13.81-5.981-5.964-7.968-14.97-21.44-20.84-29.21-4.712-6.805-5.477-6.02-13.29-6.02z" fill="url(#e)"/><rect transform="matrix(7.084 0 0 7.157 6390 -2642)" x="-890.3" y="356.8" width="463.8" height="295.1" rx="9.63" fill="url(#a)" stroke="url(#a)" stroke-width="2.378"/><rect transform="matrix(7.084 0 0 7.157 6390 -2642)" x="-890.3" y="356.8" width="463.8" height="295.1" rx="9.63" fill="none" stroke="url(#d)" stroke-linecap="round" stroke-linejoin="round" stroke-width="5.376"/><path d="m2472 955.2-226.7-229.1c-21.6-21.79-14.87-45.09 14.9-51.86 0 0 24.59-5.602 54.87-36.2 65.02-65.65 64.96-172.2 0-237.8-65.05-65.68-170.4-65.68-235.4 0-30.32 30.59-35.8 55.4-35.8 55.4-6.703 30.13-29.83 36.87-51.37 15.02l-226.7-229c-21.57-21.82-56.91-21.82-78.48 0l-226.7 229c-21.54 21.85-14.87 45.21 14.9 51.96 0 0 24.62 5.602 54.87 36.13 64.93 65.65 65.02 172.2 0 237.9-64.99 65.65-170.5 65.59-235.4 0-30.25-30.62-35.8-55.46-35.8-55.46-6.672-30.1-29.83-36.84-51.4-15.05l-226.7 229.1c-21.57 21.79-21.57 57.43 0 79.22l226.7 229.1c21.57 21.79 14.87 45.15-14.9 51.92 0 0-24.59 5.602-54.87 36.2-65.02 65.68-65.02 172.2 0 237.8 64.99 65.62 170.4 65.68 235.4 0 30.32-30.59 35.8-55.4 35.8-55.4 6.703-30.13 29.83-36.87 51.37-15.02l226.7 229c21.57 21.82 56.91 21.82 78.48 0l226.8-229c21.57-21.79 14.87-45.21-14.9-51.92 0 0-24.65-5.602-54.9-36.13-65.05-65.68-65.02-172.2 0-237.9 64.99-65.65 170.4-65.71 235.4 0 30.28 30.6 35.77 55.46 35.77 55.46 6.703 30.1 29.8 36.9 51.4 15.11l226.7-229.1c21.57-21.79 21.57-57.43 0-79.22" fill="url(#c)"/></g></svg>
