<svg viewBox="0 0 32 32" xmlns="http://www.w3.org/2000/svg" xmlns:xlink="http://www.w3.org/1999/xlink"><defs><linearGradient id="d" x1="330.8" x2="311.6" y1="497.5" y2="-90.82" gradientUnits="userSpaceOnUse"><stop stop-color="#289bf7" offset="0"/><stop stop-color="#4caaf4" offset="1"/></linearGradient><linearGradient id="c" x1="201.8" x2="203.1" y1="414.4" y2="-.136" gradientUnits="userSpaceOnUse" xlink:href="#b"/><linearGradient id="a" x1="-701.2" x2="-704" y1="647.8" y2="354.3" gradientUnits="userSpaceOnUse"><stop stop-color="#9fd2fa" offset="0"/><stop stop-color="#cde8fe" offset="1"/></linearGradient><linearGradient id="e" x1="59.12" x2="59.15" y1="-13.3" y2="-37.78" gradientTransform="matrix(4.175 0 0 4.168 -1070 447.7)" gradientUnits="userSpaceOnUse" xlink:href="#b"/><linearGradient id="b"><stop stop-color="#289bf7" offset="0"/><stop stop-color="#71b9f1" offset="1"/></linearGradient></defs><g transform="matrix(.0295 0 0 .0295 10 11.89)"><path transform="matrix(1.892 0 0 1.892 1449 -758.6)" d="m-884.1 294.8c-4.626 0-8.349 3.718-8.349 8.335v161.4l468.2 1v-121.2c0-4.618-3.724-8.335-8.35-8.335h-272.6c-8.51 0.751-9.607-0.377-13.81-5.981-5.964-7.968-14.97-21.44-20.84-29.21-4.712-6.805-5.477-6.02-13.29-6.02z" fill="url(#e)"/><rect transform="matrix(1.892 0 0 1.892 1449 -758.6)" x="-890.3" y="356.8" width="463.8" height="295.1" rx="9.63" fill="url(#a)" stroke="url(#a)" stroke-width="2.378"/><rect x="-235.3" y="-83.5" width="877.5" height="558.3" rx="18.22" fill="none" stroke="url(#d)" stroke-linecap="round" stroke-linejoin="round" stroke-width="10.17"/><path d="m36.01 406.8h334.8c14.26 0 25.92-11.66 25.92-25.91v-355c0-14.22-11.67-25.91-25.92-25.91h-334.8c-14.29 0-25.94 11.69-25.94 25.91v355c0 14.25 11.65 25.91 25.94 25.91m297.5-375.1c0-4.3 3.52-7.771 7.779-7.771h24.3c4.292 0 7.763 3.471 7.763 7.771v25.03c0 4.3-3.471 7.771-7.763 7.771h-24.3c-4.259 0-7.779-3.463-7.779-7.771v-25.03m0 63.67c0-4.3 3.52-7.779 7.779-7.779h24.3c4.292 0 7.763 3.479 7.763 7.779v25.03c0 4.292-3.471 7.795-7.763 7.795h-24.3c-4.259 0-7.779-3.503-7.779-7.795v-25.03m0 63.72c0-4.292 3.52-7.795 7.779-7.795h24.3c4.292 0 7.763 3.503 7.763 7.795v25.04c0 4.259-3.471 7.763-7.763 7.763h-24.3c-4.259 0-7.779-3.503-7.779-7.763v-25.04m0 63.67c0-4.3 3.52-7.795 7.779-7.795h24.3c4.292 0 7.763 3.495 7.763 7.795v25.04c0 4.292-3.471 7.771-7.763 7.771h-24.3c-4.259 0-7.779-3.479-7.779-7.771v-25.04m0 63.67c0-4.3 3.52-7.771 7.779-7.771h24.3c4.292 0 7.763 3.463 7.763 7.771v25.05c0 4.276-3.471 7.755-7.763 7.755h-24.3c-4.259 0-7.779-3.479-7.779-7.755v-25.05m0 63.67c0-4.276 3.52-7.771 7.779-7.771h24.3c4.292 0 7.763 3.495 7.763 7.771v25.08c0 4.243-3.471 7.755-7.763 7.755h-24.3c-4.259 0-7.779-3.503-7.779-7.755v-25.08m-233.5-299.6c0-4.3 3.503-7.771 7.795-7.771h191.3c4.268 0 7.763 3.471 7.763 7.771v123.9c0 4.259-3.495 7.795-7.763 7.795h-191.3c-4.292 0-7.795-3.536-7.795-7.795-1e-4 0-1e-4 -123.9-1e-4 -123.9m0 191.1c0-4.268 3.503-7.747 7.795-7.747h191.3c4.268 0 7.763 3.479 7.763 7.747v114.6c0 4.276-3.495 7.771-7.763 7.771h-191.3c-4.292 0-7.795-3.495-7.795-7.771-1e-4 0-1e-4 -114.6-1e-4 -114.6m-66.52-209.9c0-4.3 3.495-7.771 7.779-7.771h24.31c4.268 0 7.755 3.471 7.755 7.771v25.03c0 4.3-3.487 7.771-7.755 7.771h-24.31c-4.284 0-7.779-3.463-7.779-7.771v-25.03m0 63.67c0-4.3 3.495-7.779 7.779-7.779h24.31c4.268 0 7.755 3.479 7.755 7.779v25.03c0 4.292-3.487 7.795-7.755 7.795h-24.31c-4.284 0-7.779-3.503-7.779-7.795v-25.03m0 63.72c0-4.292 3.495-7.795 7.779-7.795h24.31c4.268 0 7.755 3.503 7.755 7.795v25.04c0 4.259-3.487 7.763-7.755 7.763h-24.31c-4.284 0-7.779-3.503-7.779-7.763v-25.04m0 63.67c0-4.3 3.495-7.795 7.779-7.795h24.31c4.268 0 7.755 3.495 7.755 7.795v25.04c0 4.292-3.487 7.771-7.755 7.771h-24.31c-4.284 0-7.779-3.479-7.779-7.771v-25.04m0 63.67c0-4.3 3.495-7.771 7.779-7.771h24.31c4.268 0 7.755 3.463 7.755 7.771v25.05c0 4.276-3.487 7.755-7.755 7.755h-24.31c-4.284 0-7.779-3.479-7.779-7.755v-25.05m0 63.67c0-4.276 3.495-7.771 7.779-7.771h24.31c4.268 0 7.755 3.495 7.755 7.771v25.08c0 4.243-3.487 7.755-7.755 7.755h-24.31c-4.284 0-7.779-3.503-7.779-7.755v-25.08" fill="url(#c)"/></g></svg>
