<svg viewBox="0 0 32 32" xmlns="http://www.w3.org/2000/svg" xmlns:xlink="http://www.w3.org/1999/xlink"><defs><linearGradient id="a"><stop stop-color="#289bf7" offset="0"/><stop stop-color="#4caaf4" offset="1"/></linearGradient><linearGradient id="c" x2="0" y1="24" y2="12" gradientUnits="userSpaceOnUse" xlink:href="#a"/><linearGradient id="d" x1="-591" x2="-601.2" y1="664" y2="353" gradientUnits="userSpaceOnUse" xlink:href="#a"/><linearGradient id="e" x1="59.12" x2="59.15" y1="-13.3" y2="-37.78" gradientTransform="matrix(4.175 0 0 4.168 -1070 447.7)" gradientUnits="userSpaceOnUse"><stop stop-color="#289bf7" offset="0"/><stop stop-color="#71b9f1" offset="1"/></linearGradient><linearGradient id="b" x1="-701.2" x2="-704" y1="647.8" y2="354.3" gradientUnits="userSpaceOnUse"><stop stop-color="#9fd2fa" offset="0"/><stop stop-color="#cde8fe" offset="1"/></linearGradient></defs><g transform="translate(-384.57-515.8)"><g transform="matrix(.07089 0 0 .07017 407.9 475.1)"><path transform="matrix(.7872 0 0 .7952 415.3 430.1)" d="m-884.1 294.8c-4.626 0-8.349 3.718-8.349 8.335v161.4l468.2 1v-121.2c0-4.618-3.724-8.335-8.35-8.335h-272.6c-8.51 0.751-9.607-0.377-13.81-5.981-5.964-7.968-14.97-21.44-20.84-29.21-4.712-6.805-5.477-6.02-13.29-6.02z" fill="url(#e)"/><rect transform="matrix(.7872 0 0 .7952 415.3 430.1)" x="-890.3" y="356.8" width="463.8" height="295.1" rx="9.63" fill="url(#b)" stroke="url(#b)" stroke-width="2.378"/><rect transform="matrix(.7872 0 0 .7952 415.3 430.1)" x="-890.3" y="356.8" width="463.8" height="295.1" rx="9.63" fill="none" stroke="url(#d)" stroke-linecap="round" stroke-linejoin="round" stroke-width="5.376"/></g><path transform="matrix(.8897 0 0 .8897 386.3 517.8)" d="m16 12c-3.184 0-6.178 1.241-8.43 3.492l1.285 1.285c1.908-1.908 4.446-2.959 7.145-2.959 2.699 0 5.236 1.051 7.145 2.959l1.285-1.285c-2.251-2.252-5.245-3.492-8.43-3.492m0 3.23c-2.322 0-4.505.903-6.146 2.545l1.287 1.285c1.298-1.298 3.02-2.01 4.859-2.01 1.836 0 3.561.715 4.859 2.01l1.287-1.285c-1.641-1.642-3.825-2.545-6.146-2.545m0 3.232c-1.458 0-2.829.567-3.859 1.598l1.285 1.287c.687-.688 1.602-1.066 2.574-1.066.972 0 1.887.379 2.574 1.066l1.285-1.287c-1.031-1.031-2.401-1.598-3.859-1.598m0 3.611c-.472 0-.944.181-1.305.541-.013.013-.025.026-.037.039l1.342 1.346 1.346-1.342c-.013-.014-.027-.029-.041-.043-.36-.36-.832-.541-1.305-.541" fill="url(#c)"/></g></svg>
