<svg viewBox="0 0 32 32" xmlns="http://www.w3.org/2000/svg" xmlns:xlink="http://www.w3.org/1999/xlink"><defs><linearGradient id="d" x1="378.9" x2="357.5" y1="212.5" y2="-443.3" gradientUnits="userSpaceOnUse"><stop stop-color="#289bf7" offset="0"/><stop stop-color="#4caaf4" offset="1"/></linearGradient><linearGradient id="c" x1="213.6" x2="217.4" y1="118.4" y2="-343.4" gradientUnits="userSpaceOnUse" xlink:href="#b"/><linearGradient id="a" x1="-701.2" x2="-704" y1="647.8" y2="354.3" gradientUnits="userSpaceOnUse"><stop stop-color="#9fd2fa" offset="0"/><stop stop-color="#cde8fe" offset="1"/></linearGradient><linearGradient id="e" x1="59.12" x2="59.15" y1="-13.3" y2="-37.78" gradientTransform="matrix(4.175 0 0 4.168 -1070 447.7)" gradientUnits="userSpaceOnUse" xlink:href="#b"/><linearGradient id="b"><stop stop-color="#289bf7" offset="0"/><stop stop-color="#71b9f1" offset="1"/></linearGradient></defs><g transform="matrix(.02646 0 0 .02646 9.729 20.94)"><path transform="matrix(2.109 0 0 2.109 1625 -1188)" d="m-884.1 294.8c-4.626 0-8.349 3.718-8.349 8.335v161.4l468.2 1v-121.2c0-4.618-3.724-8.335-8.35-8.335h-272.6c-8.51 0.751-9.607-0.377-13.81-5.981-5.964-7.968-14.97-21.44-20.84-29.21-4.712-6.805-5.477-6.02-13.29-6.02z" fill="url(#e)"/><rect transform="matrix(2.109 0 0 2.109 1625 -1188)" x="-890.3" y="356.8" width="463.8" height="295.1" rx="9.63" fill="url(#a)" stroke="url(#a)" stroke-width="2.378"/><rect x="-252.2" y="-435.1" width="978.1" height="622.4" rx="20.31" fill="none" stroke="url(#d)" stroke-linecap="round" stroke-linejoin="round" stroke-width="11.34"/><path d="m253.6-340.2-75.37 7.247v310.5l74.56-11.27v-132.4l100.3 146.9 78.59-24.96-102.7-141.2 103.6-133.2-80.2-18.36-99.52 133.2 0.805-136.4m-170.9 75.69c-0.852 0.088-1.774 0.323-2.416 0.966l-29.63 29.63c-1.244 1.248-1.397 3.159-0.483 4.67l34.62 57.17c-6.148 10.34-11.14 21.42-14.65 33.17l-63.61 13.2c-1.77 0.366-3.06 2.051-3.06 3.865v41.87c0 1.77 1.346 3.286 3.06 3.704l61.68 14.98c3.298 13.61 8.393 26.63 15.14 38.49l-35.75 54.43c-0.997 1.52-0.803 3.548 0.483 4.831l29.63 29.63c1.248 1.244 3.163 1.4 4.67 0.483l56.04-33.98c10.99 6.346 22.89 11.43 35.43 14.82l13.04 62.8c0.366 1.775 1.891 3.06 3.704 3.06h41.87c1.757 0 3.286-1.18 3.704-2.899l15.46-63.13c12.93-3.486 25.12-8.661 36.39-15.3l55.24 36.23c1.523 0.992 3.54 0.8 4.831-0.483l29.47-29.63c1.252-1.25 1.561-3.163 0.644-4.67l-20.13-33.17-6.603 2.093c-0.953 0.294-2.01-0.137-2.577-0.966 0 0-12.72-18.7-29.31-43-19.84 38.83-60.32 65.38-106.9 65.38-66.24 0-120-53.74-120-120 0-48.72 29.14-90.57 70.86-109.3v-30.92c-7.593 2.658-14.93 5.864-21.9 9.662-0.013-8e-3 0.013-0.153 0-0.161l-56.52-37.04c-0.76-0.497-1.563-0.571-2.416-0.483" fill="url(#c)"/></g></svg>
