<svg viewBox="0 0 48 48" xmlns="http://www.w3.org/2000/svg"><defs><linearGradient id="b" x2="0" y1="546.8" y2="500.8" gradientUnits="userSpaceOnUse"><stop stop-color="#212121" offset="0"/><stop stop-color="#3f3f41" offset="1"/></linearGradient><linearGradient id="a" x2="0" y1="546.8" y2="500.8" gradientUnits="userSpaceOnUse"><stop stop-color="#dce2ff" offset="0"/><stop stop-color="#f8feff" offset="1"/></linearGradient></defs><g enable-background="new"><path transform="matrix(1.043 0 0 1.044 -402.3 -522.8)" d="m408.5 500.8c-3.118 0-6.084 0.618-8.93 1.839-5.654 2.426-9.795 6.539-12.22 12.2-1.217 2.838-1.808 5.805-1.808 8.923 0 3.119 0.59 6.115 1.808 8.953 2.429 5.664 6.571 9.799 12.22 12.23 2.847 1.221 5.808 1.839 8.93 1.839 3.118 0 6.104-0.625 8.953-1.839 5.701-2.432 9.821-6.572 12.25-12.23 1.221-2.847 1.838-5.834 1.838-8.953 0-3.118-0.616-6.076-1.838-8.923-2.426-5.655-6.545-9.772-12.25-12.2-2.849-1.216-5.833-1.839-8.953-1.839" fill="url(#b)" opacity=".99"/><path transform="matrix(.4348 0 0 .4349 -153.6 -203.8)" d="m408.5 500.8c-3.118 0-6.084 0.618-8.93 1.839-5.654 2.426-9.795 6.539-12.22 12.2-1.217 2.838-1.808 5.805-1.808 8.923 0 3.119 0.59 6.115 1.808 8.953 2.429 5.664 6.571 9.799 12.22 12.23 2.847 1.221 5.808 1.839 8.93 1.839 3.118 0 6.104-0.625 8.953-1.839 5.701-2.432 9.821-6.572 12.25-12.23 1.221-2.847 1.838-5.834 1.838-8.953 0-3.118-0.616-6.076-1.838-8.923-2.426-5.655-6.545-9.772-12.25-12.2-2.849-1.216-5.833-1.839-8.953-1.839" fill="url(#a)" opacity=".99"/></g><path transform="matrix(.419 0 0 .419 -125.2 -191.8)" d="m362.6 527.1q-2.68 2.36-6.6 2.36t-6.6-2.36-2.68-5.84q0-2.28 1.24-4 1.24-1.76 3.24-2.76v-0.16q-1.56-1-2.56-2.52-1-1.56-1-3.24 0-3.32 2.36-5.52 2.36-2.24 6-2.24t6 2.24q2.36 2.2 2.36 5.52 0 1.68-1 3.24-1 1.52-2.56 2.52v0.16q2 1 3.24 2.76 1.24 1.72 1.24 4 0 3.48-2.68 5.84m-9.92-15.48q1.32 1.16 3.32 1.16t3.28-1.16q1.32-1.2 1.32-3.12t-1.32-3.04q-1.28-1.12-3.28-1.12t-3.32 1.12q-1.28 1.12-1.28 3.04t1.28 3.12m-0.6 12.96q1.6 1.36 3.92 1.36t3.92-1.36 1.6-3.52q0-2.12-1.6-3.48t-3.92-1.36-3.92 1.36-1.6 3.48q0 2.16 1.6 3.52" fill="#2f2f30" fill-opacity=".992"/></svg>
