<svg viewBox="0 0 48 48" xmlns="http://www.w3.org/2000/svg"><defs><linearGradient id="a" x1="18.6" x2="20.03" y1="261.3" y2="155.6" gradientUnits="userSpaceOnUse"><stop stop-color="#d3d3d3" offset="0"/><stop stop-color="#fcf9f9" offset="1"/></linearGradient></defs><g transform="translate(-24.5 -14.18)" stroke-width="1.317"><rect transform="matrix(.4336 0 0 .4348 38.04 -53.01)" x="-31.27" y="154.7" width="110.7" height="110" rx="8.63" fill="url(#a)" stroke-width="1.317"/><path transform="matrix(.3 0 0 .3 36.49 26.18)" d="m63 48.67h-8v-16h8c8.836 0 16-7.164 16-16s-7.164-16-16-16c-8.837 0-16 7.164-16 16v8h-16v-8c0-8.836-7.164-16-16-16s-16 7.164-16 16 7.164 16 16 16h8v16h-8c-8.836 0-16 7.164-16 16s7.164 16 16 16c8.837 0 16-7.164 16-16v-8h16v7.98c0 8e-3 -1e-4 0.014-1e-4 0.02 0 8.836 7.164 16 16 16s16-7.164 16-16-7.163-16-16-16m0-40c4.418 0 8 3.582 8 8s-3.582 8-8 8h-8v-8c0-4.418 3.582-8 8-8m-56 8c0-4.418 3.582-8 8-8s8 3.582 8 8v8h-8c-4.418 0-8-3.583-8-8m8 56c-4.418 0-8-3.582-8-8s3.582-8 8-8h8v8c0 4.418-3.582 8-8 8m16-24v-16h16v16h-16m32 24c-4.418 0-8-3.582-8-8v-8h7.999c4.418 0 8 3.582 8 8s-3.581 8-7.999 8" fill="#585a5d" fill-opacity=".847"/></g></svg>
