<svg viewBox="0 0 48 48" xmlns="http://www.w3.org/2000/svg"><defs><linearGradient id="a" x2="0" y1="61.83" y2="-.203" gradientUnits="userSpaceOnUse"><stop stop-color="#00ca00" offset="0"/><stop stop-color="#65ff65" offset="1"/></linearGradient></defs><g fill-rule="evenodd"><rect width="48" height="48" rx="2.982" fill="url(#a)"/><path d="m24 8a16 16 0 0 0-16 16 16 16 0 0 0 16 16 16 16 0 0 0 16-16 16 16 0 0 0-16-16m6 10-2 6a4 4 0 0 1-4 4l-6 2 2-6a4 4 0 0 1 4-4l6-2m-6 4a2 2 0 0 0-2 2 2 2 0 0 0 2 2 2 2 0 0 0 2-2 2 2 0 0 0-2-2" color="#566060" fill="#035903"/></g></svg>
