<svg viewBox="0 0 48 48" xmlns="http://www.w3.org/2000/svg"><defs><linearGradient id="b" x1="24.62" x2="25.28" y1="1052" y2="1020" gradientUnits="userSpaceOnUse"><stop stop-color="#587ea7" offset="0"/><stop stop-color="#7db2eb" offset="1"/></linearGradient><linearGradient id="c" x1="29.35" x2="30.06" y1="1029" y2="1007" gradientUnits="userSpaceOnUse"><stop stop-color="#85cfd6" offset="0"/><stop stop-color="#daedff" offset="1"/></linearGradient><linearGradient id="a" x1="26.88" x2="2.657" y1="1052" y2="1003" gradientUnits="userSpaceOnUse"><stop stop-color="#79a4cb" offset="0"/><stop stop-color="#98ceff" offset="1"/></linearGradient></defs><g transform="matrix(.9661 0 0 .9661.142-969.89)"><circle transform="matrix(1.168 0 0 1.168 -3.127 -172.5)" cx="24" cy="1028" r="20" fill="url(#c)"/><g><path d="m35.37 1047c-11.32 6.538-25.8 2.658-32.34-8.665-6.538-11.32-2.658-25.8 8.665-32.34 13.34-0.061 21.82 28.77 23.68 41.01" fill="url(#a)"/><path d="m49.54 1028c0 13.69-11.1 24.79-24.79 24.79s-24.79-11.1-24.79-24.79c6.93-12.13 37.51-4.719 49.58 0" fill="url(#b)"/></g></g></svg>
