<svg viewBox="0 0 48 48" xmlns="http://www.w3.org/2000/svg"><defs><linearGradient id="a" x2="0" y1="545.1" y2="518.1" gradientUnits="userSpaceOnUse"><stop stop-color="#30cf41" offset="0"/><stop stop-color="#47f383" offset="1"/></linearGradient></defs><circle transform="matrix(1.714 0 0 1.714 -662.7 -887.6)" cx="400.6" cy="531.8" r="14" fill="url(#a)"/><path transform="matrix(.05229 0 0 .05229 7.92 9.193)" d="m64.6 236.8c0 157.4 128.2 375.2 241.4 375.2 106.6 0 241.4-217.7 241.4-375.2 0-157.4-108.1-236.8-241.4-236.8s-241.4 79.39-241.4 236.8m304.1 116.4c29.48-29.48 70.6-40.19 108.6-32.17 8.02 37.95-2.698 79.08-32.17 108.6-29.48 29.48-70.6 40.19-108.6 32.17-8.02-37.96 2.698-79.08 32.17-108.6zm-234-32.17c37.95-8.02 79.08 2.698 108.6 32.17 29.48 29.48 40.19 70.6 32.17 108.6-37.95 8.02-79.08-2.698-108.6-32.17-29.48-29.48-40.19-70.6-32.17-108.6" fill="#195c28"/></svg>
