<svg viewBox="0 0 48 48" xmlns="http://www.w3.org/2000/svg" xmlns:xlink="http://www.w3.org/1999/xlink"><defs><linearGradient id="c" x2="0" y1="19.4" y2="14.94" gradientUnits="userSpaceOnUse" xlink:href="#b"/><linearGradient id="e" x2="0" y1="5.273" y2="8.991" gradientUnits="userSpaceOnUse"><stop stop-color="#ff4c39" offset="0"/><stop stop-color="#cf3d2e" offset="1"/></linearGradient><linearGradient id="b"><stop stop-color="#258e52" offset="0"/><stop stop-color="#00c253" offset="1"/></linearGradient><linearGradient id="d" x2="0" y1="14.2" y2="10.48" gradientUnits="userSpaceOnUse" xlink:href="#b"/><linearGradient id="f" x2="0" y1="13.45" y2="10.48" gradientUnits="userSpaceOnUse" xlink:href="#a"/><linearGradient id="j" x2="0" y1="25.3" y2="-1.701" gradientUnits="userSpaceOnUse"><stop stop-color="#dbdada" offset="0"/><stop stop-color="#fff" offset="1"/></linearGradient><linearGradient id="g" x1="43.42" x2="42.67" y1="13.45" y2="11.22" gradientUnits="userSpaceOnUse"><stop stop-color="#2574a8" offset="0"/><stop stop-color="#329ee4" offset="1"/></linearGradient><linearGradient id="i" x2="0" y1="18.66" y2="14.97" gradientUnits="userSpaceOnUse" xlink:href="#a"/><linearGradient id="h" x2="0" y1="19.4" y2="14.97" gradientUnits="userSpaceOnUse" xlink:href="#a"/><linearGradient id="a"><stop stop-color="#d6c240" offset="0"/><stop stop-color="#fff360" offset="1"/></linearGradient></defs><g transform="matrix(1.714 0 0 1.714 -49.21 3.512)" enable-background="new"><circle cx="42.71" cy="11.96" r="14" fill="url(#j)"/><g fill="url(#e)"><ellipse cx="37.84" cy="7.207" rx="1.859" ry="1.859"/><ellipse cx="42.82" cy="7.207" rx="1.859" ry="1.859"/><ellipse cx="47.66" cy="7.207" rx="1.859" ry="1.859"/></g><ellipse cx="37.84" cy="12.34" rx="1.859" ry="1.859" fill="url(#d)"/><ellipse cx="37.84" cy="17.25" rx="1.859" ry="1.859" fill="url(#c)"/><ellipse cx="47.66" cy="12.19" rx="1.859" ry="1.859" fill="url(#f)"/><ellipse cx="47.66" cy="17.1" rx="1.859" ry="1.859" fill="url(#i)"/><ellipse cx="42.82" cy="17.25" rx="1.859" ry="1.859" fill="url(#h)"/><ellipse cx="42.82" cy="12.26" rx="1.859" ry="1.859" fill="url(#g)"/></g></svg>
