<svg viewBox="0 0 48 48" xmlns="http://www.w3.org/2000/svg"><defs><linearGradient id="a" x1="400.5" x2="400.7" y1="546.1" y2="517.8" gradientUnits="userSpaceOnUse"><stop stop-color="#ff9300" offset="0"/><stop stop-color="#ffd702" offset="1"/></linearGradient></defs><g transform="matrix(.0934 0 0 .0934 32.04-74.5)"><circle transform="matrix(18.35 0 0 18.35 -7439 -8706)" cx="400.6" cy="531.8" r="14" fill="url(#a)"/><circle transform="matrix(18.35 0 0 18.35 -7439 -8706)" cx="400.6" cy="531.8" r="14" fill="#5ea5fb" fill-opacity="0"/><g transform="matrix(16.42 0 0 16.42 -7154 -7678)"><g transform="matrix(.9028 0 0 .9 841.1 649.4)" fill="#fff" fill-opacity=".85"><ellipse cx="-462.6" cy="-130.5" rx="2.5" ry="2.5"/><ellipse cx="-458.1" cy="-123" rx="3" ry="3"/><ellipse cx="-460.6" cy="-138.5" rx="1.5" ry="1.5"/><path d="m-452.1-140-2.844 2.844 4.375 4.375-4.531 5.156 3 2.625 7-8-7-7"/></g><flowRoot transform="translate(352.7 519.8)" font-family="sans-serif" font-size="10" letter-spacing="0" word-spacing="0" line-height="125%"><flowRegion><path d="m22 3h27v15h-27z"/></flowRegion><flowPara>Plasm</flowPara></flowRoot></g></g></svg>
