<svg viewBox="0 0 48 48" xmlns="http://www.w3.org/2000/svg"><defs><linearGradient id="a" x1="400.5" x2="400.7" y1="546.1" y2="517.8" gradientUnits="userSpaceOnUse"><stop stop-color="#2f3f47" offset="0"/><stop stop-color="#425963" offset="1"/></linearGradient></defs><g transform="matrix(1.714 0 0 1.714 -662.7 -887.7)"><circle cx="400.6" cy="531.8" r="14" fill="url(#a)"/><circle cx="400.6" cy="531.8" r="14" fill="#5ea5fb" fill-opacity="0"/><g transform="matrix(.0168 -.01734 .01734 .0168 390.2 532)" fill="#fff" fill-opacity=".847"><path d="m562 0h-512.1c-27.59 0-49.96 22.37-49.96 49.96v512.1c0 27.59 22.37 49.96 49.96 49.96h512.1c27.59 0 49.96-22.37 49.96-49.96v-512.1c0-27.59-22.37-49.96-49.96-49.96m-512.1 37.47c6.898 0 12.49 5.592 12.49 12.49s-5.592 12.49-12.49 12.49-12.49-5.592-12.49-12.49 5.592-12.49 12.49-12.49zm0 537.1c-6.898 0-12.49-5.592-12.49-12.49s5.592-12.49 12.49-12.49 12.49 5.592 12.49 12.49-5.592 12.49-12.49 12.49m256-19.98c-137.3 0-248.6-111.3-248.6-248.6s111.3-248.6 248.6-248.6 248.6 111.3 248.6 248.6-111.3 248.6-248.6 248.6m256 19.98c-6.898 0-12.49-5.592-12.49-12.49s5.592-12.49 12.49-12.49 12.49 5.592 12.49 12.49-5.592 12.49-12.49 12.49zm0-512.1c-6.898 0-12.49-5.592-12.49-12.49s5.592-12.49 12.49-12.49 12.49 5.592 12.49 12.49-5.592 12.49-12.49 12.49"/><path d="m525 260.9c-1.238-6.01-3.819-10.31-8.554-14.22-37.84-31.27-90.32-29.17-157.4 6.305-4.38-4.38-9.121-8.08-14.43-11.27 46.26-41.5 88.42-58.92 126.5-52.27 11.22 1.961 19-10.9 12.04-19.93-15.44-20.03-33.01-36.35-54.13-50.26-5.13-3.378-9.989-4.586-16.1-4-48.87 4.645-84.49 43.24-106.9 115.8-6.195 0-12.16 0.734-18.18 2.237 3.365-62.05 20.86-104.2 52.49-126.4 9.324-6.55 5.725-21.14-5.574-22.61-25.08-3.251-49.04-2.363-73.81 2.737-6.01 1.238-10.31 3.819-14.22 8.554-31.27 37.84-29.17 90.32 6.305 157.4-4.38 4.38-8.08 9.121-11.27 14.43-41.5-46.26-58.92-88.42-52.27-126.5 1.961-11.22-10.9-19-19.93-12.04-20.03 15.44-36.35 33.01-50.26 54.13-3.378 5.13-4.586 9.989-4 16.1 4.645 48.87 43.24 84.49 115.8 106.9 0 6.195 0.734 12.16 2.237 18.18-62.05-3.365-104.2-20.86-126.4-52.49-6.55-9.324-21.14-5.725-22.61 5.574-3.251 25.08-2.363 49.04 2.737 73.81 1.238 6.01 3.819 10.31 8.554 14.22 37.84 31.27 90.32 29.17 157.4-6.305 4.38 4.38 9.121 8.08 14.43 11.27-46.26 41.5-88.42 58.92-126.5 52.27-11.22-1.961-19 10.9-12.04 19.93 15.44 20.04 33.01 36.35 54.13 50.26 5.13 3.378 9.989 4.586 16.1 4 48.87-4.645 84.49-43.24 106.9-115.8 6.195 0 12.16-0.734 18.18-2.238-3.365 62.05-20.86 104.2-52.49 126.4-9.324 6.55-5.725 21.14 5.574 22.61 25.08 3.251 49.04 2.363 73.81-2.737 6.01-1.238 10.31-3.819 14.22-8.554 31.27-37.84 29.17-90.32-6.305-157.4 4.38-4.38 8.08-9.121 11.27-14.43 41.5 46.26 58.92 88.42 52.27 126.5-1.961 11.22 10.9 19 19.93 12.04 20.04-15.44 36.35-33.01 50.26-54.13 3.378-5.13 4.586-9.989 4-16.1-4.645-48.87-43.24-84.49-115.8-106.9 0-6.195-0.734-12.16-2.237-18.18 62.05 3.365 104.2 20.86 126.4 52.49 6.55 9.324 21.14 5.725 22.61-5.574 3.251-25.08 2.363-49.04-2.737-73.81m-219 107.5c-34.49 0-62.45-27.96-62.45-62.45 0-34.49 27.96-62.45 62.45-62.45 34.49 0 62.45 27.96 62.45 62.45 0 34.49-27.96 62.45-62.45 62.45"/></g></g></svg>
