<svg viewBox="0 0 48 48" xmlns="http://www.w3.org/2000/svg"><defs><linearGradient id="a" x1="400.5" x2="400.7" y1="546.1" y2="517.8" gradientUnits="userSpaceOnUse"><stop stop-color="#2e3e46" offset="0"/><stop stop-color="#435a64" offset="1"/></linearGradient></defs><g transform="matrix(1.714 0 0 1.714 -662.7 -887.7)"><circle cx="400.6" cy="531.8" r="14" fill="url(#a)"/><circle cx="400.6" cy="531.8" r="14" fill="#5ea5fb" fill-opacity="0"/><path transform="matrix(.1425 0 0 .1425 393.4 525.5)" d="m72.77 74.28c-13.37-10.45-3.933-53.44-3.933-53.44h16.34c1.705 0 8.389-1.072 8.389-9.08 0-9.846-8.168-9.241-8.168-9.241h-60.15c-9.873 0-18.78 11.3-23.9 19.39-2.723 4.318-1.183 5.528 3.493 3.493 16.39-7.178 21.01-4.593 21.01-4.593 1.155 5.528 1.54 30.47-2.667 40.32-4.263 9.269-12.13 21.01-0.578 27.92 9.02 5.115 18.48-5.391 17.55-23.27-0.44-9.461-1.183-44.94-1.183-44.94h15.07c-0.469 5.528-3.02 33.74-0.357 50.47 2.777 27.92 33.11 22.5 38.78 6.685 1.402-4.373 1.073-7.729 0.027-10.26-1.926-4.702-5.144-4.949-4.785-2.75 0.221 1.402 0.083 2.777-0.138 4.02-0.661 3.823-8.471 9.817-14.8 5.281" fill="#fff" fill-opacity=".855" opacity=".9"/></g></svg>
