<svg viewBox="0 0 48 48" xmlns="http://www.w3.org/2000/svg" xmlns:xlink="http://www.w3.org/1999/xlink"><defs><linearGradient id="b" x2="0" y1="525.8" y2="503.8" gradientTransform="matrix(1.019 0 0 1.17 -8.472 -91.37)" gradientUnits="userSpaceOnUse" xlink:href="#a"/><linearGradient id="c" x2="0" y1="543.8" y2="503.8" gradientTransform="matrix(.6702 0 0 .4164 135.4 294)" gradientUnits="userSpaceOnUse" xlink:href="#a"/><linearGradient id="d" x2="0" y1="543.8" y2="503.8" gradientTransform="matrix(1.125 0 0 1-51.07 0)" gradientUnits="userSpaceOnUse"><stop stop-color="#31d145" offset="0"/><stop stop-color="#4bf082" offset="1"/></linearGradient><linearGradient id="a"><stop stop-color="#1c6b2a" offset="0"/><stop stop-color="#468e5e" offset="1"/></linearGradient></defs><g transform="matrix(1.2 0 0 1.2-466.29-604.56)"><rect x="390.6" y="503.8" width="36" height="40" rx="2" fill="url(#d)"/><path d="m405.9 518.1v4.679c-0.307 3.01 5.693 3.01 5.375 0v-4.679z" fill="url(#b)" fill-rule="evenodd"/><g transform="translate(-.717.017)"><path d="m406.6 503.8h5.362v16.65h-5.362z" fill="url(#c)"/><g fill="#fff"><rect x="407.4" y="504.9" width="4" height="2" rx=".889" opacity=".929"/><rect x="407.4" y="507.8" width="4" height="2" rx=".889" opacity=".929"/><rect x="407.3" y="510.6" width="4" height="2" rx=".889" opacity=".929"/><rect x="407.4" y="513.6" width="4" height="2" rx=".889" opacity=".929"/><rect x="407.4" y="516.5" width="4" height="2" rx=".889" opacity=".929"/></g></g><rect x="406.6" y="519.6" width="4" height="2" rx=".889" fill="#fff" opacity=".929"/><path d="m410.12 524.47v-1.262c0-.352-.284-.637-.635-.637h-1.763c-.35 0-.635.285-.635.637v1.261l-.981 2.891c-.274.806-.143 1.701.352 2.395.494.693 1.296 1.106 2.145 1.106.849 0 1.651-.414 2.145-1.106.494-.694.626-1.589.352-2.394zm-.41 4.54c-.509.714-1.704.714-2.213 0-.255-.358-.323-.82-.182-1.236l.329-.97h1.919l.329.97c.141.415.073.877-.182 1.235" fill="#f0f5f1"/></g></svg>
