<svg viewBox="0 0 48 48" xmlns="http://www.w3.org/2000/svg"><defs><linearGradient id="b" x1="-25.15" x2="-27.71" y1="4.615" y2="-21.16" gradientUnits="userSpaceOnUse"><stop stop-color="#e1e1e1" offset="0"/><stop stop-color="#f4f4ff" offset="1"/></linearGradient><linearGradient id="a" x1="-124" x2="-125.2" y1="73.5" y2="-26.05" gradientTransform="matrix(.4943 0 0 .4778 125 -12.77)" gradientUnits="userSpaceOnUse"><stop stop-color="#c52828" offset="0"/><stop stop-color="#ff5454" offset="1"/></linearGradient></defs><g transform="matrix(1 0 0 1 -38.37 25.88)" enable-background="new"><rect x="38.38" y="-25.88" width="48" height="48" rx="2.982" fill="url(#a)" fill-rule="evenodd"/><path transform="matrix(1.153 .1143 -.1143 1.153 92.9 9.679)" d="m-28.563-21.15c.181.015.332.273.332.273l15.316 23.607c.855 1.29 1.444 2.16-.307 2.047-14.86.667-11.849-15.168-25.381 2.402 0 0-1.713 1.678-.811-.246l10.518-27.74c.104-.275.223-.353.332-.344" fill="url(#b)"/></g></svg>
