<svg viewBox="0 0 48 48" xmlns="http://www.w3.org/2000/svg" xmlns:xlink="http://www.w3.org/1999/xlink"><defs><linearGradient id="b"><stop stop-color="#141414" offset="0"/><stop stop-color="#2d2d2f" offset="1"/></linearGradient><linearGradient id="d" x1="72.38" x2="72.87" y1="29.13" y2="-9.06" gradientUnits="userSpaceOnUse" xlink:href="#b"/><linearGradient id="c" x1="72.4" x2="71.71" y1="34.83" y2="-10.09" gradientUnits="userSpaceOnUse" xlink:href="#b"/><linearGradient id="e" x1="65.38" x2="64.56" y1="21.59" y2="5.657" gradientUnits="userSpaceOnUse" xlink:href="#a"/><linearGradient id="a"><stop stop-color="#30cf41" offset="0"/><stop stop-color="#47f383" offset="1"/></linearGradient><linearGradient id="g" x1="72.54" x2="72.38" y1="20.78" y2="-1.033" gradientUnits="userSpaceOnUse" xlink:href="#a"/><linearGradient id="f" x1="79.3" x2="78.63" y1="23.27" y2="5.967" gradientUnits="userSpaceOnUse" xlink:href="#a"/></defs><g transform="matrix(1 0 0 1 -48.37 10.88)" enable-background="new"><circle cx="72.37" cy="13.12" r="24" fill="url(#c)" fill-rule="evenodd"/><g><path d="m60.12 13.23v5.982l5.797 3.851c3.189 2.118 5.813 3.851 5.832 3.851s0.035-2.689 0.035-5.976v-5.975l-5.794-3.858c-3.186-2.122-5.811-3.858-5.832-3.858s-0.039 2.692-0.039 5.982" fill="url(#e)" opacity=".987"/><path d="m78.78 11.38-5.79 3.874-1e-4 5.878c-1e-4 3.233 0.014 5.878 0.033 5.878s2.633-1.738 5.809-3.862l5.774-3.862v-5.896c0-3.243-8e-3 -5.893-0.017-5.891-9e-3 0-2.622 1.748-5.807 3.879" fill="url(#f)" opacity=".987"/><path d="m66.67 2.415c-3.107 2.077-5.676 3.803-5.709 3.835-.067.065 11.371 7.782 11.545 7.789.127 0 11.373-7.52 11.35-7.595-.011-.035-10.532-7.153-11.499-7.78-.021-.015-2.581 1.674-5.688 3.751" fill="url(#g)" opacity=".987"/><path d="m71.19 28.388l-12.42-8.264v-1.842-11.475-.614c1.736-1.136.336-.218 1.133-.756l11.1-7.414c1.353-.901.012 0 1.37-.897 12.12 8.05 9.148 6.07 12.656 8.406.954.698.177.144.944.708v.519.047 11.475 1.842c-3.512 2.337-.514.342-.85.567l-11.57 7.698-.614.378c-.427.275 1.849-1.195-.567.36-1.121-.711-.001 0-1.181-.738m.425-1.558v-11.712l-.094-.142-.331-.189-10.909-7.272v11.759zm1.511 0l11.334-7.556v-11.523l-11.334 7.556zm-.567-12.987l11.05-7.367-11.239-7.509-11.1 7.367 10.767 7.178" fill="url(#d)" opacity=".987"/></g></g></svg>
