<svg viewBox="0 0 48 48" xmlns="http://www.w3.org/2000/svg"><defs><linearGradient id="a" x2="0" y1="46.6" y2="28.27" gradientUnits="userSpaceOnUse"><stop stop-color="#981fe7" offset="0"/><stop stop-color="#db50c8" offset="1"/></linearGradient><linearGradient id="b" x2="0" y1="518.3" y2="545" gradientTransform="matrix(.7756 0 0 .7705 -235 -435.4)" gradientUnits="userSpaceOnUse"><stop stop-color="#db50c8" offset="0"/><stop stop-color="#981fe7" offset="1"/></linearGradient></defs><g transform="matrix(1.714 0 0 1.714 -104.2 -21.49)" enable-background="new"><ellipse transform="scale(1-1)" cx="75.73" cy="-25.68" rx="10.86" ry="10.79" fill="#fff" stroke="url(#b)" stroke-width="1.16"/><path d="M74.79167 13.201345A13.34025 13.34025 0 0 0 61.45134 26.541677 13.34025 13.34025 0 0 0 74.79167 39.882009 13.34025 13.34025 0 0 0 88.132 26.541677 13.34025 13.34025 0 0 0 74.79167 13.201345m6.61 4.524c.384-.027.78.056 1.138.262.956.551 1.283 1.772.731 2.729-.462.801-1.394 1.153-2.247.923l-3 3.836c.503.611.806 1.392.806 2.246 0 .794-.265 1.526-.708 2.116l1.285 1.495c.792-.256 1.69-.003 2.214.702.657.885.474 2.136-.411 2.794-.885.658-2.136.472-2.794-.412-.467-.629-.502-1.438-.171-2.092l-1.279-1.488c-.498.268-1.065.419-1.669.419-1.276 0-2.39-.679-3.01-1.692l-2.332.801c-.043.712-.458 1.379-1.152 1.698-1 .46-2.188.02-2.648-.982-.46-1-.019-2.188.983-2.648.815-.374 1.745-.145 2.313.49l2.338-.803c-.015-.131-.024-.262-.024-.396 0-1.307.711-2.445 1.766-3.057l-.689-2.182c-.808-.073-1.524-.63-1.749-1.458-.289-1.064.339-2.162 1.404-2.451 1.064-.29 2.162.338 2.451 1.403.211.776-.069 1.565-.647 2.051l.688 2.176c.102-.009.205-.016.31-.016.545 0 1.06.127 1.521.349l2.999-3.83c-.34-.596-.371-1.348-.003-1.985.344-.597.95-.949 1.589-.995z" fill="url(#a)" stroke="url(#a)" stroke-width="1.32"/></g></svg>
