<svg viewBox="0 0 48 48" xmlns="http://www.w3.org/2000/svg"><defs><linearGradient id="a" x2="0" y1="-2.471" y2="-51.27" gradientUnits="userSpaceOnUse"><stop stop-color="#0a80fd" offset="0"/><stop stop-color="#56c5fa" offset="1"/></linearGradient></defs><g transform="matrix(.2266 0 0 .2266 -51.8 16.96)" enable-background="new"><circle transform="matrix(4.414 0 0 4.414-6.926 149)" cx="77.37" cy="-26.72" r="24" fill="url(#a)"/><path d="m393.89 23.683c-.836.749-2.068.788-2.96.111l-29.488-22.44-13.97 83.58c-.051.317-.166.606-.329.868-2.801 11.981-18.09 20.911-36.07 20.911-20.15 0-36.552-11.161-36.552-24.881 0-13.72 16.394-24.885 36.552-24.885 8.276 0 16.14 1.85 22.539 5.246l18.478-104.8c.166-.955.915-1.719 1.886-1.898.935-.162 1.918.265 2.417 1.109l37.955 64.15c.574.975.38 2.191-.46 2.94" fill="#e0f2fe"/></g></svg>
