<svg viewBox="0 0 48 48" xmlns="http://www.w3.org/2000/svg"><defs><linearGradient id="a" x2="0" y1="25.78" y2="-2.22" gradientUnits="userSpaceOnUse"><stop stop-color="#141414" offset="0"/><stop stop-color="#2d2d2f" offset="1"/></linearGradient></defs><g transform="matrix(1.714 0 0 1.714 .789 3.512)" enable-background="new"><circle cx="13.54" cy="11.96" r="14" fill="url(#a)"/><path d="m11.482 6.321c-.488.137-.881.682-.881 1.211v8.393c-.495-.271-1.131-.381-1.791-.202-1.19.324-1.935 1.37-1.68 2.336.255.966 1.427 1.506 2.617 1.183.949-.258 1.604-.989 1.708-1.759l.028-7.932 6.17-1.731v6.259c-.495-.272-1.131-.381-1.791-.202-1.19.324-1.935 1.37-1.68 2.336.255.966 1.427 1.506 2.617 1.183.949-.258 1.604-.989 1.708-1.759l.028-10.326c0-.397-.234-.694-.551-.75l-6.501 1.759" fill="#fff" fill-opacity=".853"/></g></svg>
