<svg viewBox="0 0 48 48" xmlns="http://www.w3.org/2000/svg" xmlns:xlink="http://www.w3.org/1999/xlink"><defs><linearGradient id="b" x1="72.85" x2="72.29" y1="491.2" y2="462.7" gradientTransform="matrix(.0542 0 0 .05409-37.54-80.21)" gradientUnits="userSpaceOnUse" xlink:href="#a"/><linearGradient id="c" x1="6.978" x2="6.576" y1="27.42" y2="8.699" gradientUnits="userSpaceOnUse"><stop stop-color="#69159f" offset="0"/><stop stop-color="#b92ff5" offset="1"/></linearGradient><linearGradient id="d" x1="10.51" x2="10.43" y1="8.666" y2="2.264" gradientUnits="userSpaceOnUse" xlink:href="#a"/><linearGradient id="e" x1="-1.706" x2="-1.682" y1="8.72" y2="2.054" gradientUnits="userSpaceOnUse" xlink:href="#a"/><linearGradient id="a"><stop stop-color="#2e3436" offset="0"/><stop stop-color="#555753" offset="1"/></linearGradient></defs><g transform="matrix(1.714 0 0 1.714 15.79 -1.488)" enable-background="new"><rect x="-9.208" y="2.808" width="28" height="24.84" rx="1.169" fill="url(#c)"/><g fill-rule="evenodd"><path d="m-7.664 2.119h24.91c0.897 0 1.561 0.721 1.561 1.616v5.094h-28.03v-5.094c0-0.895 0.664-1.616 1.561-1.616z" fill="url(#b)" stroke="url(#b)" stroke-linecap="round" stroke-linejoin="round" stroke-width=".025"/><g fill="#fff" fill-opacity=".916" stroke-width=".262"><path d="m6.576 8.699h4.442l3.471-3.071-3.471-3.397h-4.442l3.147 3.397z" stroke="url(#d)"/><path d="m-4.609 8.699h4.442l3.471-3.071-3.471-3.397h-4.442l3.147 3.397z" stroke="url(#e)"/></g></g><g fill="#fff"><g transform="matrix(.02279-.00991.00991.02278-8.774 15.567)"><path d="m137.2 107.7 44.33-43.23-61.28-8.9-27.4-55.53-27.4 55.53-61.28 8.9 44.33 43.23-10.46 61.02 54.81-28.82 54.81 28.82z" opacity=".83"/><path d="m398.1 470.1-13.73-80.03 58.14-56.66-80.35-11.68-35.93-72.82-35.94 72.82-80.34 11.68 58.13 56.66-13.72 80.03 71.87-37.79z" opacity=".83"/><path d="m427.8 34.53-23.66-33.74-15.65 38.12-33.74 23.65 38.1 15.65 23.66 33.74 15.65-38.11 33.75-23.64z" opacity=".83"/><path d="m97.37 279.2 21.15 23.82 8.66-30.65 23.8-21.14-30.64-8.65-21.15-23.82-8.64 30.66-23.82 21.13z" opacity=".83"/><path d="m64.63 401.5 14.35 43.58 14.37-43.58 43.58-14.35-43.58-14.37-14.37-43.57-14.35 43.57-43.58 14.37z" opacity=".83"/><path d="m304.8 166.9 16.92-42.64-38.95 24.23-42.65-16.94 24.23 38.97-16.93 42.65 38.95-24.23 42.66 16.93z" opacity=".83"/></g><path d="m14.24 15.209c.004-.205-.128-.274-.293-.152l-1.943 1.427c-.165.122-.459.166-.653.098l-2.277-.792c-.194-.068-.3.037-.235.232l.757 2.29c.065.195.016.488-.108.652l-1.456 1.921c-.124.164-.057.296.148.295l2.411-.012c.205-.0001.469.136.586.305l1.377 1.98c.117.169.264.146.327-.049l.733-2.297c.062-.196.274-.404.471-.464l2.307-.698c.196-.059.221-.206.054-.326l-1.958-1.408c-.167-.12-.3-.386-.295-.591l.049-2.411" opacity=".766"/><path d="m15.191 13.739c.076-.146.019-.327-.127-.403-.146-.076-.326-.019-.402.127l-.309.596c-.076.146-.019.327.127.403.146.076.326.019.402-.127l.309-.596" opacity=".766"/><path d="m14.466 22.987c.065.152.24.222.392.157.152-.065.222-.24.157-.392l-.264-.618c-.065-.152-.24-.222-.392-.157-.152.065-.222.24-.157.392l.264.618" opacity=".766"/><path d="m17.374 18.2c.163-.027.273-.181.246-.343-.027-.163-.181-.273-.343-.246l-.663.11c-.163.027-.273.181-.246.343.027.163.181.273.343.246l.663-.11" opacity=".766"/><path d="m7.392 19.313c-.161.034-.32-.069-.354-.23-.034-.161.069-.32.23-.354l.657-.14c.161-.034.32.069.354.23.034.161-.069.32-.23.354l-.657.14" opacity=".766"/><path d="m9.635 14.177c-.071-.149-.009-.327.139-.398.149-.071.327-.009.398.14l.291.605c.072.149.009.327-.139.398-.149.071-.327.009-.399-.14l-.291-.605" opacity=".766"/></g></g></svg>
