<svg viewBox="0 0 48 48" xmlns="http://www.w3.org/2000/svg"><defs><linearGradient id="b" x1="-124" x2="-125.2" y1="73.5" y2="-26.05" gradientTransform="matrix(.4943 0 0 .4778 86.64 13.1)" gradientUnits="userSpaceOnUse"><stop stop-color="#e1e1e1" offset="0"/><stop stop-color="#f4f4ff" offset="1"/></linearGradient><linearGradient id="a" x1="425.7" x2="426.4" y1="517.6" y2="476.1" gradientUnits="userSpaceOnUse"><stop stop-color="#c52828" offset="0"/><stop stop-color="#ff5454" offset="1"/></linearGradient></defs><path d="m2.982 0h42.04c1.652 0 2.982 1.33 2.982 2.982v42.04c0 1.652-1.33 2.982-2.982 2.982h-42.04c-1.652 0-2.982-1.33-2.982-2.982v-42.04c0-1.652 1.33-2.982 2.982-2.982" fill="url(#b)" fill-rule="evenodd"/><g enable-background="new"><path transform="matrix(.5641 0 0 .5641-216.35-256.37)" d="m447.3 497a21.27 21.27 0 0 1-21.27 21.27 21.27 21.27 0 0 1-21.27-21.27 21.27 21.27 0 0 1 21.27-21.27 21.27 21.27 0 0 1 21.27 21.27" fill="url(#a)"/></g></svg>
