<svg viewBox="0 0 48 48" xmlns="http://www.w3.org/2000/svg"><defs><linearGradient id="c" x1="406.5" x2="407.4" y1="543.7" y2="503.8" gradientUnits="userSpaceOnUse"><stop stop-color="#f15f19" offset="0"/><stop stop-color="#fbb521" offset="1"/></linearGradient><linearGradient id="b" x1="-413.6" x2="-413.6" y1="-531.7" y2="-523.6" gradientUnits="userSpaceOnUse"><stop stop-color="#197cf1" offset="0"/><stop stop-color="#21c9fb" offset="1"/></linearGradient><linearGradient id="a" x1="413.5" x2="413.7" y1="537.3" y2="517.9" gradientUnits="userSpaceOnUse"><stop stop-color="#e8ebec" offset="0"/><stop stop-color="#fdfeff" offset="1"/></linearGradient></defs><g transform="matrix(1.115 0 0 1.115 -430.8 -559.9)"><path d="m407.4 503.8a3 3 0 0 0-1.705 5.402l3.41 2.623h-16.58a3 3 0 1 0 0 6h7.52l-12.28 8.924a3 3 0 1 0 3.525 4.854l6.277-4.561a16 16 0 0 0-0.0391 0.7832 16 16 0 0 0 16 16 16 16 0 0 0 16-16 16 16 0 0 0-6.955-13.2 3 3 0 0 0-0.2168-0.1816l-13-10a3 3 0 0 0-1.953-0.6465" fill="url(#c)"/><circle cx="413.6" cy="527.8" r="10" fill="url(#a)"/><circle transform="scale(-1)" cx="-413.6" cy="-527.8" r="4" fill="url(#b)"/></g></svg>
