<svg viewBox="0 0 48 48" xmlns="http://www.w3.org/2000/svg"><defs><linearGradient id="a" x1="-124" x2="-125.2" y1="73.5" y2="-26.05" gradientTransform="matrix(.4943 0 0 .4778 86.64 13.1)" gradientUnits="userSpaceOnUse"><stop stop-color="#97a9b1" offset="0"/><stop stop-color="#cfdce1" offset="1"/></linearGradient></defs><rect width="48" height="48" rx="2.982" fill="url(#a)" fill-rule="evenodd"/><g transform="matrix(.1224 0 0 .1224 7.3 8.2)" fill-opacity=".823"><path d="m37.98 161.7c0 4.142 3.358 7.5 7.5 7.5s7.5-3.358 7.5-7.5v-58.63c0-3.034-1.827-5.768-4.63-6.929-2.801-1.16-6.03-0.519-8.173 1.626l-19 19c-2.929 2.929-2.929 7.678 0 10.61 2.929 2.929 7.678 2.929 10.61 0l6.201-6.201v40.52"/><path d="m82.28 31.81 6.201-6.201v40.52c0 4.142 3.358 7.5 7.5 7.5s7.5-3.358 7.5-7.5v-58.63c0-3.034-1.827-5.768-4.63-6.929-2.801-1.16-6.03-0.519-8.173 1.626l-19 19c-2.929 2.929-2.929 7.678 0 10.61 2.929 2.929 7.678 2.929 10.61 0"/><path d="m167.8 96.14c-2.801-1.16-6.03-0.519-8.173 1.626l-19 19c-2.929 2.929-2.929 7.678 0 10.61 2.929 2.929 7.678 2.929 10.61 0l6.201-6.201v40.52c0 4.142 3.358 7.5 7.5 7.5s7.5-3.358 7.5-7.5v-58.63c0-3.03-1.827-5.768-4.63-6.929"/><path d="m135.2 188.4c-2.801-1.16-6.03-0.519-8.173 1.626l-19 19c-2.929 2.929-2.929 7.678 0 10.61 2.929 2.929 7.678 2.929 10.61 0l6.201-6.201v22.2c0 4.142 3.358 7.5 7.5 7.5s7.5-3.358 7.5-7.5v-40.3c0-3.034-1.827-5.768-4.63-6.929"/><path d="m122.5 143.4v-22.07c0-14.21-11.56-25.78-25.78-25.78h-0.369c-14.21 0-25.78 11.56-25.78 25.78v22.07c0 14.21 11.56 25.78 25.78 25.78h0.369c14.21 0 25.78-11.56 25.78-25.78m-15 0c0 5.942-4.834 10.78-10.78 10.78h-0.369c-5.942 0-10.78-4.834-10.78-10.78v-22.07c0-5.942 4.834-10.78 10.78-10.78h0.369c5.942 0 10.78 4.834 10.78 10.78v22.07"/><path d="m216.8 95.57h-0.369c-14.21 0-25.78 11.56-25.78 25.78v22.07c0 14.21 11.56 25.78 25.78 25.78h0.369c14.21 0 25.78-11.56 25.78-25.78v-22.07c0-14.21-11.56-25.78-25.78-25.78m10.78 47.85c0 5.942-4.834 10.78-10.78 10.78h-0.369c-5.942 0-10.78-4.834-10.78-10.78v-22.07c0-5.942 4.834-10.78 10.78-10.78h0.369c5.942 0 10.78 4.834 10.78 10.78v22.07"/><path d="m147.2 0h-0.369c-14.21 0-25.78 11.56-25.78 25.78v22.07c0 14.21 11.56 25.78 25.78 25.78h0.369c4.142 0 7.5-3.358 7.5-7.5s-3.358-7.5-7.5-7.5h-0.369c-5.942 0-10.78-4.834-10.78-10.78v-22.07c0-5.942 4.834-10.78 10.78-10.78h0.369c5.942 0 10.78 4.834 10.78 10.78 0 4.142 3.358 7.5 7.5 7.5s7.5-3.358 7.5-7.5c1e-4 -14.21-11.56-25.78-25.78-25.78"/><path d="m216.8 0h-0.369c-14.21 0-25.78 11.56-25.78 25.78v22.07c0 14.21 11.56 25.78 25.78 25.78h0.369c14.21 0 25.78-11.56 25.78-25.78v-22.07c0-14.21-11.56-25.78-25.78-25.78m10.78 47.85c0 5.942-4.834 10.78-10.78 10.78h-0.369c-5.942 0-10.78-4.834-10.78-10.78v-22.07c0-5.942 4.834-10.78 10.78-10.78h0.369c5.942 0 10.78 4.834 10.78 10.78v22.07z"/><path d="m61.68 187.9h-0.369c-14.21 0-25.78 11.56-25.78 25.78v22.07c0 14.21 11.56 25.78 25.78 25.78h0.369c14.21 0 25.78-11.56 25.78-25.78v-22.07c1e-4 -14.21-11.56-25.78-25.78-25.78m10.78 47.85c0 5.942-4.834 10.78-10.78 10.78h-0.369c-5.942 0-10.78-4.834-10.78-10.78v-22.07c0-5.942 4.834-10.78 10.78-10.78h0.369c5.942 0 10.78 4.834 10.78 10.78v22.07z"/></g></svg>
