<svg viewBox="0 0 48 48" xmlns="http://www.w3.org/2000/svg" xmlns:xlink="http://www.w3.org/1999/xlink"><defs><linearGradient id="a" x2="0" y1="541.9" y2="517.9" gradientUnits="userSpaceOnUse" xlink:href="#b"/><linearGradient id="b"><stop stop-color="#fa345d" offset="0"/><stop stop-color="#f76a8d" offset="1"/></linearGradient><linearGradient id="c" x1="407.5" x2="407.7" y1="537.3" y2="509.6" gradientUnits="userSpaceOnUse" xlink:href="#b"/></defs><g transform="matrix(1.956 0 0 1.956 -722.1 -1013)" stroke-width="1.317"><circle cx="381.4" cy="529.9" r="12" fill="url(#a)"/><g transform="translate(-.45.25)" fill="#fff"><path d="m380.9 523.9a0.5 0.5455 0 0 1 0.2383 0.0684l9 5.455a0.5 0.5455 0 0 1 0 0.9531l-9 5.455a0.5 0.5455 0 0 1-0.7422-0.4766v-10.91a0.5 0.5455 0 0 1 0.5039-0.5449" fill-opacity=".853"/><path d="m379.42 518.1v16.83c0 .554-.45 1-1.01 1h-1.01c-.559 0-1.01-.446-1.01-1v-15.893c.765-.383 1.917-.795 3.03-.938" fill-opacity=".855"/></g><circle cx="381.4" cy="529.9" r="12" fill="none" stroke="url(#a)" stroke-linecap="round" stroke-opacity=".98" stroke-width=".538"/></g></svg>
