<svg viewBox="0 0 48 48" xmlns="http://www.w3.org/2000/svg"><defs><linearGradient id="a" x1="68.69" x2="68.1" y1="27.34" y2="-20.22" gradientUnits="userSpaceOnUse"><stop stop-color="#f2b333" offset="0"/><stop stop-color="#fcde3f" offset="1"/></linearGradient></defs><g transform="matrix(1 0 0 1 -43.37 20.88)" enable-background="new"><g fill-rule="evenodd"><rect x="44.18" y="-20.88" width="46.4" height="48" rx="2.982" fill="url(#a)"/><g fill="#fcfcfc" fill-opacity=".85"><circle cx="49.55" cy="-16.25" r="1.672"/><circle cx="53.96" cy="-16.25" r="1.672"/><circle cx="58.42" cy="-16.25" r="1.672"/></g></g><g fill="#fff" fill-opacity=".851"><path d="m71.08 13.16h-7.418c-0.552 0-1 0.448-1 1s0.448 1 1 1h7.418c0.552 0 1-0.448 1-1s-0.448-1-1-1"/><path d="m65.43 19.07v.545c0 .615.498 1.113 1.113 1.113h1.662c.614 0 1.113-.498 1.113-1.113v-.545c1.26-.09 2.257-1.129 2.257-2.411h-8.404c0 1.282.998 2.322 2.258 2.411"/><path d="m67.38-9.275c-5.535 0-10.02 4.487-10.02 10.02 0 2.336.803 4.48 2.145 6.182 1.187 1.504 2.312 3.149 3.281 4.803h9.191c.98-1.669 2.084-3.283 3.282-4.804 1.341-1.701 2.145-3.846 2.145-6.181 0-5.535-4.487-10.02-10.02-10.02"/></g></g></svg>
