<svg viewBox="0 0 48 48" xmlns="http://www.w3.org/2000/svg"><defs><clipPath id="c"><path transform="matrix(15.33 0 0 11.5 415 -125.5)" d="m-24 13c0 1.105-0.672 2-1.5 2s-1.5-0.895-1.5-2 0.672-2 1.5-2 1.5 0.895 1.5 2" fill="#1890d0"/></clipPath><linearGradient id="a" x1="24.07" x2="23.12" y1="47.59" y2="-.61" gradientUnits="userSpaceOnUse"><stop stop-color="#e1e1e1" offset="0"/><stop stop-color="#f4f4ff" offset="1"/></linearGradient><linearGradient id="b" x1="12" x2="36" gradientUnits="userSpaceOnUse"><stop offset="0"/><stop stop-opacity="0" offset="1"/></linearGradient><linearGradient id="d" x1="-124" x2="-125.2" y1="73.5" y2="-26.05" gradientTransform="matrix(.4943 0 0 .4778 86.65 13.11)" gradientUnits="userSpaceOnUse"><stop stop-color="#c52828" offset="0"/><stop stop-color="#ff5454" offset="1"/></linearGradient></defs><g enable-background="new"><rect x="1e-4" y=".007" width="48" height="48" rx="2.982" fill="url(#d)" fill-rule="evenodd"/></g><g transform="matrix(1.333 0 0 1.333 -8 -8)" fill="url(#b)"><g clip-path="url(#c)"><path transform="matrix(.75 0 0 .75 6 6)" d="m18.67 8c2.361 7.083 3.673 11.03 3.943 14.62-3.586-0.272-7.532-1.581-14.61-3.938v10.67c7.08-2.358 11.02-3.668 14.61-3.941-0.274 3.582-1.585 7.527-3.941 14.6h10.67c-2.356-7.07-3.667-11.02-3.941-14.6 3.586 0.272 7.531 1.584 14.61 3.943v-10.67c-7.078 2.357-11.02 3.666-14.61 3.938 0.27-3.589 1.582-7.534 3.943-14.62h-10.67" fill="url(#a)"/></g></g></svg>
