<svg viewBox="0 0 48 48" xmlns="http://www.w3.org/2000/svg"><defs><linearGradient id="a" x1="11.94" x2="10.72" y1="216.1" y2="116.5" gradientUnits="userSpaceOnUse"><stop stop-color="#8798a9" offset="0"/><stop stop-color="#aeb6be" offset="1"/></linearGradient></defs><rect transform="matrix(.4778 0 0 .4778 19.606-55.02)" x="-39.36" y="115.2" width="97.1" height="100.5" rx="6.241" fill="url(#a)" fill-rule="evenodd"/><g transform="matrix(1.75 0 0 1.75-565.75-930.38)" fill="#3d434a"><path transform="matrix(.01646 0 0 .01646 329 537.4)" d="m370.2 459.3c10.2 11.1 15.8 25.6 15.8 40.6v442c0 26.6 32.1 40.1 51.1 21.4l123.3-141.3c16.5-19.8 25.6-29.6 25.6-49.2v-272.8c0-15 5.7-29.5 15.8-40.6l353.8-383.9c26.5-28.8 6.101-75.5-33.1-75.5h-873c-39.2 0-59.7 46.6-33.1 75.5l353.8 383.8"/></g></svg>
