<svg viewBox="0 0 48 48" xmlns="http://www.w3.org/2000/svg" xmlns:xlink="http://www.w3.org/1999/xlink"><defs><linearGradient id="a" x2="0" y1="544.9" y2="506.4" gradientUnits="userSpaceOnUse" xlink:href="#b"/><linearGradient id="b"><stop stop-color="#178b6f" offset="0"/><stop stop-color="#3ec9d3" offset="1"/></linearGradient></defs><g transform="matrix(1.069 0 0 1.069 -2.207 -1.385)"><circle transform="matrix(1.116 0 0 1.116 -486.8 -563)" cx="458.1" cy="525.6" r="19.22" fill="url(#a)" stroke="url(#a)" stroke-linecap="round" stroke-linejoin="round" stroke-width="1.791"/><path d="m32.942 15.08c-1.482-2.198-4.14-3.474-7.894-3.792h-.006c-.277-.031-.543-.047-.79-.047-1.893 0-2.565.948-2.565 1.759v14.12c-.745-.224-1.543-.289-2.332-.19-1.374.173-2.606.819-3.467 1.817-.861.998-1.25 2.23-1.093 3.468.29 2.299 2.441 4.03 5 4.03.241 0 .485-.015.726-.046 2.657-.335 4.585-2.443 4.585-5.01v-13.857c.199-.013.399-.02.594-.02 2.342 0 4.496.98 6.228 2.834.714.764 1.215 1.524 1.51 2.027.072.123.214.189.355.164.141-.025.251-.135.277-.276.284-1.56.515-4.542-1.132-6.985" fill="#fff" fill-opacity=".847" stroke-width="1.317"/></g></svg>
