<svg viewBox="0 0 48 48" xmlns="http://www.w3.org/2000/svg" xmlns:xlink="http://www.w3.org/1999/xlink"><defs><linearGradient id="d" x1="-124" x2="-125.2" y1="73.5" y2="-26.05" gradientTransform="matrix(.4943 0 0 .4778 99.25 50.12)" gradientUnits="userSpaceOnUse"><stop stop-color="#132e51" offset="0"/><stop stop-color="#2763b9" offset="1"/></linearGradient></defs><g fill-rule="evenodd"><path transform="translate(-12.61-37.02)" d="m15.59 37.02h42.04c1.652 0 2.982 1.33 2.982 2.982v42.04c0 1.652-1.33 2.982-2.982 2.982h-42.04c-1.652 0-2.982-1.33-2.982-2.982v-42.04c0-1.652 1.33-2.982 2.982-2.982" fill="url(#d)"/><g fill="#cfd9e7"><path d="m18.8 37.43c13.9 0.077 20.16 4.916 25.2 10.57h-22.47c-2.619-0.04-2.724-1.913-2.724-1.913"/><path d="m48 39.78c-10.81 0.06-15.67 3.822-19.59 8.217h16.67c2.786-0.019 2.918-2.787 2.918-2.787"/><path d="m0 32.9c14.86 0.111 25.83 7.02 31.21 15.1h-28.3c-2.799-0.058-2.912-2.733-2.912-2.733"/></g></g><g transform="matrix(-.3571 0 0 .3571 287.6 -54.58)" fill="#fff"><path transform="matrix(-.1534 0 0 .1534 791.5 173.1)" d="m153.7 292.1c-84.75 0-153.7-68.95-153.7-153.7 0-58.7 32.68-111.4 85.28-137.6 2.369-1.174 5.215-0.718 7.08 1.144 1.864 1.864 2.345 4.711 1.183 7.07-9.599 19.5-14.46 40.47-14.46 62.3 0 77.97 63.43 141.4 141.4 141.4 22.08 0 43.25-4.978 62.94-14.78 2.366-1.177 5.213-0.721 7.07 1.141 1.873 1.867 2.342 4.714 1.177 7.07-26.06 53.02-78.93 85.96-138 85.96" fill-opacity=".785"/><g transform="matrix(-1.579 0 0 1.579 715.4 182.4)"><path id="c" d="m6.977 4.988l2.286.762 1.214 3.238 1.213-3.238 2.287-.762-2.286-.762-1.214-3.238-1.214 3.238z" fill="#fff" fill-opacity=".846"/><path id="b" d="m17.977 12.988l-2.286-.762-1.214-3.238-1.214 3.238-2.286.762 2.286.762 1.214 3.238 1.214-3.238z" fill="#fff" fill-opacity=".846"/><path id="a" d="m20.344 7.559l1.633-.571-1.633-.571-.867-2.429-.867 2.429-1.633.571 1.633.571.867 2.429z" fill="#fff" fill-opacity=".846"/></g><g fill-opacity=".846"><g transform="matrix(-1.579 0 0 1.579 745.5 165.4)"><path d="m10.477.988l-1.214 3.238-2.286.762 2.286.762 1.214 3.238 1.213-3.238 2.287-.762-2.286-.762z"/><path d="m14.477 16.988l1.214-3.238 2.286-.762-2.286-.762-1.214-3.238-1.214 3.238-2.286.762 2.286.762z"/><path d="m18.61 7.559l.867 2.429.867-2.429 1.633-.571-1.633-.571-.867-2.429-.867 2.429-1.633.571z"/></g><g transform="matrix(1.579 0 0 1.579 694 201.3)"><use xlink:href="#c"/><use xlink:href="#b"/><use xlink:href="#a"/></g></g></g></svg>
