<svg viewBox="0 0 48 48" xmlns="http://www.w3.org/2000/svg"><defs><linearGradient id="c" x1="469" x2="469.4" y1="76.87" y2="-3.038" gradientUnits="userSpaceOnUse"><stop stop-color="#fefffe" offset="0"/><stop stop-color="#f1f1f0" offset="1"/></linearGradient><linearGradient id="b" x1="468.9" x2="467.5" y1="130.4" y2="-75.34" gradientUnits="userSpaceOnUse"><stop stop-color="#124da4" offset="0"/><stop stop-color="#2896ff" offset="1"/></linearGradient><linearGradient id="a" x1="469" x2="472.2" y1="122.2" y2="36.36" gradientTransform="matrix(.99787 0 0 1 .79.581)" gradientUnits="userSpaceOnUse"><stop stop-color="#2381dd" offset="0"/><stop stop-color="#2381dd" offset="1"/></linearGradient></defs><g transform="translate(-384.57-499.8)"><g transform="matrix(.24746-.00107.00107.24746 292.48 514.3)"><rect transform="matrix(1 .00434 -.00434 1 0 0)" x="376.8" y="-53.56" width="184.1" height="183.9" rx="11.36" fill="url(#b)"/><path d="m376.7 38.88 183.8 0.798 4.689 70.61s2.183 11.54-10.96 11.52l-170.1-0.26c-14.5 0.194-12.24-12.19-12.24-12.19z" fill="url(#a)" fill-rule="evenodd"/></g><path d="m404.41 509.77l2.265.539q-.324.863-.755 1.618h10.892v8.52h-16.176v1.402h19.09v1.725h-19.09v1.402h19.304q-.324 7.01-1.078 8.412-.647 1.51-2.48 1.51-.863 0-2.696-.324l-.431-2.157q2.049.324 2.912.324.647 0 .863-.647.324-.755.539-5.284h-19.09v-14.882h5.069q.539-1.078.863-2.157m-3.775 3.882v1.726h14.02v-1.726h-14.02m0 3.343v1.725h14.02v-1.725h-14.02m4.637 10.461h2.157v2.912h5.284v-2.696h2.049v4.422h-14.667v1.833h-2.157v-6.147h2.157v2.588h5.176v-2.912" fill="#ddeaf8"/></g></svg>
