<svg viewBox="0 0 48 48" xmlns="http://www.w3.org/2000/svg"><defs><linearGradient id="a" x1="479.1" x2="496.4" y1="1323" y2="-12.2" gradientUnits="userSpaceOnUse"><stop stop-color="#c52828" offset="0"/><stop stop-color="#ff5454" offset="1"/></linearGradient></defs><path transform="matrix(.05018 0 0 .04891-.62.004)" d="m946.2 206.6c-0.3-23-18-42-40.9-44.1-190.3-17.8-345.6-119.5-396.8-156.7-10.7-7.8-25.2-7.8-35.9 0-51.1 37.2-206.4 138.9-396.7 156.7-22.9 2.101-40.5 21.1-40.9 44.1-2.3 150.1 21.8 659.7 444.1 773.1 7.5 2 15.4 2 22.9 0 422.3-113.3 446.4-623 444.2-773.1" fill="url(#a)"/><path transform="matrix(1.043 0 0 1.043 -1.048 -1.041)" d="m23.43 14.14a1.221 1.221 0 0 0-1.223 1.223v7.736c0 0.225-0.182 0.406-0.406 0.406-0.225 0-0.408-0.182-0.408-0.406v-6.107a1.221 1.221 0 0 0-1.221-1.223 1.221 1.221 0 0 0-1.221 1.223v10.18l-1.65-2.256c-0.489-0.753-1.442-1.01-2.141-0.574-0.696 0.441-0.869 1.404-0.387 2.154 0 0 2.659 4.03 3.793 5.748 1.133 1.723 2.97 3.07 6.404 3.07 5.685 0 6.193-4.39 6.193-5.699v-10.99a1.221 1.221 0 0 0-1.221-1.223 1.221 1.221 0 0 0-1.221 1.223v5.291c0 0.225-0.183 0.408-0.408 0.408s-0.406-0.183-0.406-0.408v-7.734a1.221 1.221 0 0 0-1.223-1.223 1.221 1.221 0 0 0-1.221 1.223v6.922c0 0.225-0.182 0.406-0.406 0.406-0.225 0-0.408-0.182-0.408-0.406v-7.736a1.221 1.221 0 0 0-1.221-1.223" fill="#fff" fill-opacity=".855"/></svg>
