<svg viewBox="0 0 48 48" xmlns="http://www.w3.org/2000/svg"><defs><linearGradient id="b" x1="-124" x2="-125.2" y1="73.5" y2="-26.05" gradientTransform="matrix(.4943 0 0 .4778 86.64 13.1)" gradientUnits="userSpaceOnUse"><stop stop-color="#e1e1e1" offset="0"/><stop stop-color="#f4f4ff" offset="1"/></linearGradient><linearGradient id="a" x1="23.51" x2="23.15" y1="36.73" y2="12.32" gradientUnits="userSpaceOnUse"><stop stop-color="#f16419" offset="0"/><stop stop-color="#feb600" offset="1"/></linearGradient></defs><path d="m2.982 0h42.04c1.652 0 2.982 1.33 2.982 2.982v42.04c0 1.652-1.33 2.982-2.982 2.982h-42.04c-1.652 0-2.982-1.33-2.982-2.982v-42.04c0-1.652 1.33-2.982 2.982-2.982" fill="url(#b)" fill-rule="evenodd"/><path d="m8.943 12.34c-1.076 0-1.943 0.867-1.943 1.943s0.867 1.943 1.943 1.943h5.897c-0.04 0.156-0.068 0.317-0.068 0.486v17c0 1.076 0.867 1.943 1.943 1.943s1.943-0.867 1.943-1.943v-17c0-0.169-0.028-0.33-0.068-0.486h5.897c1.076 0 1.943-0.867 1.943-1.943s-0.867-1.943-1.943-1.943h-15.54m18.46 0v3.4h0.486c4.574 0 8.257 3.683 8.257 8.257s-3.683 8.257-8.257 8.257h-5.343v3.4h6.8c6.458 0 11.66-5.199 11.66-11.66s-5.199-11.66-11.66-11.66h-1.943" fill="url(#a)"/></svg>
