<svg viewBox="0 0 48 48" xmlns="http://www.w3.org/2000/svg"><defs><linearGradient id="a" x2="0" y1="870.1" y2="831.4" gradientTransform="matrix(.9042 0 0 .9054 -551.5 -761.8)" gradientUnits="userSpaceOnUse"><stop stop-color="#2e3e46" offset="0"/><stop stop-color="#47606a" offset="1"/></linearGradient><linearGradient id="b" x1="27.43" x2="27.57" y1="16.24" y2="1.218" gradientUnits="userSpaceOnUse"><stop stop-color="#ff9300" offset="0"/><stop stop-color="#ffd702" offset="1"/></linearGradient></defs><g transform="matrix(1.714 0 0 1.714 -24.22 8.503)" enable-background="new"><ellipse cx="28.13" cy="9.04" rx="13.31" ry="13.32" fill="url(#a)" stroke="url(#a)" stroke-width="1.358"/><path d="m35.37 14.64-3.126-3.126c0.753-1.088 1.13-2.3 1.13-3.637 0-0.869-0.169-1.7-0.506-2.493s-0.793-1.477-1.367-2.051-1.258-1.03-2.051-1.367-1.624-0.506-2.493-0.506-1.7 0.169-2.493 0.506-1.477 0.793-2.051 1.367-1.03 1.258-1.367 2.051-0.506 1.624-0.506 2.493 0.169 1.7 0.506 2.493 0.793 1.476 1.367 2.051c0.574 0.574 1.258 1.03 2.051 1.367s1.624 0.506 2.493 0.506c1.337 0 2.549-0.377 3.637-1.13l3.126 3.117c0.219 0.231 0.492 0.346 0.82 0.346 0.316 0 0.59-0.115 0.82-0.346 0.231-0.231 0.346-0.504 0.346-0.82 0-0.322-0.112-0.595-0.337-0.82m-5.528-3.878c-0.799 0.799-1.761 1.199-2.885 1.199s-2.086-0.4-2.885-1.199-1.199-1.761-1.199-2.885 0.4-2.086 1.199-2.885 1.761-1.199 2.885-1.199 2.086 0.4 2.885 1.199 1.199 1.761 1.199 2.885-0.4 2.086-1.199 2.885" fill="url(#b)"/></g></svg>
