<!-- Created with Inkscape (http://www.inkscape.org/) -->
<svg width="48" height="48" version="1.1" xmlns="http://www.w3.org/2000/svg" xmlns:xlink="http://www.w3.org/1999/xlink"><defs><linearGradient id="a" x1="31.19" x2="29.95" y1="56.64" y2="32.59" gradientTransform="matrix(.8475 -.01168 .01168 .8475 22.29 -23.58)" gradientUnits="userSpaceOnUse"><stop stop-color="#d5dbff" offset="0"/><stop stop-color="#f9ffff" offset="1"/></linearGradient><linearGradient id="c" x1="543.9" x2="543.7" y1="484.8" y2="427.5" gradientTransform="matrix(.5289 0 0 .5289 -351.1 -245.4)" gradientUnits="userSpaceOnUse"><stop stop-color="#ff5b4f" offset="0"/><stop stop-color="#ff7369" offset="1"/></linearGradient><linearGradient id="b" x1="556.4" x2="555.3" y1="470.5" y2="421.9" gradientTransform="matrix(.5289 0 0 .5289 -349 -245.4)" gradientUnits="userSpaceOnUse"><stop stop-color="#566069" offset="0"/><stop stop-color="#6c7884" offset="1"/></linearGradient></defs><g transform="translate(-384.6 -499.8)"><g transform="translate(225.8 462.4)" enable-background="new"><g transform="matrix(.2266 0 0 .2266 106.9 54.31)"><g transform="matrix(4.414 0 0 4.414 59.28 39.36)"><g transform="translate(9.506e-7 -5)"><rect transform="matrix(-1 -.006278 -.006278 1 0 0)" x="-82.3" y="-19.87" width="40.63" height="31.2" ry="1.217" fill="url(#b)"/><rect transform="matrix(-.9843 -.1764 -.1764 .9843 0 0)" x="-84.39" y="-19.86" width="40.63" height="31.2" ry="1.217" fill="url(#c)"/><path d="m66.74-3.601-2.498 16.57 7.524 5.28-5.026-21.85z" fill="#fff" fill-opacity=".8508" fill-rule="evenodd" opacity=".85"/><path d="m65.8-3.422-13.73 16.39 12.2-6.271z" fill="#fff" fill-opacity=".8508" fill-rule="evenodd" opacity=".85"/><path d="m59.07 10.26-5.644 3.976 17.93 4.648-12.29-8.624zm-5.176 4.021 0.1053-0.05035-0.5002-0.06955z" fill="#fff" fill-opacity=".8508" fill-rule="evenodd" opacity=".85"/><path d="m48.7 3.591a10.47 10.47 0 0 0-10.32 10.61 10.47 10.47 0 0 0 10.61 10.32 10.47 10.47 0 0 0 10.32-10.61 10.47 10.47 0 0 0-10.61-10.32zm-3.082 6.091 7.709 4.244-7.529 4.555-0.1802-8.799z" fill="url(#a)"/></g></g></g></g></g></svg>
