<svg viewBox="0 0 48 48" xmlns="http://www.w3.org/2000/svg"><defs><linearGradient id="c" x1="49.38" x2="48.05" y1="24.06" y2="3.69" gradientUnits="userSpaceOnUse"><stop stop-color="#d5dbff" offset="0"/><stop stop-color="#f9ffff" offset="1"/></linearGradient><linearGradient id="b" x1="-63.4" x2="-63.5" y1="11" y2="-19.3" gradientUnits="userSpaceOnUse"><stop stop-color="#ff5b4f" offset="0"/><stop stop-color="#ff7369" offset="1"/></linearGradient><linearGradient id="a" x1="-54.7" x2="-55.3" y1="3.413" y2="-22.3" gradientUnits="userSpaceOnUse"><stop stop-color="#566069" offset="0"/><stop stop-color="#6c7884" offset="1"/></linearGradient></defs><g transform="matrix(1 0 0 1 -38.37 20.88)" enable-background="new"><rect transform="matrix(-1 -.00628 -.00628 1 0 0)" x="-82.3" y="-19.87" width="40.63" height="31.2" rx="1.217" fill="url(#a)"/><rect transform="matrix(-.9843 -.1764 -.1764 .9843 0 0)" x="-84.39" y="-19.86" width="40.63" height="31.2" rx="1.217" fill="url(#b)"/><g fill="#fff" fill-opacity=".851" fill-rule="evenodd"><path d="m66.74-3.601-2.498 16.57 7.524 5.28-5.03-21.85" opacity=".85"/><path d="m65.8-3.422-13.72 16.39 12.2-6.271" opacity=".85"/><path d="m59.07 10.26-5.644 3.976 17.93 4.648-12.29-8.624m-5.176 4.02 0.105-0.05-0.5-0.07z" opacity=".85"/></g><path d="m48.7 3.591a10.47 10.47 0 0 0-10.32 10.61 10.47 10.47 0 0 0 10.61 10.32 10.47 10.47 0 0 0 10.32-10.61 10.47 10.47 0 0 0-10.61-10.32m-3.082 6.091 7.709 4.244-7.529 4.555-0.18-8.799z" fill="url(#c)"/></g></svg>
