<svg viewBox="0 0 48 48" xmlns="http://www.w3.org/2000/svg" xmlns:xlink="http://www.w3.org/1999/xlink"><defs><linearGradient id="b" x1="350.5" x2="347.9" y1="557.8" y2="531.9" gradientUnits="userSpaceOnUse" xlink:href="#a"/><linearGradient id="a"><stop stop-color="#97a9b1" offset="0"/><stop stop-color="#cfdce1" offset="1"/></linearGradient><linearGradient id="c" x1="360.2" x2="358.8" y1="541" y2="527" gradientUnits="userSpaceOnUse"><stop stop-color="#161719" offset="0"/><stop stop-color="#424649" offset="1"/></linearGradient><linearGradient id="e" x1="361.5" x2="358.9" y1="536.4" y2="510.5" gradientUnits="userSpaceOnUse" xlink:href="#a"/><linearGradient id="f" x1="372.6" x2="370" y1="557.8" y2="531.9" gradientUnits="userSpaceOnUse" xlink:href="#a"/><linearGradient id="d" x2="0" y1="537.4" y2="531" gradientUnits="userSpaceOnUse" xlink:href="#a"/></defs><g transform="translate(-334.57-509.8)"><circle cx="358.6" cy="523.1" r="12.95" fill="url(#e)"/><circle cx="347.5" cy="544.5" r="12.95" fill="url(#b)"/><circle cx="369.6" cy="544.5" r="12.95" fill="url(#f)"/><circle cx="358.6" cy="533.8" r="7" fill="url(#c)"/><path d="m358.41 529.89l-2.196 3.831c-.462.81-.497 1.84 0 2.707.747 1.304 2.41 1.754 3.714 1.01 1.304-.747 1.754-2.41 1.01-3.714l-2.196-3.831c-.073-.127-.255-.127-.328 0" fill="url(#d)"/></g></svg>
