<svg viewBox="0 0 48 48" xmlns="http://www.w3.org/2000/svg"><defs><linearGradient id="c" x1="-48.95" x2="-49.55" y1="-5.178" y2="-30.89" gradientUnits="userSpaceOnUse"><stop stop-color="#566069" offset="0"/><stop stop-color="#6c7884" offset="1"/></linearGradient><linearGradient id="b" x1="43.69" x2="42.36" y1="15.43" y2="-4.937" gradientUnits="userSpaceOnUse"><stop stop-color="#d5dbff" offset="0"/><stop stop-color="#f9ffff" offset="1"/></linearGradient><linearGradient id="a" x1="-56.27" x2="-56.38" y1="3.509" y2="-26.78" gradientUnits="userSpaceOnUse"><stop stop-color="#197ff1" offset="0"/><stop stop-color="#21c6fb" offset="1"/></linearGradient></defs><g transform="matrix(1 0 0 1 -32.68 29.51)" enable-background="new"><rect transform="matrix(-1 -.00628 -.00628 1 0 0)" x="-76.55" y="-28.46" width="40.63" height="31.2" rx="1.217" fill="url(#c)"/><rect transform="matrix(-.9843 -.1764 -.1764 .9843 0 0)" x="-77.26" y="-27.35" width="40.63" height="31.2" rx="1.217" fill="url(#a)"/><path d="m43-5.036a10.47 10.47 0 0 0-10.32 10.61 10.47 10.47 0 0 0 10.61 10.32 10.47 10.47 0 0 0 10.32-10.61 10.47 10.47 0 0 0-10.61-10.32m-3.082 6.091 7.709 4.244-7.529 4.555-0.18-8.799z" fill="url(#b)"/></g></svg>
