<svg viewBox="0 0 48 48" xmlns="http://www.w3.org/2000/svg"><defs><linearGradient id="a" x1="2.367" x2="27.44" y1="21.61" y2="8.06" gradientUnits="userSpaceOnUse"><stop stop-color="#dc3c30" offset="0"/><stop stop-color="#ff786d" offset="1"/></linearGradient></defs><g transform="matrix(1.2 0 0 1.2 -466.1 -604.7)"><path d="m408.4 504.9c-4.857 0-9.714 1.861-13.44 5.582-7.443 7.443-7.443 19.43 0 26.87s19.43 7.443 26.87 0 7.443-19.43 0-26.87c-3.721-3.721-8.579-5.582-13.44-5.582" fill="#f1f9ff"/><path transform="matrix(.6487 -1.166 1.166 .6487 381.2 531.6)" d="m22.68 2.124c-7.107-4.244-16.31-1.931-20.56 5.174-4.248 7.104-1.932 16.31 5.171 20.56 7.108 4.248 16.31 1.93 20.56-5.174s1.932-16.3-5.168-20.56m-7.553 12.78 5.724 10.94c-0.908 0.486-1.872 0.861-2.868 1.115-3.045 0.762-6.36 0.381-9.269-1.332l6.405-10.71-12.5-0.5c0.091-1.974 0.649-3.957 1.739-5.779 1.142-1.91 2.719-3.394 4.525-4.413l6.241 10.68 6.264-10.47c2.882 1.757 4.792 4.493 5.557 7.538 0.221 0.876 0.343 1.776 0.367 2.683l-12.19 0.259" fill="url(#a)"/></g></svg>
