<svg viewBox="0 0 48 48" xmlns="http://www.w3.org/2000/svg"><defs><linearGradient id="a" x2="0" y1="-2.471" y2="-51.27" gradientUnits="userSpaceOnUse"><stop stop-color="#0a80fd" offset="0"/><stop stop-color="#56c5fa" offset="1"/></linearGradient></defs><g transform="matrix(.2266 0 0 .2266 -51.8 16.96)" enable-background="new"><circle transform="matrix(4.414 0 0 4.414-6.926 149)" cx="77.37" cy="-26.72" r="24" fill="url(#a)"/><path d="m334.7-25.56c-0.13-0.057-6.168 5.02-13.43 11.33-10.52 9.146-13.41 11.49-14.08 11.49-0.463-1e-4 -7.927-0.702-16.67-1.619s-15.95-1.607-16.02-1.537c-0.138 0.141-12.22 40.08-12.38 40.95-0.072 0.375 4.763 4.663 16.59 14.73l16.67 14.16h5.989c3.282 0 6.567-0.137 7.365-0.234l1.457-0.159-17.56-14.57c-9.665-7.995-17.55-14.73-17.56-14.97-1e-3 -0.238 1.633-5.423 3.642-11.57 2.01-6.149 4.01-12.52 4.532-14.16 0.945-2.96 0.97-3.01 1.942-2.994 0.539 0 6.941 0.722 14.16 1.619l13.11 1.619 10.28-8.821c5.653-4.884 10.65-9.226 11.09-9.632l0.809-0.728 8.093 6.96c4.439 3.841 9.404 8.183 11.09 9.631l3.075 2.59 14-1.7c7.711-0.952 14.03-1.71 14.08-1.618 0.158 0.291 9.388 28.7 9.388 28.89 0 0.102-7.943 6.764-17.64 14.81l-17.64 14.65 1.538 0.159c0.822 0.102 4.128 0.225 7.365 0.234l5.908 0.075 16.59-14.16c9.133-7.762 16.62-14.21 16.67-14.4 0.07-0.287-12.08-41.22-12.3-41.44-0.038-0.057-7.278 0.692-16.11 1.618-8.827 0.924-16.38 1.666-16.83 1.618-0.579-0.066-4.736-3.437-13.92-11.41-7.171-6.225-13.14-11.36-13.27-11.41zm-0.162 24.68-7.446 7.526-7.365 7.608v6.556c-0.022 10.3 1.162 19.04 3.561 26.46 2.205 6.828 4.777 11.41 8.659 15.3 1.303 1.303 2.44 2.346 2.59 2.346 0.601 0 3.719-3.072 5.341-5.259 2.414-3.256 4.44-7.255 5.989-11.98 2.514-7.667 3.498-14.35 3.723-25.41l0.162-8.01-7.607-7.608-7.607-7.526m45.64 15.38c-0.076-0.075-4.402 0.371-9.631 0.972-5.229 0.596-9.697 1.133-9.873 1.133-0.207 0-0.324 1.408-0.324 3.966 0 13.48-4.85 29.72-12.06 40.46-1.67 2.488-1.832 2.957-1.133 2.509 4.669-3 37.93-31.14 37.79-31.97-0.151-0.911-4.633-16.93-4.775-17.08m-91.13 0.159c-0.125 0.137-1.227 4.107-2.509 8.82l-2.347 8.499 0.809 0.81c7.812 6.839 29.25 24.79 34.31 28.73 1.757 1.365 3.268 2.396 3.318 2.346 0.05-0.057-0.762-1.404-1.861-3.075-7.06-10.73-11.3-24.81-11.98-39.82-0.111-2.433-0.305-4.369-0.405-4.369-0.099 0-4.429-0.539-9.631-1.134s-9.586-0.942-9.712-0.807m28.08 55.19-17.64 0.075 17.56 8.982c9.625 4.913 17.55 8.853 17.64 8.821 0.09-0.057 8.03-4.02 17.64-8.903l17.48-8.901-17.56-0.075c-9.661-0.053-25.46-0.053-35.12 3e-3z" fill-opacity=".72"/></g></svg>
