<svg viewBox="0 0 48 48" xmlns="http://www.w3.org/2000/svg" xmlns:xlink="http://www.w3.org/1999/xlink"><defs><linearGradient id="a" x1="20.6" x2="22.57" y1="31.24" y2="18.29" gradientUnits="userSpaceOnUse"><stop stop-color="#ff9300" offset="0"/><stop stop-color="#ffd702" offset="1"/></linearGradient><linearGradient id="b" x1="11.94" x2="10.72" y1="216.1" y2="116.5" gradientUnits="userSpaceOnUse"><stop stop-color="#2e3e46" offset="0"/><stop stop-color="#435a64" offset="1"/></linearGradient></defs><rect transform="matrix(.4778 0 0 .4778 19.607-55.02)" x="-39.36" y="115.2" width="97.1" height="100.5" rx="6.241" fill="url(#b)" fill-rule="evenodd"/><g transform="matrix(1.08 0 0 1.08.651-2.434)"><g fill="#fff"><path d="m14.48 9.714v2.857h-1.905v2.872h1.905v17.11h-1.905v2.872h1.905v1.905h-1.429l1.905 3.81 1.905-3.81h-1.429v-1.905h8.571c6.331 0 11.43-5.097 11.43-11.43 0-6.331-5.097-11.43-11.43-11.43h-8.571v-2.857h-0.952m0.952 5.729h8.571c4.79 0 8.557 3.766 8.557 8.557 0 4.79-3.766 8.557-8.557 8.557h-8.571v-17.11"/><path transform="scale(-1 1)" d="m-26.86 24h19.05v0.952h-19.05z"/><path d="m30.67 24.48-3.81 1.905v-3.81z"/></g><path d="m13.52 7.81h2.857v2.857h-2.857z" fill="#383838"/><path d="m14 8.286h1.905v1.905h-1.905z" fill="#fff" stroke="#fff"/><path d="m21.14 18.29-4.762 9.524h9.524l-4.762-9.524m0 3.333 2.381 4.762h-4.762l2.381-4.762" fill="url(#a)"/></g></svg>
