<svg viewBox="0 0 48 48" xmlns="http://www.w3.org/2000/svg" xmlns:xlink="http://www.w3.org/1999/xlink"><defs><linearGradient id="a"><stop stop-color="#ffbc00" offset="0"/><stop stop-color="#ffec00" offset="1"/></linearGradient><linearGradient id="e" x1="-609.7" x2="-649.1" gradientUnits="userSpaceOnUse" xlink:href="#a"/><linearGradient id="h" x1="13.73" x2="5.831" y1="17.46" y2="12.43" gradientUnits="userSpaceOnUse" xlink:href="#a"/><linearGradient id="d" x1="-546.7" x2="-546.9" y1="728.5" y2="757.4" gradientUnits="userSpaceOnUse" xlink:href="#a"/><linearGradient id="c" x1="-594.7" x2="-623.5" y1="693.3" y2="725.2" gradientUnits="userSpaceOnUse" xlink:href="#a"/><linearGradient id="i" x1="-483.6" x2="-438" gradientUnits="userSpaceOnUse" xlink:href="#a"/><linearGradient id="j" x1="-482.5" x2="-439.1" gradientUnits="userSpaceOnUse" xlink:href="#a"/><linearGradient id="b" x1="-504.6" x2="-468" y1="699" y2="725.2" gradientUnits="userSpaceOnUse" xlink:href="#a"/><linearGradient id="f" x1="-620.2" x2="-653.8" y1="588" y2="562.3" gradientUnits="userSpaceOnUse" xlink:href="#a"/><linearGradient id="q" x1="-547.1" x2="-550.8" y1="610.5" y2="547.6" gradientUnits="userSpaceOnUse" xlink:href="#a"/><linearGradient id="p" x1="-533" x2="-566.6" y1="553.4" y2="527.7" gradientUnits="userSpaceOnUse" xlink:href="#a"/><linearGradient id="k" x1="-593.7" x2="-633" y1="606.7" y2="581.7" gradientUnits="userSpaceOnUse" xlink:href="#a"/><linearGradient id="o" x1="-973.4" x2="-974.1" y1="656.6" y2="608.4" gradientUnits="userSpaceOnUse" xlink:href="#g"/><linearGradient id="n" x1="-548" x2="-549.6" y1="796.6" y2="579.1" gradientUnits="userSpaceOnUse"><stop stop-color="#ff9300" offset="0"/><stop stop-color="#ffd702" offset="1"/></linearGradient><linearGradient id="l" x1="-547.6" x2="-549" y1="715.9" y2="592.4" gradientUnits="userSpaceOnUse" xlink:href="#a"/><linearGradient id="m" x1="-1008" x2="-1008" y1="656.6" y2="608.4" gradientUnits="userSpaceOnUse" xlink:href="#g"/><linearGradient id="g"><stop stop-color="#161719" offset="0"/><stop stop-color="#424649" offset="1"/></linearGradient></defs><path d="m6.665 12.83 4.47 11.58 6.911-10.57-11.79-3.048" fill="url(#h)" fill-rule="evenodd"/><g transform="matrix(.2012 0 0 .2012 133.8 -105.9)"><g transform="matrix(-1 0 0 1 -1092 6.7)"><g fill-rule="evenodd" stroke-linecap="round" stroke-linejoin="round" stroke-width="2.2"><path transform="matrix(-1 0 0 1 -1092 0)" d="m-566.7 720 21.21 37.38 23.23-37.88z" fill="url(#d)" stroke="url(#d)"/><path transform="matrix(-1 0 0 1 -1092 0)" d="m-608.6 684.8-14.89 41.25 47.65-11.53z" fill="url(#c)" stroke="url(#c)"/><path transform="matrix(-1 0 0 1 -1092 0)" d="m-482.9 684.8 14.89 41.25-47.65-11.53z" fill="url(#b)" stroke="url(#b)"/><path transform="matrix(-1 0 0 1 -1092 0)" d="m-477.4 632.8 38.39 21.21-43.44 22.73z" fill="url(#i)" stroke="url(#j)"/><path transform="matrix(-1 0 0 1 -1092 0)" d="m-614.2 633.6-38.39 21.21 43.44 22.73z" fill="url(#e)" stroke="url(#e)"/></g><circle transform="matrix(-1 0 0 1 -1092 0)" cx="-632.4" cy="573" r="18.53" fill="url(#f)"/><path d="m-628.8 583.6 22.22 57.58 34.35-52.53-58.59-15.15z" fill="url(#k)" fill-rule="evenodd"/><path transform="matrix(-1 0 0 1 -1092 0)" d="m-556.9 548.8-20.2 50.51h60.61l-22.22-50.51z" fill="url(#q)" fill-rule="evenodd"/><circle cx="-545.1" cy="538.4" r="18.53" fill="url(#p)"/><circle cx="-632.4" cy="573" r="18.53" fill="url(#f)"/></g><ellipse cx="-545.8" cy="656.9" rx="75.49" ry="75.26" fill="url(#n)"/><ellipse cx="-545.8" cy="656.9" rx="62.59" ry="62.4" fill="url(#l)"/><g transform="translate(443.6 17.97)"><ellipse cx="-1006" cy="630.9" rx="10.71" ry="21.43" fill="url(#m)"/><ellipse cx="-972.3" cy="630.9" rx="10.71" ry="21.43" fill="url(#o)"/></g></g></svg>
