<svg viewBox="0 0 48 48" xmlns="http://www.w3.org/2000/svg"><defs><linearGradient id="a" x2="0" y1="542.8" y2="507.8" gradientTransform="matrix(1.091 0 0 1.065 -383.3 -560.9)" gradientUnits="userSpaceOnUse"><stop stop-color="#2c3e50" offset="0"/><stop stop-color="#5b7085" offset="1"/></linearGradient></defs><g transform="matrix(.2266 0 0 .2266 -51.8 16.96)" enable-background="new"><rect transform="matrix(4.414 0 0 4.414 59.28 39.36)" x="38.38" y="-19.98" width="48" height="36.22" rx="1.704" fill="url(#a)" stroke-width="1.714"/><g transform="matrix(1.04 0 0 1.04 152.6 36.07)" fill="#fff" stroke="#fff"><g transform="matrix(8.905 0 0 8.905 207.8 -103.3)" stroke-linecap="round" stroke-linejoin="round" stroke-width=".175"><path d="m5.085 13.1c-.031-.029-.07-.044-.118-.044h-4.923c-.048 0-.087.015-.118.044-.031.029-.046.067-.046.112v.312c0 .046.015.083.046.112.031.029.07.044.118.044h4.923c.048 0 .087-.015.118-.044.031-.029.046-.067.046-.112v-.312c0-.046-.015-.083-.046-.112z"/><path d="m-2.792 8.489c-.034-.033-.074-.049-.118-.049-.044 0-.084.016-.118.049l-.256.244c-.034.033-.051.07-.051.112 0 .042.017.08.051.112l2.02 1.917-2.02 1.918c-.034.033-.051.07-.051.112 0 .042.017.08.051.112l.256.244c.034.033.073.049.118.049.044 0 .084-.016.118-.049l2.39-2.274c.034-.033.051-.07.051-.112 0-.042-.017-.08-.051-.112l-2.39-2.274z"/></g><path d="m120.8 20.66q-10.73 0-17.66-7.22-6.927-7.317-6.927-18.24t6.927-18.15q6.927-7.317 17.66-7.317 8 0 13.27 3.902t7.707 9.854l-8.195 3.415q-3.707-8.976-13.37-8.976-5.951 0-10.54 4.878-4.488 4.878-4.488 12.39t4.488 12.39q4.585 4.878 10.54 4.878 10.05 0 13.85-8.976l8 3.415q-2.439 5.854-7.903 9.854-5.366 3.902-13.37 3.902z"/><path d="m160.4 17.74q-1.951 1.951-4.683 1.951t-4.683-1.951-1.951-4.683 1.951-4.683 4.683-1.951 4.683 1.951 1.951 4.683-1.951 4.683zm0-35.71q-1.951 1.951-4.683 1.951t-4.683-1.951-1.951-4.683 1.951-4.683 4.683-1.951 4.683 1.951 1.951 4.683-1.951 4.683z"/></g></g></svg>
