<svg viewBox="0 0 48 48" xmlns="http://www.w3.org/2000/svg"><defs><linearGradient id="a" x1="-124" x2="-125.2" y1="73.5" y2="-26.05" gradientTransform="matrix(1.035 0 0 1 4.382 0)" gradientUnits="userSpaceOnUse"><stop stop-color="#2e3e46" offset="0"/><stop stop-color="#435a64" offset="1"/></linearGradient></defs><path transform="matrix(.4778 0 0 .4778 84.55 13.1)" d="m-170.5-27.42h87.55c3.577 0 6.458 2.783 6.458 6.241v87.98c0 3.457-2.88 6.241-6.457 6.241h-87.55c-3.577 0-6.457-2.783-6.457-6.241v-87.98c0-3.457 2.88-6.241 6.457-6.241" fill="url(#a)" fill-rule="evenodd"/><path transform="matrix(1.062 0 0 1.062 -143.7 -19.06)" d="m146.51 55.58l9.412-20.706-.951-3.195c-.408-1.074-.781-1.832-1.121-2.274-.34-.442-.741-.777-1.203-1-.449-.227-1.01-.341-1.672-.341-.788 0-1.57.082-2.344.247v-2.521c.924-.215 1.814-.322 2.671-.322 1.237 0 2.263.19 3.078.569.829.379 1.543.979 2.141 1.8.598.822 1.264 2.192 1.998 4.113l7.4 19.18c.258.619.53 1.093.815 1.421.285.316.666.474 1.142.474.367 0 .775-.062 1.223-.19v2.293c-.652.303-1.393.455-2.222.455-1.01 0-1.794-.24-2.365-.72-.557-.48-1.033-1.245-1.427-2.293l-5.28-14.555-7.788 17.569" fill="#fff" fill-opacity=".846"/></svg>
