<svg viewBox="0 0 48 48" xmlns="http://www.w3.org/2000/svg"><defs><linearGradient id="a" x2="0" y1="-15.39" y2="-39.39" gradientUnits="userSpaceOnUse"><stop stop-color="#2c3e50" offset="0"/><stop stop-color="#5b7085" offset="1"/></linearGradient></defs><circle transform="matrix(2 0 0 2 117.6 78.79)" cx="-46.79" cy="-27.39" r="12" enable-background="new" fill="url(#a)"/><path transform="translate(.095.004)" d="m22.99 9.174c-4.03.211-8.225 4.817-6.77 12.11-7.662 4.466-7.356 10.913-4.08 14.1 2.905 2.828 9.113 2.262 12.752-1.582l-1.529-1.131c-8.243 6.307-17.18-1.319-6.584-9.414.385.988 1.04 2.408 2.221 4.502 2.56 3.827 6.156 7.06 10.604 7.936 4.447.879 9.284-1.592 9.543-6.143.259-4.55-3.283-7.07-4.059-7.643-.462-.339-1.622-1.182-3.725-1.832.405-6.476-3.81-11.147-8.373-10.908m.377 1.963c2.877-.056 5.855 2.542 6.166 8.484-1.094-.208-2.366-.351-3.842-.377-3.46-.06-6.067.642-7.67 1.24-1.015-5.836 2.096-9.285 5.346-9.348zm1.189 10.08c1.279-.026 2.797.063 4.559.295-.365 2.581-1.731 6.541-4.584 9.686-3.891-3.223-5.934-8.736-5.934-8.736 0 0 1.712-1.162 5.959-1.244m6.393.797c7.515 2.791 6.766 8.427 5.309 9.953-1.397 1.463-4.717 3.217-9.836.512-.105-.056-.203-.124-.307-.184 3.591-4.234 4.25-7.45 4.834-10.281" fill="#fff" fill-opacity=".85"/></svg>
