<svg viewBox="0 0 48 48" xmlns="http://www.w3.org/2000/svg"><defs><linearGradient id="a" x1="511.3" x2="462.2" y1="549.4" y2="501" gradientUnits="userSpaceOnUse"><stop stop-color="#80256c" offset="0"/><stop stop-color="#4567bd" offset="1"/></linearGradient></defs><g transform="matrix(1.021 0 0 1.021 -474.3 -513.3)"><circle transform="matrix(1.883 0 0 1.883 574.7 579.3)" cx="-46.09" cy="-28.26" r="11.96" enable-background="new" fill="#dcd4e6"/><path d="m487.9 502.6c-12.92 0-23.5 10.57-23.5 23.5 0 12.92 10.57 23.5 23.5 23.5 12.92 0 23.5-10.57 23.5-23.5 0-12.92-10.57-23.5-23.5-23.5m0 44.06c-11.46 0-20.56-9.106-20.56-20.56 0-7.05 3.525-13.51 9.399-17.33-0.294 1.762-0.587 3.819-0.587 5.581 0 14.39 11.75 26.14 26.14 26.44-3.819 3.819-8.812 5.875-14.39 5.875" fill="url(#a)"/></g></svg>
