<svg viewBox="0 0 48 48" xmlns="http://www.w3.org/2000/svg" xmlns:xlink="http://www.w3.org/1999/xlink"><defs><linearGradient id="c" x1="6.966" x2="20.33" y1="38.65" y2="53.3" gradientUnits="userSpaceOnUse"><stop stop-color="#d3d3d3" offset="0"/><stop stop-color="#fcf9f9" offset="1"/></linearGradient><linearGradient id="b" x1=".401" x2=".293" y1="50.64" y2="20.55" gradientUnits="userSpaceOnUse"><stop stop-color="#0173dd" offset="0"/><stop stop-color="#00b1ff" offset="1"/></linearGradient><linearGradient id="d" x1="11.22" x2="10.45" y1="59.39" y2="36.42" gradientUnits="userSpaceOnUse" xlink:href="#a"/><linearGradient id="e" x1="610.7" x2="609.4" y1="499.8" y2="460.1" gradientTransform="matrix(.571 0 0 .5723 -337.6 -226.8)" gradientUnits="userSpaceOnUse" xlink:href="#a"/><linearGradient id="f" x1="16.18" x2="15.59" y1="32.56" y2="7.01" gradientUnits="userSpaceOnUse"><stop stop-color="#fe3f3c" offset="0"/><stop stop-color="#ff8729" offset="1"/></linearGradient><linearGradient id="a"><stop stop-color="#cfd6da" offset="0"/><stop stop-color="#f2f7f9" offset="1"/></linearGradient></defs><g transform="matrix(1 0 0 1 16.7 -8.998)" enable-background="new"><rect transform="matrix(1 -.00628 .00628 1 0 0)" x="-11.23" y="9.428" width="40.36" height="30.99" rx="1.209" fill="url(#f)"/><rect transform="matrix(.9843 -.1764 .1764 .9843 0 0)" x="-20.46" y="19.99" width="40.36" height="30.99" rx="1.209" fill="url(#b)"/><path d="m-11.715 50.67l7.094-3.757 2.663 1.175 5.185-2.909 5.763.833 4.07.131 2.828-1.587 3.545-1.608 6.388 1.185.506 2.959-35.849 6.727c0 0-1.553.587-1.788-.786z" fill="#2c4f68" fill-rule="evenodd"/><circle transform="matrix(.9843 -.1764 .1764 .9843 0 0)" cx="-11.53" cy="28.82" r="3.99" fill-opacity=".579"/><ellipse transform="matrix(.98534-.1706.1698.98548 0 0)" cx="11.34" cy="47.71" rx="10.93" ry="10.95" fill="#42a5f7" stroke="url(#e)" stroke-linecap="round" stroke-linejoin="round" stroke-width="1.143"/><path d="m10.96 52.62 2.983-5.136 3.225 1.373 4.02-6.604 9.61 3.193c-2.855 9.417-11.27 14.61-19.84 7.174" fill="#2c4f68" fill-rule="evenodd"/><g fill="none" stroke-linecap="round" stroke-linejoin="round"><ellipse transform="matrix(.98541-.1702.1702.98541 0 0)" cx="11.34" cy="47.74" rx="10.24" ry="10.15" stroke="url(#c)" stroke-width="1.355"/><circle transform="matrix(.98541-.1702.1702.98541 0 0)" cx="11.4" cy="47.74" r="11.08" stroke="url(#d)" stroke-width="1.158"/></g></g></svg>
