<svg viewBox="0 0 48 48" xmlns="http://www.w3.org/2000/svg"><defs><linearGradient id="a" x2="0" y1="21" y2="-25.29" gradientUnits="userSpaceOnUse"><stop stop-color="#566069" offset="0"/><stop stop-color="#6c7884" offset="1"/></linearGradient></defs><g transform="matrix(1 0 0 1 -38.37 25.88)" enable-background="new"><circle cx="62.37" cy="-1.875" r="24" fill="url(#a)"/><g transform="matrix(1.262 0 0 1.262 -72.49 -82.98)" fill="#fff" fill-opacity=".85"><path d="m106.73 53.19c-.903.004-1.765.082-2.524.218-2.235.399-2.641 1.233-2.641 2.772v2.033h5.282v.678h-5.282-1.982c-1.535 0-2.879.932-3.3 2.704-.485 2.031-.506 3.299 0 5.42.375 1.579 1.272 2.704 2.807 2.704h1.816v-2.437c0-1.76 1.508-3.313 3.3-3.313h5.276c1.469 0 2.641-1.221 2.641-2.71v-5.078c0-1.445-1.207-2.531-2.641-2.772-.907-.153-1.849-.222-2.752-.218"/><path d="m112.82 58.846v2.351c0 1.823-1.545 3.356-3.306 3.356h-5.286c-1.448 0-2.646 1.24-2.646 2.69v5.04c0 1.435 1.247 2.278 2.646 2.69 1.675.493 3.282.582 5.286 0 1.332-.386 2.646-1.162 2.646-2.69v-2.02h-5.286v-.672h5.286 2.646c1.538 0 2.111-1.073 2.646-2.684.553-1.658.529-3.253 0-5.38-.38-1.532-1.106-2.684-2.646-2.684z"/></g></g></svg>
