<svg viewBox="0 0 48 48" xmlns="http://www.w3.org/2000/svg"><defs><linearGradient id="b" x1="54.16" x2="54.19" y1="17.27" y2="-6.418" gradientUnits="userSpaceOnUse"><stop stop-color="#ffcdcd" offset="0"/><stop stop-color="#fff5f5" offset="1"/></linearGradient><linearGradient id="a" x2="0" y1="38" y2="18" gradientUnits="userSpaceOnUse"><stop stop-color="#a00" offset="0"/><stop stop-color="#f55" offset="1"/></linearGradient></defs><g transform="matrix(1.714 0 0 1.714 -69.21 13.51)" enable-background="new"><path d="m44.504-3.19c2.64-2.149 6.145-3.332 9.87-3.332 3.725 0 7.231 1.183 9.87 3.332 2.663 2.167 4.13 5.056 4.13 8.133 0 2.937-1.337 5.702-3.774 7.832.044.099.079.203.101.312l.801 3.939c.095.468-.033.747-.157.899-.143.175-.356.272-.598.272-.183 0-.38-.054-.585-.161l-4.658-2.42c-1.613.519-3.346.791-5.13.791-3.725 0-7.23-1.183-9.871-3.332-2.663-2.167-4.13-5.055-4.13-8.133 0-3.078 1.467-5.966 4.129-8.133" fill="url(#b)"/><path transform="matrix(.5833 0 0 .5833 40.38 -7.875)" d="m12.42 18.4a4 4 0 0 0-4 4 4 4 0 0 0 4 4 4 4 0 0 0 4-4 4 4 0 0 0-4-4m11.62 0a4 4 0 0 0-4 4 4 4 0 0 0 4 4 4 4 0 0 0 4-4 4 4 0 0 0-4-4m11.54 0a4 4 0 0 0-4 4 4 4 0 0 0 4 4 4 4 0 0 0 4-4 4 4 0 0 0-4-4" color-rendering="auto" fill="url(#a)" fill-rule="evenodd" image-rendering="auto" shape-rendering="auto" solid-color="#000000" isolation="auto" mix-blend-mode="normal"/></g></svg>
