<svg viewBox="0 0 48 48" xmlns="http://www.w3.org/2000/svg"><defs><linearGradient id="a" x1="-124" x2="-125.2" y1="73.5" y2="-26.05" gradientTransform="matrix(1.035 0 0 1 4.382 0)" gradientUnits="userSpaceOnUse"><stop stop-color="#1074f5" offset="0"/><stop stop-color="#02befd" offset="1"/></linearGradient></defs><g fill-rule="evenodd"><path transform="matrix(.4778 0 0 .4778 84.55 13.1)" d="m-170.5-27.42h87.55c3.577 0 6.458 2.783 6.458 6.241v87.98c0 3.457-2.88 6.241-6.457 6.241h-87.55c-3.577 0-6.457-2.783-6.457-6.241v-87.98c0-3.457 2.88-6.241 6.457-6.241" fill="url(#a)"/><path d="m8 8c3.93 4.139 2.225 6.788 4.381 11.663 2 4.525 6.357 1.138 9.34 4.337-2.982 3.199-7.353-.203-9.354 4.322-2.156 4.876-.436 7.539-4.366 11.678 4.14-3.93 6.803-2.21 11.678-4.366 4.525-2 1.138-6.357 4.337-9.34 3.176 2.983-.197 7.356 4.322 9.354 4.877 2.157 7.523.42 11.663 4.351-3.931-4.14-2.195-6.787-4.352-11.663-1.999-4.519-6.357-1.161-9.34-4.337 2.983-3.176 7.341.182 9.34-4.337 2.157-4.877.42-7.523 4.352-11.663-4.14 3.931-6.787 2.195-11.663 4.351-4.519 1.999-1.146 6.372-4.322 9.354-3.199-2.982.188-7.338-4.337-9.34-4.876-2.156-7.539-.436-11.678-4.366" fill="#fff" fill-opacity=".85"/></g></svg>
