<svg viewBox="0 0 48 48" xmlns="http://www.w3.org/2000/svg"><defs><linearGradient id="d" x1="400.4" x2="400.6" y1="543.9" y2="533" gradientUnits="userSpaceOnUse"><stop stop-color="#41b99b" offset="0"/><stop stop-color="#59ffd5" offset="1"/></linearGradient><linearGradient id="c" x1="394.5" x2="394.3" y1="535.2" y2="529" gradientUnits="userSpaceOnUse"><stop stop-color="#947ecb" offset="0"/><stop stop-color="#cab5ff" offset="1"/></linearGradient><linearGradient id="b" x2="0" y1="530.8" y2="523.4" gradientUnits="userSpaceOnUse"><stop stop-color="#ec87c0" offset="0"/><stop stop-color="#ffc1e4" offset="1"/></linearGradient><linearGradient id="e" x1="406.5" x2="406.6" y1="534.8" y2="528.6" gradientUnits="userSpaceOnUse"><stop stop-color="#ffbc00" offset="0"/><stop stop-color="#ffec00" offset="1"/></linearGradient><linearGradient id="f" x1="400.6" x2="400.4" y1="530.8" y2="519.9" gradientUnits="userSpaceOnUse"><stop stop-color="#eb4646" offset="0"/><stop stop-color="#ff8651" offset="1"/></linearGradient><linearGradient id="a" x1="405.3" x2="405.2" y1="530.9" y2="523" gradientUnits="userSpaceOnUse"><stop stop-color="#fc6e51" offset="0"/><stop stop-color="#ff937d" offset="1"/></linearGradient><linearGradient id="i" x1="-124" x2="-125.2" y1="73.5" y2="-26.05" gradientTransform="matrix(1.035 0 0 1 4.382 0)" gradientUnits="userSpaceOnUse"><stop stop-color="#dce2ff" offset="0"/><stop stop-color="#f8feff" offset="1"/></linearGradient><linearGradient id="g" x1="405.2" x2="404.2" y1="540.4" y2="533" gradientUnits="userSpaceOnUse"><stop stop-color="#4fd127" offset="0"/><stop stop-color="#c6f61a" offset="1"/></linearGradient><linearGradient id="h" x2="0" y1="541.2" y2="533.1" gradientUnits="userSpaceOnUse"><stop stop-color="#0976da" offset="0"/><stop stop-color="#5de5f0" offset="1"/></linearGradient></defs><g fill-rule="evenodd"><path transform="matrix(.4778 0 0 .4778 84.55 13.1)" d="m-170.5-27.42h87.55c3.577 0 6.458 2.783 6.458 6.241v87.98c0 3.457-2.88 6.241-6.457 6.241h-87.55c-3.577 0-6.457-2.783-6.457-6.241v-87.98c0-3.457 2.88-6.241 6.457-6.241" fill="url(#i)"/><g transform="matrix(1.499 0 0 1.499 -576.4 -773.1)"><path d="m400.4 543.9c4.644-3.427 5.21-7.04 0.165-10.91-5.898 4.307-3.738 7.688-0.165 10.91" fill="url(#d)"/><path d="m400.4 519.9c4.644 3.427 5.21 7.04 0.165 10.91-5.898-4.307-3.738-7.688-0.165-10.91" fill="url(#f)"/><path d="m412.7 531.7c-3.427 4.644-7.04 5.21-10.91 0.165 4.307-5.898 7.688-3.738 10.91-0.165" fill="url(#e)"/><path d="m388.6 531.8c3.427 4.644 7.04 5.21 10.91 0.165-4.307-5.898-7.688-3.738-10.91-0.165" fill="url(#c)"/><path d="m400 531.1c-5.758 0.399-8.529-1.987-7.191-8.2 7.283-0.54 7.828 3.434 7.191 8.2" fill="url(#b)"/><path d="m392.66 540.9c5.758.399 8.529-1.987 7.191-8.2-7.283-.54-7.828 3.434-7.191 8.2" fill="url(#h)"/><path d="m401.41 531.18c5.758.399 8.529-1.987 7.191-8.2-7.283-.54-7.828 3.434-7.191 8.2" fill="url(#a)"/><path d="m408.73 540.92c-5.758.399-8.529-1.987-7.191-8.2 7.283-.54 7.828 3.434 7.191 8.2" fill="url(#g)"/></g></g></svg>
