<svg viewBox="0 0 48 48" xmlns="http://www.w3.org/2000/svg"><defs><linearGradient id="a" x1="-124" x2="-125.2" y1="73.5" y2="-26.05" gradientTransform="matrix(1.035 0 0 1 4.382 0)" gradientUnits="userSpaceOnUse"><stop stop-color="#4469b9" offset="0"/><stop stop-color="#5d91ff" offset="1"/></linearGradient></defs><path transform="matrix(.4778 0 0 .4778 84.55 13.1)" d="m-170.5-27.42h87.55c3.577 0 6.458 2.783 6.458 6.241v87.98c0 3.457-2.88 6.241-6.457 6.241h-87.55c-3.577 0-6.457-2.783-6.457-6.241v-87.98c0-3.457 2.88-6.241 6.457-6.241" fill="url(#a)" fill-rule="evenodd"/><path d="m32.89 48h-8.72v-18.82h-4.69v-7.645h4.69v-4.04c0-5.955 2.46-9.495 9.45-9.495h5.82v7.3h-3.638c-2.721 0-2.901 1.019-2.901 2.923l-0.011 3.307h6.59l-0.771 7.645h-5.819z" fill="#e4ebf9"/></svg>
