<svg viewBox="0 0 48 48" xmlns="http://www.w3.org/2000/svg"><defs><linearGradient id="a" x2="0" y1="32.37" y2="-16.43" gradientUnits="userSpaceOnUse"><stop stop-color="#c52828" offset="0"/><stop stop-color="#ff5454" offset="1"/></linearGradient></defs><g transform="matrix(1 0 0 1 51.63 15.88)" enable-background="new"><circle cx="-27.62" cy="8.125" r="24" fill="url(#a)"/><g fill="#fff" fill-opacity=".846"><g transform="matrix(.6994 -.7147 .7147 .6994 0 0)"><path d="m-28.46-30.52h7.818v2.773h-7.818z"/><path d="m-28.46-25.46h7.818v2.773h-7.818z"/></g><path d="m-27.72 1.503c-3.219 0-5.862 2.602-5.862 5.771s2.643 5.766 5.862 5.766 5.857-2.597 5.857-5.766-2.638-5.771-5.857-5.771m0 2.821c1.671 0 2.997 1.305 2.997 2.95s-1.326 2.945-2.997 2.945-2.997-1.3-2.997-2.945 1.326-2.95 2.997-2.95"/><path transform="matrix(.7048 .7094 -.7094 .7048 0 0)" d="m-17.94 8.22h7.01v8.584h-7.01z"/><path d="m-31.72 15.35h7.818v2.773h-7.818z"/><path d="m-31.72 20.41h7.818v2.773h-7.818z"/></g></g></svg>
