<svg viewBox="0 0 48 48" xmlns="http://www.w3.org/2000/svg"><defs><linearGradient id="c" x1="249.9" x2="250" y1="-1.192" y2="-30.34" gradientUnits="userSpaceOnUse"><stop stop-color="#a0d5ff" offset="0"/><stop stop-color="#edf7f7" offset="1"/></linearGradient><linearGradient id="b" x1="409.6" x2="409.8" y1="544.8" y2="504.7" gradientTransform="matrix(1.048 0 0 .9982 44.42 7.936)" gradientUnits="userSpaceOnUse"><stop stop-color="#197cf1" offset="0"/><stop stop-color="#20bcfa" offset="1"/></linearGradient><linearGradient id="a" x1="409.6" x2="409.8" y1="544.8" y2="504.7" gradientTransform="matrix(1.091 0 0 1.039 -37.15 -17.74)" gradientUnits="userSpaceOnUse"><stop stop-color="#a0d5ff" offset="0"/><stop stop-color="#fff" offset="1"/></linearGradient></defs><g transform="translate(-384.57-499.8)"><g transform="matrix(1.041 0 0 1.041 -83.39 -26)"><path transform="matrix(.4139 0 0 .4166 367 519.7)" d="m204.25-29.481c-1.108 0-2 .892-2 2v81.61l104.06.24v-70.04c0-1.108-.892-2-2-2h-48.601c-2.039.18-2.301-.09-3.308-1.435-1.429-1.912-3.586-7.06-4.992-8.929-1.129-1.633-1.312-1.443-3.184-1.443z" fill="url(#c)"/><rect x="449.5" y="514.8" width="46.1" height="33.94" rx="1.597" fill="url(#b)"/></g><path d="m409.1 510h21.8c0.921 0 1.663 0.742 1.663 1.663v32.01c0 0.921-0.742 1.663-1.663 1.663h-18.76c-1.969-5.614-2.062-10.95-1.09-16.12h-6.94c-0.196-6.489 1.954-12.87 4.984-19.22" fill="url(#a)" opacity=".85"/></g></svg>
