<svg viewBox="0 0 48 48" xmlns="http://www.w3.org/2000/svg"><defs><linearGradient id="a" x1="-124" x2="-125.2" y1="73.5" y2="-26.05" gradientTransform="matrix(.4943 0 0 .4778 86.64 13.1)" gradientUnits="userSpaceOnUse"><stop stop-color="#c52828" offset="0"/><stop stop-color="#ff5454" offset="1"/></linearGradient></defs><rect width="48" height="48" rx="2.982" fill="url(#a)" fill-rule="evenodd"/><path transform="matrix(.399 0 0 .4023 8.132 8)" d="m54.88 44.3c0-1.211 5.193-17.29-4.914-22.15-11.64-5.604-14.87-10.07-14.77-17.23-1e-3 0.293-7.04 11.63-2.465 17.23 7.115 8.67 4.109 15.38 0 14.77-6.9-1.033-6.07-10.04-4.917-12.31-3.609-0.383-7.783 1.861-9.852 4.919-6.208 9.228 7.25 18.05 2.465 24.61-3.643 4.997-9.862-4.842-9.841-4.919-7.391 38.57 46.27 39.55 49.23 7.384 0.88-9.646 9.563-14.89 9.839-14.77-9.25-4.274-14.77 2.763-14.77 2.458m-9.834-32c-1.506-1.615-2.464-3.557-2.464-4.924 0-2.561 2.092-5.02 4.924-7.381 0.285 2.053-1.228 5.126 0 7.381 0.953 1.67 2.465 3.557 2.465 4.924 0 1.831-0.684 3.5-2.465 4.922-0.27-0.684-0.74-2.934-2.46-4.922" fill="#fae1e1"/></svg>
