<svg viewBox="0 0 48 48" xmlns="http://www.w3.org/2000/svg"><defs><clipPath id="a"><path transform="matrix(15.33 0 0 11.5 415 -125.5)" d="m-24 13c0 1.105-0.672 2-1.5 2s-1.5-0.895-1.5-2 0.672-2 1.5-2 1.5 0.895 1.5 2" fill="#1890d0"/></clipPath><linearGradient id="b" x1="-124" x2="-125.2" y1="73.5" y2="-26.05" gradientTransform="matrix(.4943 0 0 .4778 86.64 13.1)" gradientUnits="userSpaceOnUse"><stop stop-color="#f15400" offset="0"/><stop stop-color="#fa8c00" offset="1"/></linearGradient></defs><rect width="48" height="48" rx="2.982" fill="url(#b)" fill-rule="evenodd"/><g transform="matrix(1.281 0 0 1.285 -6.755 -7.488)" fill-opacity=".662"><g clip-path="url(#a)" fill-opacity=".662"><g fill-opacity=".662"><path d="m36 14.33c0 1.262-1.02 2.281-2.281 2.281-1.258 0-2.281-1.02-2.281-2.281 0-1.262 1.023-2.281 2.281-2.281 1.262 0 2.281 1.02 2.281 2.281"/><path d="m31.22 15.77c0 1.262-1.02 2.281-2.281 2.281-1.258 0-2.281-1.02-2.281-2.281 0-1.262 1.023-2.281 2.281-2.281 1.262 0 2.281 1.02 2.281 2.281"/><path d="m27.37 19.14c0 1.262-1.02 2.281-2.281 2.281-1.258 0-2.281-1.02-2.281-2.281 0-1.262 1.023-2.281 2.281-2.281 1.262 0 2.281 1.02 2.281 2.281"/><path d="m25.86 24.25c0 1.258-1.023 2.281-2.281 2.281-1.262 0-2.281-1.023-2.281-2.281 0-1.262 1.02-2.285 2.281-2.285 1.258 0 2.281 1.023 2.281 2.285"/><path d="m25 29.55c0 1.262-1.023 2.285-2.281 2.285-1.262 0-2.281-1.023-2.281-2.285 0-1.258 1.02-2.281 2.281-2.281 1.258 0 2.281 1.023 2.281 2.281"/><path d="m21.76 33.7c0 1.262-1.023 2.281-2.281 2.281s-2.281-1.02-2.281-2.281c0-1.262 1.023-2.281 2.281-2.281s2.281 1.02 2.281 2.281"/><path d="m16.56 34.67c0 1.262-1.023 2.281-2.281 2.281-1.262 0-2.281-1.02-2.281-2.281 0-1.262 1.02-2.281 2.281-2.281 1.258 0 2.281 1.02 2.281 2.281"/><path d="m20.73 24.36c0 1.262-1.02 2.285-2.277 2.285-1.262 0-2.281-1.023-2.281-2.285 0-1.258 1.02-2.281 2.281-2.281 1.258 0 2.277 1.023 2.277 2.281"/><path d="m31.28 24.26c0 1.262-1.023 2.281-2.281 2.281s-2.281-1.02-2.281-2.281c0-1.262 1.023-2.281 2.281-2.281s2.281 1.02 2.281 2.281"/></g></g></g></svg>
