<svg viewBox="0 0 48 48" xmlns="http://www.w3.org/2000/svg" xmlns:xlink="http://www.w3.org/1999/xlink"><defs><linearGradient id="c" x1="-34.51" x2="-35.09" y1="-8.02" y2="-32.8" gradientUnits="userSpaceOnUse" xlink:href="#a"/><linearGradient id="f" x2="0" y1="-.413" y2="-3.765" gradientUnits="userSpaceOnUse" xlink:href="#a"/><linearGradient id="d" x1="-42.34" x2="-42.45" y1="1.559" y2="-27.63" gradientUnits="userSpaceOnUse" xlink:href="#b"/><linearGradient id="e" x1="24.41" x2="24.27" y1="-4.811" y2="-7.02" gradientUnits="userSpaceOnUse" xlink:href="#a"/><linearGradient id="g" x1="391.6" x2="390.9" y1="531.8" y2="507.7" gradientTransform="matrix(.7009 0 0 .8642 -251.2 -444.5)" gradientUnits="userSpaceOnUse"><stop stop-color="#d3d3d3" offset="0"/><stop stop-color="#fcf9f9" offset="1"/></linearGradient><linearGradient id="j" x1="35.61" x2="35.32" y1="14.95" y2="-3.499" gradientUnits="userSpaceOnUse" xlink:href="#b"/><linearGradient id="h" x1="36.26" x2="35.64" y1="15.98" y2="-6.51" gradientUnits="userSpaceOnUse" xlink:href="#a"/><linearGradient id="b"><stop stop-color="#197ff1" offset="0"/><stop stop-color="#21c6fb" offset="1"/></linearGradient><linearGradient id="a"><stop stop-color="#222c35" offset="0"/><stop stop-color="#545e67" offset="1"/></linearGradient><linearGradient id="i" x1="29.43" x2="43.63" y1="-2.02" y2="12.18" gradientUnits="userSpaceOnUse" xlink:href="#a"/></defs><g transform="matrix(1 0 0 1 -18.37 30.88)" enable-background="new"><rect transform="matrix(-1 -.00628 -.00628 1 0 0)" x="-61.1" y="-30.46" width="39.15" height="30.06" rx="1.172" fill="url(#c)"/><rect transform="matrix(-.9843 -.1764 -.1764 .9843 0 0)" x="-62.57" y="-28.18" width="39.15" height="30.06" rx="1.172" fill="url(#d)"/><rect x="21.82" y="-6.752" width="3.882" height="1.941" rx=".647" fill="url(#e)"/><rect x="18.38" y="-5.674" width="33.64" height="20.74" rx=".971" fill="url(#g)"/><path d="m24.43 4.771a11.79 11.79 0 0 1 11.79-11.79 11.79 11.79 0 0 1 11.79 11.79 11.79 11.79 0 0 1-11.79 11.79 11.79 11.79 0 0 1-11.79-11.79" fill="url(#h)"/><circle cx="36.22" cy="4.771" r="9.263" fill="url(#i)"/><circle cx="36.22" cy="4.771" r="8.421" fill="url(#j)"/><circle cx="22.14" cy="-2.089" r="1.676" fill="url(#f)" fill-rule="evenodd"/></g></svg>
