<svg viewBox="0 0 48 48" xmlns="http://www.w3.org/2000/svg"><defs><clipPath id="b"><path transform="matrix(15.33 0 0 11.5 415 -125.5)" d="m-24 13c0 1.105-0.672 2-1.5 2s-1.5-0.895-1.5-2 0.672-2 1.5-2 1.5 0.895 1.5 2" fill="#1890d0"/></clipPath><linearGradient id="c" x1="11.94" x2="10.72" y1="216.1" y2="116.5" gradientUnits="userSpaceOnUse"><stop stop-color="#222c35" offset="0"/><stop stop-color="#545e67" offset="1"/></linearGradient><linearGradient id="a" x2="0" y1="24.54" y2=".457" gradientUnits="userSpaceOnUse"><stop stop-color="#0c7eed" offset="0"/><stop stop-color="#0bb6ff" offset="1"/></linearGradient></defs><g transform="translate(-384.57-499.8)"><rect transform="matrix(.4778 0 0 .4778 404.2 444.8)" x="-39.36" y="115.2" width="97.1" height="100.5" rx="6.241" fill="url(#c)" fill-rule="evenodd"/><g transform="matrix(1.417 0 0 1.417 374.6 484.8)" clip-path="url(#b)"><path transform="matrix(.7059 0 0 .7059 92.73 18.68)" d="m-107.3 0.457-7.082 7.084 7.082 7.082 7.084-7.082-7.084-7.084m19.83 0-7.084 7.084 7.084 7.082 7.084-7.082-7.084-7.084m-9.916 9.916-7.084 7.084 7.084 7.084 7.082-7.084-7.082-7.084" fill="url(#a)"/></g></g></svg>
