<svg viewBox="0 0 48 48" xmlns="http://www.w3.org/2000/svg"><defs><linearGradient id="a" x1="400.5" x2="400.7" y1="546.1" y2="517.8" gradientUnits="userSpaceOnUse"><stop stop-color="#ff9300" offset="0"/><stop stop-color="#ffd702" offset="1"/></linearGradient></defs><g transform="translate(-384.57-499.8)"><g transform="matrix(1.714 0 0 1.714 -278.1 -387.9)"><circle cx="400.6" cy="531.8" r="14" fill="url(#a)"/><circle cx="400.6" cy="531.8" r="14" fill="#5ea5fb" fill-opacity="0"/></g><path transform="matrix(1.133 0 0 1.133 381.4 496.6)" d="m24 9c-.19 0-.335.064-.436.199l-3.02 4.156-4.887-1.578c-.156-.068-.321-.044-.488.068-.145.111-.221.254-.221.434v5.127l-4.887 1.607c-.179.056-.293.168-.338.336-.056.179-.032.343.068.488l3.01 4.15-3.01 4.156c-.101.134-.124.298-.068.488.045.167.159.277.338.332l4.887 1.605v5.127c0 .178.076.323.221.436.168.11.332.134.488.066l4.889-1.572 3.02 4.15c.112.145.255.221.434.221.179 0 .322-.076.434-.221l3.02-4.15 4.889 1.572c.156.068.321.046.488-.066.145-.111.215-.258.215-.436v-5.127l4.893-1.605c.179-.056.293-.165.338-.332.056-.19.032-.356-.068-.488l-3.01-4.156 3.01-4.15c.1-.145.124-.308.068-.488-.045-.167-.159-.281-.338-.336l-4.893-1.607v-5.127c0-.179-.069-.321-.215-.434-.167-.11-.332-.136-.488-.068l-4.889 1.578-3.02-4.156c-.101-.135-.244-.199-.434-.199m0 5.342c1.306 0 2.557.253 3.746.762 1.189.508 2.215 1.195 3.08 2.061.865.866 1.552 1.897 2.061 3.086.508 1.189.762 2.434.762 3.74 0 1.306-.254 2.555-.762 3.744-.508 1.189-1.195 2.216-2.061 3.082-.866.865-1.891 1.553-3.08 2.061-1.189.508-2.44.762-3.746.762-1.307 0-2.557-.254-3.746-.762-1.189-.508-2.215-1.195-3.08-2.061-.865-.866-1.552-1.893-2.061-3.082-.508-1.189-.762-2.437-.762-3.744 0-1.306.254-2.551.762-3.74.508-1.189 1.195-2.22 2.061-3.086.866-.865 1.891-1.553 3.08-2.061 1.189-.508 2.44-.762 3.746-.762m-3.658 4.443c-.921 0-1.664.745-1.664 1.666 0 .922.743 1.668 1.664 1.668.921 0 1.67-.746 1.67-1.668 0-.921-.749-1.666-1.67-1.666zm7.564 0c-.921 0-1.666.745-1.666 1.666 0 .922.746 1.668 1.666 1.668.921 0 1.67-.746 1.67-1.668 0-.921-.749-1.666-1.67-1.666m-9.352 7.363v.002c-.103 0-.206.014-.307.057-.412.171-.607.643-.436 1.055.998 2.402 3.43 3.955 6.201 3.955 2.713 0 5.134-1.545 6.168-3.936.177-.409-.001-.881-.42-1.059-.409-.177-.884.009-1.061.418-.778 1.799-2.619 2.965-4.688 2.965-2.116 0-3.964-1.167-4.711-2.965-.129-.311-.432-.492-.748-.492" fill-opacity=".545" fill-rule="evenodd"/></g></svg>
