<svg viewBox="0 0 48 48" xmlns="http://www.w3.org/2000/svg"><defs><linearGradient id="a" x1="23.69" x2="24.3" y1="264.7" y2="154.7" gradientTransform="matrix(.43553-.00032.00033.41517 51.921-88.24)" gradientUnits="userSpaceOnUse"><stop stop-color="#c52828" offset="0"/><stop stop-color="#ff5454" offset="1"/></linearGradient><linearGradient id="b" x1="23.69" x2="24.3" y1="264.7" y2="154.7" gradientTransform="matrix(.43553-.00032.00033.41517 51.921-88.24)" gradientUnits="userSpaceOnUse"><stop stop-color="#ffbc00" offset="0"/><stop stop-color="#ffec00" offset="1"/></linearGradient><linearGradient id="d" x1=".967" x2="3.419" y1="204.6" y2="147.6" gradientTransform="matrix(.43553-.00032.00033.41517 52.03-88.13)" gradientUnits="userSpaceOnUse"><stop stop-color="#4fd127" offset="0"/><stop stop-color="#c6f61a" offset="1"/></linearGradient><linearGradient id="c" x1="23.69" x2="26.18" y1="264.7" y2="157.5" gradientTransform="matrix(.43553-.00032.00033.41517 51.921-88.24)" gradientUnits="userSpaceOnUse"><stop stop-color="#0976da" offset="0"/><stop stop-color="#5de5f0" offset="1"/></linearGradient></defs><g transform="matrix(.2266 0 0 .2266 -51.8 16.96)" enable-background="new"><g transform="matrix(4.414 0 0 4.414 59.28 39.36)"><g fill-rule="evenodd"><path d="m41.72-25.87h20.8v24.06h-24.11v-20.96c0-3.332 3.134-3.103 3.309-3.103" fill="url(#d)"/><path d="m41.61 22.12h20.8v-24.06h-24.11v20.96c0 3.332 3.134 3.103 3.309 3.103" fill="url(#b)"/><path d="m83.14-25.87h-20.8v24.06h24.11v-20.96c0-3.332-3.134-3.103-3.309-3.103" fill="url(#a)"/><path d="m83.09 22.12h-20.8v-24.06h24.11v20.96c0 3.332-3.134 3.103-3.309 3.103" fill="url(#c)"/></g><path transform="matrix(.7864 0 0 .784 -259.7 -443.3)" d="m401.9 543.6c-0.422-0.413-0.932-0.619-1.528-0.619h-1.892l-0.431-1.122c-0.107-0.27-0.303-0.502-0.587-0.697s-0.576-0.293-0.874-0.293h-4.324c-0.298 0-0.59 0.098-0.874 0.293s-0.48 0.428-0.587 0.697l-0.431 1.122h-1.892c-0.597 0-1.106 0.206-1.529 0.619-0.422 0.413-0.633 0.911-0.633 1.494v7.395c0 0.583 0.211 1.081 0.633 1.494s0.932 0.619 1.529 0.619h11.89c0.597 0 1.106-0.206 1.528-0.619s0.633-0.911 0.633-1.494v-7.395c0-0.583-0.211-1.081-0.633-1.494m-4.801 7.804c-0.74 0.724-1.631 1.085-2.673 1.085s-1.932-0.362-2.673-1.085c-0.74-0.724-1.111-1.594-1.111-2.612s0.37-1.889 1.111-2.612c0.74-0.724 1.631-1.085 2.673-1.085s1.932 0.362 2.673 1.085c0.74 0.724 1.111 1.594 1.111 2.612s-0.37 1.889-1.111 2.612m-2.673-4.989c-0.67 0-1.243 0.232-1.719 0.697s-0.714 1.025-0.714 1.68 0.238 1.215 0.714 1.68 1.049 0.697 1.719 0.697 1.243-0.232 1.719-0.697 0.714-1.025 0.714-1.68-0.238-1.215-0.714-1.68-1.049-0.697-1.719-0.697" fill="#fff" fill-opacity=".846"/></g><g transform="matrix(1.086 0 0 1.086 360 -49.38)" fill="#fff" fill-opacity=".846" stroke-opacity=".8"><path d="m15.271 12.384c.116.064.222.152.308.264l8.286 10.84c.172-.058.34-.123.52-.162v-4.01c0-.553.447-1 1-1 .553 0 1 .447 1 1v4.01c.306.065.6.159.88.28l8.263-11.396c.038-.225.069-.452.098-.687.144-1.226-.577-3.75-2.885-5.481-.938-.577-6.49-3.966-7.356-4.976-.865 1.01-6.418 4.399-7.356 4.976-2.308 1.731-3.03 4.255-2.885 5.481.035.296.074.578.127.86"/><path d="m7.582 32.751l13.09-4.411c-.001-.126-.038-.246-.038-.374 0-.163.032-.318.048-.477l-3.837-1.246c-.525-.171-.813-.734-.643-1.26.17-.526.736-.812 1.26-.643l3.835 1.245c.231-.394.507-.755.837-1.066l-8.146-10.657c-.088-.116-.144-.245-.175-.378-.229-.122-.461-.236-.706-.348-1.121-.516-3.745-.61-6.104 1.05-.838.713-5.778 4.947-7 5.458.693 1.135 2.2 7.464 2.459 8.533.933 2.73 3.111 4.195 4.321 4.437.273.055.537.101.802.137"/><path d="m21.11 35.555c-.195.271-.5.412-.81.412-.204 0-.409-.062-.587-.191-.446-.323-.546-.948-.221-1.396l2.369-3.26c-.236-.263-.437-.552-.61-.863l-13.255 4.466c-.104.106-.206.215-.31.328-.837.907-1.738 3.373-.888 6.129.419 1.018 2.92 7.02 3.03 8.35 1.294-.309 7.778.214 8.876.298 2.884-.044 4.951-1.662 5.555-2.738.125-.223.24-.44.349-.661v-13.79c-.396-.066-.776-.175-1.133-.332l-2.361 3.248"/><path d="m42.912 34.421l-13.236-4.45c-.197.422-.457.805-.764 1.147l2.369 3.261c.325.447.227 1.072-.221 1.396-.178.129-.383.19-.588.19-.31 0-.613-.144-.81-.412l-2.362-3.251c-.223.1-.459.17-.7.234v13.984c.079.151.16.303.247.457.604 1.076 2.671 2.694 5.555 2.738 1.097-.084 7.582-.605 8.876-.298.105-1.326 2.607-7.332 3.02-8.349.851-2.758-.049-5.223-.888-6.131-.165-.178-.332-.349-.503-.516"/><path d="m43.892 14.01c-2.358-1.66-4.982-1.566-6.104-1.05-.177.082-.348.165-.516.25l-8.389 11.569c.226.247.42.517.588.806l3.836-1.246c.522-.171 1.088.117 1.26.643.171.524-.117 1.089-.643 1.26l-3.838 1.247c.016.159.049.312.049.476 0 .016-.006.031-.006.047l13.455 4.524c.176-.029.352-.06.531-.097 1.211-.242 3.389-1.707 4.32-4.438.26-1.07 1.767-7.398 2.46-8.533-1.225-.511-6.164-4.745-7-5.458"/><path d="m28.03 28.684c.006-.021.014-.039.019-.061.053-.212.088-.43.088-.658 0-.906-.444-1.703-1.121-2.205-.018-.013-.032-.028-.049-.04-.449-.316-.991-.505-1.58-.505-.067 0-.13.015-.195.02-.462.033-.892.174-1.263.408-.018.011-.039.019-.056.031-.19.126-.357.279-.51.447-.445.489-.724 1.132-.724 1.845 0 .251.045.489.108.72.006.021.013.041.019.062.339 1.135 1.38 1.969 2.623 1.969.022 0 .043-.006.065-.007.022 0 .042-.005.064-.006 1.207-.057 2.204-.893 2.512-2.02"/></g><g fill="#fff" fill-opacity=".846"><path transform="matrix(.1302 0 0 .1302 255.1 57.43)" d="m36.01 406.8h334.8c14.26 0 25.92-11.66 25.92-25.91v-355c0-14.22-11.67-25.91-25.92-25.91h-334.8c-14.29 0-25.94 11.69-25.94 25.91v355c0 14.25 11.65 25.91 25.94 25.91m297.5-375.1c0-4.3 3.52-7.771 7.779-7.771h24.3c4.292 0 7.763 3.471 7.763 7.771v25.03c0 4.3-3.471 7.771-7.763 7.771h-24.3c-4.259 0-7.779-3.463-7.779-7.771v-25.03m0 63.67c0-4.3 3.52-7.779 7.779-7.779h24.3c4.292 0 7.763 3.479 7.763 7.779v25.03c0 4.292-3.471 7.795-7.763 7.795h-24.3c-4.259 0-7.779-3.503-7.779-7.795v-25.03m0 63.72c0-4.292 3.52-7.795 7.779-7.795h24.3c4.292 0 7.763 3.503 7.763 7.795v25.04c0 4.259-3.471 7.763-7.763 7.763h-24.3c-4.259 0-7.779-3.503-7.779-7.763v-25.04m0 63.67c0-4.3 3.52-7.795 7.779-7.795h24.3c4.292 0 7.763 3.495 7.763 7.795v25.04c0 4.292-3.471 7.771-7.763 7.771h-24.3c-4.259 0-7.779-3.479-7.779-7.771v-25.04m0 63.67c0-4.3 3.52-7.771 7.779-7.771h24.3c4.292 0 7.763 3.463 7.763 7.771v25.05c0 4.276-3.471 7.755-7.763 7.755h-24.3c-4.259 0-7.779-3.479-7.779-7.755v-25.05m0 63.67c0-4.276 3.52-7.771 7.779-7.771h24.3c4.292 0 7.763 3.495 7.763 7.771v25.08c0 4.243-3.471 7.755-7.763 7.755h-24.3c-4.259 0-7.779-3.503-7.779-7.755v-25.08m-233.5-299.6c0-4.3 3.503-7.771 7.795-7.771h191.3c4.268 0 7.763 3.471 7.763 7.771v123.9c0 4.259-3.495 7.795-7.763 7.795h-191.3c-4.292 0-7.795-3.536-7.795-7.795-1e-4 0-1e-4 -123.9-1e-4 -123.9m0 191.1c0-4.268 3.503-7.747 7.795-7.747h191.3c4.268 0 7.763 3.479 7.763 7.747v114.6c0 4.276-3.495 7.771-7.763 7.771h-191.3c-4.292 0-7.795-3.495-7.795-7.771-1e-4 0-1e-4 -114.6-1e-4 -114.6m-66.52-209.9c0-4.3 3.495-7.771 7.779-7.771h24.31c4.268 0 7.755 3.471 7.755 7.771v25.03c0 4.3-3.487 7.771-7.755 7.771h-24.31c-4.284 0-7.779-3.463-7.779-7.771v-25.03m0 63.67c0-4.3 3.495-7.779 7.779-7.779h24.31c4.268 0 7.755 3.479 7.755 7.779v25.03c0 4.292-3.487 7.795-7.755 7.795h-24.31c-4.284 0-7.779-3.503-7.779-7.795v-25.03m0 63.72c0-4.292 3.495-7.795 7.779-7.795h24.31c4.268 0 7.755 3.503 7.755 7.795v25.04c0 4.259-3.487 7.763-7.755 7.763h-24.31c-4.284 0-7.779-3.503-7.779-7.763v-25.04m0 63.67c0-4.3 3.495-7.795 7.779-7.795h24.31c4.268 0 7.755 3.495 7.755 7.795v25.04c0 4.292-3.487 7.771-7.755 7.771h-24.31c-4.284 0-7.779-3.479-7.779-7.771v-25.04m0 63.67c0-4.3 3.495-7.771 7.779-7.771h24.31c4.268 0 7.755 3.463 7.755 7.771v25.05c0 4.276-3.487 7.755-7.755 7.755h-24.31c-4.284 0-7.779-3.479-7.779-7.755v-25.05m0 63.67c0-4.276 3.495-7.771 7.779-7.771h24.31c4.268 0 7.755 3.495 7.755 7.771v25.08c0 4.243-3.487 7.755-7.755 7.755h-24.31c-4.284 0-7.779-3.503-7.779-7.755v-25.08" stroke-opacity=".8"/><path d="m405.28 65.55c-3.138-4.656-8.768-7.358-16.72-8.03l-.013-.0001c-.586-.066-1.149-.1-1.673-.1-4.01 0-5.432 2.01-5.432 3.725v29.91c-1.577-.475-3.268-.612-4.939-.401-2.911.367-5.518 1.734-7.343 3.848-1.824 2.114-2.647 4.723-2.316 7.345.614 4.869 5.171 8.54 10.599 8.54.51 0 1.027-.033 1.537-.097 5.627-.71 9.711-5.173 9.711-10.612v-29.349c.422-.028.846-.043 1.258-.043 4.961 0 9.522 2.075 13.191 6 1.512 1.619 2.574 3.228 3.198 4.294.153.261.452.401.752.347.298-.053.533-.286.587-.584.602-3.304 1.091-9.62-2.397-14.795" stroke-width="1.317"/></g></g></svg>
