<svg viewBox="0 0 48 48" xmlns="http://www.w3.org/2000/svg"><defs><linearGradient id="c" x1="209.6" x2="202.6" y1="385.2" y2=".063" gradientUnits="userSpaceOnUse"><stop stop-color="#8645a3" offset="0"/><stop stop-color="#d164ff" offset="1"/></linearGradient><linearGradient id="a" x1="70.34" x2="69.5" y1="81.7" y2="16.72" gradientUnits="userSpaceOnUse"><stop stop-color="#b6b9bf" offset="0"/><stop stop-color="#dddfe2" offset="1"/></linearGradient><linearGradient id="b" x2="0" y1="545.1" y2="518.1" gradientUnits="userSpaceOnUse"><stop stop-color="#ec396c" offset="0"/><stop stop-color="#ff709a" offset="1"/></linearGradient></defs><g transform="matrix(.979 0 0 .979 -312.1 -485.1)"><g transform="matrix(.9031 0 0 .9031 33.08 50.79)"><circle transform="matrix(1.519 0 0 1.519 -265.2 -282.6)" cx="400.6" cy="531.8" r="14" fill="url(#b)"/><path transform="matrix(.5443 0 0 .5443 303.2 484.8)" d="m76.13 102.4c-7.997-2.877-12.75-6.408-17.96-14.29-1.278-2.171-3.628-7.02-3.539-13.34-0.208-6.305 2.978-13.57 8.924-17.45 5.742-4.092 13.15-4.153 17.56-2.537 4.547 1.688 6.391 4.5 6.443 4.366-0.139 0.035 2.436 2.201 3.584 6.916 1.279 4.532-0.02 12.04-6.271 15.12-2.875 1.541-6.609 1.82-9.537 0.718-2.928-1.181-5.05-3.774-5.761-6.483-1.543-5.981 2.995-9.296 4.997-9.636 8.145-2.716 12.27 10.03 2.744 11.11 4.342 1.45 8.818-3.01 7.967-7.545-0.172-4.54-5.668-9.05-11.73-7.199-1.583 0.437-3.98 1.548-5.856 4.047-1.924 2.484-2.797 6.377-1.797 10.16 0.975 3.805 3.94 7.447 8.07 9.08 4.172 1.539 8.817 1.099 12.65-0.897 8.189-4.051 9.828-13.92 8.201-19.35-1.436-5.837-4.607-8.51-4.443-8.551-0.059 0.159-2.34-3.309-7.977-5.414-5.512-2.01-14.11-1.868-20.99 2.957-7.04 4.516-10.86 13.39-10.58 20.54-0.095 7.263 2.612 12.82 4.089 15.29 5.954 9.08 12.78 11.92 21.2 12.37" fill="#fff" fill-opacity=".85"/></g><g transform="matrix(.9148 0 0 .9148 -60.44 49.47)"><flowRoot transform="translate(389.6 520.8)" font-family="sans-serif" font-size="10" letter-spacing="0" word-spacing="0" line-height="125%"><flowRegion><path d="m22 3h27v15h-27z"/></flowRegion><flowPara>Plasm</flowPara></flowRoot><g transform="matrix(.3664 0 0 .3662 415.4 482.4)"><g transform="matrix(.01622 0 0 .01399-5.336 84.11)" fill="#a0a3a8" fill-rule="evenodd"><path d="m3002-2197 39.3-129.2c14.14-55.57 27.61-44.32 83.78-44.32h1024l205.7 238.2-1283 10.12c-84.77 1.047-98.71 20.46-69.7-74.87"/><path d="m6383-2186-34.28-112.6c-15.67-76.79-25.93-72.15-99.06-72.15h-1017l-205.7 238.2 1275 10.06c77.25-3.188 109.9 30.23 81.37-63.5"/><path d="m3964-4808 34.55-106.6c15.67-76.79 25.93-72.15 99.06-72.15l1017 0.036 205.7 238.2h-1318c-61.59 3.127-58.99 4.489-38.24-59.51"/><path d="m5445-4806-34.55-106.6c-15.67-76.79-25.93-72.15-99.06-72.15l-1017 0.036-205.7 238.2h1318c61.59 3.127 58.99 4.489 38.24-59.51"/></g><path d="m69.24 82.35-24.81-25.48s-3.68-3.794 0.819-3.794h13.48v-34.33c-0.088-1.776 0.011-1.926 1.738-1.917h21c1.493-0.166 1.842 0.049 1.841 1.631v34.62h12.9c4.158 0 1.227 3.172 1.227 3.172s-21.11 23.82-24.05 26.32c-2.118 1.811-4.149-0.212-4.149-0.212" fill="url(#a)"/></g></g></g></svg>
