<svg viewBox="0 0 48 48" xmlns="http://www.w3.org/2000/svg" xmlns:xlink="http://www.w3.org/1999/xlink"><defs><clipPath id="b"><path transform="matrix(15.33 0 0 11.5 415 -125.5)" d="m-24 13c0 1.105-0.672 2-1.5 2s-1.5-0.895-1.5-2 0.672-2 1.5-2 1.5 0.895 1.5 2" fill="#1890d0"/></clipPath><linearGradient id="c" x2="0" y1="555.6" y2="507.6" gradientUnits="userSpaceOnUse" xlink:href="#a"/><linearGradient id="d" x2="0" y1="555.3" y2="507.3" gradientUnits="userSpaceOnUse" xlink:href="#a"/><linearGradient id="a"><stop stop-color="#197cf1" offset="0"/><stop stop-color="#21c9fb" offset="1"/></linearGradient></defs><g transform="translate(-312.9 -505.3)"><circle transform="matrix(1.021 0 0 1.021 -62.63 -13.72)" cx="391.2" cy="531.7" r="22.5" fill="url(#d)" stroke="url(#c)" stroke-linecap="round" stroke-linejoin="round" stroke-width="2"/><g transform="matrix(1.333 0 0 1.333 304.9 497.3)" clip-path="url(#b)" fill="#fff" fill-opacity=".855"><path d="m24.32 24.645c-.18-.789.77-1.25 1.414-1.164 1.266.168 1.863 1.586 1.574 2.719-.441 1.727-2.402 2.504-4.01 1.988-2.184-.703-3.141-3.234-2.391-5.32.953-2.648 4.059-3.793 6.605-2.809 3.105 1.203 4.434 4.902 3.211 7.918-1.445 3.582-5.719 5.098-9.199 3.633-4.04-1.695-5.734-6.566-4.04-10.52 1.941-4.512 7.387-6.395 11.797-4.453 4.965 2.184 7.04 8.23 4.855 13.12-2.426 5.441-9.05 7.699-14.391 5.277-5.891-2.672-8.332-9.898-5.676-15.719 2.082-4.566 6.848-7.438 11.836-7.309" fill="#fff" fill-opacity=".855" fill-rule="evenodd"/></g></g></svg>
