<svg viewBox="0 0 48 48" xmlns="http://www.w3.org/2000/svg"><defs><linearGradient id="a" x2="0" y1="21" y2="-25.29" gradientUnits="userSpaceOnUse"><stop stop-color="#1074f5" offset="0"/><stop stop-color="#02befd" offset="1"/></linearGradient></defs><g transform="matrix(1 0 0 1 -38.37 25.88)" enable-background="new"><circle cx="62.37" cy="-1.875" r="24" fill="url(#a)"/><path d="m62.72 15.52c-9.395 0-17-7.605-17-17s7.605-17 17-17c4.587 0 8.429 1.675 11.39 4.445l-4.613 4.446c-1.266-1.213-3.471-2.621-6.775-2.621-5.808 0-10.54 4.808-10.54 10.73s4.737 10.73 10.54 10.73c6.729 0 9.254-4.834 9.642-7.333h-9.642v-5.825h16.05c0.142 0.85 0.266 1.7 0.266 2.816 8e-3 9.713-6.5 16.61-16.32 16.61z" fill="#fff" fill-opacity=".851"/></g></svg>
