<svg viewBox="0 0 48 48" xmlns="http://www.w3.org/2000/svg"><defs><linearGradient id="b" x2="0" y1="542.8" y2="503.8" gradientUnits="userSpaceOnUse"><stop stop-color="#79a8ca" offset="0"/><stop stop-color="#9ecbda" offset="1"/></linearGradient><linearGradient id="a" x2="0" y1="531.8" y2="514.8" gradientUnits="userSpaceOnUse"><stop stop-color="#f2f6f7" offset="0"/><stop stop-color="#ecf0f1" offset="1"/></linearGradient><linearGradient id="c" x2="0" y1="530.8" y2="516.8" gradientUnits="userSpaceOnUse"><stop stop-color="#2566d3" offset="0"/><stop stop-color="#429aff" offset="1"/></linearGradient><linearGradient id="e" x1="396.6" x2="396.6" y1="540.8" y2="513.8" gradientUnits="userSpaceOnUse"><stop stop-color="#11aa43" offset="0"/><stop stop-color="#5be654" offset="1"/></linearGradient><linearGradient id="f" x2="0" y1="44" y2="15" gradientUnits="userSpaceOnUse"><stop stop-color="#f3b200" offset="0"/><stop stop-color="#fee145" offset="1"/></linearGradient><linearGradient id="d" x2="0" y1="519.8" y2="503.8" gradientUnits="userSpaceOnUse"><stop stop-color="#f23b2a" offset="0"/><stop stop-color="#fd5757" offset="1"/></linearGradient></defs><g transform="matrix(1.2 0 0 1.2-466.26-604.44)"><rect x="389.6" y="504.8" width="38" height="38" rx="19" fill="url(#b)"/><path transform="translate(384.6 499.8)" d="m24.473 14.699c-.262 0-.473.211-.473.473 0 .262.211.473.473.473h17.05c.034 0 .065-.013.098-.02l.232-.625-.857-.301" fill="#649cc1" opacity=".8"/><g fill-rule="evenodd"><path d="m392.6 511.8c-2.504 3.34-4 7.548-4 12.06 0 11.08 8.92 19.94 20 19.94l7-14.34-13-2.663z" fill="url(#e)"/><path transform="translate(384.6 499.8)" d="m25 15l6 14.6-7 14.4c11.08 0 20-8.92 20-20 0-3.245-.782-6.295-2.143-9z" fill="url(#f)"/><path d="m408.6 503.8c-6.565 0-12.35 3.146-16 8l9.996 15 13 2.6-6-14.6h16.86c-3.285-6.53-10.02-11-17.86-11" fill="url(#d)"/></g><rect x="399.6" y="514.8" width="18" height="18" rx="9" fill="url(#a)"/><rect x="401.6" y="516.8" width="14" height="14" rx="7" fill="url(#c)"/></g></svg>
