<svg viewBox="0 0 48 48" xmlns="http://www.w3.org/2000/svg"><defs><linearGradient id="c" x1="860" x2="842.7" y1="526" y2="507.2" gradientUnits="userSpaceOnUse"><stop stop-color="#ffee97" offset="0"/><stop stop-color="#ffe76b" offset="1"/></linearGradient><linearGradient id="b" x1="858.8" x2="860" y1="529.5" y2="517.3" gradientUnits="userSpaceOnUse"><stop stop-color="#fed45b" offset="0"/><stop stop-color="#ffcc54" offset="1"/></linearGradient><linearGradient id="a" x1="859.2" x2="864.1" y1="526.3" y2="531.2" gradientUnits="userSpaceOnUse"><stop stop-color="#f0a23a" offset="0"/><stop stop-color="#fde46a" offset="1"/></linearGradient></defs><g transform="matrix(.8069 0 0 .8069 -209.8 -416.5)"><g transform="matrix(1.617 0 0 1.617 -1084 -289.4)"><rect x="831.9" y="499.1" width="35.04" height="34.79" rx="1.5" fill="url(#a)"/><g fill-rule="evenodd"><path d="m831.8 501.3v30.91s0.292 1.723 2.045 1.723h13c11.65-2.057 18.55-8.41 20.08-19.62v-13.38c0.084-1.866-1.563-1.952-1.563-1.952l-31.4 0.11c-2.337-0.161-2.167 2.21-2.167 2.21" fill="url(#c)"/><path d="m846.1 534.2c6.656-1.385 10.16-5.085 12.42-9.509 5.994-1.741 7.526-6.272 8.402-11.21 0.128 12.62-9.624 18.83-20.82 20.72" fill="url(#b)" opacity=".9"/></g></g><g transform="matrix(.06596 0 0 .06596 273.1 530.3)" fill="#efac50" stroke="#cb8034" stroke-linecap="round" stroke-linejoin="round" stroke-width="2.051"><path d="m306.6 367.6h-121.5c-9.04 0-16.38 7.338-16.38 16.38 0 9.05 7.341 16.38 16.38 16.38h121.5c9.04 0 16.39-7.334 16.39-16.38s-7.348-16.38-16.39-16.38z"/><path d="m213.9 464.4v8.926c0 10.08 8.157 18.24 18.24 18.24h27.23c10.06 0 18.24-8.166 18.24-18.24v-8.926c20.64-1.467 36.98-18.5 36.98-39.51h-137.7c1e-4 21.01 16.36 38.04 37 39.51z"/><path d="m245.8 0c-90.69 0-164.2 73.52-164.2 164.2 0 38.27 13.16 73.4 35.15 101.3 19.44 24.65 37.87 51.59 53.76 78.69h150.6c16.05-27.35 34.15-53.79 53.78-78.71 21.97-27.88 35.14-63.01 35.14-101.3 0-90.69-73.52-164.2-164.2-164.2"/></g></g></svg>
