<svg version="1.1" viewBox="0 0 48 48" xmlns="http://www.w3.org/2000/svg"><defs><linearGradient id="a" x1="62.6" x2="62.15" y1="11.85" y2="-35.48" gradientUnits="userSpaceOnUse"><stop stop-color="#d3d3d3" offset="0"/><stop stop-color="#fcf9f9" offset="1"/></linearGradient></defs><g transform="matrix(1 0 0 1 -38.47 35.81)"><circle cx="62.47" cy="-11.82" r="24" fill="url(#a)"/><path transform="matrix(.8819 0 0 .8819 76.1 -30.12)" d="m-21.22 5.777-8.193 2.76-1.695 8.506 6.496 5.748 8.193-2.76 1.695-8.506-6.496-5.748m15.36 3.15-8.193 2.76-1.697 8.506 6.498 5.748 8.191-2.76 1.697-8.508-6.496-5.746m-10.32 11.84-8.193 2.76-1.695 8.508 6.496 5.746 8.193-2.76 1.695-8.506-6.496-5.748z" fill-opacity=".649"/></g></svg>
