<svg viewBox="0 0 48 48" xmlns="http://www.w3.org/2000/svg"><defs><linearGradient id="a" x2="0" y1="654" y2="301.3" gradientUnits="userSpaceOnUse"><stop stop-color="#00a661" offset="0"/><stop stop-color="#37ce97" offset="1"/></linearGradient></defs><circle transform="matrix(.1384 0 0 .1384 69.1 -42.25)" cx="-325.9" cy="478.8" r="173.4" fill="url(#a)"/><path transform="matrix(-.7825 0 0 .7825 41.6 5.603)" d="m46.907 20.12c-.163-.347-.511-.569-.896-.569h-2.927c-1.861-10.1-10.729-17.776-21.358-17.776-11.979 0-21.726 9.747-21.726 21.726 0 11.979 9.746 21.725 21.726 21.725 7.731 0 14.941-4.161 18.816-10.857.546-.945.224-2.152-.722-2.699-.944-.547-2.152-.225-2.697.72-3.172 5.481-9.07 8.887-15.397 8.887-9.801 0-17.776-7.974-17.776-17.774 0-9.802 7.975-17.776 17.776-17.776 8.442 0 15.515 5.921 17.317 13.825h-2.904c-.385 0-.732.222-.896.569-.163.347-.11.756.136 1.051l4.938 5.925c.188.225.465.355.759.355.293 0 .571-.131.758-.355l4.938-5.925c.246-.296.298-.705.135-1.052" fill="#fff" fill-opacity=".863"/></svg>
