<svg viewBox="0 0 48 48" xmlns="http://www.w3.org/2000/svg" xmlns:xlink="http://www.w3.org/1999/xlink"><defs><linearGradient id="c" x2="0" y1="546.3" y2="501.5" gradientUnits="userSpaceOnUse" xlink:href="#a"/><linearGradient id="b" x1="408.8" x2="407.8" y1="546.3" y2="501.5" gradientUnits="userSpaceOnUse" xlink:href="#a"/><linearGradient id="a" x2="0" y1="12.37" y2="-36.43" gradientUnits="userSpaceOnUse"><stop stop-color="#4fd127" offset="0"/><stop stop-color="#c6f61a" offset="1"/></linearGradient></defs><g transform="matrix(1.072 0 0 1.072 -413.2 -537.6)"><circle cx="407.8" cy="523.9" r="22.39" fill="url(#c)"/><path transform="matrix(.9329 0 0 .9329 385.4 501.5)" d="m22.461 1.553l-.002.002-3.51.201c-.381.022-1.241.387-1.668.436l-1.072.652c-3.747.899-2.962-1.228-5.248 2.164l-2.785.971c-2.541 3.77-5.27 7.159-4.832 9.566.04.217.21.387.428.426.218.039.435-.063.547-.254.455-.776 1.228-1.948 2.33-3.127 2.673-2.861 5.997-4.373 9.611-4.373.301 0 .608.011.916.031v21.383c0 3.962 2.976 7.215 7.08 7.732.372.047.748.07 1.119.07 3.955 0 7.275-2.675 7.723-6.223.241-1.911-.357-3.811-1.688-5.352-1.329-1.54-3.231-2.539-5.352-2.807-1.217-.154-2.449-.053-3.598.293z" fill="#1f3c09"/><circle cx="407.8" cy="523.9" r="21.43" fill="none" stroke="url(#b)" stroke-linecap="round" stroke-linejoin="round" stroke-width="1.914"/></g></svg>
