<svg viewBox="0 0 48 48" xmlns="http://www.w3.org/2000/svg" xmlns:xlink="http://www.w3.org/1999/xlink"><defs><linearGradient id="b" x1="490.2" x2="490.3" y1="552.5" y2="533.8" gradientUnits="userSpaceOnUse"><stop stop-color="#1c94f4" offset="0"/><stop stop-color="#1ea5f7" offset="1"/></linearGradient><linearGradient id="c" x1="487.7" x2="493.5" y1="985.4" y2="11.61" gradientUnits="userSpaceOnUse" xlink:href="#a"/><linearGradient id="d" x1="34.9" x2="946.4" gradientUnits="userSpaceOnUse" xlink:href="#a"/><linearGradient id="a"><stop stop-color="#197cf1" offset="0"/><stop stop-color="#20bcfa" offset="1"/></linearGradient></defs><g transform="matrix(.9433 0 0 .9433 -437.7 -487.4)" enable-background="new"><path transform="matrix(.05186 0 0 .05186 464 516.7)" d="m946.2 206.6c-0.3-23-18-42-40.9-44.1-190.3-17.8-345.6-119.5-396.8-156.7-10.7-7.8-25.2-7.8-35.9 0-51.1 37.2-206.4 138.9-396.7 156.7-22.9 2.101-40.5 21.1-40.9 44.1-2.3 150.1 21.8 659.7 444.1 773.1 7.5 2 15.4 2 22.9 0 422.3-113.3 446.4-623 444.2-773.1" fill="url(#c)"/><path transform="matrix(.03985 0 0 .04024 469.9 522.9)" d="m946.2 206.6c-0.3-23-18-42-40.9-44.1-190.3-17.8-345.6-119.5-396.8-156.7-10.7-7.8-25.2-7.8-35.9 0-51.1 37.2-206.4 138.9-396.7 156.7-22.9 2.101-40.5 21.1-40.9 44.1-2.3 150.1 21.8 659.7 444.1 773.1 7.5 2 15.4 2 22.9 0 422.3-113.3 446.4-623 444.2-773.1" fill="#fff" opacity=".675"/><path d="m494.96 541.07v-2.275c0-3.087-2.512-5.599-5.599-5.599-3.087 0-5.599 2.512-5.599 5.599v2.275c-.441.092-.774.485-.774.953v8.524c0 .537.437.974.974.974h10.798c.537 0 .974-.437.974-.974v-8.524c0-.469-.332-.86-.774-.953m-4.291 7.266c.02.107-.051.191-.159.191h-2.273c-.107 0-.179-.085-.159-.191l.362-1.918c-.274-.25-.446-.609-.446-1.01 0-.755.612-1.367 1.366-1.367.755 0 1.366.612 1.366 1.367 0 .389-.163.74-.424.989zm2.343-7.287h-7.302v-2.254c0-2.01 1.638-3.651 3.651-3.651 2.01 0 3.651 1.638 3.651 3.651z" fill="url(#b)"/></g></svg>
