<svg viewBox="0 0 48 48" xmlns="http://www.w3.org/2000/svg"><defs><linearGradient id="a" x1="-124" x2="-125.2" y1="73.5" y2="-33.29" gradientTransform="matrix(.4943 0 0 .4778 86.64 13.1)" gradientUnits="userSpaceOnUse"><stop stop-color="#00a661" offset="0"/><stop stop-color="#37ce97" offset="1"/></linearGradient></defs><path d="m2.982 0h42.04c1.652 0 2.982 1.33 2.982 2.982v42.04c0 1.652-1.33 2.982-2.982 2.982h-42.04c-1.652 0-2.982-1.33-2.982-2.982v-42.04c0-1.652 1.33-2.982 2.982-2.982" fill="url(#a)" fill-rule="evenodd"/><g fill="#dcf4ea"><path transform="matrix(1.07 0 0 1.07 94.59 11.91)" d="m-51.53 12.47q0 6-3.56 9.56-4.04 4.24-10.52 4.24-6.2 0-10.56-4.28-4.32-4.32-4.32-10.68t4.32-10.64q4.36-4.32 10.56-4.32 3.08 0 5.88 1.2t4.48 3.2l-2.52 2.52q-2.84-3.4-7.84-3.4-4.52 0-7.84 3.2-3.28 3.16-3.28 8.24t3.28 8.28q3.32 3.16 7.84 3.16 4.8 0 8-3.2 2.08-2.08 2.4-5.8h-10.4v-3.44h13.88q0.2 1.12 0.2 2.16"/></g></svg>
