<svg viewBox="0 0 48 48" xmlns="http://www.w3.org/2000/svg"><defs><linearGradient id="a" x2="0" y1="545.1" y2="518.1" gradientUnits="userSpaceOnUse"><stop stop-color="#197ff1" offset="0"/><stop stop-color="#21c6fb" offset="1"/></linearGradient></defs><g transform="matrix(1.714 0 0 1.714 -662.7 -887.6)"><circle cx="400.6" cy="531.8" r="14" fill="url(#a)"/><circle cx="400.6" cy="531.8" r="14" fill="#5ea5fb" fill-opacity="0"/></g><path d="m16.65 7.6c-3.783 0-6.85 3.067-6.85 6.85s3.067 6.85 6.85 6.85 6.85-3.067 6.85-6.85-3.067-6.85-6.85-6.85m18.71 10.49c-3.783 0-6.85 3.067-6.85 6.85s3.067 6.85 6.85 6.85 6.85-3.067 6.85-6.85-3.067-6.85-6.85-6.85m-17.71 9.215c-3.783 0-6.85 3.067-6.85 6.85s3.067 6.85 6.85 6.85 6.85-3.067 6.85-6.85-3.067-6.85-6.85-6.85" fill="#def1fe"/></svg>
