<svg viewBox="0 0 48 48" xmlns="http://www.w3.org/2000/svg" xmlns:xlink="http://www.w3.org/1999/xlink"><defs><linearGradient id="e" x1="8.264" x2="5.97" y1="28.96" y2="14.75" gradientUnits="userSpaceOnUse" xlink:href="#b"/><linearGradient id="d" x1="10.82" x2="9.801" y1="22.7" y2="5.173" gradientUnits="userSpaceOnUse" xlink:href="#b"/><linearGradient id="c" x1="17.92" x2="20.15" y1="13.73" y2="-2.082" gradientUnits="userSpaceOnUse" xlink:href="#b"/><linearGradient id="f" x1="11.01" x2="12.11" y1="37.97" y2="24.22" gradientUnits="userSpaceOnUse" xlink:href="#b"/><linearGradient id="b"><stop stop-color="#197ff1" offset="0"/><stop stop-color="#21c6fb" offset="1"/></linearGradient><linearGradient id="g" x1="23.73" x2="24.73" y1="47.61" y2="38.22" gradientUnits="userSpaceOnUse" xlink:href="#a"/><linearGradient id="a"><stop stop-color="#ff6cd4" offset="0"/><stop stop-color="#ffb7e2" offset="1"/></linearGradient><linearGradient id="k" x1="28.27" x2="28.5" y1="52.95" y2="9.983" gradientUnits="userSpaceOnUse" xlink:href="#a"/><linearGradient id="h" x1="28.94" x2="37.27" y1="46.28" y2="40.1" gradientUnits="userSpaceOnUse" xlink:href="#a"/><linearGradient id="j" x1="42.13" x2="46.83" y1="37.6" y2="23.73" gradientUnits="userSpaceOnUse" xlink:href="#a"/><linearGradient id="i" x1="15.83" x2="18.15" y1="42.93" y2="31.35" gradientUnits="userSpaceOnUse" xlink:href="#a"/></defs><g transform="matrix(1.0909 0 0 1.0909-2.01-1.308)" enable-background="new" opacity=".98"><path d="m31.73 9.955-14.73-8.662v12.73z" fill="url(#c)"/><path d="m27.1 9.481-22.13-0.411 9.34 13.29z" fill="url(#d)"/><path d="m22.7 12.78-20.85 8.243 12.79 9.456z" fill="url(#e)"/><circle cx="32.25" cy="40.1" r="5.03" fill="url(#h)"/><path d="m18.38 15.39-14.6 18.55 15.54 1.172z" fill="url(#f)"/><circle cx="24.18" cy="39.59" r="5.03" fill="url(#g)"/><circle cx="40.82" cy="27.99" r="5.03" fill="url(#j)"/><circle cx="27.2" cy="24.24" r="15.84" fill="url(#k)"/><circle cx="16.53" cy="35.48" r="4.598" fill="url(#i)"/></g></svg>
