<svg viewBox="0 0 48 48" xmlns="http://www.w3.org/2000/svg" xmlns:xlink="http://www.w3.org/1999/xlink"><defs><linearGradient id="b" x1="24.35" x2="25.86" y1="18.22" y2="6.763" gradientUnits="userSpaceOnUse" xlink:href="#a"/><linearGradient id="c" x1="16.49" x2="17.76" y1="16.91" y2="-.326" gradientUnits="userSpaceOnUse" xlink:href="#a"/><linearGradient id="d" x2="0" y1="543.8" y2="503.8" gradientUnits="userSpaceOnUse"><stop stop-color="#030303" offset="0"/><stop stop-color="#383838" offset="1"/></linearGradient><linearGradient id="a"><stop stop-color="#197cf1" offset="0"/><stop stop-color="#20bcfa" offset="1"/></linearGradient></defs><g transform="matrix(1.15 0 0 1.15-445.86-578.37)"><rect x="388.6" y="503.8" width="40" height="40" rx="20" fill="url(#d)"/><g transform="matrix(1.219 0 0 1.219 383 507.9)"><path d="m24.959 16.771h-1.405l2.641-7.415h1.406l-2.642 7.415m3.531-8.934h-4.555l-6.461 18.14h2.799l2.753-7.731h2.8c.619 0 1.399-.185 1.723-1.108.322-.924 2.072-5.767 2.557-7.222.484-1.457-.673-2.082-1.616-2.082" fill="url(#b)"/><path d="m21.45 10.15-2.757 7.732h-2.774l3.03-8.508h-1.429l-3.03 8.508h-2.799l6.375-17.87h2.799l-2.807 7.871h1.885c1.357 0 1.914 1.064 1.507 2.27" fill="url(#c)"/></g></g></svg>
