<svg viewBox="0 0 48 48" xmlns="http://www.w3.org/2000/svg"><defs><linearGradient id="a" x2="0" y1="542.8" y2="507.8" gradientTransform="matrix(1.052 0 0 1.028 36.49 -16.08)" gradientUnits="userSpaceOnUse"><stop stop-color="#030303" offset="0"/><stop stop-color="#272727" offset="1"/></linearGradient></defs><g transform="matrix(1.037 0 0 1.037 -459.4 -518.1)"><rect x="443.3" y="505.7" width="46.3" height="34.94" rx="1.644" fill="url(#a)"/><g transform="matrix(.8332 0 0 .8332 174.9 77.2)" fill="#fdfdfd"><circle cx="373.4" cy="518.7" r="2.25"/><circle cx="367.8" cy="518.8" r="2.25"/><circle cx="362.4" cy="518.8" r="2.25"/></g><g transform="matrix(.8 0 0 .8 139.6 103.6)" fill="#fdfdfd"><path d="m398.6 515.8h1v8h-1z"/><path d="m400.6 515.8h1v8h-1z"/><path d="m402.6 515.8h1v8h-1z"/><g transform="scale(-1 1)"><path d="m-418.6 515.8h1v8h-1z"/><path d="m-416.6 515.8h1v8h-1z"/><path d="m-414.6 515.8h1v8h-1z"/></g><path d="m398.6 527.8h1v8h-1z"/><path d="m400.6 527.8h1v8h-1z"/><path d="m402.6 527.8h1v8h-1z"/><g transform="scale(-1 1)"><path d="m-418.6 527.8h1v8h-1z"/><path d="m-416.6 527.8h1v8h-1z"/><path d="m-414.6 527.8h1v8h-1z"/></g><path d="m404.6 523.8h1v4h-1z"/><path d="m408.6 523.8h1v4h-1z"/><path d="m412.6 523.8h1v4h-1z"/></g></g></svg>
