<svg viewBox="0 0 48 48" xmlns="http://www.w3.org/2000/svg"><defs><linearGradient id="a" x1="36.22" x2="36.1" y1="39.86" y2="7.729" gradientUnits="userSpaceOnUse"><stop stop-color="#4fd127" offset="0"/><stop stop-color="#c6f61a" offset="1"/></linearGradient><linearGradient id="b" x1="23.95" x2="23.84" y1="41.08" y2="8.339" gradientUnits="userSpaceOnUse"><stop stop-color="#ff9300" offset="0"/><stop stop-color="#ffd702" offset="1"/></linearGradient><linearGradient id="d" x1="45.79" x2="45.58" y1="56.53" y2="7.715" gradientUnits="userSpaceOnUse"><stop stop-color="#141414" offset="0"/><stop stop-color="#2d2d2f" offset="1"/></linearGradient><linearGradient id="c" x1="11.9" x2="11.38" y1="40.68" y2="6.712" gradientUnits="userSpaceOnUse"><stop stop-color="#e02d2d" offset="0"/><stop stop-color="#f75151" offset="1"/></linearGradient></defs><g transform="translate(-19.348-8.325)"><path d="m22.33 8.325h42.04c1.652 0 2.982 1.33 2.982 2.982v42.04c0 1.652-1.33 2.982-2.982 2.982h-42.04c-1.652 0-2.982-1.33-2.982-2.982v-42.04c0-1.652 1.33-2.982 2.982-2.982" fill="url(#d)" fill-rule="evenodd"/><g transform="matrix(4.724 0 0 4.724 -13.87 -5.1)"><path transform="matrix(.2117 0 0 .2117 7.03 2.841)" d="m8.666 8a2.667 2.667 0 0 0-2.666 2.666 2.667 2.667 0 0 0 2.666 2.668 2.667 2.667 0 0 0 2.668-2.668 2.667 2.667 0 0 0-2.668-2.666m2.668 2.666a2.667 2.667 0 0 0 2.666 2.668 2.667 2.667 0 0 0 2.666-2.668 2.667 2.667 0 0 0-2.666-2.666 2.667 2.667 0 0 0-2.666 2.666m2.666 2.668a2.667 2.667 0 0 0-2.666 2.666 2.667 2.667 0 0 0 2.666 2.666 2.667 2.667 0 0 0 2.666-2.666 2.667 2.667 0 0 0-2.666-2.666m0 5.332a2.667 2.667 0 0 0-2.666 2.668 2.667 2.667 0 0 0 2.666 2.666 2.667 2.667 0 0 0 2.666-2.666 2.667 2.667 0 0 0-2.666-2.668m0 5.334a2.667 2.667 0 0 0-2.666 2.666 2.667 2.667 0 0 0 2.666 2.668 2.667 2.667 0 0 0 2.666-2.668 2.667 2.667 0 0 0-2.666-2.666m0 5.334a2.667 2.667 0 0 0-2.666 2.666 2.667 2.667 0 0 0 2.666 2.666 2.667 2.667 0 0 0 2.666-2.666 2.667 2.667 0 0 0-2.666-2.666m0 5.332a2.667 2.667 0 0 0-2.666 2.668 2.667 2.667 0 0 0 2.666 2.666 2.667 2.667 0 0 0 2.666-2.666 2.667 2.667 0 0 0-2.666-2.668m-2.666 2.668a2.667 2.667 0 0 0-2.668-2.668 2.667 2.667 0 0 0-2.666 2.668 2.667 2.667 0 0 0 2.666 2.666 2.667 2.667 0 0 0 2.668-2.666m-2.668-2.668a2.667 2.667 0 0 0 2.668-2.666 2.667 2.667 0 0 0-2.668-2.666 2.667 2.667 0 0 0-2.666 2.666 2.667 2.667 0 0 0 2.666 2.666m0-5.332a2.667 2.667 0 0 0 2.668-2.668 2.667 2.667 0 0 0-2.668-2.666 2.667 2.667 0 0 0-2.666 2.666 2.667 2.667 0 0 0 2.666 2.668m0-5.334a2.667 2.667 0 0 0 2.668-2.666 2.667 2.667 0 0 0-2.668-2.668 2.667 2.667 0 0 0-2.666 2.668 2.667 2.667 0 0 0 2.666 2.666m0-5.334a2.667 2.667 0 0 0 2.668-2.666 2.667 2.667 0 0 0-2.668-2.666 2.667 2.667 0 0 0-2.666 2.666 2.667 2.667 0 0 0 2.666 2.666" fill="url(#c)"/><path transform="matrix(.2117 0 0 .2117 7.03 2.841)" d="m21.33 8a2.667 2.667 0 0 0-2.668 2.666 2.667 2.667 0 0 0 2.668 2.668 2.667 2.667 0 0 0 2.666-2.668 2.667 2.667 0 0 0-2.666-2.666m2.666 2.666a2.667 2.667 0 0 0 2.666 2.668 2.667 2.667 0 0 0 2.668-2.668 2.667 2.667 0 0 0-2.668-2.666 2.667 2.667 0 0 0-2.666 2.666m2.666 2.668a2.667 2.667 0 0 0-2.666 2.666 2.667 2.667 0 0 0 2.666 2.666 2.667 2.667 0 0 0 2.668-2.666 2.667 2.667 0 0 0-2.668-2.666m0 5.332a2.667 2.667 0 0 0-2.666 2.668 2.667 2.667 0 0 0 2.666 2.666 2.667 2.667 0 0 0 2.668-2.666 2.667 2.667 0 0 0-2.668-2.668m0 5.334a2.667 2.667 0 0 0-2.666 2.666 2.667 2.667 0 0 0 2.666 2.668 2.667 2.667 0 0 0 2.668-2.668 2.667 2.667 0 0 0-2.668-2.666m0 5.334a2.667 2.667 0 0 0-2.666 2.666 2.667 2.667 0 0 0 2.666 2.666 2.667 2.667 0 0 0 2.668-2.666 2.667 2.667 0 0 0-2.668-2.666m0 5.332a2.667 2.667 0 0 0-2.666 2.668 2.667 2.667 0 0 0 2.666 2.666 2.667 2.667 0 0 0 2.668-2.666 2.667 2.667 0 0 0-2.668-2.668m-2.666 2.668a2.667 2.667 0 0 0-2.666-2.668 2.667 2.667 0 0 0-2.668 2.668 2.667 2.667 0 0 0 2.668 2.666 2.667 2.667 0 0 0 2.666-2.666m-2.666-2.668a2.667 2.667 0 0 0 2.666-2.666 2.667 2.667 0 0 0-2.666-2.666 2.667 2.667 0 0 0-2.668 2.666 2.667 2.667 0 0 0 2.668 2.666m0-5.332a2.667 2.667 0 0 0 2.666-2.668 2.667 2.667 0 0 0-2.666-2.666 2.667 2.667 0 0 0-2.668 2.666 2.667 2.667 0 0 0 2.668 2.668m0-5.334a2.667 2.667 0 0 0 2.666-2.666 2.667 2.667 0 0 0-2.666-2.668 2.667 2.667 0 0 0-2.668 2.668 2.667 2.667 0 0 0 2.668 2.666m0-5.334a2.667 2.667 0 0 0 2.666-2.666 2.667 2.667 0 0 0-2.666-2.666 2.667 2.667 0 0 0-2.668 2.666 2.667 2.667 0 0 0 2.668 2.666" fill="url(#b)"/><path transform="matrix(.2117 0 0 .2117 7.03 2.841)" d="m34 8a2.667 2.667 0 0 0-2.666 2.666 2.667 2.667 0 0 0 2.666 2.668 2.667 2.667 0 0 0 2.666-2.668 2.667 2.667 0 0 0-2.666-2.666m2.666 2.666a2.667 2.667 0 0 0 2.668 2.668 2.667 2.667 0 0 0 2.666-2.668 2.667 2.667 0 0 0-2.666-2.666 2.667 2.667 0 0 0-2.668 2.666m2.668 2.668a2.667 2.667 0 0 0-2.668 2.666 2.667 2.667 0 0 0 2.668 2.666 2.667 2.667 0 0 0 2.666-2.666 2.667 2.667 0 0 0-2.666-2.666m0 5.332a2.667 2.667 0 0 0-2.668 2.668 2.667 2.667 0 0 0 2.668 2.666 2.667 2.667 0 0 0 2.666-2.666 2.667 2.667 0 0 0-2.666-2.668m0 5.334a2.667 2.667 0 0 0-2.668 2.666 2.667 2.667 0 0 0 2.668 2.668 2.667 2.667 0 0 0 2.666-2.668 2.667 2.667 0 0 0-2.666-2.666m0 5.334a2.667 2.667 0 0 0-2.668 2.666 2.667 2.667 0 0 0 2.668 2.666 2.667 2.667 0 0 0 2.666-2.666 2.667 2.667 0 0 0-2.666-2.666m0 5.332a2.667 2.667 0 0 0-2.668 2.668 2.667 2.667 0 0 0 2.668 2.666 2.667 2.667 0 0 0 2.666-2.666 2.667 2.667 0 0 0-2.666-2.668m-2.668 2.668a2.667 2.667 0 0 0-2.666-2.668 2.667 2.667 0 0 0-2.666 2.668 2.667 2.667 0 0 0 2.666 2.666 2.667 2.667 0 0 0 2.666-2.666m-2.666-2.668a2.667 2.667 0 0 0 2.666-2.666 2.667 2.667 0 0 0-2.666-2.666 2.667 2.667 0 0 0-2.666 2.666 2.667 2.667 0 0 0 2.666 2.666m0-5.332a2.667 2.667 0 0 0 2.666-2.668 2.667 2.667 0 0 0-2.666-2.666 2.667 2.667 0 0 0-2.666 2.666 2.667 2.667 0 0 0 2.666 2.668m0-5.334a2.667 2.667 0 0 0 2.666-2.666 2.667 2.667 0 0 0-2.666-2.668 2.667 2.667 0 0 0-2.666 2.668 2.667 2.667 0 0 0 2.666 2.666m0-5.334a2.667 2.667 0 0 0 2.666-2.666 2.667 2.667 0 0 0-2.666-2.666 2.667 2.667 0 0 0-2.666 2.666 2.667 2.667 0 0 0 2.666 2.666" fill="url(#a)"/></g></g></svg>
