<svg viewBox="0 0 48 48" xmlns="http://www.w3.org/2000/svg" xmlns:xlink="http://www.w3.org/1999/xlink"><defs><linearGradient id="f" x1="407.2" x2="424.1" y1="515.8" y2="532.6" gradientUnits="userSpaceOnUse"><stop stop-color="#18222a" offset="0"/><stop stop-color="#566069" offset="1"/></linearGradient><linearGradient id="b" x1="27.42" x2="26.83" y1="26.1" y2="7.833" gradientUnits="userSpaceOnUse"><stop stop-color="#ff9300" offset="0"/><stop stop-color="#ffd702" offset="1"/></linearGradient><linearGradient id="a"><stop stop-color="#222c35" offset="0"/><stop stop-color="#545e67" offset="1"/></linearGradient><linearGradient id="c" x1="29.47" x2="29.6" y1="26.82" y2="8.264" gradientUnits="userSpaceOnUse"><stop stop-color="#00a661" offset="0"/><stop stop-color="#50ffbf" offset="1"/></linearGradient><linearGradient id="e" x1="24.6" x2="23.57" y1="25.81" y2="8.12" gradientUnits="userSpaceOnUse"><stop stop-color="#c52828" offset="0"/><stop stop-color="#ff5454" offset="1"/></linearGradient><linearGradient id="d" x1="33.4" x2="33.67" y1="27.1" y2="7.977" gradientUnits="userSpaceOnUse"><stop stop-color="#0a80fd" offset="0"/><stop stop-color="#56c5fa" offset="1"/></linearGradient><linearGradient id="g" x1="415.3" x2="414.6" y1="537.1" y2="510.4" gradientUnits="userSpaceOnUse" xlink:href="#a"/><linearGradient id="h" x1="414.1" x2="414.2" y1="533.6" y2="514" gradientUnits="userSpaceOnUse"><stop stop-color="#08f" offset="0"/><stop stop-color="#02c3ff" offset="1"/></linearGradient><linearGradient id="j" x1="64.92" x2="66.47" y1="20.9" y2="-16.62" gradientUnits="userSpaceOnUse"><stop stop-color="#d3d3d3" offset="0"/><stop stop-color="#fcf9f9" offset="1"/></linearGradient><linearGradient id="i" x1="45.99" x2="46.12" y1="29.98" y2="5.576" gradientUnits="userSpaceOnUse" xlink:href="#a"/></defs><g transform="translate(-19.348-8.325)"><g fill-rule="evenodd"><path transform="matrix(1 0 0 1 -19.03 34.2)" d="m41.36-25.38h42.04c1.652 0 2.982 1.33 2.982 2.982v41.54c0 1.652-1.33 2.982-2.982 2.982h-42.04c-1.652 0-2.982-1.33-2.982-2.982v-41.54c0-1.652 1.33-2.982 2.982-2.982" fill="url(#j)"/><path d="m22.33 8.325h42.04c1.652 0 2.982 1.33 2.982 2.982v15.02h-48v-15.02c0-1.652 1.33-2.982 2.982-2.982" fill="url(#i)"/></g><g transform="translate(14.89)"><path d="m25.56 8.325h3v18h-3z" fill="url(#b)" opacity=".98"/><path d="m28.47 8.325h3v18h-3z" fill="url(#c)" opacity=".98"/><path d="m22.73 8.325h3v18h-3z" fill="url(#e)" opacity=".98"/><path d="m31.39 8.325h3v18h-3z" fill="url(#d)" opacity=".98"/></g><g transform="matrix(.9978 0 0 1-371-491.51)"><path d="m401.3 523.8a14 14 0 0 1 14-14 14 14 0 0 1 14 14 14 14 0 0 1-14 14 14 14 0 0 1-14-14" fill="url(#g)"/><circle cx="415.3" cy="523.8" r="11" fill="url(#f)"/><circle cx="415.3" cy="523.8" r="10" fill="url(#h)" opacity=".98"/></g></g></svg>
