<svg viewBox="0 0 48 48" xmlns="http://www.w3.org/2000/svg" xmlns:xlink="http://www.w3.org/1999/xlink"><defs><linearGradient id="c" x1="62.28" x2="62.58" y1="35.92" y2="-9.27" gradientUnits="userSpaceOnUse" xlink:href="#a"/><linearGradient id="a"><stop stop-color="#1edf19" offset="0"/><stop stop-color="#7af36f" offset="1"/></linearGradient><linearGradient id="b" x1="53.19" x2="56.24" y1="36.97" y2="-8.317" gradientUnits="userSpaceOnUse" xlink:href="#a"/></defs><g transform="matrix(1.043 0 0 1.043 -41.08 10.31)" enable-background="new"><circle cx="62.37" cy="13.12" r="22.36" fill="url(#c)" stroke="url(#b)" stroke-width="1.29"/><path d="m72.961 21.7l-3.261-3.901c-.65-.774-1.833-.858-2.637-.186l-1.965 1.643c-.108-.073-.22-.149-.338-.23-1.083-.733-2.565-1.738-4.059-3.526-1.499-1.793-2.225-3.432-2.757-4.628-.056-.127-.11-.249-.163-.365l1.319-1.101.649-.543c.805-.673.931-1.852.283-2.629l-3.261-3.902c-.648-.775-1.832-.859-2.637-.186l-1.1.925.025.03c-.377.402-.704.874-.963 1.393-.24.494-.404.971-.503 1.455-.823 3.878.648 7.621 5.075 12.917 6.12 7.32 11.581 7.296 11.817 7.292.514-.015 1.013-.093 1.526-.242.551-.16 1.074-.398 1.536-.697l.02.022 1.112-.91c.804-.673.931-1.853.283-2.63" fill-opacity=".653"/></g></svg>
