<svg viewBox="0 0 48 48" xmlns="http://www.w3.org/2000/svg"><defs><linearGradient id="a" x2="0" y1="545.1" y2="518.1" gradientUnits="userSpaceOnUse"><stop stop-color="#f16419" offset="0"/><stop stop-color="#feb600" offset="1"/></linearGradient></defs><g transform="matrix(1.714 0 0 1.714 -69.21 13.51)" enable-background="new"><g transform="translate(-346.2 -525.7)"><circle cx="400.6" cy="531.8" r="14" fill="url(#a)"/><circle cx="400.6" cy="531.8" r="14" fill="#5ea5fb" fill-opacity="0"/></g><path transform="matrix(.05009 0 0 .05009 46.21-2.042)" d="m14.26 275.6c-31.31-55.21-10-141.8 54.77-206.6 73.55-73.54 175.3-91.08 227.2-39.16 0.061 0.068 0.112 0.145 0.195 0.214-10.39 30.23-43.49 94.57-142.7 129.4-90.87 31.88-125.9 82.56-139.5 116.2m296.6-226.8c-7.871 18.36-21.57 42.36-45.17 65.96-23.72 23.74-57.44 47.05-105.2 63.8-96.94 33.99-124 89.64-131.6 116.6 0.357 0.36 0.664 0.733 1.01 1.083 51.92 51.92 153.6 34.39 227.2-39.17 65.44-65.44 86.49-153.2 53.78-208.3z" fill="#fff" fill-opacity=".849"/></g></svg>
