<svg viewBox="0 0 48 48" xmlns="http://www.w3.org/2000/svg" xmlns:xlink="http://www.w3.org/1999/xlink"><defs><linearGradient id="a"><stop stop-color="#ff433a" offset="0"/><stop stop-color="#ff9436" offset="1"/></linearGradient><linearGradient id="b" x1="490.3" x2="489.5" y1="534.5" y2="508.2" gradientUnits="userSpaceOnUse" xlink:href="#a"/><linearGradient id="d" x2="0" y1="543.8" y2="503.8" gradientUnits="userSpaceOnUse"><stop stop-color="#2b2b2b" offset="0"/><stop stop-color="#353535" offset="1"/></linearGradient><linearGradient id="c" x2="0" y1="543.8" y2="503.8" gradientUnits="userSpaceOnUse" xlink:href="#a"/></defs><g transform="matrix(1.157 0 0 1.157 -448.5 -581.8)"><rect x="388.6" y="503.8" width="40" height="40" rx="20" fill="url(#d)" stroke="url(#c)" stroke-width="1.5"/><path transform="matrix(.9056 0 0 .9056 -38.49 50.48)" d="m502.6 513.33c-1.584-2.35-4.425-3.714-8.438-4.053h-.007c-.296-.034-.58-.051-.844-.051-2.023 0-2.741 1.013-2.741 1.88v15.09c-.796-.24-1.649-.309-2.492-.203-1.469.185-2.785.875-3.706 1.942-.921 1.067-1.336 2.383-1.169 3.707.31 2.457 2.61 4.31 5.349 4.31.257 0 .518-.016.776-.049 2.84-.358 4.901-2.611 4.901-5.355v-14.811c.213-.014.427-.021.635-.021 2.504 0 4.805 1.047 6.657 3.03.763.817 1.299 1.629 1.614 2.167.077.132.228.202.38.175.151-.027.269-.144.296-.295.304-1.667.55-4.855-1.21-7.466" fill="url(#b)" fill-rule="evenodd" stroke-width="1.317"/></g></svg>
