<svg viewBox="0 0 48 48" xmlns="http://www.w3.org/2000/svg"><defs><linearGradient id="a" x1="58.69" x2="58.1" y1="12.34" y2="-35.22" gradientUnits="userSpaceOnUse"><stop stop-color="#95a9bb" offset="0"/><stop stop-color="#d1dae3" offset="1"/></linearGradient></defs><g transform="matrix(1 0 0 1 -33.37 35.88)" enable-background="new"><g fill-rule="evenodd"><rect x="34.18" y="-35.88" width="46.4" height="48" rx="2.982" fill="url(#a)"/><g fill="#5c5c5e"><ellipse cx="39.55" cy="-31.25" rx="1.672" ry="1.672"/><ellipse cx="43.96" cy="-31.25" rx="1.672" ry="1.672"/><ellipse cx="48.42" cy="-31.25" rx="1.672" ry="1.672"/></g></g><path d="m45.86 4.856h9.571v1.238h3.48v-1.238h9.612v1.399h3.48v-3.466h-1.284v-9.694h1.243v-3.466h-1.243v-8.999h1.284v-3.466h-3.48v0.705h-9.612v-1.238h-3.48v1.238h-9.571v-0.867h-3.48v3.466h1.243v9.161h-1.243v3.466h1.243v9.532h-1.243v3.466h3.48v-1.238m-0.994 0v0.248h-1.492v-1.486h1.492v1.238m11.56-26.99v-0.248h1.492v1.486h-1.492v-1.238m1.492 26.99v0.248h-1.492v-1.486h1.492v1.238m0.166-12.94c0.097 0.097 0.097 0.253 0 0.35-0.049 0.048-0.112 0.072-0.176 0.072-0.063 0-0.127-0.024-0.176-0.072l-0.559-0.557-0.559 0.557c-0.049 0.048-0.112 0.072-0.176 0.072s-0.127-0.024-0.176-0.072c-0.097-0.097-0.097-0.253 0-0.35l0.559-0.557-0.559-0.557c-0.097-0.096-0.097-0.254 0-0.35s0.255-0.096 0.352 0l0.56 0.557 0.559-0.557c0.097-0.096 0.254-0.096 0.352 0 0.097 0.096 0.097 0.254 0 0.35l-0.559 0.557 0.56 0.557m12.93 13.34h-1.491v-1.485h1.491v1.485m-2.486-2.476v1.076h-7.787c4.34-1.225 7.758-4.63 8.988-8.952v7.876h-1.202m2.445-10.68h-1.492v-1.486h1.492v1.486m-1.45-13.95h1.492v1.486h-1.491v-1.485m-0.994 0.705v1.771h1.202v7.181c-1.23-4.323-4.649-7.727-8.988-8.952h7.787m-25.15-0.867h1.492v1.486h-1.492v-1.486m2.486 2.476v-1.609h7.745c-4.34 1.226-7.758 4.629-8.988 8.952v-7.342h1.243m-2.486 10.15h1.492v1.486h-1.492v-1.486m1.243 4.294c1.231 4.323 4.648 7.727 8.988 8.952h-7.745v-1.238h-1.243v-7.714" fill-opacity=".581"/></g></svg>
