<svg viewBox="0 0 48 48" xmlns="http://www.w3.org/2000/svg"><defs><linearGradient id="b" x1="45.79" x2="45.58" y1="56.53" y2="7.715" gradientUnits="userSpaceOnUse"><stop stop-color="#141414" offset="0"/><stop stop-color="#2d2d2f" offset="1"/></linearGradient><linearGradient id="a" x1="165.1" x2="153.1" y1="392.7" y2="-75.85" gradientUnits="userSpaceOnUse"><stop stop-color="#4fd127" offset="0"/><stop stop-color="#c6f61a" offset="1"/></linearGradient></defs><g transform="translate(-19.348-8.325)"><path d="m22.33 8.325h42.04c1.652 0 2.982 1.33 2.982 2.982v42.04c0 1.652-1.33 2.982-2.982 2.982h-42.04c-1.652 0-2.982-1.33-2.982-2.982v-42.04c0-1.652 1.33-2.982 2.982-2.982" fill="url(#b)" fill-rule="evenodd"/><path transform="matrix(.1019 0 0 .1019 27.35 16.32)" d="m282.6 222.6v-49.85c0-17.34-14.06-31.4-31.4-31.4h-78.5v-49.84c18.29-6.474 31.4-23.87 31.4-44.37 0-26.01-21.1-47.1-47.1-47.1-26.01 0-47.1 21.09-47.1 47.1 0 20.5 13.12 37.89 31.4 44.37v49.84h-78.5c-17.34 0-31.4 14.06-31.4 31.4v49.85c-18.29 6.46-31.4 23.86-31.4 44.35 0 26 21.09 47.1 47.1 47.1s47.1-21.1 47.1-47.1c0-20.5-13.12-37.9-31.4-44.35v-49.85h78.5v49.85c-18.28 6.46-31.4 23.86-31.4 44.35 0 26 21.09 47.1 47.1 47.1 26 0 47.1-21.1 47.1-47.1 0-20.5-13.12-37.9-31.4-44.35v-49.85h78.5v49.85c-18.28 6.46-31.4 23.86-31.4 44.35 0 26 21.09 47.1 47.1 47.1s47.1-21.1 47.1-47.1c-2e-3 -20.5-13.12-37.89-31.4-44.35" fill="url(#a)"/></g></svg>
