<svg viewBox="0 0 48 48" xmlns="http://www.w3.org/2000/svg" xmlns:xlink="http://www.w3.org/1999/xlink"><defs><linearGradient id="b" x2="0" y1="549.9" y2="500.9" gradientUnits="userSpaceOnUse"><stop stop-color="#197cf1" offset="0"/><stop stop-color="#59d0ff" offset="1"/></linearGradient><linearGradient id="a" x1="405.6" x2="406.6" y1="543.8" y2="501.8" gradientUnits="userSpaceOnUse"><stop stop-color="#1673db" offset="0"/><stop stop-color="#42d6fc" offset="1"/></linearGradient></defs><g transform="matrix(1.021 0 0 1.021 -424.2 -516.6)"><g transform="matrix(1.044 0 0 1.044 14.89 -16.43)" stroke="url(#b)"><path d="m399.6 514.8h18v1h-18z" fill="#fff" fill-opacity=".235" stroke-opacity=".55" stroke-width="2.8"/><circle cx="406" cy="522.6" r="21.54" fill="url(#a)" stroke="url(#a)" stroke-linecap="round" stroke-linejoin="round" stroke-width="1.915"/></g><path transform="matrix(1.7 0 0 1.695 -253.1 -380.4)" d="m412.39 537.33c-.401-.404-1.052-.404-1.453 0l-4.057 4.497-4.057-4.497c-.402-.404-1.052-.404-1.453 0-.402.404-.402 1.058 0 1.461l4.719 5.231c.217.218.507.314.791.296.284.018.574-.078.791-.296l4.719-5.231c.401-.404.401-1.058 0-1.461m-5.516-4.351c.935 0 1.693-.761 1.693-1.7 0-.939-.758-1.7-1.693-1.7-.935 0-1.693.761-1.693 1.7 0 .939.758 1.7 1.693 1.7m0 4.858c.935 0 1.693-.761 1.693-1.7 0-.939-.758-1.7-1.693-1.7-.935 0-1.693.761-1.693 1.7 0 .939.758 1.7 1.693 1.7" fill="#fff" fill-opacity=".853" stroke-opacity=".8"/></g></svg>
