<svg viewBox="0 0 48 48" xmlns="http://www.w3.org/2000/svg"><defs><linearGradient id="a" x1="148.7" x2="148.1" y1="22.34" y2="-25.22" gradientUnits="userSpaceOnUse"><stop stop-color="#1e56e6" offset="0"/><stop stop-color="#1f9aed" offset="1"/></linearGradient></defs><g transform="matrix(1 0 0 1 -123.4 25.88)" enable-background="new"><g fill-rule="evenodd"><rect x="124.2" y="-25.88" width="46.4" height="48" rx="2.982" fill="url(#a)"/><g fill="#dde9fc"><circle cx="129.6" cy="-21.25" r="1.672"/><circle cx="134" cy="-21.25" r="1.672"/><circle cx="138.4" cy="-21.25" r="1.672"/></g></g><g fill="#dde9fc" stroke="#dde9fc" stroke-linecap="round"><g stroke-linejoin="round"><path d="m153.4 4.114h12.08v12.08h-12.08z" stroke-width="1.268"/><path transform="matrix(.8214 -.6105 .6105 .8214 -533.5 -176.6)" d="m420.9 541.4-10.56-7.902 12.12-5.196z" stroke-width="1.239"/></g><path d="m150.3-14.54c-3.5 0-6.317 2.818-6.317 6.317 0 3.5 2.818 6.317 6.317 6.317 3.5 0 6.317-2.818 6.317-6.317 0-3.5-2.817-6.317-6.317-6.317z" stroke-width="1.268"/></g></g></svg>
