<svg viewBox="0 0 48 48" xmlns="http://www.w3.org/2000/svg"><defs><linearGradient id="b" x2="0" y1="545.1" y2="518.1" gradientUnits="userSpaceOnUse"><stop stop-color="#141414" offset="0"/><stop stop-color="#2d2d2f" offset="1"/></linearGradient><linearGradient id="a" x1="12.44" x2="12.97" y1="58.43" y2="-10.39" gradientUnits="userSpaceOnUse"><stop stop-color="#4fd127" offset="0"/><stop stop-color="#c6f61a" offset="1"/></linearGradient></defs><g transform="translate(-384.57-499.8)"><g transform="matrix(1.714 0 0 1.714 -278.1 -387.8)" enable-background="new"><circle cx="400.6" cy="531.8" r="14" fill="url(#b)"/><circle cx="400.6" cy="531.8" r="14" fill="#5ea5fb" fill-opacity="0"/></g><path transform="matrix(.5283 0 0 .5283 394.6 510.7)" d="m0.471 37.4s-2.958-11.44 6.705-8.873c0 0 17.14 9.295 38.65 0 9.663-2.563 6.705 8.873 6.705 8.873-5.523 16.96-26.03 15.58-26.03 15.58s-20.51 1.379-26.03-15.58m6.24-31.19c0-3.424 2.777-6.201 6.202-6.201 3.423 0 6.2 2.777 6.2 6.201 0 3.426-2.777 6.203-6.2 6.203-3.425 0-6.202-2.778-6.202-6.203m28.12 0c0-3.424 2.78-6.201 6.203-6.201s6.201 2.777 6.201 6.201c0 3.426-2.777 6.203-6.201 6.203-3.423 0-6.203-2.778-6.203-6.203" fill="url(#a)"/></g></svg>
