<svg version="1.1" viewBox="0 0 48 48" xmlns="http://www.w3.org/2000/svg" xmlns:xlink="http://www.w3.org/1999/xlink"><defs><linearGradient id="b" x1="408.1" x2="407.8" y1="547.6" y2="498.9" gradientUnits="userSpaceOnUse"><stop stop-color="#ff9300" offset="0"/><stop stop-color="#ffd702" offset="1"/></linearGradient><linearGradient id="a" x1="408.1" x2="407.8" y1="547.6" y2="498.9" gradientUnits="userSpaceOnUse" xlink:href="#b"/></defs><g transform="translate(-384.6 -499.8)"><rect transform="matrix(1.012 0 0 1.012 -4.746 -6.124)" x="386" y="501.3" width="45.19" height="45.19" rx="22.6" fill="url(#a)" stroke="url(#a)" stroke-width="2.26"/><path d="m424.2 519c0.079 0.19 0.13 0.312-1e-4 -4e-3 -0.304-0.732-0.123-0.296-2e-3 -4e-3 -0.854-2.048-3.777-2.887-5.347-1.1-0.655 0.746-0.886 1.714-1.303 2.591-0.492 1.033-2.054 2.031-3.202 1.453 0.756-0.54 1.49-0.899 2.062-1.667 0.56-0.752 1.012-1.894 0.469-2.774-0.459-0.743-1.492-1.124-2.33-0.937-0.967 0.216-1.315 1.019-1.576 1.877-0.312 1.025-0.66 1.533-1.805 1.364-0.77-0.114-2.13-0.577-2.067-1.555 0.064-1.013 0.785-1.989 1.308-2.822 0.626-0.999 1.343-1.927 1.575-3.111 0.417-2.128-0.626-4.138-2.898-4.433-2.228-0.289-3.509 1.578-3.267 3.653 0.119 1.019 0.665 1.849 0.907 2.823 0.301 1.211 0.109 2.478-0.167 3.673-0.205 0.885-0.804 1.838-1.735 2.115-1.022 0.304-1.524-0.593-1.65-1.433-0.199-1.33-0.816-2.605-2.383-2.236-0.946 0.223-1.651 0.947-1.902 1.884-0.281 1.049 0.23 1.901 0.874 2.687 0.328 0.401 1.202 1.2 1.11 1.791-0.154 0.997-2.13-0.182-2.449-0.423-0.874-0.659-1.755-1.246-2.91-1.107-1.068 0.128-2.081 0.91-2.567 1.858-1.049 2.047 0.478 4.269 2.386 5.067 2.138 0.894 4.04-0.554 6.203-0.554 0.425 0 1.757 0.035 1.533 0.781-0.295 0.982-1.398 1.473-2.271 1.801-0.907 0.341-1.773 0.755-2.191 1.695-0.419 0.945-0.118 2.023 0.568 2.753 1.322 1.411 3.664 1.876 5.074 0.334 0.63-0.69 0.887-1.57 1.17-2.437 0.073-0.224 0.238-0.979 0.616-0.82 0.577 0.244 0.101 0.964-0.113 1.281-1.122 1.667-0.21 4.01 2.032 3.478 0.782-0.184 1.353-0.767 1.463-1.571 0.133-0.969-0.423-2.237 0.699-2.808 0.912-0.464 0.778 1.427 0.743 1.861-0.09 1.122-0.043 2.26 0.308 3.338 0.664 2.04 2.972 3.412 4.787 1.729 1.6-1.483 1.466-3.975-0.228-5.304-0.738-0.579-3.975-1.92-2.22-3.102 1.792-1.206 5.387 1.637 6.207-1.281 0.235-0.838-0.177-1.732-0.959-2.103-0.548-0.26-1.178-0.251-1.765-0.165-0.325 0.048-1.128 0.372-1.29-0.062-0.696-1.859 2.624-3.542 4.02-3.643 1.298-0.094 2.571 0.125 3.646-0.801 1.042-0.898 1.354-2.371 0.833-3.63" fill="#fff" fill-opacity=".849"/></g></svg>
