<svg viewBox="0 0 48 48" xmlns="http://www.w3.org/2000/svg"><defs><linearGradient id="a" x2="0" y1="542.8" y2="507.8" gradientTransform="matrix(1.091 0 0 1.065 -383.3 -560.9)" gradientUnits="userSpaceOnUse"><stop stop-color="#c52828" offset="0"/><stop stop-color="#ff5454" offset="1"/></linearGradient></defs><g transform="matrix(.2266 0 0 .2266 -51.8 16.96)" enable-background="new"><rect transform="matrix(4.414 0 0 4.414 59.28 39.36)" x="38.38" y="-19.98" width="48" height="36.22" rx="1.704" fill="url(#a)" stroke-width="1.714"/><g transform="matrix(.4034 0 0 .4034 278.1 -8.06)" fill="#fff" fill-opacity=".851"><path d="m6.727 58.45c49.79 0 47.67 79.1 0 79.1h-29.31v-79.1h29.31m1.589 100.6c77.33 0 79.1-122.2-1.589-122.2h-40.43c-5.826 0-12.18 4.591-12.18 10.95v100.3c0 7.769 6.356 10.95 12.18 10.95h42.02"/><path d="m87.74 146.9c0 7.769 5.65 12.18 12.01 12.18 6.356 0 11.12-4.414 11.12-12.18v-68.15l58.44 74.16c5.12 4.767 8.122 6.18 14.3 6.18 4.591-1.412 9.358-4.414 9.358-12.18v-99.4c0-5.826-6.18-12.18-12.54-12.18-6 0-11.12 6.356-11.12 12.18v68.51l-58.44-73.1c-4.767-4.591-6.18-6.18-12.54-6.18-9.181 0-10.59 6.18-10.59 12.54v97.64"/><path d="m326.2 136v-37.61c0-5.473-6-10.42-12.54-10.42h-35.31c-14.12 0-15.71 21.54 0 21.54h26.48v21.72c-6.533 4.767-15.71 7.945-26.48 7.945-23.13 0-40.43-15.89-40.43-42.02 0-24.9 20.66-42.02 42.02-42.02 9.181 0 18.36 4.767 24.9 11.12 10.59 9.358 26.13-6.356 15.36-16.95-10.95-10.77-26.31-15.54-40.26-15.54-37.25 0-64.97 27.72-64.97 63.39 0 42.02 26.31 63.21 63.39 63.21 15.54 0 30.9-4.414 43.43-14.83 3-3.355 4.414-6.356 4.414-9.534"/></g></g></svg>
