<svg viewBox="0 0 48 48" xmlns="http://www.w3.org/2000/svg"><defs><linearGradient id="a" x1="-124" x2="-125.2" y1="73.5" y2="-26.05" gradientTransform="matrix(1.035 0 0 1 4.382 0)" gradientUnits="userSpaceOnUse"><stop stop-color="#2e3e46" offset="0"/><stop stop-color="#435a64" offset="1"/></linearGradient></defs><g transform="translate(-384.57-499.8)"><path transform="matrix(.4778 0 0 .4778 469.1 512.9)" d="m-170.5-27.42h87.55c3.577 0 6.458 2.783 6.458 6.241v87.98c0 3.457-2.88 6.241-6.457 6.241h-87.55c-3.577 0-6.457-2.783-6.457-6.241v-87.98c0-3.457 2.88-6.241 6.457-6.241" fill="url(#a)" fill-rule="evenodd"/><g transform="translate(0 .32)"><path d="m405.9 539.1c0 3.4 5.28 3.32 5.28 0v-18.84c0-3.4-5.28-3.28-5.28 0z" fill="#e2e6e7" stroke="#e3e6e7" stroke-linecap="round" stroke-linejoin="round" stroke-width="1.5"/><circle cx="408.6" cy="509.8" r="5" color-rendering="auto" fill="#c0f41b" fill-rule="evenodd" image-rendering="auto" shape-rendering="auto"/></g></g></svg>
