<svg viewBox="0 0 48 48" xmlns="http://www.w3.org/2000/svg"><defs><linearGradient id="a" x1="-124" x2="-125.2" y1="73.5" y2="-26.05" gradientTransform="matrix(.4943 0 0 .4778 86.64 13.1)" gradientUnits="userSpaceOnUse"><stop stop-color="#c52828" offset="0"/><stop stop-color="#ff5454" offset="1"/></linearGradient></defs><path d="m2.982 0h42.04c1.652 0 2.982 1.33 2.982 2.982v42.04c0 1.652-1.33 2.982-2.982 2.982h-42.04c-1.652 0-2.982-1.33-2.982-2.982v-42.04c0-1.652 1.33-2.982 2.982-2.982" fill="url(#a)" fill-rule="evenodd"/><path d="m23.76 12.62-10.37 13.28c-1.945 2.489-1.401 6.924 1.088 8.869 2.491 1.945 6.924 1.4 8.871-1.089l10.37-13.28 1.296-1.661c1.298-1.661 0.934-4.617-0.726-5.913-1.66-1.298-4.617-0.933-5.913 0.726l-9.079 11.62-1.298 1.661c-0.649 0.83-0.467 2.307 0.362 2.956 0.831 0.649 2.309 0.467 2.958-0.363l9.08-11.62 1.66 1.298-9.08 11.62c-1.298 1.661-4.253 2.023-5.913 0.726-1.66-1.298-2.024-4.254-0.726-5.913l1.298-1.661 9.08-11.62c1.945-2.489 6.38-3.033 8.871-1.089 2.491 1.945 3.035 6.38 1.09 8.869l-11.67 14.94c-2.594 3.319-8.507 4.045-11.83 1.452-3.32-2.593-4.046-8.506-1.452-11.83l10.37-13.28 1.66 1.298" fill="#fff" fill-opacity=".855"/></svg>
