<svg viewBox="0 0 48 48" xmlns="http://www.w3.org/2000/svg"><defs><linearGradient id="a" x2="0" y1="542.8" y2="507.8" gradientTransform="matrix(1.091 0 0 1.065 -403.3 -555.9)" gradientUnits="userSpaceOnUse"><stop stop-color="#00a661" offset="0"/><stop stop-color="#37ce97" offset="1"/></linearGradient></defs><g transform="matrix(1 0 0 1 -18.37 20.88)" enable-background="new"><rect x="18.38" y="-14.98" width="48" height="36.22" rx="1.704" fill="url(#a)"/><path d="m51.94 10.52-4.129-4.129c0.995-1.436 1.493-3.038 1.493-4.803 0-1.148-0.223-2.245-0.668-3.292s-1.047-1.95-1.806-2.708c-0.758-0.758-1.661-1.36-2.708-1.806-1.048-0.445-2.145-0.668-3.293-0.668s-2.245 0.223-3.292 0.668-1.95 1.047-2.708 1.806c-0.758 0.758-1.36 1.661-1.806 2.708-0.445 1.047-0.668 2.145-0.668 3.292 0 1.148 0.223 2.245 0.668 3.292s1.047 1.95 1.806 2.708c0.758 0.759 1.661 1.36 2.708 1.806 1.047 0.445 2.145 0.668 3.292 0.668 1.766 0 3.367-0.498 4.803-1.493l4.129 4.117c0.289 0.305 0.65 0.457 1.083 0.457 0.417 0 0.779-0.152 1.083-0.457 0.305-0.305 0.457-0.666 0.457-1.083 0-0.425-0.148-0.786-0.445-1.083m-7.301-5.122c-1.055 1.055-2.325 1.583-3.81 1.583s-2.754-0.528-3.81-1.583c-1.055-1.055-1.583-2.325-1.583-3.81s0.528-2.755 1.583-3.81 2.325-1.583 3.81-1.583 2.754 0.528 3.81 1.583c1.055 1.055 1.583 2.325 1.583 3.81s-0.528 2.754-1.583 3.81" fill-opacity=".847" opacity=".721"/></g></svg>
