<svg viewBox="0 0 48 48" xmlns="http://www.w3.org/2000/svg"><defs><linearGradient id="b" x1="409.6" x2="409.9" y1="542.8" y2="501.2" gradientTransform="matrix(1.052 0 0 1.028 -72.57 -8.693)" gradientUnits="userSpaceOnUse"><stop stop-color="#08f" offset="0"/><stop stop-color="#02c3ff" offset="1"/></linearGradient><linearGradient id="a" x2="0" y1=".854" y2="49.96" gradientTransform="matrix(2.634 0 0 2.275 149.2 -57.93)" gradientUnits="userSpaceOnUse"><stop stop-color="#f4f4f4" offset="0"/><stop stop-color="#dbdbdb" offset="1"/></linearGradient></defs><g transform="matrix(1.35 0 0 1.35 1.946 -1362)"><path transform="matrix(.3 0 0 .3 4.327 1014)" d="m63 48.67h-8v-16h8c8.836 0 16-7.164 16-16s-7.164-16-16-16c-8.837 0-16 7.164-16 16v8h-16v-8c0-8.836-7.164-16-16-16s-16 7.164-16 16 7.164 16 16 16h8v16h-8c-8.836 0-16 7.164-16 16s7.164 16 16 16c8.837 0 16-7.164 16-16v-8h16v7.98 0.02c0 8.836 7.164 16 16 16s16-7.164 16-16-7.163-16-16-16m0-40c4.418 0 8 3.582 8 8s-3.582 8-8 8h-8v-8c0-4.418 3.582-8 8-8m-56 8c0-4.418 3.582-8 8-8s8 3.582 8 8v8h-8c-4.418 0-8-3.583-8-8m8 56c-4.418 0-8-3.582-8-8s3.582-8 8-8h8v8c0 4.418-3.582 8-8 8m16-24v-16h16v16h-16m32 24c-4.418 0-8-3.582-8-8v-8h7.999c4.418 0 8 3.582 8 8s-3.581 8-7.999 8" fill="#fff" fill-opacity=".847" stroke-width="1.317"/><g transform="matrix(.7677 0 0 .87 -258 564.7)"><rect x="334.2" y="513.1" width="46.3" height="34.94" rx="1.644" fill="url(#b)"/><flowRoot transform="matrix(1.718 0 0 1.718 390.3 513.8)" font-family="sans-serif" font-size="10" letter-spacing="0" word-spacing="0" line-height="125%"><flowRegion><path d="m22 3h27v15h-27z"/></flowRegion><flowPara>Plasm</flowPara></flowRoot></g><g fill-rule="evenodd"><path d="m33.64 1026c0 6.453-3.402 12.1-8.478 15.17l-17.73-0.031c-5.05-3.082-8.427-8.709-8.427-15.14 0-6.491 3.442-12.16 8.569-15.23h17.54c5.102 3.069 8.525 8.754 8.525 15.23" fill-opacity=".16" opacity=".9"/><circle cx="16.33" cy="1026" r="12.86" fill-opacity=".2" opacity=".9"/><circle cx="16.33" cy="1026" r="8" fill-opacity=".232" opacity=".9"/></g></g><g transform="matrix(.2569 0 0 .2569 -18.72 24.04)"><path d="m163.6-54.66c-6.932 0.077-14.38 0.709-19.46 5.47-7.779 7.293-6.797 12.34-7.561 22.32-1.56 20.38-0.956 48.3 3.187 68.36 1.215 5.885 6.766 10.03 12.65 11.16 4.519 0.87 9.192 1.529 13.87 1.688 4.68-0.159 9.353-0.818 13.87-1.688 5.888-1.133 11.44-5.274 12.65-11.16 4.143-20.06 4.747-47.98 3.187-68.36-0.764-9.981 0.218-15.03-7.561-22.32-5.079-4.761-12.53-5.393-19.46-5.47-0.906-1e-4 -1.805 0-2.687 0s-1.781-1e-4 -2.687 0" fill="url(#a)"/><g transform="matrix(.8168 0 0 .8143 538 144.6)" fill="#0065b3"><circle cx="-462.6" cy="-130.5" r="2.5"/><circle cx="-458.1" cy="-123" r="3"/><circle cx="-460.6" cy="-138.5" r="1.5"/><path d="m-452.1-140-2.844 2.844 4.375 4.375-4.531 5.156 3 2.625 7-8-7-7"/></g></g></svg>
