<svg viewBox="0 0 48 48" xmlns="http://www.w3.org/2000/svg"><defs><linearGradient id="a" x1="-124" x2="-125.2" y1="73.5" y2="-33.29" gradientTransform="matrix(.4943 0 0 .4778 86.64 13.1)" gradientUnits="userSpaceOnUse"><stop stop-color="#00a661" offset="0"/><stop stop-color="#37ce97" offset="1"/></linearGradient></defs><path d="m2.982 0h42.04c1.652 0 2.982 1.33 2.982 2.982v42.04c0 1.652-1.33 2.982-2.982 2.982h-42.04c-1.652 0-2.982-1.33-2.982-2.982v-42.04c0-1.652 1.33-2.982 2.982-2.982" fill="url(#a)" fill-rule="evenodd"/><g fill="#dcf4ea" stroke="#dcf4ea"><path transform="matrix(.905 0 0 .905 79.29 .672)" d="m-62.07 43.46v-3.44q-2.84-.4-5.24-2.28-2.36-1.88-3.12-5.04l3.28-1.32q.48 1.92 1.84 3.32 1.4 1.4 3.24 1.76v-9.6q-.12 0-.2-.08-7.16-2.8-7.16-8 0-2.72 2-4.8 2-2.12 5.36-2.44v-3.44h3.04v3.52q2.8.44 4.48 2.04 1.72 1.56 2.28 3.32l-3.28 1.4q-.28-1-1.2-1.88-.88-.92-2.28-1.28v9q3.48 1.44 5.4 3.24 1.96 1.76 1.96 4.72 0 3.36-2.12 5.32-2.12 1.96-5.24 2.44v3.52h-3.04zm6.72-11.2q0-1.4-.92-2.32-.92-.96-2.76-1.84v8.28q1.68-.36 2.68-1.4 1-1.08 1-2.72zm-10.4-13.48q0 2.52 3.68 4.2v-7.88q-1.68.28-2.68 1.28-1 .96-1 2.4z"/></g></svg>
