<svg viewBox="0 0 48 48" xmlns="http://www.w3.org/2000/svg"><defs><linearGradient id="c" x1="-26.21" x2="-27.53" y1="59.52" y2="34.05" gradientUnits="userSpaceOnUse"><stop stop-color="#d5dbff" offset="0"/><stop stop-color="#f9ffff" offset="1"/></linearGradient><linearGradient id="b" x1="556.4" x2="555.3" y1="468.2" y2="419.6" gradientUnits="userSpaceOnUse"><stop stop-color="#566069" offset="0"/><stop stop-color="#6c7884" offset="1"/></linearGradient><linearGradient id="a" x1="-109.5" x2="-109.6" y1="31.56" y2="1.264" gradientUnits="userSpaceOnUse"><stop stop-color="#1365f4" offset="0"/><stop stop-color="#05b2fc" offset="1"/></linearGradient></defs><g transform="matrix(.80031-.01103.01103.80031 31.33-2.991)"><rect transform="matrix(-.66071-.01326-.01326.66071 354.61-267.73)" x="504.3" y="424.2" width="76.81" height="58.99" rx="2.3" fill="url(#b)"/><rect transform="matrix(-1.227 -.2373 -.2373 1.227 -139.2 -7.543)" x="-130.5" y=".696" width="40.63" height="31.2" rx="1.217" fill="url(#a)"/><path d="m-26.71 33.94a13.08 13.08 0 0 0-13.08 13.08 13.08 13.08 0 0 0 13.08 13.07 13.08 13.08 0 0 0 13.08-13.07 13.08 13.08 0 0 0-13.08-13.08m-3.955 7.557 9.557 5.435-9.484 5.561-0.074-11" fill="url(#c)"/></g><g fill="#d9eaf7"><path d="m39.921 31.491l-2.553-2.554c-.243-.243-.167-.503.168-.578 0 0 .277-.062.618-.404.732-.732.732-1.92 0-2.651-.733-.732-1.919-.732-2.651 0-.341.341-.403.618-.403.618-.075.336-.336.411-.578.167l-2.553-2.552c-.243-.243-.641-.243-.884 0l-2.553 2.553c-.243.244-.167.504.168.579 0 0 .277.062.618.403.731.732.732 1.919 0 2.652-.732.732-1.92.731-2.651 0-.341-.341-.403-.618-.403-.618-.075-.336-.336-.411-.579-.168l-2.553 2.553c-.243.243-.243.64 0 .883l2.553 2.553c.243.243.167.503-.168.579 0 0-.277.062-.618.404-.732.732-.732 1.919 0 2.651.732.731 1.919.732 2.651 0 .341-.341.403-.618.403-.618.075-.336.336-.411.578-.167l2.553 2.552c.243.243.641.243.884 0l2.554-2.553c.243-.243.167-.504-.168-.579 0 0-.278-.062-.618-.403-.733-.732-.732-1.919 0-2.652.732-.732 1.919-.732 2.651 0 .341.341.403.618.403.618.075.336.336.411.579.168l2.553-2.554c.243-.243.243-.64 0-.883"/><path d="m20.532 16.15l-1.681 1.93c-.16.184-.347.143-.417-.09 0 0-.058-.193-.315-.417-.553-.482-1.393-.423-1.874.129-.482.554-.424 1.392.129 1.874.258.225.456.255.456.255.241.037.307.217.147.401l-1.68 1.93c-.16.184-.141.465.043.625l1.929 1.68c.184.16.364.094.401-.147 0 0 .031-.199.255-.456.482-.553 1.321-.611 1.875-.129.553.482.611 1.322.129 1.874-.225.258-.417.315-.417.315-.234.069-.274.257-.09.417l1.93 1.68c.184.16.464.14.624-.043l1.681-1.929c.16-.184.348-.143.417.09 0 0 .058.193.315.417.553.482 1.392.424 1.874-.129.481-.553.424-1.392-.129-1.874-.258-.225-.456-.255-.456-.255-.241-.037-.307-.217-.147-.401l1.68-1.93c.16-.184.141-.465-.043-.625l-1.929-1.681c-.184-.16-.364-.094-.401.147 0 0-.031.199-.255.457-.482.554-1.321.611-1.875.129-.553-.482-.611-1.321-.129-1.874.224-.258.417-.315.417-.315.234-.07.274-.257.091-.417l-1.93-1.68c-.184-.16-.464-.14-.624.043"/></g></svg>
