<svg viewBox="0 0 48 48" xmlns="http://www.w3.org/2000/svg"><defs><linearGradient id="b" x1="355.7" x2="355.7" y1="547" y2="505.3" gradientUnits="userSpaceOnUse"><stop stop-color="#1074f5" offset="0"/><stop stop-color="#02befd" offset="1"/></linearGradient><linearGradient id="a" x2="0" y1="546.8" y2="507.9" gradientTransform="matrix(-.5678 0 0 .6182 579.3 212.1)" gradientUnits="userSpaceOnUse"><stop stop-color="#d3d3d3" offset="0"/><stop stop-color="#fcf9f9" offset="1"/></linearGradient></defs><g transform="matrix(.9746 0 0 .9746 -322.3 -490)"><path d="m372.72 511.01c-4.644-3.779-10.81-5.86-17.362-5.86-6.552 0-12.718 2.081-17.362 5.86-4.684 3.812-7.264 8.892-7.264 14.306 0 5.167 2.351 10.03 6.638 13.776-.077.174-.139.357-.178.549l-1.409 6.928c-.167.823.058 1.314.276 1.581.252.308.626.478 1.052.478.322 0 .668-.095 1.029-.283l8.193-4.256c2.836.913 5.886 1.392 9.02 1.392 6.552 0 12.718-2.081 17.362-5.86 4.684-3.812 7.264-8.892 7.264-14.306 0-5.413-2.58-10.494-7.264-14.306" fill="url(#b)"/><path transform="matrix(.889 0 0 .889 -1.96 55.68)" d="m391.17 520.83c0-1.791 1.456-3.244 3.251-3.244 1.795 0 3.251 1.453 3.251 3.244 0 1.792-1.456 3.245-3.251 3.245-1.795 0-3.251-1.453-3.251-3.245m14.742 0c0-1.791 1.458-3.244 3.252-3.244 1.795 0 3.251 1.453 3.251 3.244 0 1.792-1.456 3.245-3.251 3.245-1.794 0-3.252-1.453-3.252-3.245m7.687 13.288c-2.01 4.649-6.734 7.654-12.02 7.654-5.401 0-10.147-3.02-12.09-7.692-.333-.8.047-1.719.849-2.052.197-.081.402-.12.603-.12.617 0 1.202.364 1.453.968 1.456 3.497 5.062 5.757 9.187 5.757 4.03 0 7.617-2.261 9.134-5.761.345-.796 1.271-1.163 2.067-.817.799.344 1.166 1.268.821 2.063" fill="#fff" fill-opacity=".85"/><path d="m358.65 529.15c2.322-2.058 5.405-3.191 8.681-3.191 3.276 0 6.359 1.133 8.681 3.191 2.342 2.075 3.632 4.841 3.632 7.788 0 2.813-1.176 5.46-3.319 7.5.039.095.069.194.089.299l.704 3.772c.084.448-.029.716-.138.861-.126.168-.313.26-.526.26-.161 0-.334-.052-.514-.154l-4.096-2.317c-1.418.497-2.943.758-4.512.758-3.276 0-6.359-1.133-8.681-3.191-2.342-2.075-3.632-4.841-3.632-7.788 0-2.947 1.29-5.713 3.632-7.788" fill="url(#a)"/><g transform="matrix(1.073 0 0 1.073 -59.63 -48.55)" fill="#0d83f7"><circle cx="393" cy="545.5" r="2.084" opacity=".837"/><circle cx="397.8" cy="545.5" r="2.084" opacity=".837"/><circle cx="402.8" cy="545.5" r="2.084" opacity=".837"/></g></g></svg>
