<svg viewBox="0 0 48 48" xmlns="http://www.w3.org/2000/svg"><defs><linearGradient id="c" x1="469" x2="469.4" y1="76.87" y2="-3.038" gradientUnits="userSpaceOnUse"><stop stop-color="#fefffe" offset="0"/><stop stop-color="#f1f1f0" offset="1"/></linearGradient><linearGradient id="b" x1="468.9" x2="467.5" y1="130.4" y2="-75.34" gradientUnits="userSpaceOnUse"><stop stop-color="#124da4" offset="0"/><stop stop-color="#2896ff" offset="1"/></linearGradient><linearGradient id="a" x1="469" x2="472.2" y1="122.2" y2="36.36" gradientTransform="matrix(.99787 0 0 1 .79.581)" gradientUnits="userSpaceOnUse"><stop stop-color="#2381dd" offset="0"/><stop stop-color="#2381dd" offset="1"/></linearGradient></defs><g transform="matrix(.24746-.00107.00107.24746-92.09 14.499)"><rect transform="matrix(1 .00434 -.00434 1 0 0)" x="376.8" y="-53.56" width="184.1" height="183.9" rx="11.36" fill="url(#b)"/><path d="m376.7 38.88 183.8 0.798 4.689 70.61s2.183 11.54-10.96 11.52l-170.1-0.26c-14.5 0.194-12.24-12.19-12.24-12.19z" fill="url(#a)" fill-rule="evenodd"/><g fill="#fff" fill-opacity=".851"><path d="m463 75.11h-48.53v-10.24q21.81-21.92 27.94-28.6 5.454-6.121 7.346-9.238 1.892-3.228 1.892-7.902 0-4.786-3.784-8.459t-10.13-3.673q-5.787 0-9.349 3.45-3.561 3.339-4.563 7.234l-9.349-3.784q1.892-6.01 7.902-11.35t15.58-5.342q10.57 0 17.36 6.455t6.789 15.47q0 11.13-12.13 23.82l-22.26 22.37h35.28v9.794"/><path d="m496.8 76.89q-7.679 0-14.91-4.786-7.234-4.786-10.02-14.25l9.349-3.895q1.781 6.233 5.899 9.683t9.683 3.45q6.233 0 10.68-3.895 4.563-3.895 4.563-9.683 0-5.676-4.674-9.571-4.563-3.895-11.02-3.895h-6.566v-9.571h5.787q6.01 0 9.905-3.339 4.01-3.339 4.01-8.904 0-5.231-3.895-8.236-3.784-3-9.46-3-9.794 0-13.24 9.905l-9.46-4.01q2.226-6.121 7.902-10.91t14.8-4.786q10.24 0 17.03 6.01 6.789 5.899 6.789 15.02 0 11.02-10.24 16.36v0.445q5.565 2.337 9.126 7.123 3.673 4.786 3.673 11.35 0 10.13-7.457 16.81-7.457 6.566-18.25 6.566"/></g></g></svg>
