<svg viewBox="0 0 48 48" xmlns="http://www.w3.org/2000/svg" xmlns:xlink="http://www.w3.org/1999/xlink"><defs><linearGradient id="c" x1="-124" x2="-125.2" y1="73.5" y2="-26.05" gradientTransform="matrix(.4943 0 0 .4778 86.64 13.1)" gradientUnits="userSpaceOnUse" xlink:href="#a"/><linearGradient id="a" x1="-124" x2="-125.2" y1="73.5" y2="-26.05" gradientTransform="matrix(.4943 0 0 .4778 86.64 13.1)" gradientUnits="userSpaceOnUse"><stop stop-color="#2b65bd" offset="0"/><stop stop-color="#64a3dc" offset="1"/></linearGradient><linearGradient id="b" x1="22.62" x2="23.8" y1="47.47" y2=".53" gradientUnits="userSpaceOnUse" xlink:href="#a"/></defs><path d="m2.982 0h42.04c1.652 0 2.982 1.33 2.982 2.982v42.04c0 1.652-1.33 2.982-2.982 2.982h-42.04c-1.652 0-2.982-1.33-2.982-2.982v-42.04c0-1.652 1.33-2.982 2.982-2.982" fill="url(#c)" fill-rule="evenodd"/><path d="m42.998 19.721c.613.385 1.061.11.995-.611l-1.025-11.291c-.066-.721-.674-1.103-1.352-.849l-10.618 3.975c-.678.254-.731.777-.118 1.162l1.969 1.237c.613.385.789 1.195.391 1.8l-8.02 12.189c-.398.605-1.278.89-1.955.633l-12.472-4.723c-.677-.256-1.608-.009-2.069.549l-7.833 9.482c-.461.558-.842 1.607-.845 2.331l-.04 7.744c-.003.724.379.867.851.318l10.09-11.749c.472-.549 1.412-.789 2.088-.532l12.565 4.762c.677.257 1.559-.027 1.96-.629l11.246-16.882c.401-.603 1.231-.78 1.844-.395l2.356 1.481" fill="#fff" fill-opacity=".851"/><path d="m3.619 0.727h40.76c1.602 0 2.892 1.29 2.892 2.892v40.76c0 1.602-1.29 2.892-2.892 2.892h-40.76c-1.602 0-2.892-1.29-2.892-2.892v-40.76c0-1.602 1.29-2.892 2.892-2.892z" fill="none" fill-rule="evenodd" stroke="url(#b)" stroke-width="1.455"/></svg>
