<svg viewBox="0 0 48 48" xmlns="http://www.w3.org/2000/svg"><defs><linearGradient id="a" x1="-124" x2="-125.2" y1="73.5" y2="-26.05" gradientUnits="userSpaceOnUse"><stop stop-color="#5dae33" offset="0"/><stop stop-color="#9be058" offset="1"/></linearGradient></defs><g transform="matrix(.4778 0 0 .4778-49.31-56.708)" fill-rule="evenodd"><g transform="translate(280.2 146.1)"><rect x="-175.3" y="-27.42" width="97.1" height="100.5" rx="6.241" fill="url(#a)"/><g fill="#357719"><circle cx="-164" cy="-17.74" r="3.5"/><circle cx="-154.8" cy="-17.74" r="3.5"/><circle cx="-145.5" cy="-17.74" r="3.5"/></g></g><path d="m178.95 150.66l-10.177.006c-1.095 0-1.974.642-1.973 1.44l.043 47.12c.0001.797.881 1.437 1.976 1.437l10.174-.003c1.095 0 1.977-.642 1.976-1.44l-.043-47.12c-.0001-.797-.881-1.44-1.976-1.44m-20.656 12.878l-10.174.006c-1.095 0-1.977.642-1.976 1.44l.043 34.14c.0001.797.881 1.44 1.976 1.44l10.177-.003c1.095 0 1.974-.642 1.973-1.44l-.041-34.14c-.0001-.797-.884-1.44-1.979-1.44m-19.903 13.07l-10.174.003c-1.095 0-1.975.642-1.973 1.44l.038 21.16c.0001.797.884 1.44 1.979 1.44l10.177-.003c1.095 0 1.975-.642 1.973-1.44l-.041-21.16c-.0001-.797-.884-1.44-1.979-1.44" fill="#357719"/></g></svg>
