<svg viewBox="0 0 48 48" xmlns="http://www.w3.org/2000/svg"><defs><linearGradient id="a" x1="-126.1" x2="-127.3" y1="69.3" y2="-29.39" gradientUnits="userSpaceOnUse"><stop stop-color="#197cf1" offset="0"/><stop stop-color="#20bcfa" offset="1"/></linearGradient></defs><g transform="matrix(.4986 0 0 .482 88.22 14.82)"><rect x="-177" y="-30.75" width="96.27" height="99.6" rx="2.789" fill="url(#a)" fill-rule="evenodd"/><path transform="matrix(.2163 0 0 .2238 -177 -30.75)" d="m437.5 16.52v170c0 4.971-4.03 9-9 9-4.971 0-9-4.03-9-9v-23.67h-119.3v119.3h25.33c4.971 0 9 4.03 9 9 0 4.971-4.03 9-9 9h-25.33v119.3h25.33c4.971 0 9 4.03 9 9 0 4.971-4.03 9-9 9h-34.14c-0.063 1e-4 -0.127 2e-3 -0.191 2e-3 -0.063 0-0.127-1e-4 -0.191-2e-3h-137c-0.125 3e-3 -0.254 3e-3 -0.382 0h-137.1c-4.97 0-9-4.03-9-8.999l-1e-3 -136.7c-0.013-0.2-0.02-0.4-0.02-0.604 0-0.202 7e-3 -0.402 0.02-0.602l-1e-3 -136.3c-6e-3 -0.142-1e-3 -0.283-1e-3 -0.427 0-0.143 3e-3 -0.284 1e-3 -0.426l-1e-3 -136.9c0-2.388 0.948-4.677 2.636-6.364 1.688-1.689 3.977-2.637 6.364-2.637h412c4.97 0 9 4.03 9 9m-292.7 283.7h-119.3l9e-3 119.3h119.3v-119.3zm0-137.3h-119.3l8e-3 119.3h119.3zm0-137.3h-119.3l9e-3 119.3h119.3v-119.3m137.3 274.7h-119.3v119.3h119.3zm0-137.3h-119.3v119.3h119.3zm0-137.3h-119.3v119.3h119.3zm137.3 0h-119.3v119.3h119.3v-119.3z" fill-opacity=".448"/><path transform="matrix(-.2163 0 0-.22379-80.68 68.844)" d="m437.5 16.52v170c0 4.971-4.03 9-9 9-4.971 0-9-4.03-9-9v-23.67h-119.3v119.3h25.33c4.971 0 9 4.03 9 9 0 4.971-4.03 9-9 9h-25.33v119.3h25.33c4.971 0 9 4.03 9 9 0 4.971-4.03 9-9 9h-34.14c-0.063 1e-4 -0.127 2e-3 -0.191 2e-3 -0.063 0-0.127-1e-4 -0.191-2e-3h-137c-0.125 3e-3 -0.254 3e-3 -0.382 0h-137.1c-4.97 0-9-4.03-9-8.999l-1e-3 -136.7c-0.013-0.2-0.02-0.4-0.02-0.604 0-0.202 7e-3 -0.402 0.02-0.602l-1e-3 -136.3c-6e-3 -0.142-1e-3 -0.283-1e-3 -0.427 0-0.143 3e-3 -0.284 1e-3 -0.426l-1e-3 -136.9c0-2.388 0.948-4.677 2.636-6.364 1.688-1.689 3.977-2.637 6.364-2.637h412c4.97 0 9 4.03 9 9m-292.7 283.7h-119.3l9e-3 119.3h119.3v-119.3zm0-137.3h-119.3l8e-3 119.3h119.3zm0-137.3h-119.3l9e-3 119.3h119.3v-119.3m137.3 274.7h-119.3v119.3h119.3zm0-137.3h-119.3v119.3h119.3zm0-137.3h-119.3v119.3h119.3zm137.3 0h-119.3v119.3h119.3v-119.3z" fill="#115c89"/><g transform="matrix(.34328 0 0 .35515-93.38-7.43)"><path d="m-183.2 17.24h-7.507v-46.51l-10.85 4.733-2.856-6.365 16.4-7.67h4.814v55.81" fill="#fff" fill-opacity=".889"/><path d="m-106 82.24q-6.528 0-12-5.304-5.467-5.385-5.467-12.97 0-7.425 5.63-13.06 5.712-5.63 13.46-5.63 8.323 0 13.71 5.712 5.467 5.63 5.467 12.97 0 7.589-6.528 17.14l-15.18 22.6-6.04-4.161 13.3-18.44-0.163-0.163q-2.04 1.306-6.201 1.306m1.632-29.7q-4.733 0-8.16 3.264-3.345 3.264-3.345 8.08 0 4.733 3.345 8.08 3.427 3.264 8.16 3.264t8.16-3.264q3.427-3.345 3.427-8.08 0-4.814-3.427-8.08-3.345-3.264-8.16-3.264" fill="#e6f6fe"/></g><path d="m-156.3 60.5h-2.577v-16.52l-3.725 1.681-0.98-2.26 5.63-2.724h1.653v19.82" fill="#e6f6fe"/></g></svg>
