<svg viewBox="0 0 48 48" xmlns="http://www.w3.org/2000/svg"><defs><linearGradient id="a" x1="58.17" x2="56.75" y1="26.67" y2="-19.33" gradientUnits="userSpaceOnUse"><stop stop-color="#00a661" offset="0"/><stop stop-color="#37ce97" offset="1"/></linearGradient></defs><g enable-background="new"><rect transform="matrix(1 0 0 1 -33.37 20.88)" x="34.52" y="-19.73" width="45.71" height="45.71" rx="22.86" fill="url(#a)" stroke="url(#a)" stroke-width="2.286"/></g><g transform="matrix(.6528 0 0 .6528 9 9)" fill="#dcf4ea"><path d="m45.1 15.176c-2.826-2.239-7.411-4.072-13.918-1.454-1.082-1.193-2.318-2.141-3.661-2.814.474-1.08.748-2.337.748-3.686 0-3.988-2.371-7.222-5.294-7.222-2.926 0-5.296 3.234-5.296 7.222 0 1.348.276 2.605.747 3.686-1.341.673-2.578 1.621-3.66 2.814-6.508-2.62-11.09-.786-13.919 1.453-.526.417-.726 1.125-.498 1.756.229.631.834 1.046 1.506 1.03 3.197-.076 6.675 1.093 9.289 2.233-.636 2.01-.99 4.214-.99 6.528 0 3.949 1.032 7.573 2.748 10.453-1.882 2.394-2.531 4.963-2.641 7.146-.034.67.367 1.287.992 1.53.625.246 1.336.063 1.767-.45 1.152-1.377 2.662-2.56 4.219-3.55 1.728 1.146 3.672 1.807 5.737 1.807 2.064 0 4.01-.66 5.736-1.807 1.558.99 3.066 2.173 4.218 3.55.434.515 1.145.696 1.77.45.625-.242 1.023-.859.99-1.53-.108-2.183-.759-4.752-2.641-7.146 1.716-2.88 2.748-6.504 2.748-10.453 0-2.313-.354-4.52-.99-6.528 2.613-1.141 6.092-2.309 9.289-2.234.671.017 1.277-.398 1.505-1.03.226-.629.026-1.337-.501-1.754"/></g></svg>
