<svg viewBox="0 0 48 48" xmlns="http://www.w3.org/2000/svg" xmlns:xlink="http://www.w3.org/1999/xlink"><defs><linearGradient id="d" x1="407.2" x2="424.1" y1="515.8" y2="532.6" gradientUnits="userSpaceOnUse" xlink:href="#a"/><linearGradient id="e" x1="415.3" x2="414.6" y1="537.1" y2="510.4" gradientUnits="userSpaceOnUse" xlink:href="#a"/><linearGradient id="c" x1="414.6" x2="414.2" y1="535.9" y2="514" gradientUnits="userSpaceOnUse" xlink:href="#b"/><linearGradient id="f" x1="391.6" x2="390.9" y1="531.8" y2="507.7" gradientTransform="matrix(.8324 0 0 1.026 73.95 -9.715)" gradientUnits="userSpaceOnUse"><stop stop-color="#d3d3d3" offset="0"/><stop stop-color="#fcf9f9" offset="1"/></linearGradient><linearGradient id="a"><stop stop-color="#222c35" offset="0"/><stop stop-color="#545e67" offset="1"/></linearGradient><linearGradient id="h" x2="0" y1="542.8" y2="507.8" gradientTransform="matrix(1.16 0 0 1.133 -71.44 -91.02)" gradientUnits="userSpaceOnUse" xlink:href="#b"/><linearGradient id="g" x1="401.2" x2="401.1" y1="512.4" y2="509.8" gradientUnits="userSpaceOnUse" xlink:href="#a"/><linearGradient id="b"><stop stop-color="#0173dd" offset="0"/><stop stop-color="#00b1ff" offset="1"/></linearGradient></defs><g transform="matrix(.8228 0 0 .8228 -309.7 -396.5)"><rect x="377" y="484.3" width="51.05" height="38.52" rx="1.813" fill="url(#h)" stroke-width=".999"/><g stroke-width=".768"><rect x="398.2" y="510.1" width="4.61" height="2.305" rx=".768" fill="url(#g)"/><rect x="394.1" y="511.4" width="39.96" height="24.63" rx="1.153" fill="url(#f)"/></g><path d="m401.3 523.8a14 14 0 0 1 14-14 14 14 0 0 1 14 14 14 14 0 0 1-14 14 14 14 0 0 1-14-14" fill="url(#e)"/><circle cx="415.3" cy="523.8" r="11" fill="url(#d)"/><circle cx="415.3" cy="523.8" r="10" fill="url(#c)"/></g></svg>
