<svg viewBox="0 0 48 48" xmlns="http://www.w3.org/2000/svg" xmlns:xlink="http://www.w3.org/1999/xlink"><defs><path id="a" d="m22 3h27v15h-27z"/><linearGradient id="b" x1="409.6" x2="409.9" y1="542.8" y2="501.2" gradientTransform="matrix(1.052 0 0 1.028 -72.57 -8.693)" gradientUnits="userSpaceOnUse"><stop stop-color="#2e3e46" offset="0"/><stop stop-color="#47606a" offset="1"/></linearGradient></defs><g transform="translate(-384.57-499.8)"><g transform="matrix(1.032 0 0 1.032 39.5 -24)"><rect x="334.2" y="513.1" width="46.3" height="34.94" rx="1.644" fill="url(#b)"/><g transform="matrix(.9686 0 0 .9686 -94.88 22.86)" font-family="sans-serif" font-size="10" letter-spacing="0" word-spacing="0" line-height="125%"><flowRoot transform="translate(389.6 520.8)"><flowRegion><use xlink:href="#a"/></flowRegion><flowPara>Plasm</flowPara></flowRoot><g transform="matrix(1.576 0 0 1.576 -222.9 -314.5)"><flowRoot transform="translate(389.6 520.8)"><flowRegion><use xlink:href="#a"/></flowRegion><flowPara>Plasm</flowPara></flowRoot><flowRoot transform="translate(420.8 512.6)" fill="#fff" fill-opacity=".852"><flowRegion><use fill="#fff" fill-opacity=".852" xlink:href="#a"/></flowRegion><flowPara>Plasm</flowPara></flowRoot></g></g></g><g fill="#fff" fill-opacity=".85"><path transform="matrix(.1173 0 0 .1173 397.2 508)" d="m192.5 60.57c-1.489-4.625-5.243-10.77-14.66-13.82-2.275-0.738-4.692-1.108-7.199-1.108-19.52 0-42.75 23.88-54.44 37.53-4.298-6.1-11.37-10.11-19.38-10.11-8.02 0-15.08 4.02-19.39 10.11-11.68-13.65-34.92-37.54-54.44-37.54-2.506 0-4.93 0.376-7.2 1.108-9.415 3.057-13.17 9.207-14.66 13.83-4.061 12.61 4.01 28.18 9.08 36.22-5.071 8.04-13.14 23.6-9.08 36.22 1.496 4.623 5.249 10.77 14.66 13.82 2.27 0.745 4.693 1.111 7.2 1.111 19.52 0 42.76-23.89 54.45-37.53 4.297 6.1 11.37 10.11 19.38 10.11 8.01 0 15.08-4.01 19.38-10.11 11.69 13.65 34.92 37.53 54.44 37.53 2.507 0 4.924-0.378 7.199-1.111 9.416-3.05 13.17-9.203 14.66-13.82 4.061-12.61-4.01-28.18-9.08-36.22 5.066-8.04 13.13-23.6 9.08-36.22"/><g transform="matrix(.7032 0 0 .7032 121.3 185.1)"><circle cx="408.6" cy="492.6" r="2.75"/><circle cx="408.6" cy="485.3" r="2.75"/><circle cx="408.6" cy="499.7" r="2.75"/></g></g></g></svg>
