<svg viewBox="0 0 48 48" xmlns="http://www.w3.org/2000/svg"><defs><linearGradient id="a" x1="-124" x2="-125.2" y1="73.5" y2="-26.05" gradientTransform="matrix(.4943 0 0 .4778 311.2 567.2)" gradientUnits="userSpaceOnUse"><stop stop-color="#c52828" offset="0"/><stop stop-color="#ff5454" offset="1"/></linearGradient></defs><g transform="translate(-224.6 -554.1)"><rect x="224.6" y="554.1" width="48" height="48" rx="2.982" color-rendering="auto" fill="url(#a)" fill-rule="evenodd" image-rendering="auto" shape-rendering="auto" solid-color="#000000" isolation="auto" mix-blend-mode="normal"/><path d="m243.64 562.08c-.143 0-5.769 3.337-5.987 3.553-.116.116-.091.204.178.647 2.972 4.894 4.951 8.273 4.883 8.333-.047.041-1.838.021-3.978-.046-2.141-.066-4.388-.127-4.993-.131h-1.101l-.053 3.574c-.033 2.1-.021 3.609.03 3.662.081.086 6.328-.055 8.894-.2.885-.05 1.074-.035 1.118.081.03.081-.371.85-.932 1.787-.542.905-1.701 2.842-2.575 4.303-.874 1.461-1.57 2.708-1.546 2.772.061.163 5.765 3.507 5.993 3.513.176 0 1.476-2.355 4.444-8.07.222-.428.467-.778.543-.778.084 0 .959 1.568 2.252 4.04 2.673 5.1 2.599 4.96 2.649 4.96.024 0 .651-.367 1.394-.811.743-.445 2.108-1.257 3.035-1.808.927-.551 1.685-1.043 1.685-1.091 0-.049-.883-1.563-1.964-3.367-1.081-1.804-2.253-3.761-2.605-4.349-.36-.601-.607-1.108-.561-1.155.046-.047 2.235-.021 5 .06 2.706.081 4.958.116 5 .072.107-.102.171-7.178.065-7.245-.046-.029-2.106.014-4.578.095-5.371.175-5.491.176-5.491.046 0-.056.863-1.533 1.916-3.282 3.145-5.223 3.301-5.492 3.257-5.565-.023-.04-.567-.375-1.207-.751-.641-.376-1.984-1.171-2.987-1.766-1-.594-1.864-1.079-1.914-1.079-.08 0-1.995 3.537-4.061 7.509-.489.94-.794 1.426-.884 1.41-.076-.014-1.187-2.024-2.468-4.47-1.327-2.533-2.385-4.448-2.459-4.449z" fill="#fff" fill-opacity=".85"/></g></svg>
