<svg viewBox="0 0 48 48" xmlns="http://www.w3.org/2000/svg"><defs><linearGradient id="a" x1="400.5" x2="400.7" y1="546.1" y2="517.8" gradientUnits="userSpaceOnUse"><stop stop-color="#197ff1" offset="0"/><stop stop-color="#21c6fb" offset="1"/></linearGradient></defs><circle transform="matrix(1.714 0 0 1.714 -662.7 -887.7)" cx="400.6" cy="531.8" r="14" fill="url(#a)"/><circle transform="matrix(1.714 0 0 1.714 -662.7 -887.7)" cx="400.6" cy="531.8" r="14" fill="#5ea5fb" fill-opacity="0"/><path transform="matrix(.7616 0 0 .7616 54.67 5.191)" d="m-41.94 4.213-16.05 9.08 7.758 4.385 8.291-4.682v-8.783m3.342 0v8.783l8.283 4.695 7.76-4.385-16.04-9.09m-1.674 10.47-9.307 5.264-4e-3 10.54 9.303 5.271 9.307-5.264 4e-3 -10.54-9.303-5.271m-19.39 1.447-6e-3 18.16 7.76-4.385v-9.393l-7.754-4.385m38.78 0.014-7.758 4.385v9.391l7.752 4.385 6e-3 -18.16m-29.35 16.6-7.76 4.393 16.05 9.09v-8.783l-8.291-4.703m19.92 0.014-8.285 4.682v8.783l16.04-9.07-7.76-4.391" fill="#ddeffd"/></svg>
