<svg viewBox="0 0 48 48" xmlns="http://www.w3.org/2000/svg"><defs><linearGradient id="a" x1="27.46" x2="26.44" y1="47.39" y2="1.017" gradientUnits="userSpaceOnUse"><stop stop-color="#ffbc00" offset="0"/><stop stop-color="#ffec00" offset="1"/></linearGradient></defs><path d="m2.98-2e-3h42.04c1.652 0 2.982 1.33 2.982 2.982v42.04c0 1.652-1.33 2.982-2.982 2.982h-42.04c-1.652 0-2.982-1.33-2.982-2.982v-42.04c0-1.652 1.33-2.982 2.982-2.982" fill="url(#a)" fill-rule="evenodd"/><g fill="#fefefe" fill-opacity=".855" stroke="#fef9d9" stroke-linecap="round" stroke-linejoin="round" stroke-width="7.467"><path transform="matrix(.10387 0 0 .10387-.846-1.612)" d="m366.07 168.66l-124.12-71.66c-1.702-.982-3.798-.982-5.5 0l-124.13 71.65c-1.702.982-2.75 2.798-2.75 4.764l.012 146.24c0 1.964 1.048 3.779 2.749 4.762l124.11 71.71c.851.492 1.801.738 2.751.738.949 0 1.899-.246 2.75-.737l124.12-71.66c1.702-.982 2.75-2.798 2.75-4.763v-146.29c0-1.965-1.048-3.781-2.75-4.763zm-245.5 14.299l113.13 65.31-.0001 133.58-113.1-65.35-.011-133.54m237.24 133.59c0 .003-.009-.003-.009 0z" fill-opacity=".855"/></g></svg>
