<svg viewBox="0 0 48 48" xmlns="http://www.w3.org/2000/svg"><defs><linearGradient id="c" x1="-50.12" x2="-50.69" y1="23.74" y2="-22.48" gradientUnits="userSpaceOnUse"><stop stop-color="#dce2ff" offset="0"/><stop stop-color="#f8feff" offset="1"/></linearGradient><linearGradient id="b" x1="10.37" x2="10.11" y1="50.6" y2="-.747" gradientUnits="userSpaceOnUse"><stop stop-color="#ff9300" offset="0"/><stop stop-color="#ffd702" offset="1"/></linearGradient><linearGradient id="a" x2="0" y1="18.76" y2="1.078" gradientUnits="userSpaceOnUse"><stop stop-color="#ffbf01" offset="0"/><stop stop-color="#ffd402" offset="1"/></linearGradient></defs><g transform="matrix(.9685 0 0 .9685 73.79 23.8)" enable-background="new"><g fill-rule="evenodd"><rect x="-73.94" y="-23.11" width="45.08" height="46.64" rx="2.898" fill="url(#c)" stroke-width=".464"/><path transform="matrix(.97176 0 0 .97176-74.72-23.11)" d="m3.784 0h40.43c1.652 0 2.982 1.33 2.982 2.982v42.04c0 1.652-1.33 2.982-2.982 2.982h-40.43c-1.652 0-2.982-1.33-2.982-2.982v-42.04c0-1.652 1.33-2.982 2.982-2.982" fill="none" stroke="url(#b)" stroke-linecap="round" stroke-linejoin="round" stroke-width="3"/><path transform="translate(-75.4-23.792)" d="m26.11 1.091 19.93 17.67 6e-3 -17.68" fill="url(#a)"/></g><path d="m-58.78-7.795c-2.67 0-4.82 2.149-4.82 4.82 0 2.67 2.149 4.82 4.82 4.82 2.67 0 4.82-2.149 4.82-4.82 0-2.67-2.15-4.82-4.82-4.82zm9.207 0.194v9.214h9.214v-9.214h-9.214zm-12.65 12.2v9.639h6.885v-9.639h-6.885zm16.91 0.589-5.177 8.904 10.3 0.031-5.122-8.936z" fill="#ffa200" stroke="#ffa200" stroke-linecap="round" stroke-linejoin="round" stroke-width=".968"/></g></svg>
