<svg viewBox="0 0 48 48" xmlns="http://www.w3.org/2000/svg"><defs><linearGradient id="c" x1="150.3" x2="149.7" y1="47.54" y2="1.316" gradientUnits="userSpaceOnUse"><stop stop-color="#dce2ff" offset="0"/><stop stop-color="#f8feff" offset="1"/></linearGradient><linearGradient id="b" x1="10.37" x2="10.11" y1="50.6" y2="-.747" gradientUnits="userSpaceOnUse"><stop stop-color="#566069" offset="0"/><stop stop-color="#6c7884" offset="1"/></linearGradient><linearGradient id="a" x2="0" y1="18.76" y2="1.078" gradientUnits="userSpaceOnUse"><stop stop-color="#646f7a" offset="0"/><stop stop-color="#6b7783" offset="1"/></linearGradient></defs><g transform="matrix(.9685 0 0 .9685 -120.3 .752)"><g fill-rule="evenodd"><rect x="126.5" y=".678" width="45.08" height="46.64" rx="2.898" fill="url(#c)" stroke-width=".464"/><path transform="matrix(.9718 0 0 .9718 125.7 .678)" d="m3.784 0h40.43c1.652 0 2.982 1.33 2.982 2.982v42.04c0 1.652-1.33 2.982-2.982 2.982h-40.43c-1.652 0-2.982-1.33-2.982-2.982v-42.04c0-1.652 1.33-2.982 2.982-2.982" fill="none" stroke="url(#b)" stroke-linecap="round" stroke-linejoin="round" stroke-width="3"/><path transform="translate(125)" d="m26.11 1.091 19.93 17.67 6e-3 -17.68" fill="url(#a)"/></g><path d="m155.15 34.26c-3.472-2.715-1.022-13.883-1.022-13.883 0 0 3.801 0 4.244 0 .443 0 2.179-.278 2.179-2.358 0-2.558-2.122-2.401-2.122-2.401 0 0-11.632 0-15.625 0-2.565 0-4.88 2.937-6.209 5.04-.707 1.122-.307 1.436.907.907 4.258-1.865 5.459-1.193 5.459-1.193.3 1.436.4 7.917-.693 10.474-1.107 2.408-3.151 5.459-.15 7.252 2.344 1.329 4.801-1.401 4.558-6.04-.114-2.458-.307-11.674-.307-11.674h3.916c-.122 1.436-.786 8.767-.093 13.11.721 7.252 8.602 5.844 10.07 1.737.364-1.136.279-2.01.006-2.665-.5-1.222-1.336-1.286-1.243-.714.057.364.022.721-.036 1.043-.172.993-2.201 2.55-3.844 1.372z" fill="#5e6973" opacity=".9"/></g></svg>
