<svg viewBox="0 0 48 48" xmlns="http://www.w3.org/2000/svg"><defs><linearGradient id="a" x1="23.8" x2="23.6" y1="46.58" y2=".407" gradientUnits="userSpaceOnUse"><stop stop-color="#74cb32" offset="0"/><stop stop-color="#abeb6b" offset="1"/></linearGradient></defs><path d="m2.98-2e-3h42.04c1.652 0 2.982 1.33 2.982 2.982v42.04c0 1.652-1.33 2.982-2.982 2.982h-42.04c-1.652 0-2.982-1.33-2.982-2.982v-42.04c0-1.652 1.33-2.982 2.982-2.982" fill="url(#a)" fill-rule="evenodd"/><circle cx="24" cy="24" r="18.46" fill="none" fill-opacity=".732" stroke="#2c3e1b" stroke-linecap="round" stroke-linejoin="round" stroke-width="3.077"/><path d="m11.236 20c-.451 0-.813.364-.813.814v6.371c0 .451.362.814.813.814h6.373c.451 0 .814-.364.814-.814v-1.254h18.746c.225 0 .406-.181.406-.406v-2.848c0-.225-.181-.406-.406-.406h-18.746v-1.457c0-.451-.364-.814-.814-.814h-6.373" fill="#2c3e1b"/></svg>
