<svg viewBox="0 0 48 48" xmlns="http://www.w3.org/2000/svg"><defs><linearGradient id="c" x1="-140.9" x2="-141.4" y1="47.54" y2="1.316" gradientUnits="userSpaceOnUse"><stop stop-color="#dce2ff" offset="0"/><stop stop-color="#f8feff" offset="1"/></linearGradient><linearGradient id="b" x1="10.37" x2="10.11" y1="50.6" y2="-.747" gradientUnits="userSpaceOnUse"><stop stop-color="#5dae33" offset="0"/><stop stop-color="#9be058" offset="1"/></linearGradient><linearGradient id="a" x2="0" y1="18.76" y2="1.078" gradientUnits="userSpaceOnUse"><stop stop-color="#84cd4a" offset="0"/><stop stop-color="#99de57" offset="1"/></linearGradient></defs><g transform="matrix(.9685 0 0 .9685 161.7 .755)" fill-rule="evenodd"><rect x="-164.7" y=".678" width="45.08" height="46.64" rx="2.898" fill="url(#c)" stroke-width=".464"/><path transform="matrix(.9718 0 0 .9718 -165.5 .678)" d="m3.784 0h40.43c1.652 0 2.982 1.33 2.982 2.982v42.04c0 1.652-1.33 2.982-2.982 2.982h-40.43c-1.652 0-2.982-1.33-2.982-2.982v-42.04c0-1.652 1.33-2.982 2.982-2.982" fill="none" stroke="url(#b)" stroke-linecap="round" stroke-linejoin="round" stroke-width="3"/><path transform="translate(-166.1)" d="m26.11 1.091 19.93 17.67 6e-3 -17.68" fill="url(#a)"/><path d="m-131.79 16.14l-4.478.003c-.482 0-.869.283-.868.633l.019 20.732c0 .351.388.632.869.632h4.477c.482 0 .87-.283.869-.633l-.019-20.732c0-.351-.388-.634-.869-.633m-9.09 5.666l-4.477.003c-.482 0-.87.283-.869.633l.019 15.02c0 .351.388.634.869.633h4.478c.482 0 .869-.283.868-.633l-.018-15.02c0-.351-.389-.634-.871-.633m-8.757 5.751l-4.477.0001c-.482 0-.869.283-.868.633l.017 9.31c0 .351.389.633.871.633h4.478c.482 0 .869-.283.868-.633l-.018-9.31c0-.351-.389-.634-.871-.633" fill="#70bd3e"/></g></svg>
