<svg viewBox="0 0 48 48" xmlns="http://www.w3.org/2000/svg" xmlns:xlink="http://www.w3.org/1999/xlink"><defs><linearGradient id="c" x2="0" y1="45.95" y2="25.99" gradientUnits="userSpaceOnUse" xlink:href="#a"/><linearGradient id="d" x1="98.65" x2="98.44" y1="19.36" y2="16.25" gradientUnits="userSpaceOnUse" xlink:href="#a"/><linearGradient id="a"><stop stop-color="#0a80fd" offset="0"/><stop stop-color="#56c5fa" offset="1"/></linearGradient><linearGradient id="e" x1="82.46" x2="82.74" y1="30.49" y2="24.59" gradientUnits="userSpaceOnUse"><stop stop-color="#060606" offset="0"/><stop stop-color="#343434" offset="1"/></linearGradient><linearGradient id="f" x1="-847.1" x2="-843.9" y1="191.1" y2="-181.9" gradientTransform="matrix(.07412 0 0 .06784 145.5 26.06)" gradientUnits="userSpaceOnUse" xlink:href="#b"/><linearGradient id="h" x1="81.26" x2="81.41" y1="14.55" y2="2.154" gradientUnits="userSpaceOnUse" xlink:href="#b"/><linearGradient id="g" x1="81.4" x2="81.51" y1="11.64" y2=".651" gradientUnits="userSpaceOnUse"><stop stop-color="#cdced2" offset="0"/><stop stop-color="#f1f1f1" offset="1"/></linearGradient><linearGradient id="b"><stop stop-color="#1f1f1f" offset="0"/><stop stop-color="#444" offset="1"/></linearGradient></defs><g transform="matrix(1 0 0 1 -58.37 .582)" enable-background="new"><rect x="67.28" y="6.357" width="30.26" height="10.47" rx=".654" fill="url(#h)"/><rect x="70.27" y=".741" width="24.21" height="13.09" rx=".685" fill="url(#g)"/><rect x="58.37" y="12.9" width="48" height="26.5" rx="1.559" fill="url(#f)"/><path d="m96.4 16.42a1.472 1.472 0 0 0-1.472 1.472 1.472 1.472 0 0 0 1.472 1.472 1.472 1.472 0 0 0 1.472-1.472 1.472 1.472 0 0 0-1.472-1.472m4.253 0a1.472 1.472 0 0 0-1.472 1.472 1.472 1.472 0 0 0 1.472 1.472 1.472 1.472 0 0 0 1.472-1.472 1.472 1.472 0 0 0-1.472-1.472" fill="url(#d)"/><rect x="70.51" y="27.46" width="23.72" height="18.65" rx=".965" fill="url(#c)"/><path d="m71.17 26.15h22.41c1.178 0 2.127 0.949 2.127 2.127v0.164 2.127h-26.67v-2.127-0.164c0-1.178 0.949-2.127 2.127-2.127" fill="url(#e)"/></g></svg>
