<svg viewBox="0 0 48 48" xmlns="http://www.w3.org/2000/svg"><defs><linearGradient id="a" x1="24.61" x2="23.59" y1="47.59" y2="-.203" gradientUnits="userSpaceOnUse"><stop stop-color="#197ff1" offset="0"/><stop stop-color="#21c6fb" offset="1"/></linearGradient></defs><rect width="48" height="48" rx="2.982" fill="url(#a)" fill-rule="evenodd"/><g transform="matrix(.11217 0 0 .11217.095-.244)"><g fill="#def2fe"><path d="m130.4 360h-64.99v-194.2h64.99v194.2"/><path d="m97.91 139.3h-0.437c-21.79 0-35.92-14.9-35.92-33.56 0-19.03 14.54-33.54 36.77-33.54 22.23 0 35.9 14.5 36.33 33.54 0 18.66-14.1 33.56-36.74 33.56"/><path d="m364.7 360h-64.97v-103.9c0-26.11-9.413-43.92-32.91-43.92-17.97 0-28.64 12.02-33.33 23.62-1.736 4.144-2.166 9.94-2.166 15.73v108.5h-64.95s0.85-176 0-194.2h64.96v27.53c8.624-13.23 24.03-32.1 58.53-32.1 42.76 0 74.82 27.74 74.82 87.41v111.4"/></g><path d="m230.88 193.99c.111-.182.266-.401.42-.614v.614h-.42"/></g></svg>
