<svg viewBox="0 0 48 48" xmlns="http://www.w3.org/2000/svg"><defs><linearGradient id="c" x1="24.01" x2="24.4" y1="47.59" y2="1.017" gradientUnits="userSpaceOnUse"><stop stop-color="#2f3f47" offset="0"/><stop stop-color="#425963" offset="1"/></linearGradient><linearGradient id="b" x1="24.01" x2="24.4" y1="47.59" y2="1.017" gradientUnits="userSpaceOnUse"><stop stop-color="#197cf1" offset="0"/><stop stop-color="#21c9fb" offset="1"/></linearGradient><linearGradient id="a" x1="229" x2="222.3" y1="303" y2="-169.2" gradientUnits="userSpaceOnUse"><stop stop-color="#0a80fd" offset="0"/><stop stop-color="#56c5fa" offset="1"/></linearGradient></defs><path d="m45.4 10.663c-.014-1.08-.845-1.972-1.921-2.071-8.937-.836-16.23-5.612-18.635-7.359-.502-.366-1.183-.366-1.686 0-2.4 1.747-9.693 6.523-18.63 7.359-1.075.099-1.902.991-1.921 2.071-.108 7.05 1.024 30.981 20.856 36.31.352.094.723.094 1.075 0 19.832-5.321 20.964-29.26 20.861-36.31" fill="url(#c)" stroke="url(#b)" stroke-linecap="round" stroke-linejoin="round" stroke-width="1.92"/><path transform="matrix(.06159 0 0 .06159 10 10)" d="m286.3 318.2h-17.47l26.31-219.1c0.708-5.89-1.709-13.69-5.621-18.16l-53.01-60.44c-2.372-2.704-5.721-4.255-9.189-4.255s-6.816 1.551-9.188 4.255l-53.02 60.44c-3.912 4.461-6.328 12.27-5.621 18.16l26.31 219.1h-17.47c-8.412 0-15.26 6.844-15.26 15.26v18.98c0 8.412 6.844 15.26 15.26 15.26h37.12v33.14c-10.01 6.95-16.59 18.52-16.59 31.61 0 21.21 17.25 38.46 38.46 38.46 21.21 0 38.46-17.25 38.46-38.46 0-13.09-6.574-24.66-16.59-31.61v-33.14h37.12c8.412 0 15.26-6.844 15.26-15.26v-18.98c2e-3 -8.412-6.842-15.26-15.25-15.26" fill="url(#a)"/></svg>
