<svg viewBox="0 0 48 48" xmlns="http://www.w3.org/2000/svg"><defs><linearGradient id="b" x1="24.61" x2="23.59" y1="47.59" y2="-.203" gradientUnits="userSpaceOnUse"><stop stop-color="#dce2ff" offset="0"/><stop stop-color="#f8feff" offset="1"/></linearGradient><linearGradient id="a" x1="98.14" x2="98.75" y1="1033" y2="1008" gradientUnits="userSpaceOnUse"><stop stop-color="#0973d9" offset="0"/><stop stop-color="#0cbffe" offset="1"/></linearGradient></defs><g fill-rule="evenodd"><rect width="48" height="48" rx="2.982" fill="url(#b)"/><path transform="translate(-75.05-996.23)" d="m103.3 1008.98l1.521 5.722 2.153.292-5.733 8.677 4.058 1.342 2.663-3.856 1.048 4.687 5.895.607-2.777-8.646 4.92-5.803-5.476-1.224-2.197 2.654-1.074-3.434-5-1.017m-17.563 2.443l-.112.155-4.577 2.272 5.684 13.946 7.783-4.078-1.949-4.509-3.138 1.692-3.691-9.479m4.946 2.312l4.32 9.989-.923 6.855 5.353.901 1.292-7.638 5.278-7.994-5.759-.782-2.14 3.252-1.698-3.762-5.722-.822" fill="url(#a)"/></g></svg>
