<svg viewBox="0 0 48 48" xmlns="http://www.w3.org/2000/svg" xmlns:xlink="http://www.w3.org/1999/xlink"><defs><linearGradient id="a"><stop stop-color="#0ba97d" offset="0"/><stop stop-color="#11e19b" offset="1"/></linearGradient><linearGradient id="b" x1="13.22" x2="13.61" y1="36.05" y2="15.46" gradientUnits="userSpaceOnUse" xlink:href="#a"/><linearGradient id="c" x1="10.8" x2="10.47" y1="42.53" y2="15.83" gradientUnits="userSpaceOnUse" xlink:href="#a"/><linearGradient id="e" x2="0" y1="42.48" y2="28.9" gradientUnits="userSpaceOnUse"><stop stop-color="#c52828" offset="0"/><stop stop-color="#ff5454" offset="1"/></linearGradient><linearGradient id="d" x1="10.8" x2="10.47" y1="42.53" y2="15.83" gradientUnits="userSpaceOnUse"><stop stop-color="#197cf1" offset="0"/><stop stop-color="#20bcfa" offset="1"/></linearGradient></defs><g transform="matrix(1.714 0 0 1.714 5.789 -26.49)" enable-background="new"><g fill-rule="evenodd"><path d="m-1.346 15.458h22.808c.896 0 1.618.747 1.618 1.674v23.597c0 .927-.722 1.674-1.618 1.674h-22.808c-.896 0-1.618-.747-1.618-1.674v-23.597c0-.927.722-1.674 1.618-1.674" fill="url(#d)"/><path d="m-1.346 15.458h22.808c.896 0 1.618.747 1.618 1.674v9.01c0 .927-.761 1.411-1.618 1.674l-22.808 7-1.618-.274v-17.414c0-.927.721-1.674 1.618-1.674" fill="url(#c)"/><path d="m5.887 15.458h15.575c.896 0 1.618.747 1.618 1.674v9.01c0 .927-.761 1.411-1.618 1.674l-7.116 2.217-1.618-.274-8.458-12.631c-.516-.771.721-1.674 1.618-1.674" fill="url(#b)"/><g fill="#dafcfc"><path d="m-2.964 33.82 26.05-8.167v2.102l-26.05 8.167z"/><path d="m11.27 32.01-8.167-16.53h2.452l8.167 16.53z"/></g></g><circle cx="16.61" cy="35.86" r="7.601" fill="url(#e)"/><path d="m16.498 31.388c-1.809 0-3.275 1.466-3.275 3.275 0 .138.011.273.028.407.28 2.558 3.035 5.507 3.035 5.507.049.055.096.089.142.113l.002.0001.092.029.092-.029.002-.0001c.046-.025.093-.06.142-.113 0 0 2.715-2.954 2.988-5.513.016-.132.027-.266.027-.402-.0001-1.808-1.466-3.275-3.275-3.275m0 5.382c-1.161 0-2.107-.945-2.107-2.107 0-1.161.945-2.107 2.107-2.107 1.161 0 2.106.945 2.106 2.107 0 1.161-.945 2.107-2.106 2.107" fill="#fafafa" fill-opacity=".903" stroke-width="1.317"/></g></svg>
