<svg viewBox="0 0 48 48" xmlns="http://www.w3.org/2000/svg" xmlns:xlink="http://www.w3.org/1999/xlink"><defs><linearGradient id="a" x2="0" y1="47.37" y2="-1.429" gradientUnits="userSpaceOnUse"><stop stop-color="#c52828" offset="0"/><stop stop-color="#ff5454" offset="1"/></linearGradient><linearGradient id="b" x1="409.2" x2="408.7" y1="550.5" y2="496.2" gradientUnits="userSpaceOnUse" xlink:href="#a"/></defs><g enable-background="new"><circle transform="matrix(1 0 0 1 -58.37 .882)" cx="82.37" cy="23.12" r="24" fill="url(#a)"/></g><g transform="matrix(.9309 0 0 .9309 -356.4 -463.5)" fill="#fbe4e4" stroke="url(#b)" stroke-linecap="square" stroke-linejoin="bevel" stroke-width=".914"><g stroke-width=".686"><path d="m409.1 503.7-4.454 6.976 3.999 5.652 4.454-5.564-3.999-7.06" fill-rule="evenodd"/><path d="m409.1 503.7-4.454 6.976 3.999 5.652 4.454-5.564-3.999-7.06z"/><path d="m413.1 510.8-4.454 5.564 7.636-3.091 4.908-5.563-8.09 3.091" fill-rule="evenodd"/><path d="m413.1 510.8-4.454 5.564 7.636-3.091 4.908-5.563-8.09 3.091z"/><path d="m416.3 513.24l-.092 8.302 4.274-5.563.726-8.302-4.908 5.563" fill-rule="evenodd"/><path d="m416.3 513.24l-.092 8.302 4.274-5.563.726-8.302-4.908 5.563z"/><path d="m420.5 516-4.273 5.563 6.636 2.384 5.635-6.447-7.998-1.501" fill-rule="evenodd"/><path d="m420.5 516-4.273 5.563 6.636 2.384 5.635-6.447-7.998-1.501z"/><path d="m422.8 523.9-6.638-2.384 4.819 6.094 7.636 3-5.818-6.711" fill-rule="evenodd"/><path d="m422.8 523.9-6.638-2.384 4.819 6.094 7.636 3-5.818-6.711z"/><path d="m421 527.6-7.636 2.031 6.999 1.943 8.273-0.972-7.636-3" fill-rule="evenodd"/><path d="m421 527.6-7.636 2.031 6.999 1.943 8.273-0.972-7.636-3z"/><path d="m420.4 531.6-6.999-1.943-0.454 6.447 7.636 3.974-0.183-8.478" fill-rule="evenodd"/><path d="m420.4 531.6-6.999-1.943-0.454 6.447 7.636 3.974-0.183-8.478z"/><path d="m408.8 536.2-0.091 7.683 4.273-7.771 0.454-6.447-4.636 6.535" fill-rule="evenodd"/><path d="m408.8 536.2-0.091 7.683 4.273-7.771 0.454-6.447-4.636 6.535z"/><path d="m404.7 510.7-7.998-3.268 4.636 6 7.363 2.915-4-5.652" fill-rule="evenodd"/><path d="m404.7 510.7-7.998-3.268 4.636 6 7.363 2.915-4-5.652z"/><path d="m401.3 513.4-4.637-6 0.909 8.655 4 4.945-0.272-7.595" fill-rule="evenodd"/><path d="m401.3 513.4-4.637-6 0.909 8.655 4 4.945-0.272-7.595z"/><path d="m397.6 516.1-8.09 1.413 5.909 5.916 6.182-2.384-4-4.945" fill-rule="evenodd"/><path d="m397.6 516.1-8.09 1.413 5.909 5.916 6.182-2.384-4-4.945z"/><path d="m395.4 523.4-6.909 6.359 8-2.472 5.091-6.27-6.182 2.384" fill-rule="evenodd"/><path d="m395.4 523.4-6.909 6.359 8-2.472 5.091-6.27-6.182 2.384z"/><path d="m396.5 527.3-8 2.472 9.183 1.413 6.635-1.324-7.818-2.561" fill-rule="evenodd"/><path d="m396.5 527.3-8 2.472 9.183 1.413 6.635-1.324-7.818-2.561z"/><path d="m404.3 529.8-6.636 1.326-1.454 9.01 8.181-4.151-0.091-6.182" fill-rule="evenodd"/><path d="m404.3 529.8-6.636 1.326-1.454 9.01 8.181-4.151-0.091-6.182z"/><path d="m404.3 529.85l.091 6.182 4.273 7.859.091-7.683-4.454-6.359" fill-rule="evenodd"/><path d="m404.3 529.85l.091 6.182 4.273 7.859.091-7.683-4.454-6.359z"/><path d="m408.75 523.84l7.453-2.296.092-8.302-7.636 3.091.091 7.507" fill-rule="evenodd"/><path d="m408.75 523.84l7.453-2.296.092-8.302-7.636 3.091.091 7.507z"/><path d="m416.2 521.6-7.453 2.296 4.636 5.828 7.636-2.031-4.819-6.093" fill-rule="evenodd"/><path d="m416.2 521.6-7.453 2.296 4.636 5.828 7.636-2.031-4.819-6.093z"/><path d="m408.8 523.8-4.454 6 4.454 6.359 4.636-6.535-4.636-5.828" fill-rule="evenodd"/><path d="m408.8 523.8-4.454 6 4.454 6.359 4.636-6.535-4.636-5.828z"/><path d="m396.5 527.3 7.818 2.561 4.454-6-7.181-2.826-5.091 6.27" fill-rule="evenodd"/><path d="m396.5 527.3 7.818 2.561 4.454-6-7.181-2.826-5.091 6.27z"/><path d="m408.8 523.8-0.091-7.507-7.364-2.915 0.274 7.595 7.181 2.826" fill-rule="evenodd"/><path d="m408.8 523.8-0.091-7.507-7.364-2.915 0.274 7.595 7.181 2.826z"/></g><g letter-spacing="0" word-spacing="0" line-height="125%"><flowRoot transform="matrix(1.305 0 0 1.305 458.3 -824.2)" font-family="'Helvetica 65 Medium'" font-size="35" font-weight="500" stroke-width=".701"><flowRegion><path d="m4.5-48.75h38.75v38.75h-38.75z" stroke-width=".701"/></flowRegion><flowPara/></flowRoot><text x="359.34" y="509.8" font-family="'URW Chancery L'" font-size="52.18" font-style="italic" font-weight="bold" stroke-width=".914"><tspan x="359.34" y="509.8"/></text></g></g></svg>
