<svg viewBox="0 0 48 48" xmlns="http://www.w3.org/2000/svg"><defs><linearGradient id="a" x1="-124" x2="-125.2" y1="73.5" y2="-26.05" gradientTransform="matrix(.4943 0 0 .4778 86.64 13.1)" gradientUnits="userSpaceOnUse"><stop stop-color="#197ff1" offset="0"/><stop stop-color="#21c6fb" offset="1"/></linearGradient></defs><rect width="48" height="48" rx="2.982" fill="url(#a)" fill-rule="evenodd"/><g fill="#ddf1fe"><path d="m23.268 33.841c-4.538 0-8.447 1.961-10.39 4.793-.947-.807-2.243-1.28-3.659-1.28-2.469 0-4.514 1.512-5.085 3.549-1.613.066-3.057.53-4.134 1.207v2.849c.053 3.077 2.956 3.041 2.956 3.041h42.27c0 0 2.775-.164 2.775-2.947v-2.285c-.237-.087-.475-.146-.732-.146-.912 0-1.732.585-2.268 1.5-1.144-2.922-4.141-5.01-7.683-5.01-1.077 0-2.095.198-3.037.549-1.628-3.381-5.942-5.817-11.01-5.817"/><g transform="matrix(1.125 0 0 1.125-3-1.425)"><path d="m18 19h12v10h6v-10c0-3.314-2.686-6-6-6h-18v16h6v-10"/><path d="m27 28.12v-6.125h-6v6.125z"/></g></g></svg>
