<svg viewBox="0 0 48 48" xmlns="http://www.w3.org/2000/svg" xmlns:xlink="http://www.w3.org/1999/xlink"><defs><linearGradient id="c" x2="0" y1="546.3" y2="501.5" gradientUnits="userSpaceOnUse" xlink:href="#a"/><linearGradient id="a"><stop stop-color="#197cf1" offset="0"/><stop stop-color="#20bcfa" offset="1"/></linearGradient><linearGradient id="b" x1="408.8" x2="407.8" y1="546.3" y2="501.5" gradientUnits="userSpaceOnUse" xlink:href="#a"/></defs><g transform="matrix(1.072 0 0 1.072 -413.2 -537.6)"><circle cx="407.8" cy="523.9" r="22.39" fill="url(#c)"/><path d="m395.7 506.2c2.133-3.165 1.4-1.179 4.895-2.02l1-0.612c0.398-0.045 1.2-0.383 1.556-0.404l3.273-0.188v20.33c1.072-0.323 2.221-0.416 3.357-0.273 1.978 0.25 3.751 1.178 4.991 2.615s1.799 3.21 1.574 4.993c-0.418 3.309-3.515 5.805-7.204 5.805-0.346 0-0.698-0.022-1.045-0.066-3.825-0.483-6.6-3.516-6.6-7.213v-19.95c-0.287-0.019-0.575-0.029-0.855-0.029-3.372 0-6.472 1.411-8.966 4.079-1.028 1.1-1.749 2.194-2.174 2.918-0.104 0.178-0.308 0.272-0.511 0.236s-0.362-0.194-0.399-0.397c-0.409-2.246 2.138-5.409 4.509-8.927z" fill="#fff" fill-opacity=".853" stroke-width="1.317"/><circle cx="407.8" cy="523.9" r="21.43" fill="none" stroke="url(#b)" stroke-linecap="round" stroke-linejoin="round" stroke-width="1.914"/></g></svg>
