<svg viewBox="0 0 48 48" xmlns="http://www.w3.org/2000/svg" xmlns:xlink="http://www.w3.org/1999/xlink"><defs><linearGradient id="d" x1="96.68" x2="96.33" y1="490.4" y2="462.8" gradientUnits="userSpaceOnUse" xlink:href="#a"/><linearGradient id="c" x1="44.16" x2="44.26" y1="490.6" y2="461.9" gradientUnits="userSpaceOnUse" xlink:href="#a"/><linearGradient id="b" x1="72.85" x2="72.29" y1="491.2" y2="462.7" gradientTransform="matrix(1.0021 0 0 1-.15.002)" gradientUnits="userSpaceOnUse" xlink:href="#a"/><linearGradient id="a"><stop stop-color="#2e3436" offset="0"/><stop stop-color="#555753" offset="1"/></linearGradient><linearGradient id="e" x1="70.03" x2="66.53" y1="569.2" y2="491.1" gradientUnits="userSpaceOnUse"><stop stop-color="#0bac83" offset="0"/><stop stop-color="#10da96" offset="1"/></linearGradient></defs><g transform="translate(-384.57-499.8)"><g transform="matrix(.3987 0 0 .3987 379.8 317.7)"><rect x="11.9" y="465.2" width="120.4" height="106.8" rx="5.03" fill="url(#e)"/><g fill-rule="evenodd"><path d="m18.54 462.2h107.1c3.856 0 6.711 3.098 6.711 6.947v21.9h-120.5v-21.9c0-3.848 2.855-6.947 6.711-6.947z" fill="url(#b)" stroke="url(#b)" stroke-linecap="round" stroke-linejoin="round" stroke-width=".107"/><g fill="#fff" fill-opacity=".948" stroke-width="1.125"><path d="m79.77 490.5h19.1l14.93-13.2-14.93-14.61h-19.1l13.53 14.61z" stroke="url(#d)"/><path d="m31.68 490.5h19.1l14.93-13.2-14.93-14.61h-19.1l13.53 14.61z" stroke="url(#c)"/></g></g></g><path d="m417.08 528.29c-.063-.082-.145-.131-.246-.147l-2.144-.328c-.117-.375-.277-.758-.481-1.148.141-.195.351-.471.633-.826.281-.356.48-.615.598-.779.063-.086.094-.176.094-.27 0-.109-.027-.195-.082-.258-.281-.399-.926-1.063-1.934-1.992-.094-.078-.191-.117-.293-.117-.117 0-.211.035-.281.105l-1.664 1.254c-.32-.164-.672-.309-1.055-.434l-.328-2.156c-.008-.102-.053-.186-.135-.252-.082-.067-.178-.1-.287-.1h-2.601c-.227 0-.367.109-.422.328-.102.391-.215 1.117-.34 2.18-.367.117-.723.266-1.066.445l-1.617-1.254c-.102-.078-.203-.117-.305-.117-.172 0-.541.279-1.107.838-.566.559-.951.979-1.154 1.26-.07.102-.105.191-.105.27 0 .094.039.188.117.281.523.633.941 1.172 1.254 1.617-.195.359-.348.719-.457 1.078l-2.18.328c-.086.016-.16.067-.223.152-.063.086-.094.176-.094.269v2.602c0 .102.031.193.094.275.063.082.145.131.246.147l2.145.316c.109.383.269.769.48 1.16-.141.195-.352.471-.633.826-.281.356-.481.615-.598.779-.063.086-.094.176-.094.27 0 .102.027.191.082.269.305.422.949 1.078 1.934 1.969.086.086.184.129.293.129.117 0 .215-.035.293-.105l1.652-1.254c.32.164.672.309 1.055.434l.328 2.156c.008.102.053.186.135.252.082.067.178.1.287.1h2.602c.227 0 .367-.109.422-.328.101-.391.215-1.117.34-2.18.367-.117.723-.266 1.066-.445l1.617 1.266c.109.07.211.105.305.105.172 0 .539-.277 1.101-.832.563-.555.949-.977 1.16-1.266.07-.078.106-.168.106-.269 0-.102-.039-.199-.117-.293-.562-.688-.98-1.227-1.254-1.617.156-.289.309-.645.457-1.066l2.168-.328c.094-.016.172-.067.234-.153.062-.086.094-.176.094-.27v-2.601c0-.102-.031-.193-.094-.275m-6.785 3.674c-.586.586-1.293.879-2.121.879-.828 0-1.535-.293-2.121-.879-.586-.586-.879-1.293-.879-2.121 0-.828.293-1.535.879-2.121.586-.586 1.293-.879 2.121-.879.828 0 1.535.293 2.121.879.586.586.879 1.293.879 2.121 0 .828-.293 1.535-.879 2.121" fill-opacity=".628"/></g></svg>
