<svg viewBox="0 0 48 48" xmlns="http://www.w3.org/2000/svg" xmlns:xlink="http://www.w3.org/1999/xlink"><defs><linearGradient id="b" x2="0" y1="46.45" y2="1.155" gradientUnits="userSpaceOnUse" xlink:href="#a"/><linearGradient id="a" x1="-124" x2="-125.2" y1="73.5" y2="-26.05" gradientTransform="matrix(.4943 0 0 .4778 86.64 13.1)" gradientUnits="userSpaceOnUse"><stop stop-color="#2b65bd" offset="0"/><stop stop-color="#64a3dc" offset="1"/></linearGradient></defs><rect width="48" height="48" rx="2.982" fill="url(#a)" fill-rule="evenodd"/><path transform="translate(-82.67 -1e3)" d="m99.08 1007.08c-.502 0-.943.031-1.331.072-1.344.14-2.732.458-3.162.737-.121.079.743.296 2.235.571 1.339.246 2.31.471 2.164.499-.146.029-2.234-.188-4.66-.499-4.259-.547-4.435-.578-4.731-.309-.618.56-1.505 2.106-1.688 2.925-.177.793-.157.882.238 1.688.673 1.375 1.909 2.365 4.755 3.804 1.346.681 2.418 1.268 2.378 1.308-.04.04-1.18-.387-2.544-.951l-2.473-1.022-3.638 1.022c-2 .56-3.807 1.022-3.889 1.022l-.058 23.13h3.234c0-.239 7.987-9.951 8.155-9.914.096.02 3.655 1.545 7.918 3.376 7.28 3.127 7.768 3.307 7.965 3.043.298-.399 1.336-2.541 1.878-3.899l.452-1.141-.785-.428c-1.099-.601-2.7-1.942-3.709-3.091-.921-1.049-2.592-3.593-2.592-3.947 0-.117.544.42 1.189 1.189 1.812 2.159 5.991 5.545 6.253 5.064.311-.571.509-2.257.499-4.208-.012-2.383-.345-4.24-1.165-6.8l-.452-1.427-2.259-.713-2.782-.88c-.982-.309-.391-.297 1.046.025 1.718.384 3.484.72 4.565.856.952.12 1.158-.082 1.26-1.141.13-1.35-.738-5.086-1.617-6.943-.351-.741-.51-.891-1.213-1.213-2.046-.937-7.921-1.818-11.436-1.807z" fill="#e6eff9"/><rect x=".96" y=".96" width="46.08" height="46.08" rx="2.863" fill="none" fill-rule="evenodd" stroke="url(#b)" stroke-width="1.92"/></svg>
