<svg viewBox="0 0 48 48" xmlns="http://www.w3.org/2000/svg" xmlns:xlink="http://www.w3.org/1999/xlink"><defs><linearGradient id="d" x2="0" y1="87.12" y2="-92.87" gradientUnits="userSpaceOnUse" xlink:href="#c"/><linearGradient id="a"><stop stop-color="#63983f" offset="0"/><stop stop-color="#a7ff69" offset="1"/></linearGradient><linearGradient id="e" x2="0" y1="67.12" y2="-2.875" gradientUnits="userSpaceOnUse" xlink:href="#b"/><linearGradient id="f" x1="28.38" x2="39.55" y1="-10.24" y2="-76.24" gradientUnits="userSpaceOnUse" xlink:href="#a"/><linearGradient id="g" x2="0" y1="107.1" y2="-102.9" gradientUnits="userSpaceOnUse" xlink:href="#a"/><linearGradient id="b"><stop stop-color="#d83b38" offset="0"/><stop stop-color="#f37370" offset="1"/></linearGradient><linearGradient id="i" x2="0" y1="72.12" y2="2.125" gradientUnits="userSpaceOnUse" xlink:href="#c"/><linearGradient id="h" x1="-69.96" x2="-69.2" y1="-2.769" y2="-71.78" gradientUnits="userSpaceOnUse" xlink:href="#b"/><linearGradient id="c"><stop stop-color="#014b7a" offset="0"/><stop stop-color="#039eff" offset="1"/></linearGradient></defs><g transform="matrix(.198 0 0 .198 27.3 24.34)" enable-background="new" fill-rule="evenodd"><path d="m52.55-75.6-39.18 11.82v70.9h25z" fill="url(#f)"/><path d="m23.38 63.12 29.06 9v-75z" fill="url(#e)"/><path d="m-16.62 119.5 40-26.8 29-92.6v72l31-20v-107.4l-30.8-20.3-29 75.5v-95.9l-40.2-26.9z" fill="url(#d)"/><path d="m-85.8-75.6 39.18 11.82v70.9h-25z" fill="url(#h)"/><path d="m-56.62 63.12-29.06 9v-75z" fill="url(#i)"/><path d="m-16.62 119.5-40-26.8-29-92.6v72l-31-20v-107.4l30.8-20.3 29 75.5v-95.9l40.2-26.9z" fill="url(#g)"/></g></svg>
