<svg viewBox="0 0 48 48" xmlns="http://www.w3.org/2000/svg" xmlns:xlink="http://www.w3.org/1999/xlink"><defs><linearGradient id="d" x1="-26.39" x2="-25.89" y1="73.1" y2="-11.72" gradientUnits="userSpaceOnUse"><stop stop-color="#ffbc00" offset="0"/><stop stop-color="#ffec00" offset="1"/></linearGradient><linearGradient id="c" x1="19.28" x2="18.49" y1="13.77" y2="-49.63" gradientUnits="userSpaceOnUse"><stop stop-color="#74cb32" offset="0"/><stop stop-color="#abeb6b" offset="1"/></linearGradient><linearGradient id="e" x1="-54.2" x2="-53.91" y1="5.668" y2="-58.64" gradientUnits="userSpaceOnUse"><stop stop-color="#197ff1" offset="0"/><stop stop-color="#21c6fb" offset="1"/></linearGradient><linearGradient id="f" x1="27.46" x2="26.44" y1="47.39" y2="1.017" gradientUnits="userSpaceOnUse" xlink:href="#a"/><linearGradient id="a"><stop stop-color="#2e3436" offset="0"/><stop stop-color="#555753" offset="1"/></linearGradient><linearGradient id="b" x1="-46.07" x2="-45.13" y1="107.6" y2="-95.68" gradientUnits="userSpaceOnUse" xlink:href="#a"/></defs><g transform="matrix(1.714 0 0 1.714 15.79 -1.488)" enable-background="new"><path transform="matrix(.5833 0 0 .5833-9.209.869)" d="m2.98-2e-3h42.04c1.652 0 2.982 1.33 2.982 2.982v42.04c0 1.652-1.33 2.982-2.982 2.982h-42.04c-1.652 0-2.982-1.33-2.982-2.982v-42.04c0-1.652 1.33-2.982 2.982-2.982" fill="url(#f)" fill-rule="evenodd"/><g transform="matrix(.1357 0 0 .1357 8.55 13.92)"><path d="m-8.494-6.01c7.477-12.5 14.99-24.9 22.08-38.54 3.736-7.125 8.467-7.481 14.17-1.25 11.45 13.15 20.48 29.05 15.62 60.83-0.933 6.146-5.04 11.48-12.92 8.542-10.99-5.261-21.68-8.703-32.5-12.92-7.05-2.482-11.05-7.914-6.458-16.67" fill="url(#c)"/><path d="m-100.2 2.527c1.482-14.09 8.273-25.81 17.15-37.43 10.8-14.15 32.55-24.99 53.9-25.91 7.82 1.197 14.33 4.03 15 14.17-1.147 14.99-2.556 29.89-4.583 44.58-1.618 13.67-9.886 17.86-20.62 18.54-15.7 0.145-31.39 0.088-47.08-0.208-9.254-0.788-13.38-5.744-13.75-13.75" fill="url(#e)"/><path d="m-56.9-5.52c12.46-7.504 32.6-7.491 45.62-4.571 16.99 3.811 32.64 14.99 43 31.37 6.292 9.453 4.307 16 0.417 21.88-11.1 17.25-25.12 26.66-41.57 31.22-14.14 3.92-39.03 3.305-51.67-3.697-2.126-1.263-4.288-2.486-6.315-4.04-12.17-8.338-13.45-23.96-12.5-34.83 1-11.49 6.709-26.24 17.89-33.97 1.647-1.162 3.306-2.363 5.139-3.35z" fill="url(#d)" stroke="url(#b)" stroke-width="4.3"/></g></g></svg>
