<svg viewBox="0 0 48 48" xmlns="http://www.w3.org/2000/svg" xmlns:xlink="http://www.w3.org/1999/xlink"><defs><linearGradient id="b" x1="24.21" x2="23.9" y1="42.34" y2="6.094" gradientUnits="userSpaceOnUse"><stop stop-color="#197ff1" offset="0"/><stop stop-color="#21c6fb" offset="1"/></linearGradient><linearGradient id="a" x1="-124" x2="-125.2" y1="73.5" y2="-26.05" gradientTransform="matrix(.4943 0 0 .4778 86.64 13.1)" gradientUnits="userSpaceOnUse"><stop stop-color="#e1e1e1" offset="0"/><stop stop-color="#f4f4ff" offset="1"/></linearGradient><linearGradient id="d" x1="-10.77" x2="-11.23" y1="4.675" y2="-22.85" gradientTransform="matrix(1.774 0 0 1.714 42.46 39.38)" gradientUnits="userSpaceOnUse" xlink:href="#a"/><linearGradient id="c" x1="-5.35" x2="-5.405" y1="43.61" y2="4.215" gradientUnits="userSpaceOnUse" xlink:href="#a"/></defs><g enable-background="new"><rect width="48" height="48" rx="3.085" fill="url(#d)" stroke-width="1.714"/></g><g transform="matrix(1.25 0 0 1.25 30.831-5.618)"><path transform="matrix(.8 0 0 .8-24.665 4.495)" d="m23.98 5.924c-0.027-0.019-3.226 2.093-7.109 4.689s-7.095 4.753-7.137 4.793c-0.084 0.081 14.22 9.727 14.43 9.736 0.159 0 14.22-9.4 14.19-9.494-0.013-0.043-13.16-8.941-14.37-9.725m-15.26 10.73c-0.027 0-0.047 3.365-0.047 7.479v7.479l7.246 4.814c3.986 2.648 7.267 4.813 7.291 4.813s0.043-3.361 0.043-7.469v-7.469l-7.242-4.822c-3.983-2.652-7.264-4.824-7.291-4.824m30.54 0.316c-0.011 0-3.279 2.184-7.26 4.848l-7.236 4.844-2e-3 7.348c-1e-4 4.04 0.017 7.348 0.041 7.348s3.29-2.173 7.26-4.828l7.219-4.826v-7.369c0-4.053-9e-3 -7.366-0.021-7.363" fill="url(#b)" opacity=".987"/><path d="m-6.646 38.957l-12.42-8.264v-1.842-11.475-.614c1.736-1.136.336-.218 1.133-.756l11.1-7.414c1.353-.901.012 0 1.37-.897 12.12 8.05 9.148 6.07 12.656 8.406.954.698.177.144.944.708v.519.047 11.475 1.842c-3.512 2.337-.514.342-.85.567l-11.57 7.697-.614.378c-.427.275 1.849-1.195-.567.36-1.121-.711-.001 0-1.181-.738m.425-1.558v-11.712l-.094-.142-.331-.189-10.909-7.272v11.759zm1.511 0l11.334-7.556v-11.523l-11.334 7.556zm-.567-12.987l11.05-7.367-11.239-7.509-11.1 7.367 10.767 7.178" fill="url(#c)" opacity=".987"/></g></svg>
