<svg viewBox="0 0 48 48" xmlns="http://www.w3.org/2000/svg"><defs><linearGradient id="a" x2="0" y1="545.1" y2="518.1" gradientUnits="userSpaceOnUse"><stop stop-color="#197ff1" offset="0"/><stop stop-color="#21c6fb" offset="1"/></linearGradient></defs><g transform="matrix(1 0 0 1 -38.37 25.88)" enable-background="new"><g transform="matrix(1.714 0 0 1.714 -624.3 -913.5)"><circle cx="400.6" cy="531.8" r="14" fill="url(#a)"/><circle cx="400.6" cy="531.8" r="14" fill="#5ea5fb" fill-opacity="0"/></g><path transform="matrix(.0486 0 0 -.0486 37.44 23.87)" d="m531 753v-75.91l256-160.6v120l-256 160.6v-44.1m-244.4 33.98c-26.09 0-47.64-22.19-47.64-48.28v-38.76l260-162.4v122.8l-203.4 126.6h-8.97m-47.64-248.2 260-162.4v124.8l-260 162.4v-124.8m292-20.94 256-160.6v122.8l-256 160.6v-122.8m-292-134.5 260-162.4v119l-260 162.4v-119m292-26.66 194.1-121.8h15.42c26.09 0 46.43 22.19 46.43 48.29v37.58l-256 160.6v-124.8" fill="#fff" fill-opacity=".851"/></g></svg>
