<svg viewBox="0 0 48 48" xmlns="http://www.w3.org/2000/svg" xmlns:xlink="http://www.w3.org/1999/xlink"><defs><linearGradient id="b" x1="24.17" x2="23.46" y1="48.25" y2=".217" gradientUnits="userSpaceOnUse" xlink:href="#a"/><linearGradient id="c" x1="24.61" x2="23.59" y1="47.59" y2="-.203" gradientUnits="userSpaceOnUse" xlink:href="#a"/><linearGradient id="a"><stop stop-color="#ff433a" offset="0"/><stop stop-color="#ff9436" offset="1"/></linearGradient></defs><rect width="48" height="48" rx="2.982" fill="url(#c)" fill-rule="evenodd"/><g transform="matrix(.9158 0 0 .9158 -19.8 .914)" stroke-linecap="round" stroke-linejoin="round"><path d="m66.58 24.68a16 16 0 0 1-16 16 16 16 0 0 1-16-16 16 16 0 0 1 16-16 16 16 0 0 1 16 16z" fill="none" fill-opacity=".524" stroke="#ffe8e1" stroke-width="4"/><path transform="matrix(1.092 0 0 1.092 21.62 -.998)" d="m34.37 8.648c-.733 0-1.324.59-1.324 1.322v6.514c0 .733.592 1.322 1.324 1.322h6.512c.733 0 1.322-.59 1.322-1.322v-6.514c0-.733-.59-1.322-1.322-1.322h-6.512zm-27.514 6.068c-1.026 0-1.852.826-1.852 1.852v9.119c0 1.026.826 1.852 1.852 1.852h9.119c1.026 0 1.852-.826 1.852-1.852v-9.119c0-1.026-.826-1.852-1.852-1.852h-9.119zm23.641 15.264c-.879 0-1.588.707-1.588 1.586v7.816c0 .879.709 1.588 1.588 1.588h7.816c.879 0 1.586-.709 1.586-1.588v-7.816c0-.879-.707-1.586-1.586-1.586h-7.816z" fill="#ffe8e1" stroke="url(#b)"/></g></svg>
