<svg viewBox="0 0 48 48" xmlns="http://www.w3.org/2000/svg"><defs><linearGradient id="a" x1="24.61" x2="23.59" y1="47.59" y2="-.203" gradientUnits="userSpaceOnUse"><stop stop-color="#ff433a" offset="0"/><stop stop-color="#ff9436" offset="1"/></linearGradient></defs><rect width="48" height="48" rx="2.982" fill="url(#a)" fill-rule="evenodd"/><g transform="matrix(.0756 0 0 .0756 5 5)" fill="#ffe8e1"><path d="m240.9 269.9s-28.02-53.99-26.98-93.44c0.755-28.19 64.32-56.06 89.28-96.53 24.91-40.49-3.106-79.92-3.106-79.92s6.234 29.08-10.38 59.15c-16.61 30.11-77.91 47.78-101.8 99.68-23.84 51.9 52.94 111.1 52.94 111.1"/><path d="m345.7 105.9s-95.49 36.35-95.49 77.85c0 41.54 25.93 55.03 30.11 68.51 4.142 13.52-7.269 36.35-7.269 36.35s37.36-25.95 31.11-56.06c-6.234-30.11-35.29-39.48-18.66-69.54 11.11-20.17 60.2-57.1 60.2-57.1"/><path d="m230.5 324.8c88.25-3.149 120.4-31 120.4-31-57.08 15.55-208.6 14.54-209.7 3.128-1.014-11.41 46.7-20.77 46.7-20.77s-74.72 0-80.96 18.68c-6.235 18.68 35.35 33.05 123.5 29.96"/><path d="m358.2 368.5s86.37-18.42 77.83-65.34c-10.35-57.12-70.58-24.94-70.58-24.94s42.6 0 46.72 25.93c4.164 25.95-53.97 64.35-53.97 64.35"/><path d="m315.6 343.6s-21.76 5.716-54.01 9.34c-43.23 4.853-95.49 1.014-99.66-6.256-4.098-7.269 7.269-11.41 7.269-11.41-51.92 12.47-23.51 34.23 37.34 38.42 52.16 3.559 129.8-15.57 129.8-15.57l-20.73-14.52"/><path d="m181.7 388.9s-23.56 0.669-24.94 13.14c-1.359 12.38 14.5 23.51 72.65 26.96 58.13 3.451 98.99-15.9 98.99-15.9l-26.3-15.96s-16.63 3.494-42.24 6.946c-25.63 3.473-78.17-2.783-80.24-7.593-2.113-4.855 2.072-7.594 2.072-7.594"/><path d="m408 445c8.995-9.707-2.783-17.32-2.783-17.32s4.142 4.853-1.337 10.38c-5.544 5.522-56.08 19.35-137.1 23.51-80.96 4.163-168.9-7.615-171.6-17.99-2.696-10.38 45.02-18.66 45.02-18.66-5.522 0.69-71.96 2.071-74.07 20.08-2.071 17.97 29.06 32.51 153.7 32.51 124.6-0.021 179.2-22.86 188.2-32.51"/><path d="m359.6 485.8c-54.68 11.04-220.7 4.077-220.7 4.077s107.9 25.63 231.1 4.185c58.89-10.27 62.32-38.76 62.32-38.76s-18.01 19.39-72.69 30.5"/></g></svg>
