<svg viewBox="0 0 48 48" xmlns="http://www.w3.org/2000/svg" xmlns:xlink="http://www.w3.org/1999/xlink"><defs><linearGradient id="a"><stop stop-color="#ccc" offset="0"/><stop stop-color="#fff" offset="1"/></linearGradient><linearGradient id="c" x1="40.53" x2="37.58" y1="107.5" y2="15.16" gradientUnits="userSpaceOnUse" xlink:href="#a"/><linearGradient id="d" x1="74.64" x2="83.93" y1="18.27" y2="102" gradientUnits="userSpaceOnUse" xlink:href="#a"/><linearGradient id="e" x2="0" y1="542.2" y2="526.2" gradientUnits="userSpaceOnUse"><stop stop-color="#d0d0d0" offset="0"/><stop stop-color="#f1eeee" offset="1"/></linearGradient><linearGradient id="b" x2="0" y1="546.9" y2="516.5" gradientUnits="userSpaceOnUse"><stop stop-color="#0c275c" offset="0"/><stop stop-color="#1072c0" offset="1"/></linearGradient></defs><g transform="matrix(.43781 0 0 .43781-2.151-2.128)"><circle transform="matrix(3.723 0 0 3.726 -1432 -1922)" cx="400.6" cy="531.8" r="14" fill="url(#b)" stroke="url(#b)" stroke-width="1.427"/><path d="m42.84 31.57c4.646-5.483 10.65-8.799 17.2-8.799 14.74 0 26.7 16.72 26.7 37.33 0 20.62-11.95 37.33-26.7 37.33-6.561 0-12.56-3.306-17.2-8.789 7.267 9.434 18.06 15.42 30.12 15.42 7.418 0 14.36-2.268 20.3-6.198 10.37-9.272 16.89-22.75 16.89-37.75 0-15-6.521-28.48-16.89-37.75-5.936-3.941-12.88-6.198-20.3-6.198-12.06 0-22.86 5.987-30.12 15.42" fill="url(#d)"/><path d="m60 9.75c-27.75 0-50.25 22.5-50.25 50.25 0 26.95 21.22 48.94 47.86 50.19 0.8 0.04 1.59 0.06 2.39 0.06 12.87 0 24.6-4.84 33.49-12.79-5.89 3.91-12.78 6.15-20.14 6.15-11.97 0-22.68-5.94-29.89-15.3-5.56-6.56-9.15-16.25-9.4-27.13v-2.37c0.25-10.88 3.84-20.58 9.4-27.13 7.21-9.36 17.93-15.3 29.89-15.3 7.36 0 14.25 2.25 20.14 6.16-8.84-7.91-20.51-12.74-33.3-12.79h-0.19" fill="url(#c)"/></g></svg>
