<svg viewBox="0 0 48 48" xmlns="http://www.w3.org/2000/svg"><defs><linearGradient id="a" x2="0" y1="542.8" y2="507.8" gradientTransform="matrix(1.052 0 0 1.028 -21.29 -14.59)" gradientUnits="userSpaceOnUse"><stop stop-color="#0c275c" offset="0"/><stop stop-color="#1072c0" offset="1"/></linearGradient></defs><g transform="matrix(1.037 0 0 1.037 -349.8 -529.8)"><rect transform="translate(-48.12 9.495)" x="385.5" y="507.2" width="46.3" height="34.94" rx="1.644" fill="url(#a)"/><g transform="matrix(.5907 0 0 .5907 230.2 201.8)" fill="#dbe5ef" stroke="#dbe5ef" stroke-linecap="round" stroke-width="1.96"><path d="m218.4 573.1q-4.051 4.167-10.11 4.167-6.06 0-10.15-4.167-4.051-4.206-4.051-10.26 0-6.06 4.051-10.22 4.09-4.206 10.15-4.206 6.02 0 10.11 4.206t4.09 10.22q0 6.06-4.09 10.26zm-17.63-2.315q3.087 3.087 7.524 3.087t7.486-3.087q3.087-3.125 3.087-7.949 0-4.823-3.087-7.91-3.048-3.125-7.486-3.125-4.437 0-7.524 3.125-3.048 3.087-3.048 7.91t3.048 7.949z"/><path d="m223.2 576.6 9.261-14.28-8.72-13.35h4.244l6.714 10.57h0.154l6.714-10.57h4.244l-8.72 13.35 9.261 14.28h-4.167l-7.331-11.31h-0.154l-7.331 11.31h-4.167z"/></g></g></svg>
