<svg viewBox="0 0 48 48" xmlns="http://www.w3.org/2000/svg"><defs><linearGradient id="b" x2="0" y1="545.2" y2="518.6" gradientUnits="userSpaceOnUse"><stop stop-color="#97a9b1" offset="0"/><stop stop-color="#cfdce1" offset="1"/></linearGradient><linearGradient id="a" x2="0" y1="20.13" y2="-6.125" gradientUnits="userSpaceOnUse"><stop stop-color="#0c275c" offset="0"/><stop stop-color="#1072c0" offset="1"/></linearGradient></defs><g transform="matrix(1.696 0 0 1.696 -68.24 13.62)" enable-background="new"><g transform="translate(-346.2 -525.7)"><circle cx="400.3" cy="532.1" r="13.74" fill="url(#b)"/><circle cx="400.6" cy="531.8" r="14" fill="#5ea5fb" fill-opacity="0"/></g><path d="m54.23-7.875c-7.727 0-14 6.273-14 14s6.273 14 14 14 14-6.272 14-14c0-2.395-0.603-4.65-1.664-6.622 0.011-0.107 0.069-0.178 0.095-0.208 1.509-1.782 2.157-4.64 1.748-5.994-0.06-0.197-0.283-0.194-0.374-0.044-1.094 1.811-2.676 2.263-4.087 2.509-0.067 0.012-0.183 0.024-0.308-8e-3 -2.485-2.258-5.785-3.635-9.405-3.635m-0.269 3.639c0.089-2e-3 0.179 0 0.269 0 5.72 0 10.36 4.641 10.36 10.36s-4.641 10.36-10.36 10.36-10.36-4.641-10.36-10.36c0-5.631 4.499-10.22 10.1-10.36" fill="url(#a)" fill-rule="evenodd"/></g></svg>
