<svg viewBox="0 0 48 48" xmlns="http://www.w3.org/2000/svg"><defs><linearGradient id="b" x1="62.6" x2="62.15" y1="11.85" y2="-35.48" gradientUnits="userSpaceOnUse"><stop stop-color="#92ccff" offset="0"/><stop stop-color="#e5f9fd" offset="1"/></linearGradient><linearGradient id="a" x1="142.3" x2="192" y1="307.8" y2="15.45" gradientUnits="userSpaceOnUse"><stop stop-color="#4469b9" offset="0"/><stop stop-color="#5d91ff" offset="1"/></linearGradient></defs><g transform="matrix(.2266 0 0 .2266 -51.8 16.96)" enable-background="new"><circle transform="matrix(4.414 0 0 4.414 58.84 83.23)" cx="62.47" cy="-11.82" r="24" fill="url(#b)"/><path transform="matrix(.7334 0 0 .7334 218.1 -85.45)" d="m158.9 26.48c-3.452 0-6.249 2.798-6.249 6.249 0 3.452 2.797 6.249 6.249 6.249 66.11 0 119.9 53.79 119.9 119.9 0 59.24-43.19 108.6-99.74 118.2 1.153-3.921 1.745-8 1.745-12.12 0-23.84-19.39-43.23-43.23-43.23-12.28 0-24.03 5.246-32.23 14.41-2.302 2.572-2.077 6.523 0.496 8.824 2.572 2.302 6.522 2.088 8.824-0.485 5.827-6.512 14.18-10.25 22.91-10.25 16.94 0 30.73 13.78 30.73 30.73 0 4.751-1.127 9.412-3.254 13.66-2.037 0.103-4.091 0.162-6.152 0.162-66.11 1e-4 -119.9-53.79-119.9-119.9 0-33.07 13.18-63.86 37.1-86.71 2.496-2.384 2.589-6.339 0.205-8.835-2.384-2.497-6.339-2.59-8.835-0.205-26.41 25.23-40.96 59.24-40.96 95.75 0 73 59.39 132.4 132.4 132.4 73 0 132.4-59.39 132.4-132.4 0-73-59.39-132.4-132.4-132.4m-29.13 32.99c-1.65 0-3.261 0.665-4.428 1.832-1.158 1.167-1.821 2.776-1.821 4.418 0 1.65 0.663 3.262 1.821 4.428 1.168 1.158 2.778 1.821 4.428 1.821 1.642 0 3.25-0.663 4.418-1.821 1.167-1.167 1.832-2.778 1.832-4.428 0-1.642-0.665-3.251-1.832-4.418s-2.776-1.832-4.418-1.832m61.07 6c-24.91 0-45.18 20.27-45.18 45.18 0 24.91 20.27 45.18 45.18 45.18 24.91 0 45.18-20.27 45.18-45.18 0-24.91-20.27-45.18-45.18-45.18m0 12.5c18.02 0 32.68 14.66 32.68 32.68 0 18.02-14.66 32.68-32.68 32.68-18.02 0-32.68-14.66-32.68-32.68 0-18.02 14.66-32.68 32.68-32.68m-82.44 26.43c-1.649 0-3.261 0.665-4.428 1.832-1.158 1.158-1.821 2.776-1.821 4.418s0.663 3.259 1.821 4.418c1.168 1.167 2.779 1.832 4.428 1.832 1.642 0 3.25-0.665 4.418-1.832 1.166-1.158 1.832-2.776 1.832-4.418s-0.666-3.259-1.832-4.418c-1.167-1.167-2.775-1.832-4.418-1.832m-19.28 32.95c-14.07 0-25.51 11.45-25.51 25.52 0 14.07 11.44 25.51 25.51 25.51 14.07 0 25.52-11.44 25.52-25.51 0-14.07-11.45-25.52-25.52-25.52m0 12.5c7.179 0 13.03 5.846 13.03 13.03 0 7.18-5.847 13.02-13.03 13.02-7.179 0-13.02-5.836-13.02-13.02 0-7.18 5.837-13.03 13.02-13.03m140.6 14.97c-12.85 0-23.32 10.45-23.32 23.3s10.46 23.32 23.32 23.32 23.32-10.46 23.32-23.32c0-3.452-2.808-6.249-6.26-6.249s-6.249 2.798-6.249 6.249c0 5.962-4.844 10.82-10.81 10.82s-10.82-4.855-10.82-10.82 4.856-10.81 10.82-10.81c3.452 0 6.249-2.798 6.249-6.249 0-3.452-2.797-6.249-6.249-6.249m-77.86 11.08c-1.642 0-3.258 0.673-4.418 1.832-1.166 1.167-1.832 2.768-1.832 4.418 0 1.642 0.666 3.251 1.832 4.418 1.159 1.167 2.777 1.832 4.418 1.832 1.65 0 3.258-0.665 4.418-1.832 1.166-1.167 1.832-2.776 1.832-4.418 0-1.65-0.666-3.251-1.832-4.418-1.159-1.158-2.767-1.832-4.418-1.832m-75.26 38.54c-1.65 0-3.261 0.673-4.428 1.832-1.158 1.167-1.832 2.768-1.832 4.418 0 1.642 0.674 3.251 1.832 4.418 1.167 1.167 2.778 1.842 4.428 1.842 1.642 0 3.239-0.676 4.407-1.842 1.158-1.167 1.842-2.776 1.842-4.418 0-1.65-0.685-3.251-1.842-4.418-1.167-1.158-2.765-1.832-4.407-1.832m121.9 7.294c-1.65 0-3.261 0.673-4.428 1.832-1.158 1.167-1.821 2.768-1.821 4.418 0 1.642 0.663 3.251 1.821 4.418 1.167 1.167 2.778 1.832 4.428 1.832 1.642 0 3.25-0.665 4.418-1.832 1.158-1.167 1.821-2.776 1.821-4.418 0-1.65-0.663-3.251-1.821-4.418-1.167-1.158-2.776-1.832-4.418-1.832" fill="url(#a)"/></g></svg>
