<svg viewBox="0 0 48 48" xmlns="http://www.w3.org/2000/svg"><defs><linearGradient id="a" x2="0" y1="42.12" y2="40.04" gradientUnits="userSpaceOnUse"><stop stop-color="#040404" offset="0"/><stop stop-color="#121212" stop-opacity=".908" offset="1"/></linearGradient><linearGradient id="b" x1="21.85" x2="21.97" y1="38.1" y2="16.22" gradientUnits="userSpaceOnUse"><stop stop-color="#bbbec4" offset="0"/><stop stop-color="#dddfe2" offset="1"/></linearGradient><linearGradient id="d" x1="10.09" x2="122.7" gradientTransform="matrix(.2434 0 0 .2394 6.126 15.01)" gradientUnits="userSpaceOnUse"><stop stop-color="#1a1a1a" offset="0"/><stop stop-color="#2c2c2e" offset=".111"/><stop stop-color="#2b2b2d" offset=".29"/><stop stop-color="#2a2b2d" offset=".512"/><stop stop-color="#2b2b2d" offset=".752"/><stop stop-color="#323232" offset=".897"/><stop stop-color="#171717" offset="1"/></linearGradient><linearGradient id="c" x2="0" y1="544.2" y2="543.1" gradientTransform="matrix(.4952 0 0 .9798 -200.5 -491.7)" gradientUnits="userSpaceOnUse"><stop stop-color="#1e56e6" offset="0"/><stop stop-color="#1f9aed" offset="1"/></linearGradient></defs><g transform="matrix(1.714 0 0 1.714 -14.21 -26.49)" enable-background="new"><path d="m8.583 38.425l.243 3.836c0 .398.326.718.73.718h25.466c.405 0 .73-.32.73-.718l.243-3.836h-27.413" fill="url(#d)"/><path d="m10.776 15.937h22.79c.405 0 .73.32.73.718l1.704 21.654c0 .398-.326.718-.73.718h-25.954c-.405 0-.73-.32-.73-.718l1.46-21.654c0-.398.326-.718.73-.718" fill="url(#b)"/><rect x="16.72" y="40.8" width="11.23" height=".753" rx=".377" fill="url(#c)"/><ellipse cx="32.61" cy="41.21" rx="1.04" ry="1.04" fill="url(#a)" opacity=".452"/><g stroke="#909296"><g fill="#e3e8ea" stroke="none"><path d="m32.605 41.23c.023 0 .044-.009.061-.026.017-.017.026-.037.026-.061v-.433c0-.023-.009-.044-.026-.061-.017-.017-.037-.026-.061-.026-.023 0-.044.009-.061.026-.017.017-.026.037-.026.061v.433c0 .023.009.044.026.061.017.017.037.026.061.026" opacity=".668"/><path d="m33.07 41c-.036-.073-.087-.134-.153-.183-.019-.014-.04-.02-.064-.017-.024.003-.043.014-.057.034-.014.019-.02.04-.017.064.003.024.015.043.034.057.044.033.078.074.103.123.024.048.036.1.036.154 0 .047-.009.092-.027.134-.018.043-.043.08-.074.111-.031.031-.068.056-.111.074-.043.018-.087.027-.134.027-.047 0-.092-.009-.134-.027-.043-.018-.08-.043-.111-.074-.031-.031-.056-.068-.074-.111-.018-.043-.027-.087-.027-.134 0-.055.012-.106.036-.154.024-.048.058-.089.103-.123.019-.014.03-.034.034-.057.003-.024-.002-.045-.017-.064-.014-.019-.033-.031-.057-.034-.024-.003-.045.002-.065.017-.066.049-.117.11-.153.183-.036.073-.054.15-.054.232 0 .07.014.138.041.202.028.064.065.119.111.166.046.046.102.084.166.111.064.028.131.041.202.041.07 0 .138-.014.202-.041.064-.028.119-.065.166-.111.046-.046.083-.102.111-.166.028-.064.041-.131.041-.202 0-.082-.018-.16-.054-.232z" opacity=".668"/></g><g fill="#a1a7ae" stroke-width=".086"><path d="m22.699 27.07l-2.986 5.92c1.313.29 2.738.382 4.183.198 4.735-.604 7.937-3.799 7.36-7.211l-8.557 1.093z"/><path d="m18.807 20.776zm.913-.225l2.927 5.817 8.456-1.082c-1.071-3.349-5.594-5.54-10.329-4.935-.366.047-.707.124-1.054.2z"/><path d="m18.807 20.776c-2.395.738-4.207 2.193-5.01 3.933-.461.995-.588 2.086-.318 3.192.548 2.249 2.642 4.01 5.343 4.841l3-5.971-3.02-5.995"/></g></g></g></svg>
