<svg viewBox="0 0 48 48" xmlns="http://www.w3.org/2000/svg"><defs><linearGradient id="a" x1="487.7" x2="493.5" y1="985.4" y2="11.61" gradientUnits="userSpaceOnUse"><stop stop-color="#197cf1" offset="0"/><stop stop-color="#20bcfa" offset="1"/></linearGradient></defs><g transform="matrix(.03098 0 0 .03098 16 16.01)" enable-background="new" fill="#1d9df6"><path transform="matrix(1.579 0 0 1.579 -516.4 -516.4)" d="m946.2 206.6c-0.3-23-18-42-40.9-44.1-190.3-17.8-345.6-119.5-396.8-156.7-10.7-7.8-25.2-7.8-35.9 0-51.1 37.2-206.4 138.9-396.7 156.7-22.9 2.101-40.5 21.1-40.9 44.1-2.3 150.1 21.8 659.7 444.1 773.1 7.5 2 15.4 2 22.9 0 422.3-113.3 446.4-623 444.2-773.1" fill="url(#a)"/><path transform="matrix(1.213 0 0 1.225 -338 -329.4)" d="m946.2 206.6c-0.3-23-18-42-40.9-44.1-190.3-17.8-345.6-119.5-396.8-156.7-10.7-7.8-25.2-7.8-35.9 0-51.1 37.2-206.4 138.9-396.7 156.7-22.9 2.101-40.5 21.1-40.9 44.1-2.3 150.1 21.8 659.7 444.1 773.1 7.5 2 15.4 2 22.9 0 422.3-113.3 446.4-623 444.2-773.1" fill="#fff" opacity=".675"/><path d="m353.8 0c-89.89 0-162.6 72.67-162.6 162.6 0 19.12 3.825 38.25 9.562 57.37l-200.8 200.8v95.62h95.62v-57.37h57.37v-57.37h57.37l86.06-86.06c17.21 5.737 36.34 9.562 57.37 9.562 89.89 0 162.6-72.68 162.6-162.6 0-89.89-72.67-162.6-162.6-162.6m47.81 172.1c-32.51 0-57.37-24.86-57.37-57.37 0-32.51 24.86-57.37 57.37-57.37 32.51 0 57.37 24.86 57.37 57.37 0 32.51-24.86 57.37-57.37 57.37z"/></g></svg>
