<svg viewBox="0 0 48 48" xmlns="http://www.w3.org/2000/svg"><defs><linearGradient id="a" x1="-124" x2="-125.2" y1="73.5" y2="-26.05" gradientTransform="matrix(.4943 0 0 .4778 86.64 13.1)" gradientUnits="userSpaceOnUse"><stop stop-color="#2b65bd" offset="0"/><stop stop-color="#64a3dc" offset="1"/></linearGradient></defs><rect width="48" height="48" rx="2.982" fill="url(#a)" fill-rule="evenodd"/><path d="m40.35 15.412c-.395-.181-.861-.116-1.191.168l-6.577 5.663v-6.457c0-.636-.518-1.154-1.154-1.154h-23.274c-.636 0-1.154.518-1.154 1.154v18.427c0 .636.517 1.154 1.154 1.154h23.274c.636 0 1.154-.517 1.154-1.154v-6.457l6.577 5.663c.33.285.797.35 1.191.169.396-.182.649-.577.649-1.013v-15.15c0-.436-.254-.831-.65-1.013" fill="#e6eff9"/></svg>
