<svg viewBox="0 0 48 48" xmlns="http://www.w3.org/2000/svg"><defs><linearGradient id="a" x2="0" y1="654" y2="301.3" gradientUnits="userSpaceOnUse"><stop stop-color="#4965b6" offset="0"/><stop stop-color="#8d9dcc" offset="1"/></linearGradient></defs><circle transform="matrix(.1384 0 0 .1384 69.1 -42.09)" cx="-325.9" cy="478.8" r="173.4" fill="url(#a)"/><path transform="matrix(1.416 0 0 1.416 -587.2 -727.7)" d="m428.92 524.46c-.56.157-1.01.782-1.01 1.389v9.625c-.568-.311-1.297-.437-2.053-.231-1.364.371-2.219 1.571-1.927 2.679.292 1.108 1.637 1.727 3 1.356 1.089-.296 1.839-1.134 1.959-2.02l.032-9.1 7.08-1.985v7.178c-.568-.311-1.297-.437-2.053-.232-1.364.371-2.219 1.571-1.927 2.679.293 1.108 1.637 1.727 3 1.356 1.089-.296 1.839-1.134 1.959-2.02l.032-11.842c0-.455-.269-.796-.632-.86l-7.455 2.02" fill="#fff" fill-opacity=".847" opacity=".9"/></svg>
