<svg viewBox="0 0 48 48" xmlns="http://www.w3.org/2000/svg"><defs><linearGradient id="a" x1="42.66" x2="41.7" y1="25.16" y2="-1.488" gradientUnits="userSpaceOnUse"><stop stop-color="#74cb32" offset="0"/><stop stop-color="#abeb6b" offset="1"/></linearGradient></defs><g transform="matrix(1.714 0 0 1.714 -44.21 3.512)" enable-background="new"><circle cx="39.79" cy="11.96" r="14" fill="url(#a)"/><path d="m47.537 11.551l-2.355-2.356c-.224-.224-.154-.464.155-.533 0 0 .255-.058.57-.372.675-.675.675-1.771 0-2.445-.676-.675-1.77-.675-2.446 0-.315.315-.372.57-.372.57-.07.31-.31.379-.534.154l-2.355-2.355c-.224-.224-.591-.224-.815 0l-2.355 2.355c-.224.225-.154.465.155.534 0 0 .256.058.57.372.674.675.675 1.771 0 2.446-.675.675-1.771.674-2.446 0-.314-.315-.372-.57-.372-.57-.069-.31-.31-.379-.534-.155l-2.355 2.355c-.224.224-.224.591 0 .815l2.355 2.355c.224.224.154.464-.155.534 0 0-.255.058-.57.372-.675.675-.675 1.77 0 2.445.675.675 1.77.675 2.446 0 .315-.315.372-.57.372-.57.07-.31.31-.379.534-.154l2.355 2.355c.224.224.591.224.815 0l2.356-2.355c.224-.224.154-.465-.155-.534 0 0-.256-.058-.57-.372-.676-.675-.675-1.771 0-2.446.675-.675 1.77-.676 2.446 0 .315.315.372.57.372.57.07.31.31.379.534.155l2.355-2.356c.224-.224.224-.591 0-.815" fill-opacity=".631"/></g></svg>
