<svg viewBox="0 0 48 48" xmlns="http://www.w3.org/2000/svg"><defs><clipPath id="b"><path transform="matrix(15.33 0 0 11.5 415 -125.5)" d="m-24 13c0 1.105-0.672 2-1.5 2s-1.5-0.895-1.5-2 0.672-2 1.5-2 1.5 0.895 1.5 2" fill="#1890d0"/></clipPath><linearGradient id="a" x1="22.76" x2="23.18" y1="36.02" y2="11.42" gradientUnits="userSpaceOnUse"><stop stop-color="#ff9300" offset="0"/><stop stop-color="#ffd702" offset="1"/></linearGradient><linearGradient id="c" x2="0" y1="546.8" y2="500.8" gradientUnits="userSpaceOnUse"><stop stop-color="#2a2c2f" offset="0"/><stop stop-color="#424649" offset="1"/></linearGradient></defs><g transform="matrix(1.043 0 0 1.043 -509 -525.6)" stroke-width="1.317"><rect transform="translate(102.2 2.931)" x="385.6" y="500.8" width="46" height="46" rx="23" fill="url(#c)" stroke-width="1.515"/><g transform="matrix(1.083 0 0 1.083 486.5 500.6)" clip-path="url(#b)" fill="url(#a)"><path d="m16 12h6l10 11-10 13h-6l10-13"/></g></g></svg>
