<svg viewBox="0 0 48 48" xmlns="http://www.w3.org/2000/svg"><defs><linearGradient id="b" x2="0" y1="542.8" y2="507.8" gradientTransform="matrix(1.052 0 0 1.028 -21.29 -14.59)" gradientUnits="userSpaceOnUse"><stop stop-color="#141414" offset="0"/><stop stop-color="#2d2d2f" offset="1"/></linearGradient><linearGradient id="a" x1="407.6" x2="407.8" y1="544.1" y2="530.8" gradientUnits="userSpaceOnUse"><stop stop-color="#ff9300" offset="0"/><stop stop-color="#ffd702" offset="1"/></linearGradient></defs><rect transform="matrix(1.037 0 0 1.037 -399.6 -519.9)" x="385.5" y="507.2" width="46.3" height="34.94" rx="1.644" fill="url(#b)"/><path transform="matrix(1.424 0 0 1.419 -557.5 -739)" d="m416.84 538.93c.769 0 1.393-.608 1.393-1.359 0-.749-.623-1.358-1.393-1.358-.769 0-1.392.608-1.392 1.358 0 .751.623 1.359 1.392 1.359m-5.105 0c.769 0 1.393-.608 1.393-1.359 0-.749-.623-1.358-1.393-1.358-.769 0-1.392.608-1.392 1.358 0 .751.623 1.359 1.392 1.359m-6.485 5.162c1.322 0 2.554-.375 3.591-1.023.604-.376.609-1.182.102-1.676l-2.775-2.709c-.508-.495-.508-1.297 0-1.791l3-2.927c.508-.495.522-1.319-.062-1.722-1.09-.753-2.42-1.196-3.857-1.196-3.69.0001-6.682 2.922-6.682 6.523 0 3.601 2.992 6.521 6.683 6.521" fill="url(#a)" stroke-opacity=".8"/></svg>
