<svg viewBox="0 0 48 48" xmlns="http://www.w3.org/2000/svg" xmlns:xlink="http://www.w3.org/1999/xlink"><defs><linearGradient id="j" x1="22.18" x2="22.38" y1="31.09" y2="28.98" gradientUnits="userSpaceOnUse"><stop stop-color="#d81d00" offset="0"/><stop stop-color="#da4831" offset="1"/></linearGradient><linearGradient id="i" x1="25.43" x2="28.8" y1="27.59" y2="25.31" gradientUnits="userSpaceOnUse" xlink:href="#c"/><linearGradient id="b"><stop stop-color="#1074f5" offset="0"/><stop stop-color="#02befd" offset="1"/></linearGradient><linearGradient id="c"><stop stop-color="#2c2e31" offset="0"/><stop stop-color="#40464d" offset="1"/></linearGradient><linearGradient id="h" x1="16.92" x2="19.43" y1="27.44" y2="24.7" gradientUnits="userSpaceOnUse" xlink:href="#c"/><linearGradient id="e" x2="0" y1="40.6" y2="14.35" gradientUnits="userSpaceOnUse" xlink:href="#b"/><linearGradient id="g" x1="22.47" x2="23.28" y1="33.44" y2="17.71" gradientUnits="userSpaceOnUse"><stop stop-color="#e7ddd5" offset="0"/><stop stop-color="#f1e9e0" offset="1"/></linearGradient><linearGradient id="f" x1="405.6" x2="405" y1="543.8" y2="502.1" gradientTransform="matrix(.6383 0 0 .6371 -236.8 -306.1)" gradientUnits="userSpaceOnUse" xlink:href="#b"/><linearGradient id="k" x1="29.97" x2="28.97" y1="31.36" y2="40.61" gradientUnits="userSpaceOnUse" xlink:href="#d"/><linearGradient id="q" x1="17.97" x2="17.49" y1="40.72" y2="32.09" gradientUnits="userSpaceOnUse" xlink:href="#a"/><linearGradient id="a"><stop stop-color="#d22900" offset="0"/><stop stop-color="#ff6443" offset="1"/></linearGradient><linearGradient id="l" x1="26.96" x2="27.6" y1="40.47" y2="32.09" gradientUnits="userSpaceOnUse" xlink:href="#a"/><linearGradient id="p" x1="20.47" x2="20.03" y1="40.39" y2="32.33" gradientUnits="userSpaceOnUse"><stop stop-color="#e1e1e1" offset="0"/><stop stop-color="#f9f9f9" offset="1"/></linearGradient><linearGradient id="o" x1="22.7" x2="22.62" y1="40.66" y2="32.16" gradientUnits="userSpaceOnUse" xlink:href="#a"/><linearGradient id="m" x1="15.85" x2="15.04" y1="40.24" y2="31.42" gradientUnits="userSpaceOnUse"><stop stop-color="#e3e3e3" offset="0"/><stop stop-color="#f8f8f8" offset="1"/></linearGradient><linearGradient id="n" x1="25.35" x2="24.79" y1="32.14" y2="40.58" gradientUnits="userSpaceOnUse" xlink:href="#d"/><linearGradient id="d" x2="0" y1="146" y2="46" gradientUnits="userSpaceOnUse"><stop stop-color="#fafafa" offset="0"/><stop stop-color="#e0e0e0" offset="1"/></linearGradient></defs><g transform="matrix(1.714 0 0 1.714 -14.33 -21.59)" enable-background="new"><ellipse cx="22.38" cy="26.8" rx="13.75" ry="13.72" fill="url(#f)"/><g fill-rule="evenodd"><path d="m14.457 31.29c4.131 3.875 12.941 2.567 16.202.133 1.425-1.379.934-3.364-.357-3.843 3.786-8.408-9.187-13.661-11.911-4.115-1.6-2.983-7.644-.028-3.867 3.871-1.87.3-2.409 3.167-.067 3.953" fill="url(#g)"/><path d="m19.03 39.661l2.313.086-.133-6.534c-.005-1.215-2.119-1.596-2.43-.292z" fill="url(#p)"/><path d="m25.898 39.752l-2.176-.016.199-6.585c.005-1.215 2.119-1.596 2.43-.292z" fill="url(#n)"/></g><circle cx="18.31" cy="27.44" r="1.398" fill="url(#h)"/><circle cx="26.83" cy="27.59" r="1.398" fill="url(#i)"/><g fill-rule="evenodd"><path d="m24.675 29.19c-.331 2.54-4.01 2.393-4.173-.031-.029-.239.021-.218.253-.219l3.622-.02c.317-.029.323.005.298.27" fill="url(#j)" opacity=".848"/><path d="m21.294 39.745l2.46-.04.178-6.272c-.015-1.745-2.72-1.751-2.728-.028z" fill="url(#o)"/><path d="m27.985 39.28l-2.153.395.395-6.867c.033-1.215 2.205-1.548 2.496-.238z" fill="url(#l)"/><path d="m30.16 38.17l-2.165 1.01.734-6.81c.093-1.212 2.209-1.438 2.424-.115z" fill="url(#k)"/><path d="m16.713 38.38l2.443 1.17-.375-6.676c-.033-1.215-2.205-1.548-2.496-.238z" fill="url(#q)"/><path d="m14.817 38.05l1.96.312-.501-5.921c-.093-1.212-2.209-1.438-2.424-.115" fill="url(#m)"/></g><circle cx="22.36" cy="26.6" r="13.44" fill="none" stroke="url(#e)" stroke-linecap="round" stroke-linejoin="round" stroke-width="1.118"/></g></svg>
