<svg viewBox="0 0 48 48" xmlns="http://www.w3.org/2000/svg"><defs><linearGradient id="b" x1="56.88" x2="56.42" y1="17" y2="-4.536" gradientUnits="userSpaceOnUse"><stop stop-color="#1f1f1f" offset="0"/><stop stop-color="#656565" offset="1"/></linearGradient><linearGradient id="a" x1="52.04" x2="51.49" y1="19.33" y2="-25.26" gradientUnits="userSpaceOnUse"><stop stop-color="#d3d3d3" offset="0"/><stop stop-color="#fcf9f9" offset="1"/></linearGradient></defs><g transform="matrix(1.03 0 0 1.03 -29.53 26.66)" enable-background="new"><rect x="29.06" y="-25.88" width="43.49" height="45" rx="2.795" fill="url(#a)" fill-rule="evenodd"/><g fill="#585a5d"><path d="m32.87 7.415 8.623-22.87h3.322l8.623 22.87h-3.258l-2.204-6.196h-9.613l-2.236 6.196h-3.258m6.483-8.943h7.601l-3.737-10.32h-0.128l-3.737 10.32"/><path d="m60.55 7.926q-2.491 0-4.184-1.437-1.661-1.437-1.661-3.801 0-2.555 1.98-3.992 1.98-1.469 4.886-1.469 2.587 0 4.248.958v-.447q0-1.725-1.182-2.747-1.182-1.054-2.906-1.054-1.278 0-2.331.607-1.022.607-1.405 1.661l-2.683-1.15q.543-1.405 2.14-2.587 1.597-1.214 4.216-1.214 3 0 4.982 1.757 1.98 1.757 1.98 4.95v9.454h-2.811v-2.172h-.128q-1.757 2.683-5.142 2.683m.479-2.683q1.82 0 3.29-1.341 1.501-1.373 1.501-3.226-1.246-1.022-3.737-1.022-2.14 0-3.226.926-1.086.926-1.086 2.172 0 1.15.99 1.82.99.671 2.268.671"/></g><circle cx="60.95" cy="6.79" r="12.69" fill="#fff" fill-opacity=".508" stroke="url(#b)" stroke-width="2.486"/></g></svg>
