<svg viewBox="0 0 48 48" xmlns="http://www.w3.org/2000/svg"><defs><linearGradient id="b" x1="-10.77" x2="-11.23" y1="4.675" y2="-22.85" gradientTransform="matrix(1.774 0 0 1.714 -5.989 28.57)" gradientUnits="userSpaceOnUse"><stop stop-color="#b62b76" offset="0"/><stop stop-color="#e04d9d" offset="1"/></linearGradient><linearGradient id="a" x2="0" y1="31.35" y2="-4.65" gradientUnits="userSpaceOnUse"><stop stop-color="#eec9dd" offset="0"/><stop stop-color="#fbf9fa" offset="1"/></linearGradient></defs><g transform="translate(48.45 10.8)"><rect x="-48.45" y="-10.8" width="48" height="48" rx="3.085" fill="url(#b)"/><path d="m-24.45-4.804c-9.94 0-18 8.06-18 18 0 9.941 8.06 18 18 18 9.941 0 18-8.06 18-18 0-9.941-8.06-18-18-18m0 3.375c8.08 0 14.62 6.548 14.62 14.62 0 8.08-6.548 14.62-14.62 14.62-8.08 0-14.62-6.548-14.62-14.62 0-8.08 6.549-14.62 14.62-14.62m0 3.375c-6.213 0-11.25 5.04-11.25 11.25 0 6.213 5.04 11.25 11.25 11.25 6.213 0 11.25-5.04 11.25-11.25 0-6.213-5.04-11.25-11.25-11.25" fill="url(#a)"/></g></svg>
