<svg viewBox="0 0 48 48" xmlns="http://www.w3.org/2000/svg"><defs><linearGradient id="a" x2="0" y1="542.8" y2="507.8" gradientTransform="matrix(1.052 0 0 1.028 -72.68 -8.584)" gradientUnits="userSpaceOnUse"><stop stop-color="#6c6d6e" offset="0"/><stop stop-color="#9b9c9e" offset="1"/></linearGradient></defs><g transform="translate(-384.57-499.8)"><flowRoot transform="translate(389.6 520.8)" font-family="sans-serif" font-size="10" letter-spacing="0" word-spacing="0" line-height="125%"><flowRegion><path d="m22 3h27v15h-27z"/></flowRegion><flowPara>Plasm</flowPara></flowRoot><g transform="matrix(1.037 0 0 .9935 38.19 -3.441)"><rect x="334.1" y="513.2" width="46.3" height="34.94" rx="1.644" fill="url(#a)"/><g transform="matrix(1.193 0 0 1.193 -66.76 -104.7)" fill="#fff" fill-opacity=".852"><path transform="matrix(.03149 0 0 .03149 360.6 526.6)" d="m299 161.3h-185.8v-46.28c0-41.34 33.64-74.98 74.98-74.98 33.76 0 63.51 22.72 72.36 55.24 2.898 10.66 13.89 16.95 24.55 14.05 10.66-2.898 16.95-13.89 14.05-24.55-13.57-49.9-59.2-84.74-111-84.74-63.4 0-115 51.58-115 115v46.72c-9.06 1.902-15.89 9.952-15.89 19.57v175c0 11.03 8.972 20 20 20h221.7c11.03 0 20-8.972 20-20v-175c0-11.03-8.972-20-20-20"/><circle cx="343" cy="533.8" r="2.86"/><circle cx="349.8" cy="533.8" r="2.86"/><circle cx="356.7" cy="533.8" r="2.86"/></g></g></g></svg>
