<svg viewBox="0 0 48 48" xmlns="http://www.w3.org/2000/svg"><defs><linearGradient id="a" x1="61.57" x2="60.75" y1="22.94" y2="-27.71" gradientUnits="userSpaceOnUse"><stop stop-color="#197cf1" offset="0"/><stop stop-color="#21c9fb" offset="1"/></linearGradient></defs><g transform="translate(-19.348-8.325)"><path transform="matrix(1 0 0 1 -19.03 34.2)" d="m41.36-25.88h42.04c1.652 0 2.982 1.33 2.982 2.982v42.04c0 1.652-1.33 2.982-2.982 2.982h-42.04c-1.652 0-2.982-1.33-2.982-2.982v-42.04c0-1.652 1.33-2.982 2.982-2.982" fill="url(#a)" fill-rule="evenodd"/><path d="m37.41 26.493c-.794-.624-1.789-.993-2.871-.993-2.547 0-4.621 2.055-4.685 4.616-2.63.997-4.502 3.564-4.502 6.57 0 3.552 2.611 6.488 5.999 6.951v.064h24v-.011c3.347-.197 5.999-3 5.999-6.435 0-3.312-2.468-6.04-5.645-6.405.013-.201.021-.406.021-.61 0-5.131-4.282-9.29-9.563-9.29-3.908 0-7.27 2.278-8.754 5.544" fill="#fff" fill-opacity=".847"/></g></svg>
