<svg viewBox="0 0 48 48" xmlns="http://www.w3.org/2000/svg"><defs><clipPath id="a"><path transform="matrix(15.33 0 0 11.5 415 -125.5)" d="m-24 13c0 1.105-0.672 2-1.5 2s-1.5-0.895-1.5-2 0.672-2 1.5-2 1.5 0.895 1.5 2" fill="#1890d0"/></clipPath><linearGradient id="b" x1="61.57" x2="60.75" y1="22.94" y2="-27.71" gradientUnits="userSpaceOnUse"><stop stop-color="#197cf1" offset="0"/><stop stop-color="#21c9fb" offset="1"/></linearGradient></defs><path transform="matrix(1 0 0 1 -38.38 25.88)" d="m41.36-25.88h42.04c1.652 0 2.982 1.33 2.982 2.982v42.04c0 1.652-1.33 2.982-2.982 2.982h-42.04c-1.652 0-2.982-1.33-2.982-2.982v-42.04c0-1.652 1.33-2.982 2.982-2.982" fill="url(#b)" fill-rule="evenodd"/><g transform="matrix(1.5 0 0 1.5-12-12)"><g clip-path="url(#a)"><path d="m23 30.5c0 3.039-2.461 5.5-5.5 5.5s-5.5-2.461-5.5-5.5 2.461-5.5 5.5-5.5 5.5 2.461 5.5 5.5" fill-opacity=".788"/><g fill="#dcf0fe"><path d="m36 30.5c0 3.039-2.461 5.5-5.5 5.5s-5.5-2.461-5.5-5.5 2.461-5.5 5.5-5.5 5.5 2.461 5.5 5.5"/><path d="m23 17.5c0 3.039-2.461 5.5-5.5 5.5s-5.5-2.461-5.5-5.5 2.461-5.5 5.5-5.5 5.5 2.461 5.5 5.5"/></g><path d="m36 17.5c0 3.039-2.461 5.5-5.5 5.5s-5.5-2.461-5.5-5.5 2.461-5.5 5.5-5.5 5.5 2.461 5.5 5.5" fill-opacity=".788"/></g></g></svg>
