<svg viewBox="0 0 48 48" xmlns="http://www.w3.org/2000/svg"><defs><linearGradient id="a" x2="0" y1="546.9" y2="516.5" gradientUnits="userSpaceOnUse"><stop stop-color="#197cf1" offset="0"/><stop stop-color="#20bcfa" offset="1"/></linearGradient></defs><g fill="#fff"><g fill-opacity=".878"><circle transform="matrix(1.631 0 0 1.631 -629.4 -843.4)" cx="400.6" cy="531.8" r="14" fill="url(#a)" fill-opacity="1" stroke="url(#a)" stroke-width="1.427"/></g><path transform="matrix(1.164 0 0 1.164 -414.7 -583.3)" d="m367.96 521.19c.655.661 1.721.663 2.379.005l6.657-7.325 6.626 7.354c.657.661 1.721.663 2.379.005.66-.658.662-1.725.005-2.384l-7.707-8.554c-.355-.357-.829-.514-1.294-.486-.465-.03-.94.125-1.296.48l-7.744 8.521c-.658.658-.66 1.725-.005 2.384m9.02 7.12c-1.531-.003-2.774 1.236-2.778 2.769-.003 1.533 1.235 2.777 2.766 2.78 1.531.003 2.774-1.236 2.778-2.769.003-1.533-1.235-2.777-2.766-2.78m.017-7.929c-1.531-.003-2.774 1.236-2.778 2.769-.003 1.533 1.235 2.777 2.766 2.78 1.531.003 2.774-1.236 2.778-2.769.003-1.533-1.235-2.777-2.766-2.78" fill-opacity=".855"/></g></svg>
