<svg viewBox="0 0 48 48" xmlns="http://www.w3.org/2000/svg" xmlns:xlink="http://www.w3.org/1999/xlink"><defs><linearGradient id="c" x2="0" y1="515.9" y2="510.7" gradientUnits="userSpaceOnUse" xlink:href="#a"/><linearGradient id="d" x1="523.1" x2="522.8" y1="-403.2" y2="-425.1" gradientUnits="userSpaceOnUse"><stop stop-color="#ac92ec" offset="0"/><stop stop-color="#64a9ff" offset=".202"/><stop stop-color="#4cdbb7" offset=".323"/><stop stop-color="#aee672" offset=".534"/><stop stop-color="#ffce53" offset=".763"/><stop stop-color="#fb6e51" offset=".899"/><stop stop-color="#ed5565" offset="1"/></linearGradient><linearGradient id="b" x1="401.4" x2="401" y1="544" y2="522.1" gradientUnits="userSpaceOnUse" xlink:href="#a"/><linearGradient id="e" x1="407.2" x2="424.1" y1="515.8" y2="532.6" gradientUnits="userSpaceOnUse" xlink:href="#a"/><linearGradient id="f" x1="415.3" x2="414.6" y1="537.1" y2="510.4" gradientUnits="userSpaceOnUse" xlink:href="#a"/><linearGradient id="g" x1="391.6" x2="390.9" y1="531.8" y2="507.7" gradientTransform="matrix(1 0 0 1.233 -8 -109.2)" gradientUnits="userSpaceOnUse"><stop stop-color="#d3d3d3" offset="0"/><stop stop-color="#fcf9f9" offset="1"/></linearGradient><linearGradient id="a"><stop stop-color="#222c35" offset="0"/><stop stop-color="#545e67" offset="1"/></linearGradient></defs><g transform="matrix(1 0 0 1 -376.6 -507.8)" enable-background="new"><rect x="376.6" y="516.9" width="48" height="29.59" rx="1.385" fill="url(#g)" stroke-width=".923"/><path transform="matrix(1.201 0 0 1.201 -96.84 -97.48)" d="m401.3 523.8a14 14 0 0 1 14-14 14 14 0 0 1 14 14 14 14 0 0 1-14 14 14 14 0 0 1-14-14" fill="url(#f)"/><circle transform="matrix(1.201 0 0 1.201 -96.84 -97.48)" cx="415.3" cy="523.8" r="11" fill="url(#e)"/><circle transform="matrix(0 1.201 -1.201 0 -96.84 -97.48)" cx="523.8" cy="-415.3" r="10" fill="url(#d)"/><circle transform="matrix(.9231 0 0 .9231 37.91 48.19)" cx="372.7" cy="513.3" r="2.591" fill="url(#c)" fill-rule="evenodd"/><circle cx="402.1" cy="531.9" r="10" fill="url(#b)"/></g></svg>
