<svg viewBox="0 0 48 48" xmlns="http://www.w3.org/2000/svg" xmlns:xlink="http://www.w3.org/1999/xlink"><defs><linearGradient id="f" x1="348.9" x2="348.6" y1="537.4" y2="533.6" gradientUnits="userSpaceOnUse" xlink:href="#a"/><linearGradient id="b" x1="359.3" x2="359" y1="511.3" y2="507.5" gradientUnits="userSpaceOnUse" xlink:href="#a"/><linearGradient id="e" x1="347.8" x2="348" y1="540.9" y2="501.6" gradientUnits="userSpaceOnUse"><stop stop-color="#2e3e46" offset="0"/><stop stop-color="#435a64" offset="1"/></linearGradient><linearGradient id="c" x1="25.86" x2="26.42" y1="37.92" y2="9.01" gradientUnits="userSpaceOnUse" xlink:href="#a"/><linearGradient id="d" x1="348.9" x2="348.6" y1="506.9" y2="503" gradientUnits="userSpaceOnUse" xlink:href="#a"/><linearGradient id="a"><stop stop-color="#1584d8" offset="0"/><stop stop-color="#1cb2ff" offset="1"/></linearGradient><linearGradient id="l" x1="333.5" x2="333.2" y1="522.4" y2="518.5" gradientUnits="userSpaceOnUse" xlink:href="#a"/><linearGradient id="g" x1="364" x2="363.7" y1="522.4" y2="518.5" gradientUnits="userSpaceOnUse" xlink:href="#a"/><linearGradient id="k" x1="353.1" x2="352.8" y1="543.1" y2="500.3" gradientUnits="userSpaceOnUse" xlink:href="#a"/><linearGradient id="i" x1="338.1" x2="337.8" y1="511.3" y2="507.5" gradientUnits="userSpaceOnUse" xlink:href="#a"/><linearGradient id="h" x1="338" x2="337.7" y1="533.1" y2="529.2" gradientUnits="userSpaceOnUse" xlink:href="#a"/><linearGradient id="j" x1="359.3" x2="359" y1="533" y2="529.2" gradientUnits="userSpaceOnUse" xlink:href="#a"/></defs><g transform="matrix(1.202 0 0 1.202 -394.8 -601.5)"><circle cx="348.6" cy="520.4" r="19.22" fill="url(#e)" stroke="url(#k)" stroke-linecap="round" stroke-linejoin="round" stroke-width="1.5"/><circle cx="348.7" cy="505.2" r="1.337" fill="url(#d)"/><path transform="matrix(.832 0 0 .832 328.5 500.4)" d="m24.23 10.81a13.45 13.45 0 0 0-13.45 13.45 13.45 13.45 0 0 0 13.45 13.45 13.45 13.45 0 0 0 13.45-13.45 13.45 13.45 0 0 0-13.45-13.45m-0.2266 6.193c2.02 1.709 3.922 3.961 4.82 6.469 0.556 1.551 0.612 3.234-0.172 4.721-0.9 1.712-2.715 2.81-4.648 2.81-1.93 0-3.748-1.098-4.648-2.81-0.784-1.487-0.728-3.17-0.172-4.721 0.9-2.508 2.803-4.76 4.82-6.469" fill="url(#c)"/><circle cx="348.7" cy="535.7" r="1.337" fill="url(#f)"/><circle cx="363.8" cy="520.7" r="1.337" fill="url(#g)"/><circle cx="333.3" cy="520.7" r="1.337" fill="url(#l)"/><circle cx="359.1" cy="531.4" r="1.337" fill="url(#j)"/><circle cx="337.8" cy="531.4" r="1.337" fill="url(#h)"/><circle cx="337.8" cy="509.7" r="1.337" fill="url(#i)"/><circle cx="359.1" cy="509.7" r="1.337" fill="url(#b)"/></g></svg>
