<svg viewBox="0 0 48 48" xmlns="http://www.w3.org/2000/svg"><defs><linearGradient id="c" x1="556.4" x2="555.3" y1="468.2" y2="419.6" gradientUnits="userSpaceOnUse"><stop stop-color="#566069" offset="0"/><stop stop-color="#6c7884" offset="1"/></linearGradient><linearGradient id="b" x1="-109.5" x2="-109.6" y1="31.56" y2="1.264" gradientUnits="userSpaceOnUse"><stop stop-color="#49b202" offset="0"/><stop stop-color="#8cd958" offset="1"/></linearGradient><linearGradient id="a" x1="-26.21" x2="-27.53" y1="59.52" y2="34.05" gradientUnits="userSpaceOnUse"><stop stop-color="#d5dbff" offset="0"/><stop stop-color="#f9ffff" offset="1"/></linearGradient></defs><g transform="matrix(.80031-.01103.01103.80031 31.33-2.991)"><rect transform="matrix(-.66071-.01326-.01326.66071 354.61-267.73)" x="504.3" y="424.2" width="76.81" height="58.99" rx="2.3" fill="url(#c)"/><rect transform="matrix(-1.227 -.2373 -.2373 1.227 -139.2 -7.543)" x="-130.5" y=".696" width="40.63" height="31.2" rx="1.217" fill="url(#b)"/><g transform="matrix(.13085.0286-.0286.13085-19.758 20.353)" fill="#fff" fill-opacity=".851"><path d="m60.36 63.29c-2.929-2.929-7.678-2.93-10.61-1e-4l-47.55 47.55c-1.407 1.407-2.197 3.315-2.197 5.304s0.79 3.896 2.196 5.303l47.35 47.35c1.465 1.465 3.384 2.197 5.304 2.197 1.919 0 3.839-0.732 5.303-2.196 2.93-2.929 2.93-7.678 1e-4 -10.61l-42.04-42.05 42.25-42.25c2.929-2.929 2.929-7.678 0-10.61"/><path d="m228.6 110.6-47.36-47.35c-2.928-2.928-7.677-2.929-10.61 1e-4 -2.929 2.929-2.929 7.678 1e-4 10.61l42.05 42.05-42.25 42.24c-2.93 2.929-2.93 7.678-1e-4 10.61 1.465 1.465 3.384 2.197 5.304 2.197 1.919 0 3.839-0.732 5.303-2.196l47.55-47.55c1.407-1.406 2.197-3.314 2.197-5.304-2e-3 -1.988-0.792-3.896-2.199-5.303"/><path d="m155.9 61.3c-3.314-2.484-8.02-1.806-10.5 1.51l-71.99 96.18c-2.482 3.316-1.807 8.02 1.51 10.5 1.348 1.01 2.925 1.496 4.488 1.496 2.282 0 4.537-1.038 6.01-3.01l71.99-96.18c2.483-3.316 1.807-8.02-1.509-10.5"/></g><path d="m-26.71 33.94a13.08 13.08 0 0 0-13.08 13.08 13.08 13.08 0 0 0 13.08 13.07 13.08 13.08 0 0 0 13.08-13.07 13.08 13.08 0 0 0-13.08-13.08m-3.955 7.557 9.557 5.435-9.484 5.561-0.074-11" fill="url(#a)"/></g></svg>
