<svg viewBox="0 0 48 48" xmlns="http://www.w3.org/2000/svg"><defs><linearGradient id="a" x2="0" y1="545.1" y2="518.1" gradientUnits="userSpaceOnUse"><stop stop-color="#197ff1" offset="0"/><stop stop-color="#21c6fb" offset="1"/></linearGradient></defs><g transform="matrix(1.714 0 0 1.714 -69.21 13.51)" enable-background="new"><g transform="translate(-346.2 -525.7)"><circle cx="400.6" cy="531.8" r="14" fill="url(#a)"/><circle cx="400.6" cy="531.8" r="14" fill="#5ea5fb" fill-opacity="0"/></g><path transform="matrix(.01915 0 0 .01915-12.886-4.377)" d="m3512 243.8c-205.6 0-382.8 121.2-464.2 296.1-2.5 5.3-2.5 11.49 0 16.89 81.4 174.9 258.6 296.1 464.2 296.1s382.8-121.2 464.2-296.1c2.5-5.3 2.5-11.49 0-16.89-81.4-174.9-258.6-296.1-464.2-296.1m0 94.46c116.1 0 210.1 94.09 210.1 210.1s-94.09 210.2-210.1 210.2c-116.1 0-210.1-94.15-210.1-210.2 0-116.1 94.09-210.1 210.1-210.1m0 75.54a134.5 134.5 0 0 0-134.5 134.5 134.5 134.5 0 0 0 134.5 134.5 134.5 134.5 0 0 0 134.5-134.5 134.5 134.5 0 0 0-134.5-134.5" fill="#fff" fill-opacity=".873"/></g></svg>
