<svg viewBox="0 0 48 48" xmlns="http://www.w3.org/2000/svg"><defs><linearGradient id="c" x1="401" x2="401.2" y1="546.6" y2="516.9" gradientUnits="userSpaceOnUse"><stop stop-color="#205ba0" offset="0"/><stop stop-color="#5dbfec" offset="1"/></linearGradient><linearGradient id="b" x1="409.4" x2="409.8" y1="533.9" y2="522.2" gradientUnits="userSpaceOnUse"><stop stop-color="#46a0ff" offset="0"/><stop stop-color="#9fe0ff" offset="1"/></linearGradient><linearGradient id="a" x1="403.3" x2="403.4" y1="532.6" y2="511.5" gradientUnits="userSpaceOnUse"><stop stop-color="#d5dbff" offset="0"/><stop stop-color="#f9ffff" offset="1"/></linearGradient></defs><g transform="matrix(1.076 0 0 1.076 -417 -539.4)"><circle transform="matrix(1.444 0 0 1.444 -169.8 -244.4)" cx="400.6" cy="531.8" r="14" fill="url(#c)" stroke="url(#c)" stroke-width="1.385"/><g fill-rule="evenodd" stroke-linecap="round" stroke-linejoin="round" stroke-width=".884"><path d="m394.2 533.7c14.31-9.958 20.84 6.355 37.51 0.078-10.11-1.119-15.99-9.811-27.12-10.78-9.946-0.249-13.56 2.214-10.39 10.71z" fill="url(#b)" stroke="url(#b)"/><path d="m393.5 534.8c-7.452-19.4 2.422-26.82 15.1-21.71 4.434 1.79 9.483 4.959 16.16 6.702-14.49-0.038-25.51 4.217-31.26 15z" fill="url(#a)" stroke="url(#a)"/></g></g></svg>
