<svg viewBox="0 0 48 48" xmlns="http://www.w3.org/2000/svg"><defs><linearGradient id="a" x2="0" y1="47.37" y2="-1.429" gradientUnits="userSpaceOnUse"><stop stop-color="#c52828" offset="0"/><stop stop-color="#ff5454" offset="1"/></linearGradient></defs><g transform="matrix(1 0 0 1 -38.37 25.88)" enable-background="new"><circle transform="translate(-20-25)" cx="82.37" cy="23.12" r="24" fill="url(#a)"/><path d="m73.36-13.875h-1.188c-.282 0-.511.229-.511.511v.635c0 .282-.229.511-.511.511h-1.107c-.282 0-.511-.229-.511-.511v-.635c0-.282-.229-.511-.511-.511h-13.333c-.282 0-.511.229-.511.511v.635c0 .282-.229.511-.511.511h-1.107c-.282 0-.511-.229-.511-.511v-.635c0-.282-.229-.511-.511-.511h-1.148c-.282 0-.511.229-.511.511v22.979c0 .282.229.511.511.511h1.148c.282 0 .511-.229.511-.511v-.467c0-.282.229-.511.511-.511h1.107c.282 0 .511.229.511.511v.467c0 .282.229.511.511.511h13.333c.282 0 .511-.229.511-.511v-.467c0-.282.229-.511.511-.511h1.107c.282 0 .511.229.511.511v.467c0 .282.229.511.511.511h1.188c.282 0 .511-.229.511-.511v-22.979c0-.282-.229-.511-.511-.511m-18.18 19.541c0 .282-.229.511-.511.511h-1.107c-.282 0-.511-.229-.511-.511v-1.107c0-.282.229-.511.511-.511h1.107c.282 0 .511.229.511.511v1.107m0-4.588c0 .282-.229.511-.511.511h-1.107c-.282 0-.511-.229-.511-.511v-1.107c0-.282.229-.511.511-.511h1.107c.282 0 .511.229.511.511v1.107m0-4.589c0 .282-.229.511-.511.511h-1.107c-.282 0-.511-.229-.511-.511v-1.107c0-.282.229-.511.511-.511h1.107c.282 0 .511.229.511.511v1.107m0-4.588c0 .282-.229.511-.511.511h-1.107c-.282 0-.511-.229-.511-.511v-1.107c0-.282.229-.511.511-.511h1.107c.282 0 .511.229.511.511v1.107m12.146 15.525c0 .282-.229.511-.511.511h-8.877c-.282 0-.511-.229-.511-.511v-4.104c0-.282.229-.511.511-.511h8.877c.282 0 .511.229.511.511v4.104m0-7.249c0 .282-.229.511-.511.511h-8.877c-.282 0-.511-.229-.511-.511v-4.104c0-.282.229-.511.511-.511h8.877c.282 0 .511.229.511.511v4.104m0-7.249c0 .282-.229.511-.511.511h-8.877c-.282 0-.511-.229-.511-.511v-4.104c0-.282.229-.511.511-.511h8.877c.282 0 .511.229.511.511v4.104m4.337 12.738c0 .282-.229.511-.511.511h-1.107c-.282 0-.511-.229-.511-.511v-1.107c0-.282.229-.511.511-.511h1.107c.282 0 .511.229.511.511v1.107m0-4.588c0 .282-.229.511-.511.511h-1.107c-.282 0-.511-.229-.511-.511v-1.107c0-.282.229-.511.511-.511h1.107c.282 0 .511.229.511.511v1.107m0-4.589c0 .282-.229.511-.511.511h-1.107c-.282 0-.511-.229-.511-.511v-1.107c0-.282.229-.511.511-.511h1.107c.282 0 .511.229.511.511v1.107m0-4.588c0 .282-.229.511-.511.511h-1.107c-.282 0-.511-.229-.511-.511v-1.107c0-.282.229-.511.511-.511h1.107c.282 0 .511.229.511.511v1.107" fill="#fff" fill-opacity=".846"/></g></svg>
