<svg viewBox="0 0 48 48" xmlns="http://www.w3.org/2000/svg"><defs><linearGradient id="a" x2="0" y1="14.36" y2="-13.64" gradientUnits="userSpaceOnUse"><stop stop-color="#0bac83" offset="0"/><stop stop-color="#10da96" offset="1"/></linearGradient></defs><g transform="matrix(1.714 0 0 1.714 -49.25 23.39)" enable-background="new"><rect x="28.73" y="-13.64" width="28" height="28" rx="14" fill="url(#a)"/><path d="m51.34-3.843l-1.603-1.603c-.22-.22-.487-.33-.801-.33-.314 0-.582.11-.801.33l-7.731 7.743-3.465-3.477c-.22-.22-.487-.33-.801-.33-.314 0-.581.11-.801.33l-1.603 1.603c-.22.22-.33.487-.33.801 0 .314.11.581.33.801l4.266 4.266 1.603 1.603c.22.22.487.33.801.33.314 0 .581-.11.801-.33l1.603-1.603 8.532-8.532c.22-.22.33-.487.33-.801 0-.314-.11-.581-.33-.801" fill="#fff" fill-opacity=".849"/></g></svg>
