<svg viewBox="0 0 48 48" xmlns="http://www.w3.org/2000/svg" xmlns:xlink="http://www.w3.org/1999/xlink"><defs><linearGradient id="b" x1="242.9" x2="235.6" y1="704.7" y2="-189.2" gradientUnits="userSpaceOnUse" xlink:href="#a"/><linearGradient id="a"><stop stop-color="#f15f19" offset="0"/><stop stop-color="#fbb521" offset="1"/></linearGradient><linearGradient id="d" x1="-124" x2="-125.2" y1="73.5" y2="-26.05" gradientTransform="matrix(10.57 0 0 10.22 1596 23.57)" gradientUnits="userSpaceOnUse"><stop stop-color="#141414" offset="0"/><stop stop-color="#2d2d2f" offset="1"/></linearGradient><linearGradient id="c" x1="408.8" x2="407.8" y1="546.3" y2="501.5" gradientUnits="userSpaceOnUse" xlink:href="#a"/></defs><g transform="matrix(.04675 0 0 .04675 12 12)"><rect x="-256.7" y="-256.7" width="1027" height="1027" rx="63.78" fill="url(#d)" fill-rule="evenodd" stroke-width="21.39"/><circle transform="matrix(20.06 0 0 20.06 -7925 -10254)" cx="407.8" cy="523.9" r="21.43" fill="none" stroke="url(#c)" stroke-linecap="round" stroke-linejoin="round" stroke-width="2.345"/><path d="m299.4 0h-42.78s0 21.39 2.139 21.39h-2.139v269.5c-23.53-21.39-53.47-34.22-85.55-34.22-70.58 0-128.3 57.75-128.3 128.3 0 70.58 57.75 128.3 128.3 128.3 70.58 0 128.3-57.75 128.3-128.3v-258.8c38.5 51.33 100.5 85.55 171.1 85.55v-40.64c-94.11 1e-4 -171.1-85.55-171.1-171.1" fill="url(#b)"/></g></svg>
