<svg viewBox="0 0 48 48" xmlns="http://www.w3.org/2000/svg"><defs><linearGradient id="a" x2="0" y1="545.1" y2="518.1" gradientUnits="userSpaceOnUse"><stop stop-color="#c61423" offset="0"/><stop stop-color="#ff4c63" offset="1"/></linearGradient></defs><g transform="translate(-384.57-499.8)"><g transform="matrix(1.714 0 0 1.714 -278.1 -387.9)"><circle cx="400.6" cy="531.8" r="14" fill="url(#a)"/><circle cx="400.6" cy="531.8" r="14" fill="#5ea5fb" fill-opacity="0"/></g><path d="m408.5 509.56c-1.526 1.028-1.951.817-1.848 2.656l.631 11.285-5.418 3.612c-.336-.901-.988-1.685-1.916-2.145-1.956-.971-4.325-.155-5.31 1.829-.986 1.986-.212 4.361 1.752 5.336 1.956.971 4.325.155 5.31-1.829.119-.24.21-.486.279-.735l3.074-2.071c1.109.533 1.792-.493 2.443-.19l.286 5.11c-.163.21-.309.441-.433.69-.986 1.986-.212 4.361 1.752 5.336 1.956.971 4.325.155 5.31-1.829.986-1.986.212-4.361-1.752-5.336-.923-.458-1.935-.506-2.852-.234l-.397-6.488 9.372-6.319c1.526-1.028 1.102-1.239.999-3.078l-10.516 7.01-.769-12.616m-.059 14.264c.392.195.548.671.351 1.067-.197.397-.671.56-1.063.365-.392-.195-.548-.671-.351-1.067.197-.397.671-.56 1.063-.365zm-9.204 2.577c1.174.583 1.643 2.01 1.051 3.203-.591 1.191-2.01 1.681-3.187 1.098-1.174-.583-1.643-2.01-1.051-3.203.591-1.191 2.01-1.681 3.187-1.098zm12.714 6.313c1.174.583 1.643 2.01 1.051 3.203-.591 1.191-2.01 1.681-3.187 1.098-1.174-.583-1.643-2.01-1.051-3.203.591-1.191 2.01-1.681 3.187-1.098z" color-rendering="auto" fill="#fbdfe2" image-rendering="auto" shape-rendering="auto" solid-color="#000000" stroke="#fbdfe2" stroke-linecap="round" stroke-linejoin="round" stroke-width="1.5" isolation="auto" mix-blend-mode="normal" white-space="normal"/></g></svg>
