<svg viewBox="0 0 48 48" xmlns="http://www.w3.org/2000/svg"><defs><linearGradient id="b" x1="19.1" x2="18.56" y1="46.17" y2=".61" gradientUnits="userSpaceOnUse"><stop stop-color="#060606" offset="0"/><stop stop-color="#343434" offset="1"/></linearGradient><linearGradient id="a" x1="24.76" x2="24.02" y1="46.58" y2="1.017" gradientUnits="userSpaceOnUse"><stop stop-color="#cdced2" offset="0"/><stop stop-color="#f1f1f1" offset="1"/></linearGradient></defs><g transform="translate(0 1)"><path d="m24 1v11h4l5 4v3h-4v-1l-2-2h-3v6h5l4 4v6l-5 4h-4v11c12.7 0 23-10.3 23-23s-10.3-23-23-23m0 35v-4h-2l-2-2v-1h-5v3l5 4h4zm0-4h3l2-2v-2l-2-2h-3v6m0-6v-4h-2l-3-2v-2l3-2h2v-4h-4l-5 4v6l5 4h4" fill="url(#a)"/><path d="m24 1c-12.7 0-23 10.3-23 23s10.3 23 23 23v-11h-4l-5-4v-3h5v1l2 2h2v-6h-4l-5-4v-6l5-4h4v-11m0 11v4h3l2 2v1h4v-3l-5-4h-4m0 4h-2l-3 2v2l3 2h2v-6m0 6v4h3l2 2v2l-2 2h-3v4h4l5-4v-6l-4-4h-5" fill="url(#b)"/></g></svg>
