<svg viewBox="0 0 48 48" xmlns="http://www.w3.org/2000/svg"><defs><linearGradient id="c" x1="248.2" x2="248" y1="-6.236" y2="-40.76" gradientUnits="userSpaceOnUse"><stop stop-color="#a0d5ff" offset="0"/><stop stop-color="#edf7f7" offset="1"/></linearGradient><linearGradient id="b" x1="409.6" x2="409.8" y1="544.8" y2="504.7" gradientTransform="matrix(1.217 0 0 1.159 -88.7 -83.99)" gradientUnits="userSpaceOnUse"><stop stop-color="#197cf1" offset="0"/><stop stop-color="#20bcfa" offset="1"/></linearGradient><linearGradient id="a" x1="25.02" x2="24.81" y1="37.36" y2="18.2" gradientUnits="userSpaceOnUse"><stop stop-color="#a0d5ff" offset="0"/><stop stop-color="#fff" offset="1"/></linearGradient></defs><g transform="matrix(.8963 0 0 .8963 -342.2 -442.2)" enable-background="new"><path transform="matrix(.4807 0 0 .484 286 510.5)" d="m204.25-29.481c-1.108 0-2 .892-2 2v81.61l104.06.24v-70.04c0-1.108-.892-2-2-2h-48.601c-2.039.18-2.301-.09-3.308-1.435-1.429-1.912-3.586-7.06-4.992-8.929-1.129-1.633-1.312-1.443-3.184-1.443z" fill="url(#c)"/><rect x="381.8" y="504.8" width="53.55" height="39.42" rx="1.855" fill="url(#b)" stroke-width="1.162"/></g><path d="m19.389 24.02c-.617-.485-1.392-.773-2.233-.773-1.981 0-3.594 1.598-3.644 3.59-2.046.775-3.502 2.772-3.502 5.11 0 2.763 2.031 5.05 4.666 5.406v.05h18.668v-.009c2.603-.153 4.666-2.335 4.666-5.01 0-2.576-1.92-4.697-4.39-4.982.001-.156.017-.316.017-.475 0-3.991-3.33-7.226-7.438-7.226-3.04 0-5.655 1.772-6.809 4.312" fill="url(#a)"/></svg>
