<svg viewBox="0 0 48 48" xmlns="http://www.w3.org/2000/svg"><defs><clipPath id="b"><path transform="matrix(15.33 0 0 11.5 415 -125.5)" d="m-24 13c0 1.105-0.672 2-1.5 2s-1.5-0.895-1.5-2 0.672-2 1.5-2 1.5 0.895 1.5 2" fill="#1890d0"/></clipPath><linearGradient id="c" x1="-10.77" x2="-11.23" y1="4.675" y2="-22.85" gradientTransform="matrix(1.774 0 0 1.714 42.46 39.38)" gradientUnits="userSpaceOnUse"><stop stop-color="#74cb32" offset="0"/><stop stop-color="#abeb6b" offset="1"/></linearGradient><linearGradient id="a" x1="25.21" x2="22.23" y1="36.08" y2="12.07" gradientUnits="userSpaceOnUse"><stop stop-color="#141414" offset="0"/><stop stop-color="#2d2d2f" offset="1"/></linearGradient></defs><g enable-background="new"><rect width="48" height="48" rx="3.085" fill="url(#c)" stroke-width="1.714"/></g><g transform="translate(-69.3 8.611)"><g transform="matrix(1.333 0 0 1.333 61.3 -16.61)" clip-path="url(#b)"><path d="m22.02 12c-8.516 3.609-7.527 13.355.051 15.91 9.453 5.445 4.03 5.898 3.578 8.094 5.434-1.883 11.11-10.852-.078-16.43-5.805-2.297-6.672-4.836-3.543-7.57" fill="url(#a)"/></g></g></svg>
