<svg viewBox="0 0 48 48" xmlns="http://www.w3.org/2000/svg" xmlns:xlink="http://www.w3.org/1999/xlink"><defs><linearGradient id="b" x1="25.52" x2="25.18" y1="35" y2="13.57" gradientUnits="userSpaceOnUse" xlink:href="#a"/><linearGradient id="a" x2="0" y1="232.5" y2="176.5" gradientUnits="userSpaceOnUse"><stop stop-color="#ffc515" offset="0"/><stop stop-color="#ffd55b" offset="1"/></linearGradient><linearGradient id="d" x1="-10.77" x2="-11.23" y1="4.675" y2="-22.85" gradientTransform="matrix(1.774 0 0 1.714 42.46 39.38)" gradientUnits="userSpaceOnUse"><stop stop-color="#141414" offset="0"/><stop stop-color="#2d2d2f" offset="1"/></linearGradient><linearGradient id="c" x1="325.3" x2="326.3" y1="85.89" y2="62.56" gradientTransform="matrix(.7695 0 0 .7735 -266.7 -31.07)" gradientUnits="userSpaceOnUse" xlink:href="#a"/></defs><g enable-background="new"><rect width="48" height="48" rx="3.085" fill="url(#d)" stroke-width="1.714"/></g><g transform="matrix(1.19 0 0 1.19 50.18 -6.25)"><path transform="matrix(.8404 0 0 .8404 -42.17 5.252)" d="m18.92 14.883h8.668-8.668zm2.166.543v2.166h4.334v-2.166h-4.334zm-3.693 2.727l-1.182 2.047h-1.32l-.848.846v3.59h-4.266l4.234.137v4.703l.709.641 3.188-.068 3.518 4.357h4.178 4.18l2.184-1.711v-1.488h3.748v2.1h2.912c.757 0 1.219-4.539 1.287-6.367.068-1.829-1.422-5.553-1.422-5.553h-2.777v2.166h-2.168v-2.166h-2.156l-1.094-.949v-1.141l-1.219-1.143h-11.686zm-8.768 1.031v4.74l.723 2.146-.723-6.887zm.723 6.887l.361 3.438v-2.365l-.361-1.072z" fill="none" stroke="url(#b)" stroke-width="2.167"/><path d="m-16.615 25.423l-4.915 3.091.735-3.091c.138-.065 1.238.065 1.324 0l1.627-3.04-.869-.022c0 0-.273-.016-.329-.258-.071-.308-.031-.461.194-.743l3.287-5.594h4.03l-5.03 4.633 2.963.004-4.896 5.02h1.876" fill="url(#c)"/></g></svg>
