<svg viewBox="0 0 48 48" xmlns="http://www.w3.org/2000/svg"><defs><linearGradient id="a" x2="0" y1="232.5" y2="176.5" gradientUnits="userSpaceOnUse"><stop stop-color="#ffc515" offset="0"/><stop stop-color="#ffd55b" offset="1"/></linearGradient></defs><path transform="matrix(.8642 0 0 .8642 -621.9 -152.6)" d="m773.16 188.32c-.017-1.302-1.019-2.377-2.315-2.496-10.772-1.01-19.563-6.764-22.461-8.87-.606-.442-1.426-.442-2.032 0-2.893 2.106-11.683 7.863-22.456 8.87-1.296.119-2.293 1.194-2.315 2.496-.13 8.497 1.234 37.34 25.14 43.762.425.113.872.113 1.296 0 23.905-6.413 25.27-35.27 25.14-43.762" fill="url(#a)"/><path transform="matrix(.4231 0 0 .4231 33.2 14.37)" d="m-21.75-0.875a26 26 0 0 0-26 26 26 26 0 0 0 26 26 26 26 0 0 0 26-26 26 26 0 0 0-26-26m10.06 16.6c0.494 0 0.913 0.172 1.258 0.518l2.52 2.52-2e-3 2e-3c0.345 0.346 0.52 0.765 0.52 1.258 0 0.494-0.174 0.915-0.52 1.26l-13.41 13.41-2.518 2.52c-0.346 0.345-0.767 0.518-1.26 0.518-0.494 0-0.915-0.172-1.26-0.518l-9.223-9.223c-0.345-0.345-0.518-0.767-0.518-1.26 0-0.494 0.172-0.913 0.518-1.258l2.52-2.52c0.345-0.345 0.765-0.518 1.26-0.518 0.494 0 0.913 0.172 1.258 0.518l5.445 5.463 12.15-12.17c0.345-0.345 0.765-0.518 1.26-0.518" fill="#40330d"/></svg>
