<svg version="1.1" viewBox="0 0 48 48" xmlns="http://www.w3.org/2000/svg"><path d="m3.495 10.58c-0.8228 0-1.494 0.6699-1.494 1.494v23.84c0 0.8228 0.6699 1.494 1.494 1.494h30.12c0.8228 0 1.494-0.6699 1.494-1.494v-8.359l8.511 7.331c0.4268 0.3685 1.033 0.4521 1.543 0.2178 0.5115-0.2354 0.8393-0.748 0.8393-1.312v-19.6c0-0.5643-0.3267-1.074-0.8393-1.309-0.5115-0.2343-1.116-0.1529-1.543 0.2145l-8.511 7.331v-8.359c0-0.8228-0.6699-1.494-1.494-1.494h-30.12m14.85 6.647a6.769 6.769 0 0 1 6.769 6.769 6.769 6.769 0 0 1-6.769 6.769 6.769 6.769 0 0 1-6.769-6.769 6.769 6.769 0 0 1 6.769-6.769" enable-background="new" fill="#fff"/></svg>
