<svg version="1.1" viewBox="0 0 48 48" xmlns="http://www.w3.org/2000/svg"><path d="m3.494 10.58c-0.8225 0-1.494 0.6701-1.494 1.494v23.84c0 0.8225 0.6701 1.494 1.494 1.494h30.12c0.8225 0 1.494-0.6701 1.494-1.494v-8.358l8.512 7.331c0.4265 0.3689 1.034 0.4518 1.543 0.2183 0.5128-0.2352 0.8394-0.748 0.8394-1.312v-19.6c0-0.5635-0.3266-1.073-0.8394-1.308-0.5111-0.2352-1.117-0.154-1.543 0.2149l-8.512 7.331v-8.358c0-0.8225-0.6701-1.494-1.494-1.494h-30.12m7.945 6.647h4.512v13.54h-4.512v-13.54m9.027 0h4.512v13.54h-4.512v-13.54" enable-background="new" fill="#fff"/></svg>
