<svg viewBox="0 0 48 48" xmlns="http://www.w3.org/2000/svg"><defs><linearGradient id="a" x2="0" y1="56.14" y2="7.339" gradientUnits="userSpaceOnUse"><stop stop-color="#ff6835" offset="0"/><stop stop-color="#ff956f" offset="1"/></linearGradient></defs><g transform="translate(56.36-7.892)"><circle cx="-32.36" cy="31.89" r="24" fill="url(#a)"/><path d="m-20.08 30.361c-.173.155-.428.163-.613.023l-6.103-4.644-2.891 17.297c-.011.066-.034.125-.068.18-.58 2.48-3.744 4.328-7.465 4.328-4.171 0-7.565-2.31-7.565-5.149 0-2.84 3.393-5.15 7.565-5.15 1.713 0 3.341.383 4.665 1.086l3.824-21.691c.034-.198.189-.356.39-.393.194-.034.397.055.5.23l7.855 13.276c.119.202.079.453-.095.608" fill-opacity=".572"/></g></svg>
