<svg viewBox="0 0 48 48" xmlns="http://www.w3.org/2000/svg"><defs><linearGradient id="b" x1="5.485" x2="3.419" y1="262.8" y2="147.6" gradientTransform="matrix(.41708-.0003.00032.39759-41.925-57.56)" gradientUnits="userSpaceOnUse"><stop stop-color="#1074f5" offset="0"/><stop stop-color="#02befd" offset="1"/></linearGradient><linearGradient id="a" x2="0" y1="551.7" y2="528.3" gradientUnits="userSpaceOnUse"><stop stop-color="#e3e3e3" offset="0"/><stop stop-color="#fcf9f9" offset="1"/></linearGradient></defs><g transform="matrix(.6924 0 0 .6924 18.3 17.47)" stroke-width="1.317"><path transform="matrix(1.444 0 0 1.444 53.02 -28.07)" d="m-51.8 2.057c-0.168 0-3.17-0.218-3.17 2.973l-0.105 40.02c0 3.191 3 2.971 3.168 2.971h39.73c0.168 0 3.168 0.22 3.168-2.971v-19.95h0.047v-20.07c0-3.191-3-2.973-3.168-2.973h-19.92z" fill="url(#b)" fill-rule="evenodd"/><path transform="matrix(1.487 0 0 1.487 -675.2 -774)" d="m453.6 515.3c-0.891 0.252-1.609 1.255-1.609 2.229v15.44c-0.904-0.5-2.065-0.702-3.268-0.372-2.172 0.596-3.533 2.521-3.067 4.299s2.605 2.772 4.777 2.176c1.733-0.475 2.927-1.82 3.118-3.238l0.05-14.6 11.26-3.184v11.52c-0.904-0.5-2.065-0.702-3.268-0.372-2.172 0.596-3.533 2.521-3.067 4.299s2.605 2.772 4.777 2.176c1.733-0.475 2.927-1.82 3.118-3.238l0.05-19c0-0.731-0.428-1.277-1.01-1.38l-11.87 3.238" fill="#d9effc"/><circle transform="matrix(1.487 0 0 1.487 -675.4 -779)" cx="469.9" cy="540.3" r="13.07" fill="url(#a)"/><path d="m23.737 12.01c2.735.006 5.508.858 7.675 2.546 1.523 1.754-1.379 3.633-2.686 1.923-3.934-2.381-9.483-1.542-12.443 2.02-1.575 1.766-2.462 4.123-2.452 6.489h2.6l-4.16 6.24-4.16-6.24h2.6c-.083-5.649 3.98-11.02 9.435-12.486 1.17-.321 2.376-.501 3.591-.488m11.414 6.76l4.16 6.24h-2.6c.074 5.717-4.093 11.151-9.643 12.537-3.745 1.046-7.98.283-11.06-2.11-1.57-1.784 1.372-3.645 2.691-1.918 3.812 2.313 9.15 1.579 12.159-1.724 1.742-1.795 2.744-4.283 2.731-6.785h-2.6l4.16-6.24" fill="#0f7bf6"/></g></svg>
