<svg version="1.1" viewBox="0 0 48 48" xmlns="http://www.w3.org/2000/svg" xmlns:xlink="http://www.w3.org/1999/xlink"><defs><linearGradient id="a" x2="0" y1="542.8" y2="507.8" gradientTransform="matrix(.692 0 0 .6758 117.8 177.2)" gradientUnits="userSpaceOnUse"><stop stop-color="#42a603" offset="0"/><stop stop-color="#78da06" offset="1"/></linearGradient></defs><g transform="matrix(1.576 0 0 1.576 -607.5 -814.3)"><rect x="385.4" y="520.3" width="30.45" height="22.98" rx="1.081" fill="url(#a)" stroke-width=".658"/></g><g transform="matrix(1 0 0 1 -48.38 30.87)" enable-background="new" fill="#fff" fill-opacity=".9315"><path d="m82.63-12.53c-0.579-0.564-1.278-0.846-2.097-0.846h-2.595l-0.591-1.535c-0.147-0.369-0.415-0.687-0.805-0.954s-0.79-0.401-1.199-0.401h-5.932c-0.409 0-0.809 0.134-1.199 0.401s-0.658 0.585-0.805 0.954l-0.591 1.535h-2.595c-0.819 0-1.518 0.282-2.097 0.846s-0.869 1.245-0.869 2.043v10.11c0 0.798 0.29 1.479 0.869 2.043s1.278 0.847 2.097 0.847h16.31c0.819 0 1.517-0.282 2.097-0.847 0.579-0.564 0.869-1.245 0.869-2.043v-10.11c0-0.798-0.29-1.479-0.869-2.043m-6.586 10.67c-1.016 0.99-2.238 1.484-3.667 1.484s-2.651-0.495-3.667-1.484-1.523-2.18-1.523-3.572 0.508-2.583 1.523-3.572c1.016-0.99 2.238-1.484 3.667-1.484s2.651 0.495 3.667 1.484 1.523 2.18 1.523 3.572-0.508 2.583-1.523 3.572m-3.667-6.823c-0.919 0-1.705 0.318-2.358 0.954s-0.979 1.401-0.979 2.297 0.326 1.661 0.979 2.297 1.438 0.954 2.358 0.954c0.919 0 1.705-0.318 2.358-0.954s0.979-1.402 0.979-2.297c0-0.896-0.326-1.661-0.979-2.297s-1.439-0.954-2.358-0.954" fill="#fff" fill-opacity=".9315" opacity=".795"/></g></svg>
