<svg viewBox="0 0 48 48" xmlns="http://www.w3.org/2000/svg"><defs><linearGradient id="a" x1="70.03" x2="66.53" y1="569.2" y2="491.1" gradientTransform="matrix(.2326 0 0 .2402 37.61 -115.6)" gradientUnits="userSpaceOnUse"><stop stop-color="#2e3436" offset="0"/><stop stop-color="#555753" offset="1"/></linearGradient></defs><g transform="matrix(1.714 0 0 1.714 -69.21 8.602)" enable-background="new"><rect x="40.38" y="-3.838" width="28" height="25.65" rx="1.207" fill="url(#a)"/><g fill="#e2e3e3" fill-rule="evenodd" stroke="#50524f" stroke-width=".262"><path d="m58.49 2.866h4.442l3.471-3.071-3.471-3.397h-4.442l3.147 3.397z"/><path d="m42.64 2.866h4.442l3.471-3.071-3.471-3.397h-4.442l3.147 3.397z"/><path d="m50.48 2.866h4.442l3.471-3.071-3.471-3.397h-4.442l3.147 3.397z"/></g></g><path d="m24 18.597c-6.074 0-11 4.925-11 11 0 6.075 4.926 11 11 11 6.074 0 11-4.926 11-11 0-6.074-4.925-11-11-11m0 5.691c.41 0 .741.333.741.743v7.862l3.062-3.062c.29-.29.76-.288 1.051.002.29.29.29.759 0 1.049l-4.2 4.202c-.178.177-.423.232-.654.192-.231.041-.475-.013-.654-.192l-4.2-4.202c-.29-.29-.29-.759 0-1.049.29-.29.759-.29 1.049 0l3.062 3.06v-7.862c0-.41.333-.743.743-.743" fill="#e2e3e3"/></svg>
