<svg viewBox="0 0 48 48" xmlns="http://www.w3.org/2000/svg"><defs><linearGradient id="a" x1="70.03" x2="66.53" y1="569.2" y2="491.1" gradientTransform="matrix(.2326 0 0 .2402 37.61 -115.6)" gradientUnits="userSpaceOnUse"><stop stop-color="#2e3436" offset="0"/><stop stop-color="#555753" offset="1"/></linearGradient></defs><g transform="matrix(1.714 0 0 1.714 -69.21 8.602)" enable-background="new"><rect x="40.38" y="-3.838" width="28" height="25.65" rx="1.207" fill="url(#a)"/><g fill="#e2e3e3" fill-rule="evenodd" stroke="#50524f" stroke-width=".262"><path d="m58.49 2.866h4.442l3.471-3.071-3.471-3.397h-4.442l3.147 3.397z"/><path d="m42.64 2.866h4.442l3.471-3.071-3.471-3.397h-4.442l3.147 3.397z"/><path d="m50.48 2.866h4.442l3.471-3.071-3.471-3.397h-4.442l3.147 3.397z"/></g></g><path d="m14 34.988v4.455h4.455l11.251-11.251-4.455-4.455zm19.647-10.723c.471-.471.471-1.214 0-1.685l-2.784-2.784c-.471-.471-1.214-.471-1.685 0l-2.327 2.342 4.455 4.455z" fill="#e2e3e3"/></svg>
