<svg viewBox="0 0 48 48" xmlns="http://www.w3.org/2000/svg"><defs><linearGradient id="a" x1="23.3" x2="24.13" y1="47.87" y2=".989" gradientUnits="userSpaceOnUse"><stop stop-color="#974eb7" offset="0"/><stop stop-color="#d164ff" offset="1"/></linearGradient></defs><circle cx="24" cy="24" r="24" fill="url(#a)"/><g transform="matrix(1.714 0 0 1.714 -676.4 -873.1)" enable-background="new"><path d="m408.6 536.1c7.088 0 12.83-5.746 12.83-12.83 0-7.088-5.746-12.83-12.83-12.83v2.406c5.759 0 10.43 4.668 10.43 10.43s-4.668 10.43-10.43 10.43v2.406" fill-opacity=".392"/><path d="m395.7 523.3c0 7.088 5.746 12.83 12.83 12.83v-2.406c-5.759 0-10.43-4.668-10.43-10.43s4.668-10.43 10.43-10.43v-2.406c-7.088 0-12.83 5.746-12.83 12.83" fill="#f5e7fb"/></g><path transform="matrix(.9167 0 0 .9167 45.57 -4.98)" d="m-15.11 26.79v4.836h-2.644v-4.836zm-2.418-2.38v4.836h-2.644v-4.836zm-2.324-2.38v4.836h-2.644v-4.836zm-2.362-2.418v15.15h-2.602v-15.15zm-2.49 16.44v7.556h-4.874v-7.556zm-7.256 0.254h7.556v4.874h-7.556zm2.192-2.342h7.556v7.254h-7.556z" fill="#f5e7fb" opacity=".98"/></svg>
