<svg viewBox="0 0 48 48" xmlns="http://www.w3.org/2000/svg" xmlns:xlink="http://www.w3.org/1999/xlink"><defs><linearGradient id="b" x2="0" y1="-15.39" y2="-39.39" gradientUnits="userSpaceOnUse" xlink:href="#a"/><linearGradient id="a"><stop stop-color="#cf003b" offset="0"/><stop stop-color="#eb678d" offset="1"/></linearGradient><linearGradient id="c" x1="-61.86" x2="-61.69" y1="-.386" y2="-31.86" gradientUnits="userSpaceOnUse"><stop stop-color="#bbbec4" offset="0"/><stop stop-color="#dddfe2" offset="1"/></linearGradient><linearGradient id="e" x2="0" y1="544.3" y2="543" gradientTransform="matrix(.7122 0 0 1.409 -381.7 -762.3)" gradientUnits="userSpaceOnUse" xlink:href="#a"/><linearGradient id="f" x2="0" y1="5.383" y2="2.392" gradientUnits="userSpaceOnUse"><stop stop-color="#040404" offset="0"/><stop stop-color="#121212" stop-opacity=".908" offset="1"/></linearGradient><linearGradient id="d" x1="10.09" x2="122.7" gradientTransform="matrix(.35 0 0 .3442 -84.47 -33.61)" gradientUnits="userSpaceOnUse"><stop stop-color="#1a1a1a" offset="0"/><stop stop-color="#2c2c2e" offset=".111"/><stop stop-color="#2b2b2d" offset=".29"/><stop stop-color="#2a2b2d" offset=".512"/><stop stop-color="#2b2b2d" offset=".752"/><stop stop-color="#323232" offset=".897"/><stop stop-color="#171717" offset="1"/></linearGradient></defs><g transform="translate(-158.75-37.35)" enable-background="new"><g transform="matrix(1.046 0 0 1.046 243.9 78.42)"><path d="m-80.94.075l.35 5.517c0 .572.468 1.033 1.05 1.033h36.624c.582 0 1.05-.461 1.05-1.033l.35-5.517h-39.42" fill="url(#d)"/><path d="m-77.79-32.27h32.776c.582 0 1.05.461 1.05 1.033l2.451 31.14c0 .572-.468 1.033-1.05 1.033h-37.33c-.582 0-1.05-.461-1.05-1.033l2.1-31.14c0-.572.468-1.033 1.05-1.033" fill="url(#c)"/><rect x="-69.24" y="3.494" width="16.15" height="1.083" rx=".542" fill="url(#e)"/><ellipse cx="-46.39" cy="4.074" rx="1.495" ry="1.495" fill="url(#f)" opacity=".452"/><g fill="#e3e8ea" stroke-width="1.317"><path d="m-46.39 4.113c.034 0 .063-.012.088-.037.025-.025.037-.054.037-.088v-.623c0-.034-.012-.063-.037-.088-.025-.025-.054-.037-.088-.037-.034 0-.063.012-.088.037-.025.025-.037.054-.037.088v.623c0 .034.012.063.037.088.025.025.054.037.088.037" opacity=".668"/><path d="m-45.724 3.779c-.052-.104-.126-.192-.221-.263-.027-.021-.058-.029-.093-.024-.034.005-.062.021-.082.049-.021.027-.029.058-.024.092.005.034.021.062.048.082.064.048.113.107.147.176.035.069.052.143.052.222 0 .068-.013.132-.039.193-.026.061-.062.114-.107.159-.045.045-.098.08-.159.107-.061.026-.126.039-.193.039-.068 0-.132-.013-.193-.039-.061-.026-.114-.062-.159-.107-.045-.045-.08-.098-.107-.159-.026-.061-.039-.126-.039-.193 0-.079.017-.153.052-.222.035-.069.084-.128.148-.176.027-.021.043-.048.048-.082.005-.034-.003-.065-.024-.092-.02-.028-.047-.044-.081-.049-.034-.005-.065.004-.093.024-.095.071-.168.158-.221.263-.052.105-.078.216-.078.334 0 .101.02.198.059.29.04.092.093.172.16.239.067.067.146.12.239.16.092.04.189.059.29.059.101 0 .198-.02.29-.059.092-.04.172-.093.239-.16.067-.067.12-.146.16-.239.04-.092.059-.189.059-.29 0-.118-.026-.229-.078-.334" opacity=".668"/></g></g><path d="m180.98 72.04c-3.718-1.201-5.926-2.675-8.348-5.965-.594-.906-1.687-2.929-1.645-5.57-.097-2.632 1.385-5.666 4.149-7.284 2.67-1.708 6.115-1.734 8.164-1.059 2.114.705 2.971 1.879 2.995 1.823-.065.015 1.133.919 1.666 2.887.595 1.892-.009 5.03-2.916 6.313-1.337.643-3.073.76-4.434.3-1.361-.493-2.349-1.576-2.678-2.707-.717-2.497 1.392-3.881 2.323-4.02 3.787-1.134 5.705 4.188 1.276 4.64 2.02.605 4.1-1.255 3.704-3.15-.08-1.895-2.635-3.777-5.454-3.01-.736.182-1.85.646-2.723 1.69-.895 1.037-1.3 2.662-.835 4.242.453 1.589 1.832 3.109 3.752 3.793 1.94.643 4.099.459 5.883-.375 3.807-1.691 4.569-5.813 3.813-8.08-.668-2.437-2.142-3.553-2.066-3.57-.027.066-1.088-1.382-3.709-2.26-2.563-.839-6.558-.78-9.757 1.235-3.274 1.885-5.05 5.59-4.919 8.576-.044 3.03 1.214 5.353 1.901 6.385 2.768 3.791 5.94 4.976 9.857 5.165" fill="#a1a7ae" stroke="#909296" stroke-width=".115"/><g transform="translate(120.4 63.23)"><circle transform="matrix(1.046 0 0 1.046 122.3 15.34)" cx="-46.79" cy="-27.39" r="12" fill="url(#b)"/><path d="m74.87-11.22 2.7-2.7 2.1 2.1-6.3 6.3-6.3-6.3 2.1-2.1 2.7 2.7v-9.9h3v9.9" fill="#fff" fill-opacity=".854"/></g></g></svg>
