<svg viewBox="0 0 48 48" xmlns="http://www.w3.org/2000/svg"><defs><linearGradient id="b" x1="-32.86" x2="-34.36" y1="47.76" y2="23.95" gradientUnits="userSpaceOnUse"><stop stop-color="#141414" offset="0"/><stop stop-color="#2d2d2f" offset="1"/></linearGradient><linearGradient id="a" x1="-37.42" x2="-37.02" y1="44.49" y2="2.795" gradientUnits="userSpaceOnUse"><stop stop-color="#974eb7" offset="0"/><stop stop-color="#d164ff" offset="1"/></linearGradient></defs><g transform="translate(60.41-2.034)"><rect x="-60.4" y="2.816" width="47.99" height="41.04" rx="1.704" fill="url(#a)"/><path d="m-13.03 23.38c0 8.713-4.594 16.34-11.45 20.49l-23.94-0.042c-6.819-4.161-11.38-11.76-11.38-20.44 0-8.764 4.648-16.42 11.57-20.56h23.68c6.889 4.144 11.51 11.82 11.51 20.56" fill="#ddf0fe" fill-opacity=".556" opacity=".9"/><circle cx="-36.42" cy="23.34" r="17.36" fill="#fff" fill-opacity=".44" opacity=".9"/><circle cx="-36.42" cy="23.34" r="10.8" fill="#fefefe" fill-opacity=".68" opacity=".9"/><path d="m-28.25 31.26l-5.261-.008v-6.373c0-1.574-1.067-2.854-2.486-2.854-1.42 0-2.486 1.28-2.486 2.854v9.651c-.597-.678-1.232-1.084-2.031-1.084-.441 0-.884.128-1.272.37-1.225.768-1.668 2.449-1 3.837 1.091 2.171 4.67 9.297 4.913 9.661.808 1.224 2.035 1.939 3.367 1.939h7.03c2.694 0 4.114-1.415 4.114-3.836v-8.877c0-.045.061-.089.058-.133.003-.069-.003-.141-.003-.215 0-2.72-2.22-4.932-4.939-4.932" fill="url(#b)"/></g></svg>
