<svg viewBox="0 0 48 48" xmlns="http://www.w3.org/2000/svg"><defs><clipPath id="a"><path transform="matrix(15.33 0 0 11.5 415 -125.5)" d="m-24 13c0 1.105-0.672 2-1.5 2s-1.5-0.895-1.5-2 0.672-2 1.5-2 1.5 0.895 1.5 2" fill="#1890d0"/></clipPath><linearGradient id="b" x1="24.2" x2="23.8" y1="41.7" y2="6.305" gradientUnits="userSpaceOnUse"><stop stop-color="#ffbc00" offset="0"/><stop stop-color="#ffec00" offset="1"/></linearGradient></defs><rect y="5.89" width="48" height="36.22" rx="1.704" fill="url(#b)" stroke-width="1.037"/><g transform="matrix(1.083 0 0 1.083 -2 -2)" fill="#271e00"><g clip-path="url(#a)"><path d="m15 12c-1.66 0-3 1.34-3 3v18c0 1.66 1.34 3 3 3h18c1.66 0 3-1.34 3-3v-18c0-1.66-1.34-3-3-3m-18 3h18v18h-18"/><path d="m17 28h14v3h-14"/></g></g></svg>
