<svg viewBox="0 0 48 48" xmlns="http://www.w3.org/2000/svg"><defs><linearGradient id="a" x1="13.59" x2="12.69" y1="37.09" y2="-12.66" gradientUnits="userSpaceOnUse"><stop stop-color="#e4e2e2" offset="0"/><stop stop-color="#fcf9f9" offset="1"/></linearGradient></defs><path transform="matrix(.9475 0 0 .9475 11.76 12.01)" d="m16.43 15.74c-0.159-0.052-1.164-0.505-0.536-2.414h-9e-3c1.637-1.686 2.888-4.399 2.888-7.07 0-4.107-2.731-6.26-5.905-6.26-3.176 0-5.892 2.152-5.892 6.26 0 2.682 1.244 5.406 2.891 7.088 0.642 1.684-0.506 2.309-0.746 2.396-2.238 0.724-8.325 4.332-8.229 9.586h24.05c0.107-5.02-4.708-8.279-8.513-9.586m21.82-3.079a25.33 25.33 0 0 1-25.33 25.33 25.33 25.33 0 0 1-25.33-25.33 25.33 25.33 0 0 1 25.33-25.33 25.33 25.33 0 0 1 25.33 25.33" fill="url(#a)"/></svg>
