<svg viewBox="0 0 48 48" xmlns="http://www.w3.org/2000/svg"><defs><linearGradient id="a" x1="15.88" x2="14.34" y1="55.64" y2="-7.895" gradientUnits="userSpaceOnUse"><stop stop-color="#e4e2e2" offset="0"/><stop stop-color="#fcf9f9" offset="1"/></linearGradient></defs><circle transform="matrix(1.713 0 0 1.71 -662.1 -885.1)" cx="400.6" cy="531.8" r="14" fill="#5ea5fb" fill-opacity="0"/><path transform="matrix(.7713 0 0 .7699 11.59 6.195)" d="m12.2 15.27c0-3.322 0.896-6.43 2.448-9.113 0.376-0.649-0.191-1.451-0.918-1.265-8.38 2.152-14.44 10.07-13.66 19.29 0.736 8.701 7.768 15.8 16.46 16.62 6.03 0.565 11.52-1.811 15.22-5.848 0.5-0.546 0.073-1.432-0.666-1.401-0.196 9e-3 -0.395 0.013-0.594 0.013-10.1 0-18.29-8.189-18.29-18.29m34.92 7.773a31.09 31.09 0 0 1-31.09 31.09 31.09 31.09 0 0 1-31.09-31.09 31.09 31.09 0 0 1 31.09-31.09 31.09 31.09 0 0 1 31.09 31.09" fill="url(#a)"/></svg>
