<svg viewBox="0 0 48 48" xmlns="http://www.w3.org/2000/svg"><defs><linearGradient id="b" x1="274.2" x2="271" y1="555.5" y2="7.88" gradientUnits="userSpaceOnUse"><stop stop-color="#e4e2e2" offset="0"/><stop stop-color="#fcf9f9" offset="1"/></linearGradient><linearGradient id="a" x1="287.5" x2="281.5" y1="711.8" y2="-158.7" gradientUnits="userSpaceOnUse"><stop stop-color="#566069" offset="0"/><stop stop-color="#6c7884" offset="1"/></linearGradient></defs><circle transform="matrix(1.713 0 0 1.71 -662.1 -885.1)" cx="400.6" cy="531.8" r="14" fill="#5ea5fb" fill-opacity="0"/><path transform="matrix(.05526 0 0 .05515 8.525 8.789)" d="m506.4 293.1h-43.84c-11.09 0-20.04 8.874-20.43 19.81-9.104 84.61-80.71 150.5-167.8 150.5-93.25 0-168.8-75.43-168.8-168.5 0-92.26 76.04-167.2 168.1-168.5v27.39c0 12.47 8.874 18.05 19.74 12.47l140.7-71.99c10.86-5.585 10.86-14.61 0-20.2l-140.7-71.84c-10.86-5.584-19.74 0-19.74 12.39v27.62c-138.7 1.301-252.4 114.1-252.4 252.8 0 139.6 113.3 252.8 253.1 252.8 133.7 0 243.3-103.5 252.4-234.8 0.076-11.02-9.18-19.97-20.35-19.97zm206.4-17.85a433.5 433.5 0 0 1-433.5 433.5 433.5 433.5 0 0 1-433.5-433.5 433.5 433.5 0 0 1 433.5-433.5 433.5 433.5 0 0 1 433.5 433.5" fill="url(#b)" stroke="url(#a)"/></svg>
