<svg viewBox="0 0 48 48" xmlns="http://www.w3.org/2000/svg"><defs><linearGradient id="a" x2="0" y1="48.61" y2="-1.22" gradientUnits="userSpaceOnUse"><stop stop-color="#c52828" offset="0"/><stop stop-color="#ff5454" offset="1"/></linearGradient></defs><circle cx="24" cy="24" r="24" fill="url(#a)" fill-rule="evenodd"/><g transform="matrix(.4918 0 0 .4918 47.81 11.1)" fill="#fae3e3"><path d="m-48.44-12.39c-21.28 0-38.6 17.26-38.6 38.6h5.131c0-18.48 14.89-33.44 33.47-33.44 18.57 0 33.54 14.96 33.54 33.44v0.353c-0.201 18.35-15.09 33.17-33.54 33.17v5.141c21.28 0 38.66-17.32 38.66-38.66 0-21.35-17.39-38.58-38.66-38.58"/><path d="m-85.59 15.939c-.907 3.279-1.45 6.741-1.45 10.303 0 4.448.786 8.745 2.174 12.719l.402.162 15.454-23.18"/></g></svg>
