<svg viewBox="0 0 48 48" xmlns="http://www.w3.org/2000/svg"><defs><linearGradient id="a" x1="-10.77" x2="-11.23" y1="4.675" y2="-22.85" gradientTransform="matrix(1.774 0 0 1.714 42.46 39.38)" gradientUnits="userSpaceOnUse"><stop stop-color="#566069" offset="0"/><stop stop-color="#6c7884" offset="1"/></linearGradient></defs><g enable-background="new"><rect width="48" height="48" rx="3.085" fill="url(#a)" stroke-width="1.714"/></g><path d="m31.657 33.561c-.596.283-1.733.53-2.583.553-2.561.068-3.058-1.8-3.079-3.156v-9.405h5.97v-5.451h-5.946v-8.102c0 0-4.612 0-4.688 0-.077 0-.211.068-.23.239-.275 2.495-1.443 6.874-6.296 8.624v4.689h3.694v9.901c0 3.579 2.185 8.664 9.155 8.545 2.352-.04 4.965-1.025 5.543-1.874l-1.54-4.563" fill="#fff" fill-opacity=".848"/></svg>
