<svg viewBox="0 0 48 48" xmlns="http://www.w3.org/2000/svg"><defs><linearGradient id="a" x1="-30.55" x2="-31.78" y1="50.38" y2="4.454" gradientUnits="userSpaceOnUse"><stop stop-color="#155bc2" offset="0"/><stop stop-color="#369dff" offset="1"/></linearGradient></defs><g transform="translate(56.22-3.865)"><circle cx="-32.22" cy="27.86" r="24" fill="url(#a)"/><path d="m-32.22 14.717c-3.719 0-7.138.801-9.634 2.425-2.496 1.624-4.065 4.086-4.062 7.357.016 3.697 2.413 8.467 5.303 12.365 1.445 1.949 3.01 3.679 4.484 4.94 1.469 1.261 2.829 2.062 3.901 2.13h.008.001c1.072-.068 2.432-.869 3.901-2.13 1.469-1.261 3.039-2.991 4.484-4.94 2.89-3.898 5.283-8.668 5.301-12.365.0001-3.271-1.566-5.733-4.062-7.357-2.496-1.624-5.915-2.425-9.634-2.425m.658 7.494c.124 0 .257.007.395.022h.004c1.88.159 3.21.799 3.952 1.899.825 1.223.709 2.716.567 3.497-.013.07-.068.126-.139.139-.071.013-.141-.022-.177-.084-.148-.252-.399-.632-.756-1.015-.867-.928-1.945-1.418-3.118-1.418-.098 0-.198 0-.298.001v6.938c0 1.286-.965 2.341-2.295 2.509-.121.013-.244.024-.365.024-1.283 0-2.36-.869-2.505-2.02-.078-.62.117-1.237.548-1.736.431-.5 1.046-.822 1.734-.909.395-.05.795-.019 1.168.094v-7.07c0-.406.336-.88 1.284-.88" color-rendering="auto" fill="#dfebfa" fill-rule="evenodd" image-rendering="auto" shape-rendering="auto" solid-color="#000000" isolation="auto" mix-blend-mode="normal" white-space="normal"/></g></svg>
