<svg viewBox="0 0 48 48" xmlns="http://www.w3.org/2000/svg"><defs><linearGradient id="b" x1="257.2" x2="254.8" y1="667.3" y2="-175.9" gradientUnits="userSpaceOnUse"><stop stop-color="#e4e4e4" offset="0"/><stop stop-color="#eee" offset="1"/></linearGradient><linearGradient id="a" x1="401.1" x2="400" y1="546.7" y2="516.3" gradientUnits="userSpaceOnUse"><stop stop-color="#155bc2" offset="0"/><stop stop-color="#369dff" offset="1"/></linearGradient></defs><circle transform="matrix(1.63 0 0 1.631 -629 -843.5)" cx="400.6" cy="531.8" r="14" fill="url(#a)" stroke="url(#a)" stroke-width="1.427"/><path transform="matrix(.05299 0 0 .05299 10.44 10.44)" d="m490.6 125.2c-44.4-6.384-91.69-11.01-141-13.61l82.44-82.44-32-32-112.3 112.3c-10.5-0.184-21.08-0.278-31.72-0.278l-128-128-32 32 97.1 97.1c-60.46 2.121-118.2 7.262-171.7 14.96-13.77 53.86-21.4 132.2-21.4 194.8s7.639 103.2 21.4 157.1c71.82 10.33 151.2 16.06 234.6 16.06s162.8-5.729 234.6-16.06c13.77-53.86 21.41-113.4 21.41-175.9s-7.639-122.1-21.41-176m196.1 130.8c0 114.3-45.37 223.9-126.1 304.7s-190.3 126.2-304.5 126.2-223.8-45.4-304.5-126.2-126.1-190.4-126.1-304.7 45.37-223.9 126.1-304.7 190.3-126.2 304.5-126.2 223.8 45.4 304.5 126.2 126.1 190.4 126.1 304.7z" fill="url(#b)"/></svg>
