<svg viewBox="0 0 48 48" xmlns="http://www.w3.org/2000/svg"><defs><linearGradient id="a" x2="0" y1="546.3" y2="501.5" gradientUnits="userSpaceOnUse"><stop stop-color="#0a80fd" offset="0"/><stop stop-color="#56c5fa" offset="1"/></linearGradient></defs><circle transform="matrix(1.072 0 0 1.072 -413.2 -537.6)" cx="407.8" cy="523.9" r="22.39" fill="url(#a)"/><path transform="matrix(.2022 0 0 .2022 -51.06 -66.92)" d="m443 411.8c-5.21 2.309-10.8 3.874-16.68 4.573 5.998-3.592 10.59-9.288 12.76-16.06-5.626 3.326-11.84 5.741-18.45 7.05-5.299-5.653-12.84-9.173-21.19-9.173-16.04 0-29.04 13-29.04 29.03 0 2.273 0.257 4.494 0.752 6.617-24.13-1.212-45.53-12.77-59.85-30.34-2.503 4.282-3.928 9.27-3.928 14.6 0 10.08 5.131 18.97 12.92 24.17-4.759-0.159-9.235-1.468-13.15-3.644v0.362c0 14.06 10.01 25.8 23.29 28.48-2.433 0.655-4.998 1.017-7.652 1.017-1.875 0-3.689-0.185-5.467-0.539 3.697 11.54 14.42 19.94 27.12 20.17-9.934 7.784-22.46 12.41-36.06 12.41-2.344 0-4.653-0.142-6.926-0.398 12.85 8.253 28.11 13.07 44.51 13.07 53.42 0 82.62-44.25 82.62-82.62l-0.097-3.759c5.705-4.069 10.64-9.182 14.52-15" fill="#fff" fill-opacity=".85"/></svg>
