<svg viewBox="0 0 48 48" xmlns="http://www.w3.org/2000/svg"><defs><linearGradient id="a" x2="0" y1="555.2" y2="527.2" gradientUnits="userSpaceOnUse"><stop stop-color="#ff9300" offset="0"/><stop stop-color="#ffd702" offset="1"/></linearGradient></defs><g transform="matrix(.8889 0 0 .8845 -332.1 -446.5)"><g transform="matrix(1.929 0 0 1.929 -201.1 -512)"><rect x="298" y="527.2" width="28" height="28" rx="14" fill="url(#a)"/><path transform="matrix(1.123 0 0 1.123 282.8 -626.6)" d="m27.21 1033-4.932 6 3.328 1.801-0.862 4.199 4.932-6-3.328-1.801z" fill-opacity=".796"/></g><path transform="matrix(.419 0 0 .3874 210.4 345)" d="m422.5 486.4c-1.129-0.057-2.331 4e-3 -3.612 0.192-13.19 1.931-14.28 16.28-21.95 27.07 8.92 22.82 31.03 38.93 57.08 38.93 20.21 0 38.02-9.721 49.18-24.71-22.95-28.69-30.07 3.897-49.18-5.289-13.72-8.438-14.58-35.33-31.52-36.19" fill="#342600" fill-rule="evenodd"/></g></svg>
