<svg version="1.1" viewBox="0 0 48 48" xmlns="http://www.w3.org/2000/svg"><defs><linearGradient id="c" x1=".967" x2=".807" y1="204.6" y2="147.6" gradientTransform="matrix(.41708-.0003.00032.39759 21.425-105.4)" gradientUnits="userSpaceOnUse"><stop stop-color="#1f75d3" offset="0"/><stop stop-color="#2896ff" offset="1"/></linearGradient><linearGradient id="b" x2="0" y1=".293" y2="-23.74" gradientUnits="userSpaceOnUse"><stop stop-color="#e7f0f4" offset="0"/><stop stop-color="#f4faff" offset="1"/></linearGradient><linearGradient id="a" x1="22.55" x2="21.17" y1="267" y2="148.1" gradientTransform="matrix(.4171 -3e-4 .00032 .3976 21.42 -105.5)" gradientUnits="userSpaceOnUse"><stop stop-color="#197cf1" offset="0"/><stop stop-color="#20bcfa" offset="1"/></linearGradient></defs><g transform="matrix(1 0 0 1 -8.371 45.88)" enable-background="new"><g fill-rule="evenodd"><path d="m11.55-45.78h19.92v23.04h-23.09v-20.07c0-3.191 3-2.971 3.169-2.971" fill="url(#c)"/><path d="m31.4-45.78v22.92h-23.02v20.07c0 3.191 3 2.971 3.168 2.971h39.73c0.168 0 3.168 0.22 3.168-2.971v-19.95h0.047v-20.07c0-3.191-3-2.973-3.168-2.973h-19.92" fill="url(#a)"/></g><path d="m42.92-24.88a13.46 13.46 0 0 0-13.46 13.46 13.46 13.46 0 0 0 13.46 13.46 13.46 13.46 0 0 0 13.46-13.46 13.46 13.46 0 0 0-13.46-13.46m3.396 5.992c0.05 3e-3 0.108 0.025 0.154 0.039 0.237 0.068 0.438 0.271 0.506 0.51l2.451 8.928 1.285-1.742c0.131-0.194 0.33-0.328 0.563-0.334h1.42c0.028 0 0.059 0.03 0.059 0.059v1.371c0 0.028-0.028 0.039-0.057 0.039h-1.051l-1.887 2.623c-0.323 0.425-1.128 0.277-1.285-0.234l-2.236-7.949-1.537 5.07c-0.094 0.288-0.398 0.484-0.699 0.49h-2.548l-2.082 6.891c-0.104 0.374-0.545 0.621-0.914 0.51-0.237-0.068-0.438-0.271-0.506-0.51l-2.471-8.945-1.264 1.742c-0.131 0.194-0.351 0.306-0.584 0.313h-1.46c-0.028 0-0.039-0.011-0.039-0.039v-1.371c0-0.028 0.011-0.059 0.039-0.059h1.11l1.887-2.584c0.323-0.425 1.126-0.277 1.283 0.234l2.219 7.949 1.555-5.09c0.094-0.288 0.38-0.503 0.682-0.51h2.548l2.1-6.852c0.078-0.28 0.339-0.49 0.623-0.529 0.047-6e-3 0.087-0.02 0.137-0.02z" fill="url(#b)"/><g fill="#fff"><g fill-opacity=".851"><path d="m23.22-11.308c-.016-1.646 1.343-2.436 1.403-2.475-.764-1.117-1.953-1.271-2.377-1.288-1.012-.103-1.975.596-2.489.596-.512 0-1.305-.581-2.145-.566-1.103.016-2.121.642-2.689 1.63-1.146 1.989-.294 4.936.824 6.55.546.79 1.197 1.677 2.052 1.645.823-.033 1.134-.533 2.13-.533.995 0 1.275.533 2.146.516.886-.016 1.447-.805 1.989-1.597.627-.916.885-1.803.9-1.849-.02-.009-1.727-.663-1.744-2.63m-1.637-4.831c.454-.55.76-1.314.676-2.076-.654.027-1.446.435-1.915.985-.421.487-.789 1.265-.69 2.01.73.057 1.474-.371 1.928-.92"/><path d="m37.32-35.01l-.004-3.901 4.375-.652v4.553h-4.371m5.1-4.669l5.832-.931v5.6h-5.832v-4.669m5.833 5.469l-.0001 5.6-5.832-.9v-4.7h5.833m-6.562 4.598l-4.371-.657v-3.941h4.372v4.598"/></g></g></g><g transform="matrix(1.013 0 0 1.013 -74.65 7.098)" enable-background="new"><path d="m86.12-1.953-2.133 0.205v8.787l2.11-0.319v-3.746l2.839 4.157 2.224-0.706-2.908-3.997 2.931-3.769-2.27-0.52-2.817 3.769 0.023-3.86m-4.836 2.142c-0.024 2e-3 -0.05 9e-3 -0.068 0.027l-0.839 0.839c-0.035 0.035-0.04 0.089-0.013 0.132l0.98 1.618c-0.174 0.292-0.315 0.606-0.415 0.939l-1.8 0.374c-0.05 0.011-0.087 0.058-0.087 0.109v1.185c0 0.05 0.038 0.093 0.087 0.105l1.746 0.424c0.093 0.385 0.238 0.754 0.428 1.089l-1.012 1.54c-0.028 0.043-0.023 0.1 0.013 0.137l0.839 0.839c0.035 0.035 0.089 0.04 0.132 0.013l1.586-0.962c0.311 0.18 0.648 0.323 1 0.419l0.369 1.778c0.011 0.05 0.054 0.087 0.105 0.087h1.185c0.05 0 0.093-0.034 0.105-0.082l0.438-1.787c0.366-0.099 0.711-0.245 1.03-0.433l1.563 1.025c0.043 0.028 0.1 0.023 0.137-0.013l0.834-0.839c0.036-0.035 0.044-0.089 0.018-0.132l-0.57-0.939-0.187 0.059c-0.027 9e-3 -0.057-4e-3 -0.073-0.027 0 0-0.36-0.529-0.829-1.217-0.562 1.099-1.707 1.85-3.03 1.85-1.875 0-3.395-1.521-3.395-3.395 0-1.379 0.825-2.563 2.01-3.095v-0.875c-0.215 0.075-0.423 0.166-0.62 0.273v-5e-3l-1.6-1.048c-0.022-0.015-0.044-0.016-0.068-0.013" fill="#fff" fill-opacity=".85"/></g></svg>
