<svg viewBox="0 0 48 48" xmlns="http://www.w3.org/2000/svg" xmlns:xlink="http://www.w3.org/1999/xlink"><defs><linearGradient id="a"><stop stop-color="#1584d8" offset="0"/><stop stop-color="#1cb2ff" offset="1"/></linearGradient><linearGradient id="b" x1="343" x2="343.6" y1="538.6" y2="506.2" gradientUnits="userSpaceOnUse" xlink:href="#a"/><linearGradient id="e" x1="348.9" x2="348.6" y1="537.4" y2="533.6" gradientUnits="userSpaceOnUse" xlink:href="#a"/><linearGradient id="c" x1="348.9" x2="348.6" y1="506.9" y2="503" gradientUnits="userSpaceOnUse" xlink:href="#a"/><linearGradient id="d" x1="347.8" x2="348" y1="540.9" y2="501.6" gradientUnits="userSpaceOnUse"><stop stop-color="#2e3e46" offset="0"/><stop stop-color="#435a64" offset="1"/></linearGradient><linearGradient id="f" x1="364" x2="363.7" y1="522.4" y2="518.5" gradientUnits="userSpaceOnUse" xlink:href="#a"/><linearGradient id="k" x1="333.5" x2="333.2" y1="522.4" y2="518.5" gradientUnits="userSpaceOnUse" xlink:href="#a"/><linearGradient id="g" x1="338" x2="337.7" y1="533.1" y2="529.2" gradientUnits="userSpaceOnUse" xlink:href="#a"/><linearGradient id="j" x1="353.1" x2="352.8" y1="543.1" y2="500.3" gradientUnits="userSpaceOnUse" xlink:href="#a"/><linearGradient id="h" x1="338.1" x2="337.8" y1="511.3" y2="507.5" gradientUnits="userSpaceOnUse" xlink:href="#a"/><linearGradient id="i" x1="359.3" x2="359" y1="533" y2="529.2" gradientUnits="userSpaceOnUse" xlink:href="#a"/></defs><g transform="matrix(1.202 0 0 1.202 -394.8 -601.5)"><circle cx="348.6" cy="520.4" r="19.22" fill="url(#d)" stroke="url(#j)" stroke-linecap="round" stroke-linejoin="round" stroke-width="1.5"/><circle cx="348.7" cy="505.2" r="1.337" fill="url(#c)"/><g transform="matrix(.7428 0 0 .7428 95.27 131.9)" fill="url(#b)"><circle cx="341.1" cy="523.3" r="15.06"/><path d="m344.1 508.6c4.112 1.721 10.24-3.241 12.18-0.985 2.081 1.629-1.935 6.434-0.738 11.22z" fill-rule="evenodd"/></g><circle cx="348.7" cy="535.7" r="1.337" fill="url(#e)"/><circle cx="363.8" cy="520.7" r="1.337" fill="url(#f)"/><circle cx="333.3" cy="520.7" r="1.337" fill="url(#k)"/><circle cx="359.1" cy="531.4" r="1.337" fill="url(#i)"/><circle cx="337.8" cy="531.4" r="1.337" fill="url(#g)"/><circle cx="337.8" cy="509.7" r="1.337" fill="url(#h)"/></g></svg>
