<svg viewBox="0 0 48 48" xmlns="http://www.w3.org/2000/svg"><defs><linearGradient id="a" x2="0" y1="35.14" y2="4.445" gradientTransform="matrix(1.4 0 0 1.4 109.9 1027)" gradientUnits="userSpaceOnUse"><stop stop-color="#974eb7" offset="0"/><stop stop-color="#d164ff" offset="1"/></linearGradient></defs><path transform="matrix(1.143 0 0 1.143 -51.08 -1182)" d="m65.69 1034c-11.61 0-21 9.393-21 21 0 11.61 9.391 21 21 21s21-9.39 21-21c0-11.61-9.391-21-21-21" fill="url(#a)"/><g transform="matrix(-1.043 0 0 1.043 134.2 13.14)" enable-background="new" fill="#f3e4fa"><path d="m96.42 19.336l3.261-3.901c.65-.774 1.833-.858 2.637-.186l1.965 1.643c.108-.073.22-.149.338-.23 1.083-.733 2.565-1.738 4.059-3.526 1.499-1.793 2.225-3.432 2.757-4.628.056-.127.11-.249.163-.365l-1.319-1.101-.649-.543c-.805-.673-.931-1.852-.283-2.629l3.261-3.902c.648-.775 1.832-.859 2.637-.186l1.1.925-.025.03c.377.402.704.874.963 1.393.24.494.404.971.503 1.455.823 3.878-.648 7.621-5.075 12.917-6.12 7.32-11.581 7.296-11.817 7.292-.514-.015-1.013-.093-1.526-.242-.551-.16-1.074-.398-1.536-.697l-.02.022-1.112-.91c-.804-.673-.931-1.853-.283-2.63"/><g transform="matrix(-.9222 .9375 .9375 .9222 107.6 -38.98)"><path d="m22.47 19.09 1.167 1.167c1.178-1.178 2.745-1.828 4.412-1.828s3.233 0.649 4.412 1.828l1.167-1.167c-1.49-1.49-3.471-2.311-5.579-2.311s-4.089 0.821-5.579 2.311"/><path d="m24.54 21.17 1.167 1.167c0.624-0.624 1.454-0.968 2.337-0.968s1.712 0.344 2.337 0.968l1.167-1.167c-0.936-0.936-2.18-1.451-3.504-1.451s-2.568 0.515-3.504 1.451"/><path d="m28.04 22.994c-.429 0-.858.164-1.185.491-.011.011-.022.023-.033.035l1.218 1.222 1.221-1.218c-.012-.013-.024-.026-.036-.038-.327-.327-.756-.491-1.185-.491"/></g></g></svg>
