<svg viewBox="0 0 48 48" xmlns="http://www.w3.org/2000/svg"><defs><linearGradient id="b" x2="0" y1="44.72" y2="12.72" gradientUnits="userSpaceOnUse"><stop stop-color="#e2e2e2" offset="0"/><stop stop-color="#fff" offset="1"/></linearGradient><linearGradient id="a" x1="-124" x2="-125.2" y1="73.5" y2="-26.05" gradientTransform="matrix(.4943 0 0 .4778 135 17.23)" gradientUnits="userSpaceOnUse"><stop stop-color="#dc3c30" offset="0"/><stop stop-color="#ff786d" offset="1"/></linearGradient></defs><g transform="matrix(1 0 0 1 -48.37 -4.118)" enable-background="new"><rect x="48.37" y="4.125" width="48" height="48" rx="2.982" fill="url(#a)" fill-rule="evenodd"/><path d="m85.46 12.725c-.695.0001-1.399.146-1.962.43-.823.414-1.652 1.292-2.02 2.139-.391.9-.447 2.488-.118 3.331.139.357.379.97.534 1.362.348.886.474 2.836.253 3.931-.249 1.233-1.022 2.657-1.928 3.552-2.719 2.686-6.829 2.733-9.529.109-.932-.906-1.064-1.122-5.27-8.628-1.428-2.548-2.709-4.682-2.976-4.958-.836-.884-1.998-1.201-3.062-1.206-2.288-.037-3.874 1.753-4.25 3.675-.278 1.538-.406 1.273 6.985 14.444 4.665 8.313 6.882 12.145 7.246 12.522 1.288 1.334 3.123 1.665 4.84.872.451-.208.962-.583 1.289-.945.639-.709 13.862-24.18 14.08-24.989.225-.846.169-2.049-.134-2.881-.376-1.035-1.415-2.097-2.439-2.494-.46-.178-.995-.266-1.536-.265" fill="url(#b)"/></g></svg>
