<svg viewBox="0 0 48 48" xmlns="http://www.w3.org/2000/svg"><defs><clipPath id="a"><path transform="matrix(15.33 0 0 11.5 415 -125.5)" d="m-24 13c0 1.105-0.672 2-1.5 2s-1.5-0.895-1.5-2 0.672-2 1.5-2 1.5 0.895 1.5 2" fill="#1890d0"/></clipPath><linearGradient id="b" x1="61.57" x2="60.75" y1="22.94" y2="-27.71" gradientUnits="userSpaceOnUse"><stop stop-color="#ff9300" offset="0"/><stop stop-color="#ffd702" offset="1"/></linearGradient></defs><path transform="matrix(1 0 0 1 -38.38 25.88)" d="m41.36-25.88h42.04c1.652 0 2.982 1.33 2.982 2.982v42.04c0 1.652-1.33 2.982-2.982 2.982h-42.04c-1.652 0-2.982-1.33-2.982-2.982v-42.04c0-1.652 1.33-2.982 2.982-2.982" fill="url(#b)" fill-rule="evenodd"/><g transform="matrix(1.5 0 0 1.5-12-12)" fill="#342300"><g clip-path="url(#a)"><path d="m14 12c-1 0-2 1-2 2v7c0 1 1 2 2 2s2-1 2-2v-3l2 2v3h3v-1c-0.031-0.664 0.301-0.996 1-1h1v-3h-3l-2-2h3c1 0 2-1 2-2s-1-2-2-2m6 0c-1 0-2 1-2 2s1 2 2 2h3l-2 2h-3v3h1c0.664-0.031 0.996 0.301 1 1v1h3v-3l2-2v3c0 1 1 2 2 2s2-1 2-2v-7c0-1-1-2-2-2m-16 13v3c0 1 1 2 2 2h3v-3h-1c-0.664 0.031-0.996-0.301-1-1v-1m6 0v1c0.031 0.664-0.301 0.996-1 1h-1v3h3l2 2h-3c-1 0-2 1-2 2s1 2 2 2h7c1 0 2-1 2-2v-7c0-1-1-2-2-2s-2 1-2 2v3l-2-2v-3"/></g></g></svg>
