<svg viewBox="0 0 48 48" xmlns="http://www.w3.org/2000/svg" xmlns:xlink="http://www.w3.org/1999/xlink"><defs><linearGradient id="a" x1="508.2" x2="486.1" y1="993" y2="1.252" gradientUnits="userSpaceOnUse"><stop stop-color="#ff9300" offset="0"/><stop stop-color="#ffd702" offset="1"/></linearGradient><linearGradient id="c" x1="508.2" x2="486.1" y1="993" y2="1.252" gradientUnits="userSpaceOnUse"><stop stop-color="#212121" offset="0"/><stop stop-color="#3f3f41" offset="1"/></linearGradient><linearGradient id="b" x1="92.49" x2="92.15" y1="-7.661" y2="-28" gradientUnits="userSpaceOnUse" xlink:href="#a"/></defs><g stroke-width="1.317"><path transform="matrix(.04696 0 0 .04696.959.958)" d="m946.2 206.6c-0.3-23-18-42-40.9-44.1-190.3-17.8-345.6-119.5-396.8-156.7-10.7-7.8-25.2-7.8-35.9 0-51.1 37.2-206.4 138.9-396.7 156.7-22.9 2.101-40.5 21.1-40.9 44.1-2.3 150.1 21.8 659.7 444.1 773.1 7.5 2 15.4 2 22.9 0 422.3-113.3 446.4-623 444.2-773.1" fill="url(#c)" stroke="url(#a)" stroke-linecap="round" stroke-linejoin="round" stroke-width="40.88"/></g><g enable-background="new"><path transform="matrix(1 0 0 1 -69.13 41.83)" d="m85.57-11.65l.788 3.819 3.819-.788 7.654-11.635-4.607-3.03zm14.944-12.668c.321-.487.189-1.124-.298-1.444l-2.879-1.894c-.487-.321-1.124-.189-1.444.298l-1.581 2.419 4.607 3.03z" fill="url(#b)"/></g></svg>
