<svg viewBox="0 0 48 48" xmlns="http://www.w3.org/2000/svg"><defs><linearGradient id="b" x2="0" y1="542.8" y2="507.8" gradientTransform="matrix(1.052 0 0 1.028 -72.68 -8.584)" gradientUnits="userSpaceOnUse"><stop stop-color="#566069" offset="0"/><stop stop-color="#6c7884" offset="1"/></linearGradient><linearGradient id="a" x2="0" y1="542.8" y2="507.8" gradientTransform="matrix(1.052 0 0 1.028 -72.68 -8.584)" gradientUnits="userSpaceOnUse"><stop stop-color="#e4e2e2" offset="0"/><stop stop-color="#fcf9f9" offset="1"/></linearGradient></defs><g transform="translate(-331.6 -497.2)"><g transform="matrix(1.037 0 0 1.037 -14.8 -30.47)"><rect x="334.1" y="513.2" width="46.3" height="34.94" rx="1.644" fill="url(#b)"/><g transform="matrix(.9435 0 0 .9435 23.9 27.99)" fill="#fff" fill-opacity=".847"><circle cx="373.4" cy="518.7" r="2.25"/><circle cx="367.8" cy="518.8" r="2.25"/><circle cx="362.4" cy="518.8" r="2.25"/></g></g><g transform="matrix(.8014 0 0 .8014 69.7 101.5)"><rect x="334.1" y="513.2" width="46.3" height="34.94" rx="1.644" fill="url(#a)"/><g transform="matrix(.9435 0 0 .9435 23.9 27.99)" fill="#687480"><circle cx="373.4" cy="518.7" r="2.25"/><circle cx="367.8" cy="518.8" r="2.25"/><circle cx="362.4" cy="518.8" r="2.25"/></g></g></g></svg>
