<svg viewBox="0 0 48 48" xmlns="http://www.w3.org/2000/svg"><defs><linearGradient id="b" x1="-126.1" x2="-127.3" y1="69.3" y2="-29.39" gradientUnits="userSpaceOnUse"><stop stop-color="#197cf1" offset="0"/><stop stop-color="#20bcfa" offset="1"/></linearGradient><linearGradient id="a" x2="0" y1="923.2" y2="859.6" gradientUnits="userSpaceOnUse"><stop stop-color="#2e3436" offset="0"/><stop stop-color="#555753" offset="1"/></linearGradient></defs><g transform="matrix(.4638 0 0 .4638 19.73 -51.86)"><g transform="translate(135.9 142.6)"><rect x="-177" y="-30.75" width="96.27" height="99.6" rx="6.187" fill="url(#b)" fill-rule="evenodd"/><g transform="matrix(.7894 0 0 .7894 -226 -659.6)"><path d="m85.61 858.1-0.026-25.79 28.93-4.31v30.1h-28.9m33.72-30.87 38.56-6.156v37.03h-38.56v-30.87m38.57 36.16-9e-3 37.03-38.56-5.952v-31.08h38.57m-43.39 30.4-28.9-4.347-2e-3 -26.06h28.9v30.4" fill="#eff9fe"/><circle cx="153.8" cy="892.2" r="35.59" fill="url(#a)"/></g></g><path d="m49.907 182.33c0-.554-.419-.899-1.259-1.034l-11.281-1.64-5.056-10.225c-.284-.614-.652-.921-1.101-.921-.449 0-.816.307-1.101.921l-5.057 10.225-11.281 1.64c-.839.135-1.258.479-1.258 1.034 0 .315.187.674.562 1.079l8.18 7.955-1.933 11.236c-.03.21-.045.36-.045.45 0 .315.079.58.236.798.157.217.393.326.708.326.27 0 .569-.089.899-.269l10.09-5.304 10.09 5.304c.315.18.615.269.899.269.3 0 .529-.108.686-.326.157-.217.236-.483.236-.798 0-.195-.008-.345-.023-.45l-1.933-11.236 8.158-7.955c.39-.389.584-.749.584-1.079" fill="#fefefe" fill-opacity=".855" stroke-width="1.317"/></g></svg>
