<svg viewBox="0 0 48 48" xmlns="http://www.w3.org/2000/svg"><defs><linearGradient id="b" x1="341.1" x2="340.3" y1="553.7" y2="510.2" gradientUnits="userSpaceOnUse"><stop stop-color="#2e3e46" offset="0"/><stop stop-color="#47606a" offset="1"/></linearGradient><linearGradient id="a" x1="22.52" x2="22.22" y1="31.79" y2="11.88" gradientUnits="userSpaceOnUse"><stop stop-color="#ff9300" offset="0"/><stop stop-color="#ffd702" offset="1"/></linearGradient></defs><g transform="matrix(1.023 0 0 1.023 -.513 -.648)"><path transform="matrix(.9169 0 0 .9169 -288.4 -465)" d="m358.77 517c-4.823-3.925-11.228-6.087-18.03-6.087-6.806 0-13.21 2.162-18.03 6.087-4.865 3.96-7.545 9.236-7.545 14.859 0 5.366 2.442 10.417 6.895 14.309-.08.181-.144.371-.185.57l-1.463 7.196c-.174.855.06 1.365.286 1.643.262.32.65.497 1.093.497.335 0 .694-.099 1.069-.293l8.509-4.421c2.946.948 6.113 1.446 9.373 1.446 6.806 0 13.21-2.162 18.03-6.087 4.865-3.959 7.545-9.236 7.545-14.859 0-5.623-2.679-10.9-7.545-14.859" fill="url(#b)"/><path d="m14.45 15.72 2.591-2.591 6.909 6.909 6.909-6.909 2.591 2.591-6.909 6.909 6.909 6.909-2.591 2.591-6.909-6.909-6.909 6.909-2.591-2.591 6.909-6.909" fill="url(#a)"/></g></svg>
