<svg viewBox="0 0 48 48" xmlns="http://www.w3.org/2000/svg"><defs><linearGradient id="a" x1="63.69" x2="63.1" y1="22.34" y2="-25.22" gradientUnits="userSpaceOnUse"><stop stop-color="#e3203a" offset="0"/><stop stop-color="#fd5420" offset="1"/></linearGradient></defs><g transform="matrix(1 0 0 1 -38.37 25.88)" enable-background="new"><rect x="39.18" y="-25.88" width="46.4" height="48" rx="2.982" fill="url(#a)" fill-rule="evenodd"/><path d="m75.17-11.12-8.44 1.389c0.122 5.249-5.474 8.896-10.72-0.992l-9.929 1.39c1.545 5.347 7.094 6.01 10.8 8.817-1.85 2.638-10.26 1.049-10.03 9.28l8.44-1.39c-0.122-5.249 9.618-9.668 14.87 0.22l9.929-1.39c-1.549-5.36-7.445-5.87-11.14-8.699 1.834-3.831 7.901-0.386 6.238-8.626" fill="#fcdfe0"/></g></svg>
