<svg viewBox="0 0 48 48" xmlns="http://www.w3.org/2000/svg" xmlns:xlink="http://www.w3.org/1999/xlink"><defs><linearGradient id="a" x1="642" x2="640.1" y1="865.6" y2="843.1" gradientTransform="matrix(2.657 0 0 2.661 -1697 -2271)" gradientUnits="userSpaceOnUse"><stop stop-color="#d5dbff" offset="0"/><stop stop-color="#f9ffff" offset="1"/></linearGradient><linearGradient id="c" x1="2.409" x2="2.952" y1="8.904" y2="-14.69" gradientUnits="userSpaceOnUse" xlink:href="#b"/><linearGradient id="d" x1="-3.671" x2="-3.864" y1="3.068" y2="-7.65" gradientUnits="userSpaceOnUse" xlink:href="#b"/><linearGradient id="b"><stop stop-color="#fe3f3c" offset="0"/><stop stop-color="#ff8729" offset="1"/></linearGradient></defs><g transform="matrix(1 0 0 1 21.63 25.88)" enable-background="new"><ellipse cx="2.375" cy="-1.875" rx="22.82" ry="22.84" fill="url(#a)" stroke="url(#a)" stroke-width="2.328"/><path transform="scale(-1 1)" d="m-3.725-1.882c-.172-.672.373-1.292 1.015-1.405.906-.159 1.709.573 1.823 1.447.15 1.139-.773 2.127-1.878 2.242-1.371.143-2.547-.973-2.661-2.31-.137-1.603 1.173-2.968 2.742-3.08 1.835-.132 3.389 1.373 3.499 3.173.127 2.066-1.573 3.81-3.605 3.918-2.298.122-4.232-1.773-4.337-4.04-.118-2.53 1.973-4.653 4.468-4.756 2.762-.114 5.075 2.173 5.175 4.9.044 1.188-.325 2.372-1.025 3.332" fill="none" fill-rule="evenodd" stroke="url(#d)" stroke-linecap="round" stroke-linejoin="round" stroke-width="1.198"/><path d="m2.375-11.02c-6.176 0-11.5 3.641-13.94 8.894-0.075 0.159-0.075 0.345 0 0.508 2.445 5.254 7.768 8.894 13.94 8.894s11.5-3.641 13.94-8.894c0.075-0.159 0.075-0.345 0-0.508-2.445-5.254-7.768-8.894-13.94-8.894m0 15.46c-3.487 0-6.311-2.827-6.311-6.311 0-3.487 2.827-6.311 6.311-6.311 3.487 0 6.311 2.827 6.311 6.311s-2.827 6.311-6.311 6.311" fill="url(#c)"/></g></svg>
