<svg viewBox="0 0 48 48" xmlns="http://www.w3.org/2000/svg"><defs><linearGradient id="a" x2="0" y1="870.1" y2="831.4" gradientTransform="matrix(.9042 0 0 .9054 -551.5 -761.8)" gradientUnits="userSpaceOnUse"><stop stop-color="#2e3e46" offset="0"/><stop stop-color="#47606a" offset="1"/></linearGradient><linearGradient id="b" x1="337.8" x2="338" y1="551.9" y2="547.5" gradientUnits="userSpaceOnUse"><stop stop-color="#ff9300" offset="0"/><stop stop-color="#ffd702" offset="1"/></linearGradient></defs><g transform="matrix(1.714 0 0 1.714 -69.21 13.51)" enable-background="new"><ellipse transform="translate(26.25-2.916)" cx="28.13" cy="9.04" rx="13.31" ry="13.32" fill="url(#a)" stroke="url(#a)" stroke-width="1.358"/><path transform="matrix(2.99 0 0 2.99 -955.9 -1638)" d="m336.57 547.48c-.345-.525-1.223.053-.75.615.457.533.915 1.11 1.387 1.702l-1.507 1.913c-.428.51.42 1.125.803.577l1.358-1.808 1.38 1.77c.405.555 1.23.015.817-.548l-1.53-1.905c.45-.592.923-1.17 1.373-1.702.428-.487-.33-1.14-.72-.63l-1.305 1.635-1.305-1.62" fill="url(#b)"/></g></svg>
