<svg viewBox="0 0 48 48" xmlns="http://www.w3.org/2000/svg"><defs><linearGradient id="a" x2="0" y1="542.8" y2="507.8" gradientTransform="matrix(1.162 0 0 1.134 -46.65 -84.97)" gradientUnits="userSpaceOnUse"><stop stop-color="#2e3436" offset="0"/><stop stop-color="#555753" offset="1"/></linearGradient></defs><g transform="matrix(.9392 0 0 .9392 -377.8 -455)"><rect x="402.4" y="491" width="51.11" height="38.57" rx="1.815" fill="url(#a)" stroke-width="1.104"/><g transform="matrix(.9197 0 0 .9197 106.1 17.99)" fill="#76e049"><circle cx="373.4" cy="518.7" r="2.25"/><circle cx="367.8" cy="518.8" r="2.25"/><circle cx="362.4" cy="518.8" r="2.25"/></g><g transform="matrix(.1149 0 0 .1093 407.7 498.3)" fill="#76e049"><path d="m133.52 78.1c-.488-.489-1.113-.733-1.873-.733h-78.22c-.76 0-1.385.244-1.874.733-.488.489-.732 1.113-.732 1.874v5.215c0 .76.244 1.385.732 1.873.489.488 1.114.733 1.874.733h78.22c.76 0 1.385-.245 1.873-.733.488-.488.732-1.113.732-1.873v-5.215c.0001-.761-.243-1.385-.732-1.874"/><path d="m8.38 1.022c-.543-.543-1.168-.815-1.874-.815-.706 0-1.33.272-1.873.815l-4.074 4.074c-.543.543-.814 1.167-.814 1.874 0 .707.271 1.331.814 1.874l32.02 32.02-32.02 32.02c-.543.543-.814 1.168-.814 1.873 0 .707.271 1.331.814 1.874l4.074 4.073c.543.544 1.167.814 1.873.814.706 0 1.331-.271 1.874-.814l37.967-37.966c.543-.543.814-1.169.814-1.875 0-.706-.271-1.331-.814-1.874l-37.967-37.966"/></g></g></svg>
