<svg viewBox="0 0 48 48" xmlns="http://www.w3.org/2000/svg"><defs><linearGradient id="b" x2="0" y1="5.383" y2="2.392" gradientUnits="userSpaceOnUse"><stop stop-color="#040404" offset="0"/><stop stop-color="#121212" stop-opacity=".908" offset="1"/></linearGradient><linearGradient id="a" x2="0" y1="-15.39" y2="-39.39" gradientUnits="userSpaceOnUse"><stop stop-color="#4da70e" offset="0"/><stop stop-color="#9ded46" offset="1"/></linearGradient><linearGradient id="c" x2="0" y1="544.3" y2="543" gradientTransform="matrix(.7122 0 0 1.409 -381.7 -762.3)" gradientUnits="userSpaceOnUse"><stop stop-color="#118702" offset="0"/><stop stop-color="#80e950" offset="1"/></linearGradient><linearGradient id="e" x1="10.09" x2="122.7" gradientTransform="matrix(.35 0 0 .3442 -84.47 -33.61)" gradientUnits="userSpaceOnUse"><stop stop-color="#1a1a1a" offset="0"/><stop stop-color="#2c2c2e" offset=".111"/><stop stop-color="#2b2b2d" offset=".29"/><stop stop-color="#2a2b2d" offset=".512"/><stop stop-color="#2b2b2d" offset=".752"/><stop stop-color="#323232" offset=".897"/><stop stop-color="#171717" offset="1"/></linearGradient><linearGradient id="d" x1="-61.86" x2="-61.69" y1="-.386" y2="-31.86" gradientUnits="userSpaceOnUse"><stop stop-color="#bbbec4" offset="0"/><stop stop-color="#dddfe2" offset="1"/></linearGradient></defs><g transform="matrix(1 0 0 1 -158.8 -37.35)" enable-background="new"><g transform="matrix(1.046 0 0 1.046 243.9 78.42)"><path d="m-80.94.075l.35 5.517c0 .572.468 1.033 1.05 1.033h36.624c.582 0 1.05-.461 1.05-1.033l.35-5.517h-39.42" fill="url(#e)"/><path d="m-77.79-32.27h32.776c.582 0 1.05.461 1.05 1.033l2.451 31.14c0 .572-.468 1.033-1.05 1.033h-37.33c-.582 0-1.05-.461-1.05-1.033l2.1-31.14c0-.572.468-1.033 1.05-1.033" fill="url(#d)"/><rect x="-69.24" y="3.494" width="16.15" height="1.083" rx=".542" fill="url(#c)"/><ellipse cx="-46.39" cy="4.074" rx="1.495" ry="1.495" fill="url(#b)" opacity=".452"/><g fill="#e3e8ea" stroke-width="1.317"><path d="m-46.39 4.113c.034 0 .063-.012.088-.037.025-.025.037-.054.037-.088v-.623c0-.034-.012-.063-.037-.088-.025-.025-.054-.037-.088-.037-.034 0-.063.012-.088.037-.025.025-.037.054-.037.088v.623c0 .034.012.063.037.088.025.025.054.037.088.037" opacity=".668"/><path d="m-45.724 3.779c-.052-.104-.126-.192-.221-.263-.027-.021-.058-.029-.093-.024-.034.005-.062.021-.082.049-.021.027-.029.058-.024.092.005.034.021.062.048.082.064.048.113.107.147.176.035.069.052.143.052.222 0 .068-.013.132-.039.193-.026.061-.062.114-.107.159-.045.045-.098.08-.159.107-.061.026-.126.039-.193.039-.068 0-.132-.013-.193-.039-.061-.026-.114-.062-.159-.107-.045-.045-.08-.098-.107-.159-.026-.061-.039-.126-.039-.193 0-.079.017-.153.052-.222.035-.069.084-.128.148-.176.027-.021.043-.048.048-.082.005-.034-.003-.065-.024-.092-.02-.028-.047-.044-.081-.049-.034-.005-.065.004-.093.024-.095.071-.168.158-.221.263-.052.105-.078.216-.078.334 0 .101.02.198.059.29.04.092.093.172.16.239.067.067.146.12.239.16.092.04.189.059.29.059.101 0 .198-.02.29-.059.092-.04.172-.093.239-.16.067-.067.12-.146.16-.239.04-.092.059-.189.059-.29 0-.118-.026-.229-.078-.334" opacity=".668"/></g></g><path d="m181.3 70.63c-2.871-.802-4.179-3.342-2.857-5.552.599-1 1.39-1.556 2.682-1.877 1.685-.419 3.533.16 4.504 1.409.664.855.741 2.23.174 3.134-1.33 2.122-4.977 2.077-5.941-.074-.559-1.248.088-2.55 1.496-3.01 1.428-.465 2.928.28 3.094 1.536.07.529.013.698-.366 1.082-.818.828-2.158.732-2.651-.189-.262-.489-.066-.582.469-.223.566.379.985.384 1.416.016.444-.378.425-.757-.063-1.24-.907-.899-2.664-.169-2.697 1.121-.019.728.393 1.291 1.186 1.62 2.01.833 4.23-1.047 3.413-2.89-.225-.508-.932-1.151-1.584-1.441-1.317-.586-3.335-.045-4.256 1.142-.384.495-.459.746-.459 1.545 0 .811.076 1.059.509 1.656.316.436.822.867 1.334 1.136.719.378.977.433 2.01.428 2.457-.011 4.142-1.355 4.651-3.708.36-1.667-.353-3.559-1.79-4.75-.513-.425-.745-.736-.745-.998 0-.437-.272-.935-.511-.935-.092 0-.162.533-.162 1.222v1.222l.757.39c.83.428 1.024.894.37.894-.213 0-.471-.072-.574-.159-.103-.088-.667-.3-1.253-.472-1.09-.32-1.416-.688-.688-.776.326-.039.379-.132.379-.663v-.618l-.941-.066c-1.059-.075-1.24-.221-1.244-1.01-.002-.296-.069-.538-.15-.538-.377 0-.592.537-.661 1.647-.072 1.169-.065 1.197.324 1.244.766.093.575.519-.396.886-.497.187-1.184.55-1.526.807-.622.466-1.126.505-1.126.088 0-.117.341-.455.757-.752.746-.532.757-.552.757-1.42 0-1.096-.426-1.702-1.554-2.212l-.79-.357-.731.611-.731.611-3.355-.039c-3.335-.039-3.355-.041-3.409-.362l-.054-.323h2.599c2.105 0 2.639-.041 2.809-.215.185-.19-.146-.215-2.819-.215-2.221 0-3.075-.048-3.203-.18-.192-.197-.001-1.312.328-2.02.542-1.088 1.448-2.114 2.532-2.877.921-.649 3.601-1.396 4.247-1.185.208.068.261.335.261 1.309 0 .673.061 1.223.135 1.223.33 0 .538-.397.538-1.027 0-.681.003-.683.715-.853 1.109-.264 3.711-.192 5.222.145 4.156.927 7.192 3.406 8.215 6.709.465 1.5.504 3.925.082 5.136-.772 2.216-2.445 3.982-4.583 4.834-.893.356-1.395.459-2.404.493-.701.023-1.465-.001-1.697-.075zm-5.207-8.676c-.146-.327-.265-.366-1.22-.405-.952-.039-1.064-.075-1.113-.366-.051-.307 0-.323 1.087-.323 1.082 0 1.172-.026 1.76-.515.536-.446.667-.494.975-.353.485.221.448.415-.184.971-.33.29-.542.626-.547.865-.001.53-.538.618-.757.126z" fill="#a1a7ae" stroke="#909296" stroke-width=".099"/><g transform="translate(120.4 63.23)"><circle transform="matrix(1.046 0 0 1.046 122.3 15.34)" cx="-46.79" cy="-27.39" r="12" fill="url(#a)"/><path d="m74.87-11.22 2.7-2.7 2.1 2.1-6.3 6.3-6.3-6.3 2.1-2.1 2.7 2.7v-9.9h3v9.9" fill="#fff" fill-opacity=".854"/></g></g></svg>
