<svg viewBox="0 0 48 48" xmlns="http://www.w3.org/2000/svg"><defs><linearGradient id="a" x2="0" y1="556.2" y2="510.2" gradientUnits="userSpaceOnUse"><stop stop-color="#1365f4" offset="0"/><stop stop-color="#05b2fc" offset="1"/></linearGradient></defs><g transform="matrix(1.049 0 0 1.049 -511.6 -528.4)" stroke-width="1.317"><rect transform="matrix(.9951 0 0 .9951 192.4 -3.883)" x="297" y="510.2" width="46" height="46" rx="23" fill="url(#a)" stroke-width="2.164"/><path transform="matrix(1.696 0 0 1.691 -176.9 -382.3)" d="m409.03 539.85c-.819 0-1.541.392-2.01.991l-4.375-2.247c.057-.215.099-.436.099-.669 0-.254-.049-.493-.117-.726l4.356-2.236c.469.627 1.21 1.036 2.051 1.036 1.425 0 2.577-1.157 2.577-2.586 0-1.428-1.153-2.586-2.577-2.586-1.422 0-2.575 1.158-2.575 2.586 0 .234.041.456.099.671l-4.374 2.247c-.472-.6-1.196-.993-2.02-.993-1.423 0-2.575 1.158-2.575 2.587 0 1.429 1.152 2.586 2.575 2.586.842 0 1.582-.411 2.053-1.038l4.354 2.236c-.068.232-.118.473-.118.728 0 1.429 1.154 2.586 2.575 2.586 1.425 0 2.577-1.158 2.577-2.586 0-1.43-1.153-2.587-2.577-2.587" fill="#001534" fill-opacity=".817" stroke-opacity=".8"/></g></svg>
