<svg viewBox="0 0 48 48" xmlns="http://www.w3.org/2000/svg" xmlns:xlink="http://www.w3.org/1999/xlink"><defs><linearGradient id="c" x1="-42.74" x2="-42.94" y1="20.17" y2="8.222" gradientUnits="userSpaceOnUse"><stop stop-color="#ceb270" offset="0"/><stop stop-color="#ffe6b5" offset="1"/></linearGradient><linearGradient id="e" x1="-46.35" x2="-46.46" y1="14.9" y2="7.834" gradientUnits="userSpaceOnUse" xlink:href="#b"/><linearGradient id="d" x1="-39.02" x2="-39.27" y1="14.98" y2="8.351" gradientUnits="userSpaceOnUse" xlink:href="#b"/><linearGradient id="b"><stop stop-color="#141414" offset="0"/><stop stop-color="#2d2d2f" offset="1"/></linearGradient><linearGradient id="f" x1="-58.8" x2="-56.15" y1="5.511" y2="-4.15" gradientUnits="userSpaceOnUse" xlink:href="#a"/><linearGradient id="g" x1="-43.72" x2="-43.47" y1="9.663" y2="-13.52" gradientUnits="userSpaceOnUse"><stop stop-color="#c52828" offset="0"/><stop stop-color="#ff5454" offset="1"/></linearGradient><linearGradient id="i" x1="-26.6" x2="-28.01" y1="6.02" y2="-4.658" gradientUnits="userSpaceOnUse" xlink:href="#a"/><linearGradient id="h" x1="-43.3" x2="-43.47" y1="4.793" y2="-11.17" gradientUnits="userSpaceOnUse" xlink:href="#a"/><linearGradient id="a"><stop stop-color="#e0e0e0" offset="0"/><stop stop-color="#fcf9f9" offset="1"/></linearGradient></defs><g transform="matrix(1.431 0 0 1.431 85.03 20.45)" enable-background="new"><path d="m-52.71 13.56c-2.869-1.059-6.665-3.506-6.665-9.678 0-6.173 5.104-17.46 16.75-17.46s16.75 11.28 16.75 17.46-3.796 8.62-6.665 9.678c-6.821 1.4-13.22 1.344-20.17 0" fill="url(#g)"/><path d="m-42.625 18.538c2.886 0 6.287-.363 7.822-2.025 1.143-1.237 1.443-3.511 1.416-5.04-.618-.865-3.453-3.2-9.238-3.2-5.784 0-8.62 2.335-9.238 3.2-.027 1.525.273 3.798 1.416 5.04 1.535 1.662 4.936 2.025 7.822 2.025" fill="url(#c)"/><path d="m-47.06 12.43c0 1.481 0.14 2.807 0.882 2.807s0.882-1.29 0.882-2.771-0.032-2.771-0.837-2.771-0.927 1.254-0.927 2.735" fill="url(#e)"/><path d="m-38.19 12.43c0 1.481-0.14 2.807-0.882 2.807s-0.882-1.29-0.882-2.771 0.032-2.771 0.837-2.771 0.927 1.254 0.927 2.735" fill="url(#d)"/><path d="m-42.62-11.1c-4.361 0-7.897 3.427-7.897 7.655s3.535 7.655 7.897 7.655c4.361 0 7.897-3.427 7.897-7.655s-3.535-7.655-7.897-7.655" fill="url(#h)" opacity=".95"/><g fill-rule="evenodd"><path d="m-58.95 7.149c3.571-2.066 4.542-8.938 2.327-12.43-1.909 2.578-3.657 8.179-2.327 12.43" fill="url(#f)" opacity=".95"/><path d="m-26.34 7.149c-3.571-2.066-4.542-8.938-2.327-12.43 1.909 2.578 3.657 8.179 2.327 12.43" fill="url(#i)" opacity=".95"/></g></g></svg>
