<svg viewBox="0 0 64 64" xmlns="http://www.w3.org/2000/svg"><defs><linearGradient id="a" x1="795.9" x2="795.8" y1="222.2" y2="167.6" gradientUnits="userSpaceOnUse"><stop stop-color="#dc3c30" offset="0"/><stop stop-color="#ff786d" offset="1"/></linearGradient></defs><g transform="matrix(.9286 0 0 .9286 -706.9 -149.4)"><path d="m788.5 167.3c-0.794 0-1.299 0.643-1.299 1.436v4.309h-10.19c-0.794 0-1.299 0.643-1.299 1.436v47.38c0 0.793 0.52 1.436 1.313 1.436h37.33c0.793 0 1.559-0.643 1.559-1.436v-47.38c0-0.793-0.78-1.436-1.572-1.436h-9.914v-4.309c0-0.793-0.78-1.436-1.572-1.436h-14.36" fill="url(#a)"/><path d="m795.5 184.2c-1.242 0-2.246 1.018-2.246 2.24v13.49c0 1.237 0.997 2.239 2.246 2.239 1.244 0 2.246-1.018 2.246-2.239v-13.49c0-1.237-0.995-2.24-2.246-2.24m0 22.46c-1.242 0-2.246 1-2.246 2.246 0 1.242 1 2.246 2.246 2.246 1.242 0 2.246-1 2.246-2.246 0-1.242-1-2.246-2.246-2.246" fill="#fdf0ef"/></g></svg>
