<svg viewBox="0 0 64 64" xmlns="http://www.w3.org/2000/svg"><defs><linearGradient id="b" x1="773.8" x2="773.6" y1="214.8" y2="201.1" gradientUnits="userSpaceOnUse"><stop stop-color="#dc3c30" offset="0"/><stop stop-color="#ff786d" offset="1"/></linearGradient><linearGradient id="a" x1="773.7" x2="773.2" y1="204.5" y2="159.1" gradientUnits="userSpaceOnUse"><stop stop-color="#dbdbdb" offset="0"/><stop stop-color="#fcf9f9" offset="1"/></linearGradient></defs><g transform="matrix(1.006 0 0 1.006 -746 -154.2)"><path d="m754.83 209.62c0 .732.481 1.325 1.213 1.325h34.462c.732 0 1.438-.594 1.438-1.325v-7.953h-37.11v7.953" fill="url(#b)"/><path d="m791.94 201.67v-35.787c0-.732-.72-1.325-1.451-1.325h-9.152v-3.976c0-.732-.72-1.325-1.451-1.325h-13.254c-.733 0-1.2.594-1.2 1.325v3.976h-9.404c-.733 0-1.2.594-1.2 1.325v35.787h37.11" fill="url(#a)"/><path transform="matrix(2.333 0 0 2.333 712.8 -2238)" d="m27.21 1033-4.932 6 3.328 1.801-0.862 4.199 4.932-6-3.328-1.801z" fill-opacity=".69"/></g></svg>
