<svg viewBox="0 0 64 64" xmlns="http://www.w3.org/2000/svg"><defs><linearGradient id="b" x1="24.01" x2="23.98" y1="45.44" y2="5.02" gradientUnits="userSpaceOnUse"><stop stop-color="#dbdbdb" offset="0"/><stop stop-color="#fcf9f9" offset="1"/></linearGradient><linearGradient id="a" x1="24.42" x2="24.59" y1="44.22" y2="16.19" gradientUnits="userSpaceOnUse"><stop stop-color="#49b903" offset="0"/><stop stop-color="#8cff07" offset="1"/></linearGradient></defs><g transform="matrix(1.3334 0 0 1.3334.043-.664)"><path d="m37.994 43c0 .552-.533 1-1.085 1h-26c-.552 0-.915-.448-.915-1v-27h28v27" fill="url(#a)"/><path d="m37.994 16v-6c0-.552-.543-1-1.095-1h-6.905v-3c0-.552-.543-1-1.095-1h-10c-.552 0-.905.448-.905 1v3h-7.095c-.552 0-.905.448-.905 1v6h28" fill="url(#b)"/></g></svg>
