<svg viewBox="0 0 64 64" xmlns="http://www.w3.org/2000/svg"><defs><linearGradient id="a" x1="32.08" x2="32.04" y1="55.03" y2="8.242" gradientUnits="userSpaceOnUse"><stop stop-color="#dbdbdb" offset="0"/><stop stop-color="#fcf9f9" offset="1"/></linearGradient></defs><path transform="matrix(1.083 0 0 1.083 -2.634 -2.666)" d="m25.729 8c-.681 0-1.113.551-1.113 1.23v3.693h-8.732c-.681 0-1.113.551-1.113 1.23v33.23 7.385c0 .679.446 1.23 1.125 1.23h32c.679 0 1.336-.551 1.336-1.23v-7.385-33.23c0-.679-.668-1.23-1.348-1.23h-8.498v-3.693c0-.679-.668-1.23-1.348-1.23h-12.309" fill="url(#a)"/><path transform="matrix(.4089 0 0 .4089 -260.9 -31.61)" d="m720.4 192.9q-1.637 1.723-4.135 1.723t-4.222-1.723q-1.637-1.723-1.637-4.135t1.637-4.135q1.723-1.723 4.222-1.723 2.498 0 4.135 1.723 1.723 1.723 1.723 4.135t-1.723 4.135m-0.086-17.92h-8.098v-4.049q0-3.877 1.637-6.634 1.637-2.843 5.772-6.634 2.326-2.154 3.274-3.188 1.034-1.12 1.982-3.02 1.034-1.982 1.034-4.049 0-3.963-2.585-6.375-2.498-2.412-6.978-2.412-7.409 0-10.17 8.271l-7.409-3.102q1.809-4.911 6.203-8.788 4.48-3.963 11.37-3.963 7.84 0 12.75 4.652 4.911 4.566 4.911 11.72 0 3.102-1.637 6.289-1.637 3.188-2.929 4.566-1.206 1.292-3.446 3.36-0.258 0.258-0.431 0.431-5.255 4.738-5.255 9.477v3.446" fill="#494949"/></svg>
