<svg viewBox="0 0 64 64" xmlns="http://www.w3.org/2000/svg"><defs><linearGradient id="a" x1="774.8" x2="776.6" y1="245.2" y2="188.6" gradientUnits="userSpaceOnUse"><stop stop-color="#49b903" offset="0"/><stop stop-color="#8cff07" offset="1"/></linearGradient></defs><g transform="matrix(.9286 0 0 .9286 -686.9 -169.4)"><path d="m766.9 188.9c-0.793 0-1.299 0.643-1.299 1.436v4.309h-10.19c-0.793 0-1.299 0.643-1.299 1.436v47.38c0 0.793 0.52 1.436 1.313 1.436h37.33c0.793 0 1.559-0.643 1.559-1.436v-47.38c0-0.793-0.78-1.436-1.572-1.436h-9.914v-4.309c0-0.793-0.78-1.436-1.572-1.436h-14.36" fill="url(#a)"/><path d="m777.4 204.6-12.47 15.17 8.413 4.552-2.179 10.62 12.47-15.17-8.413-4.552z" fill-opacity=".687"/></g></svg>
