<svg viewBox="0 0 64 64" xmlns="http://www.w3.org/2000/svg"><defs><linearGradient id="b" x1="24.42" x2="24.39" y1="42.86" y2="5.889" gradientUnits="userSpaceOnUse"><stop stop-color="#dbdbdb" offset="0"/><stop stop-color="#fcf9f9" offset="1"/></linearGradient><linearGradient id="a" x1="24.21" x2="24.18" y1="42.86" y2="23.76" gradientUnits="userSpaceOnUse"><stop stop-color="#49b903" offset="0"/><stop stop-color="#8cff07" offset="1"/></linearGradient></defs><g transform="matrix(1.083 0 0 1.083 -360.8 -551.4)"><g transform="matrix(1.231 0 0 1.231 333 508.4)"><path d="m9.996 43c0 .552.363 1 .915 1h26c.552 0 1.085-.448 1.085-1v-19.972h-28v19.972" fill="url(#a)"/><path d="m37.996 23.03v-13.03c0-.552-.543-1-1.095-1h-6.905v-3c0-.552-.543-1-1.095-1h-10c-.552 0-.905.448-.905 1v3h-7.095c-.552 0-.905.448-.905 1v13.03h28" fill="url(#b)"/></g><path transform="matrix(2.167 0 0 2.167 306.3 -1711)" d="m27.21 1033-4.932 6 3.328 1.801-0.862 4.199 4.932-6-3.328-1.801z" fill-opacity=".687"/></g></svg>
