<svg viewBox="0 0 64 64" xmlns="http://www.w3.org/2000/svg"><defs><linearGradient id="a" x2="0" y1="211.2" y2="157.2" gradientUnits="userSpaceOnUse"><stop stop-color="#197ff1" offset="0"/><stop stop-color="#21c6fb" offset="1"/></linearGradient></defs><g transform="matrix(.9286 0 0 .9286 -681.9 -139.4)"><circle cx="768.9" cy="184.6" r="28" fill="url(#a)"/><path d="m770.54 199.45q-.776.817-1.961.817-1.185 0-2-.817-.776-.817-.776-1.961 0-1.144.776-1.961.817-.817 2-.817 1.185 0 1.961.817.817.817.817 1.961 0 1.144-.817 1.961m-.041-8.499h-3.841v-1.92q0-1.839.776-3.146.776-1.348 2.738-3.146 1.103-1.021 1.553-1.512.49-.531.94-1.43.49-.94.49-1.92 0-1.88-1.226-3.02-1.185-1.144-3.31-1.144-3.514 0-4.821 3.922l-3.514-1.471q.858-2.329 2.942-4.168 2.125-1.88 5.393-1.88 3.718 0 6.05 2.206 2.329 2.166 2.329 5.557 0 1.471-.776 2.983-.776 1.512-1.389 2.166-.572.613-1.634 1.594-.123.123-.204.204-2.492 2.247-2.492 4.494v1.634" fill="#fff" fill-opacity=".855"/></g></svg>
