<svg viewBox="0 0 64 64" xmlns="http://www.w3.org/2000/svg"><defs><linearGradient id="a" x2="0" y1="542.8" y2="507.8" gradientTransform="matrix(1.052 0 0 1.028 -72.68 -8.584)" gradientUnits="userSpaceOnUse"><stop stop-color="#d3d3d3" offset="0"/><stop stop-color="#fcf9f9" offset="1"/></linearGradient></defs><g transform="matrix(1.356 0 0 1.356 -452.4 -687.5)"><rect x="334.1" y="513.2" width="46.3" height="34.94" rx="1.644" fill="url(#a)"/><g transform="matrix(1.521 0 0 1.521 -204.4 -290.4)" fill-opacity=".85"><flowRoot transform="translate(389.6 520.8)" fill="#fff" font-family="sans-serif" font-size="10" letter-spacing="0" word-spacing="0" line-height="125%"><flowRegion><path d="m22 3h27v15h-27z" fill="#fff" fill-opacity=".85"/></flowRegion><flowPara>Plasm</flowPara></flowRoot><path transform="matrix(.8157 0 0 .8157 360.4 -308.7)" d="m16.444 1039.19v-2.23c0-3.03-2.463-5.49-5.49-5.49-3.03 0-5.49 2.463-5.49 5.49v2.23c-.433.09-.759.475-.759.935v8.358c0 .526.428.955.955.955h10.587c.527 0 .955-.429.955-.955v-8.358c0-.459-.326-.844-.759-.935m-4.207 7.125c.019.105-.051.188-.156.188h-2.229c-.105 0-.175-.083-.156-.188l.355-1.881c-.269-.245-.437-.598-.437-.99 0-.74.6-1.34 1.34-1.34.74 0 1.34.6 1.34 1.34 0 .381-.16.725-.416.969zm2.297-7.145h-7.16v-2.21c0-1.974 1.606-3.58 3.58-3.58 1.974 0 3.58 1.606 3.58 3.58z" fill="#35383b"/></g></g></svg>
