<svg viewBox="0 0 64 64" xmlns="http://www.w3.org/2000/svg"><defs><linearGradient id="c" x1="98.5" x2="98.15" y1="3.489" y2="-37.8" gradientUnits="userSpaceOnUse"><stop stop-color="#289bf7" offset="0"/><stop stop-color="#71b9f1" offset="1"/></linearGradient><linearGradient id="b" x1="-423.1" x2="-425" y1="519.5" y2="228" gradientTransform="matrix(1 0 0 .775 -1.586 117.2)" gradientUnits="userSpaceOnUse"><stop stop-color="#93cfff" offset="0"/><stop stop-color="#cde8fe" offset="1"/></linearGradient><linearGradient id="a" x1="-424.7" x2="-426.6" y1="519.8" y2="293.9" gradientUnits="userSpaceOnUse"><stop stop-color="#afd5eb" offset="0"/><stop stop-color="#c0e7ff" offset="1"/></linearGradient></defs><g transform="matrix(.1261 0 0 .1261 85.63 -11.27)"><path transform="matrix(4.168 0 0 4.168 -831.1 316.7)" d="m43.887-36.699c-1.108 0-2 .892-2 2v38.729l111 .24v-29.08c0-1.108-.892-2-2-2h-60.17c-2.039.18-2.301-.09-3.308-1.435-1.429-1.912-3.586-5.145-4.992-7.01-1.129-1.633-1.312-1.443-3.184-1.443z" fill="url(#c)"/><rect x="-657.1" y="292.2" width="463.8" height="228.7" rx="7.463" fill="url(#b)" stroke="url(#a)" stroke-width="2.378"/></g></svg>
