<svg viewBox="0 0 48 48" xmlns="http://www.w3.org/2000/svg"><defs><linearGradient id="a" x1="11.82" x2="12.18" y1="-1049" y2="-1034" gradientUnits="userSpaceOnUse"><stop stop-color="#0a80fd" offset="0"/><stop stop-color="#56c5fa" offset="1"/></linearGradient></defs><circle transform="matrix(-2.625 0 0 -2.625 52.88 -2710)" cx="11" cy="-1041" r="8" fill="url(#a)" opacity=".98"/><path transform="matrix(-2.056 0 0 2.056 40.06 -2116)" d="m3.555 1046.8c-.206-.387-.221-1.621-.03-2.548.412-2.01 1.307-3.861 2.618-5.423l.519-.619-2.391-2.531h7.259c.004.151 0 7.285 0 7.285l-2.552-2.344c-.441.169-2.848 2.458-3.504 3.33-.447.595-.973 1.588-1.247 2.355-.293.82-.443.929-.674.494z" fill="#fff" fill-opacity=".947" stroke="#f6f6f6" stroke-linecap="round" stroke-linejoin="round" stroke-width=".118"/></svg>
