<svg viewBox="0 0 48 48" xmlns="http://www.w3.org/2000/svg"><defs><linearGradient id="a" x1="11.82" x2="12.18" y1="-1049" y2="-1034" gradientUnits="userSpaceOnUse"><stop stop-color="#0a80fd" offset="0"/><stop stop-color="#56c5fa" offset="1"/></linearGradient></defs><circle transform="matrix(-2.625 0 0 -2.625 52.87 -2710)" cx="11" cy="-1041" r="8" fill="url(#a)" opacity=".98"/><path transform="matrix(.04811 0 0 .04811 9.985 12.79)" d="m483.2 0h-150.3c-27.56 0-66.04 15.94-85.52 35.42l-232.8 232.8c-19.48 19.48-19.48 51.37 0 70.85l179.6 179.6c19.48 19.48 51.37 19.48 70.85 0l232.8-232.8c19.48-19.48 35.42-57.97 35.42-85.52v-150.3c-1e-4 -27.55-22.54-50.1-50.1-50.1m-66.57 166.7c-27.61 0-50-22.38-50-50 0-27.61 22.39-50 50-50s50 22.39 50 50-22.39 50-50 50z" fill="#e0f1ff"/></svg>
