<svg viewBox="0 0 64 64" xmlns="http://www.w3.org/2000/svg"><g transform="matrix(.9286 0 0 .9286 -681.9 -144.4)"><rect x="740.9" y="161.9" width="56" height="56" rx="28" fill="#fff" stroke-width="1.083"/><path transform="matrix(1.873 0 0 1.873 748.2 -1761)" d="m15.927 1040.17v-1.998c0-2.712-2.206-4.919-4.919-4.919-2.712 0-4.919 2.207-4.919 4.919v1.998c-.388.081-.68.426-.68.837v7.488c0 .472.384.855.856.855h9.485c.472 0 .856-.384.856-.855v-7.488c0-.411-.292-.756-.68-.837m-1.711-.018h-6.415v-1.98c0-1.769 1.439-3.207 3.207-3.207 1.769 0 3.207 1.439 3.207 3.207z" fill="#4d4d4d"/></g></svg>
