<svg viewBox="0 0 64 64" xmlns="http://www.w3.org/2000/svg"><g transform="matrix(.9286 0 0 .9286 -681.9 -144.4)"><rect x="740.9" y="161.9" width="56" height="56" rx="28" fill="#fff" stroke-width="1.083"/><path transform="matrix(.08013 0 0 .08013 753.8 174.8)" d="m299 161.3h-185.8v-46.28c0-41.34 33.64-74.98 74.98-74.98 33.76 0 63.51 22.72 72.36 55.24 2.898 10.66 13.89 16.95 24.55 14.05 10.66-2.898 16.95-13.89 14.05-24.55-13.57-49.9-59.2-84.74-111-84.74-63.4 0-115 51.58-115 115v46.72c-9.06 1.902-15.89 9.952-15.89 19.57v175c0 11.03 8.972 20 20 20h221.7c11.03 0 20-8.972 20-20v-175c0-11.03-8.972-20-20-20" fill="#4d4d4d"/></g></svg>
