<svg viewBox="0 0 64 64" xmlns="http://www.w3.org/2000/svg" xmlns:xlink="http://www.w3.org/1999/xlink"><defs><linearGradient id="c" x2="0" y1="211.2" y2="157.2" gradientUnits="userSpaceOnUse"><stop stop-color="#2fae61" offset="0"/><stop stop-color="#4bdf88" offset="1"/></linearGradient><linearGradient id="a"><stop stop-color="#0a80fd" offset="0"/><stop stop-color="#56c5fa" offset="1"/></linearGradient><linearGradient id="d" x1="82.46" x2="82.74" y1="30.49" y2="24.59" gradientUnits="userSpaceOnUse"><stop stop-color="#060606" offset="0"/><stop stop-color="#343434" offset="1"/></linearGradient><linearGradient id="e" x2="0" y1="45.95" y2="25.99" gradientUnits="userSpaceOnUse" xlink:href="#a"/><linearGradient id="f" x1="98.65" x2="98.44" y1="19.36" y2="16.25" gradientUnits="userSpaceOnUse" xlink:href="#a"/><linearGradient id="g" x1="-847.1" x2="-843.9" y1="191.1" y2="-181.9" gradientTransform="matrix(.07412 0 0 .06784 145.5 26.06)" gradientUnits="userSpaceOnUse" xlink:href="#b"/><linearGradient id="i" x1="81.26" x2="81.41" y1="14.55" y2="2.154" gradientUnits="userSpaceOnUse" xlink:href="#b"/><linearGradient id="h" x1="81.4" x2="81.51" y1="11.64" y2=".651" gradientUnits="userSpaceOnUse"><stop stop-color="#cdced2" offset="0"/><stop stop-color="#f1f1f1" offset="1"/></linearGradient><linearGradient id="b"><stop stop-color="#1f1f1f" offset="0"/><stop stop-color="#444" offset="1"/></linearGradient></defs><g transform="translate(-736.9 -157.9)"><g transform="matrix(.9514 0 0 .9514 687.3 163.2)" enable-background="new"><rect x="67.28" y="6.357" width="30.26" height="10.47" rx=".654" fill="url(#i)"/><rect x="70.27" y=".741" width="24.21" height="13.09" rx=".685" fill="url(#h)"/><rect x="58.37" y="12.9" width="48" height="26.5" rx="1.559" fill="url(#g)"/><path d="m96.4 16.42a1.472 1.472 0 0 0-1.472 1.472 1.472 1.472 0 0 0 1.472 1.472 1.472 1.472 0 0 0 1.472-1.472 1.472 1.472 0 0 0-1.472-1.472m4.253 0a1.472 1.472 0 0 0-1.472 1.472 1.472 1.472 0 0 0 1.472 1.472 1.472 1.472 0 0 0 1.472-1.472 1.472 1.472 0 0 0-1.472-1.472" fill="url(#f)"/><rect x="70.51" y="27.46" width="23.72" height="18.65" rx=".965" fill="url(#e)"/><path d="m71.17 26.15h22.41c1.178 0 2.127 0.949 2.127 2.127v0.164 2.127h-26.67v-2.127-0.164c0-1.178 0.949-2.127 2.127-2.127" fill="url(#d)"/></g><g transform="matrix(.471 0 0 .471 419.6 113.3)"><circle transform="translate(0 5.385)" cx="768.9" cy="184.6" r="28" fill="url(#c)"/><path transform="matrix(1.435 0 0 1.435 -326.9 -95.3)" d="m773.85 193.97l-1.89-1.89c-.259-.259-.574-.389-.945-.389-.371 0-.686.13-.945.389l-9.116 9.13-4.085-4.099c-.259-.259-.574-.389-.945-.389-.371 0-.686.13-.945.389l-1.89 1.89c-.259.259-.389.574-.389.945 0 .37.13.686.389.945l5.03 5.03 1.89 1.89c.259.259.574.389.945.389.37 0 .685-.13.945-.389l1.89-1.89 10.06-10.06c.259-.259.389-.574.389-.945 0-.37-.13-.685-.389-.945" fill="#fff" fill-opacity=".851"/></g></g></svg>
