<svg viewBox="0 0 64 64" xmlns="http://www.w3.org/2000/svg"><defs><linearGradient id="a" x1="-29" x2="-15.58" y1="514.8" y2="-56.05" gradientTransform="matrix(.08446 0 0 .0845 701.5 158.2)" gradientUnits="userSpaceOnUse"><stop stop-color="#197ff1" offset="0"/><stop stop-color="#21c6fb" offset="1"/></linearGradient></defs><g transform="matrix(.9286 0 0 .9286 -681.9 -144.4)"><path transform="matrix(1.435 0 0 1.435 -326.9 -95.3)" d="m773.85 193.97l-1.89-1.89c-.259-.259-.574-.389-.945-.389-.371 0-.686.13-.945.389l-9.116 9.13-4.085-4.099c-.259-.259-.574-.389-.945-.389-.371 0-.686.13-.945.389l-1.89 1.89c-.259.259-.389.574-.389.945 0 .37.13.686.389.945l5.03 5.03 1.89 1.89c.259.259.574.389.945.389.37 0 .685-.13.945-.389l1.89-1.89 10.06-10.06c.259-.259.389-.574.389-.945 0-.37-.13-.685-.389-.945" fill="#fff" fill-opacity=".851"/><g transform="matrix(1.083 0 0 1.083 21.1 -1.828)"><rect x="665.5" y="152.3" width="49.44" height="49.47" rx="24.72" ry="24.74" fill="#ddeffd"/><path d="m690.2 151.16c-3.504 0-6.837.695-10.04 2.068-6.354 2.726-11.01 7.351-13.737 13.718-1.368 3.19-2.032 6.525-2.032 10.03 0 3.506.664 6.874 2.032 10.06 2.73 6.367 7.384 11.02 13.737 13.743 3.199 1.373 6.531 2.068 10.04 2.068 3.504 0 6.859-.702 10.06-2.068 6.407-2.734 11.04-7.387 13.762-13.743 1.372-3.201 2.066-6.558 2.066-10.06 0-3.506-.693-6.83-2.066-10.03-2.725-6.357-7.356-10.984-13.762-13.718-3.202-1.366-6.556-2.068-10.06-2.068m-.452 7.541c1.318 0 2.398 1.079 2.398 2.398v16.419l9.305 7.28c1.078.799 1.24 2.316.442 3.355-.439.599-1.162.915-1.88.915-.519 0-1.035-.198-1.474-.517l-10.262-7.989c-.559-.44-.923-1.123-.923-1.883v-17.58c0-1.319 1.078-2.398 2.396-2.398" fill="url(#a)" opacity=".99"/></g></g></svg>
