<svg viewBox="0 0 64 64" xmlns="http://www.w3.org/2000/svg"><defs><linearGradient id="b" x2="0" y1="542.8" y2="507.8" gradientTransform="matrix(1.273 0 0 1.647 243.5 -674.4)" gradientUnits="userSpaceOnUse"><stop stop-color="#2a2c2f" offset="0"/><stop stop-color="#424649" offset="1"/></linearGradient><linearGradient id="a" x2="0" y1="219.9" y2="161.9" gradientUnits="userSpaceOnUse"><stop stop-color="#ff9300" offset="0"/><stop stop-color="#ffd702" offset="1"/></linearGradient></defs><g transform="matrix(.9286 0 0 .9286 -676.9 -144.4)"><rect x="735.5" y="161.9" width="56" height="56" rx="2.635" fill="url(#b)"/><path transform="matrix(1.361 0 0 1.361 745.9 173.8)" d="m16.428 15.744c-.159-.052-1.164-.505-.536-2.414h-.009c1.637-1.686 2.888-4.399 2.888-7.07 0-4.107-2.731-6.26-5.905-6.26-3.176 0-5.892 2.152-5.892 6.26 0 2.682 1.244 5.406 2.891 7.088.642 1.684-.506 2.309-.746 2.396-2.238.724-8.325 4.332-8.229 9.586h24.05c.107-5.02-4.708-8.279-8.513-9.586" fill="#fff" fill-opacity=".85"/><g transform="matrix(.4464 0 0 .4464 399.8 125.7)"><rect x="740.9" y="161.9" width="56" height="56" rx="28" fill="url(#a)" stroke-width="1.083"/><path transform="matrix(1.873 0 0 1.873 748.2 -1761)" d="m15.927 1040.17v-1.998c0-2.712-2.206-4.919-4.919-4.919-2.712 0-4.919 2.207-4.919 4.919v1.998c-.388.081-.68.426-.68.837v7.488c0 .472.384.855.856.855h9.485c.472 0 .856-.384.856-.855v-7.488c0-.411-.292-.756-.68-.837m-3.769 6.383c.017.093-.045.168-.139.168h-1.997c-.094 0-.157-.076-.139-.168l.318-1.685c-.241-.219-.392-.536-.392-.887 0-.663.537-1.2 1.2-1.2.663 0 1.2.537 1.2 1.2 0 .342-.143.65-.372.869zm2.058-6.402h-6.415v-1.98c0-1.769 1.439-3.207 3.207-3.207 1.769 0 3.207 1.439 3.207 3.207z" fill="#342300"/></g></g></svg>
