<svg viewBox="0 0 64 64" xmlns="http://www.w3.org/2000/svg"><defs><linearGradient id="b" x2="0" y1="542.8" y2="507.8" gradientTransform="matrix(1.273 0 0 1.647 243.5 -674.4)" gradientUnits="userSpaceOnUse"><stop stop-color="#2a2c2f" offset="0"/><stop stop-color="#424649" offset="1"/></linearGradient><linearGradient id="a" x2="0" y1="219.9" y2="161.9" gradientUnits="userSpaceOnUse"><stop stop-color="#ff9300" offset="0"/><stop stop-color="#ffd702" offset="1"/></linearGradient></defs><g transform="matrix(.9286 0 0 .9286 -676.9 -144.4)"><rect x="735.5" y="161.9" width="56" height="56" rx="2.635" fill="url(#b)"/><path transform="matrix(1.361 0 0 1.361 745.9 173.8)" d="m16.428 15.744c-.159-.052-1.164-.505-.536-2.414h-.009c1.637-1.686 2.888-4.399 2.888-7.07 0-4.107-2.731-6.26-5.905-6.26-3.176 0-5.892 2.152-5.892 6.26 0 2.682 1.244 5.406 2.891 7.088.642 1.684-.506 2.309-.746 2.396-2.238.724-8.325 4.332-8.229 9.586h24.05c.107-5.02-4.708-8.279-8.513-9.586" fill="#fff" fill-opacity=".85"/><g transform="matrix(.4464 0 0 .4464 399.8 125.7)"><rect x="740.9" y="161.9" width="56" height="56" rx="28" fill="url(#a)" stroke-width="1.083"/><path transform="matrix(.08013 0 0 .08013 753.8 174.8)" d="m299 161.3h-185.8v-46.28c0-41.34 33.64-74.98 74.98-74.98 33.76 0 63.51 22.72 72.36 55.24 2.898 10.66 13.89 16.95 24.55 14.05 10.66-2.898 16.95-13.89 14.05-24.55-13.57-49.9-59.2-84.74-111-84.74-63.4 0-115 51.58-115 115v46.72c-9.06 1.902-15.89 9.952-15.89 19.57v175c0 11.03 8.972 20 20 20h221.7c11.03 0 20-8.972 20-20v-175c0-11.03-8.972-20-20-20m-84 149.6c0.408 2.162-1.058 3.931-3.258 3.931h-46.68c-2.2 0-3.666-1.769-3.258-3.931l7.432-39.39c-5.626-5.131-9.157-12.52-9.157-20.73 0-15.5 12.56-28.06 28.06-28.06 15.5 0 28.06 12.56 28.06 28.06 0 7.991-3.346 15.2-8.707 20.3z" fill="#342300"/></g></g></svg>
