<svg viewBox="0 0 64 64" xmlns="http://www.w3.org/2000/svg" xmlns:xlink="http://www.w3.org/1999/xlink"><defs><linearGradient id="i" x1="-512.8" x2="-512.4" y1="-185.5" y2="-190.1" gradientUnits="userSpaceOnUse" xlink:href="#a"/><linearGradient id="h" x1="-507.8" x2="-507.4" y1="-173.2" y2="-177.8" gradientUnits="userSpaceOnUse" xlink:href="#a"/><linearGradient id="c" x1="395.5" x2="395.2" y1="551.3" y2="535.6" gradientTransform="matrix(2.078 0 0 2.089 -503.1 -599.9)" gradientUnits="userSpaceOnUse"><stop stop-color="#b7d7e1" offset="0"/><stop stop-color="#fff" offset="1"/></linearGradient><linearGradient id="g" x1="151.8" x2="95.62" y1="320.2" y2="-16.68" gradientUnits="userSpaceOnUse"><stop stop-color="#92ccff" offset="0"/><stop stop-color="#e5f9fd" offset="1"/></linearGradient><linearGradient id="e" x2="0" y1="15.75" y2="8.935" gradientUnits="userSpaceOnUse" xlink:href="#b"/><linearGradient id="d" x1="21.58" x2="18.17" y1="8.935" y2="5.526" gradientUnits="userSpaceOnUse" xlink:href="#b"/><linearGradient id="f" x2="0" y1="8.935" y2="2.117" gradientUnits="userSpaceOnUse" xlink:href="#b"/><linearGradient id="j" x1="-538.7" x2="-538.3" y1="-169.5" y2="-174.1" gradientUnits="userSpaceOnUse" xlink:href="#a"/><linearGradient id="b"><stop stop-color="#ff9300" offset="0"/><stop stop-color="#ffd702" offset="1"/></linearGradient><linearGradient id="a"><stop stop-color="#add4e9" offset="0"/><stop stop-color="#f0fbfe" offset="1"/></linearGradient><linearGradient id="k" x1="-528.2" x2="-527.6" y1="-164" y2="-170.7" gradientUnits="userSpaceOnUse" xlink:href="#a"/><linearGradient id="o" x2="0" y1="214.6" y2="208.2" gradientUnits="userSpaceOnUse" xlink:href="#a"/><linearGradient id="m" x2="0" y1="215.9" y2="209.5" gradientUnits="userSpaceOnUse" xlink:href="#a"/><linearGradient id="l" x1="-528" x2="-527.3" y1="-179.9" y2="-188.5" gradientUnits="userSpaceOnUse" xlink:href="#a"/><linearGradient id="n" x2="0" y1="221.4" y2="214.9" gradientUnits="userSpaceOnUse" xlink:href="#a"/></defs><g transform="translate(-736.9 -157.9)"><g transform="matrix(.9286 0 0 .9286 102.5 7.91)"><circle transform="translate(5.385)" cx="729.1" cy="211.4" r="3.231" fill="url(#o)"/><circle transform="translate(5.385)" cx="717" cy="218.2" r="3.231" fill="url(#n)"/><circle transform="translate(5.385)" cx="702.6" cy="212.7" r="3.231" fill="url(#m)"/><g transform="matrix(.6615 0 0 .6615 1067 333.8)"><ellipse cx="-527.5" cy="-184.8" rx="4.377" ry="4.284" fill="url(#l)"/><ellipse cx="-527.8" cy="-167.8" rx="3.446" ry="3.372" fill="url(#k)"/><ellipse cx="-538.4" cy="-172.1" rx="2.328" ry="2.279" fill="url(#j)"/><ellipse cx="-512.6" cy="-188.1" rx="2.328" ry="2.279" fill="url(#i)"/><ellipse cx="-507.5" cy="-175.8" rx="2.328" ry="2.279" fill="url(#h)"/></g></g><g transform="matrix(.5678 0 0 .5678 1258 342.6)"><g transform="matrix(.9286 0 0 .9286 -1579 -464.1)"><path transform="matrix(-.1918 0 0 .1918 791.5 161.9)" d="m153.7 292.1c-84.75 0-153.7-68.95-153.7-153.7 0-58.7 32.68-111.4 85.28-137.6 2.369-1.174 5.215-0.718 7.08 1.144 1.864 1.864 2.345 4.711 1.183 7.07-9.599 19.5-14.46 40.47-14.46 62.3 0 77.97 63.43 141.4 141.4 141.4 22.08 0 43.25-4.978 62.94-14.78 2.366-1.177 5.213-0.721 7.07 1.141 1.873 1.867 2.342 4.714 1.177 7.07-26.06 53.02-78.93 85.96-138 85.96" fill="url(#g)"/><g transform="matrix(-1.579 0 0 1.579 774.9 166.1)"><path d="m13.977 4.988l-2.286-.762-1.214-3.238-1.214 3.238-2.286.762 2.286.762 1.214 3.238 1.213-3.238z" fill="url(#f)"/><path d="m10.977 12.988l2.286.762 1.214 3.238 1.214-3.238 2.286-.762-2.286-.762-1.214-3.238-1.214 3.238z" fill="url(#e)"/><path d="m18.61 6.417l-1.633.571 1.633.571.867 2.429.867-2.429 1.633-.571-1.633-.571-.867-2.429z" fill="url(#d)"/></g></g><path transform="matrix(1.651 0 0 1.651 -1379 -1158)" d="m311.11 530.14c-.874-.686-1.973-1.095-3.165-1.095-2.808 0-5.093 2.265-5.165 5.087-2.898 1.099-4.961 3.927-4.961 7.241 0 3.916 2.879 7.151 6.613 7.662v.07h26.451v-.013c3.688-.216 6.613-3.309 6.613-7.093 0-3.649-2.72-6.655-6.222-7.06.014-.222.022-.447.022-.673 0-5.655-4.719-10.239-10.539-10.239-4.308 0-8.01 2.512-9.647 6.11" fill="url(#c)"/></g></g></svg>
