<svg viewBox="0 0 64 64" xmlns="http://www.w3.org/2000/svg" xmlns:xlink="http://www.w3.org/1999/xlink"><defs><linearGradient id="f" x1="-528.2" x2="-527.6" y1="-164" y2="-170.7" gradientUnits="userSpaceOnUse" xlink:href="#a"/><linearGradient id="b"><stop stop-color="#7a808a" offset="0"/><stop stop-color="#ced8e0" offset="1"/></linearGradient><linearGradient id="e" x1="-538.7" x2="-538.3" y1="-169.5" y2="-174.1" gradientUnits="userSpaceOnUse" xlink:href="#a"/><linearGradient id="c" x1="-507.8" x2="-507.4" y1="-173.2" y2="-177.8" gradientUnits="userSpaceOnUse" xlink:href="#a"/><linearGradient id="d" x1="-512.8" x2="-512.4" y1="-185.5" y2="-190.1" gradientUnits="userSpaceOnUse" xlink:href="#a"/><linearGradient id="g" x1="-528" x2="-527.3" y1="-179.9" y2="-188.5" gradientUnits="userSpaceOnUse" xlink:href="#a"/><linearGradient id="k" x1="395.7" x2="395.5" y1="557.2" y2="541.5" gradientTransform="matrix(2.078 0 0 2.089 -503.1 -599.9)" gradientUnits="userSpaceOnUse" xlink:href="#b"/><linearGradient id="h" x1="-504.1" x2="-502.4" y1="-182.4" y2="-189.1" gradientUnits="userSpaceOnUse" xlink:href="#b"/><linearGradient id="a"><stop stop-color="#add4e9" offset="0"/><stop stop-color="#f0fbfe" offset="1"/></linearGradient><linearGradient id="i" x1="-521.3" x2="-520.7" y1="-170.6" y2="-177.5" gradientUnits="userSpaceOnUse" xlink:href="#b"/><linearGradient id="j" x1="-543.1" x2="-541.2" y1="-180.8" y2="-187.5" gradientUnits="userSpaceOnUse" xlink:href="#b"/></defs><g transform="matrix(.6142 0 0 .6142 352.9 157.9)"><path transform="matrix(2.134 0 0 2.134 -1200 -1364)" d="m311.11 530.14c-.874-.686-1.973-1.095-3.165-1.095-2.808 0-5.093 2.265-5.165 5.087-2.898 1.099-4.961 3.927-4.961 7.241 0 3.916 2.879 7.151 6.613 7.662v.07h26.451v-.013c3.688-.216 6.613-3.309 6.613-7.093 0-3.649-2.72-6.655-6.222-7.06.014-.222.022-.447.022-.673 0-5.655-4.719-10.239-10.539-10.239-4.308 0-8.01 2.512-9.647 6.11" fill="url(#k)"/><path d="m-540.6-188.6-3.478 3.36c-0.732 0.711-1.084 1.784-0.825 2.847 0.389 1.599 2 2.58 3.599 2.191s2.58-2 2.191-3.599l-1.143-4.699c-0.038-0.155-0.23-0.211-0.345-0.1" fill="url(#j)"/><path d="m-520.38-178.73l-2.745 3.981c-.577.842-.71 1.963-.246 2.954.697 1.491 2.471 2.134 3.962 1.436 1.491-.697 2.134-2.471 1.437-3.962l-2.049-4.38c-.068-.145-.267-.161-.358-.03" fill="url(#i)"/><path d="m-501.89-190.24l-3.345 3.493c-.704.739-1.014 1.824-.714 2.877.451 1.583 2.099 2.5 3.682 2.05 1.583-.451 2.5-2.099 2.05-3.682l-1.325-4.651c-.044-.154-.238-.202-.348-.086" fill="url(#h)"/><ellipse cx="-527.5" cy="-184.8" rx="4.377" ry="4.284" fill="url(#g)"/><ellipse cx="-527.8" cy="-167.8" rx="3.446" ry="3.372" fill="url(#f)"/><ellipse cx="-538.4" cy="-172.1" rx="2.328" ry="2.279" fill="url(#e)"/><ellipse cx="-512.6" cy="-188.1" rx="2.328" ry="2.279" fill="url(#d)"/><ellipse cx="-507.5" cy="-175.8" rx="2.328" ry="2.279" fill="url(#c)"/></g></svg>
