<svg viewBox="0 0 64 64" xmlns="http://www.w3.org/2000/svg" xmlns:xlink="http://www.w3.org/1999/xlink"><defs><linearGradient id="c" x2="0" y1="15.75" y2="8.935" gradientUnits="userSpaceOnUse" xlink:href="#a"/><linearGradient id="b" x2="0" y1="549.6" y2="538.4" gradientTransform="matrix(1.926 0 0 1.936 -444.4 -515.6)" gradientUnits="userSpaceOnUse"><stop stop-color="#ebebeb" offset="0"/><stop stop-color="#fff" offset="1"/></linearGradient><linearGradient id="d" x2="0" y1="8.935" y2="2.117" gradientUnits="userSpaceOnUse" xlink:href="#a"/><linearGradient id="a"><stop stop-color="#ff9300" offset="0"/><stop stop-color="#ffd702" offset="1"/></linearGradient><linearGradient id="f" x1="151.8" x2="95.62" y1="320.2" y2="-16.68" gradientUnits="userSpaceOnUse"><stop stop-color="#92ccff" offset="0"/><stop stop-color="#e5f9fd" offset="1"/></linearGradient><linearGradient id="e" x1="21.58" x2="18.17" y1="8.935" y2="5.526" gradientUnits="userSpaceOnUse" xlink:href="#a"/></defs><g transform="matrix(.8458 0 0 .8458 -616 -129.1)"><g transform="translate(5.378.004)"><path transform="matrix(-.1918 0 0 .1918 791.5 161.9)" d="m153.7 292.1c-84.75 0-153.7-68.95-153.7-153.7 0-58.7 32.68-111.4 85.28-137.6 2.369-1.174 5.215-0.718 7.08 1.144 1.864 1.864 2.345 4.711 1.183 7.07-9.599 19.5-14.46 40.47-14.46 62.3 0 77.97 63.43 141.4 141.4 141.4 22.08 0 43.25-4.978 62.94-14.78 2.366-1.177 5.213-0.721 7.07 1.141 1.873 1.867 2.342 4.714 1.177 7.07-26.06 53.02-78.93 85.96-138 85.96" fill="url(#f)"/><g transform="matrix(-1.579 0 0 1.579 774.9 166.1)"><path d="m10.477.988l-1.214 3.238-2.286.762 2.286.762 1.214 3.238 1.213-3.238 2.287-.762-2.286-.762z" fill="url(#d)"/><path d="m14.477 16.988l1.214-3.238 2.286-.762-2.286-.762-1.214-3.238-1.214 3.238-2.286.762 2.286.762z" fill="url(#c)"/><path d="m18.61 7.559l.867 2.429.867-2.429 1.633-.571-1.633-.571-.867-2.429-.867 2.429-1.633.571z" fill="url(#e)"/></g></g><path transform="matrix(1.374 0 0 1.374 326.1 -535.6)" d="m310.13 531.53c-.81-.636-1.828-1.015-2.933-1.015-2.602 0-4.719 2.099-4.786 4.714-2.686 1.019-4.598 3.639-4.598 6.711 0 3.629 2.668 6.627 6.128 7.1v.065h24.512v-.012c3.418-.2 6.128-3.066 6.128-6.573 0-3.381-2.521-6.167-5.766-6.541.013-.206.021-.414.021-.624 0-5.24-4.373-9.488-9.767-9.488-3.993 0-7.426 2.327-8.94 5.662" fill="url(#b)"/></g></svg>
