<svg viewBox="0 0 64 64" xmlns="http://www.w3.org/2000/svg"><defs><linearGradient id="c" x1="393.8" x2="395.8" y1="549.5" y2="542.8" gradientTransform="matrix(-2.124 0 0 2.135 1576 -955.6)" gradientUnits="userSpaceOnUse"><stop stop-color="#c8e1e8" offset="0"/><stop stop-color="#fff" offset="1"/></linearGradient><linearGradient id="b" x1="393.8" x2="390.4" y1="549.5" y2="542.9" gradientTransform="matrix(2.078 0 0 2.089 -503.1 -599.9)" gradientUnits="userSpaceOnUse"><stop stop-color="#c3e6ee" offset="0"/><stop stop-color="#fff" offset="1"/></linearGradient><linearGradient id="a" x1="396.6" x2="394.4" y1="546.1" y2="538.6" gradientTransform="matrix(2.078 0 0 2.089 -503.1 -599.9)" gradientUnits="userSpaceOnUse"><stop stop-color="#b7d7e1" offset="0"/><stop stop-color="#fff" offset="1"/></linearGradient></defs><g transform="matrix(1.067 0 0 1.067 -745.9 -181.4)"><path transform="matrix(1.216 0 0 1.216 343.9 -455.9)" d="m311.11 530.14c-.874-.686-1.973-1.095-3.165-1.095-2.808 0-5.093 2.265-5.165 5.087-2.898 1.099-4.961 3.927-4.961 7.241 0 3.916 2.879 7.151 6.613 7.662v.07h26.451v-.013c3.688-.216 6.613-3.309 6.613-7.093 0-3.649-2.72-6.655-6.222-7.06.014-.222.022-.447.022-.673 0-5.655-4.719-10.239-10.539-10.239-4.308 0-8.01 2.512-9.647 6.11" fill="url(#a)"/><path transform="matrix(.7693 0 0 .7693 472.2 -205.6)" d="m311.11 530.14c-.874-.686-1.973-1.095-3.165-1.095-2.808 0-5.093 2.265-5.165 5.087-2.898 1.099-4.961 3.927-4.961 7.241 0 3.916 2.879 7.151 6.613 7.662v.07h26.451v-.013c3.688-.216 6.613-3.309 6.613-7.093 0-3.649-2.72-6.655-6.222-7.06.014-.222.022-.447.022-.673 0-5.655-4.719-10.239-10.539-10.239-4.308 0-8.01 2.512-9.647 6.11" fill="url(#b)"/><path d="m743.78 199.48c.894-.702 2.02-1.119 3.235-1.119 2.87 0 5.205 2.315 5.279 5.2 2.963 1.124 5.071 4.01 5.071 7.402 0 4-2.942 7.31-6.759 7.831v.072h-27.04v-.013c-3.77-.221-6.759-3.382-6.759-7.25 0-3.73 2.78-6.802 6.36-7.215-.015-.227-.023-.457-.023-.688 0-5.78 4.823-10.466 10.773-10.466 4.404 0 8.19 2.567 9.861 6.245" fill="url(#c)"/></g></svg>
