<svg viewBox="0 0 48 48" xmlns="http://www.w3.org/2000/svg" xmlns:xlink="http://www.w3.org/1999/xlink"><defs><linearGradient id="a" x1="159.5" x2="160.7" y1="668" y2="597" gradientUnits="userSpaceOnUse" xlink:href="#b"/><linearGradient id="c" x1="8.167" x2="8.115" y1="1050" y2="1038" gradientUnits="userSpaceOnUse"><stop stop-color="#141414" offset="0"/><stop stop-color="#2d2d2f" offset="1"/></linearGradient><linearGradient id="b"><stop stop-color="#08f" offset="0"/><stop stop-color="#02c3ff" offset="1"/></linearGradient><linearGradient id="d" x1="169.5" x2="159.2" y1="624.7" y2="63.27" gradientTransform="matrix(.9302 0 0 .9189 14.82 32.59)" gradientUnits="userSpaceOnUse" xlink:href="#b"/></defs><g transform="matrix(1.714 0 0 1.714 -662.7 -887.6)"><g transform="matrix(.04653 0 0 .04047 393.1 517.9)"><rect x="18.55" y="87.91" width="292.7" height="525.8" rx="9.302" fill="url(#d)" fill-rule="evenodd"/><path transform="matrix(42.98 0 0 49.41 -182.5 -51264)" d="m11.404 1037.36h-6.807c-.31 0-.561.251-.561.561v12.877c0 .31.251.561.561.561h6.807c.31 0 .561-.251.561-.561v-12.877c0-.31-.251-.561-.561-.561m-.082 11.778h-6.644v-9.555h6.644z" fill="url(#c)"/><ellipse cx="161.3" cy="638" rx="25.23" ry="29" fill="url(#a)" fill-rule="evenodd" stroke="url(#a)" stroke-linecap="round" stroke-width="7.411"/></g><g transform="matrix(.4368 0 0 .4354 599.3 588.4)" fill="#121212" fill-opacity=".847"><ellipse cx="-462.6" cy="-130.5" rx="2.5" ry="2.5"/><ellipse cx="-458.1" cy="-123" rx="3" ry="3"/><ellipse cx="-460.6" cy="-138.5" rx="1.5" ry="1.5"/><path d="m-452.1-140-2.844 2.844 4.375 4.375-4.531 5.156 3 2.625 7-8-7-7"/></g></g></svg>
