<svg viewBox="0 0 48 48" xmlns="http://www.w3.org/2000/svg"><defs><linearGradient id="a" x2="0" y1="986.7" y2="-2.623" gradientUnits="userSpaceOnUse"><stop stop-color="#ff9300" offset="0"/><stop stop-color="#ffd702" offset="1"/></linearGradient></defs><g transform="matrix(.9306 0 0 .9306 -691.6 -151.3)"><path transform="matrix(.05256 0 0 .05256 743.1 162.6)" d="m946.2 206.6c-0.3-23-18-42-40.9-44.1-190.3-17.8-345.6-119.5-396.8-156.7-10.7-7.8-25.2-7.8-35.9 0-51.1 37.2-206.4 138.9-396.7 156.7-22.9 2.101-40.5 21.1-40.9 44.1-2.3 150.1 21.8 659.7 444.1 773.1 7.5 2 15.4 2 22.9 0 422.3-113.3 446.4-623 444.2-773.1" fill="url(#a)" stroke-width="9.512"/><g transform="matrix(.1724 0 0 .1724 737.7 152.8)" fill-opacity=".852"><path d="m164.9 143.1v90.35c0 8.65 7.01 15.66 15.66 15.66 8.65 0 15.66-7.01 15.66-15.66v-90.35c0-8.651-7.01-15.66-15.66-15.66-8.651 0-15.66 7.01-15.66 15.66"/><path d="m180.6 265.4c-9.1 0-16.5 7.399-16.5 16.5 0 9.1 7.403 16.5 16.5 16.5 9.1 0 16.5-7.402 16.5-16.5 0-9.1-7.404-16.5-16.5-16.5"/></g></g></svg>
