<svg viewBox="0 0 48 48" xmlns="http://www.w3.org/2000/svg"><defs><linearGradient id="a" x2="0" y1="545.1" y2="518.1" gradientUnits="userSpaceOnUse"><stop stop-color="#4dc003" offset="0"/><stop stop-color="#89f907" offset="1"/></linearGradient></defs><g transform="matrix(1.714 0 0 1.714 -662.7 -887.6)"><flowRoot transform="translate(355.6 516.1)" font-family="sans-serif" font-size="10" letter-spacing="0" word-spacing="0" line-height="125%"><flowRegion><path d="m22 3h27v15h-27z"/></flowRegion><flowPara>Plasm</flowPara></flowRoot><g transform="translate(-.136-.046)"><g transform="translate(.135.045)"><circle cx="400.6" cy="531.8" r="14" fill="url(#a)"/><circle cx="400.6" cy="531.8" r="14" fill="#5ea5fb" fill-opacity="0"/></g><g transform="matrix(.1033 0 0 .1033 395.9 524.8)" fill="#fff" fill-opacity=".85"><path d="m47 94.07c7.17 0 13.31-2.553 18.41-7.657s7.658-11.24 7.658-18.41v-41.71c0-7.17-2.551-13.31-7.658-18.41-5.105-5.105-11.24-7.659-18.41-7.659s-13.31 2.554-18.41 7.659-7.659 11.24-7.659 18.41v41.71c0 7.17 2.554 13.31 7.659 18.41s11.24 7.657 18.41 7.657"/><path d="m92.38 53.9c-1.03-1.032-2.254-1.548-3.666-1.548s-2.634 0.516-3.666 1.548-1.548 2.254-1.548 3.666v10.43c0 10.05-3.572 18.64-10.71 25.79-7.141 7.143-15.74 10.71-25.79 10.71-10.05 0-18.64-3.571-25.79-10.71-7.142-7.141-10.71-15.74-10.71-25.79v-10.43c0-1.412-0.516-2.634-1.548-3.666s-2.253-1.548-3.666-1.548-2.635 0.516-3.667 1.548-1.548 2.254-1.548 3.666v10.43c0 12 4.01 22.45 12.02 31.33 8.01 8.88 17.91 13.97 29.7 15.28v10.76h-20.86c-1.412 0-2.634 0.516-3.666 1.548s-1.548 2.254-1.548 3.666c0 1.411 0.516 2.635 1.548 3.666 1.032 1.032 2.254 1.549 3.666 1.549h52.14c1.412 0 2.636-0.517 3.666-1.549 1.033-1.031 1.55-2.255 1.55-3.666 0-1.412-0.517-2.634-1.55-3.666-1.03-1.032-2.254-1.548-3.666-1.548h-20.86v-10.76c11.78-1.303 21.68-6.395 29.7-15.28 8.01-8.88 12.02-19.32 12.02-31.33v-10.43c0-1.412-0.517-2.633-1.55-3.666"/></g></g></g></svg>
