<svg viewBox="0 0 48 48" xmlns="http://www.w3.org/2000/svg"><defs><linearGradient id="b" x2="0" y1="518.1" y2="545.2" gradientUnits="userSpaceOnUse"><stop stop-color="#faf7f7" offset="0"/><stop stop-color="#d4d4d4" offset="1"/></linearGradient><linearGradient id="a" x1="403.4" x2="402.5" y1="545.2" y2="518.1" gradientUnits="userSpaceOnUse"><stop stop-color="#d3d3d3" offset="0"/><stop stop-color="#fcf9f9" offset="1"/></linearGradient></defs><circle transform="matrix(1.601 0 0 1.601 -617.4 -827.5)" cx="400.5" cy="531.7" r="14.23" fill="url(#a)" stroke="url(#b)" stroke-width="1.524"/><path transform="matrix(1.696 0 0 1.691 -663.9 -884.6)" d="m409.03 539.85c-.819 0-1.541.392-2.01.991l-4.375-2.247c.057-.215.099-.436.099-.669 0-.254-.049-.493-.117-.726l4.356-2.236c.469.627 1.21 1.036 2.051 1.036 1.425 0 2.577-1.157 2.577-2.586 0-1.428-1.153-2.586-2.577-2.586-1.422 0-2.575 1.158-2.575 2.586 0 .234.041.456.099.671l-4.374 2.247c-.472-.6-1.196-.993-2.02-.993-1.423 0-2.575 1.158-2.575 2.587 0 1.429 1.152 2.586 2.575 2.586.842 0 1.582-.411 2.053-1.038l4.354 2.236c-.068.232-.118.473-.118.728 0 1.429 1.154 2.586 2.575 2.586 1.425 0 2.577-1.158 2.577-2.586 0-1.43-1.153-2.587-2.577-2.587" fill="#35383b" stroke-opacity=".8"/></svg>
