<svg viewBox="0 0 48 48" xmlns="http://www.w3.org/2000/svg"><defs><linearGradient id="a" x2="0" y1=".854" y2="49.96" gradientTransform="matrix(2.634 0 0 2.275 149.2 -57.93)" gradientUnits="userSpaceOnUse"><stop stop-color="#f4f4f4" offset="0"/><stop stop-color="#dbdbdb" offset="1"/></linearGradient></defs><g transform="matrix(.4404 0 0 .4404 -49.23 24.07)"><path d="m163.6-54.66c-6.932 0.077-14.38 0.709-19.46 5.47-7.779 7.293-6.797 12.34-7.561 22.32-1.56 20.38-0.956 48.3 3.187 68.36 1.215 5.885 6.766 10.03 12.65 11.16 4.519 0.87 9.192 1.529 13.87 1.688 4.68-0.159 9.353-0.818 13.87-1.688 5.888-1.133 11.44-5.274 12.65-11.16 4.143-20.06 4.747-47.98 3.187-68.36-0.764-9.981 0.218-15.03-7.561-22.32-5.079-4.761-12.53-5.393-19.46-5.47-0.906-1e-3 -1.805-1e-4 -2.687 0-0.882-1e-4 -1.781-1e-3 -2.687 0" fill="url(#a)"/><g transform="matrix(.8168 0 0 .8143 538 144.6)" fill="#a8a8a8"><ellipse cx="-462.6" cy="-130.5" rx="2.5" ry="2.5"/><ellipse cx="-458.1" cy="-123" rx="3" ry="3"/><ellipse cx="-460.6" cy="-138.5" rx="1.5" ry="1.5"/><path d="m-452.1-140-2.844 2.844 4.375 4.375-4.531 5.156 3 2.625 7-8-7-7"/></g></g></svg>
