<svg viewBox="0 0 48 48" xmlns="http://www.w3.org/2000/svg"><defs><linearGradient id="a" x2="0" y1="542.8" y2="507.8" gradientTransform="matrix(1.052 0 0 1.028 -21.29 -14.59)" gradientUnits="userSpaceOnUse"><stop stop-color="#566069" offset="0"/><stop stop-color="#636e79" offset="1"/></linearGradient></defs><rect transform="matrix(1.037 0 0 1.037 -399.6 -519.9)" x="385.5" y="507.2" width="46.3" height="34.94" rx="1.644" fill="url(#a)"/><path transform="matrix(.07671 0 0 .07671 13.96 13.96)" d="m261.9 205.8c0 1.989-0.79 3.896-2.196 5.304l-47.96 47.96c-1.465 1.464-3.385 2.196-5.304 2.196-1.92 0-3.839-0.732-5.304-2.196l-56.8-56.8-51.25 51.25c-1.838 1.837-4.493 2.592-7.02 1.996-2.528-0.596-4.569-2.458-5.393-4.923l-80.25-240.2c-0.901-2.696-0.2-5.67 1.81-7.681 2.01-2.01 4.981-2.713 7.681-1.81l240.2 80.25c2.465 0.823 4.327 2.864 4.923 5.393 0.597 2.529-0.159 5.187-1.996 7.02l-50.09 50.09 56.8 56.8c1.406 1.407 2.196 3.314 2.196 5.303" fill="#fff" fill-opacity=".847"/></svg>
