<svg viewBox="0 0 48 48" xmlns="http://www.w3.org/2000/svg"><defs><linearGradient id="a" x1="197.9" x2="183.3" y1="364.8" y2="12.95" gradientUnits="userSpaceOnUse"><stop stop-color="#197cf1" offset="0"/><stop stop-color="#20bcfa" offset="1"/></linearGradient></defs><g transform="matrix(1.043 0 0 1.043 -402.3 -522.6)"><ellipse cx="408.6" cy="524.9" rx="11.62" ry="17.19" fill="#fff" fill-rule="evenodd"/><g transform="matrix(.1278 0 0 .1278 385.6 500.8)" fill="url(#a)"><path d="m180 0c-66.28 0-120 53.72-120 120v120c0 66.28 53.72 120 120 120 66.27 0 120-53.72 120-120v-120c0-66.28-53.72-120-120-120m69.36 224.1c2.705 2.168 4.279 5.448 4.279 8.915s-1.574 6.746-4.279 8.915l-71.65 57.44c-2.067 1.657-4.597 2.511-7.148 2.511-1.68 0-3.369-0.371-4.942-1.125-3.961-1.901-6.481-5.906-6.481-10.3v-82.02l-34.18 27.63c-2.114 1.709-4.653 2.541-7.176 2.541-3.331 0-6.634-1.45-8.892-4.243-3.967-4.907-3.204-12.1 1.703-16.07l47.38-38.31-47.38-38.31c-4.907-3.967-5.67-11.16-1.703-16.07 3.967-4.908 11.16-5.669 16.07-1.703l34.18 27.63v-82.05c0-4.394 2.52-8.399 6.481-10.3 3.962-1.901 8.663-1.362 12.09 1.386l71.65 57.44c2.705 2.168 4.279 5.448 4.279 8.914s-1.574 6.746-4.279 8.915l-55.05 44.12 55.05 44.13z"/><path d="m182 93.32v67.28l41.96-33.64z"/><path d="m182 199.4v67.28l41.96-33.64z"/></g></g></svg>
