<svg version="1.1" viewBox="0 0 22 22" xmlns="http://www.w3.org/2000/svg"><path d="m18.92 9.62c-0.05575-0.07301-0.1279-0.1165-0.2188-0.1303l-1.906-0.2916c-0.1042-0.3333-0.2466-0.6736-0.4272-1.021 0.1249-0.1736 0.3124-0.4184 0.5623-0.7344 0.25-0.3161 0.4271-0.5469 0.5313-0.6927 0.05562-0.07646 0.08324-0.1562 0.08324-0.2396 0-0.09717-0.02416-0.1735-0.07288-0.2291-0.25-0.3543-0.8229-0.9445-1.719-1.771-0.08311-0.06943-0.1701-0.1041-0.2602-0.1041-0.1042 0-0.1876 0.0312-0.2501 0.09359l-1.479 1.115c-0.2849-0.1459-0.5974-0.2744-0.9376-0.3861l-0.2916-1.917c-0.0069-0.09027-0.04692-0.1649-0.1198-0.224-0.07301-0.05907-0.1579-0.08848-0.2553-0.08848h-2.313c-0.2014 0-0.3264 0.09717-0.375 0.2916-0.09027 0.3471-0.191 0.993-0.3021 1.937-0.3264 0.1043-0.6419 0.2363-0.948 0.396l-1.438-1.115c-0.09027-0.06943-0.1805-0.1041-0.2708-0.1041-0.1528 0-0.4809 0.2482-0.9844 0.7448-0.5035 0.4966-0.8454 0.8698-1.027 1.12-0.06252 0.09027-0.09372 0.1702-0.09372 0.2396 0 0.08336 0.03465 0.1667 0.1041 0.25 0.4653 0.5626 0.8368 1.042 1.115 1.438-0.1736 0.3194-0.309 0.6389-0.4062 0.9583l-1.937 0.2916c-0.07633 0.01394-0.1423 0.05907-0.1979 0.1355-0.05562 0.07633-0.08337 0.1562-0.08337 0.2395v2.313c0 0.0904 0.02775 0.1718 0.08337 0.2447 0.05562 0.07301 0.1279 0.1166 0.2188 0.1304l1.906 0.2813c0.09717 0.3402 0.2395 0.6839 0.4271 1.031-0.1249 0.1736-0.3125 0.4184-0.5625 0.7344-0.25 0.3161-0.4272 0.5469-0.5313 0.6927-0.05562 0.07659-0.08337 0.1562-0.08337 0.2396 0 0.09027 0.02429 0.1701 0.07288 0.2395 0.2708 0.3751 0.8437 0.9586 1.719 1.75 0.07646 0.07646 0.1633 0.1146 0.2605 0.1146 0.1042 0 0.191-0.0312 0.2605-0.09359l1.469-1.115c0.2849 0.1459 0.5974 0.2744 0.9376 0.3861l0.2916 1.917c7e-3 0.09027 0.04693 0.1649 0.1198 0.224 0.07288 0.0592 0.158 0.08848 0.2552 0.08848h2.313c0.2016 0 0.3266-0.09717 0.3753-0.2916 0.09014-0.3473 0.1908-0.993 0.3019-1.937 0.3264-0.1042 0.6431-0.2363 0.948-0.396l1.438 1.125c0.09717 0.06239 0.1876 0.09359 0.2708 0.09359 0.1527 0 0.4791-0.2464 0.979-0.7395 0.5002-0.493 0.8439-0.8682 1.031-1.125 0.06252-0.06943 0.09385-0.1492 0.09385-0.2395 0-0.09027-0.03465-0.1773-0.1042-0.2605-0.4999-0.6112-0.8715-1.09-1.115-1.438 0.1389-0.257 0.2744-0.5729 0.4063-0.948l1.927-0.2915c0.08324-0.01394 0.1529-0.0592 0.2084-0.1357 0.05549-0.07646 0.08311-0.1564 0.08311-0.2396v-2.313c1.3e-5 -0.09027-0.02749-0.1717-0.08324-0.2447m-6.031 3.266c-0.5208 0.5209-1.149 0.7814-1.886 0.7814s-1.365-0.2605-1.886-0.7814c-0.5208-0.5208-0.7812-1.149-0.7812-1.885s0.2603-1.365 0.7812-1.886c0.5209-0.5208 1.149-0.7812 1.886-0.7812 0.7362 0 1.365 0.2605 1.886 0.7812 0.5208 0.5209 0.7812 1.149 0.7812 1.886s-0.2605 1.365-0.7812 1.885" fill="#fff"/></svg>
