<svg viewBox="0 0 22 22" xmlns="http://www.w3.org/2000/svg"><g transform="translate(0 -1030)" fill="#fff"><g transform="matrix(.07909 0 0 .07909 7.424 1039)"><path d="m47 94.07c7.17 0 13.31-2.553 18.41-7.657s7.658-11.24 7.658-18.41v-41.71c0-7.17-2.551-13.31-7.658-18.41-5.105-5.105-11.24-7.659-18.41-7.659s-13.31 2.554-18.41 7.659-7.659 11.24-7.659 18.41v41.71c0 7.17 2.554 13.31 7.659 18.41s11.24 7.657 18.41 7.657"/><path d="m92.38 53.9c-1.03-1.032-2.254-1.548-3.666-1.548s-2.634 0.516-3.666 1.548-1.548 2.254-1.548 3.666v10.43c0 10.05-3.572 18.64-10.71 25.79-7.141 7.143-15.74 10.71-25.79 10.71-10.05 0-18.64-3.571-25.79-10.71-7.142-7.141-10.71-15.74-10.71-25.79v-10.43c0-1.412-0.516-2.634-1.548-3.666s-2.253-1.548-3.666-1.548-2.635 0.516-3.667 1.548-1.548 2.254-1.548 3.666v10.43c0 12 4.01 22.45 12.02 31.33 8.01 8.88 17.91 13.97 29.7 15.28v10.76h-20.86c-1.412 0-2.634 0.516-3.666 1.548s-1.548 2.254-1.548 3.666c0 1.411 0.516 2.635 1.548 3.666 1.032 1.032 2.254 1.549 3.666 1.549h52.14c1.412 0 2.636-0.517 3.666-1.549 1.033-1.031 1.55-2.255 1.55-3.666 0-1.412-0.517-2.634-1.55-3.666-1.03-1.032-2.254-1.548-3.666-1.548h-20.86v-10.76c11.78-1.303 21.68-6.395 29.7-15.28 8.01-8.88 12.02-19.32 12.02-31.33v-10.43c0-1.412-0.517-2.633-1.55-3.666"/></g><g transform="matrix(.07376 0 0 .07376 -15.52 1036)"><path d="m384.6 18.34c-6.943-4.751-14.57-7.206-22.88-7.365s-16.02 2-23.15 6.485c-7.12 4.482-12.36 10.5-15.7 18.04-0.284 0.7-0.434 1.404-0.447 2.109-0.027 1.412 0.466 2.644 1.478 3.697 1.012 1.051 2.224 1.59 3.636 1.617 2.119 0.041 3.741-0.988 4.868-3.086 1.633-3.01 2.867-5.05 3.702-6.121 3.01-3.963 6.749-7.03 11.22-9.197 4.469-2.169 9.202-3.206 14.2-3.11s9.686 1.312 14.07 3.651c4.384 2.338 8 5.545 10.86 9.619 0.794 1.101 1.949 3.188 3.466 6.258 1.046 2.139 2.628 3.229 4.746 3.269 1.412 0.027 2.644-0.466 3.695-1.477 1.053-1.013 1.592-2.251 1.62-3.718 0.012-0.652-0.112-1.334-0.368-2.044-3.06-7.663-8.06-13.87-15.01-18.62"/><path d="m327.53-.187c-10.585 6.697-18.459 15.728-23.62 27.09-.284.7-.434 1.404-.447 2.109-.027 1.412.467 2.644 1.478 3.695 1.012 1.053 2.225 1.592 3.637 1.619 1.955.037 3.578-.991 4.867-3.086.223-.377.52-.98.89-1.815.368-.835.665-1.441.889-1.817 1.404-2.472 2.833-4.672 4.282-6.601 5.069-6.584 11.332-11.681 18.79-15.287 7.457-3.606 15.34-5.329 23.649-5.17 8.31.159 16.12 2.182 23.434 6.07 7.314 3.888 13.379 9.22 18.19 15.994 1.374 1.984 2.716 4.237 4.03 6.76.209.385.482 1 .819 1.85.336.849.609 1.463.82 1.848 1.208 2.142 2.791 3.232 4.745 3.269 1.412.027 2.644-.466 3.695-1.479 1.052-1.011 1.592-2.224 1.619-3.636.014-.705-.109-1.414-.367-2.124-4.722-11.553-12.245-20.879-22.567-27.976-10.321-7.097-21.728-10.763-34.22-11-12.49-.239-24.03 2.988-34.61 9.686"/></g></g></svg>
