<svg viewBox="0 0 22 22" xmlns="http://www.w3.org/2000/svg"><path transform="matrix(.9999 0 0 .9999 0 .008)" d="m11.09 2.545c-.104 0-.21.031-.299.096-.847.617-3.423 2.304-6.578 2.6-.38.035-.671.349-.678.73-.038 2.489.363 10.94 7.365 12.82.124.033.255.033.379 0 7-1.879 7.402-10.331 7.365-12.82-.005-.381-.298-.696-.678-.73-3.156-.295-5.731-1.983-6.58-2.6-.089-.065-.192-.096-.297-.096m-.037 4.371c.41 0 .742.332.742.742v4.285c0 .41-.332.744-.742.744-.41 0-.742-.334-.742-.744v-4.285c0-.41.332-.742.742-.742m0 6.541c.431 0 .783.352.783.783 0 .431-.352.783-.783.783-.431 0-.783-.352-.783-.783 0-.432.352-.783.783-.783" fill="#ffcd36" stroke-width="9.512"/></svg>
