<svg viewBox="0 0 22 22" xmlns="http://www.w3.org/2000/svg"><path transform="matrix(.9999 0 0 .9999 0 .008)" d="m11.09 2.545c-.104 0-.21.031-.299.096-.847.617-3.423 2.304-6.578 2.6-.38.035-.671.349-.678.73-.038 2.489.363 10.94 7.365 12.82.124.033.255.033.379 0 7-1.879 7.402-10.331 7.365-12.82-.005-.381-.298-.696-.678-.73-3.156-.295-5.731-1.983-6.58-2.6-.089-.065-.192-.096-.297-.096m2.922 5.66c.129 0 .24.046.33.137l.658.658c.09.09.135.201.135.33 0 .129-.044.238-.135.328l-3.506 3.506-.658.66c-.09.09-.201.135-.33.135-.129 0-.24-.044-.33-.135l-.658-.66-1.752-1.752c-.09-.09-.137-.201-.137-.33 0-.129.046-.238.137-.328l.658-.66c.09-.09.199-.135.328-.135.129 0 .24.044.33.135l1.424 1.43 3.178-3.182c.09-.09.199-.137.328-.137" fill="#2ecc71" fill-opacity=".8" stroke-width="9.512"/></svg>
