<svg viewBox="0 0 64 64" xmlns="http://www.w3.org/2000/svg"><defs><linearGradient id="b" x1="763" x2="763.3" y1="222.4" y2="182.2" gradientUnits="userSpaceOnUse"><stop stop-color="#49b903" offset="0"/><stop stop-color="#8cff07" offset="1"/></linearGradient><linearGradient id="a" x1="762.4" x2="762.4" y1="224.2" y2="166.1" gradientUnits="userSpaceOnUse"><stop stop-color="#141414" offset="0"/><stop stop-color="#2d2d2f" offset="1"/></linearGradient></defs><g transform="matrix(.9286 0 0 .9286 -676 -148.2)"><path d="m782.5 220.6c0 0.793-0.765 1.436-1.558 1.436h-37.33c-0.793 0-1.314-0.643-1.314-1.436v-38.77h40.21v38.77" fill="url(#b)"/><path d="m782.52 181.88v-8.615c0-.793-.78-1.436-1.572-1.436h-9.915v-4.308c0-.793-.78-1.436-1.572-1.436h-14.359c-.793 0-1.299.643-1.299 1.436v4.308h-10.188c-.793 0-1.299.643-1.299 1.436v8.615h40.21" fill="url(#a)"/></g></svg>
