<svg viewBox="0 0 64 64" xmlns="http://www.w3.org/2000/svg"><defs><linearGradient id="a" x1="763.6" x2="763.4" y1="223.3" y2="167.3" gradientUnits="userSpaceOnUse"><stop stop-color="#dc3c30" offset="0"/><stop stop-color="#ff786d" offset="1"/></linearGradient></defs><g transform="matrix(.9286 0 0 .9286 -676.9 -149.4)"><path d="m756.2 167.3c-0.794 0-1.299 0.643-1.299 1.436v4.309h-10.19c-0.794 0-1.299 0.643-1.299 1.436v47.38c0 0.793 0.52 1.436 1.313 1.436h37.33c0.793 0 1.559-0.643 1.559-1.436v-47.38c0-0.793-0.78-1.436-1.572-1.436h-9.914v-4.309c0-0.793-0.78-1.436-1.572-1.436h-14.36" fill="url(#a)"/><path d="m766.6 183.1-12.47 15.17 8.413 4.552-2.179 10.62 12.47-15.17-8.413-4.552z" fill="#fff" fill-opacity=".907"/></g></svg>
