<svg viewBox="0 0 64 64" xmlns="http://www.w3.org/2000/svg"><defs><linearGradient id="b" x1="756.4" x2="755.8" y1="215.9" y2="166.7" gradientUnits="userSpaceOnUse"><stop stop-color="#141414" offset="0"/><stop stop-color="#2d2d2f" offset="1"/></linearGradient><linearGradient id="a" x1="756.4" x2="756.2" y1="227" y2="212.2" gradientUnits="userSpaceOnUse"><stop stop-color="#dc3c30" offset="0"/><stop stop-color="#ff786d" offset="1"/></linearGradient></defs><g transform="matrix(.9286 0 0 .9286 -670 -148.9)"><path d="m735.92 221.41c0 .793.521 1.436 1.314 1.436h37.33c.793 0 1.558-.643 1.558-1.436v-8.615h-40.21v8.615" fill="url(#a)"/><path d="m776.12 212.8v-38.769c0-.793-.78-1.436-1.572-1.436h-9.915v-4.308c0-.793-.78-1.436-1.572-1.436h-14.359c-.794 0-1.299.643-1.299 1.436v4.308h-10.188c-.794 0-1.299.643-1.299 1.436v38.769h40.21" fill="url(#b)"/><path d="m759.1 182.6-12.47 15.17 8.413 4.552-2.179 10.62 12.47-15.17-8.413-4.552z" fill="#eaeaea"/></g></svg>
