<svg viewBox="0 0 64 64" xmlns="http://www.w3.org/2000/svg"><defs><linearGradient id="b" x1="773.1" x2="773.3" y1="220.1" y2="179.9" gradientUnits="userSpaceOnUse"><stop stop-color="#49b903" offset="0"/><stop stop-color="#8cff07" offset="1"/></linearGradient><linearGradient id="a" x1="772.5" x2="772.4" y1="221.9" y2="163.8" gradientUnits="userSpaceOnUse"><stop stop-color="#141414" offset="0"/><stop stop-color="#2d2d2f" offset="1"/></linearGradient></defs><g transform="matrix(.9286 0 0 .9286 -685.3 -146.1)"><path d="m792.6 218.4c0 0.793-0.765 1.436-1.558 1.436h-37.33c-0.793 0-1.314-0.643-1.314-1.436v-38.77h40.21v38.77" fill="url(#b)"/><path d="m792.57 179.6v-8.615c0-.793-.78-1.436-1.572-1.436h-9.915v-4.308c0-.793-.78-1.436-1.572-1.436h-14.359c-.793 0-1.299.643-1.299 1.436v4.308h-10.188c-.793 0-1.299.643-1.299 1.436v8.615h40.21" fill="url(#a)"/><path d="m775.6 179.6-12.47 15.17 8.413 4.552-2.179 10.62 12.47-15.17-8.413-4.552z" fill="#fff" fill-opacity=".92"/></g></svg>
