<svg viewBox="0 0 64 64" xmlns="http://www.w3.org/2000/svg"><defs><linearGradient id="b" x1="760.9" x2="760.9" y1="212.7" y2="185.3" gradientUnits="userSpaceOnUse"><stop stop-color="#49b903" offset="0"/><stop stop-color="#8cff07" offset="1"/></linearGradient><linearGradient id="a" x1="761.2" x2="761.2" y1="212.7" y2="159.6" gradientUnits="userSpaceOnUse"><stop stop-color="#141414" offset="0"/><stop stop-color="#2d2d2f" offset="1"/></linearGradient></defs><g transform="matrix(.9286 0 0 .9286 -674.3 -141)"><path d="m740.49 212.88c0 .793.521 1.436 1.314 1.436h37.33c.793 0 1.558-.643 1.558-1.436v-28.678h-40.21v28.678" fill="url(#b)"/><path d="m780.69 184.21v-18.707c0-.793-.78-1.436-1.572-1.436h-9.915v-4.308c0-.793-.78-1.436-1.572-1.436h-14.359c-.793 0-1.299.643-1.299 1.436v4.308h-10.188c-.793 0-1.299.643-1.299 1.436v18.707h40.21" fill="url(#a)"/></g></svg>
