<svg viewBox="0 0 64 64" xmlns="http://www.w3.org/2000/svg"><defs><linearGradient id="b" x1="740.8" x2="740.1" y1="223.8" y2="193.4" gradientUnits="userSpaceOnUse"><stop stop-color="#49b903" offset="0"/><stop stop-color="#8cff07" offset="1"/></linearGradient><linearGradient id="a" x1="739.3" x2="739.7" y1="222.5" y2="168.7" gradientUnits="userSpaceOnUse"><stop stop-color="#141414" offset="0"/><stop stop-color="#2d2d2f" offset="1"/></linearGradient></defs><g transform="matrix(.9286 0 0 .9286 -654.8 -149.9)"><path d="m719.47 222.48c0 .793.521 1.436 1.314 1.436h37.33c.793 0 1.558-.643 1.558-1.436v-18.667h-40.21v18.667" fill="url(#b)"/><path d="m759.68 203.81v-28.718c0-.793-.78-1.436-1.572-1.436h-9.915v-4.308c0-.793-.78-1.436-1.572-1.436h-14.359c-.793 0-1.299.643-1.299 1.436v4.308h-10.188c-.793 0-1.299.643-1.299 1.436v28.718h40.21" fill="url(#a)"/><path d="m742.7 183.7-12.47 15.17 8.413 4.552-2.179 10.62 12.47-15.17-8.413-4.552z" fill="#fff" fill-opacity=".92"/></g></svg>
