<svg viewBox="0 0 64 64" xmlns="http://www.w3.org/2000/svg"><defs><linearGradient id="b" x1="757.5" x2="758" y1="216.6" y2="159.7" gradientUnits="userSpaceOnUse"><stop stop-color="#141414" offset="0"/><stop stop-color="#2d2d2f" offset="1"/></linearGradient><linearGradient id="a" x1="758.6" x2="758.4" y1="220" y2="205.2" gradientUnits="userSpaceOnUse"><stop stop-color="#dc3c30" offset="0"/><stop stop-color="#ff786d" offset="1"/></linearGradient></defs><g transform="matrix(.9286 0 0 .9286 -672 -142.4)"><path d="m738.05 214.41c0 .793.521 1.436 1.314 1.436h37.33c.793 0 1.558-.643 1.558-1.436v-8.615h-40.21v8.615" fill="url(#a)"/><path d="m778.26 205.79v-38.769c0-.793-.78-1.436-1.572-1.436h-9.915v-4.308c0-.793-.78-1.436-1.572-1.436h-14.359c-.794 0-1.299.643-1.299 1.436v4.308h-10.188c-.794 0-1.299.643-1.299 1.436v38.769h40.21" fill="url(#b)"/><path d="m757.9 174.4c-1.242 0-2.246 1.018-2.246 2.24v13.49c0 1.237 0.997 2.239 2.246 2.239 1.244 0 2.246-1.018 2.246-2.239v-13.49c0-1.237-0.995-2.24-2.246-2.24m0 22.46c-1.242 0-2.246 1-2.246 2.246 0 1.242 1 2.246 2.246 2.246 1.242 0 2.246-1 2.246-2.246 0-1.242-1-2.246-2.246-2.246" fill="#fff" fill-opacity=".902"/></g></svg>
