<svg viewBox="0 0 64 64" xmlns="http://www.w3.org/2000/svg"><defs><linearGradient id="a" x2="0" y1="222" y2="168" gradientUnits="userSpaceOnUse"><stop stop-color="#197ff1" offset="0"/><stop stop-color="#21c6fb" offset="1"/></linearGradient></defs><g transform="matrix(.9286 0 0 .9286 -691.9 -149.4)"><circle cx="779.6" cy="195.3" r="28" fill="url(#a)"/><g fill="#fff" fill-opacity=".855" fill-rule="evenodd"><path d="m779.6 179.2a3.59 3.59 0 0 1 3.59 3.59 3.59 3.59 0 0 1-3.59 3.59 3.59 3.59 0 0 1-3.59-3.59 3.59 3.59 0 0 1 3.59-3.59"/><path d="m779.2 189.9h0.764c1.278 0 2.314 1.028 2.314 2.307v16.92c0 1.278-1.035 2.307-2.314 2.307h-0.764c-1.278 0-2.307-1.028-2.307-2.307v-16.92c0-1.278 1.028-2.307 2.307-2.307"/></g></g></svg>
