<svg viewBox="0 0 64 64" xmlns="http://www.w3.org/2000/svg"><defs><linearGradient id="a" x2="0" y1="542.8" y2="507.8" gradientTransform="matrix(1.536 0 0 1.5 135.8 -597.4)" gradientUnits="userSpaceOnUse"><stop stop-color="#2a2c2f" offset="0"/><stop stop-color="#424649" offset="1"/></linearGradient></defs><g transform="matrix(.9286 0 0 .9286 -676.9 -144.4)"><rect x="729.7" y="164.4" width="67.6" height="51.01" rx="2.4" fill="url(#a)"/><path d="m773.41 187.65v-4.04c0-5.481-4.46-9.942-9.942-9.942-5.482 0-9.942 4.461-9.942 9.942v4.04c-.783.163-1.374.861-1.374 1.693v15.13c0 .953.776 1.729 1.729 1.729h19.17c.954 0 1.729-.776 1.729-1.729v-15.13c0-.832-.59-1.528-1.374-1.693m-7.619 12.902c.035.19-.091.34-.282.34h-4.04c-.19 0-.317-.15-.282-.34l.643-3.406c-.486-.443-.792-1.082-.792-1.792 0-1.34 1.086-2.427 2.426-2.427 1.34 0 2.426 1.086 2.426 2.427 0 .691-.289 1.313-.753 1.755zm4.16-12.938h-12.966v-4c0-3.575 2.908-6.483 6.483-6.483 3.575 0 6.483 2.908 6.483 6.483z" fill="#fff" fill-opacity=".85"/></g></svg>
