<svg viewBox="0 0 48 48" xmlns="http://www.w3.org/2000/svg"><defs><linearGradient id="a" x1="11.82" x2="12.18" y1="-1049" y2="-1034" gradientUnits="userSpaceOnUse"><stop stop-color="#0a80fd" offset="0"/><stop stop-color="#56c5fa" offset="1"/></linearGradient></defs><circle transform="matrix(-2.625 0 0 -2.625 52.87 -2710)" cx="11" cy="-1041" r="8" fill="url(#a)" opacity=".98"/><path transform="matrix(2.35 0 0 2.351 117.2 .962)" d="m-39.693 3.799c-.808 0-1.577.16-2.314.477-1.465.628-2.538 1.694-3.168 3.162-.316.735-.469 1.504-.469 2.313 0 .808.153 1.585.469 2.32.63 1.468 1.703 2.539 3.168 3.168.738.316 1.506.477 2.314.477.808 0 1.582-.162 2.32-.477 1.478-.63 2.545-1.703 3.174-3.168.316-.738.477-1.512.477-2.32 0-.808-.16-1.575-.477-2.313-.629-1.465-1.696-2.532-3.174-3.162-.738-.315-1.512-.477-2.32-.477m-.369 2.186c.304 0 .553.249.553.553v3.785l2.146 1.678c.249.184.286.534.102.773-.101.138-.268.211-.434.211-.12 0-.239-.045-.34-.119l-2.367-1.842c-.129-.101-.213-.259-.213-.434v-4.053c0-.304.249-.553.553-.553" fill="#fff" fill-opacity=".85" opacity=".99"/></svg>
