<svg viewBox="0 0 64 64" xmlns="http://www.w3.org/2000/svg"><defs><linearGradient id="a" x2="0" y1="222" y2="168" gradientUnits="userSpaceOnUse"><stop stop-color="#197ff1" offset="0"/><stop stop-color="#21c6fb" offset="1"/></linearGradient></defs><circle transform="matrix(.9286 0 0 .9286 -691.9 -149.4)" cx="779.6" cy="195.3" r="28" fill="url(#a)"/><path transform="matrix(3.25 0 0 3.25 -3.155 -3352)" d="m14 1037.36l2 1.5-2 1.5v-1h-1.76c.0001.001-.836 1.046-1.611 2.01l1.611 1.986h1.76v-1l2 1.5-2 1.5v-1h-2.238c0 0-.893-1.119-1.762-2.201-.869 1.082-1.762 2.201-1.762 2.201h-2.238v-1h1.76l1.611-1.986c-.776-.968-1.612-2-1.611-2.01h-1.76v-1h2.186l1.814 2.238 1.814-2.238h2.186v-1" fill="#def4fe"/></svg>
