<svg viewBox="0 0 64 64" xmlns="http://www.w3.org/2000/svg"><defs><linearGradient id="b" x2="0" y1="542.8" y2="507.8" gradientTransform="matrix(1.273 0 0 1.647 243.5 -674.4)" gradientUnits="userSpaceOnUse"><stop stop-color="#197ff1" offset="0"/><stop stop-color="#21c6fb" offset="1"/></linearGradient><linearGradient id="a" x1="11.82" x2="12.18" y1="-1049" y2="-1034" gradientUnits="userSpaceOnUse"><stop stop-color="#2a2c2f" offset="0"/><stop stop-color="#424649" offset="1"/></linearGradient></defs><g transform="matrix(.9286 0 0 .9286 -676.9 -144.4)"><rect x="735.5" y="161.9" width="56" height="56" rx="2.635" fill="url(#b)"/><path transform="matrix(1.361 0 0 1.361 745.9 173.8)" d="m16.428 15.744c-.159-.052-1.164-.505-.536-2.414h-.009c1.637-1.686 2.888-4.399 2.888-7.07 0-4.107-2.731-6.26-5.905-6.26-3.176 0-5.892 2.152-5.892 6.26 0 2.682 1.244 5.406 2.891 7.088.642 1.684-.506 2.309-.746 2.396-2.238.724-8.325 4.332-8.229 9.586h24.05c.107-5.02-4.708-8.279-8.513-9.586" fill="#fff" fill-opacity=".85"/><g transform="matrix(-1.535 0 0 1.497 760.2 -1348)"><circle transform="scale(1-1)" cx="11" cy="-1041" r="8" fill="url(#a)" opacity=".98"/><path transform="matrix(.7834 0 0 .7834 4.881 226.1)" d="m3.555 1046.8c-.206-.387-.221-1.621-.03-2.548.412-2.01 1.307-3.861 2.618-5.423l.519-.619-2.391-2.531h7.259c.004.151 0 7.285 0 7.285l-2.552-2.344c-.441.169-2.848 2.458-3.504 3.33-.447.595-.973 1.588-1.247 2.355-.293.82-.443.929-.674.494z" fill="#fff" fill-opacity=".947" stroke="#f6f6f6" stroke-linecap="round" stroke-linejoin="round" stroke-width=".118"/></g></g></svg>
