<svg viewBox="0 0 64 64" xmlns="http://www.w3.org/2000/svg"><defs><linearGradient id="b" x2="0" y1="542.8" y2="507.8" gradientTransform="matrix(1.273 0 0 1.647 243.5 -674.4)" gradientUnits="userSpaceOnUse"><stop stop-color="#197ff1" offset="0"/><stop stop-color="#21c6fb" offset="1"/></linearGradient><linearGradient id="a" x2="0" y1="222" y2="168" gradientUnits="userSpaceOnUse"><stop stop-color="#2a2c2f" offset="0"/><stop stop-color="#424649" offset="1"/></linearGradient></defs><g transform="matrix(.9286 0 0 .9286 -676.9 -144.4)"><rect x="735.5" y="161.9" width="56" height="56" rx="2.635" fill="url(#b)"/><path transform="matrix(1.361 0 0 1.361 745.9 173.8)" d="m16.428 15.744c-.159-.052-1.164-.505-.536-2.414h-.009c1.637-1.686 2.888-4.399 2.888-7.07 0-4.107-2.731-6.26-5.905-6.26-3.176 0-5.892 2.152-5.892 6.26 0 2.682 1.244 5.406 2.891 7.088.642 1.684-.506 2.309-.746 2.396-2.238.724-8.325 4.332-8.229 9.586h24.05c.107-5.02-4.708-8.279-8.513-9.586" fill="#fff" fill-opacity=".85"/><g transform="matrix(.4374 0 0 .4374 402.2 125.3)"><circle cx="779.6" cy="195.3" r="28" fill="url(#a)"/><g fill="#fff" fill-opacity=".855" fill-rule="evenodd"><path d="m779.6 179.2a3.59 3.59 0 0 1 3.59 3.59 3.59 3.59 0 0 1-3.59 3.59 3.59 3.59 0 0 1-3.59-3.59 3.59 3.59 0 0 1 3.59-3.59"/><path d="m779.2 189.9h0.764c1.278 0 2.314 1.028 2.314 2.307v16.92c0 1.278-1.035 2.307-2.314 2.307h-0.764c-1.278 0-2.307-1.028-2.307-2.307v-16.92c0-1.278 1.028-2.307 2.307-2.307"/></g></g></g></svg>
