<svg viewBox="0 0 64 64" xmlns="http://www.w3.org/2000/svg" xmlns:xlink="http://www.w3.org/1999/xlink"><defs><linearGradient id="c" x2="0" y1="211.2" y2="157.2" gradientUnits="userSpaceOnUse"><stop stop-color="#c52828" offset="0"/><stop stop-color="#ff5454" offset="1"/></linearGradient><linearGradient id="a"><stop stop-color="#0a80fd" offset="0"/><stop stop-color="#56c5fa" offset="1"/></linearGradient><linearGradient id="d" x1="82.46" x2="82.74" y1="30.49" y2="24.59" gradientUnits="userSpaceOnUse"><stop stop-color="#060606" offset="0"/><stop stop-color="#343434" offset="1"/></linearGradient><linearGradient id="e" x2="0" y1="45.95" y2="25.99" gradientUnits="userSpaceOnUse" xlink:href="#a"/><linearGradient id="f" x1="98.65" x2="98.44" y1="19.36" y2="16.25" gradientUnits="userSpaceOnUse" xlink:href="#a"/><linearGradient id="g" x1="-847.1" x2="-843.9" y1="191.1" y2="-181.9" gradientTransform="matrix(.07412 0 0 .06784 145.5 26.06)" gradientUnits="userSpaceOnUse" xlink:href="#b"/><linearGradient id="i" x1="81.26" x2="81.41" y1="14.55" y2="2.154" gradientUnits="userSpaceOnUse" xlink:href="#b"/><linearGradient id="h" x1="81.4" x2="81.51" y1="11.64" y2=".651" gradientUnits="userSpaceOnUse"><stop stop-color="#cdced2" offset="0"/><stop stop-color="#f1f1f1" offset="1"/></linearGradient><linearGradient id="b"><stop stop-color="#1f1f1f" offset="0"/><stop stop-color="#444" offset="1"/></linearGradient></defs><g transform="matrix(.8155 0 0 .8155 -595.7 -123.4)"><g transform="matrix(1.167 0 0 1.167 669.7 157.8)" enable-background="new"><rect x="67.28" y="6.357" width="30.26" height="10.47" rx=".654" fill="url(#i)"/><rect x="70.27" y=".741" width="24.21" height="13.09" rx=".685" fill="url(#h)"/><rect x="58.37" y="12.9" width="48" height="26.5" rx="1.559" fill="url(#g)"/><path d="m96.4 16.42a1.472 1.472 0 0 0-1.472 1.472 1.472 1.472 0 0 0 1.472 1.472 1.472 1.472 0 0 0 1.472-1.472 1.472 1.472 0 0 0-1.472-1.472m4.253 0a1.472 1.472 0 0 0-1.472 1.472 1.472 1.472 0 0 0 1.472 1.472 1.472 1.472 0 0 0 1.472-1.472 1.472 1.472 0 0 0-1.472-1.472" fill="url(#f)"/><rect x="70.51" y="27.46" width="23.72" height="18.65" rx=".965" fill="url(#e)"/><path d="m71.17 26.15h22.41c1.178 0 2.127 0.949 2.127 2.127v0.164 2.127h-26.67v-2.127-0.164c0-1.178 0.949-2.127 2.127-2.127" fill="url(#d)"/></g><g transform="matrix(.5769 0 0 .5769 341.8 96.74)"><circle transform="translate(0 5.385)" cx="768.9" cy="184.6" r="28" fill="url(#c)"/><path transform="matrix(1.375 0 0 1.375-332.45-54.06)" d="m804.89 177.76l4.264-4.264c.271-.271.406-.599.406-.986 0-.387-.135-.715-.406-.986l-1.972-1.973c-.271-.271-.599-.406-.986-.406-.387 0-.716.135-.986.406l-4.264 4.264-4.264-4.264c-.271-.271-.599-.406-.986-.406-.387 0-.715.135-.986.406l-1.973 1.973c-.271.271-.406.599-.406.986 0 .387.135.715.406.986l4.264 4.264-4.264 4.264c-.271.271-.406.599-.406.986 0 .387.135.715.406.986l1.973 1.972c.271.271.6.406.986.406.387 0 .715-.135.986-.406l4.264-4.264 4.264 4.264c.271.271.599.406.986.406.387 0 .715-.135.986-.406l1.972-1.972c.271-.271.406-.599.406-.986 0-.387-.135-.715-.406-.986l-4.264-4.264" fill="#fff" fill-opacity=".847"/></g></g></svg>
