<svg viewBox="0 0 64 64" xmlns="http://www.w3.org/2000/svg"><defs><linearGradient id="a" x2="0" y1="211.2" y2="157.2" gradientUnits="userSpaceOnUse"><stop stop-color="#c52828" offset="0"/><stop stop-color="#ff5454" offset="1"/></linearGradient></defs><circle transform="matrix(.9286 0 0 .9286 -681.9 -139.4)" cx="768.9" cy="184.6" r="28" fill="url(#a)"/><path transform="matrix(1.277 0 0 1.277 -990.6 -194.6)" d="m804.89 177.76l4.264-4.264c.271-.271.406-.599.406-.986 0-.387-.135-.715-.406-.986l-1.972-1.973c-.271-.271-.599-.406-.986-.406-.387 0-.716.135-.986.406l-4.264 4.264-4.264-4.264c-.271-.271-.599-.406-.986-.406-.387 0-.715.135-.986.406l-1.973 1.973c-.271.271-.406.599-.406.986 0 .387.135.715.406.986l4.264 4.264-4.264 4.264c-.271.271-.406.599-.406.986 0 .387.135.715.406.986l1.973 1.972c.271.271.6.406.986.406.387 0 .715-.135.986-.406l4.264-4.264 4.264 4.264c.271.271.599.406.986.406.387 0 .715-.135.986-.406l1.972-1.972c.271-.271.406-.599.406-.986 0-.387-.135-.715-.406-.986l-4.264-4.264" fill="#fff" fill-opacity=".847"/></svg>
