<svg viewBox="0 0 64 64" xmlns="http://www.w3.org/2000/svg" xmlns:xlink="http://www.w3.org/1999/xlink"><defs><linearGradient id="b" x1="-507.8" x2="-507.4" y1="-173.2" y2="-177.8" gradientUnits="userSpaceOnUse" xlink:href="#a"/><linearGradient id="e" x1="-528.2" x2="-527.6" y1="-164" y2="-170.7" gradientUnits="userSpaceOnUse" xlink:href="#a"/><linearGradient id="c" x1="-512.8" x2="-512.4" y1="-185.5" y2="-190.1" gradientUnits="userSpaceOnUse" xlink:href="#a"/><linearGradient id="d" x1="-538.7" x2="-538.3" y1="-169.5" y2="-174.1" gradientUnits="userSpaceOnUse" xlink:href="#a"/><linearGradient id="f" x1="-528" x2="-527.3" y1="-179.9" y2="-188.5" gradientUnits="userSpaceOnUse" xlink:href="#a"/><linearGradient id="j" x1="395.7" x2="395.5" y1="557.2" y2="541.5" gradientTransform="matrix(2.078 0 0 2.089 -503.1 -599.9)" gradientUnits="userSpaceOnUse"><stop stop-color="#b7d7e1" offset="0"/><stop stop-color="#fff" offset="1"/></linearGradient><linearGradient id="g" x2="0" y1="215.9" y2="209.5" gradientUnits="userSpaceOnUse" xlink:href="#a"/><linearGradient id="a"><stop stop-color="#add4e9" offset="0"/><stop stop-color="#f0fbfe" offset="1"/></linearGradient><linearGradient id="h" x2="0" y1="221.4" y2="214.9" gradientUnits="userSpaceOnUse" xlink:href="#a"/><linearGradient id="i" x2="0" y1="214.6" y2="208.2" gradientUnits="userSpaceOnUse" xlink:href="#a"/></defs><g transform="matrix(.9286 0 0 .9286 -681.9 -144.4)"><path transform="matrix(1.411 0 0 1.411 320.5 -576.5)" d="m311.11 530.14c-.874-.686-1.973-1.095-3.165-1.095-2.808 0-5.093 2.265-5.165 5.087-2.898 1.099-4.961 3.927-4.961 7.241 0 3.916 2.879 7.151 6.613 7.662v.07h26.451v-.013c3.688-.216 6.613-3.309 6.613-7.093 0-3.649-2.72-6.655-6.222-7.06.014-.222.022-.447.022-.673 0-5.655-4.719-10.239-10.539-10.239-4.308 0-8.01 2.512-9.647 6.11" fill="url(#j)"/><g transform="translate(47.608-4.184)"><circle transform="translate(5.385)" cx="729.1" cy="211.4" r="3.231" fill="url(#i)"/><circle transform="translate(5.385)" cx="717" cy="218.2" r="3.231" fill="url(#h)"/><circle transform="translate(5.385)" cx="702.6" cy="212.7" r="3.231" fill="url(#g)"/><g transform="matrix(.6615 0 0 .6615 1067 333.8)"><ellipse cx="-527.5" cy="-184.8" rx="4.377" ry="4.284" fill="url(#f)"/><ellipse cx="-527.8" cy="-167.8" rx="3.446" ry="3.372" fill="url(#e)"/><ellipse cx="-538.4" cy="-172.1" rx="2.328" ry="2.279" fill="url(#d)"/><ellipse cx="-512.6" cy="-188.1" rx="2.328" ry="2.279" fill="url(#c)"/><ellipse cx="-507.5" cy="-175.8" rx="2.328" ry="2.279" fill="url(#b)"/></g></g></g></svg>
