<svg viewBox="0 0 64 64" xmlns="http://www.w3.org/2000/svg" xmlns:xlink="http://www.w3.org/1999/xlink"><defs><linearGradient id="b" x1="-512.5" x2="-507.4" y1="-311.8" y2="-333" gradientUnits="userSpaceOnUse"><stop stop-color="#ff9300" offset="0"/><stop stop-color="#ffd702" offset="1"/></linearGradient><linearGradient id="e" x2="0" y1="583.2" y2="563.9" gradientTransform="matrix(.24869.02086-.02071.25039-610.69-323.28)" gradientUnits="userSpaceOnUse" xlink:href="#a"/><linearGradient id="c" x2="0" y1="583.2" y2="563.9" gradientTransform="matrix(.23788.07548-.07572.23956-547.43-348.62)" gradientUnits="userSpaceOnUse" xlink:href="#a"/><linearGradient id="d" x2="0" y1="583.2" y2="563.9" gradientTransform="matrix(.24144.06317-.06332.24313-553.91-335.79)" gradientUnits="userSpaceOnUse" xlink:href="#a"/><linearGradient id="f" x1="-534.6" x2="-532.8" y1="-184.5" y2="-191.2" gradientUnits="userSpaceOnUse" xlink:href="#a"/><linearGradient id="g" x1="-504.5" x2="-502.6" y1="-178.8" y2="-187.5" gradientUnits="userSpaceOnUse" xlink:href="#a"/><linearGradient id="i" x1="396.5" x2="394.7" y1="549.4" y2="538.8" gradientTransform="matrix(2.078 0 0 2.089 -503.1 -599.9)" gradientUnits="userSpaceOnUse" xlink:href="#a"/><linearGradient id="h" x1="-546.2" x2="-543.4" y1="-177.2" y2="-186.6" gradientUnits="userSpaceOnUse" xlink:href="#a"/><linearGradient id="a"><stop stop-color="#7a808a" offset="0"/><stop stop-color="#ced8e0" offset="1"/></linearGradient></defs><g transform="matrix(.7452 0 0 .7452 412.5 289.8)"><g transform="matrix(1.296 0 0 1.296 -1507 -589.7)"><path transform="matrix(1.411 0 0 1.411 320.5 -578.4)" d="m311.11 530.14c-.874-.686-1.973-1.095-3.165-1.095-2.808 0-5.093 2.265-5.165 5.087-2.898 1.099-4.961 3.927-4.961 7.241 0 3.916 2.879 7.151 6.613 7.662v.07h26.451v-.013c3.688-.216 6.613-3.309 6.613-7.093 0-3.649-2.72-6.655-6.222-7.06.014-.222.022-.447.022-.673 0-5.655-4.719-10.239-10.539-10.239-4.308 0-8.01 2.512-9.647 6.11" fill="url(#i)"/><g transform="matrix(.6615 0 0 .6615 1114 325.5)"><path d="m-542.64-188.14l-4.894 4.727c-1.03 1-1.525 2.509-1.161 4.01.547 2.25 2.815 3.63 5.064 3.083 2.25-.547 3.63-2.815 3.083-5.064l-1.608-6.612c-.053-.218-.323-.297-.485-.141" fill="url(#h)"/><path d="m-502-189.02l-4.143 4.675c-.872.989-1.217 2.405-.777 3.749.661 2.02 2.834 3.122 4.855 2.461 2.02-.661 3.122-2.834 2.461-4.855l-1.942-5.937c-.064-.196-.317-.249-.454-.094" fill="url(#g)"/><path d="m-532.2-192.4-3.401 3.438c-0.716 0.728-1.043 1.808-0.761 2.865 0.425 1.59 2.058 2.534 3.648 2.109s2.534-2.058 2.109-3.648l-1.249-4.672c-0.041-0.154-0.234-0.206-0.347-0.092" fill="url(#f)"/><path d="m-538.48-175.91l-1.902 2.776c-.4.587-.492 1.369-.17 2.06.483 1.04 1.712 1.488 2.744 1 1.033-.486 1.478-1.723.995-2.763l-1.419-3.055c-.047-.101-.185-.112-.248-.021" fill="url(#e)"/><path d="m-508-178.2-2.349 2.409c-0.495 0.51-0.719 1.264-0.521 2 0.298 1.107 1.431 1.759 2.532 1.457s1.752-1.444 1.454-2.551l-0.875-3.253c-0.029-0.107-0.163-0.142-0.24-0.063" fill="url(#d)"/><path d="m-509.7-188.91l-2.47 2.286c-.52.484-.783 1.226-.623 1.971.24 1.121 1.339 1.831 2.454 1.585 1.115-.245 1.823-1.353 1.583-2.473l-.707-3.294c-.023-.109-.155-.151-.237-.075" fill="url(#c)"/></g></g><path d="m-507.9-334.4-9.587 11.66 6.469 3.5-1.676 8.162 9.587-11.66-6.469-3.5z" fill="url(#b)"/></g></svg>
