<svg viewBox="0 0 64 64" xmlns="http://www.w3.org/2000/svg" xmlns:xlink="http://www.w3.org/1999/xlink"><defs><linearGradient id="c" x2="0" y1="8.935" y2="2.117" gradientUnits="userSpaceOnUse" xlink:href="#a"/><linearGradient id="b" x2="0" y1="15.75" y2="8.935" gradientUnits="userSpaceOnUse" xlink:href="#a"/><linearGradient id="d" x1="21.58" x2="18.17" y1="8.935" y2="5.526" gradientUnits="userSpaceOnUse" xlink:href="#a"/><linearGradient id="e" x1="151.8" x2="95.62" y1="320.2" y2="-16.68" gradientUnits="userSpaceOnUse"><stop stop-color="#92ccff" offset="0"/><stop stop-color="#e5f9fd" offset="1"/></linearGradient><linearGradient id="a"><stop stop-color="#ff9300" offset="0"/><stop stop-color="#ffd702" offset="1"/></linearGradient></defs><g transform="matrix(.9286 0 0 .9286 -676.9 -144.4)"><path transform="matrix(-.1918 0 0 .1918 791.5 161.9)" d="m153.7 292.1c-84.75 0-153.7-68.95-153.7-153.7 0-58.7 32.68-111.4 85.28-137.6 2.369-1.174 5.215-0.718 7.08 1.144 1.864 1.864 2.345 4.711 1.183 7.07-9.599 19.5-14.46 40.47-14.46 62.3 0 77.97 63.43 141.4 141.4 141.4 22.08 0 43.25-4.978 62.94-14.78 2.366-1.177 5.213-0.721 7.07 1.141 1.873 1.867 2.342 4.714 1.177 7.07-26.06 53.02-78.93 85.96-138 85.96" fill="url(#e)"/><g transform="matrix(-1.579 0 0 1.579 774.9 166.1)"><path d="m11.691 4.226l-1.214-3.238-1.214 3.238-2.286.762 2.286.762 1.214 3.238 1.213-3.238 2.287-.762z" fill="url(#c)"/><path d="m13.263 13.75l1.214 3.238 1.214-3.238 2.286-.762-2.286-.762-1.214-3.238-1.214 3.238-2.286.762z" fill="url(#b)"/><path d="m16.977 6.988l1.633.571.867 2.429.867-2.429 1.633-.571-1.633-.571-.867-2.429-.867 2.429z" fill="url(#d)"/></g></g></svg>
