<svg viewBox="0 0 64 64" xmlns="http://www.w3.org/2000/svg" xmlns:xlink="http://www.w3.org/1999/xlink"><defs><linearGradient id="c" x1="-460.9" x2="-459.3" y1="-321.3" y2="-328" gradientUnits="userSpaceOnUse" xlink:href="#a"/><linearGradient id="e" x1="-478.3" x2="-476.4" y1="-320" y2="-326.7" gradientUnits="userSpaceOnUse" xlink:href="#a"/><linearGradient id="d" x1="-469.9" x2="-468.5" y1="-312.3" y2="-319.1" gradientUnits="userSpaceOnUse" xlink:href="#a"/><linearGradient id="a"><stop stop-color="#add4e9" offset="0"/><stop stop-color="#f0fbfe" offset="1"/></linearGradient><linearGradient id="f" x1="395.5" x2="395.2" y1="551.3" y2="535.6" gradientTransform="matrix(2.078 0 0 2.089 -503.1 -599.9)" gradientUnits="userSpaceOnUse"><stop stop-color="#b7d7e1" offset="0"/><stop stop-color="#fff" offset="1"/></linearGradient><linearGradient id="j" x1="151.8" x2="95.62" y1="320.2" y2="-16.68" gradientUnits="userSpaceOnUse"><stop stop-color="#92ccff" offset="0"/><stop stop-color="#e5f9fd" offset="1"/></linearGradient><linearGradient id="g" x1="21.58" x2="18.17" y1="8.935" y2="5.526" gradientUnits="userSpaceOnUse" xlink:href="#b"/><linearGradient id="i" x2="0" y1="8.935" y2="2.117" gradientUnits="userSpaceOnUse" xlink:href="#b"/><linearGradient id="h" x2="0" y1="15.75" y2="8.935" gradientUnits="userSpaceOnUse" xlink:href="#b"/><linearGradient id="b"><stop stop-color="#ff9300" offset="0"/><stop stop-color="#ffd702" offset="1"/></linearGradient></defs><g transform="matrix(.5678 0 0 .5678 519.9 184.2)"><g transform="matrix(.9286 0 0 .9286 -1579 -464.1)"><path transform="matrix(-.1918 0 0 .1918 791.5 161.9)" d="m153.7 292.1c-84.75 0-153.7-68.95-153.7-153.7 0-58.7 32.68-111.4 85.28-137.6 2.369-1.174 5.215-0.718 7.08 1.144 1.864 1.864 2.345 4.711 1.183 7.07-9.599 19.5-14.46 40.47-14.46 62.3 0 77.97 63.43 141.4 141.4 141.4 22.08 0 43.25-4.978 62.94-14.78 2.366-1.177 5.213-0.721 7.07 1.141 1.873 1.867 2.342 4.714 1.177 7.07-26.06 53.02-78.93 85.96-138 85.96" fill="url(#j)"/><g transform="matrix(-1.579 0 0 1.579 774.9 166.1)"><path d="m6.977 4.988l2.286.762 1.214 3.238 1.213-3.238 2.287-.762-2.286-.762-1.214-3.238-1.214 3.238z" fill="url(#i)"/><path d="m17.977 12.988l-2.286-.762-1.214-3.238-1.214 3.238-2.286.762 2.286.762 1.214 3.238 1.214-3.238z" fill="url(#h)"/><path d="m20.344 7.559l1.633-.571-1.633-.571-.867-2.429-.867 2.429-1.633.571 1.633.571.867 2.429z" fill="url(#g)"/></g></g><g transform="matrix(1.524 0 0 1.524 -144.8 252.8)"><path transform="matrix(1.083 0 0 1.083 -810.1 -925.7)" d="m311.11 530.14c-.874-.686-1.973-1.095-3.165-1.095-2.808 0-5.093 2.265-5.165 5.087-2.898 1.099-4.961 3.927-4.961 7.241 0 3.916 2.879 7.151 6.613 7.662v.07h26.451v-.013c3.688-.216 6.613-3.309 6.613-7.093 0-3.649-2.72-6.655-6.222-7.06.014-.222.022-.447.022-.673 0-5.655-4.719-10.239-10.539-10.239-4.308 0-8.01 2.512-9.647 6.11" fill="url(#f)"/><path d="m-475.8-327.8-3.478 3.36c-0.732 0.711-1.084 1.784-0.825 2.847 0.389 1.599 2 2.58 3.599 2.191s2.58-2 2.191-3.599l-1.143-4.699c-0.038-0.155-0.23-0.211-0.345-0.1" fill="url(#e)"/><path d="m-468-320.22l-3.213 3.614c-.676.765-.945 1.861-.607 2.902.509 1.565 2.191 2.421 3.755 1.912 1.565-.509 2.421-2.19 1.912-3.755l-1.496-4.599c-.049-.152-.245-.193-.351-.073" fill="url(#d)"/><path d="m-458.73-329.16l-3.345 3.493c-.704.739-1.014 1.824-.714 2.877.451 1.583 2.099 2.5 3.682 2.05 1.583-.451 2.5-2.099 2.05-3.682l-1.325-4.651c-.044-.154-.238-.202-.348-.086" fill="url(#c)"/></g></g></svg>
