<svg viewBox="0 0 64 64" xmlns="http://www.w3.org/2000/svg" xmlns:xlink="http://www.w3.org/1999/xlink"><defs><linearGradient id="b" x2="0" y1="583.2" y2="563.9" gradientTransform="matrix(.24869.02086-.02071.25039-584.84-336.51)" gradientUnits="userSpaceOnUse" xlink:href="#a"/><linearGradient id="e" x1="-528" x2="-527.4" y1="-181" y2="-187.9" gradientUnits="userSpaceOnUse" xlink:href="#a"/><linearGradient id="c" x2="0" y1="583.2" y2="563.9" gradientTransform="matrix(.24869.02086-.02071.25039-579.55-326.54)" gradientUnits="userSpaceOnUse" xlink:href="#a"/><linearGradient id="d" x2="0" y1="583.2" y2="563.9" gradientTransform="matrix(.24869.02086-.02071.25039-610.69-323.28)" gradientUnits="userSpaceOnUse" xlink:href="#a"/><linearGradient id="f" x1="-528.8" x2="-528.3" y1="-164.7" y2="-171.6" gradientUnits="userSpaceOnUse" xlink:href="#a"/><linearGradient id="j" x1="396.5" x2="394.7" y1="549.4" y2="538.8" gradientTransform="matrix(2.078 0 0 2.089 -503.1 -599.9)" gradientUnits="userSpaceOnUse" xlink:href="#a"/><linearGradient id="g" x1="-503.4" x2="-503" y1="-182.2" y2="-189.2" gradientUnits="userSpaceOnUse" xlink:href="#a"/><linearGradient id="a"><stop stop-color="#7a808a" offset="0"/><stop stop-color="#ced8e0" offset="1"/></linearGradient><linearGradient id="h" x1="-521.3" x2="-520.7" y1="-170.6" y2="-177.5" gradientUnits="userSpaceOnUse" xlink:href="#a"/><linearGradient id="i" x1="-543.1" x2="-541.2" y1="-180.8" y2="-187.5" gradientUnits="userSpaceOnUse" xlink:href="#a"/></defs><g transform="matrix(.9286 0 0 .9286 -681.9 -144.4)"><path transform="matrix(1.411 0 0 1.411 320.5 -578.4)" d="m311.11 530.14c-.874-.686-1.973-1.095-3.165-1.095-2.808 0-5.093 2.265-5.165 5.087-2.898 1.099-4.961 3.927-4.961 7.241 0 3.916 2.879 7.151 6.613 7.662v.07h26.451v-.013c3.688-.216 6.613-3.309 6.613-7.093 0-3.649-2.72-6.655-6.222-7.06.014-.222.022-.447.022-.673 0-5.655-4.719-10.239-10.539-10.239-4.308 0-8.01 2.512-9.647 6.11" fill="url(#j)"/><g transform="matrix(.6615 0 0 .6615 1114 325.5)"><path d="m-540.6-188.6-3.478 3.36c-0.732 0.711-1.084 1.784-0.825 2.847 0.389 1.599 2 2.58 3.599 2.191s2.58-2 2.191-3.599l-1.143-4.699c-0.038-0.155-0.23-0.211-0.345-0.1" fill="url(#i)"/><path d="m-520.38-178.73l-2.745 3.981c-.577.842-.71 1.963-.246 2.954.697 1.491 2.471 2.134 3.962 1.436 1.491-.697 2.134-2.471 1.437-3.962l-2.049-4.38c-.068-.145-.267-.161-.358-.03" fill="url(#h)"/><path d="m-502.72-190.39l-2.619 4.065c-.551.86-.648 1.984-.153 2.96.744 1.468 2.536 2.055 4 1.312 1.468-.744 2.055-2.536 1.312-4l-2.185-4.314c-.072-.143-.272-.153-.358-.019" fill="url(#g)"/><path d="m-527.91-172.83l-2.745 3.981c-.577.842-.71 1.963-.246 2.954.697 1.491 2.471 2.134 3.962 1.436 1.491-.697 2.134-2.471 1.437-3.962l-2.049-4.38c-.068-.145-.267-.161-.358-.03" fill="url(#f)"/><path d="m-527.1-189.11l-2.745 3.981c-.577.842-.71 1.963-.246 2.954.697 1.491 2.471 2.134 3.962 1.436 1.491-.697 2.134-2.471 1.437-3.962l-2.049-4.38c-.068-.145-.267-.161-.358-.03" fill="url(#e)"/><path d="m-538.48-175.91l-1.902 2.776c-.4.587-.492 1.369-.17 2.06.483 1.04 1.712 1.488 2.744 1 1.033-.486 1.478-1.723.995-2.763l-1.419-3.055c-.047-.101-.185-.112-.248-.021" fill="url(#d)"/><path d="m-507.35-179.17l-1.902 2.776c-.4.587-.492 1.369-.17 2.06.483 1.04 1.712 1.488 2.744 1 1.033-.486 1.478-1.723.995-2.763l-1.419-3.055c-.047-.101-.185-.112-.248-.021" fill="url(#c)"/><path d="m-512.64-189.14l-1.902 2.776c-.4.587-.492 1.369-.17 2.06.483 1.04 1.712 1.488 2.744 1 1.033-.486 1.478-1.723.995-2.763l-1.419-3.055c-.047-.101-.185-.112-.248-.021" fill="url(#b)"/></g></g></svg>
