<svg version="1.1" viewBox="0 0 64 64" xmlns="http://www.w3.org/2000/svg"><defs><linearGradient id="b" x1="305.7" x2="304.7" y1="541.4" y2="511" gradientUnits="userSpaceOnUse"><stop stop-color="#ff9300" offset="0"/><stop stop-color="#ffd702" offset="1"/></linearGradient><linearGradient id="a" x1="151.8" x2="95.62" y1="320.2" y2="-16.68" gradientUnits="userSpaceOnUse"><stop stop-color="#92ccff" offset="0"/><stop stop-color="#e5f9fd" offset="1"/></linearGradient></defs><g transform="matrix(.812 0 0 .812 284.4 1.996)"><circle transform="matrix(1 0 0 1 -596.1 -505.2)" cx="305.4" cy="526.5" r="15.88" fill="url(#b)"/><path transform="matrix(-.1114 0 0 .1114 -314.5 4.912)" d="m153.7 292.1c-84.75 0-153.7-68.95-153.7-153.7 0-58.7 32.68-111.4 85.28-137.6 2.369-1.174 5.215-0.718 7.08 1.144 1.864 1.864 2.345 4.711 1.183 7.07-9.599 19.5-14.46 40.47-14.46 62.3 0 77.97 63.43 141.4 141.4 141.4 22.08 0 43.25-4.978 62.94-14.78 2.366-1.177 5.213-0.721 7.07 1.141 1.873 1.867 2.342 4.714 1.177 7.07-26.06 53.02-78.93 85.96-138 85.96" fill="url(#a)"/><g transform="matrix(.4141 0 0 .4141 -193.7 42.81)" fill="#daf3fd"><path d="m-349 57.97c0 3.08 2.24 4.83 4.76 4.83s4.41-1.75 4.41-4.83v-27.02l23.17 29.4c2.03 1.89 3.22 2.45 5.67 2.45 1.82-0.56 3.71-1.75 3.71-4.83v-39.41c0-2.31-2.45-4.83-4.97-4.83-2.38 0-4.41 2.52-4.41 4.83v27.16l-23.17-28.98c-1.89-1.82-2.45-2.45-4.97-2.45-3.64 0-4.2 2.45-4.2 4.97v38.71"/><path d="m-301 56.85c-2.66 4.62 4.55 9.1 7.35 4.2l23.94-40.53c2.87-5.04-4.41-9.31-7.35-4.2l-23.94 40.53"/><path d="m-257.72 60.42l3.01-6.16h25.83l3.08 6.16c2.52 5.46 10.99 1.12 8.12-4.34l-19.74-39.27c-1.75-3.85-6.79-3.71-8.68 0l-20.09 39.27c-1.4 2.94 0 5.46 2.24 6.72 2.52.49 5.11 0 6.23-2.38m7.35-15.4l8.61-17.29 7.91 17.29h-16.52"/></g></g></svg>
