<svg viewBox="0 0 64 64" xmlns="http://www.w3.org/2000/svg"><defs><linearGradient id="a" x2="0" y1="542.8" y2="507.8" gradientTransform="matrix(1.052 0 0 1.028 -72.68 -8.584)" gradientUnits="userSpaceOnUse"><stop stop-color="#c52828" offset="0"/><stop stop-color="#ff5454" offset="1"/></linearGradient></defs><g transform="matrix(.9286 0 0 .9286 -681.9 -144.4)"><g transform="matrix(1.48 0 0 1.48 240.3 -595.2)"><rect x="334.1" y="513.2" width="46.3" height="34.94" rx="1.644" fill="url(#a)"/><g transform="matrix(.9435 0 0 .9435 23.9 27.99)" fill="#fff" fill-opacity=".847"><circle cx="373.4" cy="518.7" r="2.25"/><circle cx="367.8" cy="518.8" r="2.25"/><circle cx="362.4" cy="518.8" r="2.25"/></g></g><path transform="matrix(1.375 0 0 1.375-332.45-52.12)" d="m804.89 177.76l4.264-4.264c.271-.271.406-.599.406-.986 0-.387-.135-.715-.406-.986l-1.972-1.973c-.271-.271-.599-.406-.986-.406-.387 0-.716.135-.986.406l-4.264 4.264-4.264-4.264c-.271-.271-.599-.406-.986-.406-.387 0-.715.135-.986.406l-1.973 1.973c-.271.271-.406.599-.406.986 0 .387.135.715.406.986l4.264 4.264-4.264 4.264c-.271.271-.406.599-.406.986 0 .387.135.715.406.986l1.973 1.972c.271.271.6.406.986.406.387 0 .715-.135.986-.406l4.264-4.264 4.264 4.264c.271.271.599.406.986.406.387 0 .715-.135.986-.406l1.972-1.972c.271-.271.406-.599.406-.986 0-.387-.135-.715-.406-.986l-4.264-4.264" fill="#fff" fill-opacity=".847"/></g></svg>
