<svg viewBox="0 0 64 64" xmlns="http://www.w3.org/2000/svg" xmlns:xlink="http://www.w3.org/1999/xlink"><defs><linearGradient id="c" x1="-9" x2="-9.164" y1="24" y2="11.27" gradientUnits="userSpaceOnUse" xlink:href="#b"/><linearGradient id="a" x1="-701.2" x2="-704" y1="647.8" y2="354.3" gradientUnits="userSpaceOnUse"><stop stop-color="#93cfff" offset="0"/><stop stop-color="#cde8fe" offset="1"/></linearGradient><linearGradient id="d" x1="59.12" x2="59.15" y1="-13.3" y2="-37.78" gradientTransform="matrix(4.175 0 0 4.168 -1066 447.7)" gradientUnits="userSpaceOnUse" xlink:href="#b"/><linearGradient id="b"><stop stop-color="#289bf7" offset="0"/><stop stop-color="#71b9f1" offset="1"/></linearGradient></defs><g transform="matrix(.1261 0 0 .1261 85.51 -10.1)"><g transform="matrix(15.86 0 0 15.86 -8407 -8249)"><path transform="matrix(.06307 0 0 .06307 545 511.4)" d="m-880.5 294.8c-4.626 0-8.349 3.718-8.349 8.335v161.4l461 1v-121.2c0-4.618-3.724-8.335-8.35-8.335h-265.5c-8.51 0.751-9.607-0.377-13.81-5.981-5.964-7.968-14.97-21.44-20.84-29.21-4.712-6.805-5.477-6.02-13.29-6.02z" fill="url(#d)"/><rect transform="matrix(.06307 0 0 .06307 545 511.4)" x="-890.3" y="356.8" width="463.8" height="295.1" rx="9.63" fill="url(#a)" stroke="url(#a)" stroke-width="2.378"/></g><path transform="matrix(15.86 0 0 15.86 -287.5 71.34)" d="m-12 12.564v.33.682 2.424h6.75v-2.424-.682-.33h-6.75m-1.01.744c-.197 0-.357.16-.357.357v2.264h.869v-2.621h-.512m8.324 0v2.621h.869v-2.264c0-.197-.16-.357-.357-.357h-.512m-9.885 3.26c-.197 0-.357.16-.357.357v5.553c0 .197.16.357.357.357h1.869v-2.119-.926h8.15v.926 2.119h1.869c.197 0 .357-.16.357-.357v-5.553c-.0001-.197-.162-.357-.359-.357h-11.887m10.357 1.068c.094 0 .184.029.258.076.131.084.217.231.217.398 0 .167-.085.316-.217.4-.074.049-.164.076-.258.076-.263 0-.475-.212-.475-.475 0-.263.212-.477.475-.477m-7.814 2.793v.357 3.42.357h6.803v-.357-3.42-.357h-6.803" fill="url(#c)"/></g></svg>
