<svg viewBox="0 0 64 64" xmlns="http://www.w3.org/2000/svg" xmlns:xlink="http://www.w3.org/1999/xlink"><defs><linearGradient id="c" x1="324.4" x2="326.1" y1="813.4" y2="642.5" gradientUnits="userSpaceOnUse" xlink:href="#b"/><linearGradient id="a" x1="-701.2" x2="-704" y1="647.8" y2="354.3" gradientUnits="userSpaceOnUse"><stop stop-color="#93cfff" offset="0"/><stop stop-color="#cde8fe" offset="1"/></linearGradient><linearGradient id="d" x1="59.12" x2="59.15" y1="-13.3" y2="-37.78" gradientTransform="matrix(4.175 0 0 4.168 -1066 447.7)" gradientUnits="userSpaceOnUse" xlink:href="#b"/><linearGradient id="b"><stop stop-color="#289bf7" offset="0"/><stop stop-color="#71b9f1" offset="1"/></linearGradient></defs><g transform="matrix(.1414 0 0 .1414 -13.5 -66.32)" stroke-width="1.102"><path transform="matrix(.8919 0 0 .8919 908.9 272.4)" d="m-880.5 294.8c-4.626 0-8.349 3.718-8.349 8.335v161.4l461 1v-121.2c0-4.618-3.724-8.335-8.35-8.335h-265.5c-8.51 0.751-9.607-0.377-13.81-5.981-5.964-7.968-14.97-21.44-20.84-29.21-4.712-6.805-5.477-6.02-13.29-6.02z" fill="url(#d)"/><rect transform="matrix(.8919 0 0 .8919 908.9 272.4)" x="-890.3" y="356.8" width="463.8" height="295.1" rx="9.63" fill="url(#a)" stroke="url(#a)" stroke-width="2.378"/><path d="m322.2 639.6q35.82 0 60.28 24.68 24.46 24.68 24.46 59.62 0 19.66-8.517 32.54-8.299 12.88-24.24 12.88-16.38 0-24.46-15.94-10.7 15.94-30.57 15.94-17.91 0-30.14-12.45-12.23-12.67-12.23-32.1 0-19.22 12.23-31.88t29.26-12.67q16.82 0 27.95 12.88h0.874v-9.827h15.72v57q0 5.678 3.057 10.26 3.276 4.586 9.827 4.586 15.51 0 15.51-31.23 0-28.83-20.09-48.7-20.09-19.87-48.92-19.87-28.83 0-48.92 19.87-20.09 19.87-20.09 48.7 0 28.83 20.09 48.7 20.09 19.87 48.92 19.87 15.51 0 27.74-6.115l6.115 14.85q-15.29 6.988-33.85 6.988-36.25 0-60.93-24.46-24.68-24.68-24.68-59.84 0-34.94 24.68-59.62 24.9-24.68 60.93-24.68m-20.31 105.5q7.862 7.644 18.78 7.644t18.56-7.644q7.862-7.644 7.862-20.31 0-12.67-7.862-20.31-7.644-7.644-18.56-7.644t-18.78 7.644q-7.644 7.644-7.644 20.31 0 12.67 7.644 20.31" fill="url(#c)"/></g></svg>
