<svg viewBox="0 0 64 64" xmlns="http://www.w3.org/2000/svg" xmlns:xlink="http://www.w3.org/1999/xlink"><defs><linearGradient id="a"><stop stop-color="#289bf7" offset="0"/><stop stop-color="#71b9f1" offset="1"/></linearGradient><linearGradient id="c" x1="-424.2" x2="-423" y1="453.1" y2="275.8" gradientUnits="userSpaceOnUse" xlink:href="#a"/><linearGradient id="d" x1="59.12" x2="59.15" y1="-13.3" y2="-37.78" gradientTransform="matrix(4.175 0 0 4.168 -1066 447.7)" gradientUnits="userSpaceOnUse" xlink:href="#a"/><linearGradient id="b" x1="-701.2" x2="-704" y1="647.8" y2="354.3" gradientUnits="userSpaceOnUse"><stop stop-color="#93cfff" offset="0"/><stop stop-color="#cde8fe" offset="1"/></linearGradient></defs><g transform="matrix(.1261 0 0 .1261 85.51 -10.1)"><path transform="translate(234.1 -140.3)" d="m-880.5 294.8c-4.626 0-8.349 3.718-8.349 8.335v161.4l461 1v-121.2c0-4.618-3.724-8.335-8.35-8.335h-265.5c-8.51 0.751-9.607-0.377-13.81-5.981-5.964-7.968-14.97-21.44-20.84-29.21-4.712-6.805-5.477-6.02-13.29-6.02z" fill="url(#d)"/><rect transform="translate(234.1 -140.3)" x="-890.3" y="356.8" width="463.8" height="295.1" rx="9.63" fill="url(#b)" stroke="url(#b)" stroke-width="2.378"/><path d="m-419.8 271.9c-21.2 0.687 56.48 107.9-3.349 101 49.89 13.82 61.32-50.57 51.13-82.07-10.09-31.2-15.34-11.73-45.41-18.66-0.899-0.207-1.689-0.301-2.369-0.278m-59.45 14.94c-32.79-0.044-15.9 10.97-31.78 37.43-15.17 25.27 119.8-19.99 94.04 36.56 28.56-43.17-29.15-73.94-62.26-73.98zm23.07 48.38c-26.24-0.063-52.64 29.75-60.03 52.37-10.18 31.18 5.513 18.51 25.77 41.8 19.35 22.24 18.03-120.2 63.84-78.15-9.07-11.39-19.31-15.99-29.58-16.02m112.8 5.063c-17.71 1.695-82.33 83.83-93.15 30.53 2.272 51.71 67.06 42.69 93.86 23.26 26.56-19.24 6.411-18.22 3.707-48.97-0.323-3.671-1.892-5.064-4.422-4.822zm-95.29 17.12c-48.48 18.14-19.87 76.97 6.885 96.46 26.5 19.31 19.31 0.469 47.72-11.6 27.13-11.53-108.7-54.27-54.6-84.86z" fill="url(#c)" fill-rule="evenodd"/></g></svg>
