<svg viewBox="0 0 64 64" xmlns="http://www.w3.org/2000/svg" xmlns:xlink="http://www.w3.org/1999/xlink"><defs><linearGradient id="c" x1="-19.92" x2="-20" y1="1049" y2="1026" gradientUnits="userSpaceOnUse" xlink:href="#b"/><linearGradient id="a" x1="-701.2" x2="-704" y1="647.8" y2="354.3" gradientUnits="userSpaceOnUse"><stop stop-color="#93cfff" offset="0"/><stop stop-color="#cde8fe" offset="1"/></linearGradient><linearGradient id="d" x1="59.12" x2="59.15" y1="-13.3" y2="-37.78" gradientTransform="matrix(4.175 0 0 4.168 -1066 447.7)" gradientUnits="userSpaceOnUse" xlink:href="#b"/><linearGradient id="b"><stop stop-color="#289bf7" offset="0"/><stop stop-color="#71b9f1" offset="1"/></linearGradient></defs><g transform="translate(51.95 -1001)"><path transform="matrix(.1261 0 0 .1261 63.09 973.7)" d="m-880.5 294.8c-4.626 0-8.349 3.718-8.349 8.335v161.4l461 1v-121.2c0-4.618-3.724-8.335-8.35-8.335h-265.5c-8.51 0.751-9.607-0.377-13.81-5.981-5.964-7.968-14.97-21.44-20.84-29.21-4.712-6.805-5.477-6.02-13.29-6.02z" fill="url(#d)"/><rect transform="matrix(.1261 0 0 .1261 63.09 973.7)" x="-890.3" y="356.8" width="463.8" height="295.1" rx="9.63" fill="url(#a)" stroke="url(#a)" stroke-width="2.378"/><path d="m-12.623 1035.66v-2.979c0-4.04-3.29-7.333-7.333-7.333-4.04 0-7.333 3.29-7.333 7.333v2.979c-.578.121-1.013.635-1.013 1.248v11.164c0 .703.572 1.275 1.276 1.275h14.14c.703 0 1.276-.572 1.276-1.275v-11.164c0-.613-.435-1.127-1.013-1.248m-5.62 9.517c.026.139-.067.251-.208.251h-2.977c-.14 0-.234-.113-.208-.251l.474-2.512c-.359-.327-.584-.799-.584-1.322 0-.988.801-1.789 1.789-1.789.988 0 1.789.801 1.789 1.789 0 .51-.213.969-.555 1.295zm3.069-9.544h-9.564v-2.952c0-2.637 2.145-4.782 4.782-4.782 2.637 0 4.782 2.145 4.782 4.782z" fill="url(#c)"/></g></svg>
