<svg viewBox="0 0 64 64" xmlns="http://www.w3.org/2000/svg" xmlns:xlink="http://www.w3.org/1999/xlink"><defs><linearGradient id="c" x1="-443.3" x2="-444.3" y1="455.2" y2="267.5" gradientUnits="userSpaceOnUse" xlink:href="#b"/><linearGradient id="a" x1="-701.2" x2="-704" y1="647.8" y2="354.3" gradientUnits="userSpaceOnUse"><stop stop-color="#93cfff" offset="0"/><stop stop-color="#cde8fe" offset="1"/></linearGradient><linearGradient id="d" x1="59.12" x2="59.15" y1="-13.3" y2="-37.78" gradientTransform="matrix(4.175 0 0 4.168 -1066 447.7)" gradientUnits="userSpaceOnUse" xlink:href="#b"/><linearGradient id="b"><stop stop-color="#289bf7" offset="0"/><stop stop-color="#71b9f1" offset="1"/></linearGradient></defs><g transform="matrix(.1261 0 0 .1261 85.51 -10.1)"><path transform="translate(234.1 -140.3)" d="m-880.5 294.8c-4.626 0-8.349 3.718-8.349 8.335v161.4l461 1v-121.2c0-4.618-3.724-8.335-8.35-8.335h-265.5c-8.51 0.751-9.607-0.377-13.81-5.981-5.964-7.968-14.97-21.44-20.84-29.21-4.712-6.805-5.477-6.02-13.29-6.02z" fill="url(#d)"/><rect transform="translate(234.1 -140.3)" x="-890.3" y="356.8" width="463.8" height="295.1" rx="9.63" fill="url(#a)" stroke="url(#a)" stroke-width="2.378"/><path d="m-425.9 287.6-70.92 90.74c-13.3 17.01-9.576 47.32 7.445 60.62 17.02 13.29 47.34 9.572 60.64-7.443l79.79-102.1c8.866-11.34 6.384-31.55-4.964-40.41-11.35-8.862-31.56-6.381-40.43 4.962l-62.06 79.4-8.866 11.34c-4.433 5.672-3.192 15.77 2.482 20.21 5.674 4.431 15.78 3.191 20.21-2.481l62.06-79.4 11.35 8.862-62.06 79.4c-8.866 11.34-29.08 13.82-40.43 4.962-11.35-8.862-13.83-29.07-4.964-40.41l70.93-90.74c13.3-17.01 43.62-20.74 60.64-7.443 17.02 13.29 20.74 43.6 7.446 60.62l-79.79 102.1c-17.73 22.69-58.16 27.65-80.85 9.924-22.7-17.72-27.66-58.13-9.927-80.82l70.92-90.74 11.35 8.862" fill="url(#c)"/></g></svg>
