<svg viewBox="0 0 64 64" xmlns="http://www.w3.org/2000/svg" xmlns:xlink="http://www.w3.org/1999/xlink"><defs><linearGradient id="c" x1="-686.7" x2="-672.8" y1="570.5" y2="-54.13" gradientUnits="userSpaceOnUse" xlink:href="#b"/><linearGradient id="a" x1="-701.2" x2="-704" y1="647.8" y2="354.3" gradientUnits="userSpaceOnUse"><stop stop-color="#93cfff" offset="0"/><stop stop-color="#cde8fe" offset="1"/></linearGradient><linearGradient id="d" x1="59.12" x2="59.15" y1="-13.3" y2="-37.78" gradientTransform="matrix(4.175 0 0 4.168 -1066 447.7)" gradientUnits="userSpaceOnUse" xlink:href="#b"/><linearGradient id="b"><stop stop-color="#289bf7" offset="0"/><stop stop-color="#71b9f1" offset="1"/></linearGradient></defs><g transform="matrix(.0376 0 0 .0376 57.58 26.44)" opacity=".98" stroke-width="26.22"><path transform="matrix(3.354 0 0 3.354 1529 -1442)" d="m-880.5 294.8c-4.626 0-8.349 3.718-8.349 8.335v161.4l461 1v-121.2c0-4.618-3.724-8.335-8.35-8.335h-265.5c-8.51 0.751-9.607-0.377-13.81-5.981-5.964-7.968-14.97-21.44-20.84-29.21-4.712-6.805-5.477-6.02-13.29-6.02z" fill="url(#d)"/><rect transform="matrix(3.354 0 0 3.354 1529 -1442)" x="-890.3" y="356.8" width="463.8" height="295.1" rx="9.63" fill="url(#a)" opacity="1" stroke="url(#a)" stroke-width="2.378"/><path d="m-680.3-60.94c-43.29 0-84.42 8.518-123.9 25.47-78.49 33.66-136 90.73-169.7 169.4-16.9 39.39-25.15 80.65-25.15 123.9 0 43.3 8.245 84.87 25.15 124.3 33.72 78.62 91.19 136 169.7 169.7 39.52 16.95 80.65 25.52 123.9 25.52s84.77-8.662 124.3-25.52c79.14-33.76 136.3-91.19 170-169.7 16.95-39.52 25.47-80.96 25.47-124.3 0-43.29-8.511-84.42-25.47-123.9-33.67-78.49-90.86-135.6-170-169.4-39.56-16.87-81.02-25.47-124.3-25.47m0 137.8c10.82 0 20.27 8.741 20.27 19.56v180.8l97.76 98.47c7.5 7.553 8.03 19.18 0 27.2-6.98 6.986-19.89 6.986-26.88 0l-104.4-104.4c-4.186-4.193-5.903-9.43-5.202-15.72 0-1.043-0.705-2.413-0.705-2.764v-183.7c0-10.82 9.06-19.56 19.18-19.56" fill="url(#c)"/></g></svg>
