<svg viewBox="0 0 64 64" xmlns="http://www.w3.org/2000/svg" xmlns:xlink="http://www.w3.org/1999/xlink"><defs><linearGradient id="c" x1="-406" x2="-418.3" y1="451.1" y2="273.8" gradientUnits="userSpaceOnUse" xlink:href="#b"/><linearGradient id="a" x1="-701.2" x2="-704" y1="647.8" y2="354.3" gradientUnits="userSpaceOnUse"><stop stop-color="#93cfff" offset="0"/><stop stop-color="#cde8fe" offset="1"/></linearGradient><linearGradient id="d" x1="59.12" x2="59.15" y1="-13.3" y2="-37.78" gradientTransform="matrix(4.175 0 0 4.168 -1066 447.7)" gradientUnits="userSpaceOnUse" xlink:href="#b"/><linearGradient id="b"><stop stop-color="#289bf7" offset="0"/><stop stop-color="#71b9f1" offset="1"/></linearGradient></defs><g transform="matrix(.1261 0 0 .1261 85.51 -10.1)"><path transform="translate(234.1 -140.3)" d="m-880.5 294.8c-4.626 0-8.349 3.718-8.349 8.335v161.4l461 1v-121.2c0-4.618-3.724-8.335-8.35-8.335h-265.5c-8.51 0.751-9.607-0.377-13.81-5.981-5.964-7.968-14.97-21.44-20.84-29.21-4.712-6.805-5.477-6.02-13.29-6.02z" fill="url(#d)"/><rect transform="translate(234.1 -140.3)" x="-890.3" y="356.8" width="463.8" height="295.1" rx="9.63" fill="url(#a)" stroke="url(#a)" stroke-width="2.378"/><path d="m-517.5 271.2c-5.337 0-9.672 4.339-9.672 9.672v170.9c0 5.337 4.339 9.672 9.672 9.672h183.5c5.337 0 9.655-4.339 9.655-9.672v-170.9c0-5.337-4.322-9.672-9.655-9.672h-183.5m91.45 29.1c16.94 0 31.52 11.48 31.52 33.4 0 14.26-6.677 28.75-15.42 37.75h0.05c-3.352 10.19 2.01 12.61 2.855 12.89 20.31 6.977 46.01 24.37 45.44 51.16h-128.4c-0.514-28.05 31.97-47.3 43.92-51.16 1.281-0.464 7.421-3.802 3.994-12.79-8.791-8.978-15.43-23.53-15.43-37.84 0-21.93 14.49-33.4 31.44-33.4" fill="url(#c)"/></g></svg>
