<svg viewBox="0 0 64 64" xmlns="http://www.w3.org/2000/svg" xmlns:xlink="http://www.w3.org/1999/xlink"><defs><linearGradient id="c" x1="-421.6" x2="-425.6" y1="442.7" y2="281" gradientUnits="userSpaceOnUse" xlink:href="#b"/><linearGradient id="a" x1="-701.2" x2="-704" y1="647.8" y2="354.3" gradientUnits="userSpaceOnUse"><stop stop-color="#93cfff" offset="0"/><stop stop-color="#cde8fe" offset="1"/></linearGradient><linearGradient id="d" x1="59.12" x2="59.15" y1="-13.3" y2="-37.78" gradientTransform="matrix(4.175 0 0 4.168 -1066 447.7)" gradientUnits="userSpaceOnUse" xlink:href="#b"/><linearGradient id="b"><stop stop-color="#289bf7" offset="0"/><stop stop-color="#71b9f1" offset="1"/></linearGradient></defs><g transform="matrix(.1261 0 0 .1261 85.51 -10.1)"><path transform="translate(234.1 -140.3)" d="m-880.5 294.8c-4.626 0-8.349 3.718-8.349 8.335v161.4l461 1v-121.2c0-4.618-3.724-8.335-8.35-8.335h-265.5c-8.51 0.751-9.607-0.377-13.81-5.981-5.964-7.968-14.97-21.44-20.84-29.21-4.712-6.805-5.477-6.02-13.29-6.02z" fill="url(#d)"/><rect transform="translate(234.1 -140.3)" x="-890.3" y="356.8" width="463.8" height="295.1" rx="9.63" fill="url(#a)" stroke="url(#a)" stroke-width="2.378"/><path d="m-336.5 316.7c-4.955-4.769-10.93-7.154-17.94-7.154h-22.2l-5.05-12.97c-1.255-3.116-3.55-5.803-6.888-8.06-3.336-2.258-6.755-3.388-10.26-3.388h-50.74c-3.502 0-6.921 1.13-10.26 3.388-3.336 2.259-5.632 4.946-6.887 8.06l-5.05 12.97h-22.2c-7 0-12.98 2.385-17.94 7.154-4.954 4.77-7.432 10.53-7.432 17.27v85.48c0 6.742 2.478 12.5 7.432 17.27 4.955 4.771 10.93 7.156 17.94 7.156h139.5c7 0 12.98-2.385 17.94-7.156 4.954-4.768 7.432-10.52 7.432-17.27v-85.48c1e-4 -6.742-2.476-12.5-7.43-17.27m-56.34 90.2c-8.687 8.364-19.14 12.55-31.36 12.55-12.22 0-22.68-4.181-31.36-12.55-8.688-8.363-13.03-18.43-13.03-30.19 0-11.77 4.345-21.83 13.03-30.19 8.687-8.364 19.14-12.55 31.36-12.55 12.22 0 22.68 4.183 31.36 12.55s13.03 18.43 13.03 30.19c0 11.77-4.345 21.83-13.03 30.19m-31.36-57.67c-7.862 0-14.58 2.687-20.17 8.06-5.583 5.375-8.374 11.84-8.374 19.41s2.791 14.04 8.374 19.41 12.3 8.06 20.17 8.06c7.861 0 14.58-2.687 20.17-8.06 5.583-5.375 8.374-11.84 8.374-19.41s-2.791-14.04-8.374-19.41c-5.583-5.375-12.31-8.06-20.17-8.06" fill="url(#c)"/></g></svg>
