<svg viewBox="0 0 64 64" xmlns="http://www.w3.org/2000/svg" xmlns:xlink="http://www.w3.org/1999/xlink"><defs><linearGradient id="c" x1="-701.2" x2="-704" y1="647.8" y2="354.3" gradientUnits="userSpaceOnUse"><stop stop-color="#93cfff" offset="0"/><stop stop-color="#cde8fe" offset="1"/></linearGradient><linearGradient id="b" x1="540.8" x2="542.1" y1="540.5" y2="493.9" gradientUnits="userSpaceOnUse" xlink:href="#a"/><linearGradient id="d" x1="59.12" x2="59.15" y1="-13.3" y2="-37.78" gradientTransform="matrix(4.175 0 0 4.168 -1066 447.7)" gradientUnits="userSpaceOnUse" xlink:href="#a"/><linearGradient id="a"><stop stop-color="#289bf7" offset="0"/><stop stop-color="#71b9f1" offset="1"/></linearGradient><linearGradient id="e" x1="407.3" x2="408.6" y1="547" y2="501.3" gradientUnits="userSpaceOnUse" xlink:href="#a"/><linearGradient id="f" x1="407.3" x2="432.5" y1="547" y2="523.5" gradientUnits="userSpaceOnUse" xlink:href="#a"/></defs><g transform="matrix(.5033 0 0 .5033 -240.8 -224.3)"><path transform="matrix(.2506 0 0 .2506 707.2 390.5)" d="m-880.5 294.8c-4.626 0-8.349 3.718-8.349 8.335v161.4l461 1v-121.2c0-4.618-3.724-8.335-8.35-8.335h-265.5c-8.51 0.751-9.607-0.377-13.81-5.981-5.964-7.968-14.97-21.44-20.84-29.21-4.712-6.805-5.477-6.02-13.29-6.02z" fill="url(#d)"/><rect transform="matrix(.2506 0 0 .2506 707.2 390.5)" x="-890.3" y="356.8" width="463.8" height="295.1" rx="9.63" fill="url(#c)" stroke="url(#c)" stroke-width="2.378"/><path d="m562.71 505.17c-2.124-3.65-5.01-6.539-8.644-8.669-3.64-2.13-7.613-3.195-11.923-3.195-4.309 0-8.284 1.065-11.923 3.195-3.639 2.13-6.521 5.02-8.645 8.669-2.124 3.649-3.186 7.635-3.186 11.956 0 5.19 1.51 9.858 4.531 14 3.02 4.146 6.923 7.01 11.706 8.606.557.104.969.031 1.237-.217.268-.248.402-.558.402-.93 0-.062-.005-.62-.015-1.675-.011-1.055-.015-1.975-.015-2.76l-.711.123c-.454.083-1.026.119-1.717.109-.691-.009-1.407-.082-2.149-.217-.743-.134-1.433-.444-2.072-.93-.639-.486-1.093-1.122-1.361-1.908l-.309-.714c-.206-.475-.531-1-.974-1.581-.443-.579-.892-.972-1.345-1.179l-.216-.155c-.144-.104-.278-.228-.402-.373-.124-.145-.216-.289-.278-.434-.062-.145-.011-.264.155-.357.165-.093.464-.139.897-.139l.618.093c.412.083.922.33 1.531.744.608.413 1.108.951 1.5 1.612.475.848 1.046 1.494 1.717 1.939.67.445 1.345.667 2.026.667.68 0 1.268-.052 1.763-.155.495-.103.959-.258 1.392-.465.186-1.386.691-2.45 1.515-3.195-1.175-.124-2.232-.311-3.17-.558-.938-.248-1.907-.651-2.907-1.21-1-.558-1.83-1.251-2.49-2.078-.66-.827-1.201-1.913-1.624-3.257-.423-1.344-.634-2.895-.634-4.652 0-2.502.815-4.632 2.444-6.389-.763-1.881-.691-3.99.216-6.327.598-.186 1.485-.046 2.66.419 1.175.465 2.036.864 2.583 1.194.547.33.985.61 1.315.837 1.918-.538 3.897-.806 5.938-.806 2.041 0 4.02.269 5.939.806l1.175-.744c.804-.496 1.753-.951 2.845-1.365 1.093-.413 1.928-.527 2.506-.341.928 2.337 1.01 4.446.247 6.327 1.629 1.758 2.444 3.887 2.444 6.389 0 1.758-.212 3.313-.634 4.667-.423 1.355-.969 2.44-1.639 3.257-.67.817-1.506 1.504-2.505 2.062-1 .558-1.969.962-2.907 1.21-.938.248-1.995.435-3.17.559 1.072.93 1.608 2.398 1.608 4.404v6.543c0 .372.129.682.387.93.258.248.665.321 1.222.217 4.784-1.592 8.686-4.461 11.706-8.607 3.02-4.145 4.531-8.813 4.531-14-.0001-4.32-1.064-8.305-3.187-11.955z" fill="url(#b)" stroke="url(#b)" stroke-width="1.018"/></g></svg>
