<svg viewBox="0 0 64 64" xmlns="http://www.w3.org/2000/svg" xmlns:xlink="http://www.w3.org/1999/xlink"><defs><linearGradient id="c" x2="0" y1="22.12" y2="-27.88" gradientUnits="userSpaceOnUse" xlink:href="#b"/><linearGradient id="a" x1="-701.2" x2="-704" y1="647.8" y2="354.3" gradientUnits="userSpaceOnUse"><stop stop-color="#93cfff" offset="0"/><stop stop-color="#cde8fe" offset="1"/></linearGradient><linearGradient id="b"><stop stop-color="#289bf7" offset="0"/><stop stop-color="#71b9f1" offset="1"/></linearGradient><linearGradient id="d" x1="59.12" x2="59.15" y1="-13.3" y2="-37.78" gradientTransform="matrix(4.175 0 0 4.168 -1066 447.7)" gradientUnits="userSpaceOnUse" xlink:href="#b"/></defs><g transform="matrix(.5416 0 0 .5417 -4.491 37.05)" enable-background="new"><path transform="matrix(.2329 0 0 .2329 220.7 -119.7)" d="m-880.5 294.8c-4.626 0-8.349 3.718-8.349 8.335v161.4l461 1v-121.2c0-4.618-3.724-8.335-8.35-8.335h-265.5c-8.51 0.751-9.607-0.377-13.81-5.981-5.964-7.968-14.97-21.44-20.84-29.21-4.712-6.805-5.477-6.02-13.29-6.02z" fill="url(#d)"/><rect transform="matrix(.2329 0 0 .2329 220.7 -119.7)" x="-890.3" y="356.8" width="463.8" height="295.1" rx="9.63" fill="url(#a)" stroke="url(#a)" stroke-width="2.378"/><path d="m90.47-4.01l-20.958-20.957c-1.206-1.207-3.164-1.207-4.372 0l-4.352 4.352 5.52 5.52c1.283-.433 2.754-.142 3.777.88 1.028 1.029 1.317 2.513.872 3.8l5.321 5.32c1.288-.444 2.772-.157 3.801.873 1.437 1.436 1.437 3.764 0 5.202-1.438 1.437-3.765 1.437-5.204 0-1.08-1.082-1.348-2.669-.8-4l-4.963-4.962v13.06c.35.173.681.404.972.695 1.437 1.436 1.437 3.764 0 5.203-1.437 1.436-3.766 1.436-5.201 0-1.437-1.439-1.437-3.766 0-5.203.355-.355.766-.623 1.205-.803v-13.179c-.439-.18-.849-.446-1.205-.803-1.088-1.088-1.35-2.685-.792-4.02l-5.442-5.443-14.371 14.37c-1.207 1.208-1.207 3.166 0 4.373l20.959 20.957c1.207 1.207 3.164 1.207 4.372 0l20.86-20.86c1.207-1.207 1.207-3.166 0-4.373" fill="url(#c)"/></g></svg>
