<svg viewBox="0 0 64 64" xmlns="http://www.w3.org/2000/svg"><defs><linearGradient id="b" x1="59.44" x2="59.15" y1="-23.3" y2="-37.78" gradientTransform="matrix(4.175 0 0 4.168 -1066 447.7)" gradientUnits="userSpaceOnUse"><stop stop-color="#ff584c" offset="0"/><stop stop-color="#ff695f" offset="1"/></linearGradient><linearGradient id="a" x1="-701.2" x2="-704" y1="647.8" y2="354.3" gradientUnits="userSpaceOnUse"><stop stop-color="#ff5a4e" offset="0"/><stop stop-color="#ff8077" offset="1"/></linearGradient></defs><path transform="matrix(.1261 0 0 .1261 115 -27.79)" d="m-880.5 294.8c-4.626 0-8.349 3.718-8.349 8.335v161.4l461 1v-121.2c0-4.618-3.724-8.335-8.35-8.335h-265.5c-8.51 0.751-9.607-0.377-13.81-5.981-5.964-7.968-14.97-21.44-20.84-29.21-4.712-6.805-5.477-6.02-13.29-6.02z" fill="url(#b)"/><rect transform="matrix(.1261 0 0 .1261 115 -27.79)" x="-890.3" y="356.8" width="463.8" height="295.1" rx="9.63" fill="url(#a)" stroke="url(#a)" stroke-width="2.378"/></svg>
