<svg viewBox="0 0 48 48" xmlns="http://www.w3.org/2000/svg"><defs><linearGradient id="a" x2="0" y1="546.9" y2="516.5" gradientUnits="userSpaceOnUse"><stop stop-color="#ff9300" offset="0"/><stop stop-color="#ffd702" offset="1"/></linearGradient></defs><circle transform="matrix(1.631 0 0 1.631 -629.4 -843.4)" cx="400.6" cy="531.8" r="14" fill="url(#a)" stroke="url(#a)" stroke-width="1.427"/><path transform="translate(0 .002)" d="m6.359 14.354l-1.229.459c.457 1.129.941 2.098 1.451 2.904.497.806 1.056 1.474 1.674 1.998.618.511 1.308.885 2.074 1.127.766.242 1.632.357 2.6.357.738 0 1.35-.031 1.844-.1 2.277.91 4.406 11.203 6.621 16.14l-.004.006h.006 4.963.426c2.216-4.934 4.347-15.235 6.625-16.14.494.069 1.104.1 1.842.1.967 0 1.836-.116 2.602-.357.766-.242 1.454-.616 2.072-1.127.618-.524 1.177-1.192 1.674-1.998.511-.806.996-1.776 1.453-2.904l-1.23-.459c-.39.712-.784 1.291-1.188 1.748-.39.443-.819.8-1.289 1.068-.457.255-.977.439-1.555.547-.564.094-1.212.141-1.951.141-.545 0-1.035-.027-1.465-.08-.002 0-.004 0-.006 0-.055-.004-.169-.023-.285-.041-.123-.019-.248-.038-.445-.074-3.623-.67-4.824 1.845-5.084 2.539-.041.109-.061.176-.061.176l-4.402 12.275-4.402-12.275c0 0-.022-.067-.063-.176-.26-.694-1.461-3.209-5.084-2.539-.198.037-.323.055-.445.074-.116.018-.229.037-.283.041-.002 0-.006 0-.008 0-.43.053-.92.08-1.465.08-.739 0-1.387-.047-1.951-.141-.578-.107-1.096-.292-1.553-.547-.47-.269-.901-.625-1.291-1.068-.403-.457-.798-1.036-1.188-1.748" fill-opacity=".628"/></svg>
