<svg viewBox="0 0 48 48" xmlns="http://www.w3.org/2000/svg"><defs><linearGradient id="a" x2="0" y1="545.1" y2="518.1" gradientUnits="userSpaceOnUse"><stop stop-color="#ff5a4e" offset="0"/><stop stop-color="#ff8077" offset="1"/></linearGradient></defs><g transform="translate(-384.57-499.8)"><circle transform="matrix(1.714 0 0 1.714 -278.1 -387.9)" cx="400.6" cy="531.8" r="14" fill="url(#a)"/><g transform="matrix(.184 0 0 .184 260.3 400.6)" fill="#fff" fill-opacity=".85"><path d="m878.6 605.1c8.07 8.06-14.3 43.51-18.08 47.29-3.78 3.774-13.38 0.302-21.45-7.764-8.07-8.06-11.54-17.67-7.761-21.45 3.781-3.783 39.22-26.14 47.29-18.08"/><path d="m765.5 613.6c-12.31-6.987-29.84-14.76-35.41-9.187-5.648 5.647 2.41 23.57 9.47 35.9 6.283-10.92 15.22-20.12 25.94-26.72"/><path d="m866.3 649.6c1.135 3.848 0.928 7.02-0.908 8.86-4.299 4.298-15.9-0.276-26.36-10.23-0.729-0.653-1.454-1.333-2.167-2.046-3.78-3.784-6.725-7.813-8.607-11.52-3.663-6.572-4.58-12.38-1.81-15.15 1.508-1.508 3.923-1.919 6.868-1.389 1.92-1.214 4.186-2.568 6.674-3.953-10.11-5.273-21.6-8.252-33.8-8.252-40.44 0-73.23 32.78-73.23 73.23 0 40.44 32.79 73.23 73.23 73.23 40.44 0 73.23-32.78 73.23-73.23 0-13.06-3.427-25.31-9.416-35.93-1.295 2.362-2.553 4.526-3.702 6.381"/></g></g></svg>
