<svg viewBox="0 0 48 48" xmlns="http://www.w3.org/2000/svg"><defs><linearGradient id="a" x2="0" y1="545.1" y2="518.1" gradientUnits="userSpaceOnUse"><stop stop-color="#ec396c" offset="0"/><stop stop-color="#ff709a" offset="1"/></linearGradient></defs><circle transform="matrix(1.714 0 0 1.714 -662.7 -887.6)" cx="400.6" cy="531.8" r="14" fill="url(#a)"/><path transform="matrix(.614 0 0 .614 -21.43 -21.93)" d="m76.13 102.4c-7.997-2.877-12.75-6.408-17.96-14.29-1.278-2.171-3.628-7.02-3.539-13.34-0.208-6.305 2.978-13.57 8.924-17.45 5.742-4.092 13.15-4.153 17.56-2.537 4.547 1.688 6.391 4.5 6.443 4.366-0.139 0.035 2.436 2.201 3.584 6.916 1.279 4.532-0.02 12.04-6.271 15.12-2.875 1.541-6.609 1.82-9.537 0.718-2.928-1.181-5.05-3.774-5.761-6.483-1.543-5.981 2.995-9.296 4.997-9.636 8.145-2.716 12.27 10.03 2.744 11.11 4.342 1.45 8.818-3.01 7.967-7.545-0.172-4.54-5.668-9.05-11.73-7.199-1.583 0.437-3.98 1.548-5.856 4.047-1.924 2.484-2.797 6.377-1.797 10.16 0.975 3.805 3.94 7.447 8.07 9.08 4.172 1.539 8.817 1.099 12.65-0.897 8.189-4.051 9.828-13.92 8.201-19.35-1.436-5.837-4.607-8.51-4.443-8.551-0.059 0.159-2.34-3.309-7.977-5.414-5.512-2.01-14.11-1.868-20.99 2.957-7.04 4.516-10.86 13.39-10.58 20.54-0.095 7.263 2.612 12.82 4.089 15.29 5.954 9.08 12.78 11.92 21.2 12.37" fill="#fff" fill-opacity=".85"/></svg>
