<svg viewBox="0 0 48 48" xmlns="http://www.w3.org/2000/svg"><defs><linearGradient id="a" x2="0" y1="545.1" y2="518.1" gradientUnits="userSpaceOnUse"><stop stop-color="#0a80fd" offset="0"/><stop stop-color="#56c5fa" offset="1"/></linearGradient></defs><circle transform="matrix(1.714 0 0 1.714 -662.7 -887.6)" cx="400.6" cy="531.8" r="14" fill="url(#a)"/><path transform="matrix(1.032 0 0 1.032 -671.4 -802.6)" d="m673.99 786.07c-1.202 2.947-1.927 4.875-3.265 7.734.82.87 1.828 1.883 3.463 3.03-1.758-.724-2.958-1.45-3.854-2.204-1.713 3.574-4.396 8.665-9.842 18.449 4.28-2.471 7.597-3.994 10.69-4.575-.133-.571-.208-1.189-.203-1.833l.004-.137c.068-2.742 1.494-4.851 3.184-4.707 1.69.143 3 2.483 2.935 5.225-.013.516-.071 1.012-.173 1.473 3.058.598 6.341 2.118 10.563 4.555-.833-1.533-1.576-2.914-2.285-4.23-1.118-.866-2.284-1.994-4.662-3.215 1.635.425 2.805.915 3.717 1.463-7.215-13.433-7.799-15.218-10.273-21.02" fill="#fff" fill-opacity=".85" fill-rule="evenodd"/></svg>
