<svg viewBox="0 0 64 64" xmlns="http://www.w3.org/2000/svg" xmlns:xlink="http://www.w3.org/1999/xlink"><defs><linearGradient id="b" x1="-701.2" x2="-704" y1="647.8" y2="354.3" gradientUnits="userSpaceOnUse"><stop stop-color="#93cfff" offset="0"/><stop stop-color="#cde8fe" offset="1"/></linearGradient><linearGradient id="c" x1="514.6" x2="505" y1="128.7" y2="-331" gradientUnits="userSpaceOnUse" xlink:href="#a"/><linearGradient id="d" x1="59.12" x2="59.15" y1="-13.3" y2="-37.78" gradientTransform="matrix(4.175 0 0 4.168 -1066 447.7)" gradientUnits="userSpaceOnUse" xlink:href="#a"/><linearGradient id="e" x1="462" x2="497.7" gradientUnits="userSpaceOnUse" xlink:href="#a"/><linearGradient id="a"><stop stop-color="#289bf7" offset="0"/><stop stop-color="#71b9f1" offset="1"/></linearGradient></defs><g transform="matrix(.04851 0 0 .04851 7.739 41.7)"><path transform="matrix(2.6 0 0 2.6 2212 -1432)" d="m-880.5 294.8c-4.626 0-8.349 3.718-8.349 8.335v161.4l461 1v-121.2c0-4.618-3.724-8.335-8.35-8.335h-265.5c-8.51 0.751-9.607-0.377-13.81-5.981-5.964-7.968-14.97-21.44-20.84-29.21-4.712-6.805-5.477-6.02-13.29-6.02z" fill="url(#d)"/><rect transform="matrix(2.6 0 0 2.6 2212 -1432)" x="-890.3" y="356.8" width="463.8" height="295.1" rx="9.63" fill="url(#b)" stroke="url(#b)" stroke-width="2.378"/><path d="m293.2-319.2-68.52 6.62v282.2l67.76-10.23v-120.4l91.23 133.5 71.45-22.71-93.44-128.4 94.16-121.1-72.9-16.69-90.51 121.1 0.762-124m-155.3 68.8c-0.775 0.08-1.623 0.298-2.207 0.883l-26.92 26.96c-1.131 1.135-1.272 2.879-0.441 4.253l31.45 51.95c-5.589 9.395-10.12 19.48-13.32 30.17l-57.81 12c-1.609 0.333-2.808 1.881-2.808 3.53v38.03c0 1.609 1.251 2.99 2.808 3.37l56.05 13.64c2.998 12.37 7.63 24.2 13.76 34.98l-32.5 49.47c-0.906 1.382-0.728 3.247 0.441 4.413l26.96 26.92c1.135 1.131 2.882 1.275 4.253 0.441l50.91-30.89c9.992 5.769 20.82 10.4 32.22 13.48l11.88 57.09c0.333 1.614 1.722 2.768 3.37 2.768h38.07c1.597 0 2.95-1.045 3.33-2.608l14.08-57.41c11.75-3.169 22.85-7.847 33.1-13.88l50.19 32.94c1.384 0.902 3.24 0.725 4.413-0.441l26.76-26.96c1.138-1.136 1.436-2.882 0.602-4.253l-18.29-30.13-6.02 1.886c-0.867 0.267-1.811-0.129-2.327-0.883 0 0-11.55-16.99-26.64-39.08-18.04 35.3-54.83 59.42-97.21 59.42-60.21 0-109.1-48.83-109.1-109 0-44.29 26.5-82.35 64.43-99.41v-28.12c-6.903 2.416-13.6 5.333-19.94 8.786-0.012-7e-3 0.012-0.113 0-0.121l-51.35-33.7c-0.691-0.452-1.432-0.521-2.207-0.441m756.4 100.1c-11.11 0-20.55 3.898-28.32 11.68s-11.68 17.22-11.68 28.32c0 11.11 3.898 20.55 11.68 28.32 7.777 7.774 17.22 11.68 28.32 11.68 11.11 0 20.55-3.9 28.32-11.68 7.774-7.777 11.68-17.21 11.68-28.32 0-11.11-3.9-20.55-11.68-28.32-7.774-7.774-17.21-11.68-28.32-11.68m-189.9 0.08c-11.11 0-20.55 3.858-28.32 11.63-7.774 7.777-11.63 17.22-11.63 28.32 0 11.11 3.858 20.55 11.63 28.32 7.777 7.774 17.22 11.68 28.32 11.68 11.11 0 20.55-3.9 28.32-11.68 7.774-7.777 11.68-17.21 11.68-28.32 0-11.11-3.9-20.55-11.68-28.32-7.774-7.774-17.21-11.63-28.32-11.63m93.8 0c-11.11 0-20.55 3.858-28.32 11.63-7.774 7.777-11.63 17.22-11.63 28.32 0 11.11 3.858 20.55 11.63 28.32 7.777 7.774 17.22 11.68 28.32 11.68 11.11 0 20.55-3.9 28.32-11.68 7.774-7.777 11.68-17.21 11.68-28.32 0-11.11-3.9-20.55-11.68-28.32-7.774-7.774-17.21-11.63-28.32-11.63" fill="url(#c)"/></g></svg>
