<svg version="1.1" viewBox="0 0 64 64" xmlns="http://www.w3.org/2000/svg"><defs><linearGradient id="a" x1="21.97" x2="21.66" y1="57.99" y2="13.25" gradientTransform="matrix(2.293 0 0 1.978 -9.366 .8)" gradientUnits="userSpaceOnUse"><stop stop-color="#42a603" offset="0"/><stop stop-color="#78da06" offset="1"/></linearGradient></defs><g transform="matrix(.5714 0 0 .5714 -4.571 -4.571)"><path d="m24 11.5h80c2.216 0 3.249 1.915 4 4l3.6 10c0.751 2.085-1.784 4-4 4h-87.2c-2.216 0-4.751-1.915-4-4l3.6-10c0.751-2.085 1.784-4 4-4" fill="#42a603"/><path d="m104 12-12.6 86.08c-0.314 2.146-1.784 3.913-4 3.913h-46.8c-2.216 0-3.686-1.767-4-3.913l-12.6-86.08" fill="#e1e1e1" fill-opacity=".584" opacity=".3"/><path d="m111.6 27.5-8.6 85.13c-0.216 2.134-1.784 3.87-4 3.87h-70c-2.216 0-3.784-1.735-4-3.87l-8.6-85.13" fill="url(#a)"/><path d="m46.96 85.05c-0.512 0.919-0.919 2.302-0.919 3.174 0 0.202 0 0.46 0.05 0.817l-6.397-11c-0.205-0.357-0.357-0.869-0.357-1.33 0-0.462 0.153-1.024 0.357-1.381l3.071-5.373-3.428-1.943 11.16-0.207 5.423 9.773-3.478-1.995zm4.914-32.21c0.971-1.69 2.559-2.611 4.502-2.611 2.1 0 3.737 0.974 4.914 2.967l1.74 2.916-6.04 11.64-9.773-6.881zm0.714 41.06c-2.916 0-5.321-2.405-5.321-5.321 0-0.819 0.359-2.202 0.871-3.071l1.636-2.916h12.13v11.31h-9.315m9.725-41.37c-0.767-1.329-1.79-2.252-3.02-2.764h12.59c1.126 0 1.995 0.462 2.509 1.333l3.121 5.321 3.376-1.997-5.426 9.725-11.1-0.156 3.428-1.943zm19.4 30.16c1.533 0 2.814-0.409 3.888-1.227l-6.347 11.05c-0.512 0.869-1.432 1.417-2.505 1.381h-5.99v3.94l-5.73-9.568 5.73-9.571v3.993h10.95m4.909-9.211c0.462 0.819 0.719 1.688 0.719 2.61 0 1.843-1.178 3.787-2.814 4.707-0.769 0.412-1.847 0.732-2.916 0.669h-3.38l-6.04-10.44 9.773-5.578z" fill="#fff" fill-opacity=".851"/></g></svg>
