<svg viewBox="0 0 22 22" xmlns="http://www.w3.org/2000/svg"><g transform="matrix(.8853 0 0 .8853-482.86-655.54)" fill="#fff"><path transform="matrix(.6667 0 0 .6667 288.5 399.4)" d="m400.1 520.1-6.589 11.49c-1.385 2.43-1.492 5.519 0 8.12 2.242 3.911 7.23 5.263 11.14 3.02 3.911-2.242 5.263-7.23 3.02-11.14l-6.589-11.49c-0.218-0.38-0.765-0.38-0.983 0"/><path transform="matrix(.04792 0 0 .04792 559.6 743.8)" d="m123.8 73.99-11.24-11 11.24-11c1.63-1.521 2.173-3.422 1.63-5.703-0.651-2.227-2.063-3.612-4.237-4.155l-15.32-3.911 4.318-15.15c0.651-2.226 0.137-4.128-1.549-5.703-1.574-1.684-3.475-2.2-5.703-1.548l-15.15 4.318-3.912-15.32c-0.543-2.227-1.926-3.612-4.153-4.155-2.228-0.598-4.129-0.081-5.703 1.548l-11 11.32-11-11.32c-1.575-1.684-3.476-2.2-5.703-1.548-2.227 0.543-3.612 1.928-4.155 4.155l-3.911 15.32-15.15-4.318c-2.227-0.652-4.128-0.136-5.703 1.548-1.684 1.575-2.2 3.476-1.548 5.703l4.318 15.15-15.32 3.911c-2.172 0.543-3.585 1.928-4.236 4.155-0.544 2.281 0 4.182 1.629 5.703l11.24 11-11.24 11c-1.629 1.521-2.172 3.422-1.629 5.703 0.651 2.227 2.064 3.612 4.236 4.155l15.32 3.91-4.318 15.15c-0.652 2.227-0.136 4.127 1.548 5.703 1.575 1.684 3.476 2.199 5.703 1.548l15.15-4.317 3.911 15.32c0.543 2.227 1.928 3.639 4.155 4.236 2.281 0.543 4.182 0 5.703-1.629l11-11.24 11 11.24c1.086 1.193 2.471 1.791 4.154 1.791 0.381 0 0.896-0.055 1.549-0.162 2.227-0.652 3.611-2.064 4.154-4.236l3.91-15.32 15.15 4.317c2.228 0.651 4.129 0.136 5.703-1.548 1.685-1.576 2.2-3.477 1.549-5.703l-4.317-15.15 15.32-3.91c2.175-0.543 3.586-1.928 4.237-4.155 0.544-2.282 1e-4 -4.183-1.63-5.704"/></g></svg>
