<svg viewBox="0 0 22 22" xmlns="http://www.w3.org/2000/svg"><g transform="translate(-326-534.36)" color="#f2f2f2" color-rendering="auto" fill="#f2f2f2" image-rendering="auto" shape-rendering="auto"><path transform="translate(326 534.4)" d="m11 5a6 6 0 0 0-6 6 6 6 0 0 0 6 6 6 6 0 0 0 6-6 6 6 0 0 0-6-6m0 1a5 5 0 0 1 5 5 5 5 0 0 1-5 5 5 5 0 0 1-5-5 5 5 0 0 1 5-5" solid-color="#000000" isolation="auto" mix-blend-mode="normal"/><path d="m336 537.4h2v3h-2z" solid-color="#000000" isolation="auto" mix-blend-mode="normal"/><path d="m342 544.4h3v2h-3z" solid-color="#000000" isolation="auto" mix-blend-mode="normal"/><path d="m329 544.4h3v2h-3z" solid-color="#000000" isolation="auto" mix-blend-mode="normal"/></g></svg>
