<svg viewBox="0 0 22 22" xmlns="http://www.w3.org/2000/svg"><g transform="matrix(.02821 0 0 .02821 3 2.998)" fill="#fff"><path d="m465 141.3s8.996 9.05 15.35 0.017l12.1-17.35c4.225-6.103-1.231-10.33-1.796-10.74l-73.41-51.29h-0.017c-4.52-3.145-7.521-1.236-9.1 0.533l-1.311 1.891-11.18 16.01c-0.053 0.061-6.315 9.937 3.695 15.16v0.013c14.3 7.03 40.53 21.87 65.66 45.81l0.018-0.051"/><path d="m341.4 0h-115.7c-8.978 0-16.33 7.213-16.33 16.34v13.48c0 9.112 7.356 16.47 16.33 16.47h5.725v9.521c9e-3 13.69 8.648 14.82 12.98 14.53 0.737-0.109 1.501-0.226 2.308-0.33 9e-3 0 0.122-0.026 0.122-0.026h-9e-3c15.4-2.108 40.9-4.125 70.15-0.403l0.017-0.026s18.74 3.474 18.69-13.76v-9.52h5.725c8.987 0 16.32-7.348 16.32-16.47v-13.47c-1e-4 -9.117-7.357-16.34-16.34-16.34"/><path transform="matrix(35.45 0 0 35.45 -106.4 -106.4)" d="m11 5.563c-3.71 0-6.719 3.01-6.719 6.719 0 3.71 3.01 6.719 6.719 6.719 3.71 0 6.719-3.01 6.719-6.719 0-3.711-3.01-6.719-6.719-6.719m.1 2.938c.542 0 1.06.107 1.553.318.493.212.918.496 1.275.854.358.358.644.782.855 1.275.212.493.316 1.011.316 1.553 0 .542-.105 1.06-.316 1.553-.212.493-.498.918-.855 1.275-.358.358-.782.642-1.275.854-.493.212-1.011.318-1.553.318-.597 0-1.165-.125-1.703-.377-.538-.252-.996-.608-1.375-1.066-.024-.035-.035-.074-.033-.117.002-.043.017-.078.045-.105l.713-.719c.035-.031.079-.047.131-.047.056.007.095.028.119.063.253.33.564.585.932.766.368.181.759.27 1.172.27.361 0 .707-.07 1.035-.211.328-.141.612-.331.852-.57.24-.24.43-.523.57-.852.141-.328.211-.672.211-1.033 0-.361-.07-.705-.211-1.033-.141-.328-.331-.612-.57-.852-.24-.24-.523-.43-.852-.57-.328-.141-.674-.211-1.035-.211-.34 0-.666.06-.979.184-.312.123-.591.3-.834.529l.715.719c.108.104.131.224.072.359-.059.139-.161.209-.307.209h-2.334c-.09 0-.168-.034-.234-.1-.066-.066-.1-.144-.1-.234v-2.334c0-.146.07-.248.209-.307.135-.059.255-.035.359.072l.678.672c.372-.351.796-.622 1.273-.814.477-.193.97-.289 1.48-.289"/></g></svg>
