<svg viewBox="0 0 22 22" xmlns="http://www.w3.org/2000/svg"><g transform="matrix(1.067 0 0 1.067 -404.8 -577.4)"><path transform="translate(378.9 540.1)" d="m7 6v1h9a2 2 0 0 1 2 2 2 2 0 0 1-2 2h-9a3 3 0 0 0-3 3 3 3 0 0 0 3 3h8v-1h-8a2 2 0 0 1-2-2 2 2 0 0 1 2-2h9a3 3 0 0 0 3-3 3 3 0 0 0-3-3h-9" fill="#fff"/><g fill="#1d99f3"><path d="m384.4 544.1c-1.381 0-2.5 1.119-2.5 2.5s1.119 2.5 2.5 2.5 2.5-1.119 2.5-2.5-1.119-2.5-2.5-2.5"/><path d="m395.4 554.1c-1.381 0-2.5 1.119-2.5 2.5s1.119 2.5 2.5 2.5 2.5-1.119 2.5-2.5-1.119-2.5-2.5-2.5"/></g></g></svg>
