<svg viewBox="0 0 22 22" xmlns="http://www.w3.org/2000/svg"><g transform="matrix(1.343 0 0 1.343 .209 -1392)"><g transform="matrix(.3794 0 0 .3794 1.205 1038)"><g fill="#fff"><path d="m4.8 32.02c-.5 0-.9-.344-1-.774l-.7-5.246h8.1 13.6 8.1l-.7 5.246c-.1.43-.5.774-1 .774z"/><path transform="matrix(1 0 0 .8217 0 4.457)" d="m31.8 27-0.5 5h-26.5l-0.5-5h27.5m2.2-2h-32l0.497 7.2c0.1 1 0.698 1.8 1.698 1.8h27.71c1 0 1.598-0.8 1.698-1.8z"/></g><path d="m25 26h-14-7.8l-.2-1 2.7-21.3c.1-1 .697-1.7 1.697-1.7h21.21c1 0 1.497.7 1.697 1.7l2.7 21.3-.6 1" fill="none" fill-opacity=".12" stroke="#fff" stroke-linejoin="round" stroke-miterlimit="10" stroke-width="2"/></g><path transform="matrix(.00928-.00666.00925.00668 3.663 1043.17)" d="m481.1 209.4-47.96-47.98c-1.832-1.823-4.301-2.852-6.881-2.852-2.582 0-5.05 1.02-6.883 2.844l-47.97 47.99c-3.809 3.791-3.809 9.956 0 13.75l6.691 6.683-36.56 36.55-84.96-16.62 139.7-139.7 17.68 17.68c1.897 1.897 4.65 2.669 7.248 2.031 2.614-0.638 4.7-2.581 5.514-5.139l32.53-102.5c0.859-2.732 0.127-5.727-1.898-7.759-2.039-2.023-5.02-2.757-7.757-1.888l-102.5 32.52c-2.55 0.813-4.509 2.9-5.146 5.504-0.638 2.614 0.143 5.361 2.039 7.257l17.7 17.7-193.5 193.4-17.92-91.67 29.03-29.03c14.1 2.868 29.31-1.141 40.24-12.07 17.35-17.33 17.35-45.44-0.017-62.79-17.32-17.33-45.42-17.31-62.77 0.024-10.94 10.93-14.94 26.15-12.07 40.25l-38.22 38.22c-5.768 5.761-8.284 14-6.707 22l26.75 136.8-59.66 59.66c-17.7-5.313-37.63-1.202-51.62 12.78-20.26 20.28-20.28 53.14-0.017 73.42 20.3 20.3 53.16 20.3 73.44 0.016 13.99-13.98 18.08-33.9 12.78-51.6l113.4-113.4 130.1 25.44c1.562 0.304 3.139 0.455 4.7 0.455 6.42 0 12.67-2.533 17.3-7.17l45.76-45.76 6.692 6.692c1.832 1.823 4.301 2.843 6.883 2.843 2.58 0 5.05-1.027 6.881-2.852l47.96-47.98c3.809-3.799 3.809-9.949 2e-3 -13.75" fill="#fff"/></g></svg>
