<svg viewBox="0 0 22 22" xmlns="http://www.w3.org/2000/svg"><g transform="matrix(1.067 0 0 1.067 -349 -570.2)" fill="#fff"><path transform="translate(-225.29-73.29)" d="m569.3 610.6c-0.552 0-1 0.448-1 1s0.448 1 1 1 1-0.448 1-1-0.448-1-1-1m0 4c-0.552 0-1 0.448-1 1s0.448 1 1 1 1-0.448 1-1-0.448-1-1-1m0 4c-0.552 0-1 0.448-1 1s0.448 1 1 1 1-0.448 1-1-0.448-1-1-1"/><path transform="matrix(1.422 0 0 1.422 -114 -224.6)" d="m312.17 546.36l3.712-9.845h1.43l3.712 9.845h-1.402l-.949-2.668h-4.139l-.962 2.668h-1.402m2.791-3.85h3.272l-1.609-4.441h-.055l-1.609 4.441"/></g></svg>
