<svg viewBox="0 0 22 22" xmlns="http://www.w3.org/2000/svg"><g transform="translate(0 -1030)"><g fill="#fff"><g color-rendering="auto" fill-rule="evenodd" image-rendering="auto" shape-rendering="auto"><path d="m7.688 1034.97l-5 4 .625.779 5-4-.625-.779" solid-color="#000000" isolation="auto" mix-blend-mode="normal" white-space="normal"/><path d="m18.58 1035-4 6 0.832 0.555 4-6-0.832-0.555" solid-color="#000000" isolation="auto" mix-blend-mode="normal" white-space="normal"/><path d="m15.39 1042-0.781 0.623 4 5 0.781-0.623-4-5" solid-color="#000000" isolation="auto" mix-blend-mode="normal" white-space="normal"/><path d="m9.385 1035.04l-.77.639 5 6 .77-.639-5-6" solid-color="#000000" isolation="auto" mix-blend-mode="normal" white-space="normal"/></g><path d="m3 1047h6v1h-6z"/><path d="m13.61 1042-4 5 0.781 0.623 4-5-0.781-0.623" color-rendering="auto" fill-rule="evenodd" image-rendering="auto" shape-rendering="auto" solid-color="#000000" isolation="auto" mix-blend-mode="normal" white-space="normal"/><path d="m2 1040h1v7h-1z"/></g><g fill="#1d99f3"><ellipse cx="19.5" cy="1048" rx="1.5" ry="1.5"/><ellipse cx="14.5" cy="1042" rx="1.5" ry="1.5"/><ellipse cx="19.5" cy="1035" rx="1.5" ry="1.5"/><ellipse cx="8.5" cy="1035" rx="1.5" ry="1.5"/><ellipse cx="9.5" cy="1048" rx="1.5" ry="1.5"/><ellipse cx="2.5" cy="1048" rx="1.5" ry="1.5"/><ellipse cx="2.5" cy="1040" rx="1.5" ry="1.5"/></g></g></svg>
