<svg viewBox="0 0 22 22" xmlns="http://www.w3.org/2000/svg"><path transform="translate(0-.032)" d="m4.6 3c-0.443 0-0.799 0.358-0.799 0.801v14.4c0 0.443 0.356 0.801 0.799 0.801h12.8c0.443 0 0.799-0.358 0.799-0.801v-14.4c0-0.443-0.356-0.801-0.799-0.801h-12.8m0.9023 0.7363a0.9108 0.9108 0 0 1 0.9121 0.9102 0.9108 0.9108 0 0 1-0.9121 0.9121 0.9108 0.9108 0 0 1-0.9102-0.9121 0.9108 0.9108 0 0 1 0.9102-0.9102m2.215 0a0.9108 0.9108 0 0 1 0.9121 0.9102 0.9108 0.9108 0 0 1-0.9121 0.9121 0.9108 0.9108 0 0 1-0.9102-0.9121 0.9108 0.9108 0 0 1 0.9102-0.9102m2.232 0a0.9108 0.9108 0 0 1 0.9121 0.9102 0.9108 0.9108 0 0 1-0.9121 0.9121 0.9108 0.9108 0 0 1-0.9102-0.9121 0.9108 0.9108 0 0 1 0.9102-0.9102m2.209 0a0.9108 0.9108 0 0 1 0.9121 0.9102 0.9108 0.9108 0 0 1-0.9121 0.9121 0.9108 0.9108 0 0 1-0.9102-0.9121 0.9108 0.9108 0 0 1 0.9102-0.9102m2.174 0a0.9108 0.9108 0 0 1 0.9102 0.9102 0.9108 0.9108 0 0 1-0.9102 0.9102 0.9108 0.9108 0 0 1-0.9121-0.9102 0.9108 0.9108 0 0 1 0.9121-0.9102m2.166 0a0.9108 0.9108 0 0 1 0.9102 0.9102 0.9108 0.9108 0 0 1-0.9102 0.9121 0.9108 0.9108 0 0 1-0.9121-0.9121 0.9108 0.9108 0 0 1 0.9121-0.9102m-9.912 2.178a0.9108 0.9108 0 0 1 0.9102 0.9121 0.9108 0.9108 0 0 1-0.9102 0.9102 0.9108 0.9108 0 0 1-0.9102-0.9102 0.9108 0.9108 0 0 1 0.9102-0.9121m2.215 0a0.9108 0.9108 0 0 1 0.9102 0.9102 0.9108 0.9108 0 0 1-0.9102 0.9121 0.9108 0.9108 0 0 1-0.9121-0.9121 0.9108 0.9108 0 0 1 0.9121-0.9102m2.232 0a0.9108 0.9108 0 0 1 0.9102 0.9102 0.9108 0.9108 0 0 1-0.9102 0.9121 0.9108 0.9108 0 0 1-0.9102-0.9121 0.9108 0.9108 0 0 1 0.9102-0.9102m2.209 0a0.9108 0.9108 0 0 1 0.9102 0.9102 0.9108 0.9108 0 0 1-0.9102 0.9121 0.9108 0.9108 0 0 1-0.9121-0.9121 0.9108 0.9108 0 0 1 0.9121-0.9102m2.172 0a0.9108 0.9108 0 0 1 0.9102 0.9102 0.9108 0.9108 0 0 1-0.9102 0.9121 0.9108 0.9108 0 0 1-0.9102-0.9121 0.9108 0.9108 0 0 1 0.9102-0.9102m-9.912 2.197a0.9108 0.9108 0 0 1 0.9121 0.9121 0.9108 0.9108 0 0 1-0.9121 0.9102 0.9108 0.9108 0 0 1-0.9102-0.9102 0.9108 0.9108 0 0 1 0.9102-0.9121m2.215 0a0.9108 0.9108 0 0 1 0.9121 0.9102 0.9108 0.9108 0 0 1-0.9121 0.9121 0.9108 0.9108 0 0 1-0.9102-0.9121 0.9108 0.9108 0 0 1 0.9102-0.9102m2.232 0a0.9108 0.9108 0 0 1 0.9121 0.9102 0.9108 0.9108 0 0 1-0.9121 0.9121 0.9108 0.9108 0 0 1-0.9102-0.9121 0.9108 0.9108 0 0 1 0.9102-0.9102m2.209 0a0.9108 0.9108 0 0 1 0.9121 0.9102 0.9108 0.9108 0 0 1-0.9121 0.9121 0.9108 0.9108 0 0 1-0.9102-0.9121 0.9108 0.9108 0 0 1 0.9102-0.9102m2.174 0a0.9108 0.9108 0 0 1 0.9102 0.9102 0.9108 0.9108 0 0 1-0.9102 0.9121 0.9108 0.9108 0 0 1-0.9121-0.9121 0.9108 0.9108 0 0 1 0.9121-0.9102m2.166 0a0.9108 0.9108 0 0 1 0.9102 0.9102 0.9108 0.9108 0 0 1-0.9102 0.9121 0.9108 0.9108 0 0 1-0.9121-0.9121 0.9108 0.9108 0 0 1 0.9121-0.9102m-5.709 3.414c0.369 0.024 0.719 0.118 1.047 0.283s0.606 0.379 0.834 0.639 0.402 0.564 0.523 0.91c0.121 0.347 0.171 0.705 0.146 1.074-0.037 0.568-0.231 1.074-0.582 1.516l1.244 1.416c0.089 0.102 0.128 0.221 0.119 0.357-9e-3 0.134-0.065 0.248-0.17 0.34-0.104 0.092-0.223 0.132-0.357 0.123-0.14-9e-3 -0.253-0.066-0.34-0.17l-1.242-1.412c-0.483 0.29-1.01 0.418-1.578 0.381-0.369-0.024-0.719-0.12-1.047-0.285s-0.606-0.377-0.834-0.637-0.402-0.564-0.523-0.91c-0.121-0.347-0.171-0.705-0.146-1.074 0.024-0.369 0.12-0.719 0.285-1.047s0.377-0.606 0.637-0.834 0.564-0.402 0.91-0.523c0.347-0.121 0.705-0.171 1.074-0.146m-0.064 0.992c-0.478-0.031-0.898 0.112-1.26 0.43s-0.559 0.715-0.59 1.193 0.112 0.898 0.43 1.26 0.715 0.559 1.193 0.59 0.898-0.112 1.26-0.43 0.559-0.715 0.59-1.193-0.112-0.898-0.43-1.26-0.715-0.559-1.193-0.59" fill="#fff" stroke-opacity=".55" stroke-width="2.8"/></svg>
