<svg viewBox="0 0 22 22" xmlns="http://www.w3.org/2000/svg"><g fill="#f2f2f2"><path d="m2 2.998v16h10v-1h-6v-6h9v-1h-10v7h-2v-14h3v5h8v-5h0.293l2.707 2.707v5.293h1v-5.699h-8e-3l8e-3 -1e-3 -3.293-3.293-8e-3 1e-3v-1e-3h-0.699zm5 1h3.9v4h-3.9"/><path transform="matrix(.5381-.14418.14418.5381-247.1-229.76)" d="m347.2 549.76l-3.065.245.556 3.02-2.341-1.994-1.745 2.532-.245-3.066-3.02.556 1.994-2.341-2.532-1.745 3.065-.245-.556-3.02 2.341 1.994 1.745-2.532.245 3.066 3.02-.556-1.994 2.341z"/></g></svg>
