<svg viewBox="0 0 22 22" xmlns="http://www.w3.org/2000/svg"><g transform="matrix(1.1 0 0 -1.1 -401.8 583.4)" fill="#fff"><path transform="matrix(-1.343 0 0 -1.339 976.4 1255)" d="m447.37 543.69c-.264.264-.264.693 0 .957l2.943 2.672-2.943 2.672c-.264.264-.264.693 0 .957.264.264.692.264.956 0l3.424-3.108c.143-.143.206-.334.194-.521.012-.187-.051-.378-.194-.521l-3.424-3.108c-.264-.264-.692-.264-.956 0" stroke-opacity=".8"/><path d="m375.08 523.18c-.355-.354-.355-.927 0-1.281l3.952-3.576-3.952-3.576c-.355-.354-.355-.927 0-1.281.355-.354.93-.354 1.284 0l4.598 4.16c.192.192.276.447.26.697.016.25-.069.506-.26.697l-4.598 4.16c-.355.354-.93.354-1.284 0"/></g></svg>
