<svg viewBox="0 0 22 22" xmlns="http://www.w3.org/2000/svg"><g transform="matrix(0 -1.377 1.372 0 -778.2 566.8)" fill="#fff" stroke-opacity=".8"><path d="m409.22 572.96c-.401-.404-1.052-.404-1.453 0l-4.057 4.497-4.057-4.497c-.402-.404-1.052-.404-1.453 0-.402.404-.402 1.058 0 1.461l4.719 5.231c.217.218.507.314.791.296.284.018.574-.078.791-.296l4.719-5.231c.401-.404.401-1.058 0-1.461"/><path d="m403.7 573.5c0.935 0 1.693-0.761 1.693-1.7s-0.758-1.7-1.693-1.7-1.693 0.761-1.693 1.7 0.758 1.7 1.693 1.7"/></g></svg>
