<svg viewBox="0 0 22 22" xmlns="http://www.w3.org/2000/svg"><path transform="translate(-1-1)" d="m18.5 4c-.654 0-1.202.418-1.408 1h-13.09v1c3.601 0 6.5 2.899 6.5 6.5 0 1.906-.822 3.602-2.121 4.787-.246-.18-.549-.287-.879-.287-.831 0-1.5.669-1.5 1.5 0 .831.669 1.5 1.5 1.5.654 0 1.202-.418 1.408-1h4.092v1h3v-3h-3v1h-3.912c1.479-1.368 2.412-3.317 2.412-5.5 0-2.789-1.511-5.207-3.758-6.5h9.35c.206.582.754 1 1.408 1 .831 0 1.5-.669 1.5-1.5 0-.831-.669-1.5-1.5-1.5m0 1c.277 0 .5.223.5.5 0 .277-.223.5-.5.5-.069 0-.135-.014-.195-.039-.18-.076-.305-.253-.305-.461 0-.069.014-.135.039-.195.076-.18.253-.305.461-.305m-11 13c.277 0 .5.223.5.5 0 .277-.223.5-.5.5-.277 0-.5-.223-.5-.5 0-.277.223-.5.5-.5m6.5 0h1v1h-1v-1z" fill="#fff"/></svg>
