<svg viewBox="0 0 22 22" xmlns="http://www.w3.org/2000/svg"><path transform="matrix(1.226 0 0 1.226 20.62 -1263)" d="m-8.725 1046q-1.95 0-3.275-1.125-1.3-1.125-1.3-2.975 0-2 1.55-3.125 1.55-1.15 3.825-1.15 2.025 0 3.325 0.75v-0.35q0-1.35-0.925-2.15-0.925-0.825-2.275-0.825-1 0-1.825 0.475-0.8 0.475-1.1 1.3l-2.1-0.9q0.425-1.1 1.675-2.025 1.25-0.95 3.3-0.95 2.35 0 3.9 1.375t1.55 3.875v7.4h-2.2v-1.7h-0.1q-1.375 2.1-4.03 2.1m0.375-2.1q1.425 0 2.575-1.05 1.175-1.075 1.175-2.525-0.975-0.8-2.925-0.8-1.675 0-2.525 0.725t-0.85 1.7q0 0.9 0.775 1.425t1.775 0.525" fill="#fff"/></svg>
