<svg viewBox="0 0 22 22" xmlns="http://www.w3.org/2000/svg"><g transform="matrix(.4952 -.7451 .7451 .4952 -770.6 -496.5)" fill="#fff"><path d="m15.24 1043-3.831-2.564v-3.89c-1e-4 -2.139 9e-3 -3.89 0.022-3.89s1.742 1.15 3.844 2.555l3.821 2.555v3.901c0 2.146-5e-3 3.9-0.011 3.898-6e-3 0-1.735-1.157-3.842-2.567" opacity=".987"/><path d="m2.887 1041v-3.959l3.836-2.549c2.11-1.402 3.847-2.548 3.859-2.548 0.013 0 0.023 1.779 0.023 3.954v3.954l-3.834 2.553c-2.109 1.404-3.845 2.553-3.859 2.553s-0.026-1.781-0.026-3.959" opacity=".987"/><path d="m7.228 1048.61c-2.056-1.374-3.756-2.516-3.778-2.538-.044-.043 7.525-5.149 7.64-5.154.084 0 7.526 4.976 7.511 5.03-.007.023-6.969 4.733-7.609 5.148-.014.001-1.708-1.108-3.764-2.482" opacity=".987"/></g></svg>
