<svg viewBox="0 0 22 22" xmlns="http://www.w3.org/2000/svg"><g transform="matrix(.03965 0 0 .03965 1.163 1.163)" fill="#fff"><path d="m250.2 81.61c97.43 0 179.8 43.43 179.8 94.83 0 12.45-4.934 24.45-13.64 35.46l35.4 10.4c8.613-14.23 13.53-29.63 13.53-45.87 0-72.96-94.46-130.1-215-130.1-120.6 0-215 57.16-215 130.1 0 26.92 12.94 51.64 35.19 72.17-6.951 4.502-13.76 10.5-18.84 18.98-10.45 17.45-10.66 39.09-0.645 64.35 9.433 23.79 7.125 32.58 5.693 35.24-3.354 6.322-18.13 9.514-32.38 12.6-3.486 0.758-7.04 1.531-10.58 2.371-9.484 2.24-15.35 11.72-13.13 21.23 1.902 8.111 9.164 13.6 17.16 13.6 1.34 0 2.709-0.16 4.068-0.467 3.32-0.791 6.656-1.518 9.932-2.227 21.11-4.564 45.02-9.742 56.08-30.48 8.486-15.9 7.195-36.52-4.03-64.85-5.725-14.44-6.385-25.56-1.947-33.1 4.965-8.451 16.14-12.21 22.19-13.47 35.7 19.9 82.85 32.35 135.6 33.87l-10.5-35.74c-87.87-5.758-158.6-46.45-158.6-94.07 1e-4 -51.4 82.32-94.83 179.8-94.83"/><path d="m487.57 269.63l-222.05-65.27c-1.115-.338-2.244-.482-3.373-.482-3.113 0-6.158 1.227-8.434 3.5-3.096 3.08-4.258 7.613-3.02 11.789l65.27 222.1c1.34 4.613 5.352 7.982 10.143 8.5.453.047.891.064 1.322.064 4.309 0 8.307-2.338 10.439-6.162l54.08-98.04 98.03-54.09c4.225-2.322 6.629-6.951 6.1-11.727-.514-4.787-3.874-8.805-8.502-10.176"/></g></svg>
