<svg viewBox="0 0 22 22" xmlns="http://www.w3.org/2000/svg" xmlns:xlink="http://www.w3.org/1999/xlink"><path transform="translate(0-.002)" d="m4 3c-0.554 0-1 0.446-1 1v14c0 0.554 0.446 1 1 1h14c0.554 0 1-0.446 1-1v-14c0-0.554-0.446-1-1-1h-14m4.436 3.4c0.646 0 1.17 0.524 1.17 1.17s-0.524 1.17-1.17 1.17-1.17-0.524-1.17-1.17 0.524-1.17 1.17-1.17m5.307 0c0.646 0 1.17 0.524 1.17 1.17s-0.524 1.17-1.17 1.17-1.172-0.524-1.172-1.17 0.526-1.17 1.172-1.17m-6.967 5.314c0.159-0.013 0.35 6e-3 0.578 0.066 0 0 3.235 1.754 7.293 0 1.823-0.484 1.266 1.674 1.266 1.674-1.042 3.2-4.912 2.939-4.912 2.939s-3.87 0.26-4.912-2.939c0 0-0.427-1.651 0.688-1.74" fill="#fff" fill-rule="evenodd"/></svg>
