<svg viewBox="0 0 22 22" xmlns="http://www.w3.org/2000/svg"><g transform="translate(-421.7 -525.8)" fill="#fff"><path transform="matrix(1.333 0 0 1.333 422 526.1)" d="m2 2v3h1v-2h2v-1h-3m9 0v1h2v2h1v-3h-3zm-9 9v3h3v-1h-2v-2h-1m11 0v2h-2v1h3v-3h-1"/><g transform="matrix(.75 0 0 .75 108.2 134.2)"><g transform="translate(3-2.565)"><path transform="translate(-18 2.565)" d="m447.7 528.8 8.434 4.217-8.434 4.217-8.435-4.217z"/><path d="m429.7 545-6.083-3.042-2.351 1.176 8.435 4.217 8.434-4.217-2.351-1.176z"/></g><path transform="translate(-34.8-.124)" d="m467.5 538.8-6.083-3.042-2.351 1.176 8.435 4.217 8.434-4.217-2.351-1.176z"/></g></g></svg>
