<svg viewBox="0 0 22 22" xmlns="http://www.w3.org/2000/svg" xmlns:xlink="http://www.w3.org/1999/xlink"><g transform="translate(0 -1030)"><path transform="translate(-1 1029)" d="m4 4v16h16v-16h-16m1 1h14v14h-14v-14" fill="#f2f2f2" fill-rule="evenodd"/><path id="a" transform="matrix(1.25 0 0 1 -660.6 437.2)" d="m538.9 603.1h4v2h-4z" fill="#da4453" fill-rule="evenodd"/><use transform="translate(-9)" xlink:href="#a"/><path d="m11 1038c-1.657 0-3 1.343-3 3s1.343 3 3 3 3-1.343 3-3-1.343-3-3-3m0 2c0.552 0 1 0.448 1 1s-0.448 1-1 1-1-0.448-1-1 0.448-1 1-1" fill="#1d99f3" fill-rule="evenodd"/></g></svg>
