<svg viewBox="0 0 22 22" xmlns="http://www.w3.org/2000/svg"><path transform="translate(-326-534.36)" d="m337 537.4c-2.037 0-3.909 0.439-5.276 1.328s-2.226 2.237-2.224 4.03c9e-3 2.024 1.32 4.636 2.903 6.771 0.791 1.067 1.651 2.02 2.456 2.706 0.804 0.691 1.549 1.13 2.136 1.167h0.01c0.587-0.037 1.332-0.476 2.136-1.167s1.664-1.639 2.456-2.706c1.583-2.134 2.893-4.746 2.903-6.771 1e-4 -1.791-0.857-3.139-2.224-4.03-1.367-0.889-3.24-1.328-5.276-1.328" color-rendering="auto" fill="#fff" fill-rule="evenodd" image-rendering="auto" shape-rendering="auto" solid-color="#000000" isolation="auto" mix-blend-mode="normal" white-space="normal"/></svg>
