<svg viewBox="0 0 22 22" xmlns="http://www.w3.org/2000/svg"><path transform="matrix(.01702 0 0 .01702 3.01 3.01)" d="m900.2 0h-46.51c-11.05 0-20 8.954-20 20v24.89c0 11.05-8.954 20-20 20h-43.37c-11.05 0-20-8.955-20-20v-24.89c0-11.05-8.953-20-20-20h-522.2c-11.05 0-20 8.954-20 20v24.89c0 11.05-8.954 20-20 20h-43.37c-11.05 0-20-8.955-20-20v-24.89c0-11.05-8.954-20-20-20h-44.95c-11.05 0-20 8.954-20 20v900c0 11.05 8.954 20 20 20h44.95c11.05 0 20-8.954 20-20v-18.28c0-11.05 8.954-20 20-20h43.37c11.05 0 20 8.954 20 20v18.28c0 11.05 8.954 20 20 20h522.2c11.05 0 20-8.954 20-20v-18.28c0-11.05 8.954-20 20-20h43.37c11.05 0 20 8.954 20 20v18.28c0 11.05 8.954 20 20 20h46.51c11.05 0 20-8.954 20-20v-900c0-11.04-8.954-20-20-20m-712.1 765.4c0 11.05-8.954 20-20 20h-43.37c-11.05 0-20-8.954-20-20v-43.37c0-11.04 8.954-20 20-20h43.37c11.05 0 20 8.955 20 20v43.37m0-179.7c0 11.04-8.954 20-20 20h-43.37c-11.05 0-20-8.955-20-20v-43.37c0-11.04 8.954-20 20-20h43.37c11.05 0 20 8.955 20 20v43.37m0-179.7c0 11.05-8.954 20-20 20h-43.37c-11.05 0-20-8.953-20-20v-43.37c0-11.05 8.954-20 20-20h43.37c11.05 0 20 8.954 20 20v43.37m0-179.7c0 11.05-8.954 20-20 20h-43.37c-11.05 0-20-8.954-20-20v-43.37c0-11.04 8.954-20 20-20h43.37c11.05 0 20 8.955 20 20v43.37m475.7 608c0 11.05-8.954 20-20 20h-347.7c-11.05 0-20-8.953-20-20v-160.7c0-11.05 8.954-20 20-20h347.7c11.05 0 20 8.954 20 20v160.7m0-283.9c0 11.05-8.954 20-20 20h-347.7c-11.05 0-20-8.954-20-20v-160.7c0-11.05 8.954-20 20-20h347.7c11.05 0 20 8.955 20 20v160.7m0-283.9c0 11.05-8.954 20-20 20h-347.7c-11.05 0-20-8.954-20-20v-160.7c0-11.05 8.954-20 20-20h347.7c11.05 0 20 8.955 20 20v160.7m169.8 498.9c0 11.05-8.954 20-20 20h-43.37c-11.05 0-20-8.954-20-20v-43.37c0-11.04 8.954-20 20-20h43.37c11.05 0 20 8.955 20 20v43.37m0-179.7c0 11.04-8.954 20-20 20h-43.37c-11.05 0-20-8.955-20-20v-43.37c0-11.04 8.954-20 20-20h43.37c11.05 0 20 8.955 20 20v43.37m0-179.7c0 11.05-8.954 20-20 20h-43.37c-11.05 0-20-8.953-20-20v-43.37c0-11.05 8.954-20 20-20h43.37c11.05 0 20 8.954 20 20v43.37m0-179.7c0 11.05-8.954 20-20 20h-43.37c-11.05 0-20-8.954-20-20v-43.37c0-11.04 8.954-20 20-20h43.37c11.05 0 20 8.955 20 20v43.37" fill="#fff" stroke-opacity=".8"/></svg>
