<svg viewBox="0 0 22 22" xmlns="http://www.w3.org/2000/svg"><g transform="translate(-421.7 -525.8)"><g fill="#f2f2f2"><g font-family="Sans" letter-spacing="0" word-spacing="0" line-height="125%"><g font-size="9"><text x="408.1" y="551.41"><tspan x="408.1" y="551.41"/></text><text x="408.84" y="545.54"><tspan x="408.84" y="545.54"/></text><text x="402.1" y="552.41"><tspan x="402.1" y="552.41"/></text></g><g font-size="12.46"><text x="429.66" y="552.75"><tspan x="429.66" y="552.75"/></text><text x="430.68" y="544.63"><tspan x="430.68" y="544.63"/></text><text x="421.35" y="554.13"><tspan x="421.35" y="554.13"/></text></g><g font-size="9"><text x="392.98" y="547.21"><tspan x="392.98" y="547.21"/></text><text x="393.72" y="541.34"><tspan x="393.72" y="541.34"/></text><text x="386.98" y="548.21"><tspan x="386.98" y="548.21"/></text></g><g font-size="12.46"><text x="414.54" y="548.54"><tspan x="414.54" y="548.54"/></text><text x="415.56" y="540.43"><tspan x="415.56" y="540.43"/></text><text x="406.23" y="549.93"><tspan x="406.23" y="549.93"/></text></g><g font-size="9"><text x="408.1" y="551.41"><tspan x="408.1" y="551.41"/></text><text x="408.84" y="545.54"><tspan x="408.84" y="545.54"/></text><text x="402.1" y="552.41"><tspan x="402.1" y="552.41"/></text></g><g font-size="12.46"><text x="429.66" y="552.75"><tspan x="429.66" y="552.75"/></text><text x="430.68" y="544.63"><tspan x="430.68" y="544.63"/></text><text x="421.35" y="554.13"><tspan x="421.35" y="554.13"/></text></g></g><path d="m426.8 532.8-4.03 12h0.974l1.446-4h5.03l1.44 4h1.106l-4.089-12h-1.877m0.908 1.029 2.15 5.971h-4.31l2.16-5.971" color-rendering="auto" fill-rule="evenodd" image-rendering="auto" shape-rendering="auto" solid-color="#000000" isolation="auto" mix-blend-mode="normal" white-space="normal"/><path d="m433.7 532.8h1v12h-1z"/><path d="m437.7 536.8a4 4 0 0 0-4 4 4 4 0 0 0 4 4 4 4 0 0 0 4-4 4 4 0 0 0-4-4m0 1a3 3 0 0 1 3 3 3 3 0 0 1-3 3 3 3 0 0 1-3-3 3 3 0 0 1 3-3"/></g><path d="m424.7 531.8 3-4 3 4z" fill="#1d99f3"/></g></svg>
