<svg viewBox="0 0 22 22" xmlns="http://www.w3.org/2000/svg"><g transform="translate(-326-534.36)"><path transform="rotate(90)" d="m536.4-346h17v1h-17z" fill="#eff0f1"/><g fill="#b3b3b3"><path d="m330 537.4h7v7h-7z"/><path d="m338 537.4h7v7h-7z"/><path d="m338 545.4h7v7h-7z"/><path d="m330 545.4h7v7h-7z"/></g><g fill="#eff0f1"><path d="m329 552.4h17v1h-17z"/><path d="m329 536.4h17v1h-17z"/><path d="m329 536.4h1v17h-1z"/><path transform="scale(-1 1)" d="m-346 544.4h17v1h-17z"/><path transform="matrix(0-1-1 0 0 0)" d="m-553.4-338h17v1h-17z"/></g><path d="m345.3 553.4-16.29-16.29v-0.707h0.707l16.29 16.29v0.707h-0.707" color-rendering="auto" fill="#f2f2f2" fill-rule="evenodd" image-rendering="auto" shape-rendering="auto" solid-color="#000000" isolation="auto" mix-blend-mode="normal" white-space="normal"/></g></svg>
