<svg viewBox="0 0 24 24" xmlns="http://www.w3.org/2000/svg"><g transform="matrix(1.185 0 0 1.185 -384.2 -631.2)" fill="#fff"><path transform="matrix(.711 0 0 .711 109.2 151.7)" d="m321.26 549.27v-8.308h3.01q.975 0 1.682.65.719.638.719 1.613 0 .592-.313 1.044-.302.453-.812.685v.046q.615.209 1.01.719.394.511.394 1.183 0 1.021-.754 1.694-.743.673-1.764.673h-3.168m1.067-4.746h1.938q.603 0 .963-.394.371-.406.371-.882 0-.476-.36-.87-.348-.394-.928-.394h-1.984v2.541m0 3.725h2.147q.615 0 .998-.429.383-.429.383-.94 0-.511-.394-.928-.395-.429-1.033-.429h-2.1v2.727"/><path transform="matrix(1.524 0 0 1.524 -142.2 -280)" d="m307.9 544.21l3.133-8.308h1.207l3.133 8.308h-1.184l-.801-2.251h-3.493l-.812 2.251h-1.184m2.355-3.249h2.762l-1.358-3.748h-.046l-1.358 3.748"/></g></svg>
