<svg viewBox="0 0 22 22" xmlns="http://www.w3.org/2000/svg"><g transform="translate(-326-534.36)" fill-rule="evenodd"><g transform="translate(326 534.4)"><path d="m6.75 3a4.75 8 0 0 0-4.75 8h1a3.75 7 0 0 1 3.75-7 3.75 7 0 0 1 3.75 7h1a4.75 8 0 0 0-4.75-8m3.791 9a4.75 8 0 0 0 4.709 7 4.75 8 0 0 0 4.707-7h-1a3.75 7 0 0 1-3.707 6 3.75 7 0 0 1-3.707-6h-1.002" color-rendering="auto" fill="#f2f2f2" image-rendering="auto" shape-rendering="auto" solid-color="#000000" isolation="auto" mix-blend-mode="normal"/><path d="m1 10v3h3v-3h-3m1 1h1v1h-1v-1" fill="#1d99f3"/></g><g fill="#1d99f3"><path d="m335.5 544.4v3h3v-3h-3m1 1h1v1h-1v-1"/><path d="m344 544.4v3h3v-3h-3m1 1h1v1h-1v-1"/></g></g></svg>
