<svg viewBox="0 0 22 22" xmlns="http://www.w3.org/2000/svg"><g transform="matrix(.9171 0 0 .9171 -299.3 -488.9)" fill="#fff"><path transform="matrix(.03769 0 0 .03769 326.1 535.6)" d="m432.1 155.4c-62.34 22.95-109.8 39.3-151.6 90.98-37.23 46.05-90.98 62.01-151.6 31.66v165.5h-30.33v-409.4c-1e-4 -8.382 6.781-15.16 15.16-15.16 8.38 0 15.17 6.781 15.17 15.16 33.67 48.95 92.19 59.8 151.6 60.65 90.98 1.33 151.6 60.65 151.6 60.65"/><path transform="matrix(0 .02061 -.02061 0 349.2 543.8)" d="m257.8 113.7c-74.42 0-140.3 35.89-181.8 91.16l-75.98-76v242.6h242.6l-82.54-82.53c21.93-66.52 84.47-114.6 158.3-114.6 92.16 0 166.8 74.69 166.8 166.8 1e-4 -125.6-101.8-227.4-227.4-227.4"/></g></svg>
