<svg viewBox="0 0 22 22" xmlns="http://www.w3.org/2000/svg"><path transform="translate(-544.6 -742.9)" d="m547.6 745.9v16h16v-16h-16m1 1h2v2h-2v-2m3 0h2v2h-2v-2m3 0h2v2h-2v-2m3 0h2v2h-2v-2m3 0h2v2h-2v-2m-12 3h2v2h-2v-2m3 0h2v2h-2v-2m3 0h2v2h-2v-2m3 0h2v2h-2v-2m3 0h2v2h-2v-2m-12 3h2v2h-2v-2m3 0h2v2h-2v-2m3 0h2v2h-2v-2m3 0h2v2h-2v-2m3 0h2v2h-2v-2m-12 3h2v2h-2v-2m3 0h2v2h-2v-2m3 0h2v2h-2v-2m3 0h2v2h-2v-2m3 0h2v2h-2v-2m-12 3h2v2h-2v-2m3 0h2v2h-2v-2m3 0h2v2h-2v-2m3 0h2v2h-2v-2m3 0h2v2h-2v-2" fill="#f2f2f2"/></svg>
