<svg viewBox="0 0 22 22" xmlns="http://www.w3.org/2000/svg"><g transform="matrix(.9939 0 0 .9939 .06 -1024)" fill="#fff"><path d="m12.157 1046.55c.017.093-.045.168-.139.168h-1.997c-.094 0-.157-.076-.139-.168l.318-1.685c-.241-.219-.392-.536-.392-.887 0-.663.537-1.2 1.2-1.2.663 0 1.2.537 1.2 1.2 0 .342-.143.65-.372.869z"/><path d="m14.216 1040.15h-6.415v-1.98c0-1.769 1.439-3.207 3.207-3.207 1.769 0 3.207 1.439 3.207 3.207zm1.711.018v-1.998c0-2.712-2.206-4.919-4.919-4.919-2.712 0-4.919 2.207-4.919 4.919v1.998c-.388.081-.68.426-.68.837v7.488c0 .472.384.855.856.855h9.485c.472 0 .856-.384.856-.855v-7.488c0-.411-.292-.756-.68-.837"/></g></svg>
