<svg viewBox="0 0 22 22" xmlns="http://www.w3.org/2000/svg"><g transform="matrix(0 .01743-.01743 0 19 2.998)" fill="#fff"><path d="m862.4 228.5 39.4-37.6c13.9-13.3 8.2-36.7-10.2-42.1l-227.9-66.8c-18.5-5.4-35.9 11.2-31.3 29.9l56 230.7c4.5 18.7 27.6 25.5 41.6 12.2l32.7-31.2c12 31 19.8 63.6 23.3 97.5 6.5 62.2-2.301 125.4-25.6 183-19.6 48.5-49.4 92.9-86.8 129.7-9.4 9.301-10.1 24.3-1.4 34.3l52.5 60.5c9.4 10.8 25.9 11.5 36.3 1.6 51.8-49.9 93-110.7 120-177.2 31.3-77.2 43.1-162 34.4-245.4-6.7-63.3-24.5-123.3-53-179.1"/><path d="m55.78 689.6-39.4 37.6c-13.9 13.3-8.2 36.7 10.2 42.1l227.9 66.8c18.5 5.398 35.9-11.2 31.3-29.9l-56-230.7c-4.5-18.7-27.6-25.5-41.6-12.2l-32.7 31.2c-12-31-19.8-63.6-23.3-97.5-6.5-62.2 2.3-125.4 25.6-183 19.6-48.5 49.4-92.9 86.8-129.7 9.4-9.3 10.1-24.3 1.4-34.3l-52.5-60.5c-9.4-10.8-25.9-11.5-36.3-1.6-51.8 49.9-93 110.7-120 177.2-31.3 77.2-43.1 162-34.4 245.4 6.7 63.3 24.5 123.3 53 179.1"/></g></svg>
