<svg viewBox="0 0 22 22" xmlns="http://www.w3.org/2000/svg"><path transform="translate(-.002.008)" d="m11 3a8 8 0 0 0-8 8 8 8 0 0 0 8 8 8 8 0 0 0 8-8 8 8 0 0 0-8-8m-6e-3 3.5c0.764 0 1.385 0.219 1.863 0.658 0.479 0.431 0.719 0.984 0.719 1.658 0 0.293-0.081 0.59-0.24 0.891-0.16 0.303-0.306 0.516-0.428 0.647-0.117 0.121-0.285 0.281-0.504 0.476l-0.062 0.061c-0.512 0.447-0.77 0.894-0.77 1.341v0.487h-1.183v-0.573c0-0.365 0.08-0.679 0.24-0.939 0.159-0.268 0.441-0.582 0.844-0.939 0.226-0.208 0.386-0.354 0.478-0.452 0.099-0.105 0.197-0.247 0.289-0.425 0.101-0.187 0.153-0.381 0.153-0.575 0-0.374-0.127-0.674-0.383-0.902-0.24-0.228-0.579-0.342-1.016-0.342-0.722 0-1.218 0.392-1.486 1.172l-1.084-0.439c0.176-0.464 0.48-0.879 0.908-1.245 0.437-0.373 0.99-0.56 1.662-0.56m-0.014 7.342c0.244 0 0.446 0.081 0.606 0.248 0.168 0.159 0.252 0.352 0.252 0.58s-0.084 0.42-0.252 0.586c-0.16 0.162-0.362 0.244-0.606 0.244-0.243 0-0.449-0.082-0.617-0.244-0.159-0.166-0.238-0.358-0.238-0.586s0.079-0.421 0.238-0.58c0.168-0.167 0.374-0.248 0.617-0.248" fill="#fff" fill-rule="evenodd"/></svg>
