<svg viewBox="0 0 22 22" xmlns="http://www.w3.org/2000/svg"><g transform="translate(-461.7 -525.8)" fill="#f2f2f2"><path d="m474.7 536.8 4e-3 9.1 2.726-3.289 4.27-0.211-7-5.6" fill-rule="evenodd"/><path d="m471.7 531.8h2v2h-2z"/><path d="m471.7 534.8h2v7h-2z"/><path transform="translate(461.7 525.8)" d="m11 3c-4.432 0-8 3.568-8 8s3.568 8 8 8c0.339 0 0.672-0.028 1-0.068v-1.01c-0.328 0.047-0.659 0.078-1 0.078-3.878 0-7-3.122-7-7s3.122-7 7-7 7 3.122 7 7c0 0.696-0.105 1.366-0.293 2h1.033c0.164-0.64 0.26-1.308 0.26-2 0-4.432-3.568-8-8-8"/></g></svg>
