<svg viewBox="0 0 22 22" xmlns="http://www.w3.org/2000/svg"><path transform="translate(0-.002)" d="m11 3a8 8 0 0 0-8 8 8 8 0 0 0 8 8 8 8 0 0 0 8-8 8 8 0 0 0-8-8m0.137 3.06c0.706 0 1.38 0.134 2.021 0.409 0.642 0.275 1.156 0.643 1.541 1.101l-0.867 0.866c-0.651-0.78-1.549-1.168-2.695-1.168-1.037 0-1.935 0.366-2.696 1.099-0.751 0.723-1.127 1.673-1.127 2.832 0 1.164 0.376 2.113 1.127 2.841 0.761 0.729 1.659 1.09 2.696 1.09 1.1 0 2.016-0.365 2.75-1.1 0.476-0.475 0.753-1.138 0.826-1.99h-3.576v-1.185h4.771c0.046 0.255 0.069 0.504 0.069 0.743 0 1.375-0.407 2.472-1.223 3.287-0.926 0.971-2.132 1.457-3.617 1.457-1.421 0-2.63-0.49-3.629-1.471-0.99-0.99-1.488-2.214-1.488-3.672 0-1.457 0.498-2.675 1.488-3.656 0.999-0.99 2.208-1.483 3.629-1.483" fill="#fff" fill-rule="evenodd"/></svg>
