<svg viewBox="0 0 22 22" xmlns="http://www.w3.org/2000/svg"><path transform="translate(0-.002)" d="m11 3a8 8 0 0 0-8 8 8 8 0 0 0 8 8 8 8 0 0 0 8-8 8 8 0 0 0-8-8m0 2c0.08 0 0.134 0.03 0.174 0.08l1.207 1.662 1.955-0.631c0.062-0.026 0.128-0.017 0.195 0.028 0.058 0.044 0.086 0.102 0.086 0.174v2.05l1.957 0.647c0.072 0.02 0.117 0.06 0.135 0.131 0.022 0.071 0.013 0.137-0.027 0.195l-1.205 1.66 1.205 1.662c0.04 0.054 0.049 0.12 0.027 0.196-0.018 0.066-0.063 0.11-0.135 0.132l-1.957 0.643v2.051c0 0.071-0.028 0.129-0.086 0.174-0.067 0.044-0.133 0.054-0.195 0.027l-1.955-0.629-1.207 1.66c-0.045 0.058-0.104 0.088-0.174 0.088-0.071 0-0.129-0.03-0.174-0.088l-1.207-1.66-1.955 0.629c-0.062 0.027-0.128 0.017-0.195-0.027-0.058-0.045-0.088-0.103-0.088-0.174v-2.051l-1.955-0.643c-0.072-0.022-0.117-0.066-0.135-0.132-0.022-0.076-0.013-0.142 0.027-0.196l1.205-1.662-1.205-1.66c-0.04-0.058-0.049-0.124-0.027-0.195 0.018-0.071 0.063-0.111 0.135-0.131l1.955-0.647v-2.05c0-0.072 0.03-0.13 0.088-0.174 0.067-0.045 0.133-0.054 0.195-0.028l1.955 0.631 1.207-1.662c0.04-0.05 0.098-0.08 0.174-0.08m0 2.137c-0.523 0-1.022 0.101-1.498 0.304-0.472 0.204-0.886 0.478-1.232 0.825-0.347 0.346-0.621 0.754-0.825 1.234-0.203 0.476-0.304 0.973-0.304 1.496s0.101 1.024 0.304 1.498c0.204 0.476 0.478 0.886 0.825 1.233 0.346 0.343 0.76 0.62 1.232 0.824 0.476 0.203 0.975 0.304 1.498 0.304s1.02-0.101 1.498-0.304c0.476-0.203 0.886-0.481 1.232-0.824 0.35-0.347 0.621-0.757 0.825-1.233 0.203-0.474 0.304-0.975 0.304-1.498 0-0.522-0.101-1.02-0.304-1.496-0.204-0.48-0.475-0.888-0.825-1.234-0.346-0.347-0.756-0.621-1.232-0.825-0.478-0.203-0.975-0.304-1.498-0.304m-1.463 1.777c0.368 0 0.668 0.298 0.668 0.666 0 0.369-0.3 0.668-0.668 0.668s-0.666-0.299-0.666-0.668c0-0.368 0.298-0.666 0.666-0.666m3.026 0c0.368 0 0.667 0.298 0.667 0.666 0 0.369-0.299 0.668-0.667 0.668-0.369 0-0.667-0.299-0.667-0.668 0-0.368 0.298-0.666 0.667-0.666m-3.741 2.945c0.127 0 0.248 0.073 0.299 0.201 0.299 0.716 1.038 1.182 1.889 1.182 0.823 0 1.56-0.466 1.871-1.182 0.071-0.167 0.259-0.242 0.424-0.171 0.164 0.07 0.238 0.26 0.168 0.424-0.413 0.956-1.383 1.574-2.463 1.574-1.112 0-2.085-0.621-2.485-1.582-0.068-0.165 9e-3 -0.354 0.174-0.422 0.041-0.017 0.082-0.024 0.123-0.024" fill="#fff" fill-rule="evenodd"/></svg>
