<svg viewBox="0 0 22 22" xmlns="http://www.w3.org/2000/svg"><path transform="translate(0-.002)" d="m4 3c-0.554 0-1 0.446-1 1v14c0 0.554 0.446 1 1 1h14c0.554 0 1-0.446 1-1v-14c0-0.554-0.446-1-1-1h-14m3.119 3a1.27 1.27 0 0 1 1.27 1.27 1.27 1.27 0 0 1-1.27 1.271 1.27 1.27 0 0 1-1.27-1.271 1.27 1.27 0 0 1 1.27-1.27m3.873 0a1.27 1.27 0 0 1 1.27 1.27 1.27 1.27 0 0 1-1.27 1.271 1.27 1.27 0 0 1-1.27-1.271 1.27 1.27 0 0 1 1.27-1.27m3.889 0a1.27 1.27 0 0 1 1.27 1.27 1.27 1.27 0 0 1-1.27 1.27 1.27 1.27 0 0 1-1.27-1.27 1.27 1.27 0 0 1 1.27-1.27m0 3.697a1.27 1.27 0 0 1 1.27 1.271 1.27 1.27 0 0 1-1.27 1.27 1.27 1.27 0 0 1-1.27-1.27 1.27 1.27 0 0 1 1.27-1.271m-7.762 0.001953a1.27 1.27 0 0 1 1.27 1.27 1.27 1.27 0 0 1-1.27 1.27 1.27 1.27 0 0 1-1.27-1.27 1.27 1.27 0 0 1 1.27-1.27m3.873 0a1.27 1.27 0 0 1 1.27 1.27 1.27 1.27 0 0 1-1.27 1.27 1.27 1.27 0 0 1-1.27-1.27 1.27 1.27 0 0 1 1.27-1.27m-3.873 3.762a1.27 1.27 0 0 1 1.27 1.27 1.27 1.27 0 0 1-1.27 1.27 1.27 1.27 0 0 1-1.27-1.27 1.27 1.27 0 0 1 1.27-1.27" fill="#fff" fill-rule="evenodd"/></svg>
