<svg viewBox="0 0 22 22" xmlns="http://www.w3.org/2000/svg"><g transform="translate(-421.7 -525.8)" fill="#f2f2f2"><path d="m426.2 544.8a1.5 1.5 0 0 1-1.5-1.5 1.5 1.5 0 0 1 1.5-1.5 1.5 1.5 0 0 1 1.5 1.5 1.5 1.5 0 0 1-1.5 1.5m0-1a0.5 0.5 0 0 0 0.5-0.5 0.5 0.5 0 0 0-0.5-0.5 0.5 0.5 0 0 0-0.5 0.5 0.5 0.5 0 0 0 0.5 0.5"/><path d="m426.2 531.8a1.5 1.5 0 0 1-1.5-1.5 1.5 1.5 0 0 1 1.5-1.5 1.5 1.5 0 0 1 1.5 1.5 1.5 1.5 0 0 1-1.5 1.5m0-1a0.5 0.5 0 0 0 0.5-0.5 0.5 0.5 0 0 0-0.5-0.5 0.5 0.5 0 0 0-0.5 0.5 0.5 0.5 0 0 0 0.5 0.5"/><path d="m439.2 544.8a1.5 1.5 0 0 1-1.5-1.5 1.5 1.5 0 0 1 1.5-1.5 1.5 1.5 0 0 1 1.5 1.5 1.5 1.5 0 0 1-1.5 1.5m0-1a0.5 0.5 0 0 0 0.5-0.5 0.5 0.5 0 0 0-0.5-0.5 0.5 0.5 0 0 0-0.5 0.5 0.5 0.5 0 0 0 0.5 0.5"/><path transform="scale(1-1)" d="m438.7-542.8h1v4h-1z"/><path d="m438.7 538.8a1 1 0 0 0-1-1h-10a2 2 0 0 1-2-2h1a1 1 0 0 0 1 1h10a2 2 0 0 1 2 2h-1"/><path d="m438.7 535.8a1 1 0 0 1-1 1h-10a2 2 0 0 0-2 2h1a1 1 0 0 1 1-1h10a2 2 0 0 0 2-2h-1"/><path d="m425.7 530.8h1v5h-1z"/><path d="m425.7 538.8h1v4h-1z"/><path d="m439.2 531.8a1.5 1.5 0 0 1-1.5-1.5 1.5 1.5 0 0 1 1.5-1.5 1.5 1.5 0 0 1 1.5 1.5 1.5 1.5 0 0 1-1.5 1.5m0-1a0.5 0.5 0 0 0 0.5-0.5 0.5 0.5 0 0 0-0.5-0.5 0.5 0.5 0 0 0-0.5 0.5 0.5 0.5 0 0 0 0.5 0.5"/><path d="m438.7 530.8h1v5h-1z"/></g></svg>
