<svg viewBox="0 0 22 22" xmlns="http://www.w3.org/2000/svg"><g transform="matrix(.1615 0 0 .1615 1.904 1.632)" fill="#fff" fill-opacity=".8"><path d="m57.57 8.464c-1.412 0-2.634 0.517-3.666 1.548l-27.13 27.13h-21.35c-1.413 0-2.635 0.517-3.667 1.548-1.032 1.032-1.548 2.255-1.548 3.667v31.28c0 1.412 0.516 2.635 1.548 3.666 1.033 1.032 2.255 1.549 3.667 1.549h21.34l27.13 27.13c1.032 1.031 2.254 1.548 3.666 1.548 1.413 0 2.635-0.517 3.667-1.548s1.548-2.254 1.548-3.666v-88.64c0-1.412-0.516-2.635-1.547-3.667-1.033-1.031-2.254-1.548-3.667-1.548"/><path transform="matrix(.459 0 0 .459 68.7 38.09)" d="m68.99 48 23.95-23.95c1.521-1.52 2.281-3.367 2.281-5.54s-0.761-4.02-2.281-5.54l-11.08-11.08c-1.521-1.521-3.367-2.281-5.539-2.281-2.174 0-4.02 0.76-5.541 2.281l-23.95 23.95-23.95-23.95c-1.52-1.521-3.367-2.281-5.54-2.281-2.172 0-4.02 0.76-5.54 2.281l-11.08 11.08c-1.52 1.52-2.281 3.367-2.281 5.54s0.76 4.02 2.281 5.54l23.95 23.95-23.95 23.95c-1.52 1.521-2.281 3.367-2.281 5.54s0.76 4.02 2.281 5.54l11.08 11.08c1.521 1.521 3.368 2.281 5.54 2.281 2.173 0 4.02-0.761 5.54-2.281l23.95-23.95 23.95 23.95c1.521 1.521 3.366 2.281 5.541 2.281 2.172 0 4.02-0.761 5.539-2.281l11.08-11.08c1.521-1.52 2.281-3.367 2.281-5.54s-0.76-4.02-2.281-5.54l-23.95-23.95"/></g></svg>
