<svg viewBox="0 0 22 22" xmlns="http://www.w3.org/2000/svg"><g fill="#f2f2f2"><path d="m14 3-5.264 7.178a4.5 4.5 0 0 1 0.9531 0.3926l4.428-6.04 3.352 3.352-6.04 4.432a4.5 4.5 0 0 1 0.3965 0.9473l7.176-5.262-5-5m-10.25 13.98-0.748 1.02 1 1 1.02-0.748a4.5 4.5 0 0 1-1.271-1.271" fill-rule="evenodd"/><path d="m7.5 10c-1.193.0001-2.337.476-3.18 1.32a4.5 4.5 0 0 0 -.626953 .78711l6.201 6.201a4.5 4.5 0 0 0 .785157 -.628906c.844-.843 1.319-1.987 1.32-3.18 0-2.485-2.01-4.5-4.5-4.5m0 1c1.933 0 3.5 1.567 3.5 3.5-.0001.928-.371 1.817-1.027 2.473l-4.945-4.945c.655-.657 1.545-1.026 2.473-1.027"/><g fill-rule="evenodd"><path d="m5.914 3.086-2.828 2.83 3.672 3.67 2.828-2.828-3.672-3.672m9.328 9.328-2.828 2.83 3.672 3.672 2.828-2.83-3.672-3.672" color-rendering="auto" image-rendering="auto" shape-rendering="auto" solid-color="#000000" isolation="auto" mix-blend-mode="normal" white-space="normal"/><path d="m5.787 14.2-1.396 1.904a3.5 3.5 0 0 0 1.506 1.502l1.902-1.395-2.01-2.01"/></g></g></svg>
