<svg viewBox="0 0 22 22" xmlns="http://www.w3.org/2000/svg"><g transform="translate(0 -1030)" fill="#f2f2f2"><circle cx="11" cy="1041" r="2"/><path transform="translate(0 1030)" d="m11 6a5 5 0 0 0-5 5 5 5 0 0 0 5 5 5 5 0 0 0 5-5 5 5 0 0 0-5-5m0 1a4 4 0 0 1 4 4 4 4 0 0 1-4 4 4 4 0 0 1-4-4 4 4 0 0 1 4-4"/><circle transform="matrix(-.5 .866 -.866 -.5 0 0)" cx="896.8" cy="-534.5" r="1.5"/><path transform="translate(0 1030)" d="m11 3a8 8 0 0 0-8 8 8 8 0 0 0 8 8 8 8 0 0 0 8-8 8 8 0 0 0-8-8m0 1a7 7 0 0 1 7 7 7 7 0 0 1-7 7 7 7 0 0 1-7-7 7 7 0 0 1 7-7"/><circle transform="matrix(.866 .5 -.5 .866 0 0)" cx="528.2" cy="903.9" r="1.5"/></g></svg>
