<svg viewBox="0 0 22 22" xmlns="http://www.w3.org/2000/svg"><defs><clipPath id="b"><path d="m.09-.09h64v64h-64z"/></clipPath><clipPath id="a"><path d="m.09-.09h64v64h-64z"/></clipPath><clipPath id="c"><path d="m.09-.09h64v64h-64z"/></clipPath><clipPath id="e"><path d="m.09-.09h64v64h-64z"/></clipPath><clipPath id="f"><path d="m.09-.09h64v64h-64z"/></clipPath><clipPath id="d"><path d="m.09-.09h64v64h-64z"/></clipPath></defs><g fill="#f2f2f2"><path transform="matrix(.25 0 0 .2496 2.977 3.02)" d="m70.1 46.75c-22.83 14.18-52.04 13.97-74.69-0.619l-3.602 3.602c24.7 16.4 57 16.6 81.89 0.619l-3.602-3.602" clip-path="url(#f)"/><g fill-rule="evenodd"><path transform="matrix(.25 0 0 .2496 2.977 3.045)" d="m32.09-3.287l-2.708 2.186.172 68.862 2.499 2.051 2.443-1.95-.122-69.29-2.284-1.857" clip-path="url(#e)"/><path transform="matrix(.25 0 0 .2496 2.977 3.02)" d="m21.53-6.305-3.318 1.049-24.91 64.2 1.581 2.82 2.985-0.926 25.12-64.58-1.451-2.561" clip-path="url(#d)"/><path transform="matrix(.25 0 0 .2496 2.977 3.02)" d="m42.8-7.872-1.74 3.01 24.96 64.18 3.07 1.013 1.577-2.699-25.07-64.6-2.799-0.91" clip-path="url(#c)"/></g><path transform="matrix(.25 0 0 .2496 2.977 3.02)" d="m71.55 23.05c-22.83 14.18-52.04 13.97-74.69-0.619l-3.602 3.602c24.7 16.4 57 16.6 81.89 0.619l-3.602-3.602" clip-path="url(#b)"/><path transform="matrix(.25 0 0 .2496 2.977 3.02)" d="m70.49-0.326c-22.83 14.18-52.04 13.97-74.69-0.619l-3.602 3.602c24.7 16.4 57 16.6 81.89 0.619l-3.602-3.602" clip-path="url(#a)"/></g></svg>
