<svg viewBox="0 0 22 22" xmlns="http://www.w3.org/2000/svg"><path d="m8 3a5 5 0 0 1-0.08398 0.8848 5 5 0 0 1-0.1113 0.4844 5 5 0 0 1 0 0.001953 5 5 0 0 1-0.1621 0.4746 5 5 0 0 1 0 0.001953 5 5 0 0 1-2.598 2.707 5 5 0 0 1-0.4551 0.1797 5 5 0 0 1-0.009766 0.003906 5 5 0 0 1-0.01172 0.003907 5 5 0 0 1-0.4551 0.127 5 5 0 0 1-0.01562 0.003906 5 5 0 0 1-1.098 0.127v1a6 6 0 0 0 1.414-0.1758l0.9509 2.852c-0.765 0.211-1.561 0.322-2.365 0.324v0.662c1.684 0 3.332-0.414 4.801-1.187l0.67 1.052 0.539 0.842v2e-3a12 12 0 0 0 0.8416-0.5351l-0.003563-0.005938c2.074-1.447 3.693-3.539 4.527-6.059l2.154 0.616 0.741 0.248c0.474-1.475 0.727-3.081 0.73-4.635h-1c-4e-3 1.116-0.155 2.262-0.426 3.359l-7.693-2.199a6 6 0 0 0 0.119-1.16h-1m0.609 2.123 4.809 1.375c-0.765 2.279-2.231 4.175-4.105 5.492l-0.649-1.019-0.424-0.668a9 9 0 0 1-0.699 0.4509c-0.395 0.2321-0.808 0.4241-1.23 0.5941l-0.946-2.836a6 6 0 0 0 3.244-3.389m3.514 5.666a12 12 0 0 1-0.6816 0.7324l1.452 1.348c-2.614 2.623-6.163 4.128-9.893 4.131v1c4.01-6e-3 7.816-1.632 10.62-4.459l2.209 2.053a18 18 0 0 1-4.637 3.406h2.02a19 19 0 0 0 3.346-2.729l0.009312 0.007516a19 19 0 0 0 0.6821-0.7321l-0.006094-0.003875a19 19 0 0 0 1.76-2.297v-2.039a18 18 0 0 1-2.508 3.641l-2.179-2.026-2.193-2.033" fill="#f2f2f2"/></svg>
