<svg viewBox="0 0 22 22" xmlns="http://www.w3.org/2000/svg"><path transform="translate(0-.032)" d="m4.6 3c-.443 0-.799.358-.799.801v14.398c0 .443.356.801.799.801h12.801c.443 0 .799-.358.799-.801v-14.398c0-.443-.356-.801-.799-.801h-12.801m7.762 4.867c.151 0 .303.057.418.172.231.23.231.604 0 .834l-2.572 2.326 2.572 2.328c.231.23.231.604 0 .834-.231.23-.605.23-.836 0l-2.992-2.707c-.125-.125-.178-.292-.168-.455-.001-.163.043-.329.168-.453l2.992-2.707c.115-.115.267-.172.418-.172" fill="#fff" stroke-opacity=".55" stroke-width="2.8"/></svg>
