<svg viewBox="0 0 22 22" xmlns="http://www.w3.org/2000/svg"><g transform="translate(-544.6 -742.9)" fill="#f2f2f2"><path d="m557.2 759.1 0.707-0.707 1.621 1.621v-4.657h1v4.657l1.621-1.621 0.707 0.707-2.828 2.828-2.828-2.828"/><g fill-rule="evenodd"><path d="m549.6 751.9h-2v-2h1v1h1z"/><path d="m549.6 745.9h-2v2h1v-1h1z"/><path d="m551.6 751.9h2v-2h-1v1h-1z"/><path d="m551.6 745.9h2v2h-1v-1h-1z"/></g><path transform="translate(544.6 742.9)" d="m12 3v1h6v6h1v-7h-7m-9 9v7h7v-1h-6v-6h-1"/></g></svg>
