<svg viewBox="0 0 22 22" xmlns="http://www.w3.org/2000/svg"><path transform="translate(0-.004)" d="m11 3c-4.418 0-8 3.582-8 8s3.582 8 8 8 8-3.582 8-8-3.582-8-8-8m0.109 3.428s-0.11 1e-4 0.393 0.021c2.362 0.204 4.178 2.18 4.18 4.551 0 2.525-2.048 4.572-4.572 4.572-2.525 0-4.572-2.048-4.572-4.572 0-2.525 2.048-4.572 4.572-4.572m0 1.145c-1.894 0-3.428 1.534-3.428 3.428s1.534 3.428 3.428 3.428 3.428-1.534 3.428-3.428-1.534-3.428-3.428-3.428m0 1.143c0.234 0 0.456 0.045 0.668 0.109-0.393 0.18-0.668 0.571-0.668 1.033 0 0.633 0.509 1.143 1.143 1.143 0.462 0 0.853-0.275 1.033-0.668 0.065 0.212 0.109 0.434 0.109 0.668 0 1.266-1.019 2.285-2.285 2.285s-2.285-1.019-2.285-2.285 1.019-2.285 2.285-2.285" fill="#1d99f3"/></svg>
