<svg viewBox="0 0 22 22" xmlns="http://www.w3.org/2000/svg"><g transform="matrix(1.354 0 0 -1.354 -531.3 730.4)" fill="#fdbc4b" stroke="#fdbc4b"><path transform="matrix(1.205 0 0 1.205 -40.63 -111.9)" d="m366.64 530.54c-.174.174-.385.261-.632.261-.248 0-.458-.087-.632-.261-.174-.174-.261-.385-.261-.633 0-.247.087-.458.261-.633.174-.174.385-.261.632-.261.248 0 .458.087.632.261.174.174.261.385.261.633 0 .247-.087.458-.261.633z" stroke-width=".498"/><rect x="399.8" y="529.4" width="1.5" height="7.646" rx=".75" ry=".8" fill-rule="evenodd" stroke-linecap="round" stroke-linejoin="round" stroke-width=".6"/></g></svg>
