<svg viewBox="0 0 22 22" xmlns="http://www.w3.org/2000/svg" xmlns:xlink="http://www.w3.org/1999/xlink"><g transform="matrix(1.748 0 0 1.748 -605.2 -942.4)" fill="#fff" stroke="#fff"><path id="a" transform="matrix(.01458 -5e-5 5e-5 .01458 352.9 542.2)" d="m345.4 248.3-194.3 194.3c-12.36 12.36-32.4 12.36-44.75 0-12.35-12.35-12.35-32.39 0-44.74l171.9-171.9-171.9-171.9c-12.35-12.36-12.35-32.39 0-44.75 12.35-12.36 32.39-12.36 44.75 0l194.3 194.3c6.177 6.18 9.262 14.27 9.262 22.37 0 8.099-3.091 16.2-9.267 22.37z" fill="#fff" stroke="#fff" stroke-width="28.32"/><circle transform="matrix(2.197 0 0 2.197 -395.7 -660.4)" cx="340.6" cy="549" r=".421" fill="#fff" fill-rule="evenodd" stroke="#fff" stroke-linecap="square" stroke-width=".158"/><use transform="matrix(-1 0 0 1 705.1 1e-4)" xlink:href="#a"/></g></svg>
