<svg viewBox="0 0 22 22" xmlns="http://www.w3.org/2000/svg"><path transform="matrix(1.13 0 0 1.127 -451.5 -593.9)" d="m409 531-5.244 6.733c-0.983 1.262-0.708 3.511 0.55 4.497 1.259 0.986 3.5 0.71 4.484-0.552l5.244-6.733 0.655-0.842c0.656-0.842 0.472-2.341-0.367-2.998-0.839-0.658-2.334-0.473-2.989 0.368l-4.589 5.892-0.656 0.842c-0.328 0.421-0.236 1.17 0.183 1.499 0.42 0.329 1.167 0.237 1.495-0.184l4.589-5.891 0.839 0.658-4.589 5.891c-0.656 0.842-2.15 1.026-2.989 0.368s-1.023-2.157-0.367-2.998l5.245-6.733c0.983-1.262 3.225-1.538 4.484-0.552s1.534 3.235 0.551 4.497l-5.9 7.575c-1.311 1.683-4.3 2.051-5.978 0.736s-2.045-4.313-0.734-5.997l5.244-6.733 0.839 0.658" fill="#fff" stroke-opacity=".8" stroke-width=".071"/></svg>
