<svg viewBox="0 0 22 22" xmlns="http://www.w3.org/2000/svg"><path transform="translate(-551.3 -607.6)" d="m554.3 610.6v16h16v-16h-16m1 1h4v4.707a7 3 0 0 1-4-2.707v-2m5 0h4v4.873a7 3 0 0 1-2 0.127 7 3 0 0 1-2-0.127v-4.873m5 0h4v2a7 3 0 0 1-4 2.707v-4.707m-10 3.928a8 4 0 0 0 4 1.777v2.59a8 4 0 0 0-4 1.777v-6.145m14 8e-3v6.129a8 4 0 0 0-4-1.77v-2.59a8 4 0 0 0 4-1.77m-9 1.932a8 4 0 0 0 2 0.1328 8 4 0 0 0 2-0.1309v2.262a8 4 0 0 0-2-0.1309 8 4 0 0 0-2 0.1328v-2.266m2 3.133a7 3 0 0 1 2 0.127v4.873h-4v-4.873a7 3 0 0 1 2-0.127m-3 0.293v4.707h-4v-2a7 3 0 0 1 4-2.707m6 0a7 3 0 0 1 4 2.707v2h-4v-4.707" fill="#f2f2f2"/></svg>
