<svg viewBox="0 0 22 22" xmlns="http://www.w3.org/2000/svg"><path d="m11.12 3a8 8 0 0 0-5.773 2.344 8 8 0 0 0 0 11.31 8 8 0 0 0 11.31 0 8 8 0 0 0 0-11.31 8 8 0 0 0-5.539-2.344m-0.2188 1a7 7 0 0 1 4.68 1.715l-1.404 1.404a8 5 45 0 0-5.424-2.742 7 7 0 0 1 2.148-0.377m-3.027 1.307a7 4 45 0 1 5.594 2.521l-2.465 2.465-4.551-4.551a7 4 45 0 1 1.422-0.4354m8.42 1.109a7 7 0 0 1 1.336 6.811 8 5 45 0 0-2.75-5.396l1.414-1.414m-10.55 0.031 4.553 4.553-2.467 2.467a7 4 45 0 1-2.086-7.02m8.434 2.086a7 4 45 0 1 2.086 7.02l-4.553-4.553 2.467-2.467m-9.801 0.2404a8 5 45 0 0 2.75 5.396l-1.414 1.414a7 7 0 0 1-1.336-6.811m6.627 2.934 4.551 4.551a7 4 45 0 1-7.016-2.086l2.465-2.465m-3.174 3.174a8 5 45 0 0 5.424 2.742 7 7 0 0 1-6.828-1.338l1.404-1.404" fill="#f2f2f2"/></svg>
