<svg viewBox="0 0 22 22" xmlns="http://www.w3.org/2000/svg"><g transform="translate(-421.7 -525.8)" fill="#fff"><path transform="translate(421.7 525.8)" d="m4.5 3c-0.828 0-1.5 0.672-1.5 1.5s0.672 1.5 1.5 1.5 1.5-0.672 1.5-1.5-0.672-1.5-1.5-1.5m2.5 1v1h1v-1h-1m2 0v1h10v-1h-10m0 2v1h3v-1h-3m-4.5 3c-0.828 0-1.5 0.672-1.5 1.5s0.672 1.5 1.5 1.5 1.5-0.672 1.5-1.5-0.672-1.5-1.5-1.5m2.5 1v1h1v-1h-1m2 0v1h10v-1h-10m0 2v1h1v-1h-1m-4.5 3c-0.828 0-1.5 0.672-1.5 1.5s0.672 1.5 1.5 1.5 1.5-0.672 1.5-1.5-0.672-1.5-1.5-1.5m2.5 1v1h1v-1h-1"/><path d="m432.7 538.8v5h1v-4h6v3h-2v-1l-3 1.5 3 1.5v-1h3v-5h-8"/></g></svg>
