<svg viewBox="0 0 22 22" xmlns="http://www.w3.org/2000/svg"><path transform="matrix(-.04663 0 0 .04663 19.38 1.358)" d="m180.6 265.4c-9.1 0-16.5 7.399-16.5 16.5 0 9.1 7.403 16.5 16.5 16.5 9.1 0 16.5-7.402 16.5-16.5 0-9.1-7.404-16.5-16.5-16.5m-15.66-122.3v90.35c0 8.65 7.01 15.66 15.66 15.66 8.65 0 15.66-7.01 15.66-15.66v-90.35c0-8.651-7.01-15.66-15.66-15.66-8.651 0-15.66 7.01-15.66 15.66m-144.4-35.6c0.105-8.04 6.294-14.69 14.3-15.42 66.54-6.224 120.8-41.78 138.7-54.79 3.741-2.727 8.811-2.727 12.55 0 17.87 13.01 72.17 48.57 138.7 54.79 8.01 0.735 14.16 7.378 14.3 15.42 0.804 52.48-7.623 230.7-155.3 270.3-2.622 0.699-5.385 0.699-8.01 0-147.7-39.62-156.1-217.8-155.3-270.3" fill="#da4453"/></svg>
