<svg viewBox="0 0 22 22" xmlns="http://www.w3.org/2000/svg"><g transform="translate(-327-534.36)"><g fill="#f2f2f2"><path transform="translate(326 532.4)" d="m2 4a10 15 0 0 0 9 14.91v-1.004a9 14 0 0 1-8-13.91h-1m19 0a9 14 0 0 1-8 13.9v1.03a10 15 0 0 0 9-14.93h-1z"/><rect x="330" y="550.4" width="2" height="1" rx="0"/><rect x="344" y="550.4" width="2" height="1" rx="0"/><rect x="342" y="550.4" width="1" height="1" rx="0"/><rect x="333" y="550.4" width="1" height="1" rx="0"/></g><path d="m338 547.4-3 5h6zm0 2 1 2h-2z" color-rendering="auto" fill="#1d99f3" fill-rule="evenodd" image-rendering="auto" shape-rendering="auto" solid-color="#000000" isolation="auto" mix-blend-mode="normal" white-space="normal"/><g fill="#f2f2f2"><path transform="translate(326 532.4)" d="m2 17v3h3v-3h-3m1 1h1v1h-1v-1"/><path d="m345 549.4v3h3v-3h-3m1 1h1v1h-1v-1"/></g></g></svg>
