<svg viewBox="0 0 22 22" xmlns="http://www.w3.org/2000/svg"><g transform="translate(-553.7 -583.1)"><path transform="translate(552.7 582.1)" d="m4 4v3h3v-3h-3m13 0v3h3v-3h-3zm-12 1h1v1h-1v-1m13 0h1v1h-1v-1zm-10 1v1h2v-1h-2m3 0v1h2v-1h-2zm3 0v1h2v-1h-2m-8 2v2h1v-2h-1m11 0v2h1v-2h-1zm-11 3v2h1v-2h-1m11 0v2h1v-2h-1m-11 3v2h1v-2h-1m-2 3v3h3v-3h-3m4 0v1h2v-1h-2m3 0v1h2v-1h-2m-6 1h1v1h-1v-1" color="#f2f2f2"/><g fill="#1d99f3"><path d="m566.7 596.1v2h1v-1h1v-1z"/><path d="m572.7 602.1v-2h-1v1h-1v1z"/><path d="m572.7 596.1h-2v1h1v1h1z"/><path d="m566.7 602.1h2v-1h-1v-1h-1z"/></g></g></svg>
