<svg viewBox="0 0 24 24" xmlns="http://www.w3.org/2000/svg"><g transform="translate(-550.3 -606.6)"><path transform="translate(551.3 607.6)" d="m4 3v14h-1v1h1v1h1v-1h14v-1h-14v-1h3v-8e-3l8e-3 8e-3 2-2h1.592l2 2h5.4v-1h-4.986l-2-2h-2.424l-2 2h-2.594v-5h3.875l4.123-4.123 2.123 2.123 6e-3 -4e-3 4e-3 4e-3 3.869-3.869-0.707-0.707-3.166 3.166-2.127-2.125-2e-3 2e-3 -2e-3 -2e-3 -1.527 1.527h-6.469v-2.992h-1m1 3h6.461l-3 3h-3.461v-3" fill="#fff"/><g fill="#4d4d4d" fill-opacity=".459" fill-rule="evenodd"><path d="m556.3 623.6v1h14v-1h-5.4l-2-2h-1.6l-2 2z"/><path transform="translate(551.3 607.6)" d="m18.93 4.064 0.066 0.066v-4e-3l-0.066-0.063m0.066 0.066-3.869 3.869-4e-3 -4e-3 -6e-3 4e-3 -2.123-2.123-4.123 4.123h-3.875v5h2.594l2-2h0.406l2-8e-3 8e-3 8e-3h6e-3l1.992 1.992 4.994 8e-3v-10.87"/></g></g></svg>
