<svg viewBox="0 0 24 24" xmlns="http://www.w3.org/2000/svg"><g transform="translate(-550.3 -606.6)" fill="#fff"><path transform="translate(551.3 607.6)" d="m4 3v14h-1v1h1v1h1v-1h14v-1h-14v-1h3v-8e-3l8e-3 8e-3 2-2h1.592l2 2h5.4v-1h-4.986l-2-2h-2.424l-2 2h-2.594v-7h2.588l4.535 4.535 2e-3 -2e-3 2e-3 2e-3 2.127-2.125 3.166 3.166 0.707-0.707-3.869-3.869-4e-3 4e-3 -6e-3 -4e-3 -2.123 2.123-4.123-4.123h-2.002v-8e-3h-1v-0.992h7v-1h-7v-2"/><path d="m563.29 610.65v1h1v3h1v-4h-1-1m4.5 0c-.831 0-1.5.669-1.5 1.5v1c0 .831.669 1.5 1.5 1.5.831 0 1.5-.669 1.5-1.5v-1c0-.831-.669-1.5-1.5-1.5m4 0c-.831 0-1.5.669-1.5 1.5v1c0 .831.669 1.5 1.5 1.5.831 0 1.5-.669 1.5-1.5v-1c0-.831-.669-1.5-1.5-1.5m-4 1c.277 0 .5.223.5.5v1c0 .277-.223.5-.5.5-.277 0-.5-.223-.5-.5v-1c0-.277.223-.5.5-.5m4 0c.277 0 .5.223.5.5v1c0 .277-.223.5-.5.5-.277 0-.5-.223-.5-.5v-1c0-.277.223-.5.5-.5"/></g></svg>
