<svg viewBox="0 0 22 22" xmlns="http://www.w3.org/2000/svg"><g transform="matrix(.04332.00944-.00944.04332 4.374.718)" fill="#fff"><path d="m211 178.3c-45.06-21.62-100.5 0.334-123.9 49.03-34.3 71.5 42.76 99.83-20.17 163.5-35.12 35.55 145.3-5.856 183.4-85.25 23.36-48.69 5.768-105.7-39.29-127.3"/><path d="m337.7 44.85-92.11-44.19c-3.521-1.688-7.376-0.029-8.568 3.688 0 0-20.06 60.92-27.05 84.29-1.768 5.902-3.498 9.161 1.848 11.72 16 7.675 51.77 24.84 69.73 33.46 4.662 2.236 6.799-1.559 9.933-6.291 12.63-19.07 48.7-73.68 48.7-73.68 2.153-3.258 1.034-7.304-2.486-8.992"/><path d="m271.5 148.2c-15.84-7.594-48.77-23.4-64.61-31-6.381-3.06-7.568 3.75-8.57 6.469-2.311 6.267-8.163 25.44-8.163 25.44-1.192 3.717 0.991 7.22 4.854 7.785 0 0 14.88 2.175 25.26 7.155 12.85 6.165 26.68 20.94 26.68 20.94 2.666 2.85 6.61 2.518 8.765-0.739 0 0 13.02-18.76 16.77-25.38 1.375-2.431 4.726-7.933-0.989-10.67"/></g></svg>
