<svg viewBox="0 0 22 22" xmlns="http://www.w3.org/2000/svg"><path d="m11 6a10 10 0 0 0-8.686 5.07c0.1855 0.2917 0.4455 0.5267 0.7515 0.6897a9 9 0 0 1 7.934-4.76 4 4 0 0 0-4 4 4 4 0 0 0 4 4 4 4 0 0 0 4-4 4 4 0 0 0-3.656-3.982 9 9 0 0 1 7.588 4.744c0.3094-0.1637 0.5724-0.4027 0.7574-0.7017a10 10 0 0 0-8.689-5.06m0 2a3 3 0 0 1 3 3 3 3 0 0 1-3 3 3 3 0 0 1-3-3 3 3 0 0 1 3-3m0 1c-1.108 0-2 0.892-2 2 0 1.11 0.892 2 2 2 1.11 0 2-0.89 2-2 0-0.205-0.039-0.398-0.096-0.584-0.158 0.344-0.5 0.584-0.904 0.584-0.554 0-1-0.446-1-1 0-0.404 0.24-0.746 0.584-0.9-0.186-0.06-0.379-0.1-0.584-0.1" color="#4d4d4d"/></svg>
