<svg viewBox="0 0 16 16" xmlns="http://www.w3.org/2000/svg"><g fill-rule="evenodd"><path d="m9 2.031a4.5 4.5 0 0 0-1.301 0.3477l0.5038 0.8731a3.5 3.5 0 0 1 0.797-0.2129v-1.008m1 2e-3v1.008a3.5 3.5 0 0 1 0.7969 0.211l0.5021-0.869a4.5 4.5 0 0 0-1.299-0.3498m-3.166 0.8477a4.5 4.5 0 0 0-0.9531 0.9531l0.8731 0.502a3.5 3.5 0 0 1 0.58-0.586l-0.5-0.869m5.332 0-0.502 0.873a3.5 3.5 0 0 1 0.586 0.58l0.87-0.5a4.5 4.5 0 0 0-0.954-0.9531m1.455 1.818-0.873 0.504a3.5 3.5 0 0 1 0.2129 0.797h1.008a4.5 4.5 0 0 0-0.3479-1.301m-8.238 0.001953a4.5 4.5 0 0 0-0.3496 1.299h-0.0332v1h0.03a4.5 4.5 0 0 0 3.97 3.967v0.0332h1v-0.031a4.5 4.5 0 0 0 1.301-0.3479l-0.5038-0.8731a3.5 3.5 0 0 1-0.797 0.211v-3.959h-3.96a3.5 3.5 0 0 1 0.212-0.7969l-0.869-0.5021m-3.383 1.299v2h1v-1h1v-1h-2m4.04 1h2.96v2.959a3.5 3.5 0 0 1-2.961-2.959m6.92 0a3.5 3.5 0 0 1-0.2109 0.7969l0.869 0.5021a4.5 4.5 0 0 0 0.3498-1.299h-1.008m-0.7129 1.664a3.5 3.5 0 0 1-0.5801 0.5859l0.5 0.869a4.5 4.5 0 0 0 0.9531-0.953l-0.8731-0.502m-10.25 0.336v1h1v-1h-1m0 2v1h1v-1h-1m7 1v1h-1v1h2v-2h-1m-7 1v1h1v-1h-1m2 0v1h1v-1h-1m2 0v1h1v-1h-1" fill="#fff"/><path d="m9 7-2.959 0.021a3.5 3.5 0 0 0 2.959 2.938v-2.959" fill="#b3b3b3"/></g></svg>
