<svg viewBox="0 0 16 16" xmlns="http://www.w3.org/2000/svg"><g transform="translate(-421.7 -531.8)"><path d="m425.7 535.8h2v2h-2z" fill="#f47750"/><path d="m423.7 539.8h2v2h-2z" fill="#2ecc71"/><path d="m431.7 535.8h2v2h-2z" fill="#fdbc4b"/><path d="m423.7 535.8h2v2h-2z" fill="#1d99f3"/><path d="m429.7 535.8h2v2h-2z" fill="#da4453"/><path d="m427.7 535.8h2v2h-2z" fill="#2ecc71"/><path d="m427.7 537.8h2v2h-2z" fill="#fdbc4b"/><path d="m425.7 537.8h2v2h-2z" fill="#1d99f3"/><path d="m423.7 537.8h2v2h-2z" fill="#da4453"/><path d="m431.7 537.8h2v2h-2z" fill="#2ecc71"/><path d="m429.7 537.8h2v2h-2z" fill="#f47750"/><path d="m431.7 539.8h2v2h-2z" fill="#fdbc4b"/><path d="m429.7 539.8h2v2h-2z" fill="#1d99f3"/><path d="m427.7 539.8h2v2h-2z" fill="#da4453"/><path d="m425.7 539.8h2v2h-2z" fill="#f47750"/><path d="m429.7 541.8h2v2h-2z" fill="#fdbc4b"/><path d="m427.7 541.8h2v2h-2z" fill="#1d99f3"/><path d="m425.7 541.8h2v2h-2z" fill="#da4453"/><path d="m431.7 541.8h2v2h-2z" fill="#2ecc71"/><path d="m425.7 543.8h2v2h-2z" fill="#fdbc4b"/><path d="m423.7 543.8h2v2h-2z" fill="#1d99f3"/><path d="m433.7 537.8h2v2h-2z" fill="#da4453"/><path d="m433.7 539.8h2v2h-2z" fill="#1d99f3"/><path d="m423.7 541.8h2v2h-2z" fill="#f47750"/><path d="m433.7 535.8h2v2h-2z" fill="#2ecc71"/><path d="m423.7 533.8h2v2h-2z" fill="#fdbc4b"/><path d="m427.7 533.8h2v2h-2z" fill="#1d99f3"/><path d="m425.7 533.8h2v2h-2z" fill="#da4453"/><path d="m431.7 533.8h2v2h-2z" fill="#2ecc71"/><path d="m433.7 533.8h2v2h-2z" fill="#f47750"/><path d="m429.7 533.8h2v2h-2z" fill="#fdbc4b"/><path d="m433.7 541.8h2v2h-2z" fill="#da4453"/><path d="m431.7 543.8h2v2h-2z" fill="#fdbc4b"/><path d="m429.7 543.8h2v2h-2z" fill="#da4453"/><g fill="#2ecc71"><path d="m427.7 543.8h2v2h-2z"/><path d="m433.7 543.8h2v2h-2z"/></g></g></svg>
