<svg viewBox="0 0 22 22" xmlns="http://www.w3.org/2000/svg"><g transform="translate(-327 -533.4)" fill="#fff"><path transform="translate(327 533.4)" d="m14 4.02v0.984h-3v12h3v0.995s-1e-4 1 1.01 1h3.01s0.985 5e-3 0.985-0.983v-3.02s0.013-1-0.985-1h-3.01c-9e-3 0-1.01 0.012-1.01 1.034v0.966h-2v-10h2v1.013s1e-3 0.987 1.01 0.987h2.972s1.019 0.036 1.019-0.965v-3.038c0 3e-3 -1e-3 -0.997-1.019-0.997h-2.981s-1 6e-3 -1 1.016" fill-rule="evenodd"/><path d="m335 536.4-4.915 5.979 3.317 1.794-0.859 4.184 4.915-5.979-3.317-1.795z"/></g></svg>
