<svg viewBox="0 0 22 22" xmlns="http://www.w3.org/2000/svg"><path transform="matrix(.137 0 0 .1386 1 4.488)" d="m144.4 41.38c-7.605-12.44-17.83-22.43-30.68-29.98-12.85-7.55-26.41-11.32-40.7-11.32s-27.85 3.774-40.7 11.32c-12.85 7.55-23.07 17.54-30.68 29.98-1.086 1.901-1.629 3.775-1.629 5.622s0.543 3.721 1.629 5.621c7.604 12.44 17.83 22.43 30.68 29.98 12.85 7.551 26.41 11.32 40.7 11.32s27.85-3.761 40.7-11.28 23.07-17.53 30.68-30.02c1.086-1.9 1.629-3.773 1.629-5.621 0-1.847-0.543-3.721-1.629-5.622m-35.97 32.22c-10.89 6.598-22.69 9.898-35.4 9.898s-24.51-3.299-35.4-9.898-19.95-15.47-27.17-26.6c8.256-12.82 18.6-22.41 31.04-28.76-3.313 5.648-4.97 11.76-4.97 18.33 0 10.05 3.572 18.64 10.71 25.79s15.74 10.71 25.79 10.71c10.05 0 18.64-3.572 25.79-10.71 7.144-7.142 10.71-15.74 10.71-25.79 0-6.572-1.657-12.68-4.971-18.33 12.44 6.354 22.78 15.94 31.04 28.76-7.222 11.14-16.28 20-27.17 26.6" fill="#da4453"/></svg>
