<svg viewBox="0 0 16 16" xmlns="http://www.w3.org/2000/svg"><g transform="translate(-421.7 -531.8)"><g fill="#1d99f3"><path d="m432.7 533.8v3h3v-3zm1 1h1v1h-1z"/><path d="m423.7 533.8v3h3v-3zm1 1h1v1h-1z"/><path d="m432.7 542.8v3h3v-3zm1 1h1v1h-1z"/><path d="m423.7 542.8v3h3v-3zm1 1h1v1h-1z"/></g><g fill="#f2f2f2"><rect x="426.7" y="534.8" width="6" height="1" rx="0"/><rect x="426.7" y="543.8" width="6" height="1" rx="0"/><rect x="433.7" y="536.8" width="1" height="6" rx="0"/><rect x="424.7" y="536.8" width="1" height="6" rx="0"/></g></g></svg>
