<svg viewBox="0 0 22 22" xmlns="http://www.w3.org/2000/svg"><g transform="translate(-326-534.36)"><path transform="translate(326 534.4)" d="m15 5.5a9.5 9.5 0 0 0-9.5 9.5h1.5v3h6v-1.5a3.5 3.5 0 0 1 3.5-3.5h1.5v-6h-3v-1.5" fill="#b3b3b3"/><g fill="#1d99f3" fill-rule="evenodd"><path d="m329 549.4v4h4v-4zm1 1h2v2h-2z"/><path d="m341 537.4v4h4v-4zm1 1h2v2h-2z"/></g><g fill="#f2f2f2"><path transform="translate(326 534.4)" d="M15 4.5A10.5 10.5 0 0 0 4.5 15H5.5A9.5 9.5 0 0 1 15 5.5V4.5"/><path d="m342.5 548.4a2.5 2.5 0 0 0-2.5 2.5 2.5 2.5 0 0 0 0.416 1.377l0.732-0.732a1.5 1.5 0 0 1-0.148-0.645 1.5 1.5 0 0 1 1.5-1.5 1.5 1.5 0 0 1 0.6445 0.1484l0.732-0.732a2.5 2.5 0 0 0-1.377-0.4164m2.084 1.123-0.732 0.732a1.5 1.5 0 0 1 0.148 0.645 1.5 1.5 0 0 1-1.5 1.5 1.5 1.5 0 0 1-0.6445-0.1484l-0.732 0.732a2.5 2.5 0 0 0 1.377 0.416 2.5 2.5 0 0 0 2.5-2.5 2.5 2.5 0 0 0-0.416-1.377z"/></g></g></svg>
