<svg viewBox="0 0 22 22" xmlns="http://www.w3.org/2000/svg"><g transform="matrix(1.005 0 0 1.005 -552 -610.8)" fill="#fff"><path transform="matrix(.02625 0 0 .02625 552.4 610.8)" d="m483.2 0h-150.3c-27.56 0-66.04 15.94-85.52 35.42l-232.8 232.8c-19.48 19.48-19.48 51.37 0 70.85l179.6 179.6c19.48 19.48 51.37 19.48 70.85 0l232.8-232.8c19.48-19.48 35.42-57.97 35.42-85.52v-150.3c-1e-4 -27.55-22.54-50.1-50.1-50.1m-66.57 166.7c-27.61 0-50-22.38-50-50 0-27.61 22.39-50 50-50s50 22.39 50 50-22.39 50-50 50z"/><path transform="matrix(.9951 0 0 .9951 549.3 607.8)" d="m15.11 11.643c-.311.0001-.623.044-.934.127-.621.165-1.163.481-1.627.947-.464.466-.776 1.01-.938 1.633-.162.622-.161 1.244.004 1.865.165.621.483 1.165.949 1.629.466.464 1.01.776 1.633.938.622.162 1.244.16 1.865-.006.621-.165 1.165-.481 1.629-.947.464-.466.776-1.01.938-1.633.162-.622.159-1.246-.006-1.867-.165-.621-.481-1.163-.947-1.627-.466-.464-1.012-.776-1.635-.938-.311-.081-.621-.122-.932-.121m.305 1.512c.085 0 .157.03.217.09.058.058.088.128.088.213l.004 1.209 1.207-.004c.085 0 .157.028.215.086.06.06.09.132.09.217l.002.602c0 .085-.03.157-.09.217-.058.058-.128.088-.213.088l-1.209.004.004 1.207c0 .085-.028.157-.086.215-.06.06-.132.09-.217.09l-.6.002c-.085 0-.159-.03-.219-.09-.058-.058-.086-.128-.086-.213l-.004-1.209-1.209.004c-.085 0-.155-.028-.213-.086-.06-.06-.092-.132-.092-.217l-.002-.6c0-.085.03-.158.09-.219.058-.058.128-.086.213-.086l1.209-.004-.004-1.209c0-.084.028-.155.086-.213.06-.06.132-.092.217-.092l.602-.002" stroke-width="3.43"/></g></svg>
