<svg viewBox="0 0 22 22" xmlns="http://www.w3.org/2000/svg"><g transform="translate(-421.7 -525.8)"><g fill="#f2f2f2" font-family="Sans" font-size="9" letter-spacing="0" word-spacing="0" line-height="125%"><text x="408.1" y="549.41"><tspan x="408.1" y="549.41"/></text><text x="408.84" y="543.54"><tspan x="408.84" y="543.54"/></text><text x="402.1" y="550.41"><tspan x="402.1" y="550.41"/></text></g><path d="m430.7 528.8-4 3 4 3z" fill="#1d99f3"/><g fill="#f2f2f2"><g font-family="Sans" font-size="12.46" letter-spacing="0" word-spacing="0" line-height="125%"><text x="429.66" y="550.75"><tspan x="429.66" y="550.75"/></text><text x="430.68" y="542.63"><tspan x="430.68" y="542.63"/></text><text x="421.35" y="552.13"><tspan x="421.35" y="552.13"/></text></g><path d="m426.7 536.8a4 4 0 0 0-4 4 4 4 0 0 0 4 4 4 4 0 0 0 3-1.361v1.361h1v-8h-1v1.361a4 4 0 0 0-3-1.361m0 1a3 3 0 0 1 3 3 3 3 0 0 1-3 3 3 3 0 0 1-3-3 3 3 0 0 1 3-3"/><path d="m434.7 536.8v8h1v-1.361a4 4 0 0 0 3 1.361 4 4 0 0 0 4-4 4 4 0 0 0-4-4 4 4 0 0 0-3 1.361v-1.361h-1m4 1a3 3 0 0 1 3 3 3 3 0 0 1-3 3 3 3 0 0 1-3-3 3 3 0 0 1 3-3"/></g><path d="m434.7 528.8 4 3-4 3z" fill="#1d99f3"/></g></svg>
