<svg viewBox="0 0 22 22" xmlns="http://www.w3.org/2000/svg"><path transform="matrix(1.125 0 0 1.125-2.504-2.502)" d="m4 4v6h3c1.108 0 2-0.892 2-2 0-0.811-0.481-1.502-1.172-1.816 0.106-0.206 0.172-0.435 0.172-0.684 0-0.831-0.669-1.5-1.5-1.5h-2.5m11 0v6h3c1.108 0 2-0.892 2-2v-2c0-1.108-0.892-2-2-2h-3m-10 1h1.5c0.277 0 0.5 0.223 0.5 0.5s-0.223 0.5-0.5 0.5h-1.5v-1m11 0h2c0.554 0 1 0.446 1 1v2c0 0.554-0.446 1-1 1h-2v-4m-11 2h2c0.554 0 1 0.446 1 1s-0.446 1-1 1h-2v-2m6 0v1h2v-1h-2zm-6 6v1h2v-1h-2m4 0v1h2v-1h-2m4 0v1h2v-1h-2m4 0v1h2v-1h-2m-11 3-2 2 2 2v-4m12 0v4l2-2-2-2m-6 1c-0.554 0-1 0.446-1 1s0.446 1 1 1 1-0.446 1-1-0.446-1-1-1" fill="#fff"/></svg>
