<svg viewBox="0 0 22 22" xmlns="http://www.w3.org/2000/svg"><g transform="translate(-421.7 -525.8)"><g fill="#f2f2f2"><g font-family="Sans" letter-spacing="0" word-spacing="0" line-height="125%"><g font-size="9"><text x="408.1" y="549.41"><tspan x="408.1" y="549.41"/></text><text x="408.84" y="543.54"><tspan x="408.84" y="543.54"/></text><text x="402.1" y="550.41"><tspan x="402.1" y="550.41"/></text></g><g font-size="12.46"><text x="429.66" y="550.75"><tspan x="429.66" y="550.75"/></text><text x="430.68" y="542.63"><tspan x="430.68" y="542.63"/></text><text x="421.35" y="552.13"><tspan x="421.35" y="552.13"/></text></g><g font-size="9"><text x="411.91" y="546.78"><tspan x="411.91" y="546.78"/></text><text x="412.65" y="540.91"><tspan x="412.65" y="540.91"/></text><text x="405.91" y="547.78"><tspan x="405.91" y="547.78"/></text></g></g><path d="m424.7 536.8h1v8h-1z"/><path d="m426.7 536.8v8h1v-7h1a2 2 0 0 1 2 2v5h1v-5a3 3 0 0 0-3-3h-2"/><path d="m436.7 540.8h1a3 3 0 0 1 3-3v-1a4 4 0 0 0-4 4"/><path transform="scale(-1 1)" d="m-437.7 536.8h1v8h-1z"/><path d="m434.7 536.8h1v8h-1z"/></g><g fill="#1d99f3"><path d="m434.7 528.8 4 3-4 3z"/><path d="m431.7 528.8-4 3 4 3z"/></g></g></svg>
