<svg viewBox="0 0 16 16" xmlns="http://www.w3.org/2000/svg"><g transform="translate(-421.7 -531.8)"><g font-family="Sans" font-size="9" letter-spacing="0" word-spacing="0" line-height="125%"><text x="420.15" y="547.55"><tspan x="420.15" y="547.55"/></text><text x="420.89" y="541.68"><tspan x="420.89" y="541.68"/></text><text x="414.15" y="548.55"><tspan x="414.15" y="548.55"/></text></g><path d="m431.7 539.79l-.99.99 2.01 2.01-2.01 2.01.99.99 2.01-2.01 2.01 2.01.99-.99-2.01-2.01 2.01-2.01-.99-.99-2.01 2.01-2.01-2.01" fill="#da4453"/><g fill="#f2f2f2"><path d="m426.7 533.8h9v1h-9z"/><path d="m430.7 534.8h1v4h-1z"/><path d="m423.7 533.8h1v12h-1z"/><path d="m424.7 544.8h5v1h-5z"/></g></g></svg>
