<svg viewBox="0 0 22 22" xmlns="http://www.w3.org/2000/svg"><g transform="translate(-421.7 -525.8)"><g fill="#f2f2f2"><g font-family="Sans" letter-spacing="0" word-spacing="0" line-height="125%"><g font-size="9"><text x="408.1" y="549.41"><tspan x="408.1" y="549.41"/></text><text x="408.84" y="543.54"><tspan x="408.84" y="543.54"/></text><text x="402.1" y="550.41"><tspan x="402.1" y="550.41"/></text></g><g font-size="12.46"><text x="429.66" y="550.75"><tspan x="429.66" y="550.75"/></text><text x="430.68" y="542.63"><tspan x="430.68" y="542.63"/></text><text x="421.35" y="552.13"><tspan x="421.35" y="552.13"/></text></g></g><path d="m426.7 533.2a4 4 0 0 0-4 4 4 4 0 0 0 4 4 4 4 0 0 0 3-1.361v1.361h1v-8h-1v1.361a4 4 0 0 0-3-1.361m0 1a3 3 0 0 1 3 3 3 3 0 0 1-3 3 3 3 0 0 1-3-3 3 3 0 0 1 3-3"/><path d="m436.4 532.7-2.666 7.542 0.943 0.333 0.454-1.283a4 4 0 0 0 2.375 2.283 4 4 0 0 0 5.105-2.438 4 4 0 0 0-2.438-5.105 4 4 0 0 0-3.282 0.2835l0.454-1.283-0.943-0.333m3.438 2.276a3 3 0 0 1 1.828 3.828 3 3 0 0 1-3.828 1.828 3 3 0 0 1-1.828-3.828 3 3 0 0 1 3.828-1.828"/></g><path d="m431.7 528.8v16h1v-2.42l9.359 2.105 0.232-1.027-9.592-2.158v-12.5z" fill="#1d99f3"/></g></svg>
