<svg viewBox="0 0 22 22" xmlns="http://www.w3.org/2000/svg"><g transform="translate(-326-534.36)"><g fill="#f2f2f2"><path transform="translate(326 534.4)" d="m3 3v16h9v-1h-8v-14h14v8h1v-9z"/><path d="m331 539.4h12v1h-12z"/><path d="m331 541.4h9v1h-9z"/><path d="m331 544.4h12v1h-12z"/><path d="m331 546.4h4v1h-4z"/><path d="m331 549.4h7v1h-7z"/></g><path d="m339.98 547.36l-.99.99 2.01 2.01-2.01 2.01.99.99 2.01-2.01 2.01 2.01.99-.99-2.01-2.01 2.01-2.01-.99-.99-2.01 2.01-2.01-2.01" fill="#da4453"/></g></svg>
