<svg viewBox="0 0 22 22" xmlns="http://www.w3.org/2000/svg"><path transform="matrix(1.045 0 0 1.045 -.49 -.492)" d="m11 3.342a7.658 7.658 0 0 0-7.658 7.658 7.658 7.658 0 0 0 7.658 7.658 7.658 7.658 0 0 0 7.658-7.658 7.658 7.658 0 0 0-7.658-7.658m-2.664 3.769c0.645 0 1.17 0.524 1.17 1.17s-0.524 1.17-1.17 1.17-1.17-0.524-1.17-1.17 0.524-1.17 1.17-1.17zm5.303 0c0.645 0 1.168 0.524 1.168 1.17s-0.522 1.17-1.168 1.17-1.17-0.524-1.17-1.17 0.524-1.17 1.17-1.17m-2.641 4.457c1.902 0 3.6 1.084 4.324 2.76 0.124 0.287-8e-3 0.618-0.295 0.742s-0.62-8e-3 -0.744-0.295c-0.545-1.261-1.835-2.076-3.285-2.076-1.484 0-2.781 0.815-3.305 2.076-0.09 0.218-0.3 0.348-0.521 0.348-0.072 0-0.146-0.014-0.217-0.043-0.289-0.12-0.427-0.45-0.307-0.738 0.7-1.684 2.407-2.773 4.35-2.773" fill="#fff" fill-rule="evenodd"/></svg>
