<svg viewBox="0 0 22 22" xmlns="http://www.w3.org/2000/svg"><g transform="translate(-421.7 -525.8)" fill="#fff"><path d="m426.3 528.8c-0.884 0-1.6 0.716-1.6 1.6s0.716 1.6 1.6 1.6 1.6-0.716 1.6-1.6-0.716-1.6-1.6-1.6m0 6.4c-0.884 0-1.6 0.716-1.6 1.6s0.716 1.6 1.6 1.6 1.6-0.716 1.6-1.6-0.716-1.6-1.6-1.6m0 6.4c-0.884 0-1.6 0.716-1.6 1.6s0.716 1.6 1.6 1.6 1.6-0.716 1.6-1.6-0.716-1.6-1.6-1.6"/><g fill-rule="evenodd" stroke="#fff" stroke-linecap="square"><rect x="429.2" y="529.9" width="11" height="1" rx=".5"/><rect x="429.2" y="536.3" width="11" height="1" rx=".5"/><rect x="429.2" y="542.7" width="11" height="1" rx=".5"/></g></g></svg>
