<svg viewBox="0 0 22 22" xmlns="http://www.w3.org/2000/svg"><g transform="translate(-467 -524.5)" fill-rule="evenodd"><path transform="translate(467 524.5)" d="m4 3c-0.554 0-1 0.446-1 1v14c0 0.554 0.446 1 1 1h14c0.554 0 1-0.446 1-1v-14c0-0.554-0.446-1-1-1h-14m3.119 3a1.27 1.27 0 0 1 1.27 1.27 1.27 1.27 0 0 1-1.27 1.271 1.27 1.27 0 0 1-1.27-1.271 1.27 1.27 0 0 1 1.27-1.27m3.873 0a1.27 1.27 0 0 1 1.27 1.27 1.27 1.27 0 0 1-1.27 1.271 1.27 1.27 0 0 1-1.27-1.271 1.27 1.27 0 0 1 1.27-1.27m3.889 0a1.27 1.27 0 0 1 1.27 1.27 1.27 1.27 0 0 1-1.27 1.27 1.27 1.27 0 0 1-1.27-1.27 1.27 1.27 0 0 1 1.27-1.27m-7.762 7.461a1.27 1.27 0 0 1 1.27 1.27 1.27 1.27 0 0 1-1.27 1.27 1.27 1.27 0 0 1-1.27-1.27 1.27 1.27 0 0 1 1.27-1.27" fill="#fff"/><g transform="matrix(1.27 0 0 1.27 75.46 -171.1)" fill="#2ecc71"><circle cx="314" cy="556.4" r="1"/><circle cx="317" cy="556.4" r="1"/><circle cx="320.1" cy="556.4" r="1"/></g></g></svg>
