<svg viewBox="0 0 22 22" xmlns="http://www.w3.org/2000/svg"><g transform="matrix(.03083 0 0 .03083 2.7 2.698)" fill="#fff"><path d="m508 311.6c-4.549 1.235-9.33 1.945-14.28 1.945-11.82 0-23-3.742-32.06-10.44-9.06 6.701-20.23 10.44-32.06 10.44-11.82 0-23-3.742-32.06-10.44-9.06 6.701-20.23 10.44-32.06 10.44-11.82 0-23-3.742-32.06-10.44-9.06 6.701-20.23 10.44-32.06 10.44-11.82 0-23-3.742-32.06-10.44-9.06 6.701-20.23 10.44-32.06 10.44-11.82 0-22.99-3.742-32.06-10.44-9.06 6.701-20.23 10.44-32.06 10.44-11.82 0-22.99-3.742-32.06-10.44-9.07 6.701-20.24 10.44-32.06 10.44s-22.99-3.742-32.06-10.44c-9.06 6.701-20.23 10.44-32.06 10.44-4.954 0-9.731-0.71-14.28-1.945v48.36h477.4v-48.36"/><path d="m30.6 471.18c0 .872.117 1.716.257 2.549h476.85c.141-.833.256-1.677.256-2.549v-95.88h-477.36v95.88"/><path d="m30.6 295.6c4.407 1.726 9.223 2.692 14.28 2.692 13.57 0 25.42-6.873 32.06-17.14 6.634 10.27 18.49 17.14 32.06 17.14 13.57 0 25.42-6.873 32.06-17.14 6.631 10.27 18.49 17.14 32.06 17.14 13.57 0 25.43-6.873 32.06-17.14 6.631 10.27 18.49 17.14 32.06 17.14 13.57 0 25.43-6.873 32.06-17.14 6.63 10.27 18.49 17.14 32.06 17.14 13.57 0 25.43-6.873 32.06-17.14 6.631 10.27 18.49 17.14 32.06 17.14 13.57 0 25.43-6.873 32.06-17.14 6.631 10.27 18.49 17.14 32.06 17.14 13.57 0 25.43-6.873 32.06-17.14 6.631 10.27 18.49 17.14 32.06 17.14 5.059 0 9.875-0.967 14.28-2.692 13.72-5.374 23.38-18.23 23.38-33.26 0-1.506-0.129-2.98-0.318-4.44 0.199-0.759 0.318-1.539 0.318-2.341v-46.11c0-6.702-7.289-12.14-16.28-12.14h-226.4v-46.22c0-8.449-6.852-15.3-15.3-15.3h-8.161c-8.449 0-15.3 6.851-15.3 15.3v46.22h-226.4c-8.99 0-16.28 5.432-16.28 12.14v46.11c0 0.802 0.119 1.582 0.318 2.341-0.19 1.457-0.318 2.935-0.318 4.44 0 15.02 9.67 27.88 23.38 33.26"/><path d="m523.3 489h-508c-8.449 0-15.3 8.617-15.3 19.25v1.282c0 10.63 6.851 19.25 15.3 19.25h508c8.449 0 15.3-8.616 15.3-19.25v-1.282c0-10.63-6.852-19.25-15.3-19.25"/><path d="m272.3 126.1c0.576 0.021 1.154 0.092 1.719-0.024 17.83-3.685 35.09-27.45 31.46-48.52-3.369-19.51-17.53-27.67-25.73-41.9-3.396-5.89-5.17-13.78-3.91-21.52 0.816-5-0.064-5.79-3.473-2.038-8.752 9.624-18.67 22.27-23.51 32.38-5.548 11.27-6.071 19.32-2.843 31.38 0.823 3.01 1.671 5.343 2.781 7.656 1.953 4.061-0.177 7.252-4.905 5.417-2.35-0.912-4.511-2.154-6.328-3.623-3.944-3.186-5.447-3.204-4.367 1.747 3.951 18.12 20.51 38.32 39.11 39.04"/></g></svg>
