<svg viewBox="0 0 22 22" xmlns="http://www.w3.org/2000/svg" xmlns:xlink="http://www.w3.org/1999/xlink"><g transform="matrix(1.001 0 0 1.001 -422.2 -526.2)" fill="#fff"><g fill="#fff" stroke="#fff" stroke-width=".799"><rect x="433.7" y="529.8" width="7" height="1" rx=".4"/><rect x="433.7" y="538.8" width="4" height="1" rx=".4"/><rect x="433.7" y="542.8" width="4" height="1" rx=".4"/><rect x="433.7" y="533.8" width="7" height="1" rx=".4"/></g><path id="a" transform="matrix(.05594 0 0 .05594 424.7 528.7)" d="m117.2 31.59c-5.595-9.586-13.18-17.18-22.77-22.77-9.588-5.595-20.06-8.392-31.41-8.392-11.35 0-21.82 2.797-31.41 8.392-9.587 5.594-17.18 13.18-22.77 22.77-5.596 9.587-8.393 20.06-8.393 31.41 0 11.35 2.798 21.82 8.392 31.41 5.595 9.585 13.18 17.18 22.77 22.77 9.587 5.595 20.06 8.392 31.41 8.392 11.35 0 21.82-2.797 31.41-8.392 9.586-5.594 17.18-13.18 22.77-22.77 5.594-9.587 8.391-20.06 8.391-31.41 0-11.35-2.797-21.82-8.39-31.41" fill="#fff"/><use transform="translate(-.049 8.988)" xlink:href="#a"/></g></svg>
