<svg viewBox="0 0 22 22" xmlns="http://www.w3.org/2000/svg"><g transform="matrix(.1155 0 0 .1155 -23.73 -32.42)" fill="#fff"><rect x="246.9" y="306.6" width="108.2" height="44.11" rx="5.156"/><g transform="matrix(.5932 0 0 .5932 120.7 102.6)"><g><rect x="299.2" y="367.9" width="67.64" height="9.486" rx="4.743" opacity=".875"/><rect x="299" y="380.9" width="27.03" height="9.486" rx="4.743" opacity=".875"/><rect x="299.2" y="394.4" width="27.03" height="9.486" rx="4.743" opacity=".875"/></g><path transform="matrix(.1754 0 0 .1754 363.9 334.1)" d="m.674 341.78l-56.2-8.239-25.19-51.36c-1.417-3.085-3.247-4.627-5.486-4.627-2.239 0-4.068 1.542-5.486 4.627l-25.19 51.36-56.2 8.239c-4.179.677-6.269 2.408-6.269 5.192 0 1.581.933 3.387 2.799 5.418l40.754 39.955-9.628 56.43c-.15 1.054-.224 1.808-.224 2.258 0 1.581.392 2.915 1.175 4.01.783 1.092 1.958 1.636 3.526 1.636 1.344 0 2.836-.449 4.479-1.353l50.27-26.639 50.27 26.639c1.569.903 3.062 1.353 4.477 1.353 1.497 0 2.633-.543 3.416-1.636.782-1.092 1.174-2.427 1.174-4.01 0-.978-.037-1.73-.113-2.258l-9.629-56.43 40.641-39.955c1.943-1.956 2.912-3.763 2.912-5.418 0-2.785-2.089-4.515-6.272-5.192" opacity=".837"/></g><rect x="233.3" y="315.8" width="135.2" height="35.2" rx="5.712"/><path transform="matrix(8.656 0 0 8.656 205.4 280.6)" d="m2.682 5.369c-.448 0-.809.361-.809.809v12.01c0 .448.361.809.809.809h16.637c.448 0 .809-.361.809-.809v-12.01c0-.448-.361-.809-.809-.809h-16.637m8.318 3.131c2.216 0 4 1.784 4 4 0 2.216-1.784 4-4 4-2.216 0-4-1.784-4-4 0-2.216 1.784-4 4-4"/><path transform="matrix(4.328 0 0 4.328 253 -4118)" d="m9 1044 4-3-4-3z"/></g></svg>
