<svg viewBox="0 0 22 22" xmlns="http://www.w3.org/2000/svg" xmlns:xlink="http://www.w3.org/1999/xlink"><defs><path id="a" d="m117.2 31.59c-5.595-9.586-13.18-17.18-22.77-22.77-9.588-5.595-20.06-8.392-31.41-8.392-11.35 0-21.82 2.797-31.41 8.392-9.587 5.594-17.18 13.18-22.77 22.77-5.596 9.587-8.393 20.06-8.393 31.41 0 11.35 2.798 21.82 8.392 31.41 5.595 9.585 13.18 17.18 22.77 22.77 9.587 5.595 20.06 8.392 31.41 8.392 11.35 0 21.82-2.797 31.41-8.392 9.586-5.594 17.18-13.18 22.77-22.77 5.594-9.587 8.391-20.06 8.391-31.41 0-11.35-2.797-21.82-8.39-31.41" fill="#fff"/></defs><g transform="matrix(1.003 0 0 1.003 -423.2 -527.6)" fill="#fff"><path d="m430.7 534.8h1v7h-1z"/><path d="m431.7 531.8h2v1h-2z"/><path d="m431.7 540.8h2.041v1h-2.041z"/><g transform="translate(-21.7 -2.565)"><use transform="matrix(.05594 0 0 .05594 446.4 531.3)" xlink:href="#a"/><use transform="matrix(.05594 0 0 .05594 455.4 540.3)" xlink:href="#a"/><use transform="matrix(.05594 0 0 .05594 455.4 531.3)" xlink:href="#a"/></g><path d="m430.71 534.79h1v-2c-.103.798-.456 1.454-1 2" fill-rule="evenodd"/></g></svg>
