<svg viewBox="0 0 48 48" xmlns="http://www.w3.org/2000/svg"><defs><linearGradient id="a" x2="0" y1="542.8" y2="507.8" gradientTransform="matrix(1.052 0 0 1.028 -21.29 -14.59)" gradientUnits="userSpaceOnUse"><stop stop-color="#566069" offset="0"/><stop stop-color="#6c7884" offset="1"/></linearGradient></defs><g transform="matrix(1.576 0 0 1.576 -607.4 -814.3)"><rect transform="matrix(.6576 0 0 .6576 131.8 186.7)" x="385.5" y="507.2" width="46.3" height="34.94" rx="1.644" fill="url(#a)"/><g transform="matrix(.1168 0 0 .1168 393.2 524.2)" fill="#e9ebed"><path d="m29.11 92.37c-3.26 0-6.03 1.14-8.311 3.422s-3.422 5.05-3.422 8.312c0 3.26 1.14 6.03 3.422 8.312 2.282 2.281 5.05 3.422 8.311 3.422 3.205 0 5.961-1.141 8.27-3.422 2.308-2.28 3.462-5.05 3.462-8.312 0-3.26-1.154-6.03-3.462-8.312-2.309-2.28-5.065-3.422-8.27-3.422"/><path d="m26.5 67.61c0-3.585-1.276-6.653-3.829-9.208-2.553-2.553-5.622-3.829-9.207-3.829s-6.654 1.276-9.207 3.829-3.829 5.622-3.829 9.208c0 3.584 1.276 6.651 3.829 9.205s5.622 3.83 9.207 3.83 6.654-1.276 9.207-3.83c2.553-2.552 3.829-5.621 3.829-9.205"/><path d="m102.1 37.63c1.791 0 3.328-0.639 4.603-1.915 1.276-1.277 1.915-2.812 1.915-4.604 0-1.793-0.639-3.327-1.915-4.603-1.276-1.277-2.812-1.915-4.603-1.915-1.793 0-3.328 0.639-4.604 1.915s-1.915 2.81-1.915 4.603 0.639 3.327 1.915 4.604 2.811 1.915 4.604 1.915"/><path d="m29.11 16.77c-3.966 0-7.347 1.399-10.14 4.196-2.798 2.797-4.196 6.178-4.196 10.14 0 3.966 1.398 7.346 4.196 10.14s6.179 4.196 10.14 4.196 7.346-1.399 10.14-4.196c2.797-2.798 4.196-6.179 4.196-10.14s-1.399-7.346-4.196-10.14-6.178-4.196-10.14-4.196"/><path d="m123.3 62.07c-1.521-1.521-3.367-2.281-5.54-2.281s-4.02 0.76-5.54 2.281-2.28 3.368-2.28 5.542c0 2.172 0.76 4.02 2.28 5.539 1.521 1.521 3.367 2.281 5.54 2.281s4.02-0.76 5.54-2.281c1.521-1.52 2.28-3.367 2.28-5.539 0-2.173-0.758-4.02-2.28-5.542"/><path d="m102.1 94.98c-2.5 0-4.646 0.896-6.438 2.688s-2.688 3.938-2.688 6.438c0 2.498 0.896 4.645 2.688 6.437 1.793 1.793 3.938 2.688 6.438 2.688 2.498 0 4.644-0.896 6.437-2.688 1.792-1.792 2.688-3.938 2.688-6.437 0-2.5-0.896-4.645-2.688-6.438-1.793-1.792-3.939-2.688-6.437-2.688"/><path d="m65.61 109.3c-2.879 0-5.337 1.02-7.375 3.057-2.036 2.037-3.055 4.494-3.055 7.373s1.018 5.336 3.055 7.373c2.038 2.037 4.495 3.057 7.375 3.057 2.879 0 5.336-1.02 7.373-3.057s3.056-4.494 3.056-7.373-1.019-5.336-3.056-7.373-4.494-3.057-7.373-3.057"/><path d="m65.61-0.179c-4.345 0-8.04 1.52-11.08 4.562-3.041 3.042-4.562 6.736-4.562 11.08 0 4.345 1.52 8.04 4.562 11.08 3.042 3.041 6.736 4.562 11.08 4.562 4.347 0 8.04-1.52 11.08-4.562 3.041-3.041 4.562-6.735 4.562-11.08s-1.521-8.04-4.562-11.08c-3.041-3.041-6.733-4.562-11.08-4.562"/></g></g></svg>
