<svg viewBox="0 0 48 48" xmlns="http://www.w3.org/2000/svg" xmlns:xlink="http://www.w3.org/1999/xlink"><defs><linearGradient id="b" x1="542.8" x2="543.2" y1="484.3" y2="463.6" gradientTransform="matrix(1.03744.1329-.12755.99183-44.44-65.12)" gradientUnits="userSpaceOnUse"><stop stop-color="#132e51" offset="0"/><stop stop-color="#2767b9" offset="1"/></linearGradient><linearGradient id="c" x1="409.6" x2="409.9" y1="542.8" y2="504.2" gradientTransform="matrix(1.052 0 0 1.028 -21.18 -14.7)" gradientUnits="userSpaceOnUse"><stop stop-color="#86d0fb" offset="0"/><stop stop-color="#2794f5" offset="1"/></linearGradient></defs><g transform="translate(-384.57-499.8)"><flowRoot transform="translate(389.6 520.8)" font-family="sans-serif" font-size="10" letter-spacing="0" word-spacing="0" line-height="125%"><flowRegion><path id="a" d="m22 3h27v15h-27z"/></flowRegion><flowPara>Plasm</flowPara></flowRoot><g transform="matrix(1.576 0 0 1.576 -222.8 -314.3)"><rect transform="matrix(.6576 0 0 .6576 131.8 186.7)" x="385.6" y="507.1" width="46.3" height="34.94" rx="1.644" fill="url(#c)"/><g transform="translate(-36.836-.954)"><flowRoot transform="translate(389.6 520.8)" font-family="sans-serif" font-size="10" letter-spacing="0" word-spacing="0" line-height="125%"><flowRegion><use xlink:href="#a"/></flowRegion><flowPara>Plasm</flowPara></flowRoot><g transform="matrix(.3734 -.04589 .04589 .3734 244 379.4)"><path d="m418.9 476.1 15.91-2.498 4.568 3.717 11.92-2.094 10.88 4.975 7.95 2.692 6.5-1.142 7.926-0.747 16.2-8.689-3.197 27.1c-0.159 3.559-3.701 2.873-3.701 2.873l-74.27-9.129s-2.691-1.031-2.305-4.111z" fill="url(#b)" fill-rule="evenodd"/><circle cx="436.9" cy="449" r="6.976" fill="#fff" fill-opacity=".75"/></g></g></g></g></svg>
