<svg viewBox="0 0 48 48" xmlns="http://www.w3.org/2000/svg"><defs><linearGradient id="b" x1="452.1" x2="451.8" y1="556.8" y2="528.8" gradientUnits="userSpaceOnUse"><stop stop-color="#42a603" offset="0"/><stop stop-color="#78da06" offset="1"/></linearGradient><linearGradient id="a" x1="451.7" x2="451.3" y1="556.8" y2="528.8" gradientUnits="userSpaceOnUse"><stop stop-color="#197cf1" offset="0"/><stop stop-color="#21c9fb" offset="1"/></linearGradient></defs><g transform="matrix(1.732 0 0 1.732 -669.4 -897)"><rect transform="matrix(.9342 0 0 .9342 -18.24 24.69)" x="440.6" y="528" width="22.41" height="29.67" rx="1" fill="url(#b)" fill-rule="evenodd"/><g transform="matrix(.9342 0 0 .9342 -24.57 24.73)"><rect x="440.1" y="528" width="22.41" height="29.67" rx="1" fill="url(#a)" fill-rule="evenodd"/><path transform="matrix(.8502 0 0 .8476 103.4 88.3)" d="m409 531-5.244 6.733c-0.983 1.262-0.708 3.511 0.55 4.497 1.259 0.986 3.5 0.71 4.484-0.552l5.244-6.733 0.655-0.842c0.656-0.842 0.472-2.341-0.367-2.998-0.839-0.658-2.334-0.473-2.989 0.368l-4.589 5.892-0.656 0.842c-0.328 0.421-0.236 1.17 0.183 1.499 0.42 0.329 1.167 0.237 1.495-0.184l4.589-5.891 0.839 0.658-4.589 5.891c-0.656 0.842-2.15 1.026-2.989 0.368s-1.023-2.157-0.367-2.998l5.245-6.733c0.983-1.262 3.225-1.538 4.484-0.552s1.534 3.235 0.551 4.497l-5.9 7.575c-1.311 1.683-4.3 2.051-5.978 0.736s-2.045-4.313-0.734-5.997l5.244-6.733 0.839 0.658" fill="#fff" fill-opacity=".852"/></g></g></svg>
