<svg viewBox="0 0 48 48" xmlns="http://www.w3.org/2000/svg"><defs><linearGradient id="a" x2="0" y1="545.8" y2="517.8" gradientUnits="userSpaceOnUse"><stop stop-color="#d3d3d3" offset="0"/><stop stop-color="#fcf9f9" offset="1"/></linearGradient></defs><g transform="matrix(1.714 0 0 1.714 -662.7 -887.6)"><rect x="386.6" y="517.8" width="28" height="28" rx="14" fill="url(#a)"/><g fill="#585a5d"><path d="m391.1 537.1 4.485-11.89h1.728l4.485 11.89h-1.694l-1.146-3.223h-5l-1.163 3.223h-1.694m3.372-4.651h3.954l-1.944-5.366h-0.066l-1.944 5.366"/><path d="m405.53 537.38q-1.296 0-2.176-.748-.864-.748-.864-1.977 0-1.329 1.03-2.077 1.03-.764 2.542-.764 1.346 0 2.209.498v-.233q0-.897-.615-1.429-.615-.548-1.512-.548-.664 0-1.213.316-.532.316-.731.864l-1.395-.598q.282-.731 1.113-1.346.831-.631 2.193-.631 1.562 0 2.591.914 1.03.914 1.03 2.575v4.917h-1.462v-1.13h-.067q-.914 1.395-2.675 1.395m.249-1.395q.947 0 1.711-.698.781-.714.781-1.678-.648-.532-1.944-.532-1.113 0-1.678.482-.565.482-.565 1.13 0 .598.515.947.515.349 1.179.349"/></g></g></svg>
