<svg viewBox="0 0 48 48" xmlns="http://www.w3.org/2000/svg" xmlns:xlink="http://www.w3.org/1999/xlink"><defs><path id="a" d="m22 3h27v15h-27z"/><linearGradient id="b" x2="0" y1="547.4" y2="514" gradientUnits="userSpaceOnUse"><stop stop-color="#197cf1" offset="0"/><stop stop-color="#20bcfa" offset="1"/></linearGradient></defs><g transform="translate(-384.57-499.8)"><flowRoot transform="translate(389.6 520.8)" font-family="sans-serif" font-size="10" letter-spacing="0" word-spacing="0" line-height="125%"><flowRegion><use xlink:href="#a"/></flowRegion><flowPara>Plasm</flowPara></flowRoot><g transform="matrix(1.576 0 0 1.576 -223 -314.4)"><g transform="matrix(.6576 0 0 .6576 163.4 180.5)"><g transform="translate(3.262 3.486)" fill="url(#b)"><rect x="334.2" y="513.1" width="46.3" height="34.94" rx="1.644"/><flowRoot transform="matrix(1.521 0 0 1.521 386.5 514.7)" font-family="sans-serif" font-size="10" letter-spacing="0" word-spacing="0" line-height="125%"><flowRegion><use xlink:href="#a"/></flowRegion><flowPara>Plasm</flowPara></flowRoot></g><g transform="matrix(1.064 0 0 1.061 845.1 672)" fill="#fff" fill-opacity=".85"><ellipse cx="-462.6" cy="-130.5" rx="2.5" ry="2.5"/><ellipse cx="-458.1" cy="-123" rx="3" ry="3"/><ellipse cx="-460.6" cy="-138.5" rx="1.5" ry="1.5"/><path d="m-452.1-140-2.844 2.844 4.375 4.375-4.531 5.156 3 2.625 7-8-7-7"/></g></g><flowRoot transform="translate(352.7 519.8)" font-family="sans-serif" font-size="10" letter-spacing="0" word-spacing="0" line-height="125%"><flowRegion><use xlink:href="#a"/></flowRegion><flowPara>Plasm</flowPara></flowRoot></g></g></svg>
