<svg viewBox="0 0 48 48" xmlns="http://www.w3.org/2000/svg" xmlns:xlink="http://www.w3.org/1999/xlink"><defs><path id="a" d="m22 3h27v15h-27z"/><linearGradient id="b"><stop stop-color="#197cf1" offset="0"/><stop stop-color="#20bcfa" offset="1"/></linearGradient><linearGradient id="d" x2="0" y1="541.4" y2="508" gradientUnits="userSpaceOnUse" xlink:href="#b"/><linearGradient id="c" x2="0" y1="547.4" y2="514" gradientUnits="userSpaceOnUse" xlink:href="#b"/></defs><g transform="translate(-384.57-499.8)"><flowRoot transform="translate(389.6 520.8)" font-family="sans-serif" font-size="10" letter-spacing="0" word-spacing="0" line-height="125%"><flowRegion><use xlink:href="#a"/></flowRegion><flowPara>Plasm</flowPara></flowRoot><g transform="matrix(1.576 0 0 1.576 -222.9 -314.5)"><g transform="translate(-.054.074)"><g transform="matrix(.6576 0 0 .6576 131.8 186.7)"><rect x="385.6" y="507.1" width="46.3" height="34.94" rx="1.644" fill="url(#d)"/><flowRoot transform="matrix(1.521 0 0 1.521 437.9 508.7)" fill="url(#c)" font-family="sans-serif" font-size="10" letter-spacing="0" word-spacing="0" line-height="125%"><flowRegion><use xlink:href="#a"/></flowRegion><flowPara>Plasm</flowPara></flowRoot></g><flowRoot transform="translate(352.7 519.8)" font-family="sans-serif" font-size="10" letter-spacing="0" word-spacing="0" line-height="125%"><flowRegion><use xlink:href="#a"/></flowRegion><flowPara>Plasm</flowPara></flowRoot></g><path transform="matrix(.03586 0 0 .03586 392.4 523.5)" d="m432.1 155.4c-62.34 22.95-109.8 39.3-151.6 90.98-37.23 46.05-90.98 62.01-151.6 31.66v165.5h-30.33v-409.4c-1e-4 -8.382 6.781-15.16 15.16-15.16 8.38 0 15.17 6.781 15.17 15.16 33.67 48.95 92.19 59.8 151.6 60.65 90.98 1.33 151.6 60.65 151.6 60.65" fill="#fff" fill-opacity=".847"/></g></g></svg>
