<svg viewBox="0 0 48 48" xmlns="http://www.w3.org/2000/svg" xmlns:xlink="http://www.w3.org/1999/xlink"><defs><linearGradient id="b" x2="0" y1="545.6" y2="517.6" gradientUnits="userSpaceOnUse"><stop stop-color="#d3d3d3" offset="0"/><stop stop-color="#fcf9f9" offset="1"/></linearGradient><linearGradient id="a" x1="395.2" x2="396.7" y1="544" y2="517.1" gradientUnits="userSpaceOnUse"><stop stop-color="#69159f" offset="0"/><stop stop-color="#b92ff5" offset="1"/></linearGradient><linearGradient id="c" x2="0" y1="545.2" y2="517.2" gradientUnits="userSpaceOnUse"><stop stop-color="#333538" offset="0"/><stop stop-color="#566069" offset="1"/></linearGradient></defs><g transform="matrix(1.655 0 0 1.655 -639.2 -856.3)"><g transform="translate(.135.045)" fill="url(#b)"><circle cx="400.6" cy="531.8" r="14"/><circle cx="400.6" cy="531.8" r="14" fill="url(#a)" stroke="url(#a)"/></g><path transform="matrix(.872 0 0 .872 24.62 68.87)" d="m428.92 524.46c-.56.157-1.01.782-1.01 1.389v9.625c-.568-.311-1.297-.437-2.053-.231-1.364.371-2.219 1.571-1.927 2.679.292 1.108 1.637 1.727 3 1.356 1.089-.296 1.839-1.134 1.959-2.02l.032-9.1 7.08-1.985v7.178c-.568-.311-1.297-.437-2.053-.232-1.364.371-2.219 1.571-1.927 2.679.293 1.108 1.637 1.727 3 1.356 1.089-.296 1.839-1.134 1.959-2.02l.032-11.842c0-.455-.269-.796-.632-.86l-7.455 2.02" fill="#fff" fill-opacity=".855" opacity=".9"/></g></svg>
