<svg viewBox="0 0 48 48" xmlns="http://www.w3.org/2000/svg"><defs><linearGradient id="a" x2="0" y1="545.1" y2="518.1" gradientUnits="userSpaceOnUse"><stop stop-color="#197ff1" offset="0"/><stop stop-color="#21c6fb" offset="1"/></linearGradient></defs><g transform="matrix(1.714 0 0 1.714 -69.21 13.51)" enable-background="new"><g transform="translate(-346.2 -525.7)"><circle cx="400.6" cy="531.8" r="14" fill="url(#a)"/><circle cx="400.6" cy="531.8" r="14" fill="#5ea5fb" fill-opacity="0"/></g><path d="m56.31.457c0 1.011-.828 1.832-1.849 1.832-1.021 0-1.849-.821-1.849-1.832 0-1.011.828-1.832 1.849-1.832 1.021 0 1.849.821 1.849 1.832m4.615 1.948c-.086.014-.166.047-.236.097l-6.317.976-6.283-.989c-.162-.117-.391-.152-.572-.065-.181.087-.3.292-.303.487-.002.195.124.364.303.455l4.923 1.547-.034 3.552-1.737 5.32c-.167.242-.116.553.135.715.251.162.607.112.774-.13l2.803-5.742 2.75 5.732c.149.251.48.339.741.195.26-.144.351-.464.202-.715l-1.705-5.343-.067-3.344 4.992-1.807c.202-.137.289-.395.202-.617-.087-.222-.327-.352-.572-.325" fill="#fff" fill-opacity=".852"/></g></svg>
