<svg viewBox="0 0 48 48" xmlns="http://www.w3.org/2000/svg" xmlns:xlink="http://www.w3.org/1999/xlink"><defs><linearGradient id="b" x2="0" y1="546.8" y2="517.8" gradientUnits="userSpaceOnUse"><stop stop-color="#ff9300" offset="0"/><stop stop-color="#ffd702" offset="1"/></linearGradient></defs><g transform="translate(-384.57-499.8)"><flowRoot transform="translate(355.6 516.1)" font-family="sans-serif" font-size="10" letter-spacing="0" word-spacing="0" line-height="125%"><flowRegion><path id="a" d="m22 3h27v15h-27z"/></flowRegion><flowPara>Plasm</flowPara></flowRoot><g transform="matrix(1.714 0 0 1.714 -278.1 -387.9)"><rect x="386.6" y="517.8" width="28" height="28" rx="14" fill="url(#b)"/><flowRoot transform="translate(355.6 516.1)" font-family="sans-serif" font-size="10" letter-spacing="0" word-spacing="0" line-height="125%"><flowRegion><use xlink:href="#a"/></flowRegion><flowPara>Plasm</flowPara></flowRoot><path transform="matrix(.02516 0 0 .02516 393.8 525.3)" d="m139.2 51.42-35.78-35.86c-59.98 45.64-99.65 116.6-103.4 196.8h50.17c3.742-66.41 37.88-124.6 88.99-161m335.8 161h50.17c-3.742-80.22-43.41-151.2-103.6-196.8l-35.86 35.86c51.4 36.34 85.53 94.57 89.28 161zm-49.39 12.58c0-77-53.39-141.5-125.4-158.5v-17.09c0-20.79-16.76-37.61-37.59-37.61s-37.59 16.83-37.59 37.61v17.09c-72.03 17.02-125.4 81.51-125.4 158.5v137.9l-50.15 50.11v25.08h426.3v-25.08l-50.15-50.11v-137.9m-163 288.4c3.523 0 6.761-0.219 10.06-1.01 16.24-3.238 29.82-14.53 36.06-29.63 2.516-5.952 4.048-12.49 4.048-19.54h-100.4c0 27.59 22.58 50.17 50.17 50.17" fill="#342300"/></g></g></svg>
