<svg viewBox="0 0 48 48" xmlns="http://www.w3.org/2000/svg"><defs><linearGradient id="a" x1="406.3" x2="406.8" y1="545.7" y2="519.4" gradientUnits="userSpaceOnUse"><stop stop-color="#e4e2e2" offset="0"/><stop stop-color="#fcf9f9" offset="1"/></linearGradient></defs><g transform="matrix(1.713 0 0 1.71 -662.1 -885.2)"><circle transform="translate(.024.076)" cx="400.6" cy="531.8" r="14" fill="#5ea5fb" fill-opacity="0"/><path d="m414.6 531.8a14 14 0 0 1-14 14 14 14 0 0 1-14-14 14 14 0 0 1 14-14 14 14 0 0 1 14 14m-6.426-3.073c-0.591-1.182-1.423-2.174-2.495-2.974-0.308-0.235-0.657-0.327-1.047-0.275-0.389 0.051-0.698 0.235-0.925 0.551-0.235 0.308-0.325 0.655-0.27 1.041s0.237 0.696 0.545 0.931c0.719 0.543 1.276 1.208 1.669 1.994s0.589 1.623 0.589 2.512c0 0.764-0.149 1.493-0.446 2.187s-0.7 1.294-1.206 1.801c-0.507 0.507-1.107 0.909-1.801 1.206s-1.423 0.446-2.187 0.446-1.493-0.149-2.187-0.446-1.294-0.7-1.801-1.206c-0.507-0.507-0.909-1.107-1.206-1.801s-0.446-1.423-0.446-2.187c0-0.888 0.196-1.726 0.589-2.512s0.949-1.45 1.669-1.994c0.308-0.235 0.49-0.545 0.545-0.931 0.055-0.385-0.035-0.733-0.27-1.041-0.228-0.316-0.534-0.499-0.92-0.551-0.386-0.051-0.736 0.04-1.052 0.275-1.072 0.8-1.904 1.792-2.495 2.974s-0.887 2.442-0.887 3.778c0 1.146 0.224 2.24 0.672 3.283s1.05 1.942 1.807 2.699c0.756 0.756 1.656 1.359 2.699 1.806 1.043 0.448 2.137 0.672 3.283 0.672s2.24-0.224 3.283-0.672 1.943-1.05 2.699-1.806 1.358-1.656 1.807-2.699c0.448-1.043 0.672-2.137 0.672-3.283 0-1.337-0.295-2.596-0.886-3.778m-7.574 3.779c0.382 0 0.713-0.139 0.991-0.419 0.279-0.279 0.419-0.61 0.419-0.991v-7.05c0-0.382-0.14-0.712-0.419-0.991s-0.609-0.419-0.991-0.419-0.712 0.14-0.991 0.419-0.419 0.61-0.419 0.991v7.05c0 0.382 0.14 0.712 0.419 0.991s0.61 0.419 0.991 0.419" fill="url(#a)" fill-rule="evenodd"/></g></svg>
