<svg viewBox="0 0 48 48" xmlns="http://www.w3.org/2000/svg"><defs><linearGradient id="a" x2="0" y1="51.43" gradientUnits="userSpaceOnUse"><stop stop-color="#e4e2e2" offset="0"/><stop stop-color="#fcf9f9" offset="1"/></linearGradient></defs><g transform="translate(-384.57-499.8)"><g transform="matrix(1.714 0 0 1.714 -278.2 -388)"><circle transform="translate(.024.076)" cx="400.6" cy="531.8" r="14" fill="#5ea5fb" fill-opacity="0"/><path transform="matrix(.5833 0 0 .5833 386.6 517.9)" d="m24 0a24 24 0 0 0-24 24 24 24 0 0 0 24 24 24 24 0 0 0 24-24 24 24 0 0 0-24-24m0 10.5c4.546 0 8.24 3.702 8.24 8.25v3.35c0.654 0.14 1.143 0.715 1.143 1.406v12.55c0 0.795-0.643 1.44-1.434 1.44h-15.9c-0.79 0-1.433-0.645-1.433-1.44v-12.55c0-0.691 0.493-1.266 1.139-1.406v-3.35c0-4.548 3.698-8.25 8.244-8.25m0 2.871c-2.96 0-5.377 2.413-5.377 5.379v3.32h10.75v-3.32c0-2.966-2.413-5.379-5.377-5.379m0 13.11c-1.111 0-2.012 0.902-2.012 2.014 0 0.586 0.252 1.12 0.657 1.488l-0.535 2.825c-0.03 0.157 0.08 0.283 0.236 0.283h3.347c0.158 0 0.262-0.126 0.233-0.283l-0.539-2.856c0.384-0.367 0.623-0.881 0.623-1.457 0-1.112-0.9-2.014-2.01-2.014" fill="url(#a)"/></g><flowRoot transform="matrix(1.841 0 0 1.842 320.7 505.9)" fill="#fff" font-family="sans-serif" font-size="10" letter-spacing="0" word-spacing="0" line-height="125%"><flowRegion><path d="m22 3h27v15h-27z" fill="#fff"/></flowRegion><flowPara>Plasm</flowPara></flowRoot></g></svg>
