<svg viewBox="0 0 22 22" xmlns="http://www.w3.org/2000/svg"><g transform="matrix(2 0 0 2 -10.99 -2072)"><rect x="7" y="1037" width="8" height="8" rx="4" fill="#32c671"/><path transform="matrix(.0436 0 0 .0436 8.177 1040)" d="m123.9 12.97-11.08-11.08c-1.52-1.521-3.368-2.281-5.54-2.281-2.173 0-4.02 0.76-5.541 2.281l-53.45 53.53-23.95-24.04c-1.521-1.521-3.368-2.281-5.54-2.281-2.173 0-4.02 0.76-5.541 2.281l-11.08 11.08c-1.521 1.521-2.281 3.368-2.281 5.541 0 2.172 0.76 4.02 2.281 5.54l40.57 40.57c1.52 1.521 3.367 2.281 5.54 2.281 2.172 0 4.02-0.761 5.54-2.281l70.07-70.07c1.52-1.521 2.281-3.368 2.281-5.541 1e-4 -2.172-0.761-4.02-2.281-5.54" fill="#fff" stroke-width="9.512"/></g></svg>
