<svg viewBox="0 0 22 22" xmlns="http://www.w3.org/2000/svg"><circle transform="matrix(1 0 0 -1 0 -1030)" cx="11" cy="-1041" r="8" fill="#da4453" opacity=".98"/><path transform="matrix(.3006 0 0 .3006 18.9 1.728)" d="m-26.309 18.07c-1.18 0-2.135.968-2.135 2.129v12.82c0 1.176.948 2.129 2.135 2.129 1.183 0 2.135-.968 2.135-2.129v-12.82c0-1.176-.946-2.129-2.135-2.129zm0 21.348c-1.18 0-2.135.954-2.135 2.135 0 1.18.954 2.135 2.135 2.135 1.181 0 2.135-.954 2.135-2.135 0-1.18-.952-2.135-2.135-2.135z" fill="#fff" stroke="#fff"/></svg>
