<svg viewBox="0 0 22 22" xmlns="http://www.w3.org/2000/svg"><path transform="matrix(.02614 0 0 .02614 3 2.998)" d="m459 114.8h-420.8c-21.11 0-38.25 17.14-38.25 38.25v420.8c0 21.11 17.14 38.25 38.25 38.25h420.8c21.11 0 38.25-17.14 38.25-38.25v-420.8c0-21.11-17.14-38.25-38.25-38.25m114.8-114.8h-382.5c-21.11 0-38.25 17.14-38.25 38.25v38.25h38.25v-19.12c0-10.56 8.568-19.12 19.12-19.12h344.2c10.56 0 19.12 8.568 19.12 19.12v344.2c0 10.56-8.568 19.12-19.12 19.12h-19.12v38.25h38.25c21.11 0 38.25-17.14 38.25-38.25v-382.5c0-21.11-17.14-38.25-38.25-38.25" fill="#fff"/></svg>
