<svg viewBox="0 0 16 16" xmlns="http://www.w3.org/2000/svg"><path transform="matrix(.0295 0 0 .0295 1.992 1.998)" d="m36.01 406.8h334.8c14.26 0 25.92-11.66 25.92-25.91v-355c0-14.22-11.67-25.91-25.92-25.91h-334.8c-14.29 0-25.94 11.69-25.94 25.91v355c0 14.25 11.65 25.91 25.94 25.91m297.5-375.1c0-4.3 3.52-7.771 7.779-7.771h24.3c4.292 0 7.763 3.471 7.763 7.771v25.03c0 4.3-3.471 7.771-7.763 7.771h-24.3c-4.259 0-7.779-3.463-7.779-7.771v-25.03m0 63.67c0-4.3 3.52-7.779 7.779-7.779h24.3c4.292 0 7.763 3.479 7.763 7.779v25.03c0 4.292-3.471 7.795-7.763 7.795h-24.3c-4.259 0-7.779-3.503-7.779-7.795v-25.03m0 63.72c0-4.292 3.52-7.795 7.779-7.795h24.3c4.292 0 7.763 3.503 7.763 7.795v25.04c0 4.259-3.471 7.763-7.763 7.763h-24.3c-4.259 0-7.779-3.503-7.779-7.763v-25.04m0 63.67c0-4.3 3.52-7.795 7.779-7.795h24.3c4.292 0 7.763 3.495 7.763 7.795v25.04c0 4.292-3.471 7.771-7.763 7.771h-24.3c-4.259 0-7.779-3.479-7.779-7.771v-25.04m0 63.67c0-4.3 3.52-7.771 7.779-7.771h24.3c4.292 0 7.763 3.463 7.763 7.771v25.05c0 4.276-3.471 7.755-7.763 7.755h-24.3c-4.259 0-7.779-3.479-7.779-7.755v-25.05m0 63.67c0-4.276 3.52-7.771 7.779-7.771h24.3c4.292 0 7.763 3.495 7.763 7.771v25.08c0 4.243-3.471 7.755-7.763 7.755h-24.3c-4.259 0-7.779-3.503-7.779-7.755v-25.08m-233.5-299.6c0-4.3 3.503-7.771 7.795-7.771h191.3c4.268 0 7.763 3.471 7.763 7.771v123.9c0 4.259-3.495 7.795-7.763 7.795h-191.3c-4.292 0-7.795-3.536-7.795-7.795-1e-4 0-1e-4 -123.9-1e-4 -123.9m0 191.1c0-4.268 3.503-7.747 7.795-7.747h191.3c4.268 0 7.763 3.479 7.763 7.747v114.6c0 4.276-3.495 7.771-7.763 7.771h-191.3c-4.292 0-7.795-3.495-7.795-7.771-1e-4 0-1e-4 -114.6-1e-4 -114.6m-66.52-209.9c0-4.3 3.495-7.771 7.779-7.771h24.31c4.268 0 7.755 3.471 7.755 7.771v25.03c0 4.3-3.487 7.771-7.755 7.771h-24.31c-4.284 0-7.779-3.463-7.779-7.771v-25.03m0 63.67c0-4.3 3.495-7.779 7.779-7.779h24.31c4.268 0 7.755 3.479 7.755 7.779v25.03c0 4.292-3.487 7.795-7.755 7.795h-24.31c-4.284 0-7.779-3.503-7.779-7.795v-25.03m0 63.72c0-4.292 3.495-7.795 7.779-7.795h24.31c4.268 0 7.755 3.503 7.755 7.795v25.04c0 4.259-3.487 7.763-7.755 7.763h-24.31c-4.284 0-7.779-3.503-7.779-7.763v-25.04m0 63.67c0-4.3 3.495-7.795 7.779-7.795h24.31c4.268 0 7.755 3.495 7.755 7.795v25.04c0 4.292-3.487 7.771-7.755 7.771h-24.31c-4.284 0-7.779-3.479-7.779-7.771v-25.04m0 63.67c0-4.3 3.495-7.771 7.779-7.771h24.31c4.268 0 7.755 3.463 7.755 7.771v25.05c0 4.276-3.487 7.755-7.755 7.755h-24.31c-4.284 0-7.779-3.479-7.779-7.755v-25.05m0 63.67c0-4.276 3.495-7.771 7.779-7.771h24.31c4.268 0 7.755 3.495 7.755 7.771v25.08c0 4.243-3.487 7.755-7.755 7.755h-24.31c-4.284 0-7.779-3.503-7.779-7.755v-25.08" fill="#fff" stroke-opacity=".8"/></svg>
