<svg viewBox="0 0 16 16" xmlns="http://www.w3.org/2000/svg"><path transform="matrix(.7864 0 0 .784 -302.2 -421.4)" d="m401.9 543.6c-0.422-0.413-0.932-0.619-1.528-0.619h-1.892l-0.431-1.122c-0.107-0.27-0.303-0.502-0.587-0.697s-0.576-0.293-0.874-0.293h-4.324c-0.298 0-0.59 0.098-0.874 0.293s-0.48 0.428-0.587 0.697l-0.431 1.122h-1.892c-0.597 0-1.106 0.206-1.529 0.619-0.422 0.413-0.633 0.911-0.633 1.494v7.395c0 0.583 0.211 1.081 0.633 1.494s0.932 0.619 1.529 0.619h11.89c0.597 0 1.106-0.206 1.528-0.619s0.633-0.911 0.633-1.494v-7.395c0-0.583-0.211-1.081-0.633-1.494m-4.801 7.804c-0.74 0.724-1.631 1.085-2.673 1.085s-1.932-0.362-2.673-1.085c-0.74-0.724-1.111-1.594-1.111-2.612s0.37-1.889 1.111-2.612c0.74-0.724 1.631-1.085 2.673-1.085s1.932 0.362 2.673 1.085c0.74 0.724 1.111 1.594 1.111 2.612s-0.37 1.889-1.111 2.612m-2.673-4.989c-0.67 0-1.243 0.232-1.719 0.697s-0.714 1.025-0.714 1.68 0.238 1.215 0.714 1.68 1.049 0.697 1.719 0.697 1.243-0.232 1.719-0.697 0.714-1.025 0.714-1.68-0.238-1.215-0.714-1.68-1.049-0.697-1.719-0.697" fill="#fff"/></svg>
