<svg viewBox="0 0 16 16" xmlns="http://www.w3.org/2000/svg"><path transform="matrix(.00691 0 0 .00684 5.644 1.628)" d="m1129 896.2-246.8-249.4c-23.52-23.72-16.19-49.09 16.22-56.46 0 0 26.77-6.098 59.74-39.41 70.78-71.47 70.72-187.5 0-258.9-70.82-71.51-185.5-71.51-256.3 0-33 33.31-38.97 60.31-38.97 60.31-7.297 32.8-32.47 40.14-55.92 16.35l-246.8-249.3c-23.48-23.76-61.96-23.76-85.44 0l-246.8 249.3c-23.45 23.79-16.19 49.22 16.22 56.56 0 0 26.8 6.099 59.74 39.34 70.68 71.47 70.78 187.4 0 259-70.75 71.47-185.6 71.41-256.3 0-32.94-33.34-38.97-60.38-38.97-60.38-7.264-32.77-32.47-40.11-55.96-16.39l-246.8 249.4c-23.48 23.72-23.48 62.53 0 86.25l246.8 249.4c23.48 23.72 16.19 49.16-16.22 56.53 0 0-26.77 6.098-59.74 39.41-70.78 71.51-70.78 187.4 0 258.9 70.75 71.44 185.5 71.51 256.3 0 33-33.31 38.97-60.31 38.97-60.31 7.297-32.8 32.47-40.14 55.92-16.35l246.8 249.3c23.48 23.76 61.96 23.76 85.44 0l246.9-249.3c23.48-23.72 16.19-49.22-16.22-56.53 0 0-26.83-6.098-59.77-39.34-70.82-71.51-70.78-187.4 0-259 70.75-71.47 185.5-71.54 256.3 0 32.97 33.31 38.94 60.38 38.94 60.38 7.297 32.77 32.44 40.18 55.96 16.45l246.8-249.4c23.48-23.72 23.48-62.53 0-86.25" fill="#fff" stroke-opacity=".8" stroke-width="1634"/></svg>
