<svg viewBox="0 0 16 16" xmlns="http://www.w3.org/2000/svg"><path transform="translate(-396 -531)" d="m404 533a6 6 0 0 0-6 6 6 6 0 0 0 6 6 6 6 0 0 0 6-6 6 6 0 0 0-6-6m1.514 2.672c0.022 1e-4 0.048 0.011 0.069 0.017 0.106 0.03 0.195 0.121 0.226 0.227l1.093 3.981 0.573-0.777c0.058-0.086 0.147-0.146 0.251-0.149h0.634c0.013 0 0.026 0.014 0.026 0.026v0.611c0 0.013-0.013 0.017-0.025 0.017h-0.469l-0.841 1.17c-0.144 0.19-0.503 0.124-0.573-0.105l-0.997-3.545-0.685 2.261c-0.042 0.128-0.177 0.216-0.312 0.219h-1.136l-0.928 3.072c-0.046 0.167-0.243 0.277-0.408 0.227-0.106-0.03-0.195-0.121-0.226-0.227l-1.102-3.989-0.563 0.777c-0.058 0.087-0.157 0.137-0.26 0.139h-0.65c-0.012 0-0.017-5e-3 -0.017-0.017v-0.611c0-0.013 5e-3 -0.026 0.017-0.026h0.494l0.841-1.152c0.144-0.19 0.502-0.123 0.572 0.105l0.989 3.545 0.693-2.27c0.042-0.128 0.17-0.225 0.304-0.227h1.136l0.936-3.055c0.035-0.125 0.151-0.219 0.278-0.236 0.021-3e-3 0.039-9e-3 0.061-9e-3" fill="#fff"/></svg>
