<svg viewBox="0 0 64 64" xmlns="http://www.w3.org/2000/svg" xmlns:xlink="http://www.w3.org/1999/xlink"><defs><linearGradient id="c" x1="-661.9" x2="-659.3" y1="588.3" y2="416.2" gradientUnits="userSpaceOnUse" xlink:href="#b"/><linearGradient id="a" x1="-701.2" x2="-704" y1="647.8" y2="354.3" gradientUnits="userSpaceOnUse"><stop stop-color="#93cfff" offset="0"/><stop stop-color="#cde8fe" offset="1"/></linearGradient><linearGradient id="d" x1="59.12" x2="59.15" y1="-13.3" y2="-37.78" gradientTransform="matrix(4.175 0 0 4.168 -1066 447.7)" gradientUnits="userSpaceOnUse" xlink:href="#b"/><linearGradient id="b"><stop stop-color="#289bf7" offset="0"/><stop stop-color="#71b9f1" offset="1"/></linearGradient></defs><g transform="matrix(.1261 0 0 .1261 115 -27.79)"><path d="m-880.5 294.8c-4.626 0-8.349 3.718-8.349 8.335v161.4l461 1v-121.2c0-4.618-3.724-8.335-8.35-8.335h-265.5c-8.51 0.751-9.607-0.377-13.81-5.981-5.964-7.968-14.97-21.44-20.84-29.21-4.712-6.805-5.477-6.02-13.29-6.02z" fill="url(#d)"/><rect x="-890.3" y="356.8" width="463.8" height="295.1" rx="9.63" fill="url(#a)" stroke="url(#a)" stroke-width="2.378"/><path d="m-571.86 478.96l-57.4-8.414-25.727-52.45c-1.447-3.151-3.316-4.726-5.603-4.726-2.286 0-4.154 1.575-5.603 4.726l-25.728 52.45-57.4 8.414c-4.268.692-6.403 2.459-6.403 5.303 0 1.614.953 3.459 2.859 5.533l41.621 40.806-9.833 57.635c-.153 1.077-.229 1.846-.229 2.306 0 1.614.4 2.977 1.2 4.093.8 1.115 2 1.671 3.601 1.671 1.372 0 2.897-.458 4.574-1.382l51.34-27.21 51.34 27.21c1.603.922 3.127 1.382 4.572 1.382 1.528 0 2.689-.555 3.489-1.671.799-1.115 1.199-2.479 1.199-4.093 0-.999-.038-1.767-.115-2.306l-9.834-57.635 41.506-40.806c1.985-1.998 2.974-3.843 2.974-5.533 0-2.844-2.133-4.611-6.405-5.303" fill="url(#c)"/></g></svg>
