<svg viewBox="0 0 48 48" xmlns="http://www.w3.org/2000/svg"><defs><linearGradient id="a" x2="0" y1="545.1" y2="518.1" gradientUnits="userSpaceOnUse"><stop stop-color="#9662ff" offset="0"/><stop stop-color="#bc9bff" offset="1"/></linearGradient></defs><g transform="matrix(1.032 0 0 1.032 -397.9 -516.8)"><circle transform="matrix(1.661 0 0 1.661 -256.5 -359.4)" cx="400.6" cy="531.8" r="14" fill="url(#a)"/><g transform="matrix(1.24 0 0 1.24 -130 -134.8)"><path transform="matrix(.03847 0 0 .03869 423.2 518.7)" d="m25.76 521.9c0.068-26.26 22.39-62.92 54.11-96.23 21.2-22.26 42.73-41.8 89.66-81.81-32.47-17.81-82.96-39.31-108.3-67.45-9.371-10.42-26.36-34.01-23.07-65.53 6.717-64.25 86.02-161.8 198.7-182.4 37.5-6.859 80.56-1.908 116 14.02 111.2 49.98 247.2 174.2 263.9 234.8 5.888 21.34 4.757 55.36-5.395 74.32-12.58 23.5-56.14 71.23-115.7 120.5-93.5 77.27-224.5 160.2-322.4 174.2-31.61 4.511-63.91-0.194-86.57-12.98-35.48-20.01-47.25-46.72-51.39-54.73-11-21.29-9.637-48.27-9.613-56.73z" fill="#fff" fill-opacity=".85" fill-rule="evenodd"/><ellipse transform="matrix(.441 -.8975 .8975 .441 0 0)" cx="-279.1" cy="624.1" rx="2.254" ry="2.705" fill="#b088ff"/></g></g></svg>
