<svg viewBox="0 0 48 48" xmlns="http://www.w3.org/2000/svg"><defs><linearGradient id="a" x2="0" y1="545.1" y2="518.1" gradientUnits="userSpaceOnUse"><stop stop-color="#007aac" offset="0"/><stop stop-color="#00a8ee" offset="1"/></linearGradient></defs><g transform="matrix(1.093 0 0 1.093 -351.3 -550.3)"><g transform="matrix(.9442 0 0 .9442 -179.4 -270.4)"><circle transform="matrix(1.661 0 0 1.661 -111.8 -40.5)" cx="400.6" cy="531.8" r="14" fill="url(#a)"/><g transform="matrix(.1496 0 0 .1496 524.7 748.8)" enable-background="new" fill="#fff" fill-opacity=".85"><g transform="translate(-.208 7)"><path d="m177.9 597.1h-1e-3c-6.673 0-12.11-5.427-12.11-12.1-1e-3 -6.691 5.425-12.12 12.1-12.13 6.683 0 12.12 5.427 12.12 12.1 0 6.691-5.425 12.13-12.1 12.13z"/><path d="m210.6 588.2c-6.231 0-11.3-5.066-11.31-11.29-1e-3 -6.242 5.061-11.32 11.3-11.32 6.239 0 11.31 5.065 11.32 11.29 0 6.242-5.062 11.32-11.3 11.32h-1e-3"/><circle transform="matrix(1.442 0 0 1.442 215.7 578.6)" cx="-17" cy="-15.7" r="7"/><circle transform="matrix(.8076 0 0 .8076 140.7 552.3)" cx="82.5" cy="-16.52" r="11.5"/><circle transform="matrix(.7692 0 0 .7692 187.2 551.3)" cy="-37.52" r="10.5"/></g><path d="m143.9 615c-10.45 13.55-18.93 28.78-18.93 47.24 0 40.01 30.36 73 68 73 37.64 0 68-32.99 68-73 0-18.46-8.489-33.21-19.53-47.24-4.14-4.345-10.12-3.699-14.47-0.919-12.73 6.589-19.61 9.221-34 9.157-13.92-0.062-21.24-2.336-33.97-9.277-4.351-2.659-10.96-3.305-15.1 1.039zm9.07 11.24c13.2 7.298 24.97 11 40 11 15.04 0 26.8-3.702 40-11 7.206 10.16 14 22.76 14 36 0 32.8-24.18 59-54 59-29.83 0-54-26.2-54-59 0-13.22 6.779-25.83 14-36"/></g></g></g></svg>
