<svg viewBox="0 0 48 48" xmlns="http://www.w3.org/2000/svg"><defs><linearGradient id="a" x2="0" y1="546.9" y2="516.5" gradientUnits="userSpaceOnUse"><stop stop-color="#787dab" offset="0"/><stop stop-color="#a5aceb" offset="1"/></linearGradient></defs><g transform="translate(-384.57-499.8)"><circle transform="matrix(1.631 0 0 1.631 -244.8 -343.6)" cx="400.6" cy="531.8" r="14" fill="url(#a)" stroke="url(#a)" stroke-width="1.427"/><path d="m416.41 512.5c-.856.082-1.764.232-2.711.432l-6 6.161c.688.083 1.318.219 1.892.412l6.822-7.01m4.227.346l-8.307 8.521c2.336 3.03 1.513 9.11-3.403 19.13 3.638-3.971 19.513-23.704 12.25-27.425-.169-.087-.353-.161-.539-.229m-11.07 1.201c-1.149.366-2.319.78-3.485 1.221l-3.973 4.075c.911-.148 1.776-.247 2.589-.3l4.868-4.996m-5.957 2.193c-7.248 2.982-13.73 6.624-13.73 6.624 3.851-1.443 7.328-2.522 10.363-3.169l3.368-3.454" fill="#fff" fill-opacity=".843"/></g></svg>
