<svg viewBox="0 0 64 64" xmlns="http://www.w3.org/2000/svg" xmlns:xlink="http://www.w3.org/1999/xlink"><defs><linearGradient id="c" x1="71.46" x2="77.53" y1="470.5" y2="268.7" gradientUnits="userSpaceOnUse" xlink:href="#b"/><linearGradient id="a" x1="-701.2" x2="-704" y1="647.8" y2="354.3" gradientUnits="userSpaceOnUse"><stop stop-color="#93cfff" offset="0"/><stop stop-color="#cde8fe" offset="1"/></linearGradient><linearGradient id="d" x1="59.12" x2="59.15" y1="-13.3" y2="-37.78" gradientTransform="matrix(4.175 0 0 4.168 -1066 447.7)" gradientUnits="userSpaceOnUse" xlink:href="#b"/><linearGradient id="b"><stop stop-color="#289bf7" offset="0"/><stop stop-color="#71b9f1" offset="1"/></linearGradient></defs><g transform="matrix(.123 0 0 .123 21.41 -9.608)"><path transform="matrix(1.025 0 0 1.025 761 -147.8)" d="m-880.5 294.8c-4.626 0-8.349 3.718-8.349 8.335v161.4l461 1v-121.2c0-4.618-3.724-8.335-8.35-8.335h-265.5c-8.51 0.751-9.607-0.377-13.81-5.981-5.964-7.968-14.97-21.44-20.84-29.21-4.712-6.805-5.477-6.02-13.29-6.02z" fill="url(#d)"/><rect transform="matrix(1.025 0 0 1.025 761 -147.8)" x="-890.3" y="356.8" width="463.8" height="295.1" rx="9.63" fill="url(#a)" stroke="url(#a)" stroke-width="2.378"/><path d="m51.96 291.1c-6.583 1.862-11.88 9.268-11.88 16.46v114.1c-6.676-3.689-15.25-5.181-24.14-2.744-16.04 4.399-26.09 18.62-22.65 31.75 3.438 13.13 19.24 20.47 35.28 16.07 12.8-3.509 21.62-13.44 23.02-23.91l0.371-107.8 83.18-23.52v85.05c-6.676-3.689-15.25-5.181-24.14-2.744-16.04 4.399-26.09 18.62-22.65 31.75 3.438 13.13 19.24 20.47 35.28 16.07 12.8-3.509 21.62-13.44 23.02-23.91l0.371-140.3c0-5.395-3.159-9.432-7.427-10.19l-87.64 23.91" fill="url(#c)"/></g></svg>
