<svg viewBox="0 0 64 64" xmlns="http://www.w3.org/2000/svg" xmlns:xlink="http://www.w3.org/1999/xlink"><defs><linearGradient id="c" x1="-429.2" x2="-429.7" y1="455.7" y2="268" gradientUnits="userSpaceOnUse" xlink:href="#b"/><linearGradient id="a" x1="-701.2" x2="-704" y1="647.8" y2="354.3" gradientUnits="userSpaceOnUse"><stop stop-color="#93cfff" offset="0"/><stop stop-color="#cde8fe" offset="1"/></linearGradient><linearGradient id="d" x1="59.12" x2="59.15" y1="-13.3" y2="-37.78" gradientTransform="matrix(4.175 0 0 4.168 -1066 447.7)" gradientUnits="userSpaceOnUse" xlink:href="#b"/><linearGradient id="b"><stop stop-color="#289bf7" offset="0"/><stop stop-color="#71b9f1" offset="1"/></linearGradient></defs><g transform="matrix(.1261 0 0 .1261 85.51 -10.1)"><path transform="translate(234.1 -140.3)" d="m-880.5 294.8c-4.626 0-8.349 3.718-8.349 8.335v161.4l461 1v-121.2c0-4.618-3.724-8.335-8.35-8.335h-265.5c-8.51 0.751-9.607-0.377-13.81-5.981-5.964-7.968-14.97-21.44-20.84-29.21-4.712-6.805-5.477-6.02-13.29-6.02z" fill="url(#d)"/><rect transform="translate(234.1 -140.3)" x="-890.3" y="356.8" width="463.8" height="295.1" rx="9.63" fill="url(#a)" stroke="url(#a)" stroke-width="2.378"/><path d="m-307.1 291.8c-34.48 0-63.81 31.13-63.81 69.51v64.38c0 8.257 2.617 9.657 8.763 5.361 3.696-2.585 7.119-4.056 11.88-4.056 4.255 0 8.09 1.179 11.7 3.273 6.109 3.53 12.15 3.566 18.19 9e-3 3.552-2.1 7.538-3.285 11.79-3.285 4.261 0 8.269 1.179 11.8 3.273 5.996 3.572 12.18 3.518 18.3 0 3.632-2.094 7.742-3.273 12-3.273 4.384 0 9.161 1.251 12.6 3.482 5.728 3.697 10.58 1.532 10.58-6.731v-62.43c6e-3 -38.39-29.32-69.52-63.79-69.52zm-101.8 87.4c8.258 0 14.96-6.508 14.96-14.55 0-8.03-6.696-14.55-14.96-14.55-8.258 0-14.96 6.513-14.96 14.55 0 8.04 6.696 14.55 14.96 14.55m-54.85 0c8.258 0 14.96-6.508 14.96-14.55 0-8.03-6.696-14.55-14.96-14.55-8.258 0-14.96 6.513-14.96 14.55 0 8.04 6.696 14.55 14.96 14.55m-69.68 55.29c14.21 0 27.44-4.02 38.58-10.95 6.489-4.03 6.539-12.66 1.094-17.95l-29.81-29.01c-5.457-5.298-5.463-13.89 0-19.19l32.23-31.35c5.457-5.303 5.613-14.12-0.67-18.45-11.71-8.07-26-12.81-41.44-12.81-39.64 8e-3 -71.79 31.3-71.79 69.87 0 38.58 32.15 69.84 71.8 69.84" fill="url(#c)"/></g></svg>
