<svg viewBox="0 0 64 64" xmlns="http://www.w3.org/2000/svg" xmlns:xlink="http://www.w3.org/1999/xlink"><defs><linearGradient id="c" x1="315.5" x2="310.7" y1="147.2" y2="31.12" gradientUnits="userSpaceOnUse" xlink:href="#b"/><linearGradient id="a" x1="-701.2" x2="-704" y1="647.8" y2="354.3" gradientUnits="userSpaceOnUse"><stop stop-color="#93cfff" offset="0"/><stop stop-color="#cde8fe" offset="1"/></linearGradient><linearGradient id="d" x1="59.12" x2="59.15" y1="-13.3" y2="-37.78" gradientTransform="matrix(4.175 0 0 4.168 -1066 447.7)" gradientUnits="userSpaceOnUse" xlink:href="#b"/><linearGradient id="b"><stop stop-color="#289bf7" offset="0"/><stop stop-color="#71b9f1" offset="1"/></linearGradient></defs><g transform="matrix(.2083 0 0 .2083 -33.37 16.98)"><path transform="matrix(.6057 0 0 .6057 712.6 -215)" d="m-880.5 294.8c-4.626 0-8.349 3.718-8.349 8.335v161.4l461 1v-121.2c0-4.618-3.724-8.335-8.35-8.335h-265.5c-8.51 0.751-9.607-0.377-13.81-5.981-5.964-7.968-14.97-21.44-20.84-29.21-4.712-6.805-5.477-6.02-13.29-6.02z" fill="url(#d)"/><rect transform="matrix(.6057 0 0 .6057 712.6 -215)" x="-890.3" y="356.8" width="463.8" height="295.1" rx="9.63" fill="url(#a)" stroke="url(#a)" stroke-width="2.378"/><path d="m351.8 31.21c-24.6 0-29.21 35.04-15.37 35.04 13.84 0 39.97-35.04 15.37-35.04m-39.25 4.37c-13.84 1.797-8.976 25.88-1.604 26.32 7.369 0.45 15.45-28.12 1.604-26.32m-23.19 9.481c-0.607 0.064-1.265 0.229-1.96 0.516-11.13 4.592-1.686 23.55 4.548 22.27 5.849-1.193 6.519-23.76-2.588-22.79m-17.29 14.83c-0.968-0.033-2.01 0.281-3.123 1.05-8.908 6.155 2.993 21.03 8.234 18.72 4.586-2.02 1.661-19.54-5.111-19.77m50.88 11.38c-19.1-0.323-44.29 9.261-48.59 28.5-4.653 20.82 19.15 49.7 43.99 49.7 12.22 0 26.31-11.03 28.95-25.01 2.01-10.66-23.7-6.387-22.77 0.666 1.107 8.454-6.206 12.62-13.36 7.174-22.79-17.35 37.73-26 33.74-49.7-1.242-7.378-10.5-11.14-21.96-11.33" fill="url(#c)"/></g></svg>
