<svg viewBox="0 0 64 64" xmlns="http://www.w3.org/2000/svg" xmlns:xlink="http://www.w3.org/1999/xlink"><defs><linearGradient id="c" x1="68.75" x2="68.4" y1="52.05" y2="36.92" gradientUnits="userSpaceOnUse" xlink:href="#b"/><linearGradient id="a" x1="-701.2" x2="-704" y1="647.8" y2="354.3" gradientUnits="userSpaceOnUse"><stop stop-color="#93cfff" offset="0"/><stop stop-color="#cde8fe" offset="1"/></linearGradient><linearGradient id="d" x1="59.12" x2="59.15" y1="-13.3" y2="-37.78" gradientTransform="matrix(4.175 0 0 4.168 -1066 447.7)" gradientUnits="userSpaceOnUse" xlink:href="#b"/><linearGradient id="b"><stop stop-color="#289bf7" offset="0"/><stop stop-color="#71b9f1" offset="1"/></linearGradient></defs><g transform="matrix(.4286 0 0 .4286 -297.5 -45.25)"><path transform="matrix(.2943 0 0 .2943 962.6 40.74)" d="m-880.5 294.8c-4.626 0-8.349 3.718-8.349 8.335v161.4l461 1v-121.2c0-4.618-3.724-8.335-8.35-8.335h-265.5c-8.51 0.751-9.607-0.377-13.81-5.981-5.964-7.968-14.97-21.44-20.84-29.21-4.712-6.805-5.477-6.02-13.29-6.02z" fill="url(#d)"/><rect transform="matrix(.2943 0 0 .2943 962.6 40.74)" x="-890.3" y="356.8" width="463.8" height="295.1" rx="9.63" fill="url(#a)" stroke="url(#a)" stroke-width="2.378"/><path transform="matrix(3.5 0 0 3.5 529.4 33.85)" d="m68.39 36.596c-.424 0-.806.254-1.02.635l-7.264 13.715c-.171.339-.171.804.039 1.143.21.339.549.508.973.508h14.578c.424 0 .806-.212.977-.551.213-.339.215-.762.047-1.143l-7.316-13.715c-.21-.381-.59-.592-1.014-.592m.021 5.414c.357 0 .643.287.643.641v3.852c0 .349-.287.641-.643.641-.357 0-.641-.287-.641-.641v-3.852c0-.349.286-.641.641-.641m0 6.416c.355 0 .643.288.643.643 0 .355-.288.641-.643.641-.355 0-.641-.286-.641-.641 0-.355.286-.643.641-.643" fill="url(#c)"/></g></svg>
