<svg viewBox="0 0 64 64" xmlns="http://www.w3.org/2000/svg" xmlns:xlink="http://www.w3.org/1999/xlink"><defs><clipPath id="f"><path d="m547 542.9h13.05v-38.14h-13.05v38.14"/></clipPath><clipPath id="g"><path d="m556.8 516.6c2.252 9.368 8.092 26.19 18.87 29.12 6.02 1.639 11.39-1.373 5.753-5.147-11.5-7.696-17.74-10.54-24.63-23.97"/></clipPath><clipPath id="h"><path d="m556.8 546.2h27.01v-29.58h-27.01v29.58"/></clipPath><clipPath id="i"><path d="m596.5 511.7c-6.962 6.661-20.97 17.64-31.63 14.28-5.954-1.882-8.839-7.319-2.055-7.441 13.84-0.25 20.62 0.731 33.68-6.836"/></clipPath><clipPath id="j"><path d="m558.9 526.6h37.6v-14.9h-37.6v14.9"/></clipPath><clipPath id="k"><path d="m0 792h612v-792h-612v792"/></clipPath><linearGradient id="e" x1="559.2" x2="560.1" y1="506" y2="546.7" gradientUnits="userSpaceOnUse" xlink:href="#a"/><linearGradient id="d" x1="562.4" x2="562.7" y1="504.6" y2="546.4" gradientUnits="userSpaceOnUse" xlink:href="#a"/><linearGradient id="l" x1="59.12" x2="59.15" y1="-13.3" y2="-37.78" gradientTransform="matrix(4.175 0 0 4.168 -1066 447.7)" gradientUnits="userSpaceOnUse" xlink:href="#a"/><linearGradient id="a"><stop stop-color="#289bf7" offset="0"/><stop stop-color="#71b9f1" offset="1"/></linearGradient><linearGradient id="b" x1="-701.2" x2="-704" y1="647.8" y2="354.3" gradientUnits="userSpaceOnUse"><stop stop-color="#93cfff" offset="0"/><stop stop-color="#cde8fe" offset="1"/></linearGradient><linearGradient id="c" x1="564.2" x2="564" y1="506.5" y2="548.2" gradientUnits="userSpaceOnUse" xlink:href="#a"/></defs><g transform="matrix(.1261 0 0 .1261 .589 -60.9)"><g transform="translate(673.2 402.7)"><path transform="translate(234.1 -140.3)" d="m-880.5 294.8c-4.626 0-8.349 3.718-8.349 8.335v161.4l461 1v-121.2c0-4.618-3.724-8.335-8.35-8.335h-265.5c-8.51 0.751-9.607-0.377-13.81-5.981-5.964-7.968-14.97-21.44-20.84-29.21-4.712-6.805-5.477-6.02-13.29-6.02z" fill="url(#l)"/><rect transform="translate(234.1 -140.3)" x="-890.3" y="356.8" width="463.8" height="295.1" rx="9.63" fill="url(#b)" stroke="url(#b)" stroke-width="2.378"/></g><g transform="matrix(4.525 0 0 -4.517 -2329 3145)" clip-path="url(#k)" enable-background="new" fill="#56aef3"><g transform="translate(-3.997-1.449)" clip-path="url(#j)"><g clip-path="url(#i)"><path d="m596.5 511.7c-6.962 6.661-20.97 17.64-31.63 14.28-5.954-1.882-8.839-7.319-2.055-7.441 13.84-0.25 20.62 0.731 33.68-6.836" fill="url(#c)" fill-rule="evenodd"/></g></g><g transform="translate(-2.485.663)" clip-path="url(#h)"><g clip-path="url(#g)"><path d="m556.8 516.6c2.252 9.368 8.092 26.19 18.87 29.12 6.02 1.639 11.39-1.373 5.753-5.147-11.5-7.696-17.74-10.54-24.63-23.97" fill="url(#d)" fill-rule="evenodd"/></g></g><g clip-path="url(#f)"><path d="m560.1 504.7c-6.172 7.399-16.18 22.12-12.09 32.52 2.281 5.812 7.902 8.321 7.563 1.544-0.691-13.82-2.131-20.52 4.531-34.07" fill="url(#e)" fill-rule="evenodd"/></g></g></g></svg>
