<svg viewBox="0 0 64 64" xmlns="http://www.w3.org/2000/svg" xmlns:xlink="http://www.w3.org/1999/xlink"><defs><linearGradient id="c" x1="-423.7" x2="-422.4" y1="447.9" y2="290.1" gradientUnits="userSpaceOnUse" xlink:href="#b"/><linearGradient id="a" x1="-701.2" x2="-704" y1="647.8" y2="354.3" gradientUnits="userSpaceOnUse"><stop stop-color="#93cfff" offset="0"/><stop stop-color="#cde8fe" offset="1"/></linearGradient><linearGradient id="d" x1="59.12" x2="59.15" y1="-13.3" y2="-37.78" gradientTransform="matrix(4.175 0 0 4.168 -1066 447.7)" gradientUnits="userSpaceOnUse" xlink:href="#b"/><linearGradient id="b"><stop stop-color="#289bf7" offset="0"/><stop stop-color="#71b9f1" offset="1"/></linearGradient></defs><g transform="matrix(.1261 0 0 .1261 85.51 -10.1)"><path transform="translate(234.1 -140.3)" d="m-880.5 294.8c-4.626 0-8.349 3.718-8.349 8.335v161.4l461 1v-121.2c0-4.618-3.724-8.335-8.35-8.335h-265.5c-8.51 0.751-9.607-0.377-13.81-5.981-5.964-7.968-14.97-21.44-20.84-29.21-4.712-6.805-5.477-6.02-13.29-6.02z" fill="url(#d)"/><rect transform="translate(234.1 -140.3)" x="-890.3" y="356.8" width="463.8" height="295.1" rx="9.63" fill="url(#a)" stroke="url(#a)" stroke-width="2.378"/><path d="m-342.6 300.6c-8.989-8.861-21.41-13.29-37.27-13.29-4.388 0-8.866 0.768-13.43 2.303-4.566 1.536-8.813 3.61-12.74 6.217-3.929 2.607-7.307 5.055-10.14 7.342-2.831 2.286-5.52 4.716-8.07 7.288-2.549-2.572-5.239-5-8.07-7.288-2.832-2.286-6.211-4.733-10.14-7.342s-8.176-4.68-12.74-6.217c-4.565-1.535-9.04-2.303-13.43-2.303-15.86 0-28.28 4.431-37.27 13.29-8.989 8.86-13.48 21.15-13.48 36.87 0 4.787 0.833 9.719 2.496 14.79 1.663 5.072 3.558 9.396 5.681 12.97s4.53 7.06 7.22 10.45c2.69 3.394 4.655 5.733 5.893 7.02 1.238 1.285 2.212 2.214 2.919 2.785l66.25 64.52c1.275 1.288 2.832 1.931 4.672 1.931s3.397-0.643 4.672-1.928l66.15-64.31c16.21-16.36 24.31-32.44 24.31-48.23 0-15.72-4.496-28.01-13.48-36.87" fill="url(#c)"/></g></svg>
