<svg viewBox="0 0 64 64" xmlns="http://www.w3.org/2000/svg" xmlns:xlink="http://www.w3.org/1999/xlink"><defs><linearGradient id="c" x1="481.8" x2="482.3" y1="535.5" y2="511" gradientUnits="userSpaceOnUse" xlink:href="#b"/><linearGradient id="a" x1="-701.2" x2="-704" y1="647.8" y2="354.3" gradientUnits="userSpaceOnUse"><stop stop-color="#93cfff" offset="0"/><stop stop-color="#cde8fe" offset="1"/></linearGradient><linearGradient id="d" x1="59.12" x2="59.15" y1="-13.3" y2="-37.78" gradientTransform="matrix(4.175 0 0 4.168 -1066 447.7)" gradientUnits="userSpaceOnUse" xlink:href="#b"/><linearGradient id="b"><stop stop-color="#289bf7" offset="0"/><stop stop-color="#71b9f1" offset="1"/></linearGradient></defs><g transform="matrix(.9492 0 0 .9492 -425.6 -460.3)"><path transform="matrix(.1329 0 0 .1329 569.6 455.7)" d="m-880.5 294.8c-4.626 0-8.349 3.718-8.349 8.335v161.4l461 1v-121.2c0-4.618-3.724-8.335-8.35-8.335h-265.5c-8.51 0.751-9.607-0.377-13.81-5.981-5.964-7.968-14.97-21.44-20.84-29.21-4.712-6.805-5.477-6.02-13.29-6.02z" fill="url(#d)"/><rect transform="matrix(.1329 0 0 .1329 569.6 455.7)" x="-890.3" y="356.8" width="463.8" height="295.1" rx="9.63" fill="url(#a)" stroke="url(#a)" stroke-width="2.378"/><path d="m494.52 522.61l-3.763-3.765c-.359-.358-.247-.741.247-.852 0 0 .408-.092.911-.595 1.079-1.079 1.078-2.83 0-3.907-1.08-1.079-2.828-1.079-3.908 0-.503.503-.594.91-.594.91-.111.495-.495.606-.853.247l-3.763-3.762c-.358-.359-.945-.359-1.303 0l-3.763 3.762c-.358.359-.247.743.247.854 0 0 .409.092.911.594 1.078 1.079 1.079 2.829 0 3.909-1.079 1.079-2.83 1.078-3.908 0-.502-.503-.594-.911-.594-.911-.111-.495-.495-.605-.853-.247l-3.763 3.764c-.358.358-.358.944 0 1.302l3.763 3.764c.358.358.247.742-.247.853 0 0-.408.092-.911.595-1.079 1.079-1.079 2.828 0 3.907 1.079 1.078 2.828 1.079 3.908 0 .503-.503.594-.91.594-.91.111-.495.495-.606.853-.247l3.764 3.762c.358.359.945.359 1.303 0l3.764-3.763c.358-.358.247-.743-.247-.853 0 0-.409-.092-.911-.594-1.08-1.079-1.079-2.829 0-3.909 1.079-1.079 2.828-1.08 3.908 0 .503.503.594.911.594.911.111.495.495.606.853.248l3.763-3.765c.358-.358.358-.944 0-1.302" fill="url(#c)"/></g></svg>
