<svg viewBox="0 0 64 64" xmlns="http://www.w3.org/2000/svg" xmlns:xlink="http://www.w3.org/1999/xlink"><defs><linearGradient id="c" x1="-421.6" x2="-429.5" y1="461.4" y2="268.4" gradientUnits="userSpaceOnUse" xlink:href="#b"/><linearGradient id="a" x1="-701.2" x2="-704" y1="647.8" y2="354.3" gradientUnits="userSpaceOnUse"><stop stop-color="#93cfff" offset="0"/><stop stop-color="#cde8fe" offset="1"/></linearGradient><linearGradient id="d" x1="59.12" x2="59.15" y1="-13.3" y2="-37.78" gradientTransform="matrix(4.175 0 0 4.168 -1066 447.7)" gradientUnits="userSpaceOnUse" xlink:href="#b"/><linearGradient id="b"><stop stop-color="#289bf7" offset="0"/><stop stop-color="#71b9f1" offset="1"/></linearGradient></defs><g transform="matrix(.1261 0 0 .1261 85.51 -10.1)"><path transform="translate(234.1 -140.3)" d="m-880.5 294.8c-4.626 0-8.349 3.718-8.349 8.335v161.4l461 1v-121.2c0-4.618-3.724-8.335-8.35-8.335h-265.5c-8.51 0.751-9.607-0.377-13.81-5.981-5.964-7.968-14.97-21.44-20.84-29.21-4.712-6.805-5.477-6.02-13.29-6.02z" fill="url(#d)"/><rect transform="translate(234.1 -140.3)" x="-890.3" y="356.8" width="463.8" height="295.1" rx="9.63" fill="url(#a)" stroke="url(#a)" stroke-width="2.378"/><path d="m-473.1 334.3c2.068 0 4.074 0.3 5.956 0.889 7.135-7.993 15.05-15.27 23.61-21.72-0.362-1.51-0.558-3.092-0.558-4.705 0-2.244 0.372-4.405 1.055-6.421-9.606-6.866-20.03-12.65-31.14-17.1-10.39 6.421-19.46 14.8-26.7 24.62 5.367 9.513 11.75 18.38 19.01 26.44 2.647-1.282 5.615-2.01 8.769-2.01m-20.25 20.24c0-2.844 0.6-5.553 1.644-7.993-6.494-7.156-12.38-14.85-17.53-23.05-6.463 12.84-10.13 27.35-10.13 42.72 0 17.78 4.901 34.41 13.39 48.65 3.04-17.1 8.8-33.29 16.75-48.1-2.585-3.392-4.126-7.642-4.126-12.22m69.49-66c5.346 0 10.18 2.078 13.82 5.47 10.56-4.539 21.67-8.03 33.24-10.26-13.97-8.06-30.16-12.68-47.43-12.68-11.78 0-23.05 2.161-33.46 6.08 8.262 4.085 16.14 8.841 23.54 14.22 3.02-1.799 6.525-2.833 10.29-2.833m30.26 95.33c1.262-2.627 3.05-4.953 5.263-6.783-5.977-18.38-15.44-35.2-27.63-49.67-2.42 1.034-5.087 1.592-7.9 1.592-4.395 0-8.438-1.417-11.76-3.774-7.342 5.574-14.14 11.82-20.31 18.64 1.944 3.092 3.071 6.742 3.071 10.66 0 2.099-0.32 4.136-0.931 6.06 17.76 11.85 38.2 20 60.19 23.27m26.25 27.33c0.269 3.836 0.424 7.693 0.424 11.59 0 6.866-0.434 13.63-1.262 20.28 16.13-11.78 28.42-28.52 34.61-47.97-7.342 1.779-14.87 3.05-22.55 3.774-1.789 5.553-5.915 10.02-11.22 12.33m-30.99-13.72c-23.49-3.898-45.26-12.86-64.21-25.69-3.082 1.882-6.69 2.988-10.56 2.988-1.437 0-2.813-0.145-4.157-0.424-9.07 17.19-14.87 36.37-16.53 56.71 9.06 9.72 20.1 17.55 32.52 22.8 15.43-23.71 36.98-43.32 62.94-56.39m37.97-101.8c-15.25 1.479-29.81 5.315-43.36 11.04 0.063 0.682 0.103 1.355 0.103 2.037 0 3.195-0.765 6.204-2.078 8.883 13.56 15.91 24.06 34.43 30.7 54.71 8.241 0.165 15.27 5.191 18.3 12.36 9.162-0.931 18.08-2.689 26.66-5.212 0.621-4.343 0.951-8.789 0.951-13.31-0.013-27.96-12.07-53.11-31.28-70.51m-27.78 112.6c-24.24 11.35-44.51 28.84-59.18 50.21 7.393 1.851 15.13 2.844 23.1 2.844 14.34 0 27.94-3.195 40.14-8.883 1.965-9.596 2.999-19.51 2.999-29.67 0-3.671-0.165-7.311-0.445-10.91-2.44-0.786-4.684-1.996-6.618-3.599" fill="url(#c)"/></g></svg>
