<svg viewBox="0 0 64 64" xmlns="http://www.w3.org/2000/svg" xmlns:xlink="http://www.w3.org/1999/xlink"><defs><linearGradient id="c" x2="0" y1="455.7" y2="283.6" gradientUnits="userSpaceOnUse" xlink:href="#b"/><linearGradient id="a" x1="-701.2" x2="-704" y1="647.8" y2="354.3" gradientUnits="userSpaceOnUse"><stop stop-color="#93cfff" offset="0"/><stop stop-color="#cde8fe" offset="1"/></linearGradient><linearGradient id="d" x1="59.12" x2="59.15" y1="-13.3" y2="-37.78" gradientTransform="matrix(4.175 0 0 4.168 -1066 447.7)" gradientUnits="userSpaceOnUse" xlink:href="#b"/><linearGradient id="b"><stop stop-color="#289bf7" offset="0"/><stop stop-color="#71b9f1" offset="1"/></linearGradient></defs><g transform="matrix(.1261 0 0 .1261 85.51 -10.1)"><path transform="translate(234.1 -140.3)" d="m-880.5 294.8c-4.626 0-8.349 3.718-8.349 8.335v161.4l461 1v-121.2c0-4.618-3.724-8.335-8.35-8.335h-265.5c-8.51 0.751-9.607-0.377-13.81-5.981-5.964-7.968-14.97-21.44-20.84-29.21-4.712-6.805-5.477-6.02-13.29-6.02z" fill="url(#d)"/><rect transform="translate(234.1 -140.3)" x="-890.3" y="356.8" width="463.8" height="295.1" rx="9.63" fill="url(#a)" stroke="url(#a)" stroke-width="2.378"/><path d="m-466.8 419.1 41.83-35.1-60.43-37.56-41.34 33.37 59.94 39.28m41.83-35.1 41.96 35.1 59.81-39.28-41.34-33.37-60.43 37.56m0 7.638-41.83 34.97-17.98-11.82v13.3l59.82 36.08 60.18-36.08v-13.3l-17.98 11.82-42.2-34.97m-101.8-78.45 41.34 33.25 60.43-37.44-41.83-35.1-59.94 39.28m143.7-39.28-41.96 35.1 60.43 37.44 41.34-33.25-59.81-39.28" fill="url(#c)"/></g></svg>
