<svg viewBox="0 0 64 64" xmlns="http://www.w3.org/2000/svg" xmlns:xlink="http://www.w3.org/1999/xlink"><defs><linearGradient id="c" x1="32.12" x2="32" y1="47.91" y2="23.84" gradientUnits="userSpaceOnUse" xlink:href="#b"/><linearGradient id="a" x1="-701.2" x2="-704" y1="647.8" y2="354.3" gradientUnits="userSpaceOnUse"><stop stop-color="#93cfff" offset="0"/><stop stop-color="#cde8fe" offset="1"/></linearGradient><linearGradient id="d" x1="59.12" x2="59.15" y1="-13.3" y2="-37.78" gradientTransform="matrix(4.175 0 0 4.168 -1066 447.7)" gradientUnits="userSpaceOnUse" xlink:href="#b"/><linearGradient id="b"><stop stop-color="#289bf7" offset="0"/><stop stop-color="#71b9f1" offset="1"/></linearGradient></defs><g transform="matrix(1.156 0 0 1.156 -441.1 -565.4)"><path transform="matrix(.1091 0 0 .1091 481.2 465.1)" d="m-880.5 294.8c-4.626 0-8.349 3.718-8.349 8.335v161.4l461 1v-121.2c0-4.618-3.724-8.335-8.35-8.335h-265.5c-8.51 0.751-9.607-0.377-13.81-5.981-5.964-7.968-14.97-21.44-20.84-29.21-4.712-6.805-5.477-6.02-13.29-6.02z" fill="url(#d)"/><rect transform="matrix(.1091 0 0 .1091 481.2 465.1)" x="-890.3" y="356.8" width="463.8" height="295.1" rx="9.63" fill="url(#a)" stroke="url(#a)" stroke-width="2.378"/><path transform="matrix(1.081 0 0 1.081 374.7 478.8)" d="m31.01 24.16c-.455 0-.82.367-.82.822v.205c0 .455.365.822.82.822h2.057c.455 0 .82-.367.82-.822v-.205c0-.455-.365-.822-.82-.822h-2.057m-.008 2.674c-.455 0-.82.367-.82.822v.207c0 .455.365.82.82.82h2.057c.455 0 .82-.365.82-.82v-.207c0-.455-.365-.822-.82-.822h-2.057m-.021 2.643c-.455 0-.822.367-.822.822v.207c0 .455.367.82.822.82h2.055c.455 0 .822-.365.822-.82v-.207c0-.455-.367-.822-.822-.822h-2.055m.039 2.752c-.455 0-.82.367-.82.822v.205c0 .455.365.822.82.822h2.057c.455 0 .82-.367.82-.822v-.205c0-.455-.365-.822-.82-.822h-2.057m0 2.703c-.455 0-.82.365-.82.82v.207c0 .455.365.822.82.822h2.057c.455 0 .82-.367.82-.822v-.207c0-.455-.365-.82-.82-.82h-2.057m0 2.766c-.455 0-.82.367-.82.822v.205c0 .455.365.822.82.822h2.057c.455 0 .82-.367.82-.822v-.205c0-.455-.365-.822-.82-.822h-2.057m.166 2.797c-.324 0-.588.263-.588.588v1.168l-.906 2.672c-.254.745-.133 1.573.324 2.215.457.64 1.199 1.023 1.984 1.023.785 0 1.527-.383 1.984-1.023.457-.642.578-1.468.324-2.213l-.906-2.674v-1.168c0-.325-.264-.588-.588-.588h-1.629m-.072 3.914h1.773l.305.896c.13.384.068.812-.168 1.143-.47.661-1.576.661-2.047 0-.236-.331-.298-.758-.168-1.143l.305-.896" fill="url(#c)" opacity=".929"/></g></svg>
