<svg viewBox="0 0 64 64" xmlns="http://www.w3.org/2000/svg" xmlns:xlink="http://www.w3.org/1999/xlink"><defs><linearGradient id="c" x1="-450.3" x2="-442.5" y1="441.4" y2="274.5" gradientUnits="userSpaceOnUse" xlink:href="#b"/><linearGradient id="a" x1="-701.2" x2="-704" y1="647.8" y2="354.3" gradientUnits="userSpaceOnUse"><stop stop-color="#93cfff" offset="0"/><stop stop-color="#cde8fe" offset="1"/></linearGradient><linearGradient id="d" x1="59.12" x2="59.15" y1="-13.3" y2="-37.78" gradientTransform="matrix(4.175 0 0 4.168 -1066 447.7)" gradientUnits="userSpaceOnUse" xlink:href="#b"/><linearGradient id="b"><stop stop-color="#289bf7" offset="0"/><stop stop-color="#71b9f1" offset="1"/></linearGradient></defs><g transform="matrix(.1261 0 0 .1261 85.51 -10.1)"><path transform="translate(234.1 -140.3)" d="m-880.5 294.8c-4.626 0-8.349 3.718-8.349 8.335v161.4l461 1v-121.2c0-4.618-3.724-8.335-8.35-8.335h-265.5c-8.51 0.751-9.607-0.377-13.81-5.981-5.964-7.968-14.97-21.44-20.84-29.21-4.712-6.805-5.477-6.02-13.29-6.02z" fill="url(#d)"/><rect transform="translate(234.1 -140.3)" x="-890.3" y="356.8" width="463.8" height="295.1" rx="9.63" fill="url(#a)" stroke="url(#a)" stroke-width="2.378"/><path d="m-439.9 276.6 1.254 0.264c14.59-4.844 47.34 14.24 40.04 31.24-1.849 2.669-1.535 7.414 0.693 10.4l-40.95 40.89c-2.294-2.29-7.394-2.241-9.738 0l-67.72 64.88c-6.173 5.915-1.32 10.94 1.287 13.59l12.15 12.13c2.657 2.636 9.672 6.195 14.66 0.923l63.91-67.24c2.228-2.34 2.245-7.365 0-9.671 0 0 0.017-0.033 0-0.033l41.11-41.03c4.341 3.905 8.44 4.242 12.33 3.18 7.511-2.052 11.7 5.283 16.19 10.64l-2.03 1.994c-3 3.03-2.723 8.139 0.644 11.5s8.5 3.641 11.5 0.643l13.44-13.4c3-3.03 2.723-8.139-0.66-11.48-3.037-3.048-7.444-3.443-10.51-1.269-9.21-10.31-4.374-11.86-16.52-25.29l-22.76-23.21c-16.39-16.05-37.68-16.03-58.31-9.655" fill="url(#c)"/></g></svg>
