<svg viewBox="0 0 64 64" xmlns="http://www.w3.org/2000/svg" xmlns:xlink="http://www.w3.org/1999/xlink"><defs><linearGradient id="c" x1="142.9" x2="151.8" y1="263" y2="129.1" gradientUnits="userSpaceOnUse" xlink:href="#b"/><linearGradient id="a" x1="-701.2" x2="-704" y1="647.8" y2="354.3" gradientUnits="userSpaceOnUse"><stop stop-color="#93cfff" offset="0"/><stop stop-color="#cde8fe" offset="1"/></linearGradient><linearGradient id="d" x1="59.12" x2="59.15" y1="-13.3" y2="-37.78" gradientTransform="matrix(4.175 0 0 4.168 -1066 447.7)" gradientUnits="userSpaceOnUse" xlink:href="#b"/><linearGradient id="b"><stop stop-color="#289bf7" offset="0"/><stop stop-color="#71b9f1" offset="1"/></linearGradient></defs><g transform="matrix(.1702 0 0 .1702 4.289 2.212)"><path transform="matrix(.741 0 0 .741 650.6 -176.2)" d="m-880.5 294.8c-4.626 0-8.349 3.718-8.349 8.335v161.4l461 1v-121.2c0-4.618-3.724-8.335-8.35-8.335h-265.5c-8.51 0.751-9.607-0.377-13.81-5.981-5.964-7.968-14.97-21.44-20.84-29.21-4.712-6.805-5.477-6.02-13.29-6.02z" fill="url(#d)"/><rect transform="matrix(.741 0 0 .741 650.6 -176.2)" x="-890.3" y="356.8" width="463.8" height="295.1" rx="9.63" fill="url(#a)" stroke="url(#a)" stroke-width="2.378"/><path d="m182.19 128.27c-.455-.003-.912.078-1.342.252-.86.349-1.555 1.027-1.916 1.882l-54.989 130.08c-.753 1.78.078 3.836 1.859 4.589l9.213 3.901c.435.185.89.275 1.354.275.447 0 .897-.093 1.319-.264.86-.349 1.542-1.027 1.904-1.882l55-130.08c.752-1.78-.079-3.836-1.859-4.589l-9.213-3.889c-.427-.181-.875-.272-1.331-.275m-65.14 24.322c-.886-.128-1.819.086-2.593.665l-52.16 38.996c-.883.66-1.411 1.707-1.411 2.811 0 1.104.528 2.139 1.411 2.799l52.16 39.01c.628.471 1.359.7 2.088.7 1.066 0 2.124-.492 2.811-1.411l5.989-8.01c.556-.745.797-1.674.665-2.593-.133-.919-.634-1.75-1.377-2.306l-37.7-28.19 37.7-28.2c.743-.556 1.244-1.376 1.377-2.295.132-.919-.108-1.859-.665-2.604l-5.989-8.01c-.579-.774-1.42-1.237-2.306-1.365m84.44 0c-.886.128-1.727.592-2.306 1.365l-5.989 8.01c-.556.744-.786 1.685-.654 2.604.133.918.621 1.739 1.365 2.295l37.7 28.2-37.7 28.19c-.744.556-1.232 1.388-1.365 2.306-.132.919.097 1.849.654 2.593l5.989 8.01c.688.919 1.745 1.411 2.811 1.411.729 0 1.459-.23 2.088-.7l52.16-39.01c.883-.66 1.411-1.695 1.411-2.799 0-1.104-.528-2.151-1.411-2.811l-52.16-38.996c-.774-.579-1.707-.793-2.593-.665" fill="url(#c)"/></g></svg>
