<svg viewBox="0 0 64 64" xmlns="http://www.w3.org/2000/svg" xmlns:xlink="http://www.w3.org/1999/xlink"><defs><linearGradient id="c" x1="243.9" x2="231.1" y1="557.2" y2="-25.62" gradientUnits="userSpaceOnUse" xlink:href="#b"/><linearGradient id="a" x1="-701.2" x2="-704" y1="647.8" y2="354.3" gradientUnits="userSpaceOnUse"><stop stop-color="#93cfff" offset="0"/><stop stop-color="#cde8fe" offset="1"/></linearGradient><linearGradient id="d" x1="59.12" x2="59.15" y1="-13.3" y2="-37.78" gradientTransform="matrix(4.175 0 0 4.168 -1066 447.7)" gradientUnits="userSpaceOnUse" xlink:href="#b"/><linearGradient id="b"><stop stop-color="#289bf7" offset="0"/><stop stop-color="#71b9f1" offset="1"/></linearGradient></defs><g transform="matrix(.03922 0 0 .03922 22.2 25.44)"><path transform="matrix(3.217 0 0 3.217 2367 -1357)" d="m-880.5 294.8c-4.626 0-8.349 3.718-8.349 8.335v161.4l461 1v-121.2c0-4.618-3.724-8.335-8.35-8.335h-265.5c-8.51 0.751-9.607-0.377-13.81-5.981-5.964-7.968-14.97-21.44-20.84-29.21-4.712-6.805-5.477-6.02-13.29-6.02z" fill="url(#d)"/><rect transform="matrix(3.217 0 0 3.217 2367 -1357)" x="-890.3" y="356.8" width="463.8" height="295.1" rx="9.63" fill="url(#a)" stroke="url(#a)" stroke-width="2.378"/><path d="m239.6-25.5c-169 0-306 137-306 306s137 306 306 306 306-137 306-306-137-306-306-306m0 158.3c11.4 0 20.62 9.265 20.62 20.67v218.7l85.17-85.17c8.08-8.06 21.14-8.03 29.24 0.051 8.08 8.06 8.08 21.11 0 29.19l-116.8 116.9c-4.958 4.936-11.77 6.464-18.18 5.328-6.426 1.136-13.22-0.371-18.18-5.329l-116.8-116.9c-8.08-8.06-8.08-21.11 0-29.19 8.06-8.08 21.11-8.08 29.19 0l85.17 85.12v-218.7c0-11.4 9.265-20.67 20.67-20.67" fill="url(#c)"/></g></svg>
