<svg viewBox="0 0 64 64" xmlns="http://www.w3.org/2000/svg" xmlns:xlink="http://www.w3.org/1999/xlink"><defs><linearGradient id="c" x1="-425.3" x2="-423.1" y1="459" y2="275.5" gradientUnits="userSpaceOnUse" xlink:href="#b"/><linearGradient id="a" x1="-701.2" x2="-704" y1="647.8" y2="354.3" gradientUnits="userSpaceOnUse"><stop stop-color="#93cfff" offset="0"/><stop stop-color="#cde8fe" offset="1"/></linearGradient><linearGradient id="d" x1="59.12" x2="59.15" y1="-13.3" y2="-37.78" gradientTransform="matrix(4.175 0 0 4.168 -1066 447.7)" gradientUnits="userSpaceOnUse" xlink:href="#b"/><linearGradient id="b"><stop stop-color="#289bf7" offset="0"/><stop stop-color="#71b9f1" offset="1"/></linearGradient></defs><g transform="matrix(.1261 0 0 .1261 85.51 -10.1)"><path transform="translate(234.1 -140.3)" d="m-880.5 294.8c-4.626 0-8.349 3.718-8.349 8.335v161.4l461 1v-121.2c0-4.618-3.724-8.335-8.35-8.335h-265.5c-8.51 0.751-9.607-0.377-13.81-5.981-5.964-7.968-14.97-21.44-20.84-29.21-4.712-6.805-5.477-6.02-13.29-6.02z" fill="url(#d)"/><rect transform="translate(234.1 -140.3)" x="-890.3" y="356.8" width="463.8" height="295.1" rx="9.63" fill="url(#a)" stroke="url(#a)" stroke-width="2.378"/><path d="m-424.2 271.7a95.14 95.14 0 0 0-95.13 95.14 95.14 95.14 0 0 0 95.13 95.13 95.14 95.14 0 0 0 95.14-95.13 95.14 95.14 0 0 0-95.14-95.14m24.01 42.36c0.35 0.018 0.764 0.178 1.091 0.276 1.676 0.481 3.098 1.918 3.576 3.604l17.33 63.12 9.09-12.32c0.926-1.37 2.331-2.317 3.977-2.361h10.04c0.199 0 0.414 0.215 0.414 0.414v9.693c0 0.199-0.201 0.276-0.4 0.276h-7.429l-13.34 18.54c-2.283 3.01-7.977 1.958-9.09-1.657l-15.81-56.2-10.87 35.85c-0.665 2.037-2.814 3.421-4.943 3.466h-18.02l-14.72 48.72c-0.737 2.641-3.851 4.391-6.462 3.604-1.676-0.482-3.098-1.918-3.576-3.604l-17.47-63.24-8.934 12.32c-0.926 1.371-2.483 2.165-4.129 2.209h-10.31c-0.199 0-0.276-0.077-0.276-0.276v-9.693c0-0.199 0.077-0.414 0.276-0.414h7.843l13.34-18.27c2.283-3.01 7.964-1.957 9.07 1.657l15.69 56.2 10.99-35.98c0.665-2.037 2.69-3.56 4.819-3.604h18.02l14.84-48.44c0.553-1.981 2.4-3.467 4.405-3.742 0.334-0.045 0.617-0.138 0.967-0.138" fill="url(#c)"/></g></svg>
