<svg viewBox="0 0 64 64" xmlns="http://www.w3.org/2000/svg" xmlns:xlink="http://www.w3.org/1999/xlink"><defs><linearGradient id="c" x1="-31.48" x2="-31.4" y1="38.37" y2="29.28" gradientUnits="userSpaceOnUse" xlink:href="#b"/><linearGradient id="a" x1="-701.2" x2="-704" y1="647.8" y2="354.3" gradientUnits="userSpaceOnUse"><stop stop-color="#93cfff" offset="0"/><stop stop-color="#cde8fe" offset="1"/></linearGradient><linearGradient id="d" x1="59.12" x2="59.15" y1="-13.3" y2="-37.78" gradientTransform="matrix(4.175 0 0 4.168 -1066 447.7)" gradientUnits="userSpaceOnUse" xlink:href="#b"/><linearGradient id="b"><stop stop-color="#289bf7" offset="0"/><stop stop-color="#71b9f1" offset="1"/></linearGradient></defs><g transform="translate(163.1 -812.4)"><g transform="matrix(.9585 0 0 .9585 -547 330)"><path transform="matrix(.1316 0 0 .1316 520.5 474.4)" d="m-880.5 294.8c-4.626 0-8.349 3.718-8.349 8.335v161.4l461 1v-121.2c0-4.618-3.724-8.335-8.35-8.335h-265.5c-8.51 0.751-9.607-0.377-13.81-5.981-5.964-7.968-14.97-21.44-20.84-29.21-4.712-6.805-5.477-6.02-13.29-6.02z" fill="url(#d)"/><rect transform="matrix(.1316 0 0 .1316 520.5 474.4)" x="-890.3" y="356.8" width="463.8" height="295.1" rx="9.63" fill="url(#a)" stroke="url(#a)" stroke-width="2.378"/></g><path transform="matrix(2.378 0 0 2.378 -56.83 768.2)" d="m-31.24 29.445c-2.455 0-4.764.955-6.5 2.691l.992.992c1.471-1.471 3.427-2.283 5.508-2.283 2.081 0 4.04.812 5.508 2.283l.992-.992c-1.736-1.736-4.045-2.691-6.5-2.691m0 2.49c-1.79 0-3.472.697-4.738 1.963l.99.99c1-1 2.332-1.553 3.748-1.553 1.416 0 2.747.552 3.748 1.553l.99-.99c-1.266-1.266-2.948-1.963-4.738-1.963m0 2.492c-1.124 0-2.182.437-2.977 1.232l.992.992c.53-.53 1.235-.822 1.984-.822.75 0 1.454.292 1.984.822l.992-.992c-.795-.795-1.852-1.232-2.977-1.232m0 2.785c-.364 0-.728.14-1.01.418-.001.001-.02.019-.029.029l1.035 1.037 1.037-1.033c-.001-.011-.021-.023-.031-.033-.278-.278-.642-.418-1.01-.418" fill="url(#c)"/></g></svg>
