<svg viewBox="0 0 48 48" xmlns="http://www.w3.org/2000/svg" xmlns:xlink="http://www.w3.org/1999/xlink"><defs><linearGradient id="c" x1="409.8" x2="409.9" y1="547.1" y2="500.9" gradientUnits="userSpaceOnUse" xlink:href="#b"/><linearGradient id="b"><stop stop-color="#9662ff" offset="0"/><stop stop-color="#bc9bff" offset="1"/></linearGradient><linearGradient id="a" x2="0" y1="546.9" y2="516.5" gradientUnits="userSpaceOnUse" xlink:href="#b"/></defs><g transform="translate(-384.57-499.8)"><circle transform="matrix(1.631 0 0 1.631 -244.8 -343.6)" cx="400.6" cy="531.8" r="14" fill="url(#a)" stroke="url(#a)" stroke-width="1.427"/><path transform="matrix(1.459 0 0 1.459 -175.6 -205)" d="m390.87 510.87c0-4.517 2.785-8.384 6.732-9.977 3.03-1.058 5.56.631 5.955 1.083.458.525-.057.974-.057.974 2.033-.2 3.207-2.138 3.207-2.138 0 0-.573.391-1.164.601-.592.21-1.403.124-1.079-.096.324-.22.478-.796.478-.796-.816.537-1.611.236-1.611.236-1.439-1.074-3.264-1.46-3.264-1.46 1.374-.752 3.03-.816 3.03-.816.236 1.01-.58 1.374-.58 1.374 1.331-.129 2.02-.966 2.02-.966.15.794-.58 1.439-.58 1.439 1.503-.193 2.02-1.074 2.02-1.074.236.494-.042 1.701-.042 1.701 2.147-1.044 2.655-3.728 2.655-3.728-3.162 1.372-7.397-3.549-7.397-3.549-3.609-.09-6.502-4.743-6.502-4.743-.883 3.484.94 6.392 1.106 6.648-5.844 1.805-9.377 5.738-9.336 12.13" fill-opacity=".681"/><ellipse cx="408.6" cy="523.8" rx="22.84" ry="22.84" fill="none" stroke="url(#c)" stroke-width="2.328"/></g></svg>
