<svg viewBox="0 0 48 48" xmlns="http://www.w3.org/2000/svg"><defs><linearGradient id="b" x1="396.1" x2="395.6" y1="544.3" y2="518.3" gradientUnits="userSpaceOnUse"><stop stop-color="#030303" offset="0"/><stop stop-color="#383838" offset="1"/></linearGradient><linearGradient id="a" x1="270.9" x2="270.4" y1="568" y2="536.5" gradientUnits="userSpaceOnUse"><stop stop-color="#197cf1" offset="0"/><stop stop-color="#20bcfa" offset="1"/></linearGradient></defs><circle transform="matrix(1.714 0 0 1.714 -662.7 -887.6)" cx="400.6" cy="531.8" r="14" fill="url(#b)"/><path transform="matrix(1.008 0 0 .9079 -250.8 -477.7)" d="m265.7 566c2.445 1.098 4.691 1.697 7.186 1.697 6.837 0 11.23-3.643 11.23-9.03 0-4.591-2.894-7.336-8.583-8.08l-3.892-0.499c-3.743-0.499-5.589-1.946-5.589-4.391 0-3.094 2.645-5.29 6.637-5.29 2.595 0 4.691 0.998 5.739 2.545s0.749 3.344 2.695 3.344c1.148 0 1.846-0.649 1.846-1.797v-0.25l-0.349-5.09c-0.1-1.297-0.25-1.846-1.996-1.846-1.098 0-1.547 0.299-1.547 1.248-2.246-0.898-4.192-1.447-6.188-1.447-6.288 0-10.78 3.942-10.78 8.783 0 4.891 3.194 7.236 9.681 8.134l3.593 0.499c3.094 0.449 4.741 2.046 4.741 4.591 0 2.994-2.745 5.29-7.086 5.29-3.493 0-6.04-1.397-7.086-3.543-0.898-1.797-0.649-3.693-2.695-3.693-1.497 0-1.896 0.699-1.896 2.096v0.499l0.299 5.639c0.1 1.747 0.699 2.545 2.096 2.545 1.347 0 1.797-0.499 1.946-1.946" fill="url(#a)"/></svg>
