<svg viewBox="0 0 22 22" xmlns="http://www.w3.org/2000/svg" xmlns:xlink="http://www.w3.org/1999/xlink"><g transform="matrix(.03527 0 0 .03527 2.636 15.15)" fill="#4d4d4d" stroke-opacity=".8"><path d="m272.5-344-75.37 7.247v310.5l74.56-11.27v-132.4l100.3 146.9 78.59-24.96-102.7-141.2 103.6-133.2-80.2-18.36-99.52 133.2 0.805-136.4m-170.9 75.69c-0.852 0.088-1.774 0.323-2.416 0.966l-29.63 29.63c-1.244 1.248-1.397 3.159-0.483 4.67l34.62 57.17c-6.148 10.34-11.14 21.42-14.65 33.17l-63.61 13.2c-1.77 0.366-3.06 2.051-3.06 3.865v41.87c0 1.77 1.346 3.286 3.06 3.704l61.68 14.98c3.298 13.61 8.393 26.63 15.14 38.49l-35.75 54.43c-0.997 1.52-0.803 3.548 0.483 4.831l29.63 29.63c1.248 1.244 3.163 1.4 4.67 0.483l56.04-33.98c10.99 6.346 22.89 11.43 35.43 14.82l13.04 62.8c0.366 1.775 1.891 3.06 3.704 3.06h41.87c1.757 0 3.286-1.18 3.704-2.899l15.46-63.13c12.93-3.486 25.12-8.661 36.39-15.3l55.24 36.23c1.523 0.992 3.54 0.8 4.831-0.483l29.47-29.63c1.252-1.25 1.561-3.163 0.644-4.67l-20.13-33.17-6.603 2.093c-0.953 0.294-2.01-0.137-2.577-0.966 0 0-12.72-18.7-29.31-43-19.84 38.83-60.32 65.38-106.9 65.38-66.24 0-120-53.74-120-120 0-48.72 29.14-90.57 70.86-109.3v-30.92c-7.593 2.658-14.93 5.864-21.9 9.662-0.013-8e-3 0.013-0.153 0-0.161l-56.52-37.04c-0.76-0.497-1.563-0.571-2.416-0.483"/></g></svg>
