<svg viewBox="0 0 22 22" xmlns="http://www.w3.org/2000/svg"><path d="m11 3a8 8 0 0 0-8 8 8 8 0 0 0 8 8 8 8 0 0 0 8-8 8 8 0 0 0-8-8m-4e-3 2.221c0.735 0 1.33 0.597 1.33 1.334 0 0.736-0.595 1.332-1.33 1.332s-1.332-0.596-1.332-1.332c0-0.737 0.597-1.334 1.332-1.334m0 3.809c0.735 0 1.33 0.597 1.33 1.333 0 0.737-0.595 1.332-1.33 1.332s-1.332-0.595-1.332-1.332c0-0.736 0.597-1.333 1.332-1.333m-3.758 2.03c0.207 0 0.415 0.081 0.573 0.239l3.189 3.525 3.189-3.525c0.316-0.317 0.831-0.317 1.145 0 0.315 0.316 0.315 0.831 0 1.144l-3.711 4.102c-0.171 0.171-0.4 0.246-0.623 0.232-0.224 0.014-0.45-0.061-0.621-0.232l-3.711-4.102c-0.316-0.313-0.316-0.828 0-1.144 0.158-0.158 0.362-0.239 0.57-0.239" fill="#4d4d4d"/></svg>
