<svg viewBox="0 0 22 22" xmlns="http://www.w3.org/2000/svg"><path transform="matrix(.1261 0 0 .1261 5.937 2.851)" d="m37.39 64.55 39.6-39.6c2.01-2.01 3.02-4.468 3.02-7.374s-1-5.363-3.02-7.373l-6.11-6.111c-2.01-2.01-4.467-3.01-7.372-3.01-2.906 0-5.363 1-7.374 3.01l-53.12 53.04c-2.01 2.01-3.02 4.468-3.02 7.374s1 5.363 3.02 7.373l53.12 53.04c2.01 2.01 4.468 3.02 7.374 3.02 2.905 0 5.363-1 7.372-3.02l6.11-6.11c2.01-2.01 3.02-4.454 3.02-7.333 0-2.878-1-5.35-3.02-7.414l-39.6-39.51" fill="#4d4d4d" stroke-width="4.511"/></svg>
