<svg viewBox="0 0 22 22" xmlns="http://www.w3.org/2000/svg"><circle transform="matrix(.5699 0 0 .5699 -217.3 -292)" cx="400.6" cy="531.8" r="14" fill="#5ea5fb" fill-opacity="0"/><path transform="matrix(.10928 0 0 .10928-20.96-.774)" d="m292.4 180.9c5.664 0 10.57-2.068 14.7-6.209 4.14-4.138 6.213-9.04 6.213-14.7v-104.6c0-5.666-2.072-10.57-6.213-14.7-4.136-4.142-9.04-6.211-14.7-6.211-5.666 0-10.57 2.072-14.71 6.211-4.14 4.138-6.209 9.04-6.209 14.7v104.6c0 5.664 2.07 10.57 6.209 14.7 4.14 4.142 9.04 6.209 14.71 6.209" fill="#4d4d4d"/></svg>
