<svg width="22" height="22" viewBox="0 0 5.821 5.821" xmlns="http://www.w3.org/2000/svg"><defs><clipPath id="a"><path d="m0 1e3h1e3v-1e3h-1e3v1e3"/></clipPath></defs><g transform="translate(0-291.18)"><path d="m.794 291.97l.265.265h3.704l.265-.265-.265-.132h-3.704z" fill="#fff" fill-opacity=".784" fill-rule="evenodd"/><g transform="matrix(.00576 0 0-.00576.107 296.76)" clip-path="url(#a)"><g fill="#383a3c"><path transform="translate(705 463.4)" d="m0 0c0 37.18-9.34 72.22-25.79 102.9-36.78 68.55-109.2 115.2-192.3 115.2-83.24 0-155.7-46.77-192.4-115.4-16.38-30.61-25.68-65.58-25.68-102.7 0-38.73 10.12-75.12 27.86-106.7 37.39-66.49 108.6-111.5 190.2-111.5 81.59 0 152.8 44.92 190.2 111.4 17.78 31.57 27.92 67.99 27.92 106.8"/><path d="m27.41 566.3h918.1v-209.3h-918.1v209.3"/></g><path transform="translate(687.6 463.4)" d="m0 0c0 110.7-89.94 200.7-200.7 200.7-110.7 0-200.7-89.94-200.7-200.7s89.94-200.7 200.7-200.7 200.7 89.94 200.7 200.7" fill="none" stroke="#231f20"/><g fill="#383a3c"><path transform="translate(687.6 463.4)" d="m0 0c0 30.76-6.938 59.91-19.34 85.98-32.23 67.77-101.4 114.7-181.3 114.7-79.86 0-148.9-46.79-181.2-114.4-12.47-26.14-19.47-55.39-19.47-86.25 0-32.23 7.623-62.69 21.15-89.69 32.96-65.77 101-111 179.5-111 78.4 0 146.4 45.09 179.4 110.7 13.62 27.06 21.28 57.62 21.28 89.96"/><path d="m44.44 549.3h883.6v-175.5h-883.6v175.5"/></g><g fill="#fff"><path transform="translate(238.2 406.2)" d="m0 0c16.74 38.68 33.49 77.36 50.24 116h36.37c15.98-38.75 31.95-77.51 47.92-116.3h-36.76c-2.194 6.559-4.388 13.13-6.588 19.69h-47.06c-2.344-6.493-4.69-12.98-7.04-19.46h-37.09"/><path d="m841.3 522h36.37v-115.7h-36.37v115.7"/><path transform="translate(702.1 406.1)" d="m0 0v115.9h32.39c15.51-21.93 31.02-43.87 46.53-65.8 7e-3 21.93 7e-3 43.87 7e-3 65.8h31.98c-0.019-38.65-0.039-77.29-0.058-115.9h-34.58c-14.32 19.93-28.65 39.86-42.98 59.78v-59.79h-33.29"/><path d="m638 522h36.37v-115.9h-36.37v115.9"/><path transform="translate(547.1 406.1)" d="m0 0v87.44h-29.45v28.84h94.99v-28.84h-29.44v-87.44h-36.1"/><path transform="translate(392 405.5)" d="m0 0v116.7h42.73c14.72 0 22.44 0.471 30.89-2.417 8.447-2.892 14.94-8.389 19.79-14.92 4.851-6.539 8.466-16.43 9.323-24.31 0.857-7.869-0.776-16.6-4.18-22.95-3.404-6.348-10.83-10.1-16.24-15.15 8.593-12.11 17.19-24.22 25.79-36.32h-36.55c-7.133 11.43-14.26 22.87-21.4 34.3h-19.68v-34.95c-10.16 0.013-20.31 0.025-30.47 0.045"/><path transform="translate(221.4 406)" d="m0 0h-34.51c-0.049 20.99-0.094 41.97-0.14 62.95-10.1-15.59-20.21-31.18-30.31-46.76-10.49 17.52-20.98 35.03-31.47 52.54-0.032-22.8-0.065-45.61-0.097-68.42h-32.8v116.1c11.62-0.087 23.25-0.175 34.87-0.26 10.41-17.62 20.82-35.24 31.23-52.86 9.431 17.7 18.86 35.42 28.3 53.12h34.93v-116.4"/></g><g fill="#383a3c"><path transform="translate(422.4 466.1)" d="m0 0h30.31c7.146 0 12.92 5.994 12.81 13.14-0.113 7.204-6 13.13-13.21 13.13h-29.89c0-8.759-6e-3 -17.51-0.016-26.27"/><path transform="translate(289.2 448.2)" d="m0 0h33.2c-5.487 14.97-10.97 29.93-16.46 44.89-5.582-14.96-11.16-29.93-16.74-44.89"/></g></g></g></svg>
