<svg width="22" height="22" viewBox="0 0 5.821 5.821" xmlns="http://www.w3.org/2000/svg"><defs><linearGradient id="a" x1="488.2" x2="488.1" y1="547.7" y2="537.7" gradientUnits="userSpaceOnUse"><stop stop-color="#ffeb96" offset="0"/><stop stop-color="#fff1b7" offset="1"/></linearGradient></defs><g transform="matrix(.4329 0 0 .4329 -209.2 -223.1)"><g transform="translate(1.612-20.413)"><circle cx="488.3" cy="542.4" r="5.5" fill="url(#a)"/><g fill="#414141"><circle cx="485.2" cy="542.3" r=".6"/><circle cx="491.4" cy="542.3" r=".6"/></g></g><g transform="translate(-6.818-.4)"><path d="m499.05 523.96c0 .07.783.139.779.207-.11 1.575-1.461 2.821-3.116 2.827-1.648.006-3.01-1.222-3.135-2.788-.006-.074.305-.15.304-.225l2.82-.022z" fill="#f7aa86"/><path d="m493.66 523.64h6.077c.049 0 .088.039.088.088v.385c0 .049-.001.206-.001.206h-6.234c0 0-.001-.157-.001-.206v-.385c0-.049.039-.088.088-.088" fill="#f3f3f3"/></g></g></svg>
