<svg width="22" height="22" viewBox="0 0 5.821 5.821" xmlns="http://www.w3.org/2000/svg" xmlns:xlink="http://www.w3.org/1999/xlink"><defs><linearGradient id="b" x1="488.2" x2="488.1" y1="547.7" y2="537.7" gradientUnits="userSpaceOnUse"><stop stop-color="#ffeb96" offset="0"/><stop stop-color="#fff1b7" offset="1"/></linearGradient></defs><g transform="translate(0-291.18)"><circle transform="matrix(.433 0 0 .433 -208.5 59.28)" cx="488.3" cy="542.4" r="5.5" fill="url(#b)"/><g transform="translate(-6.313.238)" fill="none" fill-rule="evenodd" stroke="#414141" stroke-linecap="round" stroke-linejoin="round" stroke-width=".146"><path d="m7.442 293.78c.138.384.719.384.845 0"/><path d="m10.16 293.78c.138.384.719.384.845 0"/></g><g fill-rule="evenodd"><circle cx="3.393" cy="295.4" r=".331" fill="#f7aa86"/><path transform="matrix(-.9582 -.286 .286 -.9582 0 0)" d="m-87.4-282.1a0.3307 0.3307 0 0 1-0.14 0.2702 0.3307 0.3307 0 0 1-0.3015 0.0414" fill="#fff"/></g><path id="a" transform="matrix(.6097 0 0 .6097 .225 111.4)" d="m7.374 297.93c.194 0 .175-.252.016-.252h-.645l.677-.879c.107-.115.064-.258-.087-.258h-.8c-.159 0-.173.244 0 .244h.585l-.706.939c-.071.085-.022.206.103.206h.857" fill="#97cee4"/><use transform="matrix(.7129 0 0 .7129 .342 84.2)" xlink:href="#a"/></g></svg>
