<svg width="22" height="22" viewBox="0 0 5.821 5.821" xmlns="http://www.w3.org/2000/svg"><defs><linearGradient id="a" x2="0" y1="543.2" y2="533.4" gradientUnits="userSpaceOnUse"><stop stop-color="#ffeb96" offset="0"/><stop stop-color="#7ac0ff" offset="1"/></linearGradient></defs><g transform="translate(0-291.18)"><g transform="matrix(-.4329 0 0 .4329 209.5 59.61)"><circle transform="translate(7.44-.975)" cx="469.8" cy="542.6" r="5.5" fill="url(#a)"/><g transform="translate(-10.87)" fill="#414141"><circle cx="485.1" cy="542.3" r=".6"/><circle cx="491.2" cy="542.3" r=".6"/></g><path d="m475.38 544.35c0 0 .19-.614 1.402-.55.267.014.678.165.938.393.653.573 1.452.309 1.452.309" fill="none" fill-rule="evenodd" stroke="#414141" stroke-linecap="round" stroke-width=".275"/></g><g transform="matrix(.433 0 0 .433 -213.7 59.28)" fill="none" fill-rule="evenodd" stroke="#414141" stroke-linecap="round" stroke-width=".342"><path d="m496.53 542.63c.335-.587.968-.602 1.531-.452"/><path d="m504.22 542.69c-.335-.587-.968-.602-1.531-.452"/></g></g></svg>
