<svg width="22" height="22" viewBox="0 0 5.821 5.821" xmlns="http://www.w3.org/2000/svg"><defs><linearGradient id="a" x1="492.4" x2="492.3" y1="546.8" y2="536.8" gradientUnits="userSpaceOnUse"><stop stop-color="#ffeb96" offset="0"/><stop stop-color="#fff1b7" offset="1"/></linearGradient></defs><g transform="translate(0-291.18)"><g transform="translate(0 .265)"><circle transform="matrix(.4329 0 0 .4329 -210.3 59.42)" cx="492.4" cy="541.4" r="5.5" fill="url(#a)"/><path transform="matrix(.725 0 0 .725 .405 80.65)" d="m2.903 295.03c-.086 0-.553.002-.553.002 0 .735.553 1.101 1.106 1.103.553 0 1.106-.368 1.106-1.106 0 0-.465.002-.553.002-1.018 0-.165-.002-.553 0-.388-.002.467 0-.553 0z" fill="#f4f1e9"/></g><path transform="matrix(.5595 0 0 .5595 -8.743 130.8)" d="m18.14 290.77c.492-.176.872.134 1.127.506" fill="none" fill-rule="evenodd" stroke="#414141" stroke-linecap="round" stroke-width=".265"/><g fill="#414141"><circle transform="matrix(.4329 0 0 .4329 -208.4 59.11)" cx="485.4" cy="542.3" r=".6"/><circle cx="4.101" cy="293.7" r=".661" fill-rule="evenodd" stroke="#414141" stroke-linecap="round" stroke-linejoin="round" stroke-width=".159"/></g><path d="m2.521 291.8 2.633 3.134" fill="none" fill-rule="evenodd" stroke="#414141" stroke-linecap="round" stroke-width=".132"/></g></svg>
