<svg width="22" height="22" viewBox="0 0 5.821 5.821" xmlns="http://www.w3.org/2000/svg"><defs><linearGradient id="a" x1="488.2" x2="488.1" y1="547.7" y2="537.7" gradientUnits="userSpaceOnUse"><stop stop-color="#ffeb96" offset="0"/><stop stop-color="#fff1b7" offset="1"/></linearGradient></defs><g transform="translate(0-291.18)"><g transform="matrix(.2903 0 0 .2903 2.065 208.7)"><g transform="matrix(1.491 0 0 1.491 -725.2 -514.7)"><circle cx="488.3" cy="542.4" r="5.5" fill="url(#a)"/><g fill="#414141"><circle cx="485.2" cy="542.3" r=".6"/><circle cx="491.4" cy="542.3" r=".6"/></g></g><path d="m1.455 298.6c0.476-1.323 2.476-1.323 2.91 0" fill="none" fill-rule="evenodd" stroke="#414141" stroke-linecap="round" stroke-linejoin="round" stroke-width=".503"/></g><path transform="matrix(.05461 0 0 .05461 -20.9 266.1)" d="m400.1 520.1-6.589 11.49c-1.385 2.43-1.492 5.519 0 8.12 2.242 3.911 7.23 5.263 11.14 3.02 3.911-2.242 5.263-7.23 3.02-11.14l-6.589-11.49c-0.218-0.38-0.765-0.38-0.983 0" fill="#8acbef"/></g></svg>
