<svg width="22" height="22" viewBox="0 0 5.821 5.821" xmlns="http://www.w3.org/2000/svg"><defs><linearGradient id="a" x1="488.2" x2="488.1" y1="547.7" y2="537.7" gradientUnits="userSpaceOnUse"><stop stop-color="#ffeb96" offset="0"/><stop stop-color="#fff1b7" offset="1"/></linearGradient></defs><g transform="matrix(.4329 0 0 .4329 -209.2 -223.1)"><circle transform="translate(1.612-20.413)" cx="488.3" cy="542.4" r="5.5" fill="url(#a)"/><g fill="#414141"><circle transform="translate(1.612-20.413)" cx="485.3" cy="542.3" r=".6"/><circle cx="492.7" cy="521.9" r=".6"/></g><g transform="translate(1.612-20.413)" fill="#fff" fill-opacity=".379" fill-rule="evenodd"><ellipse cx="485.3" cy="542.2" rx="2.228" ry="1.846"/><ellipse cx="491" cy="542.2" rx="2.228" ry="1.846"/></g><g transform="matrix(.6706 0 0 .6706 470.8 324.9)"><path d="m26.98 297.6c0.476 1.323 2.476 1.323 2.91 0" fill="none" fill-rule="evenodd" stroke="#414141" stroke-linecap="round" stroke-linejoin="round" stroke-width=".503"/><path transform="matrix(.2792 0 0 .2652 19.73 285.5)" d="m43.998 20.01c-4.576.328-9.312 2.115-14.479 1.771-3.854-.261-7.827-1.496-11.421-1.771-2.441-.186-6.161 0-8.04.161-3.557.305-8.954.891-9.812 3.38-1.01 2.925 1.398 3.917 1.931 5.147.771 1.787.685 3.634 1.286 5.146.56 1.398 1.289 2.933 2.252 4.186 3.467 4.511 13.371 4.954 17.855 1.287 1.418-1.162 2.895-3.605 3.86-5.791.679-1.538 1.441-6.113 3.538-6.113 1.609 0 1.828 1.438 2.253 2.896 1.184 4.059 3.156 7.833 5.951 9.651 4.375 2.85 12.12 2.641 15.604-.322 2.096-1.783 3.529-4.922 4.345-7.561.321-1.047.206-2.378.645-3.378.655-1.501 2.243-1.776 2.092-4.185-.29-4.547-12.173-4.911-17.857-4.504m-21.716 17.374c-3.14 2.622-9.775 3.034-13.19.646-2.047-1.436-5.787-8.71-3.379-13.192.855-1.593 2.395-1.997 4.665-2.253 5.873-.659 14.79.221 16.09 4.344 1.227 3.906-2.257 8.844-4.183 10.455m34.424-7.561c-.272 3.131-1.959 7.221-4.184 8.362-4.875 2.509-11.542 1.283-14.479-2.571-1.506-1.979-3.467-5.81-2.573-8.688.933-3.01 5.355-3.991 9.65-4.344 7.573-.618 12.254-.411 11.586 7.241" fill="#414141"/></g></g></svg>
