<svg width="22" height="22" viewBox="0 0 5.821 5.821" xmlns="http://www.w3.org/2000/svg"><defs><linearGradient id="a" x1="488.2" x2="488.1" y1="547.7" y2="537.7" gradientUnits="userSpaceOnUse"><stop stop-color="#ffeb96" offset="0"/><stop stop-color="#fff1b7" offset="1"/></linearGradient></defs><g transform="translate(0-291.18)"><g transform="matrix(.433 0 0 .433 -208.5 59.28)"><circle cx="488.3" cy="542.4" r="5.5" fill="url(#a)"/><circle transform="translate(-.55)" cx="491.4" cy="542.3" r=".6" fill="#414141"/><path d="m488.42 544.39c-1.444-.213-1.628 1.01-.754 1.342-.278.392-.392 1.176.619.99" fill="none" fill-rule="evenodd" stroke="#414141" stroke-linecap="round" stroke-linejoin="round" stroke-width=".352"/></g><path d="m1.161 294.14c.007-.525.789-.484.778 0" fill="none" fill-rule="evenodd" stroke="#414141" stroke-linecap="round" stroke-linejoin="round" stroke-width=".134"/><path transform="matrix(.19086-.08365.08365.19086-122.69 228.2)" d="m418.08 532.92c-.322-.317-.767-.476-1.334-.476-.157 0-.317.028-.481.082-.163.055-.316.129-.456.223-.141.093-.262.181-.363.263-.101.082-.198.169-.289.261-.091-.092-.188-.179-.289-.261-.101-.082-.222-.169-.363-.263-.141-.093-.293-.168-.456-.223-.163-.055-.324-.082-.481-.082-.568 0-1.012.159-1.334.476-.322.317-.483.757-.483 1.32 0 .171.03.348.089.53.06.182.127.336.203.464.076.128.162.253.259.374.096.122.167.205.211.251.044.046.079.079.105.1l2.372 2.31c.046.046.101.069.167.069.066 0 .122-.023.167-.069l2.368-2.303c.58-.586.871-1.161.871-1.727 0-.563-.161-1-.483-1.32" fill="#f7aa86"/></g></svg>
