<svg width="22" height="22" viewBox="0 0 5.821 5.821" xmlns="http://www.w3.org/2000/svg"><defs><linearGradient id="a" x1="488.2" x2="488.1" y1="547.6" y2="537.8" gradientUnits="userSpaceOnUse"><stop stop-color="#ffeb96" offset="0"/><stop stop-color="#fff1b7" offset="1"/></linearGradient></defs><g transform="matrix(.29032 0 0 .29032.57-81.51)"><g transform="matrix(1.491 0 0 1.491 -720.1 -518)"><circle cx="488.3" cy="542.4" r="5.408" fill="url(#a)"/><g fill="#414141"><circle cx="485.2" cy="542.3" r=".6"/><circle cx="491.4" cy="542.3" r=".6"/></g></g><path d="m14.92 290.7a6.864 2.911 0 0 1-6.864 2.911 6.864 2.911 0 0 1-6.864-2.911 6.864 2.911 0 0 1 6.864-2.911 6.864 2.911 0 0 1 6.864 2.911m1.338 0.105a8.202 8.202 0 0 1-8.202 8.202 8.202 8.202 0 0 1-8.202-8.202 8.202 8.202 0 0 1 8.202-8.202 8.202 8.202 0 0 1 8.202 8.202" fill="#414141" fill-rule="evenodd"/></g></svg>
