<svg width="22" height="22" viewBox="0 0 5.821 5.821" xmlns="http://www.w3.org/2000/svg" xmlns:xlink="http://www.w3.org/1999/xlink"><defs><linearGradient id="b" x1="503.2" x2="503" y1="551.4" y2="533.4" gradientUnits="userSpaceOnUse"><stop stop-color="#ffeb96" offset="0"/><stop stop-color="#eb8671" offset="1"/></linearGradient></defs><g transform="translate(0-291.18)"><g transform="matrix(.5595 0 0 .5595 -8.743 130.8)"><circle transform="matrix(.4329 0 0 .4329 -197.1 57.34)" cx="503.3" cy="541.7" r="9.831" fill="url(#b)"/><path d="m23.648 290.77c-.492-.176-.872.134-1.127.506" fill="none" fill-rule="evenodd" stroke="#414141" stroke-linecap="round" stroke-width=".265"/><g transform="matrix(1.502 0 0 1.502 -63.19 -137.4)" fill="#f3f3f3"><g fill-rule="evenodd"><ellipse cx="54.6" cy="287.4" rx=".293" ry=".288"/><ellipse cx="54.23" cy="287.6" rx=".397" ry=".362"/><ellipse cx="54.58" cy="288" rx=".38" ry=".357"/><circle cx="54.78" cy="287.7" r=".282"/></g><path id="a" d="m54.734 287.19l.667-.426-.506.851z" fill-rule="evenodd" stroke="#f3f3f3" stroke-linecap="round" stroke-linejoin="round" stroke-width=".079"/></g><g transform="matrix(-1.502 0 0 1.502 104.8 -137.4)" fill="#f3f3f3"><g fill-rule="evenodd"><ellipse cx="54.6" cy="287.4" rx=".293" ry=".288"/><ellipse cx="54.23" cy="287.6" rx=".397" ry=".362"/><ellipse cx="54.58" cy="288" rx=".38" ry=".357"/><circle cx="54.78" cy="287.7" r=".282"/></g><use xlink:href="#a"/></g><path d="m18.14 290.77c.492-.176.872.134 1.127.506" fill="none" fill-rule="evenodd" stroke="#414141" stroke-linecap="round" stroke-width=".265"/></g><g transform="matrix(.4329 0 0 .4329 -208.4 59.11)" fill="#414141"><circle cx="485.4" cy="542.3" r=".6"/><circle cx="491" cy="542.3" r=".6"/></g><path transform="matrix(.2903 0 0 .2903 2.065 208.3)" d="m1.455 298.6c0.476-1.323 2.476-1.323 2.91 0" fill="none" fill-rule="evenodd" stroke="#414141" stroke-linecap="round" stroke-linejoin="round" stroke-width=".503"/></g></svg>
