<svg width="22" height="22" viewBox="0 0 5.821 5.821" xmlns="http://www.w3.org/2000/svg"><defs><linearGradient id="a" x1="488.2" x2="488.1" y1="547.7" y2="537.7" gradientUnits="userSpaceOnUse"><stop stop-color="#ffeb96" offset="0"/><stop stop-color="#fff1b7" offset="1"/></linearGradient></defs><g transform="matrix(.10353 0 0 .10353-50.04-49.42)"><g transform="matrix(4.182 0 0 4.182 -1537 -1677)"><g transform="translate(1.612-20.413)"><circle cx="488.3" cy="542.4" r="5.5" fill="url(#a)"/><g fill="#414141"><circle cx="485.2" cy="542.3" r=".6"/><circle cx="491.4" cy="542.3" r=".6"/></g></g><path transform="matrix(.01923 0 0 .01923 484.3 516.4)" d="m566.3 207.1c-61.2-9.6-177.9-11.5-262 11.5h-36.3c-84.1-23-200.8-21-262-11.5-7.6 1.9-7.6 34.4-1.9 36.3 11.5 5.7 17.2 17.2 17.2 17.2s3.8 11.5 13.4 53.5c9.5 42.2 34.4 49.9 34.4 49.9s30.6 7.6 65 7.6 55.5-1.899 78.4-13.4 32.5-42.1 32.5-42.1 11.5-26.8 19.1-51.6c1.9-7.7 40.2-7.7 42.1 0 7.601 24.9 19.1 51.6 19.1 51.6s9.6 30.6 32.5 42.1c23 11.5 44 13.4 78.4 13.4s65-7.6 65-7.6 24.9-5.7 34.4-49.7c9.6-44 13.4-53.5 13.4-53.5s5.699-11.5 17.2-17.2c7.801-2 7.801-36.5 0.101-36.5" fill="#414141"/></g><path d="m497.6 515.9c6.246 7.093 13.15 6.608 20.29 3.382" fill="none" fill-rule="evenodd" stroke="#414141" stroke-linecap="round" stroke-linejoin="round" stroke-width="1.488"/></g></svg>
