<svg width="22" height="22" viewBox="0 0 5.821 5.821" xmlns="http://www.w3.org/2000/svg"><defs><linearGradient id="a" x1="488.2" x2="488.1" y1="547.7" y2="537.7" gradientUnits="userSpaceOnUse"><stop stop-color="#c9dfa5" offset="0"/><stop stop-color="#e6ffbd" offset="1"/></linearGradient></defs><g transform="translate(0-291.18)"><g transform="matrix(.2903 0 0 .2903 2.065 208.7)"><circle transform="matrix(1.491 0 0 1.491 -725.2 -514.7)" cx="488.3" cy="542.4" r="5.5" fill="url(#a)"/><path d="m1.455 298.6c0.476-1.323 2.476-1.323 2.91 0" fill="none" fill-rule="evenodd" stroke="#414141" stroke-linecap="round" stroke-linejoin="round" stroke-width=".503"/></g><g transform="translate(-4.785.127)" fill="#414141"><path d="m6.197 293.7c-.023 0-.045.009-.062.026-.035.034-.035.09 0 .125l.114.114-.114.114c-.035.034-.035.09 0 .125.035.034.09.034.125 0l.114-.114.114.114c.035.034.09.034.125 0 .035-.034.035-.09 0-.125l-.114-.114.114-.114c.035-.034.035-.09 0-.125-.017-.017-.04-.026-.062-.026-.023 0-.045.009-.062.026l-.114.114-.114-.114c-.017-.017-.04-.026-.062-.026"/><path d="m8.843 293.7c-.023 0-.045.009-.062.026-.035.034-.035.09 0 .125l.114.114-.114.114c-.035.034-.035.09 0 .125.035.034.09.034.125 0l.114-.114.114.114c.035.034.09.034.125 0 .035-.034.035-.09 0-.125l-.114-.114.114-.114c.035-.034.035-.09 0-.125-.017-.017-.04-.026-.062-.026-.023 0-.045.009-.062.026l-.114.114-.114-.114c-.017-.017-.04-.026-.062-.026"/></g></g></svg>
