<svg width="22" height="22" viewBox="0 0 5.821 5.821" xmlns="http://www.w3.org/2000/svg"><defs><linearGradient id="a" x1="488.2" x2="488.1" y1="547.7" y2="537.7" gradientUnits="userSpaceOnUse"><stop stop-color="#ea5756" offset="0"/><stop stop-color="#ff8f8e" offset="1"/></linearGradient></defs><g transform="translate(0-291.18)"><g fill="#fc8685" fill-rule="evenodd"><path d="m.798 293.03v-1.323l.794.529z"/><path d="m5.03 293v-1.323l-0.794 0.529z"/></g><g transform="matrix(1 0 0 1 5.418 -.475)"><g transform="matrix(.4329 0 0 .4329 -213.9 59.75)"><circle cx="488.3" cy="542.4" r="5.5" fill="url(#a)"/><g fill="#b11716"><circle cx="485.2" cy="542.3" r=".6"/><circle cx="491.4" cy="542.3" r=".6"/></g></g><g transform="matrix(.2903 0 0 .2903 -3.352 209.2)" fill="none" fill-rule="evenodd" stroke="#b11716" stroke-linecap="round" stroke-width=".51"><path d="m8.176 291.66c-.948-.339-1.68.258-2.172.975"/><path d="m-2.433 291.66c.948-.339 1.68.258 2.172.975"/></g><path transform="matrix(.4329 0 0 .4329 -209.2 68.12)" d="m476 527.1c0 0-.457-.767.298-.786 0 0 1.441.311 2.804-.819.647-.391.674.502.674.502-.041 1.347-1.558 1.682-1.558 1.682 0 0-1.459.535-2.219-.579" fill="#b11716" opacity=".997"/></g></g></svg>
