<svg version="1.1" viewBox="0 0 48 48" xmlns="http://www.w3.org/2000/svg" xmlns:xlink="http://www.w3.org/1999/xlink"><defs><linearGradient id="b" x1="394.8" x2="396.7" y1="546.7" y2="518.4" gradientUnits="userSpaceOnUse" xlink:href="#a"/><linearGradient id="c" x1="400.5" x2="400.7" y1="546.1" y2="517.8" gradientUnits="userSpaceOnUse" xlink:href="#a"/><linearGradient id="a"><stop stop-color="#1365f4" offset="0"/><stop stop-color="#05b2fc" offset="1"/></linearGradient></defs><g transform="matrix(.8889 0 0 .8889 -339.2 -441.6)"><g transform="matrix(1.875 0 0 1.875 -342.3 -473.1)"><circle cx="400.6" cy="531.8" r="14" fill="url(#c)" stroke="url(#b)" stroke-width=".808"/><circle cx="400.6" cy="531.8" r="14" fill="#5ea5fb" fill-opacity="0"/></g></g><g transform="matrix(.875 0 0 .875 18.84 -.02542)" fill="#021425"><path d="m5.898 33.61c1.692 0 3.141-0.6026 4.346-1.807 1.205-1.205 1.808-2.654 1.808-4.346v-9.846c0-1.692-0.6021-3.141-1.808-4.346-1.205-1.205-2.654-1.808-4.346-1.808-1.692 0-3.141 0.6028-4.346 1.808-1.205 1.205-1.808 2.654-1.808 4.346v9.846c0 1.692 0.6028 3.141 1.808 4.346 1.205 1.205 2.654 1.807 4.346 1.807z"/><path d="m16.61 24.13c-0.2431-0.2436-0.532-0.3654-0.8653-0.3654s-0.6217 0.1218-0.8653 0.3654c-0.2436 0.2436-0.3654 0.532-0.3654 0.8653v2.462c0 2.372-0.8431 4.4-2.529 6.086-1.686 1.686-3.715 2.529-6.086 2.529-2.372 0-4.401-0.8429-6.087-2.529-1.686-1.686-2.529-3.715-2.529-6.086v-2.462c0-0.3333-0.1218-0.6217-0.3654-0.8653-0.2436-0.2436-0.5318-0.3654-0.8653-0.3654-0.3335 0-0.622 0.1218-0.8655 0.3654-0.2436 0.2436-0.3654 0.532-0.3654 0.8653v2.462c0 2.833 0.9456 5.298 2.836 7.394 1.891 2.096 4.227 3.298 7.01 3.605v2.539h-4.923c-0.3333 0-0.6217 0.1218-0.8653 0.3654-0.2436 0.2436-0.3654 0.532-0.3654 0.8653 0 0.333 0.1218 0.622 0.3654 0.8653 0.2436 0.2436 0.532 0.3656 0.8653 0.3656h12.31c0.3333 0 0.6222-0.122 0.8653-0.3656 0.2438-0.2434 0.3659-0.5323 0.3659-0.8653 0-0.3333-0.122-0.6217-0.3659-0.8653-0.2431-0.2436-0.532-0.3654-0.8653-0.3654h-4.923v-2.539c2.782-0.3075 5.118-1.509 7.009-3.605 1.891-2.096 2.837-4.561 2.837-7.394v-2.462c0-0.3333-0.122-0.6215-0.3659-0.8653z"/></g></svg>
