<svg viewBox="0 0 48 48" xmlns="http://www.w3.org/2000/svg" xmlns:xlink="http://www.w3.org/1999/xlink"><defs><linearGradient id="a" x1="-42" x2="-6" gradientUnits="userSpaceOnUse"><stop stop-color="#d3d3d3" offset="0"/><stop stop-color="#fcf9f9" offset="1"/></linearGradient><linearGradient id="b" x1="410.6" x2="408.6" y1="547.8" y2="499.8" gradientUnits="userSpaceOnUse"><stop stop-color="#124da4" offset="0"/><stop stop-color="#2896ff" offset="1"/></linearGradient></defs><g transform="matrix(.9038 0 0 .9038 -345.3 -449.4)"><rect x="382.6" y="497.8" width="52" height="52" rx="1.5" fill="url(#b)" fill-rule="evenodd"/><g transform="matrix(.8 0 0 .8 389.4 504.6)"><g font-family="'Bitstream Vera Sans'"><g font-size="12.67"><text x="877.23" y="10.813" opacity=".8"><tspan x="877.23" y="10.813"/></text><text x="901.19" y="-29.929" opacity=".8"><tspan x="901.19" y="-29.929"/></text><text x="-569.37" y="-60.01" opacity=".8"><tspan x="-569.37" y="-60.01"/></text><text x="-2393.06" y="685.55" opacity=".8"><tspan x="-2393.06" y="685.55"/></text><text x="-454.88" y="-445.33" opacity=".8"><tspan x="-454.88" y="-445.33"/></text><text x="352.72" y="-858.8" opacity=".8"><tspan x="352.72" y="-858.8"/></text><text x="376.68" y="-899.54" opacity=".8"><tspan x="376.68" y="-899.54"/></text><text x="-1114.78" y="-906.75" opacity=".8"><tspan x="-1114.78" y="-906.75"/></text><text x="345.76" y="-1179.98" opacity=".8"><tspan x="345.76" y="-1179.98"/></text><text x="1831.89" y="-553.29" opacity=".8"><tspan x="1831.89" y="-553.29"/></text><text x="1855.85" y="-594.03" opacity=".8"><tspan x="1855.85" y="-594.03"/></text><text x="364.38" y="-601.24" opacity=".8"><tspan x="364.38" y="-601.24"/></text><text x="1824.93" y="-874.48" opacity=".8"><tspan x="1824.93" y="-874.48"/></text><text x="-573.43" y="-649.34" opacity=".8"><tspan x="-573.43" y="-649.34"/></text><text x="-2397.12" y="96.22" opacity=".8"><tspan x="-2397.12" y="96.22"/></text><text x="-682.36" y="189.09" opacity=".8"><tspan x="-682.36" y="189.09"/></text><text x="426.66" y="9.908" opacity=".8"><tspan x="426.66" y="9.908"/></text><text x="450.62" y="-30.834" opacity=".8"><tspan x="450.62" y="-30.834"/></text><text x="-1040.84" y="-38.04" opacity=".8"><tspan x="-1040.84" y="-38.04"/></text><text x="419.7" y="-311.28" opacity=".8"><tspan x="419.7" y="-311.28"/></text><text x="-608.03" y="-40.758" opacity=".8"><tspan x="-608.03" y="-40.758"/></text><text x="-2431.72" y="704.8" opacity=".8"><tspan x="-2431.72" y="704.8"/></text><text x="-456.94" y="-902.29" opacity=".8"><tspan x="-456.94" y="-902.29"/></text><text x="350.66" y="-1315.76" opacity=".8"><tspan x="350.66" y="-1315.76"/></text><text x="374.62" y="-1356.5" opacity=".8"><tspan x="374.62" y="-1356.5"/></text><text x="-1116.84" y="-1363.71" opacity=".8"><tspan x="-1116.84" y="-1363.71"/></text><text x="343.7" y="-1636.94" opacity=".8"><tspan x="343.7" y="-1636.94"/></text><text x="1829.83" y="-1010.25" opacity=".8"><tspan x="1829.83" y="-1010.25"/></text><text x="1853.79" y="-1050.99" opacity=".8"><tspan x="1853.79" y="-1050.99"/></text><text x="362.32" y="-1058.2" opacity=".8"><tspan x="362.32" y="-1058.2"/></text><text x="1822.87" y="-1331.44" opacity=".8"><tspan x="1822.87" y="-1331.44"/></text><text x="-575.49" y="-1106.3" opacity=".8"><tspan x="-575.49" y="-1106.3"/></text><text x="-2399.18" y="-360.74" opacity=".8"><tspan x="-2399.18" y="-360.74"/></text><text x="-684.42" y="-267.87" opacity=".8"><tspan x="-684.42" y="-267.87"/></text><text x="155.59" y="-26.956" opacity=".8"><tspan x="155.59" y="-26.956"/></text><text x="179.55" y="-67.7" opacity=".8"><tspan x="179.55" y="-67.7"/></text><text x="-1090.26" y="-261.73" opacity=".8"><tspan x="-1090.26" y="-261.73"/></text><text x="-282.66" y="-675.2" opacity=".8"><tspan x="-282.66" y="-675.2"/></text><text x="-258.7" y="-715.94" opacity=".8"><tspan x="-258.7" y="-715.94"/></text><text x="-1750.16" y="-723.15" opacity=".8"><tspan x="-1750.16" y="-723.15"/></text><text x="-289.62" y="-996.38" opacity=".8"><tspan x="-289.62" y="-996.38"/></text><text x="1196.5" y="-369.69" opacity=".8"><tspan x="1196.5" y="-369.69"/></text><text x="1220.46" y="-410.43" opacity=".8"><tspan x="1220.46" y="-410.43"/></text><text x="-271" y="-417.64" opacity=".8"><tspan x="-271" y="-417.64"/></text><text x="1189.54" y="-690.88" opacity=".8"><tspan x="1189.54" y="-690.88"/></text><text x="-1208.82" y="-465.73" opacity=".8"><tspan x="-1208.82" y="-465.73"/></text><text x="-3032.5" y="279.82" opacity=".8"><tspan x="-3032.5" y="279.82"/></text></g><text transform="matrix(.9048 0 0 .9048 -716.8 -676.3)" x="-664.27" y="1159.42" font-size="14" opacity=".8"><tspan x="-664.27" y="1159.42"/></text><g font-size="12.67"><text x="877.23" y="18.05" opacity=".8"><tspan x="877.23" y="18.05"/></text><text x="901.19" y="-22.691" opacity=".8"><tspan x="901.19" y="-22.691"/></text><text x="-569.37" y="-52.769" opacity=".8"><tspan x="-569.37" y="-52.769"/></text><text x="-2393.06" y="692.78" opacity=".8"><tspan x="-2393.06" y="692.78"/></text><text x="-454.88" y="-438.09" opacity=".8"><tspan x="-454.88" y="-438.09"/></text><text x="352.72" y="-851.56" opacity=".8"><tspan x="352.72" y="-851.56"/></text><text x="376.68" y="-892.3" opacity=".8"><tspan x="376.68" y="-892.3"/></text><text x="-1114.78" y="-899.51" opacity=".8"><tspan x="-1114.78" y="-899.51"/></text><text x="345.76" y="-1172.75" opacity=".8"><tspan x="345.76" y="-1172.75"/></text><text x="1831.89" y="-546.05" opacity=".8"><tspan x="1831.89" y="-546.05"/></text><text x="1855.85" y="-586.8" opacity=".8"><tspan x="1855.85" y="-586.8"/></text><text x="364.38" y="-594.01" opacity=".8"><tspan x="364.38" y="-594.01"/></text><text x="1824.93" y="-867.24" opacity=".8"><tspan x="1824.93" y="-867.24"/></text><text x="-573.43" y="-642.1" opacity=".8"><tspan x="-573.43" y="-642.1"/></text><text x="-2397.12" y="103.46" opacity=".8"><tspan x="-2397.12" y="103.46"/></text><text x="-682.36" y="196.33" opacity=".8"><tspan x="-682.36" y="196.33"/></text><text x="426.66" y="17.15" opacity=".8"><tspan x="426.66" y="17.15"/></text><text x="450.62" y="-23.596" opacity=".8"><tspan x="450.62" y="-23.596"/></text><text x="-1040.84" y="-30.806" opacity=".8"><tspan x="-1040.84" y="-30.806"/></text><text x="419.7" y="-304.04" opacity=".8"><tspan x="419.7" y="-304.04"/></text><text x="-608.03" y="-33.52" opacity=".8"><tspan x="-608.03" y="-33.52"/></text><text x="-2431.72" y="712.03" opacity=".8"><tspan x="-2431.72" y="712.03"/></text><text x="-456.94" y="-895.05" opacity=".8"><tspan x="-456.94" y="-895.05"/></text><text x="350.66" y="-1308.52" opacity=".8"><tspan x="350.66" y="-1308.52"/></text><text x="374.62" y="-1349.26" opacity=".8"><tspan x="374.62" y="-1349.26"/></text><text x="-1116.84" y="-1356.47" opacity=".8"><tspan x="-1116.84" y="-1356.47"/></text><text x="343.7" y="-1629.71" opacity=".8"><tspan x="343.7" y="-1629.71"/></text><text x="1829.83" y="-1003.02" opacity=".8"><tspan x="1829.83" y="-1003.02"/></text><text x="1853.79" y="-1043.76" opacity=".8"><tspan x="1853.79" y="-1043.76"/></text><text x="362.32" y="-1050.97" opacity=".8"><tspan x="362.32" y="-1050.97"/></text><text x="1822.87" y="-1324.2" opacity=".8"><tspan x="1822.87" y="-1324.2"/></text><text x="-575.49" y="-1099.06" opacity=".8"><tspan x="-575.49" y="-1099.06"/></text><text x="-2399.18" y="-353.5" opacity=".8"><tspan x="-2399.18" y="-353.5"/></text><text x="-684.42" y="-260.63" opacity=".8"><tspan x="-684.42" y="-260.63"/></text><text x="155.59" y="-19.718" opacity=".8"><tspan x="155.59" y="-19.718"/></text><text x="179.55" y="-60.46" opacity=".8"><tspan x="179.55" y="-60.46"/></text><text x="-1090.26" y="-254.49" opacity=".8"><tspan x="-1090.26" y="-254.49"/></text><text x="-282.66" y="-667.96" opacity=".8"><tspan x="-282.66" y="-667.96"/></text><text x="-258.7" y="-708.7" opacity=".8"><tspan x="-258.7" y="-708.7"/></text><text x="-1750.16" y="-715.91" opacity=".8"><tspan x="-1750.16" y="-715.91"/></text><text x="-289.62" y="-989.14" opacity=".8"><tspan x="-289.62" y="-989.14"/></text><text x="1196.5" y="-362.45" opacity=".8"><tspan x="1196.5" y="-362.45"/></text><text x="1220.46" y="-403.19" opacity=".8"><tspan x="1220.46" y="-403.19"/></text><text x="-271" y="-410.4" opacity=".8"><tspan x="-271" y="-410.4"/></text><text x="1189.54" y="-683.64" opacity=".8"><tspan x="1189.54" y="-683.64"/></text><text x="-1208.82" y="-458.5" opacity=".8"><tspan x="-1208.82" y="-458.5"/></text><text x="-3032.5" y="287.06" opacity=".8"><tspan x="-3032.5" y="287.06"/></text></g><text transform="matrix(.9048 0 0 .9048 -716.8 -669)" x="-664.27" y="1159.42" font-size="14" opacity=".8"><tspan x="-664.27" y="1159.42"/></text></g><g font-size="12.67"><text x="435.9" y="-361.23" font-family="'Droid Sans'"><tspan x="435.9" y="-361.23"/><tspan x="435.9" y="-345.39"/></text><g font-family="'Bitstream Vera Sans'"><text x="901.09" y="-843.27" opacity=".8"><tspan x="901.09" y="-843.27"/></text><text x="-922.6" y="-97.72" opacity=".8"><tspan x="-922.6" y="-97.72"/></text><text x="1628.17" y="-1128.27" opacity=".8"><tspan x="1628.17" y="-1128.27"/></text><text x="1652.13" y="-1169.01" opacity=".8"><tspan x="1652.13" y="-1169.01"/></text><text x="160.67" y="-1176.22" opacity=".8"><tspan x="160.67" y="-1176.22"/></text><text x="1621.21" y="-1449.45" opacity=".8"><tspan x="1621.21" y="-1449.45"/></text></g></g><rect transform="matrix(0-1-1 0 0 0)" x="-42" y="-42" width="36" height="36" rx="1.8" ry="2.25" fill="url(#a)"/><g transform="matrix(.6471 0 0 .6364 8.47 8.727)" fill="#1e74d4"><path d="m40.85 19.25c-1.601-7.633-16.7-8.117-26.44-2.301v0.642c9.721-4.908 23.51-4.877 24.77 2.155 0.423 2.329-0.909 4.752-3.298 6.146v1.824c2.875-1.032 5.814-4.372 4.963-8.466m-17.7 13.36c-6.717 0.608-13.72-0.349-14.7-5.504-0.487-2.538 0.698-5.232 2.261-6.904v-0.895c-2.818 2.426-4.348 5.494-3.465 9.117 1.127 4.649 7.134 7.281 16.3 6.405 3.631-0.343 8.383-1.49 11.68-3.271v-2.529c-2.997 1.756-7.953 3.206-12.08 3.58z"/><g transform="matrix(1.1214 0 0 1.1339-2.203-4.313)"><path d="m34.07 19.677h-1.657v7.01c0 .823.416 1.538 1.657 1.652"/><path d="m14.323 22.24h-1.658v4.576c0 .823.416 1.538 1.658 1.652"/><path d="m12.66 19.89h1.658v1.49h-1.658z"/><path d="m24.25 28.391c-1.344 0-1.91-.886-1.91-1.76v-6.077h1.639v1.683h1.241v1.26h-1.241v3.04c0 .358.181.554.572.554h.669v1.3h-.97"/><path d="m28.613 23.421c-.56 0-.994.275-1.175.647-.108.224-.145.395-.163.67h2.537c-.036-.673-.356-1.317-1.2-1.317m-1.338 2.379c0 .798.53 1.385 1.458 1.385.729 0 1.091-.193 1.513-.587l1.013.922c-.651.607-1.332.976-2.537.976-1.573 0-3.08-.815-3.08-3.188 0-2.029 1.314-3.176 3.044-3.176 1.754 0 2.76 1.343 2.76 3.105v.562h-4.17"/><path d="m18.789 23.497c.482 0 .681.224.681.59v4.311h1.645v-4.317c0-.877-.494-1.845-1.935-1.845h-3.393v6.162h1.639v-4.902"/></g></g></g><g><g transform="translate(-.5 1.9)" fill="#eae8e8"><path d="m427.6 543.8v1h-1v-1h1m-1 1v1h-1v-1h1m-1 0h-1v-1h1v1m-1 0v1h-1v-1h1m-1 0h-1v-1h1v1m-1 0v1h-1v-1h1m-1 0h-1v-1h1v1m-1 0v1h-1v-1h1m-1 0h-1v-1h1v1m-1 0v1h-1v-1h1m-1 0h-1v-1h1v1m-1 0v1h-1v-1h1m-1 0h-1v-1h1v1m-1 0v1h-1v-1h1m-1 0h-1v-1h1v1m-1 0v1h-1v-1h1"/><path d="m431.6 543.8-2 2h2v-2" fill-rule="evenodd"/><g><path d="m387.6 543.8v1h1v-1h-1m1 1v1h1v-1h-1m1 0h1v-1h-1v1m1 0v1h1v-1h-1m1 0h1v-1h-1v1m1 0v1h1v-1h-1m1 0h1v-1h-1v1m1 0v1h1v-1h-1m1 0h1v-1h-1v1m1 0v1h1v-1h-1m1 0h1v-1h-1v1m1 0v1h1v-1h-1m1 0h1v-1h-1v1m1 0v1h1v-1h-1m1 0h1v-1h-1v1m1 0v1h1v-1h-1"/><path d="m432.6 521.8h-1v-1h1v1m-1-1h-1v-1h1v1m0-1v-1h1v1h-1m0-1h-1v-1h1v1m0-1v-1h1v1h-1m0-1h-1v-1h1v1m0-1v-1h1v1h-1m0-1h-1v-1h1v1m0-1v-1h1v1h-1m0-1h-1v-1h1v1m0-1v-1h1v1h-1m0-1h-1v-1h1v1m0-1v-1h1v1h-1m0-1h-1v-1h1v1m0-1v-1h1v1h-1m0-1h-1v-1h1v1"/><path transform="translate(376.6 491.8)" d="m54 40v1h1v-1zm1 1v1h1v-1zm0 1h-1v1h1zm0 1v1h1v-1zm0 1h-1v1h1zm0 1v1h1v-1zm0 1h-1v1h1zm0 1v1h1v-1zm0 1h-1v1h1z"/></g></g><g transform="matrix(.2925 0 0 .2916 551.6 572.1)" fill="#1e74d4"><ellipse cx="-462.6" cy="-130.5" rx="2.5" ry="2.5"/><ellipse cx="-458.1" cy="-123" rx="3" ry="3"/><ellipse cx="-460.6" cy="-138.5" rx="1.5" ry="1.5"/><path d="m-452.1-140-2.844 2.844 4.375 4.375-4.531 5.156 3 2.625 7-8-7-7"/></g></g></g></svg>
