<svg viewBox="0 0 48 48" xmlns="http://www.w3.org/2000/svg" xmlns:xlink="http://www.w3.org/1999/xlink"><defs><linearGradient id="a" x1="131.4" x2="123.9" y1="223.3" y2="103.6" gradientUnits="userSpaceOnUse"><stop stop-color="#e6f3ff" offset="0"/><stop stop-color="#dcffe7" offset="1"/></linearGradient><linearGradient id="b" x1="409.6" x2="409.9" y1="542.8" y2="501.2" gradientTransform="matrix(1.052 0 0 1.028 -72.57 -8.693)" gradientUnits="userSpaceOnUse"><stop stop-color="#08f" offset="0"/><stop stop-color="#02c3ff" offset="1"/></linearGradient></defs><g transform="matrix(1.35 0 0 1.35 1.959 -1364)"><path transform="matrix(.3 0 0 .3 4.327 1014)" d="m63 48.67h-8v-16h8c8.836 0 16-7.164 16-16s-7.164-16-16-16c-8.837 0-16 7.164-16 16v8h-16v-8c0-8.836-7.164-16-16-16s-16 7.164-16 16 7.164 16 16 16h8v16h-8c-8.836 0-16 7.164-16 16s7.164 16 16 16c8.837 0 16-7.164 16-16v-8h16v7.98c0 8e-3 -1e-4 0.014-1e-4 0.02 0 8.836 7.164 16 16 16s16-7.164 16-16-7.163-16-16-16m0-40c4.418 0 8 3.582 8 8s-3.582 8-8 8h-8v-8c0-4.418 3.582-8 8-8m-56 8c0-4.418 3.582-8 8-8s8 3.582 8 8v8h-8c-4.418 0-8-3.583-8-8m8 56c-4.418 0-8-3.582-8-8s3.582-8 8-8h8v8c0 4.418-3.582 8-8 8m16-24v-16h16v16h-16m32 24c-4.418 0-8-3.582-8-8v-8h7.999c4.418 0 8 3.582 8 8s-3.581 8-7.999 8" fill="#fff" fill-opacity=".847" stroke-width="1.317"/><g transform="matrix(.7677 0 0 .87 -258 564.7)"><rect x="334.2" y="513.1" width="46.3" height="34.94" rx="1.644" fill="url(#b)"/><flowRoot transform="matrix(1.718 0 0 1.718 390.3 513.8)" font-family="sans-serif" font-size="10" letter-spacing="0" word-spacing="0" line-height="125%"><flowRegion><path d="m22 3h27v15h-27z"/></flowRegion><flowPara>Plasm</flowPara></flowRoot></g><g fill-rule="evenodd"><path d="m33.64 1026c0 6.453-3.402 12.1-8.478 15.17l-17.73-0.031c-5.05-3.082-8.427-8.709-8.427-15.14 0-6.491 3.442-12.16 8.569-15.23h17.54c5.102 3.069 8.525 8.754 8.525 15.23" fill-opacity=".16" opacity=".9"/><circle cx="16.33" cy="1026" r="12.86" fill-opacity=".2" opacity=".9"/><circle cx="16.33" cy="1026" r="8" fill-opacity=".232" opacity=".9"/></g><path transform="matrix(.1473 0 0 .1473 -.401 1012)" d="m154.6 140.3-26.45-0.039v-32.04c0-7.911-5.363-14.35-12.5-14.35-7.138 0-12.5 6.437-12.5 14.35v48.52c-3-3.409-6.196-5.447-10.21-5.447-2.217 0-4.443 0.643-6.396 1.861-6.156 3.861-8.385 12.31-5.03 19.29 5.485 10.92 23.48 46.74 24.7 48.57 4.064 6.153 10.23 9.748 16.93 9.748h35.33c13.54 0 20.68-7.112 20.68-19.28v-44.63c0-0.226 0.305-0.448 0.291-0.67 0.017-0.349-0.013-0.708-0.013-1.079 0-13.67-11.16-24.8-24.83-24.8" fill="url(#a)"/></g></svg>
