<svg viewBox="0 0 48 48" xmlns="http://www.w3.org/2000/svg"><defs><linearGradient id="b" x2="0" y1="540.8" y2="506.8" gradientTransform="matrix(1.529 0 0 1.529 -592.8 -769.1)" gradientUnits="userSpaceOnUse"><stop stop-color="#049b78" offset="0"/><stop stop-color="#40ca85" offset="1"/></linearGradient><linearGradient id="a" x1="32.02" x2="32" y1="41.55" y2="24" gradientUnits="userSpaceOnUse"><stop stop-color="#b0ffd6" offset="0"/><stop stop-color="#f6fbfb" offset="1"/></linearGradient></defs><path transform="matrix(.92308 0 0 .92308-5.534-5.541)" d="m32 6c-14.4 0-26 11.6-26 26s11.6 26 26 26 26-11.6 26-26-11.6-26-26-26m0 23c1.662 0 3 1.338 3 3s-1.338 3-3 3-3-1.338-3-3 1.338-3 3-3z" fill="url(#b)"/><path transform="matrix(.92308 0 0 .92308-5.534-5.541)" d="m32 23c-4.986 0-9 4.01-9 9 0 4.986 4.01 9 9 9 4.986 0 9-4.01 9-9 0-4.986-4.01-9-9-9m0 1a8 8 0 0 1 8 8 8 8 0 0 1-8 8 8 8 0 0 1-8-8 8 8 0 0 1 8-8m0 1a7 7 0 0 0-7 7 7 7 0 0 0 7 7 7 7 0 0 0 7-7 7 7 0 0 0-7-7m0 4c1.662 0 3 1.338 3 3s-1.338 3-3 3-3-1.338-3-3 1.338-3 3-3" fill="url(#a)"/><path transform="matrix(.3792 0 0 .3792 -141 -180.5)" d="m471.12 530.74c-.767.215-1.385 1.072-1.385 1.904v13.19c-.778-.427-1.778-.599-2.814-.317-1.87.509-3.041 2.153-2.641 3.671.401 1.519 2.243 2.367 4.112 1.858 1.492-.406 2.52-1.554 2.684-2.765l.043-12.465 9.697-2.72v9.836c-.778-.427-1.778-.599-2.814-.317-1.87.509-3.041 2.153-2.641 3.671.401 1.519 2.243 2.367 4.112 1.858 1.492-.406 2.52-1.554 2.684-2.765l.043-16.227c0-.624-.368-1.091-.866-1.179l-10.216 2.765" fill="#d5fde9"/></svg>
