<svg viewBox="0 0 48 48" xmlns="http://www.w3.org/2000/svg"><defs><linearGradient id="a" x1="407.5" x2="407.4" y1="546.6" y2="506.1" gradientTransform="matrix(.988 0 0 1 5.184 0)" gradientUnits="userSpaceOnUse"><stop stop-color="#bfc1c1" offset="0"/><stop stop-color="#f1f2f3" offset="1"/></linearGradient><linearGradient id="b" x1="388.8" x2="388.8" y1="517.6" y2="510.7" gradientUnits="userSpaceOnUse"><stop stop-color="#e4bd27" offset="0"/><stop stop-color="#fff360" offset="1"/></linearGradient><linearGradient id="d" x1="416" x2="415.9" y1="556.9" y2="506.1" gradientTransform="matrix(1.027 0 0 1 -395 -499.8)" gradientUnits="userSpaceOnUse"><stop stop-color="#151515" offset="0"/><stop stop-color="#3f3f3f" offset="1"/></linearGradient><linearGradient id="c" x2="0" y1="518.8" y2="505.6" gradientTransform="matrix(.993 0 0 .7534 3.066 124.8)" gradientUnits="userSpaceOnUse"><stop stop-color="#08f" offset="0"/><stop stop-color="#02c3ff" offset="1"/></linearGradient></defs><g transform="matrix(.9231 0 0 .9231 -353.1 -459.5)"><path d="m388.57 509.4c-.554 0-1 .446-1 1v7c0 .554.446 1 1 1h2v-9h-2" fill="url(#b)"/><path transform="translate(376.6 491.8)" d="m11 8.109v11.891h2v13h-1.512c0 0-.462-.009-.488.613v21.786c.08 2.496 2.192 2.601 2.192 2.601h37.467c0 0 2.341.095 2.341-2.196v-27.618c-.0001-.203-.2-.186-.2-.186h-.8v-5h.698c0 0 .309.003.302-.308v-9.395c.008-.319-.188-.485-.188-.485l-6.668-6.668c-.111-.155-.39-.144-.39-.144h-32.763c0 0-1.992.067-1.992 2.109" fill="url(#d)"/><rect x="400.8" y="506.9" width="15.6" height="15.6" rx="7.8" fill="#abb9be"/><rect x="390.9" y="505.8" width="35.75" height="37.93" rx="1.3" fill="url(#a)" fill-rule="evenodd"/><rect x="390.9" y="505.8" width="35.75" height="8.287" rx="1.295" fill="url(#c)"/><path d="m424.2 512.1-1.453-4-1.453 4z" fill="#edefef" fill-rule="evenodd"/><g transform="matrix(.4426 0 0 .4412 598.2 594.9)" fill="#343434"><ellipse cx="-462.6" cy="-130.5" rx="2.5" ry="2.5"/><ellipse cx="-458.1" cy="-123" rx="3" ry="3"/><ellipse cx="-460.6" cy="-138.5" rx="1.5" ry="1.5"/><path d="m-452.1-140-2.844 2.844 4.375 4.375-4.531 5.156 3 2.625 7-8-7-7"/></g><path d="m390.9 512.8h35.75v1.348h-35.75z" fill="#0198ff" fill-rule="evenodd"/></g></svg>
