<svg viewBox="0 0 48 48" xmlns="http://www.w3.org/2000/svg"><defs><linearGradient id="b" x2="0" y1="540.8" y2="506.8" gradientTransform="matrix(1.529 0 0 1.529 -592.8 -769.1)" gradientUnits="userSpaceOnUse"><stop stop-color="#d1d7df" offset="0"/><stop stop-color="#e0e5e7" offset="1"/></linearGradient><linearGradient id="a" x1="31.84" x2="32" y1="40.48" y2="24" gradientUnits="userSpaceOnUse"><stop stop-color="#3d434a" offset="0"/><stop stop-color="#5f6974" offset="1"/></linearGradient></defs><path transform="matrix(.92308 0 0 .92308-5.534-5.541)" d="m32 6c-14.4 0-26 11.6-26 26s11.6 26 26 26 26-11.6 26-26-11.6-26-26-26m0 23c1.662 0 3 1.338 3 3s-1.338 3-3 3-3-1.338-3-3 1.338-3 3-3z" fill="url(#b)"/><path transform="matrix(.92308 0 0 .92308-5.534-5.541)" d="m32 23c-4.986 0-9 4.01-9 9 0 4.986 4.01 9 9 9 4.986 0 9-4.01 9-9 0-4.986-4.01-9-9-9m0 1a8 8 0 0 1 8 8 8 8 0 0 1-8 8 8 8 0 0 1-8-8 8 8 0 0 1 8-8m0 1a7 7 0 0 0-7 7 7 7 0 0 0 7 7 7 7 0 0 0 7-7 7 7 0 0 0-7-7m0 4c1.662 0 3 1.338 3 3s-1.338 3-3 3-3-1.338-3-3 1.338-3 3-3" fill="url(#a)" opacity=".791"/><path transform="matrix(.6018 0 0 .5999 -207 -297.9)" d="m409 531-5.244 6.733c-0.983 1.262-0.708 3.511 0.55 4.497 1.259 0.986 3.5 0.71 4.484-0.552l5.244-6.733 0.655-0.842c0.656-0.842 0.472-2.341-0.367-2.998-0.839-0.658-2.334-0.473-2.989 0.368l-4.589 5.892-0.656 0.842c-0.328 0.421-0.236 1.17 0.183 1.499 0.42 0.329 1.167 0.237 1.495-0.184l4.589-5.891 0.839 0.658-4.589 5.891c-0.656 0.842-2.15 1.026-2.989 0.368s-1.023-2.157-0.367-2.998l5.245-6.733c0.983-1.262 3.225-1.538 4.484-0.552s1.534 3.235 0.551 4.497l-5.9 7.575c-1.311 1.683-4.3 2.051-5.978 0.736s-2.045-4.313-0.734-5.997l5.244-6.733 0.839 0.658" fill="#6c747d" stroke-opacity=".8" stroke-width=".071"/></svg>
