<svg viewBox="0 0 48 48" xmlns="http://www.w3.org/2000/svg"><defs><linearGradient id="b" x1="408.3" x2="408.6" y1="544.9" y2="506.8" gradientTransform="matrix(1.529 0 0 1.529 -592.8 -769.1)" gradientUnits="userSpaceOnUse"><stop stop-color="#f0a23a" offset="0"/><stop stop-color="#fde46a" offset="1"/></linearGradient><linearGradient id="a" x2="0" y1="41" y2="23" gradientUnits="userSpaceOnUse"><stop stop-color="#ffffb0" offset="0"/><stop stop-color="#fbfbf6" offset="1"/></linearGradient></defs><path transform="matrix(.92308 0 0 .92308-5.534-5.541)" d="m32 6c-14.4 0-26 11.6-26 26s11.6 26 26 26 26-11.6 26-26-11.6-26-26-26m0 23c1.662 0 3 1.338 3 3s-1.338 3-3 3-3-1.338-3-3 1.338-3 3-3z" fill="url(#b)"/><path transform="matrix(.92308 0 0 .92308-5.534-5.541)" d="m32 23c-4.986 0-9 4.01-9 9 0 4.986 4.01 9 9 9 4.986 0 9-4.01 9-9 0-4.986-4.01-9-9-9m0 6c1.662 0 3 1.338 3 3s-1.338 3-3 3-3-1.338-3-3 1.338-3 3-3" fill="url(#a)"/><path transform="matrix(.92308 0 0 .92308-5.534-5.541)" d="m32 24a8 8 0 0 0-8 8 8 8 0 0 0 8 8 8 8 0 0 0 8-8 8 8 0 0 0-8-8m0 1a7 7 0 0 1 7 7 7 7 0 0 1-7 7 7 7 0 0 1-7-7 7 7 0 0 1 7-7" fill="#f7c755" stroke-linecap="round"/></svg>
