<svg viewBox="0 0 48 48" xmlns="http://www.w3.org/2000/svg" xmlns:xlink="http://www.w3.org/1999/xlink"><defs><linearGradient id="b" x1="154.9" x2="155.8" y1="674.4" y2="620.6" gradientUnits="userSpaceOnUse" xlink:href="#a"/><linearGradient id="a"><stop stop-color="#08f" offset="0"/><stop stop-color="#02c3ff" offset="1"/></linearGradient><linearGradient id="c" x1="7.393" x2="7.341" y1="1050" y2="1038" gradientUnits="userSpaceOnUse"><stop stop-color="#141414" offset="0"/><stop stop-color="#2d2d2f" offset="1"/></linearGradient><linearGradient id="d" x1="169.5" x2="159.2" y1="624.7" y2="63.27" gradientTransform="matrix(1.153 0 0 1.02 -19.35 -8.296)" gradientUnits="userSpaceOnUse" xlink:href="#a"/></defs><g transform="matrix(.07976 0 0 .06939 11.129.212)"><rect x="-14.72" y="53.11" width="362.6" height="583.6" rx="10.32" fill="url(#d)" fill-rule="evenodd"/><path transform="matrix(42.98 0 0 49.41 -182.5 -51264)" d="m12.178 1037.36h-8.355c-.31 0-.561.251-.561.561v12.877c0 .31.251.561.561.561h8.355c.31 0 .561-.251.561-.561v-12.877c0-.31-.251-.561-.561-.561m-.082 12.419h-8.192v-10.868h8.192z" fill="url(#c)"/><ellipse cx="156.3" cy="651.6" rx="19.13" ry="21.99" fill="url(#b)" fill-rule="evenodd" stroke="url(#b)" stroke-linecap="round" stroke-width="5.62"/></g></svg>
