<svg viewBox="0 0 48 48" xmlns="http://www.w3.org/2000/svg"><defs><linearGradient id="a" x2="0" y1="542.2" y2="526.2" gradientUnits="userSpaceOnUse"><stop stop-color="#e3e3e3" offset="0"/><stop stop-color="#fffcff" offset="1"/></linearGradient><linearGradient id="c" x2="0" y1="542.2" y2="526.2" gradientUnits="userSpaceOnUse"><stop stop-color="#d0d0d0" offset="0"/><stop stop-color="#f1eeee" offset="1"/></linearGradient><linearGradient id="b" x2="0" y1="544.8" y2="517.8" gradientUnits="userSpaceOnUse"><stop stop-color="#0973d9" offset="0"/><stop stop-color="#0cbffe" offset="1"/></linearGradient></defs><g transform="matrix(1.714 0 0 1.714 -682.4 -892.6)"><circle transform="translate(11.47 2.903)" cx="400.6" cy="531.8" r="14" fill="url(#b)"/><circle transform="translate(11.47 2.903)" cx="400.6" cy="531.8" r="14" fill="#5ea5fb" fill-opacity="0"/><path d="m410.95 526.9l.111.023c1.287-.427 4.177 1.256 3.533 2.756-.163.236-.135.654.061.917l-3.613 3.608c-.202-.202-.652-.198-.859 0l-5.975 5.725c-.545.522-.116.965.114 1.199l1.072 1.07c.234.233.853.547 1.293.082l5.639-5.933c.197-.206.198-.65 0-.853 0 0 .003-.003 0-.003l3.628-3.62c.383.345.745.374 1.088.281.663-.181 1.032.466 1.429.939l-.179.176c-.265.268-.24.718.057 1.015.297.297.75.321 1.015.057l1.185-1.182c.265-.267.24-.718-.058-1.013-.268-.269-.657-.304-.928-.112-.813-.91-.386-1.047-1.458-2.231l-2.01-2.048c-1.446-1.416-3.325-1.414-5.145-.852" fill="url(#a)" opacity=".9"/></g></svg>
