<svg viewBox="0 0 48 48" xmlns="http://www.w3.org/2000/svg"><defs><linearGradient id="b" x1="403.7" x2="402.6" y1="545.8" y2="517.4" gradientUnits="userSpaceOnUse"><stop stop-color="#d3d3d3" offset="0"/><stop stop-color="#fcf9f9" offset="1"/></linearGradient><linearGradient id="a" x1="12.61" x2="11.6" y1="24.02" y2="-.7" gradientUnits="userSpaceOnUse"><stop stop-color="#00cafe" offset="0"/><stop stop-color="#1460f3" offset="1"/></linearGradient></defs><g transform="matrix(1.613 0 0 1.613 -622.4 -833.9)"><circle cx="400.6" cy="531.7" r="14.88" fill="url(#b)"/><path transform="matrix(.735 0 0 .735 391.6 523.1)" d="m23.09 18.561c-.37.644-1.042 1-1.734 1-.339 0-.683-.086-.998-.268l-5.982-3.455v6.91c0 1.104-.896 2-2 2-1.104 0-2-.896-2-2v-6.911l-5.985 3.456c-.315.182-.659.268-.998.268-.691 0-1.364-.356-1.734-1-.552-.957-.225-2.18.732-2.73l5.983-3.456-5.985-3.456c-.957-.553-1.284-1.774-.732-2.731.552-.957 1.776-1.285 2.732-.732l5.984 3.455v-6.911c0-1.104.896-2 2-2 1.104 0 2 .896 2 2v6.91l5.982-3.455c.956-.553 2.183-.225 2.732.732.552.957.225 2.18-.732 2.731l-5.981 3.456 5.982 3.455c.957.552 1.286 1.775.734 2.732" fill="url(#a)"/></g></svg>
