<svg viewBox="0 0 48 48" xmlns="http://www.w3.org/2000/svg"><defs><linearGradient id="b" x1="238.1" x2="205.1" y1="372.4" y2="7.441" gradientUnits="userSpaceOnUse"><stop stop-color="#e8e8e8" stop-opacity=".925" offset="0"/><stop stop-color="#fffcff" offset="1"/></linearGradient><linearGradient id="a" x1="400.5" x2="400.7" y1="546.1" y2="517.8" gradientUnits="userSpaceOnUse"><stop stop-color="#2fae61" offset="0"/><stop stop-color="#4bdf88" offset="1"/></linearGradient></defs><g transform="matrix(.07429 0 0 .07429 9.399 8.612)"><circle transform="matrix(23.07 0 0 23.07 -9046 -12063)" cx="400.6" cy="531.8" r="14" fill="url(#a)"/><circle transform="matrix(23.07 0 0 23.07 -9046 -12063)" cx="400.6" cy="531.8" r="14" fill="#5ea5fb" fill-opacity="0"/><g transform="matrix(.92594 0 0 .92594-33.98-.031)" fill="#fff" fill-opacity=".851"><path d="m241.9 62.56-241.9 116.5v10.87l241.9 116.5 242.1-116.6v-10.65z"/><path d="m83.81 251.57v69.7l145.84 70.25h24.506l145.44-70.06c.14-.307.271-.613.402-.922v-68.972l-158.09 76.15-158.09-76.15"/><path d="m458.5 358.2v-135.6l-19.15 9.65v125.9l-12.48 38.01 18.86 25.24h6.38l18.86-25.24z"/></g></g></svg>
