<svg viewBox="0 0 48 48" xmlns="http://www.w3.org/2000/svg"><defs><linearGradient id="a" x1="77.29" x2="75.66" y1="25.75" y2="-19.92" gradientUnits="userSpaceOnUse"><stop stop-color="#dc3c30" offset="0"/><stop stop-color="#ff786d" offset="1"/></linearGradient></defs><g transform="matrix(1 0 0 1 -48.37 20.88)" enable-background="new"><circle cx="72.37" cy="3.125" r="24" fill="url(#a)"/><g fill="#fff" fill-opacity=".847"><path d="m88.92 2.935h-2.309c-0.21 0-0.559-0.013-0.559-0.222v-2.331c0-0.21 1e-3 -0.485-0.2-0.485h-2.32c-0.21 0-0.518-0.065-0.518-0.275v-2.319c0-0.21-0.031-0.445-0.241-0.445h-2.313c-0.21 0-0.484-0.106-0.484-0.315v-2.33c0-0.21-0.118-0.378-0.327-0.376-0.758 6e-3 -1.534 7e-3 -2.321 7e-3 -0.21 0-0.39 0.17-0.39 0.38v2.309c0 0.21-0.097 0.325-0.307 0.325h-8.52c-0.21 0-0.288-0.115-0.288-0.324v-2.312c0-0.21-0.216-0.38-0.425-0.38-0.779 0-1.51-1e-4 -2.26-7e-3 -0.21-2e-3 -0.353 0.167-0.353 0.376v2.352c0 0.21-0.27 0.295-0.48 0.295h-2.333c-0.21 0-0.226 0.255-0.226 0.464v2.322c0 0.21-0.324 0.252-0.534 0.252h-2.325c-0.21 0-0.559 0.297-0.559 0.507v2.325c0 0.21 1e-3 0.206-0.2 0.206h-2.289c-0.21 0-0.549 0.343-0.549 0.553v8.423c0 0.21 0.339 0.519 0.549 0.519h2.288c0.21 0 0.201-0.31 0.201-0.519v-5.36c0-0.21 0.349-0.197 0.558-0.197h2.348c0.21 0 0.512-0.013 0.512 0.197v5.395c0 0.21 0.104 0.379 0.314 0.379 0.779 0 1.566 1e-4 2.317 7e-3 0.21 2e-3 0.408-0.166 0.408-0.376v-2.316c0-0.21 0.047-0.247 0.257-0.247h14.68c0.21 0 0.38 0.104 0.38 0.314 0 0.779-1e-4 1.565-7e-3 2.324-2e-3 0.21 0.166 0.4 0.376 0.4h2.313c0.209 0 0.232-0.277 0.232-0.487v-5.387c0-0.21 0.318-0.202 0.527-0.202h2.36c0.21 0 0.53-8e-3 0.53 0.202v5.355c0 0.21 0.02 0.519 0.23 0.519h2.259c0.21 0 0.55-0.309 0.55-0.519v-8.438c0-0.21-0.339-0.537-0.549-0.537m-21.1-0.24c0 0.21-0.238 0.24-0.447 0.24h-2.32c-0.21 0-0.271-0.03-0.271-0.239v-2.316c0-0.21 0.061-0.483 0.271-0.483h2.319c0.21 0 0.448 0.273 0.448 0.483v2.315m12.15 6e-3c0 0.21-0.063 0.234-0.273 0.234h-2.316c-0.21 0-0.449-0.024-0.449-0.234v-2.317c0-0.209 0.24-0.487 0.449-0.487h2.316c0.21 0 0.273 0.277 0.273 0.487v2.318"/><path d="m70.45 12.351c-.572 0-1.148.0001-1.71 0-1.229-.004-2.465-.009-3.694-.014-.21-.0001-.382.169-.38.379.006.759.005 1.568.005 2.328 0 .21.168.425.378.425 1.826 0 3.6 0 5.372 0 .21 0 .437-.261.437-.47 0-.757 0-1.505 0-2.266 0-.21-.199-.381-.408-.38"/><path d="m79.85 12.34c-0.059 5e-3 -0.091 0.047-0.151 0.047-1.808 1e-4 -3.588 0.04-5.396 0.04h-0.172c-0.095 0-0.236 0.091-0.236 0.301v2.272c0 0.21 0.234 0.465 0.444 0.465h5.367c0.21 0 0.266-0.256 0.266-0.466v-2.3c0-0.21-0.023-0.367-0.122-0.36"/><path d="m62-6.18h2.3c0.21 0 0.377-0.164 0.376-0.374-6e-3 -0.76-7e-3 -1.524-7e-3 -2.284 0-0.21-0.17-0.38-0.38-0.38h-2.288c-0.21 0-0.259 0.177-0.259 0.387v2.284c0 0.21 0.049 0.367 0.259 0.367"/><path d="m80.41-6.159c0.76-6e-3 1.493-7e-3 2.253-7e-3 0.21 0 0.349-0.171 0.349-0.38v-2.289c0-0.21-0.051-0.382-0.26-0.382h-2.283c-0.21 0-0.494 0.174-0.494 0.383v2.3c0 0.21 0.227 0.377 0.437 0.376"/></g></g></svg>
