<svg viewBox="0 0 48 48" xmlns="http://www.w3.org/2000/svg"><defs><linearGradient id="c" x2="0" y1="518.1" y2="545.2" gradientUnits="userSpaceOnUse"><stop stop-color="#faf7f7" offset="0"/><stop stop-color="#d4d4d4" offset="1"/></linearGradient><linearGradient id="b" x1="403.4" x2="402.5" y1="545.2" y2="518.1" gradientUnits="userSpaceOnUse"><stop stop-color="#d3d3d3" offset="0"/><stop stop-color="#fcf9f9" offset="1"/></linearGradient><linearGradient id="a" x2="0" y1="552" y2="510" gradientUnits="userSpaceOnUse"><stop stop-color="#2a2c2f" offset="0"/><stop stop-color="#424649" offset="1"/></linearGradient></defs><g transform="matrix(1.524 0 0 1.524 -636.6 -785)"><circle transform="matrix(1.051 0 0 1.051 12.62 -27.9)" cx="400.5" cy="531.7" r="14.23" fill="url(#b)" stroke="url(#c)" stroke-width="1.524"/><path d="m433.5 528c-1.662 0-3 1.338-3 3s1.338 3 3 3 3-1.338 3-3-1.338-3-3-3m-7.5 0c-1.662 0-3 1.338-3 3s1.338 3 3 3 3-1.338 3-3-1.338-3-3-3m15 0c-1.662 0-3 1.338-3 3s1.338 3 3 3 3-1.338 3-3-1.338-3-3-3" fill="url(#a)"/></g></svg>
