<svg viewBox="0 0 48 48" xmlns="http://www.w3.org/2000/svg"><defs><linearGradient id="b" x1="409.6" x2="409.9" y1="542.8" y2="501.2" gradientTransform="matrix(1.091 0 0 1.207 -398.3 -633.2)" gradientUnits="userSpaceOnUse"><stop stop-color="#08f" offset="0"/><stop stop-color="#02c3ff" offset="1"/></linearGradient><linearGradient id="a" x1="50.93" x2="49.43" y1="24.85" y2="1.037" gradientUnits="userSpaceOnUse"><stop stop-color="#e6f3ff" offset="0"/><stop stop-color="#dcffe7" offset="1"/></linearGradient></defs><g transform="matrix(1 0 0 1 -23.37 20.88)" enable-background="new"><rect x="23.38" y="-20.09" width="48" height="41.05" rx="1.932" fill="url(#b)"/><g fill-rule="evenodd"><path d="m70.76 0.469c0 8.714-4.594 16.34-11.45 20.49l-23.94-0.042c-6.817-4.162-11.38-11.76-11.38-20.44 0-8.766 4.648-16.43 11.57-20.56h23.68c6.89 4.144 11.51 11.82 11.51 20.56" fill-opacity=".16" opacity=".9"/><circle cx="47.38" cy=".432" r="17.36" fill-opacity=".2" opacity=".9"/><circle cx="47.38" cy=".432" r="10.8" fill-opacity=".232" opacity=".9"/></g><path d="m55.55 8.347l-5.262-.008v-6.374c0-1.574-1.067-2.854-2.487-2.854-1.42 0-2.487 1.281-2.487 2.854v9.652c-.597-.678-1.233-1.084-2.031-1.084-.441 0-.884.128-1.272.37-1.225.768-1.668 2.45-1 3.837 1.091 2.171 4.67 9.298 4.913 9.662.808 1.224 2.035 1.939 3.368 1.939h7.03c2.695 0 4.114-1.415 4.114-3.836v-8.878c0-.045.061-.089.058-.133.003-.069-.003-.141-.003-.215 0-2.72-2.221-4.933-4.94-4.933" fill="url(#a)"/></g></svg>
