<svg version="1.1" viewBox="0 0 48 48" xmlns="http://www.w3.org/2000/svg" xmlns:xlink="http://www.w3.org/1999/xlink"><defs><linearGradient id="a" x1="98.63" x2="96.02" y1="297.2" y2="-22.87" gradientUnits="userSpaceOnUse"><stop stop-color="#197cf1" offset="0"/><stop stop-color="#20bcfa" offset="1"/></linearGradient><linearGradient id="c" x1="408.8" x2="408.6" y1="546.8" y2="501" gradientUnits="userSpaceOnUse"><stop stop-color="#dce2ff" offset="0"/><stop stop-color="#f8feff" offset="1"/></linearGradient><linearGradient id="b" x1="98.63" x2="96.02" y1="297.2" y2="-22.87" gradientTransform="matrix(.1117 0 0 .1117 9.386 9.396)" gradientUnits="userSpaceOnUse" xlink:href="#a"/></defs><g transform="matrix(1.043 0 0 1.043 -402.3 -522.6)"><path d="m408.6 500.8c12.74 0 23 10.26 23 23s-10.26 23-23 23-23-10.26-23-23 10.26-23 23-23z" fill="url(#c)" stroke-width="1.15"/><g transform="matrix(.1071 0 0 .1071 394.6 509.8)" fill="url(#a)"><path transform="matrix(8.951 0 0 8.951 -84.01 -84.1)" d="m25.79 9.396c-1.588 0-2.881 1.291-2.881 2.879v2.467c0 1.588 1.293 2.879 2.881 2.879h0.04102c0.4628 0 0.8379-0.3751 0.8379-0.8379 0-0.4628-0.3751-0.8379-0.8379-0.8379h-0.04102c-0.6639 0-1.203-0.5393-1.203-1.203v-2.467c0-0.6639 0.5393-1.203 1.203-1.203h0.04102c0.6639 0 1.203 0.5393 1.203 1.203 0 0.4628 0.3771 0.8379 0.8398 0.8379 0.4628 0 0.8379-0.3751 0.8379-0.8379 1.1e-5 -1.588-1.293-2.879-2.881-2.879h-0.04102zm7.768 0c-1.588 0-2.879 1.291-2.879 2.879v2.467c0 1.588 1.291 2.879 2.879 2.879h0.04102c1.588 0 2.881-1.291 2.881-2.879v-2.467c0-1.588-1.293-2.879-2.881-2.879h-0.04102zm-13.37 0.00391c-0.2447-0.0233-0.4923 0.0605-0.6719 0.2402l-2.123 2.123c-0.3272 0.3272-0.3272 0.8584 0 1.186 0.3268 0.3268 0.8564 0.326 1.184 0h2e-3l0.6914-0.6914v4.525c0 0.4628 0.3751 0.8398 0.8379 0.8398s0.8379-0.3771 0.8379-0.8398v-6.549c0-0.339-0.2044-0.6457-0.5176-0.7754-0.07824-0.0324-0.1587-0.05083-0.2402-0.05859zm13.37 1.672h0.04102c0.6639 0 1.205 0.5412 1.205 1.205v2.465c0 0.6639-0.5412 1.203-1.205 1.203h-0.04102c-0.6639 0-1.203-0.5393-1.203-1.203v-2.465c0-0.6639 0.5393-1.205 1.203-1.205zm-13.41 9.002c-1.588 0-2.879 1.291-2.879 2.879v2.467c0 1.588 1.291 2.879 2.879 2.879h0.04297c1.588 0 2.879-1.291 2.879-2.879v-2.467c0-1.588-1.291-2.879-2.879-2.879h-0.04297zm13.41 0c-1.588 0-2.879 1.291-2.879 2.879v2.467c0 1.588 1.291 2.879 2.879 2.879h0.04102c1.588 0 2.881-1.291 2.881-2.879v-2.467c0-1.588-1.293-2.879-2.881-2.879h-0.04102zm-19.01 0.0039c-0.2447-0.0233-0.4923 0.0605-0.6719 0.2402l-2.123 2.123c-0.3272 0.3272-0.3272 0.8584 0 1.186 0.3272 0.3272 0.8584 0.3272 1.186 0l0.6934-0.6934v4.527l-2e-3 2e-3c0 0.4628 0.3751 0.8379 0.8379 0.8379 0.4628 0 0.8379-0.3751 0.8379-0.8379v-6.551c0-0.339-0.2025-0.6457-0.5156-0.7754-0.07823-0.0324-0.1606-0.05083-0.2422-0.05859zm13.35 0c-0.2447-0.0233-0.4923 0.0605-0.6719 0.2402l-2.123 2.123c-0.3272 0.3272-0.3272 0.8584 0 1.186 0.3272 0.3272 0.8584 0.3272 1.186 0l0.6934-0.6934v4.527c0 0.4628 0.3751 0.8379 0.8379 0.8379 0.4628 0 0.8379-0.3751 0.8379-0.8379v-6.551c0-0.3385-0.2044-0.6437-0.5176-0.7734-0.07824-0.0324-0.1606-0.05083-0.2422-0.05859zm-7.742 1.672h0.04297c0.6639 0 1.203 0.5393 1.203 1.203v2.467c0 0.6639-0.5393 1.203-1.203 1.203h-0.04297c-0.6639 0-1.203-0.5393-1.203-1.203v-2.467c0-0.6639 0.5393-1.203 1.203-1.203zm13.41 0h0.04102c0.6639 0 1.205 0.5393 1.205 1.203v2.467c0 0.6639-0.5412 1.203-1.205 1.203h-0.04102c-0.6639 0-1.203-0.5393-1.203-1.203v-2.467c0-0.6639 0.5393-1.203 1.203-1.203zm-17.32 8.637c-1.588 0-2.881 1.291-2.881 2.879v2.467c0 1.588 1.293 2.879 2.881 2.879h0.04102c1.588 0 2.879-1.291 2.879-2.879v-2.467c1.1e-5 -1.588-1.291-2.879-2.879-2.879h-0.04102zm8.016 2e-3c-0.2447-0.0233-0.4923 0.06245-0.6719 0.2422l-2.123 2.123c-0.3272 0.3272-0.3272 0.8584 0 1.186 0.3272 0.3272 0.8584 0.3272 1.186 0l0.6934-0.6934v2.48c0 0.4628 0.3751 0.8379 0.8379 0.8379 0.4628 0 0.8379-0.3751 0.8379-0.8379v-4.502c0-0.339-0.2044-0.6457-0.5176-0.7754-0.07824-0.0324-0.1606-0.05278-0.2422-0.06055zm-8.016 1.674h0.04102c0.6639 0 1.203 0.5393 1.203 1.203v2.467c0 0.6639-0.5393 1.203-1.203 1.203h-0.04102c-0.6639 0-1.203-0.5393-1.203-1.203v-2.467c0-0.6639 0.5393-1.203 1.203-1.203z" fill="url(#b)"/></g></g></svg>
