<svg version="1.1" viewBox="0 0 48 48" xmlns="http://www.w3.org/2000/svg" xmlns:xlink="http://www.w3.org/1999/xlink"><defs><linearGradient id="a" x1="409.4" x2="408.5" y1="545.8" y2="500" gradientTransform="matrix(.1384 0 0 .1384 2.384 -35.94)" gradientUnits="userSpaceOnUse"><stop stop-color="#0a80fd" offset="0"/><stop stop-color="#56c5fa" offset="1"/></linearGradient><linearGradient id="b" x1="24" x2="24" y1="48.2" y2=".2068" gradientUnits="userSpaceOnUse"><stop stop-color="#dce2ff" offset="0"/><stop stop-color="#f8feff" offset="1"/></linearGradient></defs><g transform="matrix(1.043 0 0 1.044 -402.3 -522.8)"><rect x="386.6" y="501.8" width="44" height="44" rx="22" fill="url(#a)" stroke-width="1.15"/><path transform="matrix(.9583 0 0 .958 385.6 500.8)" d="m23.96 0c-3.254 0-6.348 0.645-9.318 1.92-5.9 2.532-10.22 6.826-12.76 12.74-1.27 2.962-1.887 6.06-1.887 9.314 0 3.256 0.616 6.383 1.887 9.346 2.535 5.912 6.857 10.23 12.76 12.76 2.971 1.275 6.06 1.92 9.318 1.92 3.254 0 6.369-0.652 9.342-1.92 5.949-2.539 10.25-6.86 12.78-12.76 1.274-2.972 1.918-6.09 1.918-9.346 0-3.255-0.643-6.342-1.918-9.314-2.531-5.903-6.83-10.2-12.78-12.74-2.973-1.269-6.087-1.92-9.342-1.92m-0.494 9.799c1.128 0 2.053 0.924 2.053 2.053v14.06l7.969 6.232c0.923 0.684 1.061 1.984 0.377 2.873-0.376 0.513-0.994 0.783-1.609 0.783-0.444 0-0.886-0.17-1.262-0.443l-8.787-6.84c-0.479-0.376-0.791-0.961-0.791-1.611v-15.05c0-1.129 0.922-2.053 2.051-2.053" fill="url(#b)" opacity=".99"/></g></svg>
