<svg viewBox="0 0 48 48" xmlns="http://www.w3.org/2000/svg"><defs><linearGradient id="a" x1="400.5" x2="400.7" y1="546.1" y2="517.8" gradientUnits="userSpaceOnUse"><stop stop-color="#ff9300" offset="0"/><stop stop-color="#ffd702" offset="1"/></linearGradient></defs><g transform="matrix(1.043 0 0 1.043 -402.3 -522.6)"><g transform="matrix(1.643 0 0 1.643 -249.5 -349.9)"><circle cx="400.6" cy="531.8" r="14" fill="url(#a)"/><circle cx="400.6" cy="531.8" r="14" fill="#5ea5fb" fill-opacity="0"/></g><path d="m421.84 520.67c-.307 0-.597-.063-.87-.163l-4.02 6.294c.558.528.91 1.27.91 2.098 0 1.598-1.296 2.893-2.894 2.893-1.598 0-2.893-1.295-2.893-2.893 0-.443.107-.858.285-1.234l-5.278-3.857c-.411.351-.937.57-1.519.57-.643 0-1.226-.26-1.65-.678l-5.398 3.376c.276.481.436 1.038.436 1.632 0 1.818-1.473 3.291-3.29 3.291-1.817 0-3.29-1.473-3.29-3.291 0-1.818 1.473-3.291 3.29-3.291.827 0 1.582.308 2.16.813l5.523-3.456c-.079-.236-.132-.485-.132-.748 0-1.298 1.052-2.351 2.35-2.351 1.299 0 2.351 1.053 2.351 2.351 0 .323-.066.631-.185.912l5.269 3.85c.517-.482 1.205-.783 1.968-.783.379 0 .738.078 1.07.21l4.01-6.285c-.46-.458-.744-1.092-.744-1.792 0-1.399 1.133-2.532 2.532-2.532 1.398 0 2.532 1.133 2.532 2.532 0 1.399-1.133 2.531-2.531 2.531z" fill="#342600" stroke="#342600"/></g></svg>
