<svg viewBox="0 0 48 48" xmlns="http://www.w3.org/2000/svg"><defs><linearGradient id="a" x2="0" y1="542.8" y2="507.8" gradientTransform="matrix(1.091 0 0 1.065 -374.5 -507.4)" gradientUnits="userSpaceOnUse"><stop stop-color="#00a661" offset="0"/><stop stop-color="#37ce97" offset="1"/></linearGradient></defs><g transform="translate(-47.19-27.661)"><rect x="47.19" y="33.55" width="48" height="36.22" rx="1.704" fill="url(#a)"/><path d="m64.85 40.7a1.727 1.722 0 0 0-1.729 1.723 1.727 1.722 0 0 0 1.729 1.721 1.727 1.722 0 0 0 1.727-1.721 1.727 1.722 0 0 0-1.727-1.723m9.785 0-3.273 3.264 5.04 5.02-5.217 5.918 3.453 3.01 8.06-9.184-8.06-8.04m-12.09 8.035a2.878 2.87 0 0 0-2.879 2.869 2.878 2.87 0 0 0 2.879 2.869 2.878 2.87 0 0 0 2.877-2.869 2.878 2.87 0 0 0-2.877-2.869m5.18 8.035a3.454 3.443 0 0 0-3.453 3.443 3.454 3.443 0 0 0 3.453 3.443 3.454 3.443 0 0 0 3.455-3.443 3.454 3.443 0 0 0-3.455-3.443" fill="#fff" fill-opacity=".847"/></g></svg>
