<svg viewBox="0 0 48 48" xmlns="http://www.w3.org/2000/svg" xmlns:xlink="http://www.w3.org/1999/xlink"><defs><linearGradient id="c" x2="0" y1="92.41" y2="52.41" gradientUnits="userSpaceOnUse"><stop stop-color="#eee" offset="0"/><stop stop-color="#fff" offset="1"/></linearGradient><linearGradient id="b" x2="0" y1="96.65" y2="47.85" gradientUnits="userSpaceOnUse" xlink:href="#a"/><linearGradient id="a"><stop stop-color="#e02d2d" offset="0"/><stop stop-color="#f75151" offset="1"/></linearGradient><linearGradient id="e" x1="73.96" x2="74.28" y1="80.1" y2="61.87" gradientUnits="userSpaceOnUse"><stop stop-color="#f4f4f4" offset="0"/><stop stop-color="#fefefe" offset="1"/></linearGradient><linearGradient id="f" x2="0" y1="84.41" y2="60.41" gradientUnits="userSpaceOnUse"><stop stop-color="#0a80fd" offset="0"/><stop stop-color="#56c5fa" offset="1"/></linearGradient><linearGradient id="d" x2="0" y1="88.41" y2="56.41" gradientUnits="userSpaceOnUse" xlink:href="#a"/></defs><g transform="translate(-50.44-48.41)"><circle cx="74.44" cy="72.41" r="24" fill="url(#b)"/><rect x="54.44" y="52.41" width="40" height="40" rx="20" fill="url(#c)"/><rect x="58.44" y="56.41" width="32" height="32" rx="16" fill="url(#d)"/><rect x="62.44" y="60.41" width="24" height="24" rx="12" fill="url(#f)"/><path d="m84.29 69.772c0-.292-.221-.473-.663-.544l-5.941-.864-2.663-5.385c-.15-.324-.343-.485-.58-.485-.237 0-.43.162-.58.485l-2.663 5.385-5.941.864c-.442.071-.663.252-.663.544 0 .166.099.355.296.568l4.308 4.19-1.018 5.918c-.016.111-.024.19-.024.237 0 .166.041.306.124.42.083.114.207.172.373.172.142 0 .3-.047.473-.142l5.314-2.793 5.314 2.793c.166.095.324.142.473.142.158 0 .278-.057.361-.172.083-.114.124-.255.124-.42 0-.103-.004-.181-.012-.237l-1.018-5.918 4.296-4.19c.205-.205.308-.395.308-.568" fill="url(#e)" stroke-width="1.317"/></g></svg>
