<svg version="1.1" viewBox="0 0 48 48" xmlns="http://www.w3.org/2000/svg" xmlns:xlink="http://www.w3.org/1999/xlink"><defs><linearGradient id="c" x1="216.2" x2="215.6" y1="323.4" y2="299.3" gradientUnits="userSpaceOnUse" xlink:href="#a"/><linearGradient id="d" x1="224.4" x2="226.2" y1="304.6" y2="300.3" gradientUnits="userSpaceOnUse" xlink:href="#a"/><linearGradient id="f" x1="216.2" x2="215.6" y1="323.4" y2="299.3" gradientUnits="userSpaceOnUse"><stop stop-color="#2e3e46" offset="0"/><stop stop-color="#435a64" offset="1"/></linearGradient><linearGradient id="e" x1="207.8" x2="205.6" y1="305.2" y2="300.1" gradientUnits="userSpaceOnUse" xlink:href="#a"/><linearGradient id="a" x2="0" y1="7.758" y2="-19.54" gradientUnits="userSpaceOnUse"><stop stop-color="#dce2ff" offset="0"/><stop stop-color="#f8feff" offset="1"/></linearGradient><linearGradient id="b" x1="463.4" x2="462" y1="547.4" y2="506.2" gradientTransform="matrix(.1384 0 0 .1384 -6.158 -41.64)" gradientUnits="userSpaceOnUse"><stop stop-color="#0a80fd" offset="0"/><stop stop-color="#56c5fa" offset="1"/></linearGradient></defs><g transform="matrix(.9363 0 0 .9368 -410.4 -466.1)"><g transform="matrix(1.917 0 0 1.916 49.75 -73.71)"><path d="m216 302c-6.06 0-11 4.935-11 11 0 6.06 4.935 11 11 11 6.06 0 11-4.935 11-11 0-6.06-4.935-11-11-11" fill="url(#c)"/><path d="m204.3 306.5-1.244-1.462c-0.537-0.642-0.452-1.606 0.191-2.145l4.196-3.585c0.642-0.536 1.675-0.41 2.214 0.233l1.462 1.719c-2.745 1.08-5.05 3.039-6.571 5.53z" fill="url(#e)"/><path d="m229.1 305-1.562 1.867c-1.502-2.503-3.797-4.477-6.535-5.574l1.45-1.732c0.532-0.646 1.564-0.782 2.21-0.25l4.229 3.546c0.646 0.533 0.739 1.497 0.208 2.143" fill="url(#d)"/></g><path d="m463.9 513.3c0.868 0 1.579 0.711 1.579 1.578v10.81l6.129 4.792c0.71 0.526 0.817 1.525 0.291 2.209-0.289 0.395-0.765 0.602-1.238 0.602-0.342 0-0.682-0.13-0.971-0.341l-6.759-5.259c-0.368-0.289-0.608-0.74-0.608-1.239v-11.57c0-0.868 0.71-1.578 1.578-1.578" fill="url(#b)" opacity=".99"/></g></svg>
