<svg version="1.1" viewBox="0 0 48 48" xmlns="http://www.w3.org/2000/svg" xmlns:xlink="http://www.w3.org/1999/xlink"><defs><linearGradient id="c" x1="270.8" x2="262.1" y1="552.3" y2="103.7" gradientUnits="userSpaceOnUse" xlink:href="#a"/><linearGradient id="d" x1="286.7" x2="289.1" y1="65.24" y2="7.289" gradientUnits="userSpaceOnUse" xlink:href="#a"/><linearGradient id="e" x1="428" x2="444.7" y1="130.7" y2="68.42" gradientUnits="userSpaceOnUse" xlink:href="#a"/><linearGradient id="a" x2="0" y1="7.758" y2="-19.54" gradientUnits="userSpaceOnUse"><stop stop-color="#dce2ff" offset="0"/><stop stop-color="#f8feff" offset="1"/></linearGradient><linearGradient id="f" x1="415.1" x2="415" y1="535.5" y2="509.4" gradientUnits="userSpaceOnUse"><stop stop-color="#2e5d89" offset="0"/><stop stop-color="#1b92f4" offset="1"/></linearGradient><linearGradient id="b" x1="-3.046" x2="-17" y1="-45.85" y2="-26.85" gradientTransform="translate(.4773 .3784)" gradientUnits="userSpaceOnUse"><stop stop-color="#0a80fd" offset="0"/><stop stop-color="#56c5fa" offset="1"/></linearGradient></defs><path transform="matrix(-.7845 .6202 -.623 -.7822 0 0)" d="m5.528-36.28a13.01 12.56 0 0 1-8.766 11.87 13.01 12.56 0 0 1-14.49-4.125 13.01 12.56 0 0 1-0.6878-14.56 13.01 12.56 0 0 1 14.04-5.38" fill="url(#b)"/><g transform="matrix(1.043 0 0 1.043 -402.3 -522.6)"><g transform="matrix(.0811 0 0 .0811 385.6 500.8)"><path d="m465 141.3s8.996 9.05 15.35 0.017l12.1-17.35c4.225-6.103-1.231-10.33-1.796-10.74l-73.41-51.29h-0.017c-4.52-3.145-7.521-1.236-9.1 0.533l-1.311 1.891-11.18 16.01c-0.053 0.061-6.315 9.937 3.695 15.16v0.013c14.3 7.03 40.53 21.87 65.66 45.81l0.018-0.051" fill="url(#e)"/><path d="m341.4 0h-115.7c-8.978 0-16.33 7.213-16.33 16.34v13.48c0 9.112 7.356 16.47 16.33 16.47h5.725v9.521c9e-3 13.69 8.648 14.82 12.98 14.53 0.737-0.109 1.501-0.226 2.308-0.33 9e-3 0 0.122-0.026 0.122-0.026h-9e-3c15.4-2.108 40.9-4.125 70.15-0.403l0.017-0.026s18.74 3.474 18.69-13.76v-9.52h5.725c8.987 0 16.32-7.348 16.32-16.47v-13.47c-1e-4 -9.117-7.357-16.34-16.34-16.34" fill="url(#d)"/><path d="m298.9 329c-13.99 0.018-15.18-9.715-15.25-12.52v-164.7c0.408-5.729 3.383-16.52 19.97-13.73 0.329 0.047 0.642 0.082 0.988 0.121 1.059 0.182 2.064 0.326 2.846 0.386 48.32 6.788 154.3 38.21 167.6 180.7-0.373 3.965-2.619 9.741-12.54 9.794-85.29-0.235-139.2-0.123-163.6-0.036m-15.25-238.1c-131.5 0-238.2 106.6-238.2 238.2 0 131.5 106.6 238.2 238.2 238.2s238.2-106.6 238.2-238.2c0-131.6-106.6-238.2-238.2-238.2" fill="url(#c)"/></g></g></svg>
