<svg version="1.1" viewBox="0 0 48 48" xmlns="http://www.w3.org/2000/svg" xmlns:xlink="http://www.w3.org/1999/xlink"><defs><linearGradient id="a" x1="55.05" x2="54.65" y1="57.62" y2="36.75" gradientUnits="userSpaceOnUse"><stop stop-color="#0a80fd" offset="0"/><stop stop-color="#56c5fa" offset="1"/></linearGradient><linearGradient id="c" x1="57.15" x2="55.93" y1="66.11" y2="29.7" gradientUnits="userSpaceOnUse"><stop stop-color="#dce2ff" offset="0"/><stop stop-color="#f8feff" offset="1"/></linearGradient><linearGradient id="b" x1="25.5" x2="25.95" y1="32.94" y2="8.74" gradientUnits="userSpaceOnUse" xlink:href="#a"/></defs><g transform="translate(-30.92 -23.19)"><rect x="30.92" y="29.08" width="48" height="36.22" rx="1.704" fill="url(#c)"/><g fill="url(#a)"><path transform="translate(30.92 23.19)" d="m3.955 16.1c-0.473 0-0.7472 0.2755-0.8242 0.8145v0.7598c0 0.462 0.319 0.7574 0.957 0.9004 0.539 0 0.8145 0.4624 0.8145 1.398v11.09c0 0.473 0.2755 0.7492 0.8145 0.8262h0.7793c0.473 0 0.7492-0.2755 0.8262-0.8145v-14.15c0-0.473-0.2755-0.7472-0.8145-0.8242h-2.553zm5.27 0c-0.462 0-0.7257 0.2755-0.8027 0.8145v5.723c0 0.473 0.2973 0.7584 0.9023 0.8574 0.363 0.099 0.6048 0.2631 0.7148 0.4941 0.11 0.814 0.4283 1.223 0.9453 1.223h4.799c0.539 0.011 0.8145 0.05386 0.8145 0.1309 0.451 0 0.6699 0.4505 0.6699 1.354v1.311c-0.022 0.539-0.06486 0.8027-0.1309 0.8027 0 0.451-0.4525 0.6816-1.355 0.6816h-6.559c-0.462 0-0.7257 0.2755-0.8027 0.8145v0.7598c0 0.473 0.2637 0.7472 0.8027 0.8242h7.857c0.473 0 0.7584-0.2973 0.8574-0.9023 0.099-0.363 0.2651-0.6048 0.4961-0.7148 0.803-0.121 1.209-0.44 1.209-0.957v-3.918c0-0.473-0.2973-0.7584-0.9023-0.8574-0.363-0.099-0.6048-0.2631-0.7148-0.4941-0.11-0.814-0.4283-1.223-0.9453-1.223h-4.799c-0.539-0.011-0.8125-0.05386-0.8125-0.1309-0.451 0-0.6719-0.4505-0.6719-1.354v-1.355c0.022-0.539 0.06681-0.8027 0.1328-0.8027 0-0.451 0.4505-0.6816 1.354-0.6816h6.559c0.462 0 0.7257-0.2755 0.8027-0.8145v-0.7578c0-0.473-0.2637-0.7492-0.8027-0.8262h-9.617zm19.95 0c-0.4717 8.2e-4 -0.7473 0.2763-0.8242 0.8145v0.7598c0 0.462 0.319 0.7574 0.957 0.9004 0.539 0 0.8145 0.4624 0.8145 1.398v11.09c0 0.473 0.2755 0.7492 0.8145 0.8262h0.7812c0.473 0 0.7472-0.2755 0.8242-0.8145v-14.15c0-0.473-0.2755-0.7472-0.8145-0.8242h-2.551-0.001953zm5.271 0c-0.462 0-0.7257 0.2755-0.8027 0.8145v0.7598c0 0.473 0.2637 0.7472 0.8027 0.8242h6.559c0.539 0.022 0.8145 0.06681 0.8145 0.1328 0.451 0 0.6699 0.4505 0.6699 1.354v1.354c-0.022 0.539-0.06486 0.8145-0.1309 0.8145 0 0.451-0.4505 0.6699-1.354 0.6699h-4.799c-0.473 0-0.7584 0.2973-0.8574 0.9023-0.099 0.374-0.2651 0.6166-0.4961 0.7266-0.803 0.11-1.209 0.4283-1.209 0.9453v3.918c0 0.484 0.2973 0.7714 0.9023 0.8594 0.363 0.099 0.6048 0.2631 0.7148 0.4941 0.11 0.814 0.4283 1.221 0.9453 1.221h7.857c0.462 0 0.7257-0.2755 0.8027-0.8145v-0.7578c0-0.473-0.2637-0.7492-0.8027-0.8262h-6.559c-0.539-0.022-0.8145-0.06486-0.8145-0.1309-0.451 0-0.6719-0.4505-0.6719-1.354v-1.311c0.022-0.539 0.06681-0.8145 0.1328-0.8145 0-0.451 0.4505-0.6699 1.354-0.6699h4.799c0.473 0 0.7584-0.2973 0.8574-0.9023 0.099-0.374 0.2631-0.6166 0.4941-0.7266 0.803-0.11 1.211-0.4283 1.211-0.9453v-3.963c0-0.484-0.2973-0.7694-0.9023-0.8574-0.363-0.099-0.6048-0.2651-0.7148-0.4961-0.11-0.814-0.4283-1.221-0.9453-1.221h-7.857zm-11.06 4.133v2.795h2.322v-2.795h-2.322zm0 8.857v2.795h2.322v-2.795h-2.322z" fill="url(#b)"/></g></g></svg>
