<svg viewBox="0 0 48 48" xmlns="http://www.w3.org/2000/svg"><defs><linearGradient id="a" x2="0" y1="43.21" y2="-3.077" gradientUnits="userSpaceOnUse"><stop stop-color="#197cf1" offset="0"/><stop stop-color="#20bcfa" offset="1"/></linearGradient></defs><g transform="translate(22.78 3.661)"><circle cx="1.22" cy="20.34" r="24" fill="url(#a)"/><path d="m4.548 23.257c-.151-.049-1.103-.478-.508-2.287h-.008c1.551-1.597 2.736-4.168 2.736-6.699 0-3.891-2.588-5.931-5.595-5.931-3.01 0-5.583 2.039-5.583 5.931 0 2.541 1.179 5.122 2.739 6.716.608 1.596-.479 2.188-.707 2.27-2.12.686-7.888 4.104-7.797 9.08h22.788c.102-4.756-4.461-7.844-8.07-9.08" fill="#fff" fill-opacity=".847"/></g></svg>
