<svg viewBox="0 0 48 48" xmlns="http://www.w3.org/2000/svg" xmlns:xlink="http://www.w3.org/1999/xlink"><defs><linearGradient id="d" x1="350.5" x2="347.9" y1="536.4" y2="510.5" gradientUnits="userSpaceOnUse"><stop stop-color="#ffbc00" offset="0"/><stop stop-color="#ffec00" offset="1"/></linearGradient><linearGradient id="g" x2="0" y1="539.4" y2="529.4" gradientUnits="userSpaceOnUse" xlink:href="#b"/><linearGradient id="e" x1="350.5" x2="347.9" y1="557.8" y2="531.9" gradientUnits="userSpaceOnUse"><stop stop-color="#eb4646" offset="0"/><stop stop-color="#ff8651" offset="1"/></linearGradient><linearGradient id="f" x1="360.9" x2="358.9" y1="544.4" y2="523.7" gradientUnits="userSpaceOnUse"><stop stop-color="#dce2ff" offset="0"/><stop stop-color="#f8feff" offset="1"/></linearGradient><linearGradient id="h" x1="372.6" x2="370" y1="536.4" y2="510.5" gradientUnits="userSpaceOnUse"><stop stop-color="#4fd127" offset="0"/><stop stop-color="#c6f61a" offset="1"/></linearGradient><linearGradient id="b"><stop stop-color="#161719" offset="0"/><stop stop-color="#424649" offset="1"/></linearGradient><linearGradient id="i" x1="372.6" x2="370" y1="557.8" y2="531.9" gradientUnits="userSpaceOnUse"><stop stop-color="#0976da" offset="0"/><stop stop-color="#5de5f0" offset="1"/></linearGradient><linearGradient id="a" x1="-53.41" x2="40.66" gradientUnits="userSpaceOnUse" xlink:href="#b"/></defs><g transform="matrix(-.50493.09399-.09399-.50493 5.839-42.38)"><flowRoot font-family="sans-serif" font-size="12.5" letter-spacing="0" word-spacing="0" line-height="125%"><flowRegion stroke="url(#a)"><path id="c" d="m-427.8-178.1h100.2v116.8h-100.2z" stroke="none"/></flowRegion><flowPara/></flowRoot><g transform="translate(-.084.359)"><flowRoot font-family="sans-serif" font-size="12.5" letter-spacing="0" word-spacing="0" line-height="125%"><flowRegion stroke="url(#a)"><use xlink:href="#c"/></flowRegion><flowPara/></flowRoot><g transform="matrix(-1.914 -.3563 .3563 -1.914 485.1 1016)"><circle cx="347.5" cy="523.1" r="12.95" fill="url(#d)"/><circle cx="369.6" cy="523.1" r="12.95" fill="url(#h)"/><circle cx="347.5" cy="544.5" r="12.95" fill="url(#e)"/><circle cx="369.6" cy="544.5" r="12.95" fill="url(#i)"/><circle cx="358.6" cy="533.8" r="10.36" fill="url(#f)"/><path d="m358.31 527.65l-3.458 6.03c-.727 1.275-.783 2.896 0 4.261 1.177 2.052 3.794 2.762 5.847 1.585 2.052-1.177 2.762-3.794 1.585-5.847l-3.458-6.03c-.114-.199-.402-.199-.516 0" fill="url(#g)"/></g></g></g></svg>
