<svg viewBox="0 0 48 48" xmlns="http://www.w3.org/2000/svg"><defs><linearGradient id="b" x2="0" y1="544.2" y2="543.1" gradientTransform="matrix(.5054 0 0 1 229.2 2.167)" gradientUnits="userSpaceOnUse"><stop stop-color="#197cf1" offset="0"/><stop stop-color="#20bcfa" offset="1"/></linearGradient><linearGradient id="c" x1="449.4" x2="449.6" y1="540.8" y2="518.4" gradientUnits="userSpaceOnUse"><stop stop-color="#bbbec4" offset="0"/><stop stop-color="#dddfe2" offset="1"/></linearGradient><linearGradient id="d" x1="10.09" x2="122.7" gradientTransform="matrix(.2484 0 0 .2443 433.4 517.2)" gradientUnits="userSpaceOnUse"><stop stop-color="#1a1a1a" offset="0"/><stop stop-color="#2c2c2e" offset=".111"/><stop stop-color="#2b2b2d" offset=".29"/><stop stop-color="#2a2b2d" offset=".512"/><stop stop-color="#2b2b2d" offset=".752"/><stop stop-color="#323232" offset=".897"/><stop stop-color="#171717" offset="1"/></linearGradient><linearGradient id="a" x2="0" y1="547" y2="544.8" gradientUnits="userSpaceOnUse"><stop stop-color="#040404" offset="0"/><stop stop-color="#121212" stop-opacity=".908" offset="1"/></linearGradient></defs><g transform="matrix(1.667 0 0 1.667 -737 -866.1)"><path transform="translate(6.68 2.113)" d="m435.89 541.07l.248 3.915c0 .406.332.733.745.733h25.99c.413 0 .745-.327.745-.733l.248-3.915h-27.978" fill="url(#d)"/><path transform="translate(6.68 2.113)" d="m438.13 518.12h23.26c.413 0 .745.327.745.733l1.739 22.1c0 .406-.332.733-.745.733h-26.489c-.413 0-.745-.327-.745-.733l1.49-22.1c0-.406.332-.733.745-.733" fill="url(#c)"/><path transform="translate(6.68 2.113)" d="m447.1 522.9a0.9288 0.8039 0 0 0-0.9288 0.8039 0.9288 0.8039 0 0 0 0.9288 0.8038 0.9288 0.8039 0 0 0 0.9288-0.8038 0.9288 0.8039 0 0 0-0.9288-0.8039zm4.644 0-1.858 1.608 3.715 3.215-3.715 3.215 1.858 1.608 5.573-4.823-5.573-4.823zm-7.431 4.823a1.858 1.608 0 0 0-1.858 1.608 1.858 1.608 0 0 0 1.858 1.608 1.858 1.608 0 0 0 1.858-1.608 1.858 1.608 0 0 0-1.858-1.608zm3.715 4.823a1.858 1.608 0 0 0-1.858 1.608 1.858 1.608 0 0 0 1.858 1.608 1.858 1.608 0 0 0 1.858-1.608 1.858 1.608 0 0 0-1.858-1.608z" fill="#a1a7ae" stroke="#909296" stroke-width=".053"/><rect x="450.9" y="545.6" width="11.46" height=".769" rx=".384" fill="url(#b)"/><ellipse cx="467.1" cy="546" rx="1.061" ry="1.061" fill="url(#a)" opacity=".452"/><g transform="matrix(.00848 0 0 .00848 466.6 545.4)" fill="#e3e8ea" opacity=".668"><path d="m63 73.22c2.824 0 5.27-1.031 7.332-3.096 2.064-2.063 3.098-4.508 3.098-7.332v-52.14c0-2.825-1.033-5.269-3.098-7.332-2.062-2.065-4.507-3.097-7.332-3.097s-5.269 1.033-7.333 3.097c-2.064 2.063-3.096 4.508-3.096 7.332v52.14c0 2.824 1.032 5.269 3.096 7.332 2.064 2.065 4.509 3.096 7.333 3.096"/><path d="m119 45.27c-4.373-8.744-10.52-16.08-18.45-22-2.281-1.738-4.861-2.417-7.74-2.037s-5.16 1.738-6.844 4.073c-1.738 2.281-2.403 4.847-1.996 7.699 0.406 2.853 1.752 5.147 4.03 6.885 5.321 4.02 9.438 8.935 12.34 14.75 2.906 5.811 4.358 12 4.358 18.58 0 5.65-1.1 11.04-3.299 16.17-2.2 5.133-5.174 9.573-8.922 13.32-3.748 3.747-8.187 6.721-13.32 8.921s-10.52 3.301-16.17 3.301c-5.648 0-11.04-1.101-16.17-3.301-5.133-2.2-9.573-5.174-13.32-8.921-3.747-3.748-6.721-8.188-8.921-13.32s-3.3-10.52-3.3-16.17c0-6.571 1.453-12.76 4.359-18.58 2.906-5.811 7.02-10.73 12.34-14.75 2.281-1.739 3.625-4.03 4.03-6.885 0.407-2.851-0.258-5.418-1.996-7.699-1.684-2.335-3.951-3.693-6.803-4.073s-5.446 0.299-7.781 2.037c-7.931 5.92-14.08 13.25-18.45 22-4.373 8.745-6.559 18.06-6.559 27.94 0 8.474 1.657 16.57 4.97 24.28 3.314 7.713 7.767 14.37 13.36 19.96 5.594 5.594 12.25 10.05 19.96 13.36 7.713 3.314 15.81 4.972 24.28 4.972s16.57-1.658 24.28-4.972c7.713-3.312 14.37-7.766 19.96-13.36s10.05-12.25 13.36-19.96c3.313-7.713 4.969-15.81 4.969-24.28 0-9.885-2.183-19.2-6.556-27.94"/></g></g></svg>
