<svg viewBox="0 0 16 16" xmlns="http://www.w3.org/2000/svg"><path transform="translate(-.002.003)" d="m8 2a6 6 0 0 0-6 6 6 6 0 0 0 6 6 6 6 0 0 0 6-6 6 6 0 0 0-6-6m-4e-3 2.625c0.573 0 1.034 0.165 1.397 0.494 0.359 0.323 0.539 0.738 0.539 1.244 0 0.22-0.06 0.443-0.18 0.667-0.12 0.227-0.226 0.388-0.32 0.486-0.089 0.091-0.216 0.209-0.382 0.355l-0.04 0.047c-0.388 0.335-0.58 0.67-0.58 1.006v0.365h-0.889v-0.43c0-0.274 0.06-0.508 0.18-0.703 0.119-0.201 0.329-0.437 0.633-0.705 0.17-0.152 0.29-0.265 0.359-0.338 0.075-0.083 0.147-0.186 0.217-0.32 0.08-0.14 0.11-0.283 0.11-0.43 0-0.28-0.091-0.507-0.28-0.677-0.183-0.171-0.436-0.256-0.764-0.256-0.541 0-0.914 0.293-1.115 0.879l-0.813-0.33c0.133-0.348 0.359-0.66 0.68-0.939 0.332-0.276 0.744-0.415 1.248-0.415m-0.01 5.506c0.183 0 0.334 0.062 0.453 0.183 0.126 0.122 0.19 0.269 0.19 0.44s-0.064 0.316-0.19 0.437c-0.119 0.122-0.27 0.184-0.453 0.184-0.182 0-0.337-0.062-0.463-0.184-0.119-0.121-0.179-0.266-0.179-0.437s0.06-0.318 0.179-0.44c0.126-0.121 0.281-0.183 0.463-0.183" fill="#fff" fill-rule="evenodd"/></svg>
