<svg viewBox="0 0 16 16" xmlns="http://www.w3.org/2000/svg"><defs><linearGradient id="a" x1="-701.2" x2="-704" y1="647.8" y2="354.3" gradientUnits="userSpaceOnUse"><stop stop-color="#7ba2fd" offset="0"/><stop stop-color="#aec7ff" offset="1"/></linearGradient></defs><g transform="matrix(.04235 0 0 .04193 12.36 -25.86)" stroke="#4f96d1"><g transform="matrix(.7872 0 0 .7952 415.3 430.1)" fill="#7fabfa"><path d="m-884.1 294.8c-4.626 0-8.349 3.718-8.349 8.335v161.4l468.2 1v-121.2c0-4.618-3.724-8.335-8.35-8.335h-272.6c-8.51 0.751-9.607-0.377-13.81-5.981-5.964-7.968-14.97-21.44-20.84-29.21-4.712-6.805-5.477-6.02-13.29-6.02z" stroke="none"/><rect x="-890.3" y="356.8" width="463.8" height="295.1" rx="9.63" stroke="url(#a)" stroke-width="2.378"/></g><rect transform="matrix(.7872 0 0 .7952 415.3 430.1)" x="-890.3" y="356.8" width="463.8" height="295.1" rx="9.63" fill="none" stroke="#7fabfa" stroke-linecap="round" stroke-linejoin="round" stroke-width="5.376"/></g></svg>
