<svg viewBox="0 0 16 16" xmlns="http://www.w3.org/2000/svg"><path transform="matrix(.007 0 0 .00693 6 1.238)" d="m31.72 324.5c-54.47 15.56-98.31 77.46-98.31 137.6v953.3c-55.23-30.84-126.2-43.3-199.7-22.93-132.7 36.76-215.8 155.6-187.4 265.3 28.44 109.8 159.2 171.1 291.9 134.3 105.9-29.33 178.8-112.3 190.5-199.8l3.072-900.9 688.2-196.6v710.9c-55.23-30.84-126.2-43.3-199.7-22.93-132.7 36.76-215.8 155.6-187.4 265.3 28.44 109.8 159.2 171.1 291.9 134.3 105.9-29.33 178.8-112.3 190.5-199.8l3.072-1173c0-45.09-26.14-78.83-61.45-85.17l-725.1 199.8" fill="#4d4d4d" stroke-opacity=".8"/></svg>
