<svg viewBox="0 0 16 16" xmlns="http://www.w3.org/2000/svg"><g transform="matrix(.04235 0 0 .04193 12.36 -25.86)"><g fill="#4d4d4d"><path transform="matrix(.7872 0 0 .7952 415.3 430.1)" d="m-884.1 294.8c-4.626 0-8.349 3.718-8.349 8.335v119.4l468.2 1v-79.2c0-4.618-3.724-8.335-8.35-8.335h-272.6c-8.51 0.751-9.607-0.377-13.81-5.981-5.964-7.968-14.97-21.44-20.84-29.21-4.712-6.805-5.477-6.02-13.29-6.02z"/><path transform="matrix(23.61 0 0 23.85 -291.8 616.8)" d="m.588 4.07c-.178 0-.32.142-.32.32v9.199c0 .178.142.32.32.32h14.824c.178 0 .32-.142.32-.32v-9.199c0-.178-.142-.32-.32-.32h-14.824m6.912 2.33h1v2h2v1h-2v2h-1v-2h-2v-1h2v-2"/></g><rect transform="matrix(.7872 0 0 .7952 415.3 430.1)" x="-890.3" y="356.8" width="463.8" height="295.1" rx="9.63" fill="none" stroke="#4d4d4d" stroke-linecap="round" stroke-linejoin="round" stroke-width="5.376"/></g></svg>
