<svg viewBox="0 0 16 16" xmlns="http://www.w3.org/2000/svg"><path transform="matrix(.03922 0 0 .03922 23.481-1.462)" d="m-394.8 88.29c-84.49 0-153 68.5-153 153s68.51 153 153 153 153-68.51 153-153-68.5-153-153-153m0 79.16c5.702 0 10.31 4.633 10.31 10.33v109.4l42.58-42.58c4.04-4.03 10.57-4.01 14.62 0.025 4.04 4.03 4.04 10.55 0 14.59l-58.42 58.45c-2.479 2.468-5.887 3.232-9.09 2.664-3.213 0.568-6.61-0.186-9.09-2.665l-58.42-58.45c-4.04-4.03-4.04-10.55 0-14.59 4.03-4.04 10.55-4.04 14.59 0l42.58 42.56v-109.4c0-5.702 4.633-10.33 10.33-10.33" fill="#4d4d4d"/></svg>
