<svg viewBox="0 0 16 16" xmlns="http://www.w3.org/2000/svg"><g transform="matrix(.5 0 0 .5-167.5-257.65)" fill="#4d4d4d" fill-rule="evenodd"><path d="m364 540.2c-3.974-3.795-11.97-10.05-18.05-8.134-3.398 1.072-5.04 4.17-1.173 4.239 7.898 0.142 11.77-0.416 19.22 3.895"/><path d="m342.2 536.2c1.285-5.337 4.619-14.92 10.77-16.59 3.438-0.934 6.503 0.782 3.284 2.932-6.565 4.385-10.12 6.01-14.06 13.66"/><path d="m345.5 543.3c-3.523-4.215-9.234-12.6-6.903-18.53 1.302-3.311 4.51-4.741 4.317-0.88-0.394 7.875-1.216 11.69 2.586 19.41"/></g></svg>
