<svg viewBox="0 0 16 16" xmlns="http://www.w3.org/2000/svg"><path transform="matrix(.7852 0 0 .7852 -309.6 -412.6)" d="m404.7 528.4q3.038 0 5.113 2.093t2.075 5.058q0 1.667-0.723 2.76-0.704 1.093-2.056 1.093-1.389 0-2.075-1.352-0.908 1.352-2.594 1.352-1.519 0-2.557-1.056-1.037-1.075-1.037-2.723 0-1.63 1.037-2.705t2.483-1.075q1.427 0 2.371 1.093h0.074v-0.834h1.334v4.835q0 0.482 0.259 0.871 0.278 0.389 0.834 0.389 1.315 0 1.315-2.649 0-2.445-1.704-4.131t-4.15-1.686q-2.445 0-4.15 1.686-1.704 1.686-1.704 4.131t1.704 4.131 4.15 1.686q1.315 0 2.353-0.519l0.519 1.26q-1.297 0.593-2.872 0.593-3.075 0-5.169-2.075-2.093-2.093-2.093-5.076 0-2.964 2.093-5.058 2.112-2.093 5.169-2.093m-1.723 8.948q0.667 0.648 1.593 0.648t1.575-0.648q0.667-0.648 0.667-1.723t-0.667-1.723q-0.648-0.648-1.575-0.648-0.926 0-1.593 0.648-0.648 0.648-0.648 1.723t0.648 1.723" fill="#4d4d4d" stroke-opacity=".8" stroke-width=".093"/></svg>
