<svg viewBox="0 0 16 16" xmlns="http://www.w3.org/2000/svg"><path transform="matrix(.0191 0 0 .0196 2.119 2.108)" d="m3.18 201.7 38.31 29.93-36.06 69.07c-18.03 31.85 12.94 62.88 32.68 73.68 19.43 10.63 49.58 11.9 77.75 11.51l50.7-82.89 38.31 20.72-66.48-123.2-135.2 1.15m5.633 169.1 82.25 152c16.53 21.11 47.7 26.09 80 25.33h86.76v-143.9l-164.5-1.151c-25.54 1.533-58.97-3.839-84.51-32.24m517.5-280-44.75 19-42.93-65.02c-19.12-31.21-61.27-19.16-80.28-7.141-18.72 11.84-34.44 37.59-47.76 62.42l47.91 84.53-36.7 23.46 140 1.576 64.54-118.8zm-150.6-77.05-172.8-1.732c-26.47 4.221-45.95 29.07-60.94 57.69l-42.06 75.88 125.9 69.77 80.76-143.3c11.04-23.08 31.94-49.71 69.16-58.28m7.516 586.4 5.082-48.35 77.69-6.02c36.56-1.59 46.47-44.3 45.17-66.76-1.277-22.11-16.18-48.35-31.44-72.03l-97.16 0.925-2.729-43.47-69.24 121.6 72.63 114.1m140.4-94.38 85.28-150.3c9.142-25.2-3.146-54.28-20.92-81.27l-45.98-73.58-122 76.26 86.2 140.1c14.84 20.84 27.99 52.04 17.45 88.75" fill="#ff584c" stroke-opacity=".8"/></svg>
