<svg viewBox="0 0 22 22" xmlns="http://www.w3.org/2000/svg"><defs><linearGradient id="a" x2="0" y1="544.3" y2="531.8" gradientUnits="userSpaceOnUse"><stop stop-color="#00abff" offset="0"/><stop stop-color="#fff" offset="1"/></linearGradient></defs><g transform="matrix(.6385 0 0 .6385 -244.8 -328.5)"><path d="m400.1 520.1-6.589 11.49c-1.385 2.43-1.492 5.519 0 8.12 2.242 3.911 7.23 5.263 11.14 3.02 3.911-2.242 5.263-7.23 3.02-11.14l-6.589-11.49c-0.218-0.38-0.765-0.38-0.983 0" fill="#4d4d4d"/><path d="m400.1 520.1-6.589 11.49c-1.385 2.43-1.492 5.519 0 8.12 2.242 3.911 7.23 5.263 11.14 3.02 3.911-2.242 5.263-7.23 3.02-11.14l-6.589-11.49c-0.218-0.38-0.765-0.38-0.983 0z" fill="url(#a)" stroke="#fff" stroke-width="1.08"/></g></svg>
