<svg viewBox="0 0 22 22" xmlns="http://www.w3.org/2000/svg"><path transform="translate(0 .048)" d="m4.6 3c-0.443 0-0.799 0.358-0.799 0.801v14.4c0 0.443 0.356 0.801 0.799 0.801h12.8c0.443 0 0.799-0.358 0.799-0.801v-14.4c0-0.443-0.356-0.801-0.799-0.801h-12.8m0.9023 9.066a0.9108 0.9108 0 0 1 0.9121 0.9102 0.9108 0.9108 0 0 1-0.9121 0.9121 0.9108 0.9108 0 0 1-0.9102-0.9121 0.9108 0.9108 0 0 1 0.9102-0.9102m2.215 0a0.9108 0.9108 0 0 1 0.9121 0.9121 0.9108 0.9108 0 0 1-0.9121 0.9102 0.9108 0.9108 0 0 1-0.9102-0.9102 0.9108 0.9108 0 0 1 0.9102-0.9121m2.232 0a0.9108 0.9108 0 0 1 0.9121 0.9121 0.9108 0.9108 0 0 1-0.9121 0.9102 0.9108 0.9108 0 0 1-0.9102-0.9102 0.9108 0.9108 0 0 1 0.9102-0.9121m2.209 0a0.9108 0.9108 0 0 1 0.9121 0.9121 0.9108 0.9108 0 0 1-0.9121 0.9102 0.9108 0.9108 0 0 1-0.9102-0.9102 0.9108 0.9108 0 0 1 0.9102-0.9121m2.174 0a0.9108 0.9108 0 0 1 0.9102 0.9121 0.9108 0.9108 0 0 1-0.9102 0.9102 0.9108 0.9108 0 0 1-0.9121-0.9102 0.9108 0.9108 0 0 1 0.9121-0.9121m2.166 0a0.9108 0.9108 0 0 1 0.9102 0.9121 0.9108 0.9108 0 0 1-0.9102 0.9102 0.9108 0.9108 0 0 1-0.9121-0.9102 0.9108 0.9108 0 0 1 0.9121-0.9121m-9.912 2.197a0.9108 0.9108 0 0 1 0.9102 0.9102 0.9108 0.9108 0 0 1-0.9102 0.9121 0.9108 0.9108 0 0 1-0.9102-0.9121 0.9108 0.9108 0 0 1 0.9102-0.9102m2.215 0a0.9108 0.9108 0 0 1 0.9102 0.9121 0.9108 0.9108 0 0 1-0.9102 0.9102 0.9108 0.9108 0 0 1-0.9121-0.9102 0.9108 0.9108 0 0 1 0.9121-0.9121m2.232 0a0.9108 0.9108 0 0 1 0.9102 0.9121 0.9108 0.9108 0 0 1-0.9102 0.9102 0.9108 0.9108 0 0 1-0.9102-0.9102 0.9108 0.9108 0 0 1 0.9102-0.9121m2.209 0a0.9108 0.9108 0 0 1 0.9102 0.9121 0.9108 0.9108 0 0 1-0.9102 0.9102 0.9108 0.9108 0 0 1-0.9121-0.9102 0.9108 0.9108 0 0 1 0.9121-0.9121m2.172 0a0.9108 0.9108 0 0 1 0.9102 0.9121 0.9108 0.9108 0 0 1-0.9102 0.9102 0.9108 0.9108 0 0 1-0.9102-0.9102 0.9108 0.9108 0 0 1 0.9102-0.9121m-9.912 2.178a0.9108 0.9108 0 0 1 0.9121 0.9121 0.9108 0.9108 0 0 1-0.9121 0.9102 0.9108 0.9108 0 0 1-0.9102-0.9102 0.9108 0.9108 0 0 1 0.9102-0.9121m2.215 0a0.9108 0.9108 0 0 1 0.9121 0.9121 0.9108 0.9108 0 0 1-0.9121 0.9102 0.9108 0.9108 0 0 1-0.9102-0.9102 0.9108 0.9108 0 0 1 0.9102-0.9121m2.232 0a0.9108 0.9108 0 0 1 0.9121 0.9121 0.9108 0.9108 0 0 1-0.9121 0.9102 0.9108 0.9108 0 0 1-0.9102-0.9102 0.9108 0.9108 0 0 1 0.9102-0.9121m2.209 0a0.9108 0.9108 0 0 1 0.9121 0.9121 0.9108 0.9108 0 0 1-0.9121 0.9102 0.9108 0.9108 0 0 1-0.9102-0.9102 0.9108 0.9108 0 0 1 0.9102-0.9121m2.174 0a0.9108 0.9108 0 0 1 0.9102 0.9121 0.9108 0.9108 0 0 1-0.9102 0.9102 0.9108 0.9108 0 0 1-0.9121-0.9102 0.9108 0.9108 0 0 1 0.9121-0.9121m2.166 0a0.9108 0.9108 0 0 1 0.9102 0.9121 0.9108 0.9108 0 0 1-0.9102 0.9102 0.9108 0.9108 0 0 1-0.9121-0.9102 0.9108 0.9108 0 0 1 0.9121-0.9121" fill="#fff" stroke-opacity=".55" stroke-width="2.8"/></svg>
