<svg viewBox="0 0 32 32" xmlns="http://www.w3.org/2000/svg"><path d="m16 4a12 12 0 0 0-12 12 12 12 0 0 0 12 12 12 12 0 0 0 12-12 12 12 0 0 0-12-12m-8e-3 6c0.987 0 1.789 0.294 2.406 0.879 0.622 0.574 0.926 1.311 0.926 2.211 0 0.39-0.102 0.786-0.304 1.187-0.21 0.401-0.395 0.688-0.557 0.863-0.152 0.161-0.373 0.371-0.65 0.631l-0.081 0.083c-0.662 0.596-0.992 1.196-0.992 1.789v0.65h-1.529v-0.764c0-0.489 0.103-0.905 0.309-1.252 0.205-0.357 0.57-0.777 1.089-1.257 0.293-0.268 0.501-0.468 0.62-0.598 0.13-0.141 0.253-0.332 0.373-0.568 0.13-0.25 0.195-0.504 0.195-0.764 0-0.499-0.163-0.9-0.488-1.203-0.315-0.304-0.753-0.455-1.317-0.455-0.932 0-1.573 0.52-1.922 1.56l-1.396-0.586c0.227-0.618 0.619-1.17 1.172-1.658 0.563-0.499 1.274-0.748 2.146-0.748m-0.015 9.789c0.314 0 0.573 0.107 0.779 0.321 0.217 0.22 0.324 0.481 0.324 0.785 0 0.305-0.107 0.562-0.324 0.779-0.206 0.217-0.465 0.326-0.779 0.326-0.315 0-0.581-0.109-0.797-0.326-0.206-0.217-0.311-0.474-0.311-0.779 0-0.304 0.105-0.565 0.311-0.785 0.216-0.214 0.482-0.321 0.797-0.321" fill="#fff" fill-rule="evenodd"/></svg>
