<svg viewBox="0 0 22 22" xmlns="http://www.w3.org/2000/svg"><g transform="matrix(-.7407 0 0 -.7407 306.9 405)" fill="#fff"><g fill-rule="evenodd"><rect x="400" y="523.1" width="13" height="2.2" rx=".686" stroke-width=".167"/><rect x="400" y="528.6" width="13" height="2.2" rx=".686"/><g stroke-width=".167"><rect x="400" y="533.6" width="13" height="2.2" rx=".686"/><rect x="386" y="538.6" width="27" height="2.2" rx=".668"/></g></g><path transform="matrix(1e-5 .02656 -.02656 1e-5 398.5 526.4)" d="m345.4 248.3-194.3 194.3c-12.36 12.36-32.4 12.36-44.75 0-12.35-12.35-12.35-32.39 0-44.74l171.9-171.9-171.9-171.9c-12.35-12.36-12.35-32.39 0-44.75 12.35-12.36 32.39-12.36 44.75 0l194.3 194.3c6.177 6.18 9.262 14.27 9.262 22.37 0 8.099-3.091 16.2-9.267 22.37"/></g></svg>
