<svg viewBox="0 0 22 22" xmlns="http://www.w3.org/2000/svg"><g transform="matrix(1.048 0 0 1.048 -409.8 -543)" fill="#fff"><path transform="translate(15.83 1.398)" d="m379.47 535.02q-1.072 0-1.801-.619-.715-.619-.715-1.636 0-1.1.853-1.719.853-.633 2.104-.633 1.114 0 1.829.413v-.192q0-.742-.509-1.183-.509-.454-1.251-.454-.55 0-1 .261-.44.261-.605.715l-1.155-.495q.234-.605.921-1.114.688-.523 1.815-.523 1.293 0 2.145.756.853.756.853 2.131v4.07h-1.21v-.935h-.055q-.756 1.155-2.214 1.155m.206-1.155q.784 0 1.416-.577.646-.591.646-1.389-.536-.44-1.609-.44-.921 0-1.389.399-.467.399-.467.935 0 .495.426.784.426.289.976.289"/><path transform="translate(15.72 -14.92)" d="m377 542.8v-1.1l3.836-4.482h-3.726v-1.155h5.28v1.1l-3.836 4.482h3.891v1.155h-5.445"/><path transform="matrix(-8e-5 .02213 .02213 8e-5 400.6 528.5)" d="m345.4 248.3-194.3 194.3c-12.36 12.36-32.4 12.36-44.75 0-12.35-12.35-12.35-32.39 0-44.74l171.9-171.9-171.9-171.9c-12.35-12.36-12.35-32.39 0-44.75 12.35-12.36 32.39-12.36 44.75 0l194.3 194.3c6.177 6.18 9.262 14.27 9.262 22.37 0 8.099-3.091 16.2-9.267 22.37"/></g></svg>
