<svg viewBox="0 0 24 24" xmlns="http://www.w3.org/2000/svg"><path transform="matrix(.3411 0 0 .3411 7.23 7.278)" d="m17.47 16.91c-0.159-0.052-1.164-0.505-0.536-2.414h-9e-3c1.637-1.686 2.888-4.399 2.888-7.07 0-4.107-2.731-6.26-5.905-6.26-3.176 0-5.892 2.152-5.892 6.26 0 2.682 1.244 5.406 2.891 7.088 0.642 1.684-0.506 2.309-0.746 2.396-2.238 0.724-8.325 4.332-8.229 9.586h24.05c0.107-5.02-4.708-8.279-8.513-9.586m19.94-3.079a23.46 23.46 0 0 1-23.46 23.46 23.46 23.46 0 0 1-23.46-23.46 23.46 23.46 0 0 1 23.46-23.46 23.46 23.46 0 0 1 23.46 23.46" fill="#4d4d4d"/></svg>
