<svg viewBox="0 0 22 22" xmlns="http://www.w3.org/2000/svg"><path transform="translate(0-.032)" d="m4.6 3c-.443 0-.799.358-.799.801v14.398c0 .443.356.801.799.801h12.801c.443 0 .799-.358.799-.801v-14.398c0-.443-.356-.801-.799-.801h-12.801m5.656 4.666h1.488c-.002.713 0 2.59 0 2.59h2.412v1.488h-2.412c0 0 .0001 1.874 0 2.59h-1.488c.0001-.716 0-2.59 0-2.59 0 0-1.613-.0001-2.412 0v-1.486c.799-.002 2.412-.002 2.412-.002 0 0-.0001-1.877 0-2.59" fill="#4d4d4d" stroke-opacity=".55" stroke-width="2.8"/></svg>
