<svg viewBox="0 0 22 22" xmlns="http://www.w3.org/2000/svg"><g transform="matrix(0 -1.208 1.208 0 -30.51 -5.272)" fill="#4d4d4d"><path transform="matrix(.00011.02931-.02931.00011-6.858 26.19)" d="m345.4 248.3-194.3 194.3c-12.36 12.36-32.4 12.36-44.75 0-12.35-12.35-12.35-32.39 0-44.74l171.9-171.9-171.9-171.9c-12.35-12.36-12.35-32.39 0-44.75 12.35-12.36 32.39-12.36 44.75 0l194.3 194.3c6.177 6.18 9.262 14.27 9.262 22.37 0 8.099-3.091 16.2-9.267 22.37"/><path d="m-18.812 38.473c-.158.193-.202.443-.118.668l.007.018c.116.31.444.517.815.515l9.401-.027c.271-.0001.528-.117.686-.31.158-.193.202-.443.118-.669l-.007-.018c-.116-.31-.444-.517-.815-.515l-9.402.027c-.271.002-.527.118-.685.31"/></g></svg>
