<svg viewBox="0 0 22 22" xmlns="http://www.w3.org/2000/svg" xmlns:xlink="http://www.w3.org/1999/xlink"><defs><path id="a" d="m345.4 248.3-194.3 194.3c-12.36 12.36-32.4 12.36-44.75 0-12.35-12.35-12.35-32.39 0-44.74l171.9-171.9-171.9-171.9c-12.35-12.36-12.35-32.39 0-44.75 12.35-12.36 32.39-12.36 44.75 0l194.3 194.3c6.177 6.18 9.262 14.27 9.262 22.37 0 8.099-3.091 16.2-9.267 22.37" fill="#4d4d4d"/></defs><g transform="matrix(.983 0 0 .983 -535.1 -730.1)"><rect x="551.6" y="749.9" width="8" height="8" rx=".48" fill="#4d4d4d" fill-rule="evenodd"/><path id="b" transform="matrix(-3e-5 -.00885 .00885 -3e-5 553.6 749.1)" d="m345.4 248.3-194.3 194.3c-12.36 12.36-32.4 12.36-44.75 0-12.35-12.35-12.35-32.39 0-44.74l171.9-171.9-171.9-171.9c-12.35-12.36-12.35-32.39 0-44.75 12.35-12.36 32.39-12.36 44.75 0l194.3 194.3c6.177 6.18 9.262 14.27 9.262 22.37 0 8.099-3.091 16.2-9.267 22.37z" fill="#4d4d4d" stroke="#4d4d4d" stroke-width="33.89"/><use transform="matrix(1 0 0 -1 0 1508)" xlink:href="#b"/><use transform="matrix(-.00837-.00832.00832-.00837 548.8 750.88)" xlink:href="#a"/><use transform="matrix(.00837-.00832-.00832-.00837 562.33 750.88)" xlink:href="#a"/><g transform="matrix(1 0 0 -1 -.029 1508)"><use transform="matrix(-.00837-.00832.00832-.00837 548.8 750.88)" xlink:href="#a"/><use transform="matrix(.00837-.00832-.00832-.00837 562.33 750.88)" xlink:href="#a"/></g></g></svg>
