<svg viewBox="0 0 22 22" xmlns="http://www.w3.org/2000/svg"><g transform="translate(-421.7 -525.8)"><g font-family="Sans" font-size="9" letter-spacing="0" word-spacing="0" line-height="125%"><text x="420.15" y="547.55"><tspan x="420.15" y="547.55"/></text><text x="420.89" y="541.68"><tspan x="420.89" y="541.68"/></text><text x="414.15" y="548.55"><tspan x="414.15" y="548.55"/></text></g><path transform="matrix(1.086 0 0 1.083 -3.059 -43.24)" d="m394.01 528.14c-.413 0-.748.336-.748.75v13.272c0 .414.335.75.748.75h14.203c.413 0 .748-.336.748-.75v-13.272c0-.414-.335-.75-.748-.75zm9.404 2.652c.947 0 1.715.771 1.715 1.722 0 .951-.768 1.722-1.715 1.722-.947 0-1.715-.771-1.715-1.722 0-.951.768-1.722 1.715-1.722m-7.574 10.473c-.474 0-.685-.344-.471-.769l2.943-5.852c.213-.424.62-.462.907-.085l2.971 5.88c0 0 .486.825-.471.825z" fill="#4d4d4d" stroke-opacity=".8"/></g></svg>
