<svg viewBox="0 0 22 22" xmlns="http://www.w3.org/2000/svg"><g transform="matrix(.02821 0 0 .02821 3 2.998)" fill="#4d4d4d"><path d="m465 141.3s8.996 9.05 15.35 0.017l12.1-17.35c4.225-6.103-1.231-10.33-1.796-10.74l-73.41-51.29h-0.017c-4.52-3.145-7.521-1.236-9.1 0.533l-1.311 1.891-11.18 16.01c-0.053 0.061-6.315 9.937 3.695 15.16v0.013c14.3 7.03 40.53 21.87 65.66 45.81l0.018-0.051"/><path d="m341.4 0h-115.7c-8.978 0-16.33 7.213-16.33 16.34v13.48c0 9.112 7.356 16.47 16.33 16.47h5.725v9.521c9e-3 13.69 8.648 14.82 12.98 14.53 0.737-0.109 1.501-0.226 2.308-0.33 9e-3 0 0.122-0.026 0.122-0.026h-9e-3c15.4-2.108 40.9-4.125 70.15-0.403l0.017-0.026s18.74 3.474 18.69-13.76v-9.52h5.725c8.987 0 16.32-7.348 16.32-16.47v-13.47c-1e-4 -9.117-7.357-16.34-16.34-16.34"/><path transform="matrix(35.45 0 0 35.45 -106.4 -106.4)" d="m11 5.563c-3.71 0-6.719 3.01-6.719 6.719 0 3.71 3.01 6.719 6.719 6.719 3.71 0 6.719-3.01 6.719-6.719 0-3.711-3.01-6.719-6.719-6.719m-2.199 3.838 5 3-5 3v-6"/></g></svg>
