<svg viewBox="0 0 22 22" xmlns="http://www.w3.org/2000/svg"><path transform="matrix(.1279 0 0 .1279 2.95 2.948)" d="m120.6 38.72c-3.312-7.713-7.766-14.37-13.36-19.96-5.595-5.594-12.25-10.05-19.96-13.36-7.713-3.314-15.8-4.97-24.28-4.97-7.984 0-15.71 1.506-23.18 4.521-7.468 3.01-14.11 7.265-19.92 12.75l-10.59-10.51c-1.63-1.684-3.503-2.064-5.622-1.141-2.173 0.924-3.259 2.527-3.259 4.808v36.5c0 1.412 0.516 2.634 1.548 3.666 1.033 1.032 2.255 1.548 3.667 1.548h36.5c2.282 0 3.884-1.086 4.807-3.259 0.923-2.118 0.543-3.992-1.141-5.622l-11.16-11.24c3.803-3.585 8.148-6.341 13.04-8.27 4.889-1.928 9.994-2.893 15.32-2.893 5.649 0 11.04 1.101 16.17 3.3 5.133 2.2 9.572 5.174 13.32 8.922 3.748 3.747 6.722 8.187 8.922 13.32 2.199 5.133 3.299 10.52 3.299 16.17 0 5.65-1.1 11.04-3.299 16.17-2.2 5.133-5.174 9.573-8.922 13.32s-8.188 6.722-13.32 8.921c-5.133 2.2-10.52 3.3-16.17 3.3-6.464 0-12.57-1.412-18.33-4.236-5.757-2.824-10.62-6.816-14.58-11.98-0.38-0.543-1-0.87-1.874-0.979-0.815 0-1.494 0.244-2.037 0.733l-11.16 11.24c-0.434 0.436-0.665 0.991-0.692 1.67-0.027 0.68 0.15 1.29 0.53 1.833 5.921 7.17 13.09 12.72 21.51 16.66s17.3 5.907 26.64 5.907c8.473 0 16.57-1.657 24.28-4.97s14.36-7.768 19.96-13.36c5.594-5.596 10.05-12.25 13.36-19.96 3.313-7.713 4.969-15.81 4.969-24.28 0-8.474-1.657-16.56-4.97-24.28" fill="#4d4d4d"/></svg>
