<svg viewBox="0 0 22 22" xmlns="http://www.w3.org/2000/svg"><g transform="translate(-553.7 -583.1)"><g transform="matrix(-1 0 0 1 1129 3)" fill="#4d4d4d"><path d="m556.7 591.1h11v1h-11z"/><path d="m567.7 587.1v9h5v-9h-5m1 1h3v7h-3v-7"/><path d="m557.7 592.1h1v2h-1z"/><path d="m559.7 592.1h1v2h-1z"/></g><path d="m570.2 585.1a3.5 3.5 0 0 0-3.5 3.5 3.5 3.5 0 0 0 0.6992 2.094l0.717-0.717a2.5 2.5 0 0 1-0.416-1.377 2.5 2.5 0 0 1 2.5-2.5 2.5 2.5 0 0 1 1.377 0.416l0.717-0.717a3.5 3.5 0 0 0-2.094-0.6992m2.801 1.406-0.717 0.717a2.5 2.5 0 0 1 0.416 1.377 2.5 2.5 0 0 1-2.5 2.5 2.5 2.5 0 0 1-1.377-0.416l-0.717 0.717a3.5 3.5 0 0 0 2.094 0.6992 3.5 3.5 0 0 0 3.5-3.5 3.5 3.5 0 0 0-0.6992-2.094" fill="#1d99f3"/></g></svg>
