<svg viewBox="0 0 22 22" xmlns="http://www.w3.org/2000/svg"><path transform="matrix(.04415.00036-.00036.04415 1.329 1.132)" d="m318.7 145.4h78.5c3.764 7.97 11.88 13.5 21.26 13.5 12.96 0 23.5-10.54 23.5-23.5s-10.54-23.5-23.5-23.5c-9.383 0-17.5 5.53-21.26 13.5h-131.9v-27.11c0-5.522-4.478-10-10-10h-68.67c-5.522 0-10 4.478-10 10v27.11h-131.9c-3.764-7.97-11.88-13.5-21.26-13.5-12.96 0-23.5 10.54-23.5 23.5s10.54 23.5 23.5 23.5c9.383 0 17.5-5.53 21.26-13.5h78.5c-26.57 13.13-50.5 31.58-70.1 54.44-34.28 39.98-53.17 91.05-53.17 143.8 0 5.522 4.478 10 10 10s10-4.478 10-10c0-95 65.2-175.7 156.7-196.1v19.43c0 5.522 4.478 10 10 10h68.67c5.522 0 10-4.478 10-10v-19.43c91.46 20.44 156.7 101.1 156.7 196.1 0 5.522 4.478 10 10 10s10-4.478 10-10c0-52.74-18.88-103.8-53.17-143.8-19.6-22.86-43.52-41.31-70.1-54.43z" fill="#4d4d4d" stroke="#4d4d4d" stroke-linecap="round" stroke-linejoin="round" stroke-width="9.302"/></svg>
