<svg viewBox="0 0 16 16" xmlns="http://www.w3.org/2000/svg"><g transform="translate(-421.7 -531.8)"><path d="m427.4 535.3c-1.669 0.856-2.719 2.574-2.719 4.449 0 2.761 2.239 5 5 5s5-2.239 5-5c-1e-4 -0.333-0.036-0.664-0.104-0.99 0 0-7.181-3.477-7.178-3.459" fill="#b3b3b3"/><path transform="translate(421.7 531.8)" d="m5.094 2.766a6 6 0 0 0-3.094 5.234 6 6 0 0 0 6 6 6 6 0 0 0 6-6 6 6 0 0 0-0.08984-1h-1.015a5 5 0 0 1 0.105 1 5 5 0 0 1-5 5 5 5 0 0 1-5-5 5 5 0 0 1 2.725-4.445l-0.6306-0.7887" fill="#4d4d4d"/></g></svg>
