<svg viewBox="0 0 24 24" xmlns="http://www.w3.org/2000/svg"><g fill="#4d4d4d"><path transform="translate(-440.4 -513.5)" d="m447.6 525.1-1.667 1.667 1.667 1.667zm9.667 0v3.333l1.667-1.667z"/><path transform="matrix(.03776 0 0 .03776 2.4 2.398)" d="m508 46.02c-1.367-16.37-14.59-30.13-31.21-30.13h-445c-16.62 0-29.84 13.76-31.24 30.13h-0.54v414.8c0 17.54 14.24 31.78 31.78 31.78h445c17.54 0 31.78-14.24 31.78-31.78v-414.8h-0.571m-349 414.8h-127.1v-95.35h127.1v95.35m0-124.5h-127.1v-97.99h127.1v97.99m0-129.8h-127.1v-95.35h127.1v95.35m158.9 254.3h-127.1v-95.35h127.1v95.35m0-124.5h-127.1v-97.99h127.1v97.99m0-129.8h-127.1v-95.35h127.1v95.35m158.9 254.3h-127.1v-95.35h127.1v95.35m0-124.5h-127.1v-97.99h127.1v97.99m0-129.8h-127.1v-95.35h127.1v95.35"/></g></svg>
