<svg viewBox="0 0 22 22" xmlns="http://www.w3.org/2000/svg"><g transform="translate(-421.7 -525.8)" fill="#4d4d4d"><g font-family="Sans" font-size="9" letter-spacing="0" word-spacing="0" line-height="125%"><text x="420.15" y="560.55"><tspan x="420.15" y="560.55"/></text><text x="420.89" y="554.68"><tspan x="420.89" y="554.68"/></text><text x="414.15" y="561.55"><tspan x="414.15" y="561.55"/></text><text x="420.15" y="560.55"><tspan x="420.15" y="560.55"/></text><text x="420.89" y="554.68"><tspan x="420.89" y="554.68"/></text><text x="414.15" y="561.55"><tspan x="414.15" y="561.55"/></text></g><g transform="matrix(.04317 0 0 .04317 424.7 528.8)"><path d="m5.806 224.8c-7.741 7.741-7.741 20.29 2e-3 28.03l10.11 10.11 24.18-9.46-9.112 24.53 50.81 50.81 39.01-22.66-19.86 41.82 16.84 16.84c7.743 7.743 20.29 7.743 28.03 2e-3l91.81-91.81-140-140-91.81 91.81"/><path d="m358.8 11.84-0.082-0.083c-9.66-9.66-21.98-13.48-35.63-11.04-27.59 4.924-56.52 34.86-77.38 80.09-5.788 12.55-14 19.61-25.1 21.59-21.31 3.803-48.29-11.74-64.34-27.79-3.362-3.362-8.814-3.361-12.18 1e-4l-16.68 16.69 24.65 24.65c3.202 3.202 3.202 8.392 0 11.59s-8.393 3.202-11.59 0l-24.65-24.65-6.178 6.178c-3.364 3.364-3.364 8.815-2e-3 12.18l139.7 139.7c3.361 3.361 8.812 3.36 12.18-2e-3l34.46-34.46c3.361-3.362 3.362-8.814 1e-4 -12.18-16.05-16.05-31.6-43.03-27.79-64.34 1.98-11.1 9.04-19.31 21.59-25.1 45.23-20.86 75.16-49.79 80.09-77.38 2.434-13.65-1.385-25.97-11.05-35.63m-15.77 36.9c-5.857 5.857-15.35 5.857-21.21 0-5.856-5.858-5.856-15.36 0-21.21 5.858-5.858 15.36-5.858 21.21 0 5.858 5.858 5.858 15.36 0 21.21"/></g></g></svg>
