<svg viewBox="0 0 24 24" xmlns="http://www.w3.org/2000/svg"><rect transform="matrix(0 1 1 0 350-532.36)" x="537.1" y="-347" width="6" height="18" rx=".776" fill="#52b6ff" stroke="#4d4d4d" stroke-linecap="round" stroke-linejoin="round" stroke-width=".917"/><path transform="matrix(-.03776 0 0 .03776 21.6 2.4)" d="m508 46.02c-1.367-16.37-14.59-30.13-31.21-30.13h-445c-16.62 0-29.84 13.76-31.24 30.13h-0.54v414.8c0 17.54 14.24 31.78 31.78 31.78h445c17.54 0 31.78-14.24 31.78-31.78v-414.8h-0.571m-349 414.8h-127.1v-95.35h127.1v95.35m0-124.5h-127.1v-97.99h127.1v97.99m0-129.8h-127.1v-95.35h127.1v95.35m158.9 254.3h-127.1v-95.35h127.1v95.35m0-124.5h-127.1v-97.99h127.1v97.99m0-129.8h-127.1v-95.35h127.1v95.35m158.9 254.3h-127.1v-95.35h127.1v95.35m0-124.5h-127.1v-97.99h127.1v97.99m0-129.8h-127.1v-95.35h127.1v95.35" fill="#4d4d4d"/></svg>
