<svg viewBox="0 0 24 24" xmlns="http://www.w3.org/2000/svg"><g transform="translate(1 -1029)"><path d="m3 1033v7h8v-7z" fill="#4d4d4d"/><g transform="matrix(-1 0 0 -1 547.5 1795)"><g transform="matrix(.9426 0 0 .9426 13.46 42.62)" fill="#4d4d4d"><path d="m547.44 756.58l1.255-.011-.758.015c.145.651.392 1.29.756 1.893.993 1.644 2.614 2.675 4.371 2.972.853.165 1.339-.869.417-1.219-1.484-.189-2.87-1.029-3.703-2.409-.243-.402-.418-.826-.538-1.257l.648-.006c.338-.003.462-.244.279-.538l-1.262-2.02c-.184-.295-.466-.294-.631.0001l-1.146 2.049c-.165.295-.024.531.313.528"/><path d="m561.94 751.42l-1.255.011.758-.015c-.145-.651-.392-1.29-.756-1.893-.993-1.644-2.614-2.675-4.371-2.972-.853-.165-1.339.869-.417 1.219 1.484.189 2.87 1.029 3.703 2.409.243.402.418.826.538 1.257l-.648.006c-.338.003-.462.244-.279.538l1.262 2.02c.184.295.466.294.631-.0001l1.146-2.049c.165-.295.024-.531-.313-.528"/></g><g transform="matrix(.8358 0 0 .8358 88.04 123.8)" fill="#1d99f3"><path transform="matrix(-.04364 0 0 .04364 476.1 728.1)" d="m-1337 413.9c5.702 0 10.31 4.633 10.31 10.33v109.4l42.58-42.58c4.04-4.03 10.57-4.01 14.62 0.026 4.04 4.03 4.04 10.55 0 14.59l-58.42 58.45c-2.479 2.468-5.887 3.232-9.09 2.664-3.213 0.568-6.61-0.186-9.09-2.665l-58.42-58.45c-4.04-4.03-4.04-10.55 0-14.59 4.03-4.04 10.55-4.04 14.59 0l42.58 42.56v-109.4c0-5.702 4.633-10.33 10.33-10.33"/><path transform="matrix(-.04364 0 0-.04364 472.2 769.68)" d="m-1326 441.4c5.702 0 10.31 4.633 10.31 10.33v109.4l42.58-42.58c4.04-4.03 10.57-4.01 14.62 0.025 4.04 4.03 4.04 10.55 0 14.59l-58.42 58.45c-2.479 2.468-5.887 3.232-9.09 2.664-3.213 0.568-6.61-0.186-9.09-2.665l-58.42-58.45c-4.04-4.03-4.04-10.55 0-14.59 4.03-4.04 10.55-4.04 14.59 0l42.58 42.56v-109.4c0-5.702 4.633-10.33 10.33-10.33"/></g></g></g></svg>
