<svg viewBox="0 0 22 22" xmlns="http://www.w3.org/2000/svg"><path transform="matrix(.0286 0 0 .0286 2.74 2.818)" d="m61.98 6.553c46.51 0 91.29 6.02 134.3 18.05 43.04 12.04 83.33 29.07 120.9 51.1 37.54 22.03 71.71 48.45 102.5 79.25 30.8 30.8 57.22 64.97 79.25 102.5 22.03 37.54 39.06 77.83 51.1 120.9s18.05 87.82 18.05 134.3c0 14.69-5.201 27.23-15.6 37.64s-22.95 15.6-37.64 15.6c-14.69 0-27.23-5.199-37.64-15.6-10.4-10.4-15.6-22.95-15.6-37.64 0-36.72-4.795-72.12-14.38-106.2-9.588-34.06-23.06-65.89-40.39-95.47-17.34-29.58-38.14-56.51-62.42-80.78-24.28-24.28-51.2-45.08-80.78-62.42s-61.4-30.8-95.47-40.39c-34.07-9.588-69.46-14.38-106.2-14.38-14.69 0-27.23-5.202-37.64-15.61-10.4-10.4-15.61-22.95-15.61-37.64s5.202-27.23 15.61-37.64c10.4-10.4 22.95-15.6 37.64-15.6m0 201.4c42.02 0 81.5 8.06 118.4 24.17 36.92 16.12 69.16 37.94 96.7 65.48 27.54 27.54 49.37 59.77 65.48 96.69 16.12 36.93 24.17 76.4 24.17 118.4 0 14.69-5.201 27.23-15.6 37.64-10.4 10.4-22.95 15.6-37.64 15.6-14.69 0-27.23-5.199-37.64-15.6-10.4-10.4-15.61-22.95-15.61-37.64 0-27.34-5.202-53.04-15.61-77.11s-24.58-45.08-42.53-63.04c-17.95-17.95-38.96-32.13-63.04-42.54-24.07-10.4-49.78-15.6-77.11-15.6-14.69 0-27.23-5.201-37.64-15.6-10.4-10.4-15.61-22.95-15.61-37.64s5.202-27.23 15.61-37.64c10.4-10.41 22.95-15.61 37.64-15.61m97.92 279.7c0 10.61-1.938 20.4-5.814 29.38-3.876 8.979-9.18 16.83-15.91 23.56-6.732 6.729-14.69 12.03-23.87 15.91-9.18 3.875-18.87 5.811-29.07 5.811-10.61 0-20.4-1.938-29.38-5.811-8.976-3.875-16.83-9.184-23.56-15.91-6.732-6.732-12.04-14.59-15.91-23.56-3.876-8.977-5.814-18.77-5.814-29.38 0-10.2 1.938-19.89 5.814-29.07 3.876-9.184 9.18-17.14 15.91-23.87 6.732-6.732 14.59-12.04 23.56-15.91 8.976-3.875 18.77-5.814 29.38-5.814 10.2 0 19.89 1.939 29.07 5.814 9.18 3.877 17.14 9.18 23.87 15.91 6.732 6.73 12.04 14.69 15.91 23.87 3.876 9.178 5.814 18.87 5.814 29.07" fill="#4d4d4d"/></svg>
