<svg viewBox="0 0 22 22" xmlns="http://www.w3.org/2000/svg"><g transform="translate(-326-534.36)"><g fill="#4d4d4d" font-family="Sans" letter-spacing="0" word-spacing="0" line-height="125%"><g font-size="9"><text x="312.31" y="558.48"><tspan x="312.31" y="558.48"/></text><text x="313.05" y="552.62"><tspan x="313.05" y="552.62"/></text><text x="306.31" y="559.48"><tspan x="306.31" y="559.48"/></text></g><g font-size="12.46"><text x="333.87" y="559.82"><tspan x="333.87" y="559.82"/></text><text x="334.89" y="551.7"><tspan x="334.89" y="551.7"/></text><text x="325.56" y="561.2"><tspan x="325.56" y="561.2"/></text></g><g font-size="9"><text x="297.19" y="554.28"><tspan x="297.19" y="554.28"/></text><text x="297.93" y="548.41"><tspan x="297.93" y="548.41"/></text><text x="291.19" y="555.28"><tspan x="291.19" y="555.28"/></text></g><g font-size="12.46"><text x="318.75" y="555.62"><tspan x="318.75" y="555.62"/></text><text x="319.77" y="547.5"><tspan x="319.77" y="547.5"/></text><text x="310.44" y="557"><tspan x="310.44" y="557"/></text></g><g font-size="9"><text x="321.39" y="557.98"><tspan x="321.39" y="557.98"/></text><text x="322.13" y="552.12"><tspan x="322.13" y="552.12"/></text><text x="315.39" y="558.98"><tspan x="315.39" y="558.98"/></text></g><g font-size="12.46"><text x="342.95" y="559.32"><tspan x="342.95" y="559.32"/></text><text x="343.97" y="551.2"><tspan x="343.97" y="551.2"/></text><text x="334.64" y="560.7"><tspan x="334.64" y="560.7"/></text></g></g><g transform="matrix(.9916 0 0 .9916 2.907 5.561)"><path d="m331.7 537.4-4.841 14h1.169l1.735-4.667h6.04l1.729 4.667h1.328l-4.907-14h-2.252m1.09 1.201 2.58 6.966h-5.172l2.592-6.966" color-rendering="auto" fill="#1d99f3" fill-rule="evenodd" image-rendering="auto" shape-rendering="auto" solid-color="#000000" isolation="auto" mix-blend-mode="normal" white-space="normal"/><path d="m339 539.4v12h1v-1.361a4 4 0 0 0 3 1.361 4 4 0 0 0 4-4 4 4 0 0 0-4-4 4 4 0 0 0-3 1.361v-5.361h-1m4 5a3 3 0 0 1 3 3 3 3 0 0 1-3 3 3 3 0 0 1-3-3 3 3 0 0 1 3-3" fill="#4d4d4d"/></g></g></svg>
