<svg viewBox="0 0 24 24" xmlns="http://www.w3.org/2000/svg"><g transform="translate(-378.2 -536.4)" fill="#4d4d4d"><path d="m396.2 543v4.367l2.183-2.183zm0 6.55v4.367l2.183-2.183z" stroke="#4d4d4d" stroke-linecap="round" stroke-linejoin="round" stroke-width=".6"/><g transform="matrix(1.293 0 0 1.293 378.1 -796.7)"><g stroke="#4d4d4d" stroke-linecap="round" stroke-linejoin="round"><rect x="2.919" y="1044" width="9.933" height=".845" rx=".423" stroke-width=".315"/><rect x="10.36" y="1041" width="2.558" height=".987" rx=".494" stroke-width=".173"/><rect x="9.665" y="1039" width="3.248" height=".967" rx=".484" stroke-width=".193"/><rect x="8.55" y="1036" width="4.348" height=".962" rx=".481" stroke-width=".223"/></g><path transform="matrix(2.144 0 0 2.144 11.55 -1193)" d="m-3.519 1042.48l.166-.34h1.427l.17.34c.139.302.607.062.449-.24l-1.091-2.17c-.097-.213-.375-.205-.48 0l-1.11 2.17c-.077.162 0 .302.124.371.139.027.282 0 .344-.131m.406-.851l.476-.955.437.955h-.913"/></g></g></svg>
