<svg viewBox="0 0 24 24" xmlns="http://www.w3.org/2000/svg"><g transform="translate(-326-532.36)" fill="#4d4d4d"><g transform="matrix(.04923 0 0 .04923 330 536.4)"><path d="m319 55.26c3.314 0 6-2.687 6-6v-43.26c0-3.313-2.686-6-6-6h-43.26c-3.313 0-6 2.687-6 6v13.63h-214.5v-13.63c0-3.313-2.687-6-6-6h-43.26c-3.313 0-6 2.687-6 6v43.26c0 3.313 2.687 6 6 6h13.63v214.5h-13.63c-3.313 0-6 2.687-6 6v43.26c0 3.314 2.687 6 6 6h43.26c3.313 0 6-2.686 6-6v-13.63h214.5v13.63c0 3.314 2.687 6 6 6h43.26c3.314 0 6-2.686 6-6v-43.26c0-3.313-2.686-6-6-6h-13.63v-214.5zm-29.63 79.61v134.9h-13.63c-3.313 0-6 2.687-6 6v13.63h-214.5v-13.63c0-3.313-2.687-6-6-6h-13.63v-214.5h13.63c3.313 0 6-2.687 6-6v-13.63h214.5v13.63c0 3.313 2.687 6 6 6h13.63z"/><circle cx="162.5" cy="162.5" r="13.28"/></g><path transform="matrix(.02758 0 0 .02758 332 537.7)" d="m351.3 313h-29.98c-0.022 14.37 0 52.16 0 52.16s-32.53 0-48.62 0.043v29.96c16.09-0.022 48.62-0.022 48.62-0.022s0 37.75-0.022 52.18h29.98c0.022-14.43 0.022-52.18 0.022-52.18h48.6v-29.98h-48.6s-0.043-37.79 0-52.16"/></g></svg>
