<svg viewBox="0 0 22 22" xmlns="http://www.w3.org/2000/svg"><g fill="#4d4d4d"><path transform="matrix(1.52 0 0 1.52 -473 -812.6)" d="m313.2 546.4 3.712-9.845h1.43l2.671 7.177h-5.449l-0.962 2.668zm2.791-3.85h3.272l-1.609-4.441h-0.055z"/><path transform="matrix(6e-5 -.01606 -.01606 -6e-5 18.91 20.57)" d="m345.4 248.3-194.3 194.3c-12.36 12.36-32.4 12.36-44.75 0-12.35-12.35-12.35-32.39 0-44.74l171.9-171.9-171.9-171.9c-12.35-12.36-12.35-32.39 0-44.75 12.35-12.36 32.39-12.36 44.75 0l194.3 194.3c6.177 6.18 9.262 14.27 9.262 22.37 0 8.099-3.091 16.2-9.267 22.37"/></g></svg>
