<svg viewBox="0 0 22 22" xmlns="http://www.w3.org/2000/svg"><g transform="translate(-553.7 -583.1)"><g fill="#4d4d4d" font-family="Sans" font-size="9" letter-spacing="0" word-spacing="0" line-height="125%"><text x="540.11" y="606.74"><tspan x="540.11" y="606.74"/></text><text x="540.85" y="600.87"><tspan x="540.85" y="600.87"/></text><text x="534.11" y="607.74"><tspan x="534.11" y="607.74"/></text></g><path d="m566.7 589.1 3-4 3 4z" fill="#1d99f3"/><g fill="#4d4d4d"><g font-family="Sans" letter-spacing="0" word-spacing="0" line-height="125%"><g font-size="12.46"><text x="561.67" y="608.07"><tspan x="561.67" y="608.07"/></text><text x="562.69" y="599.96"><tspan x="562.69" y="599.96"/></text><text x="553.36" y="609.46"><tspan x="553.36" y="609.46"/></text></g><g font-size="9"><text x="524.99" y="602.54"><tspan x="524.99" y="602.54"/></text><text x="525.72" y="596.67"><tspan x="525.72" y="596.67"/></text><text x="518.99" y="603.54"><tspan x="518.99" y="603.54"/></text></g><g font-size="12.46"><text x="546.55" y="603.87"><tspan x="546.55" y="603.87"/></text><text x="547.57" y="595.75"><tspan x="547.57" y="595.75"/></text><text x="538.24" y="605.26"><tspan x="538.24" y="605.26"/></text></g></g><path transform="translate(552.7 582.1)" d="m13 8v12h6a3.5 3.5 0 0 0 3.5-3.5 3.5 3.5 0 0 0-2.434-3.33 3 3 0 0 0 0.9336-2.17 3 3 0 0 0-3-3h-5m1 1h4a2 2 0 0 1 2 2 2 2 0 0 1-2 2h-4v-4m0 5h5a2.5 2.5 0 0 1 2.5 2.5 2.5 2.5 0 0 1-2.5 2.5h-5v-5"/><path d="m558.6 590.1-4.174 12h1.01l1.496-4h5.207l1.49 4h1.145l-4.23-12h-1.941m0.939 1.029 2.225 5.971h-4.459l2.234-5.971" color-rendering="auto" fill-rule="evenodd" image-rendering="auto" shape-rendering="auto" solid-color="#000000" isolation="auto" mix-blend-mode="normal" white-space="normal"/></g></g></svg>
