<svg viewBox="0 0 22 22" xmlns="http://www.w3.org/2000/svg"><g transform="translate(0 -1030)"><path transform="translate(-1 1029)" d="m4 14v1h1v-1h-1" fill="#4d4d4d"/><path d="m15 1045v2h-2v1h2v2h1v-2h2v-1h-2v-2h-1" fill="#1d99f3" fill-rule="evenodd"/><g fill="#4d4d4d"><path d="m15.5 1033c-1.933 0-3.5 1.791-3.5 4v3c0 2.209 1.567 4 3.5 4s3.5-1.791 3.5-4v-3c0-2.209-1.567-4-3.5-4m0 1c1.381 0 2.5 1.343 2.5 3v3c0 1.657-1.119 3-2.5 3s-2.5-1.343-2.5-3v-3c0-1.657 1.119-3 2.5-3"/><path d="m7.5 1033c-1.933 0-3.5 1.791-3.5 4v3c0 2.209 1.567 4 3.5 4s3.5-1.791 3.5-4v-3c0-2.209-1.567-4-3.5-4m0 1c1.381 0 2.5 1.343 2.5 3v3c0 1.657-1.119 3-2.5 3s-2.5-1.343-2.5-3v-3c0-1.657 1.119-3 2.5-3"/></g></g></svg>
