<svg viewBox="0 0 22 22" xmlns="http://www.w3.org/2000/svg"><g transform="matrix(-.1685 0 0 -.1685 14.88 12.39)" fill="#4d4d4d"><path d="m35.76 8.264c-5.898 0-10.56 4.782-10.56 10.68s4.844 10.68 10.74 10.68c0.059 0 0.148-8e-3 0.207-9e-3 -2.332 1.857-5.261 2.976-8.467 2.976-1.475 0-2.662 1.196-2.662 2.67s0.949 2.67 2.424 2.67c10.47-1e-4 18.74-8.518 18.74-18.99v-7e-3c0-5.895-4.534-10.67-10.43-10.67"/><path d="m10.75 8.264c-5.898 0-10.56 4.782-10.56 10.68s4.84 10.68 10.74 10.68c0.059 0 0.146-8e-3 0.205-9e-3 -2.332 1.857-5.262 2.976-8.468 2.976-1.475 0-2.663 1.196-2.663 2.67s0.964 2.67 2.439 2.67c10.47-1e-4 18.76-8.518 18.76-18.99v-7e-3c0-5.895-4.549-10.67-10.44-10.67"/></g></svg>
