<svg viewBox="0 0 24 24" xmlns="http://www.w3.org/2000/svg"><g transform="matrix(1 0 0-1-326 555.4)"><g transform="translate(327-497)"><path transform="translate(0 1030)" d="m9 5v-1h-6v1h16v-1h-6v1zm1-1h2v1-1zm-7 14v-1h3v1h9v-1h-9v1zm13 0v-1h-3v1h3v-1h3v1zm-12-1h1v1h-1zm13 0h1v1h-1z" fill="#4d4d4d"/><path d="m9 1043 2-3 2 3z" fill="#1d99f3" fill-rule="evenodd"/></g><g fill="#4d4d4d"><circle cx="331.2" cy="550.9" r="1.5"/><circle cx="344.6" cy="550.9" r="1.5"/><circle cx="338" cy="537.9" r="2.5"/></g></g></svg>
