<svg viewBox="0 0 22 22" xmlns="http://www.w3.org/2000/svg"><path transform="matrix(.04151 0 0 .04151 3 3)" d="m286.8 183.4c22.27-15.56 40.41-35.46 51.08-56.04 12.37-23.86 13.58-46.73 3.415-64.39-8.314-14.44-21.49-23.61-37.11-25.8-7.682-1.077-15.72-0.473-23.68 1.639v-26.74c0-6.64-5.384-12.02-12.02-12.02h-151.5c-6.64 0-12.02 5.383-12.02 12.02v26.74c-7.965-2.111-16-2.715-23.68-1.637-15.62 2.19-28.8 11.35-37.11 25.8-10.17 17.66-8.954 40.53 3.415 64.39 10.67 20.58 28.81 40.48 51.08 56.04 4.743 3.314 5.281 6.87 4.896 9.271-0.436 2.72-2.175 4.917-4.43 5.595-3.389 1.02-9.865-0.984-17.85-9.675-5.754-6.264-15.5-6.677-21.76-0.922-6.264 5.755-6.677 15.5-0.922 21.76 14.8 16.12 28.95 19.83 38.85 19.83 4.518 0 8.15-0.773 10.55-1.498 5.138-1.545 9.793-4.229 13.72-7.742 11.22 15.42 27.32 27.06 46.02 32.62v44.23h-37.39c-17.64 0-32 14.35-32 32v41.6c0 8.284 6.716 15 15 15h158.8c8.284 0 15-6.716 15-15v-41.6c0-17.64-14.35-32-32-32h-37.39v-44.23c18.7-5.564 34.8-17.2 46.01-32.62 3.929 3.514 8.583 6.197 13.72 7.742 2.404 0.723 6.04 1.498 10.55 1.498 9.897-1e-4 24.05-3.718 38.85-19.83 5.755-6.266 5.342-16.01-0.922-21.76-6.264-5.755-16.01-5.342-21.76 0.922-7.984 8.69-14.46 10.69-17.85 9.675-2.256-0.678-3.995-2.875-4.431-5.595-0.385-2.4 0.153-5.956 4.896-9.269m-211.9-70.22c-4.27-8.235-10.47-23.71-4.065-34.84 3.623-6.293 8.428-9.779 14.69-10.66 5.849-0.818 12.7 0.661 19.4 3.945v77.75c-12.92-10.97-23.55-23.7-30.03-36.2m205.6 36.2v-77.76c6.706-3.286 13.55-4.766 19.4-3.943 6.264 0.878 11.07 4.364 14.69 10.66 6.409 11.13 0.205 26.61-4.064 34.84-6.48 12.5-17.11 25.23-30.03 36.2z" fill="#4d4d4d"/></svg>
