<svg viewBox="0 0 22 22" xmlns="http://www.w3.org/2000/svg"><g transform="matrix(.0324 0 0 .0324 3 2.998)" fill="#4d4d4d"><path d="m290.6 402.6h-87.59c-6.781 0-12.28 5.503-12.28 12.28 0 6.785 5.502 12.29 12.28 12.29h87.59c6.781 0 12.29-5.502 12.29-12.29 1e-4 -6.78-5.506-12.28-12.29-12.28"/><path d="m224.3 474.2c1.666 11.03 11.09 19.52 22.59 19.52 11.49 0 20.93-8.487 22.59-19.52 15.04-0.888 26.99-13.24 26.99-28.5h-99.21c0 15.27 11.98 27.63 27.05 28.5"/><path d="m246.9 70.87c9.06 0 16.39-7.335 16.39-16.38v-38.11c0-9.05-7.324-16.38-16.39-16.38-9.05 0-16.38 7.332-16.38 16.38v38.11c1e-4 9.05 7.325 16.38 16.38 16.38"/><path d="m139.4 94.74c3.217 4.417 8.209 6.761 13.28 6.761 3.326 0 6.699-1.017 9.609-3.129 7.313-5.312 8.945-15.56 3.633-22.87l-22.4-30.84c-5.326-7.312-15.55-8.96-22.89-3.632-7.311 5.309-8.943 15.56-3.631 22.87l22.39 30.84"/><path d="m354.4 334.9c-5.313-7.312-15.55-8.934-22.88-3.621-7.306 5.317-8.937 15.56-3.61 22.88l22.41 30.84c3.196 4.407 8.188 6.753 13.26 6.753 3.338 0 6.698-1.017 9.608-3.128 7.312-5.319 8.942-15.56 3.619-22.88l-22.41-30.84"/><path d="m99.5 149.7-36.25-11.79c-8.686-2.799-17.85 1.911-20.65 10.52-2.803 8.597 1.904 17.84 10.51 20.64l36.25 11.79c1.693 0.544 3.387 0.809 5.066 0.809 6.91 0 13.32-4.4 15.58-11.33 2.802-8.597-1.904-17.84-10.51-20.64"/><path d="m440.6 260.5-36.24-11.77c-8.611-2.778-17.84 1.918-20.64 10.52-2.802 8.606 1.918 17.85 10.52 20.65l36.25 11.77c1.681 0.545 3.373 0.807 5.05 0.807 6.909 0 13.32-4.407 15.58-11.32 2.795-8.61-1.918-17.84-10.53-20.64"/><path d="m89.37 248.8-36.27 11.76c-8.604 2.79-13.32 12.03-10.52 20.64 2.238 6.927 8.664 11.33 15.57 11.33 1.668 0 3.381-0.267 5.061-0.811l36.26-11.76c8.611-2.792 13.33-12.03 10.53-20.64-2.782-8.6-11.95-13.3-20.64-10.52"/><path d="m399.4 181.6c1.681 0 3.373-0.265 5.056-0.809l36.24-11.77c8.608-2.799 13.32-12.04 10.53-20.64-2.803-8.6-12.08-13.3-20.64-10.52l-36.25 11.77c-8.604 2.798-13.32 12.04-10.52 20.64 2.253 6.921 8.673 11.33 15.58 11.33"/><path d="m139.4 334.9-22.43 30.82c-5.326 7.318-3.707 17.56 3.619 22.88 2.896 2.119 6.27 3.138 9.609 3.138 5.074 0 10.07-2.336 13.26-6.744l22.43-30.82c5.326-7.316 3.707-17.56-3.619-22.88-7.293-5.349-17.58-3.709-22.87 3.608"/><path d="m350.3 44.65-22.4 30.84c-5.312 7.318-3.681 17.56 3.633 22.87 2.91 2.112 6.283 3.129 9.608 3.129 5.074 0 10.06-2.343 13.28-6.761l22.4-30.84c5.311-7.318 3.68-17.56-3.634-22.87-7.355-5.341-17.56-3.695-22.88 3.633"/><path d="m365.2 215.4c0-65.35-52.98-118.3-118.3-118.3-65.36 0-118.3 52.98-118.3 118.3 0 27.57 9.482 52.88 25.32 72.98 13.88 17.61 27.03 36.84 38.42 56.19v39.31h108.5v-38.26c11.29-18.82 25.88-40.48 39.06-57.21 15.85-20.1 25.34-45.41 25.34-73"/></g></svg>
