<svg viewBox="0 0 22 22" xmlns="http://www.w3.org/2000/svg"><g transform="matrix(-1 0 0 1 351.7 -533.4)" fill="#4d4d4d"><path transform="matrix(.03541 -.00013 .00013 .03541 330 536.4)" d="m345.4 248.3-194.3 194.3c-12.36 12.36-32.4 12.36-44.75 0-12.35-12.35-12.35-32.39 0-44.74l171.9-171.9-171.9-171.9c-12.35-12.36-12.35-32.39 0-44.75 12.35-12.36 32.39-12.36 44.75 0l194.3 194.3c6.177 6.18 9.262 14.27 9.262 22.37 0 8.099-3.091 16.2-9.267 22.37"/><circle cx="346" cy="544.4" r="2" fill-rule="evenodd"/></g></svg>
