<svg viewBox="0 0 16 16" xmlns="http://www.w3.org/2000/svg"><g transform="translate(-421.7 -531.8)" fill="#4d4d4d"><path d="m424.7 533.8h1v12h-1z"/><path d="m427.7 533.8h1v12h-1z"/><path d="m430.7 533.8h1v12h-1z"/><path d="m433.7 533.8h1v12h-1z"/><g color-rendering="auto" fill-rule="evenodd" image-rendering="auto" shape-rendering="auto"><g transform="translate(421.7 531.8)"><path d="m4.789 2l.008.004 9 4 .203.09v-1.094l-6.75-3h-2.461" solid-color="#000000" isolation="auto" mix-blend-mode="normal" white-space="normal"/><path d="m8.75 2l-6.75 3v1.094l.203-.09 9-4 .008-.004h-2.461" solid-color="#000000" isolation="auto" mix-blend-mode="normal" white-space="normal"/></g><path d="m426.5 545.79l.008-.004 9-4 .203-.09v1.094l-6.75 3h-2.461" solid-color="#000000" isolation="auto" mix-blend-mode="normal" white-space="normal"/><path d="m430.46 545.79l-6.75-3v-1.094l.203.09 9 4 .008.004h-2.461" solid-color="#000000" isolation="auto" mix-blend-mode="normal" white-space="normal"/><path d="m435.7 536.7-12 5.25v1.092l12-5.25v-1.092" solid-color="#000000" isolation="auto" mix-blend-mode="normal" white-space="normal"/><path d="m435.7 543-12-5.25v-1.092l12 5.25v1.092" solid-color="#000000" isolation="auto" mix-blend-mode="normal" white-space="normal"/></g></g></svg>
