<svg viewBox="0 0 22 22" xmlns="http://www.w3.org/2000/svg"><g transform="matrix(.03765 0 0 .03765 3 3)" fill="#4d4d4d"><path d="m241.4 282.3c-1.587-1.738-3.595-3.038-5.67-4.121-4.518-2.356-9.459-3.785-14.36-5.075v38.02c7.963-0.9 17.1-3.79 21.29-11.22 1.996-3.551 2.393-7.914 1.58-11.87-0.441-2.142-1.352-4.108-2.831-5.729"/><path d="m242.6 299.97c.016-.027.025-.044.042-.073-.014.024-.028.048-.042.073"/><path d="m184.01 221.53c-1.369 1.999-2.228 4.27-2.465 6.684-.237 2.419-.104 5.11.815 7.387.875 2.17 2.708 3.772 4.6 5.062 2.123 1.444 4.458 2.572 6.836 3.528 1.995.803 4.239 1.571 6.658 2.313v-34.4c-6.111 1.304-12.788 4.088-16.444 9.426"/><path d="m242.8 299.62c-.05.089-.104.182-.157.28.062-.114.111-.198.157-.28"/><path d="m243 299.26c.013-.024.015-.026 0 0"/><path d="m234.8 92.47c32.33-27.16 53.93-88.34 40.64-91.02-17.66-3.557-56.02 12.04-74.56 14.79-26.3 3.175-54.94-28.52-71.01-10.85-13.07 14.36 9.371 66.59 44.48 89.35-104.8 51.48-252 309.9 4.873 328.7 355.4 25.95 177.4-280.8 55.58-331m30.52 203.8c-1.093 10.08-6.433 19.19-14.42 25.37-8.428 6.532-19 9.57-29.5 10.42v11.13c0 2.979-1.301 5.86-3.531 7.832-3.065 2.712-7.569 3.381-11.29 1.667-3.673-1.69-6.086-5.457-6.086-9.499v-12.17c-1.801-0.342-3.589-0.749-5.356-1.234-9.816-2.697-18.92-7.954-25.57-15.73-3.313-3.877-6.01-8.276-7.882-13.02-0.488-1.241-0.923-2.505-1.304-3.783-0.345-1.157-0.701-2.333-0.824-3.539-0.207-2.023 0.194-4.087 1.137-5.889 1.938-3.707 6.02-5.946 10.19-5.574 4.104 0.364 7.701 3.212 8.993 7.124 0.398 1.205 0.668 2.44 1.115 3.632 0.443 1.184 0.978 2.335 1.607 3.431 1.242 2.158 2.798 4.148 4.59 5.875 3.694 3.559 8.399 5.872 13.3 7.248v-41.36c-9.591-2.483-19.49-5.69-27.41-11.85-3.849-2.994-7.115-6.714-9.254-11.12-2.257-4.647-3.192-9.824-3.23-14.97-0.039-5.221 0.953-10.4 3.131-15.15 2.04-4.454 4.977-8.453 8.578-11.77 7.7-7.087 17.93-11.04 28.19-12.49v-11.56c0-2.978 1.301-5.86 3.531-7.832 3.066-2.711 7.568-3.381 11.29-1.667 3.672 1.691 6.086 5.457 6.086 9.499v11.49c1.367 0.172 2.73 0.378 4.086 0.624 10.07 1.823 19.93 5.983 27.29 13.25 3.49 3.44 6.347 7.539 8.356 12.01 0.561 1.247 1.052 2.523 1.477 3.824 0.396 1.213 0.794 2.462 0.983 3.728 0.302 2.02-6e-3 4.109-0.871 5.958-1.772 3.788-5.746 6.2-9.927 6.02-4.108-0.179-7.83-2.854-9.301-6.694-0.438-1.142-0.657-2.351-1.104-3.49-0.451-1.153-1.035-2.253-1.708-3.292-1.308-2.02-3-3.752-4.938-5.179-4.19-3.094-9.272-4.706-14.35-5.607v39.58c6.03 1.445 12.07 3.02 17.86 5.301 8.739 3.446 17.02 8.73 21.79 17.06-0.74-1.298-1.46-2.563 0.025 0.043 1.458 2.56 0.762 1.34 0.03 0.057 3.795 6.688 5.04 14.68 4.217 22.28z"/><path d="m242.49 300.17c-.061.109-.114.205-.156.278.036-.063.09-.158.156-.278"/></g></svg>
