<svg viewBox="0 0 22 22" xmlns="http://www.w3.org/2000/svg"><path transform="matrix(.9422 0 0 .9422 -.269 1.096)" d="M6 3A1 1 0 0 0 5 4 1 1 0 0 0 6 5 1 1 0 0 0 7 4 1 1 0 0 0 6 3M7 6L7.01 19 10.9 14.301 17 14 7 6" fill="#4d4d4d" fill-rule="evenodd"/><path transform="matrix(.03764 0 0 .03764 12.83 2.98)" d="m117.2 31.59c-5.595-9.586-13.18-17.18-22.77-22.77-9.588-5.595-20.06-8.392-31.41-8.392-11.35 0-21.82 2.797-31.41 8.392-9.587 5.594-17.18 13.18-22.77 22.77-5.596 9.587-8.393 20.06-8.393 31.41 0 11.35 2.798 21.82 8.392 31.41 5.595 9.585 13.18 17.18 22.77 22.77 9.587 5.595 20.06 8.392 31.41 8.392 11.35 0 21.82-2.797 31.41-8.392 9.586-5.594 17.18-13.18 22.77-22.77 5.594-9.587 8.391-20.06 8.391-31.41 0-11.35-2.797-21.82-8.39-31.41m-24.69 46.15c1.032 1.031 1.549 2.255 1.549 3.667 0 1.466-0.517 2.716-1.549 3.747l-7.332 7.333c-1.032 1.032-2.281 1.548-3.748 1.548-1.412 0-2.636-0.516-3.666-1.548l-14.75-14.75-14.75 14.75c-1.032 1.032-2.254 1.548-3.666 1.548-1.467 0-2.716-0.516-3.748-1.548l-7.333-7.333c-1.032-1.031-1.548-2.281-1.548-3.747 0-1.412 0.516-2.636 1.548-3.667l14.75-14.75-14.75-14.75c-1.032-1.031-1.548-2.254-1.548-3.666 0-1.467 0.516-2.716 1.548-3.748l7.333-7.332c1.032-1.032 2.281-1.548 3.748-1.548 1.412 0 2.634 0.516 3.666 1.548l14.75 14.75 14.75-14.75c1.03-1.032 2.254-1.548 3.666-1.548 1.467 0 2.716 0.516 3.748 1.548l7.332 7.332c1.032 1.032 1.549 2.281 1.549 3.748 0 1.412-0.517 2.635-1.549 3.666l-14.75 14.75 14.75 14.75" fill="#da4453"/></svg>
