<svg viewBox="0 0 22 22" xmlns="http://www.w3.org/2000/svg"><g transform="matrix(.137 0 0 .137 1 3.466)" fill="#4d4d4d"><path d="m103.1 65.22c4.291-6.219 6.438-13.1 6.438-20.65 0-2.118-0.217-4.399-0.652-6.844l-22.81 40.9c7.06-2.715 12.74-7.184 17.03-13.4"/><path d="m106.4 8.886c0.055-0.108 0.08-0.353 0.08-0.733 0-0.924-0.434-1.656-1.305-2.202-0.162-0.108-0.691-0.421-1.588-0.938-0.896-0.515-1.752-1.018-2.566-1.507s-1.709-0.991-2.688-1.507c-0.978-0.516-1.819-0.937-2.524-1.263-0.707-0.326-1.196-0.489-1.467-0.489-0.978 0-1.738 0.435-2.281 1.304l-4.399 7.903c-4.942-0.923-9.831-1.385-14.66-1.385-14.61 0-28.08 3.694-40.41 11.08-12.33 7.388-22.65 17.46-30.96 30.23-1.087 1.685-1.63 3.559-1.63 5.623s0.543 3.938 1.63 5.621c4.779 7.441 10.44 14.1 16.99 19.96 6.545 5.867 13.7 10.56 21.47 14.1-2.39 4.073-3.585 6.436-3.585 7.088 0 0.978 0.435 1.738 1.304 2.281 6.626 3.803 10.26 5.703 10.92 5.703 0.977 0 1.738-0.436 2.281-1.305l3.992-7.25c5.758-10.26 14.34-25.66 25.75-46.19 11.41-20.53 19.96-35.9 25.66-46.11m-61.19 76.67c-14.12-6.355-25.72-16.54-34.79-30.55 8.256-12.82 18.6-22.41 31.04-28.76-3.313 5.648-4.97 11.76-4.97 18.33 0 5.812 1.33 11.32 3.992 16.54 2.662 5.214 6.355 9.531 11.08 12.95l-6.355 11.49z"/><path d="m144.4 49.38c-3.097-5.159-7.02-10.16-11.77-14.99-4.751-4.834-9.709-8.988-14.87-12.46l-5.133 9.125c9.07 6.246 16.73 14.23 22.98 23.95-6.571 10.21-14.76 18.55-24.56 25.01-9.805 6.466-20.46 10.18-31.98 11.16l-6.03 10.76c12.06 0 23.45-2.58 34.18-7.74 10.73-5.158 20.16-12.41 28.31-21.75 3.802-4.4 6.762-8.338 8.881-11.81 1.086-1.847 1.629-3.722 1.629-5.622 0-1.901-0.543-3.775-1.63-5.623"/></g></svg>
