<svg viewBox="0 0 22 22" xmlns="http://www.w3.org/2000/svg"><g transform="translate(-327-533.36)" fill="#4d4d4d"><path transform="matrix(.03923 0 0 .03923 330 536.4)" d="m354 203.9c35.14-21 47.05-66.38 26.51-102-20.54-35.58-65.79-47.96-101.6-28.02-0.61-40.93-33.96-73.93-75.04-73.93-41.08 0-74.43 33-75.04 73.94-35.75-19.94-81.01-7.557-101.6 28.02-20.54 35.57-8.636 80.96 26.51 102-35.15 21-47.05 66.38-26.51 102 20.54 35.58 65.8 47.96 101.6 28.02 0.607 40.94 33.96 73.94 75.04 73.94 41.08 0 74.43-33 75.04-73.94 35.75 19.94 81.01 7.557 101.6-28.02 20.54-35.58 8.635-80.96-26.51-102m-150.1 68.74c-37.97 0-68.74-30.78-68.74-68.74 0-37.97 30.78-68.74 68.74-68.74 37.96 0 68.74 30.78 68.74 68.74 0 37.97-30.78 68.74-68.74 68.74"/><circle cx="338" cy="544.4" r="1.5" fill-rule="evenodd"/></g></svg>
