<svg viewBox="0 0 22 22" xmlns="http://www.w3.org/2000/svg"><g transform="translate(0 -1030)"><g fill="#1d99f3"><path transform="translate(-1 1029)" d="m13 16v1h1v2h-1v1h7v-1h-1v-2h1v-1h-7m2 1h1v2h-1v-2m2 0h1v2h-1v-2"/><path d="m16 1033v1h1v2h-1v1h3v-1h-1v-2h1v-1h-3"/><path d="m14 1039v1h1v2h-1v1h5v-1h-1v-2h1v-1h-5m2 1h1v2h-1v-2"/></g><g><path d="m3 1045h7v1h-7z" fill="#4d4d4d"/><g fill="#1d99f3"><path d="m10 1047h1v1h-1z"/><g><path d="m8 1047h1v1h-1z"/><path d="m6 1047h1v1h-1z"/></g></g><g fill="#4d4d4d"><path d="m3 1039h8v1h-8z"/><path d="m3 1033h10v1h-10z"/></g><g><g fill="#1d99f3"><path d="m14 1035h1v1h-1z"/><path d="m12 1035h1v1h-1z"/><path d="m10 1035h1v1h-1z"/><path d="m12 1041h1v1h-1z"/><path d="m10 1041h1v1h-1z"/><path d="m8 1041h1v1h-1z"/></g><g fill="#4d4d4d"><path d="m3 1035h6v1h-6z"/><path d="m3 1041h4v1h-4z"/><path d="m3 1047h2v1h-2z"/></g></g></g></g></svg>
