<svg viewBox="0 0 24 24" xmlns="http://www.w3.org/2000/svg"><g transform="translate(-326.6 -531.7)" fill="#4d4d4d"><path d="m332.1 540.03c0 .438.761.427.761 0v-3.229c0-.409-.242-.519-.507-.404l-.813.3c-.525.173-.248.853.213.703l.346-.138v2.768"/><path d="m331.25 545.76c-.249.26-.104.607.254.607h2.243c.503 0 .445-.746 0-.746h-.671c-.254 0-.561.035-.815.035.41-.243.699-.451 1.121-.809 1.098-1.069.555-2.48-.815-2.48-.503 0-1.01.202-1.266.711-.231.52.376.763.607.399.15-.237.41-.387.659-.387.78 0 .786.832.254 1.249-.561.509-1.052.867-1.572 1.422"/><g stroke="#4d4d4d" stroke-linecap="round" stroke-linejoin="round"><rect x="337" y="536.6" width="9" height="1.104" rx=".552" stroke-width=".343"/><rect x="337" y="538.4" width="6" height="1.104" rx=".552" stroke-width=".28"/><rect x="337" y="542.4" width="9" height="1.104" rx=".552" stroke-width=".343"/><rect x="337" y="544.2" width="3" height="1.104" rx=".552" stroke-width=".198"/><rect x="337" y="548.1" width="9" height="1.104" rx=".552" stroke-width=".343"/><rect x="337" y="549.9" width="6" height="1.104" rx=".552" stroke-width=".28"/></g></g></svg>
