<svg viewBox="0 0 22 22" xmlns="http://www.w3.org/2000/svg"><path transform="matrix(.03565 0 0 .03565 1 1)" d="m373.8 91.45v344.7c0 12.54-16.44 17.56-23.2 7-38.71-60.34-76.95-91.98-211.2-98.68l42.39 137.8h-63.35l-42.88-139.4c-42-1.924-75.53-36.62-75.53-79.1 0-43.72 35.48-79.29 79.19-79.29 184.1 0 227.4-31.52 271.4-100.1 6.771-10.55 23.21-5.528 23.21 7.01m109.1 189c0 33.03-11.11 63.36-27.83 86.31 0 0-6.697 9.173-17.82 9.173-11.44 0-21.55-9.608-21.55-21.66 0-7.119 4.264-12.91 4.264-12.91 7.957-11.64 19.61-29.5 19.61-60.91s-11.65-49.29-19.61-60.92c0 0-4.264-5.787-4.264-12.91 0-12.06 10.11-21.66 21.55-21.66 11.12 0 17.82 9.173 17.82 9.173 16.73 22.96 27.83 53.29 27.83 86.32m-16.08-125s-9.777-6.991-9.777-17.94c0-12.33 10.12-21.75 21.66-21.75 7.42 0 14.25 5.229 14.25 5.229 26.19 19.58 68.07 69.77 68.07 159.5 0 89.72-41.89 139.9-68.07 159.5 0 0-6.834 5.229-14.25 5.229-11.53 0-21.67-9.418-21.67-21.75 0-10.96 9.779-17.94 9.779-17.94 30.48-22.49 50.88-67.44 50.88-125 0-57.59-20.4-102.5-50.87-125" fill="#4d4d4d"/></svg>
