<svg viewBox="0 0 22 22" xmlns="http://www.w3.org/2000/svg"><path transform="matrix(.09974 0 0 -.09974 144.4 59.92)" d="m-1337 413.9c5.702 0 10.31 4.633 10.31 10.33v109.4l42.58-42.58c4.04-4.03 10.57-4.01 14.62 0.026 4.04 4.03 4.04 10.55 0 14.59l-58.42 58.45c-2.479 2.468-5.887 3.232-9.09 2.664-3.213 0.568-6.61-0.186-9.09-2.665l-58.42-58.45c-4.04-4.03-4.04-10.55 0-14.59 4.03-4.04 10.55-4.04 14.59 0l42.58 42.56v-109.4c0-5.702 4.633-10.33 10.33-10.33z" fill="#4d4d4d" stroke="#4d4d4d" stroke-linecap="round" stroke-linejoin="round" stroke-width="7.414"/></svg>
