<svg viewBox="0 0 22 22" xmlns="http://www.w3.org/2000/svg" xmlns:xlink="http://www.w3.org/1999/xlink"><defs><path id="a" d="m117.2 31.59c-5.595-9.586-13.18-17.18-22.77-22.77-9.588-5.595-20.06-8.392-31.41-8.392-11.35 0-21.82 2.797-31.41 8.392-9.587 5.594-17.18 13.18-22.77 22.77-5.596 9.587-8.393 20.06-8.393 31.41 0 11.35 2.798 21.82 8.392 31.41 5.595 9.585 13.18 17.18 22.77 22.77 9.587 5.595 20.06 8.392 31.41 8.392 11.35 0 21.82-2.797 31.41-8.392 9.586-5.594 17.18-13.18 22.77-22.77 5.594-9.587 8.391-20.06 8.391-31.41 0-11.35-2.797-21.82-8.39-31.41"/><path id="b" d="m345.4 248.3-194.3 194.3c-12.36 12.36-32.4 12.36-44.75 0-12.35-12.35-12.35-32.39 0-44.74l171.9-171.9-171.9-171.9c-12.35-12.36-12.35-32.39 0-44.75 12.35-12.36 32.39-12.36 44.75 0l194.3 194.3c6.177 6.18 9.262 14.27 9.262 22.37 0 8.099-3.091 16.2-9.267 22.37" fill="#4d4d4d"/></defs><g transform="matrix(.9989 0 0 .9989 -461.2 -525.2)"><g transform="matrix(.7504 0 0 .7504 136.9 131.8)" fill="#4d4d4d"><use transform="matrix(.05594 0 0 .05594 439.4 531.7)" xlink:href="#a"/><use transform="matrix(.05594 0 0 .05594 439.5 540.7)" xlink:href="#a"/><use transform="matrix(.05594 0 0 .05594 448.6 531.7)" xlink:href="#a"/></g><g transform="translate(-82.84-217.13)"><path transform="matrix(-.00837-.00832.00832-.00837 548.8 750.88)" d="m345.4 248.3-194.3 194.3c-12.36 12.36-32.4 12.36-44.75 0-12.35-12.35-12.35-32.39 0-44.74l171.9-171.9-171.9-171.9c-12.35-12.36-12.35-32.39 0-44.75 12.35-12.36 32.39-12.36 44.75 0l194.3 194.3c6.177 6.18 9.262 14.27 9.262 22.37 0 8.099-3.091 16.2-9.267 22.37" fill="#4d4d4d"/><use transform="matrix(.00837-.00832-.00832-.00837 562.33 750.88)" xlink:href="#b"/><g transform="matrix(1 0 0 -1 -.029 1508)"><use transform="matrix(-.00837-.00832.00832-.00837 548.8 750.88)" xlink:href="#b"/><use transform="matrix(.00837-.00832-.00832-.00837 562.33 750.88)" xlink:href="#b"/></g></g><use transform="matrix(.04198 0 0 .04198 473.5 537.5)" fill="#4d4d4d" xlink:href="#a"/></g></svg>
