<svg viewBox="0 0 22 22" xmlns="http://www.w3.org/2000/svg"><path transform="matrix(1 0 0 1 0 .008)" d="m11 3c-4.669 0-8.469 3.186-8.469 7.102 0 2.124 1.103 4.099 3.035 5.451.183 1.107-.452 2.265-.459 2.277-.145.256-.134.569.029.816.146.221.39.354.654.354.028 0 .057-.0001.086-.004.823-.091 2.151-.717 3.949-1.859.387.045.781.066 1.174.066 4.67 0 8.469-3.186 8.469-7.102 0-3.916-3.799-7.102-8.469-7.102m-.635 4.613h1.059v2.117h2.117v1.059h-2.117v2.117h-1.059v-2.117h-2.117v-1.059h2.117v-2.117" fill="#4d4d4d"/></svg>
