<svg viewBox="0 0 22 22" xmlns="http://www.w3.org/2000/svg"><g transform="matrix(.99843 0 0 .99843-552.8-582.2)"><g transform="matrix(1.343 0 0 1.343 553.9 -808.6)"><g transform="matrix(.3794 0 0 .3794 1.205 1038)"><g fill="#4d4d4d"><path d="m4.8 32.02c-.5 0-.9-.344-1-.774l-.7-5.246h8.1 13.6 8.1l-.7 5.246c-.1.43-.5.774-1 .774z"/><path transform="matrix(1 0 0 .8217 0 4.457)" d="m31.8 27-0.5 5h-26.5l-0.5-5h27.5m2.2-2h-32l0.497 7.2c0.1 1 0.698 1.8 1.698 1.8h27.71c1 0 1.598-0.8 1.698-1.8z"/></g><path d="m25 26h-14-7.8l-.2-1 2.7-21.3c.1-1 .697-1.7 1.697-1.7h21.21c1 0 1.497.7 1.697 1.7l2.7 21.3-.6 1" fill="none" fill-opacity=".12" stroke="#4d4d4d" stroke-linejoin="round" stroke-miterlimit="10" stroke-width="2"/></g><path transform="matrix(.8192 0 0 .8192 -331.3 599.9)" d="m412.9 538.2a0.4236 0.3666 0 0 0-0.4236 0.3666 0.4236 0.3666 0 0 0 0.4236 0.3666 0.4236 0.3666 0 0 0 0.4236-0.3666 0.4236 0.3666 0 0 0-0.4236-0.3666m2.118 0-0.847 0.733 1.694 1.466-1.694 1.466 0.847 0.733 2.542-2.2-2.542-2.2m-3.389 2.2a0.8472 0.7332 0 0 0-0.8472 0.7332 0.8472 0.7332 0 0 0 0.8472 0.7332 0.8472 0.7332 0 0 0 0.8472-0.7332 0.8472 0.7332 0 0 0-0.8472-0.7332m1.694 2.2a0.8472 0.7332 0 0 0-0.8472 0.7332 0.8472 0.7332 0 0 0 0.8472 0.7332 0.8472 0.7332 0 0 0 0.8472-0.7332 0.8472 0.7332 0 0 0-0.8472-0.7332" fill="#4d4d4d"/></g><g transform="translate(549.5-443.22)"><rect x="7" y="1037" width="8" height="8" rx="4" fill="#32c671"/><path transform="matrix(.0436 0 0 .0436 8.177 1040)" d="m123.9 12.97-11.08-11.08c-1.52-1.521-3.368-2.281-5.54-2.281-2.173 0-4.02 0.76-5.541 2.281l-53.45 53.53-23.95-24.04c-1.521-1.521-3.368-2.281-5.54-2.281-2.173 0-4.02 0.76-5.541 2.281l-11.08 11.08c-1.521 1.521-2.281 3.368-2.281 5.541 0 2.172 0.76 4.02 2.281 5.54l40.57 40.57c1.52 1.521 3.367 2.281 5.54 2.281 2.172 0 4.02-0.761 5.54-2.281l70.07-70.07c1.52-1.521 2.281-3.368 2.281-5.541 1e-4 -2.172-0.761-4.02-2.281-5.54" fill="#fff" stroke-width="9.512"/></g></g></svg>
