<svg viewBox="0 0 22 22" xmlns="http://www.w3.org/2000/svg"><g transform="translate(-327-533.36)"><path transform="matrix(.1908 0 0 .1908 319.4 543.4)" d="m43.887-36.699c-1.108 0-2 .892-2 2v81.61l111 .24v-70.04c0-1.108-.892-2-2-2h-60.17c-2.039.18-2.301-.09-3.308-1.435-1.429-1.912-3.586-7.06-4.992-8.929-1.129-1.633-1.312-1.443-3.184-1.443z" fill="#4d4d4d"/><g transform="matrix(.06638 0 0 .06638 333.8 541.6)" fill="#ff5061"><path d="m124 7.191c-1.031-1.031-2.254-1.548-3.666-1.548s-2.633 0.517-3.666 1.548l-10.59 10.51c-5.812-5.486-12.47-9.737-19.96-12.75-7.494-3.01-15.21-4.521-23.14-4.521-14.94 0-27.97 4.521-39.11 13.56-11.14 9.04-18.47 20.84-22 35.4v0.57c0 0.706 0.258 1.317 0.774 1.833s1.127 0.774 1.833 0.774h16.21c1.195 0 2.01-0.625 2.444-1.874 2.281-5.431 3.72-8.608 4.318-9.532 3.802-6.192 8.853-11.05 15.15-14.58 6.301-3.53 13.09-5.296 20.37-5.296 10.92 0 20.4 3.721 28.44 11.16l-11.24 11.24c-1.03 1.032-1.547 2.255-1.547 3.667s0.517 2.634 1.547 3.666c1.033 1.032 2.256 1.548 3.668 1.548h36.5c1.412 0 2.634-0.516 3.666-1.548 1.031-1.032 1.547-2.254 1.547-3.666v-36.5c0-1.412-0.513-2.634-1.547-3.666"/><path d="m120.9 73.43h-15.64c-1.194 0-2.01 0.624-2.443 1.874-2.28 5.432-3.72 8.608-4.317 9.532-3.803 6.19-8.854 11.05-15.15 14.58-6.301 3.531-13.09 5.296-20.37 5.296-5.268 0-10.35-0.977-15.24-2.933s-9.261-4.727-13.12-8.312l11.16-11.16c1.032-1.031 1.548-2.255 1.548-3.666 0-1.412-0.516-2.635-1.548-3.666-1.032-1.033-2.254-1.549-3.666-1.549h-36.5c-1.413 0-2.635 0.516-3.667 1.549-1.032 1.031-1.548 2.254-1.548 3.666v36.5c0 1.411 0.516 2.635 1.548 3.666 1.033 1.031 2.255 1.549 3.667 1.549s2.634-0.518 3.666-1.549l10.51-10.51c5.812 5.54 12.42 9.804 19.84 12.79 7.414 2.988 15.09 4.481 23.02 4.481 14.88 0 27.86-4.521 38.94-13.56 11.08-9.04 18.36-20.84 21.84-35.4 0.055-0.108 0.081-0.299 0.081-0.57 0-0.706-0.259-1.316-0.775-1.833-0.517-0.514-1.128-0.773-1.834-0.773"/></g></g></svg>
