<svg viewBox="0 0 22 22" xmlns="http://www.w3.org/2000/svg"><g transform="translate(0 -1030)" fill="#4d4d4d"><circle cx="3.5" cy="1043" r=".5"/><circle cx="4.5" cy="1045" r=".5"/><circle cx="5.5" cy="1047" r=".5"/><circle cx="7.5" cy="1048" r=".5"/><circle cx="9.5" cy="1049" r=".5"/><circle cx="4.5" cy="1038" r=".5"/><circle cx="3.5" cy="1040" r=".5"/><circle cx="5.5" cy="1036" r=".5"/><circle cx="7.5" cy="1035" r=".5"/><circle cx="9.5" cy="1034" r=".5"/><circle cx="14.5" cy="1035" r=".5"/><circle cx="12.5" cy="1034" r=".5"/><circle cx="16.5" cy="1036" r=".5"/><circle cx="17.5" cy="1038" r=".5"/><circle cx="18.5" cy="1040" r=".5"/><circle cx="18.5" cy="1043" r=".5"/><circle cx="17.5" cy="1045" r=".5"/><circle cx="16.5" cy="1047" r=".5"/><circle cx="14.5" cy="1048" r=".5"/><circle cx="12.5" cy="1049" r=".5"/></g></svg>
