<svg viewBox="0 0 22 22" xmlns="http://www.w3.org/2000/svg"><g fill="#4d4d4d"><path d="m4 9v8a7 2 0 0 0 7 2 7 2 0 0 0 7-2v-8a7 2 0 0 1-1 1.025v6.975a6 1 0 0 1-6 1 6 1 0 0 1-6-1v-6.975a7 2 0 0 1-1-1.025"/><path d="m4 9a7 3 0 0 0 7 3 7 3 0 0 0 7-3h-1a6 2 0 0 1-6 2 6 2 0 0 1-6-2h-1"/><path d="m11 3a7 6 0 0 0-7 6h1a6 5 0 0 1 6-5 6 5 0 0 1 6 5h1a7 6 0 0 0-7-6"/><path d="m11 3a7 6 0 0 0-1.082 0.07617c-1.798 1.477-2.678 4.159-2.878 6.424a6 2 0 0 0 3.96 0.5c0.36-3.011 1.588-4.96 2.686-6.539a7 6 0 0 0-2.686-0.461" fill-rule="evenodd"/></g></svg>
