<svg viewBox="0 0 22 22" xmlns="http://www.w3.org/2000/svg"><path transform="translate(0 -1030)" d="m9 1035c-3.866 0-7 2.679-7 5.984s2.134 5.766 6 5.766c-3.222 0-4.834-3.01-4.834-5.766 0-2.754 2.612-4.987 5.834-4.987 1.456 0 2.771 0.474 3.793 1.228a5 3.916 0 0 0-1.793-0.2658 5 3.916 0 0 0-5 3.916v1e-3a5 3.916 0 0 0 0.01953 0.3175c0.193 3.23 3.239 5.8 6.98 5.8 3.866 0 7-2.742 7-6.123s-2.134-5.877-6-5.877c3.222 0 4.834 3.057 4.834 5.875s-2.612 5.102-5.834 5.102c-1.673 0-3.177-0.62-4.24-1.606a5 3.916 0 0 0 2.24 0.4183 5 3.916 0 0 0 4.992-3.808h8e-3c0-0.019-4e-3 -0.038-4e-3 -0.057a5 3.916 0 0 0 0.0039-0.052 5 3.916 0 0 0-0.03125-0.3997c-0.303-3.066-3.304-5.475-6.969-5.475" fill="#4d4d4d"/></svg>
