<svg viewBox="0 0 22 22" xmlns="http://www.w3.org/2000/svg"><path transform="matrix(.1818 0 0 -.1818 3 19)" d="m54.82 83.3c-0.143 1.545 1.084 2.918 2.727 3.055l19.93 1.637c1.643 0.138 3.105-1.018 3.25-2.562l1.555-16.43-25.9-2.132-1.558 16.43m-49.1-14.3 1.557 16.43c0.143 1.544 1.607 2.7 3.25 2.562l19.93-1.637c1.639-0.137 2.867-1.51 2.727-3.055l-1.557-16.43-25.9 2.132m-2.567-27.08 1.606 16.95 25.9-2.131-1.605-16.93c-0.037-0.407-0.057-0.829-0.057-1.245 0-7.777 6.729-14.11 15-14.11s15 6.329 15 14.11c0 0.416-0.02 0.838-0.057 1.246l-1.605 16.93 25.9 2.131 1.605-16.95c0.102-1.12 0.155-2.244 0.155-3.358 0-21.26-18.39-38.56-41-38.56s-41 17.29-41 38.56c0 1.114 0.053 2.238 0.154 3.358" fill="#4d4d4d"/></svg>
