<svg viewBox="0 0 22 22" xmlns="http://www.w3.org/2000/svg"><g transform="translate(-544.6 -742.9)" color="#4d4d4d"><path d="m547.6 755.9v6h6v-6h-6m1 1h4v4h-4v-4"/><g fill-rule="evenodd"><path d="m549.6 745.9h-2v2h1v-1h1z"/><path d="m563.6 759.9v2h-2v-1h1v-1z"/></g><path transform="rotate(90)" d="m760.9-558.6h1v2h-1z"/><path d="m560.7 752.3-0.707-0.707 1.621-1.621h-4.657v-1h4.657l-1.621-1.621 0.707-0.707 2.828 2.828-2.828 2.828"/><path d="m547.6 750.9h1v2h-1z"/><path d="m552.6 745.9h2v1h-2z"/><path d="m562.6 754.9h1v2h-1z"/></g></svg>
