<svg viewBox="0 0 22 22" xmlns="http://www.w3.org/2000/svg"><g transform="translate(-544.6 -742.9)" color="#4d4d4d"><path d="m553.6 761.9h-6v-6h6v6m-1-1v-4h-4v4h4"/><g fill-rule="evenodd"><path d="m563.6 759.9v2h-2v-1h1v-1z"/><path d="m549.6 745.9h-2v2h1v-1h1z"/></g><path transform="scale(-1 1)" d="m-548.6 750.9h1v2h-1z"/><path d="m557.2 748.8 0.707 0.707 1.621-1.621v4.657h1v-4.657l1.621 1.621 0.707-0.707-2.828-2.828-2.828 2.828"/><g transform="matrix(0-1-1 0 0 0)"><path d="m-761.9-558.6h1v2h-1z"/><path d="m-756.9-563.6h2v1h-2z"/><path d="m-746.9-554.6h1v2h-1z"/></g></g></svg>
