<svg viewBox="0 0 22 22" xmlns="http://www.w3.org/2000/svg"><g transform="translate(-326-534.36)" fill="#4d4d4d"><g transform="translate(-95.71 8.571)"><g transform="translate(3-2.565)"><path transform="translate(-18 2.565)" d="m447.7 528.8 8.434 4.217-8.434 4.217-8.435-4.217z"/><path d="m429.7 545-6.083-3.042-2.351 1.176 8.435 4.217 8.434-4.217-2.351-1.176z"/></g><path transform="translate(-34.8-.124)" d="m467.5 538.8-6.083-3.042-2.351 1.176 8.435 4.217 8.434-4.217-2.351-1.176z"/></g><path transform="matrix(.12214.02702-.02708.12213 322.5 516.71)" d="m196.26 132.44l-9.211-3.895c-.854-.362-1.818-.368-2.679-.02-.86.349-1.547 1.025-1.908 1.88l-55 130.08c-.753 1.78.08 3.834 1.861 4.587l9.211 3.895c.435.185.899.276 1.363.276.447 0 .894-.086 1.316-.257.86-.349 1.546-1.025 1.908-1.88l55-130.08c.752-1.78-.081-3.833-1.861-4.586" stroke-opacity=".8"/></g></svg>
