<svg viewBox="0 0 22 22" xmlns="http://www.w3.org/2000/svg"><g transform="translate(-544.6 -742.9)" fill="#4d4d4d"><path d="m555.6 750.9a8 3 0 0 0-8 3h1a7 2 0 0 1 7-2 7 2 0 0 1 7 2h1a8 3 0 0 0-8-3"/><path d="m555.6 756.9a8 3 0 0 0 8-3h-1a7 2 0 0 1-7 2 7 2 0 0 1-7-2h-1a8 3 0 0 0 8 3"/><path d="m547.6 749.9h1v8h-1z"/><path d="m562.6 749.9h1v8h-1z"/><path transform="translate(544.6 742.9)" d="m11 5a11 6 0 0 0-8 1.889v1.121a10 5 0 0 1 8-2.01 10 5 0 0 1 8 2.01v-1.117a11 6 0 0 0-8-1.893"/><path d="m555.6 759.9a11 6 0 0 1-8-1.889v-1.121a10 5 0 0 0 8 2.01 10 5 0 0 0 8-2.01v1.117a11 6 0 0 1-8 1.893"/><path transform="translate(544.6 742.9)" d="m3 3v16h16v-16h-16m1 1h14v14h-14v-14"/></g></svg>
