<svg viewBox="0 0 22 22" xmlns="http://www.w3.org/2000/svg"><g transform="matrix(1.765 0 0 1.765 -50.25 -1827)" fill="#4d4d4d"><g><rect x="29" y="1042" width="7" height="1" rx=".5"/><rect x="29" y="1040" width="8" height="1" rx=".5"/><rect x="29" y="1038" width="10" height="1" rx=".5"/><rect x="30" y="1044" width="7" height="1" rx=".5"/></g><path transform="matrix(.03099 0 0 .03099 36.59 1041)" d="m121.4 2.114-11.08-11.08c-1.52-1.521-3.368-2.281-5.54-2.281-2.173 0-4.02 0.76-5.541 2.281l-53.45 53.53-23.95-24.04c-1.521-1.521-3.368-2.281-5.54-2.281-2.173 0-4.02 0.76-5.541 2.281l-11.08 11.08c-1.521 1.521-2.281 3.368-2.281 5.541 0 2.172 0.76 4.02 2.281 5.54l40.57 40.57c1.52 1.521 3.367 2.281 5.54 2.281 2.172 0 4.02-0.761 5.54-2.281l70.07-70.07c1.52-1.521 2.281-3.368 2.281-5.541 1e-4 -2.172-0.761-4.02-2.281-5.54"/></g></svg>
