<svg viewBox="0 0 22 22" xmlns="http://www.w3.org/2000/svg"><g transform="matrix(-5.021 0 0 5.021 1726 -2745)" fill="#4d4d4d" stroke="#4d4d4d"><path transform="matrix(.00664 -2e-5 2e-5 .00664 340.3 547.5)" d="m345.4 248.3-194.3 194.3c-12.36 12.36-32.4 12.36-44.75 0-12.35-12.35-12.35-32.39 0-44.74l171.9-171.9-171.9-171.9c-12.35-12.36-12.35-32.39 0-44.75 12.35-12.36 32.39-12.36 44.75 0l194.3 194.3c6.177 6.18 9.262 14.27 9.262 22.37 0 8.099-3.091 16.2-9.267 22.37z" stroke-width="28.32"/><circle cx="340.7" cy="549" r=".421" fill-rule="evenodd" stroke-linecap="square" stroke-width=".158"/></g></svg>
