<svg viewBox="0 0 22 22" xmlns="http://www.w3.org/2000/svg"><g transform="matrix(1.56 0 0 1.56 -42.04 -1609)" fill="#4d4d4d"><g transform="translate(1-1.3)"><rect x="29" y="1040" width="8" height="1" rx=".5"/><rect x="29" y="1042" width="8" height="1" rx=".5"/><rect x="29" y="1044" width="8" height="1" rx=".5"/></g><path transform="matrix(-.01875 -7e-5 -7e-5 .01875 21.24 1035)" d="m-595.8 19.88-91.73 91.72c-5.835 5.838-15.3 5.838-21.13 0-5.833-5.833-5.833-15.29 0-21.12l81.16-81.16-81.16-81.16c-5.833-5.835-5.833-15.29 0-21.13 5.833-5.835 15.29-5.835 21.13 0l91.73 91.73c2.916 2.918 4.373 6.738 4.373 10.56 0 3.824-1.459 7.646-4.375 10.56z" stroke="#4d4d4d" stroke-width="28.32"/></g></svg>
