<svg viewBox="0 0 22 22" xmlns="http://www.w3.org/2000/svg" xmlns:xlink="http://www.w3.org/1999/xlink"><path id="a" transform="matrix(.02548 -9e-5 9e-5 .02548 11.56 5.26)" d="m345.4 248.3-194.3 194.3c-12.36 12.36-32.4 12.36-44.75 0-12.35-12.35-12.35-32.39 0-44.74l171.9-171.9-171.9-171.9c-12.35-12.36-12.35-32.39 0-44.75 12.35-12.36 32.39-12.36 44.75 0l194.3 194.3c6.177 6.18 9.262 14.27 9.262 22.37 0 8.099-3.091 16.2-9.267 22.37z" fill="#4d4d4d" stroke="#4d4d4d" stroke-width="28.32"/><circle transform="matrix(3.839 0 0 3.839 -1297 -2097)" cx="340.6" cy="549" r=".421" fill="#4d4d4d" fill-rule="evenodd" stroke="#4d4d4d" stroke-linecap="square" stroke-width=".158"/><use transform="matrix(-1 0 0 1 21.986.017)" xlink:href="#a"/></svg>
