<svg viewBox="0 0 22 22" xmlns="http://www.w3.org/2000/svg"><g transform="translate(-421.7 -525.8)"><path transform="translate(421.7 525.8)" d="m4.5 3c-0.828 0-1.5 0.672-1.5 1.5s0.672 1.5 1.5 1.5 1.5-0.672 1.5-1.5-0.672-1.5-1.5-1.5m0 12c-0.828 0-1.5 0.672-1.5 1.5s0.672 1.5 1.5 1.5 1.5-0.672 1.5-1.5-0.672-1.5-1.5-1.5" fill="#4d4d4d"/><g transform="matrix(.8791 0 0 1 153.25-7.961)" stroke-linecap="round" stroke-linejoin="round"><rect x="314.5" y="537.7" width="12.51" height="1.293" rx=".646" fill="#4d4d4d" stroke="#4d4d4d" stroke-width=".438"/><rect x="314.5" y="543.7" width="5.688" height="1.293" rx=".646" fill="#1d99f3" stroke="#1d99f3" stroke-width=".295"/></g><g transform="matrix(.8791 0 0 1 153.25-1.868)"><rect x="314.5" y="543.7" width="12.51" height="1.293" rx=".646" fill="#4d4d4d" stroke="#4d4d4d" stroke-linecap="round" stroke-linejoin="round" stroke-width=".438"/><path transform="matrix(0 .0189 -.0215 0 332.2 536.4)" d="m16.29 346.4 144.7-117.7c3.582-2.91 8.503-3.501 12.66-1.516 4.156 1.963 6.811 6.17 6.811 10.77v235.5c0 4.608-2.654 8.81-6.811 10.78-4.157 1.986-9.08 1.391-12.66-1.52l-144.7-117.7c-2.782-2.27-4.411-5.659-4.411-9.256 1e-4 -3.598 1.63-6.989 4.411-9.256" fill="#1d99f3"/></g><path d="m426.2 534.8c-0.828 0-1.5 0.672-1.5 1.5s0.672 1.5 1.5 1.5 1.5-0.672 1.5-1.5-0.672-1.5-1.5-1.5" fill="#1d99f3"/></g></svg>
