<svg viewBox="0 0 22 22" xmlns="http://www.w3.org/2000/svg"><g transform="translate(-421.7 -525.8)" fill="#4d4d4d"><path transform="translate(421.7 525.8)" d="m4.5 3c-0.828 0-1.5 0.672-1.5 1.5s0.672 1.5 1.5 1.5 1.5-0.672 1.5-1.5-0.672-1.5-1.5-1.5m0 6c-0.828 0-1.5 0.672-1.5 1.5s0.672 1.5 1.5 1.5 1.5-0.672 1.5-1.5-0.672-1.5-1.5-1.5m0 6c-0.828 0-1.5 0.672-1.5 1.5s0.672 1.5 1.5 1.5 1.5-0.672 1.5-1.5-0.672-1.5-1.5-1.5"/><g transform="matrix(.8791 0 0 1 153.25-7.961)" stroke="#4d4d4d" stroke-linecap="round" stroke-linejoin="round" stroke-width=".438"><rect x="314.5" y="537.7" width="12.51" height="1.293" rx=".646"/><rect x="314.5" y="543.7" width="12.51" height="1.293" rx=".646"/></g><path transform="translate(5 1.762)" d="m431.86 537.61v.727h-1.589l-1.32 1.628-1.32-1.628h-2.317v.727h2.01c-.0001.007.608.761 1.172 1.465l-1.172 1.445h-2.01v.727h2.355c0 0 .65-.814 1.281-1.601.632.787 1.281 1.601 1.281 1.601h1.628v.727l1.455-1.091-1.455-1.091v.727h-1.28l-1.172-1.445c.564-.704 1.173-1.459 1.172-1.465h1.28v.727l1.455-1.091z" fill-rule="evenodd"/></g></svg>
