<svg viewBox="0 0 22 22" xmlns="http://www.w3.org/2000/svg"><path transform="matrix(.04444 0 0 .04444 2.71 2.708)" d="m353.7 245.5h-334.4c-6.892 0-13.27-3.673-16.71-9.653-3.453-5.965-3.453-13.34 0-19.3l167.2-200.4c3.444-5.973 9.821-9.655 16.71-9.655 6.893 0 13.27 3.682 16.72 9.655l167.2 200.4c1.718 2.987 2.581 6.314 2.581 9.657 0 3.333-0.863 6.659-2.581 9.659-3.455 5.968-9.833 9.641-16.72 9.641m19.11 113.3v-63.7c0-4.263-3.46-7.722-7.729-7.722h-357.2c-4.264 0-7.721 3.459-7.721 7.722v63.7c0 4.264 3.457 7.72 7.721 7.72h357.2c4.269 6e-3 7.729-3.456 7.729-7.72" fill="#4d4d4d"/></svg>
