<svg viewBox="0 0 22 22" xmlns="http://www.w3.org/2000/svg"><g transform="translate(-421.7 -525.8)" fill="#4d4d4d"><path transform="translate(421.7 525.8)" d="m4.5 3c-0.828 0-1.5 0.672-1.5 1.5s0.672 1.5 1.5 1.5 1.5-0.672 1.5-1.5-0.672-1.5-1.5-1.5m0 6c-0.828 0-1.5 0.672-1.5 1.5s0.672 1.5 1.5 1.5 1.5-0.672 1.5-1.5-0.672-1.5-1.5-1.5m0 6c-0.828 0-1.5 0.672-1.5 1.5s0.672 1.5 1.5 1.5 1.5-0.672 1.5-1.5-0.672-1.5-1.5-1.5"/><path d="m430.9 540v4.167h0.833v-3.333h5v2.5h-1.667v-0.833l-2.5 1.25 2.5 1.25v-0.833h2.5v-4.166h-6.667"/><g transform="matrix(.8791 0 0 1 153.25-7.961)" stroke="#4d4d4d" stroke-linecap="round" stroke-linejoin="round" stroke-width=".438"><rect x="314.5" y="537.7" width="12.51" height="1.293" rx=".646"/><rect x="314.5" y="543.7" width="12.51" height="1.293" rx=".646"/></g></g></svg>
