<svg viewBox="0 0 22 22" xmlns="http://www.w3.org/2000/svg"><g transform="matrix(.7968 0 0 .7968 -258.3 -422)"><g transform="matrix(1.371 0 0 1.371 -259.4 -191.6)" fill="#fdbc4b"><rect x="438.7" y="528.8" width="2" height="2" rx="1"/><rect x="434.7" y="528.8" width="2" height="2" rx="1"/><rect x="430.7" y="528.8" width="2" height="2" rx="1"/></g><path transform="matrix(.6317 0 0 .6317 329.8 537.4)" d="m16.428 15.744c-.159-.052-1.164-.505-.536-2.414h-.009c1.637-1.686 2.888-4.399 2.888-7.07 0-4.107-2.731-6.26-5.905-6.26-3.176 0-5.892 2.152-5.892 6.26 0 2.682 1.244 5.406 2.891 7.088.642 1.684-.506 2.309-.746 2.396-2.238.724-8.325 4.332-8.229 9.586h24.05c.107-5.02-4.708-8.279-8.513-9.586" fill="#4d4d4d"/></g></svg>
