<svg viewBox="0 0 22 22" xmlns="http://www.w3.org/2000/svg"><g transform="translate(-421.7 -525.8)"><path transform="translate(421.7 525.8)" d="m4.5 3c-0.828 0-1.5 0.672-1.5 1.5s0.672 1.5 1.5 1.5 1.5-0.672 1.5-1.5-0.672-1.5-1.5-1.5m0 12c-0.828 0-1.5 0.672-1.5 1.5s0.672 1.5 1.5 1.5 1.5-0.672 1.5-1.5-0.672-1.5-1.5-1.5" fill="#4d4d4d"/><g transform="matrix(.8791 0 0 1 153.25-7.961)" stroke-linecap="round" stroke-linejoin="round" stroke-width=".438"><rect x="314.5" y="537.7" width="12.51" height="1.293" rx=".646" fill="#4d4d4d" stroke="#4d4d4d"/><rect x="314.5" y="543.7" width="12.51" height="1.293" rx=".646" fill="#1d99f3" stroke="#1d99f3"/></g><rect transform="matrix(.8791 0 0 1 153.25-1.868)" x="314.5" y="543.7" width="12.51" height="1.293" rx=".646" fill="#4d4d4d" stroke="#4d4d4d" stroke-linecap="round" stroke-linejoin="round" stroke-width=".438"/><path d="m426.2 534.8c-0.828 0-1.5 0.672-1.5 1.5s0.672 1.5 1.5 1.5 1.5-0.672 1.5-1.5-0.672-1.5-1.5-1.5" fill="#1d99f3"/></g></svg>
