<svg viewBox="0 0 22 22" xmlns="http://www.w3.org/2000/svg"><g transform="translate(-421.7 -525.8)"><g fill="#4d4d4d"><path d="m441.7 528.8c-5e-3 7.06-3.394 13-7.889 13.87l0.303 0.303-0.414 0.414v0.34c5.11-0.77 9-7.222 9-14.93h-1"/><path d="m422.72 528.79l-.002.002v.996l.002.002h.996l.002-.002v.006c4.313.75 7.625 6.163 7.965 12.789l.93-.93c-.623-6.763-4.25-12.163-8.895-12.863h-.002-.996m8.988 14.576c.002.112.001.221.001.334h.324l-.334-.334"/></g><path d="m429.9 543 2.828 2.828 2.828-2.828-2.828-2.828-2.828 2.828m1.414 0 1.414-1.414 1.414 1.414-1.414 1.414-1.414-1.414" fill="#1d99f3"/><g fill="#4d4d4d"><rect x="432.7" y="533.8" width="1" height="1" rx="0"/><rect x="432.7" y="535.8" width="1" height="1" rx="0"/><rect x="432.7" y="530.8" width="1" height="2" rx="0"/><rect x="438.7" y="542.8" width="2" height="1" rx="0"/><rect x="436.7" y="542.8" width="1" height="1" rx="0"/><path d="m431.7 528.8v3h3v-3h-3m1 1h1v1h-1v-1"/><path d="m439.7 541.8v3h3v-3h-3m1 1h1v1h-1v-1"/></g></g></svg>
