<svg viewBox="0 0 22 22" xmlns="http://www.w3.org/2000/svg"><g transform="translate(-327-534.36)"><g fill="#4d4d4d"><path transform="translate(326 532.4)" d="m2 4a10 15 0 0 0 8 14.68v-1.043a9 14 0 0 1-7-13.64h-1m19 0a9 14 0 0 1-7 13.63v1.063a10 15 0 0 0 8-14.7h-1z"/><rect x="332" y="550.4" width="2" height="1" rx="0"/><rect x="344" y="550.4" width="2" height="1" rx="0"/></g><path d="m335.5 548.4v5h5v-5zm1 1h3v3h-3z" fill="#1d99f3"/><g fill="#4d4d4d"><rect x="342" y="550.4" width="1" height="1" rx="0"/><path d="m330 549.4v3h3v-3h-3m1 1h1v1h-1v-1"/><path d="m345 549.4v3h3v-3h-3m1 1h1v1h-1v-1"/></g></g></svg>
