<svg viewBox="0 0 22 22" xmlns="http://www.w3.org/2000/svg"><path transform="translate(.0001-.002)" d="m4.307 3.471c-.463 0-.836.335-.836.752v13.555c0 .417.372.752.836.752h13.387c.463 0 .836-.335.836-.752v-13.555c0-.417-.372-.752-.836-.752h-13.387zm3.193359 1.529297a2.5 2.5 0 0 1 2.5 2.5 2.5 2.5 0 0 1 -2.5 2.5 2.5 2.5 0 0 1 -2.5 -2.5 2.5 2.5 0 0 1 2.5 -2.5zm5 0h4c.277 0 .5.223.5.5v4c0 .277-.223.5-.5.5h-4c-.277 0-.5-.223-.5-.5v-4c0-.277.223-.5.5-.5zm-6 7h2c.277 0 .5.223.5.5v4c0 .277-.223.5-.5.5h-2c-.277 0-.5-.223-.5-.5v-4c0-.277.223-.5.5-.5zm8 0l2.5 5h-5l2.5-5z" fill="#4d4d4d" stroke="#4d4d4d" stroke-width=".941"/></svg>
