<svg viewBox="0 0 24 24" xmlns="http://www.w3.org/2000/svg"><g transform="translate(-550.3 -606.6)" fill="#4d4d4d"><g transform="translate(551.3 607.6)"><path d="m4 3v14h-1v1h1v1h1v-1h14v-1h-14v-1h3v-8e-3l8e-3 8e-3 2-2h1.592l2 2h5.4v-1h-4.986l-2-2h-2.424l-2 2h-2.594v-4h5v-8e-3l8e-3 8e-3 0.996-0.996-0.707-0.707-0.703 0.703h-4.594v-7h-1m10 2.594-1.703 1.703 0.707 0.707 0.996-0.996 0.996 0.996 0.707-0.707-1.703-1.703m5 2.406-1 1h1v-1"/><path d="m11 4v2h1v-1h1v-1h-2m4 0v1h1v1h1v-2h-2m-4 4v2h2v-1h-1v-1h-1m5 0v1h-1v1h2v-2h-1"/></g><g fill-opacity=".459" fill-rule="evenodd"><path d="m556.3 623.6v1h14v-1h-5.4l-2-2h-1.6l-2 2z"/><path transform="translate(551.3 607.6)" d="m14 7l-1.996 2h.996v1h-1.994l-.998 1h-5.01v4h2.6l2-2h2.408l1.992 1.992 5 .008v-6h-2v1h-2v-1h1l-2-2"/></g></g></svg>
