<svg viewBox="0 0 24 24" xmlns="http://www.w3.org/2000/svg"><g transform="translate(.996.998)" fill="#4d4d4d"><path d="m10 3.068c-3.956 0.49-7 3.839-7 7.932s3.044 7.442 7 7.932v-1.01c-3.399-0.484-6-3.385-6-6.922s2.601-6.438 6-6.922v-1.01m2 0v1.01c3.399 0.484 6 3.385 6 6.922s-2.601 6.438-6 6.922v1.01c3.956-0.49 7-3.839 7-7.932s-3.044-7.442-7-7.932"/><path d="m11 5c-3.324 0-6 2.676-6 6s2.676 6 6 6 6-2.676 6-6c0-0.882-0.192-1.716-0.531-2.469l-0.781 0.781c0.19 0.529 0.313 1.091 0.313 1.688 0 2.77-2.23 5-5 5s-5-2.23-5-5 2.23-5 5-5c1.642 0 3.08 0.795 3.99 2.01l0.723-0.723c-1.097-1.392-2.795-2.287-4.713-2.287"/><path d="m11 7c-1.108 0-2.107 0.447-2.83 1.17l0.707 0.707c0.542-0.542 1.292-0.877 2.123-0.877 1.662 0 3 1.338 3 3s-1.338 3-3 3-3-1.338-3-3c0-0.302 0.056-0.587 0.139-0.861l-0.781-0.781c-0.226 0.502-0.357 1.055-0.357 1.643 0 2.216 1.784 4 4 4s4-1.784 4-4-1.784-4-4-4"/></g></svg>
