<svg viewBox="0 0 24 24" xmlns="http://www.w3.org/2000/svg"><g transform="translate(-550.3 -606.6)" fill="#4d4d4d"><path transform="translate(551.3 607.6)" d="m4 3v14h-1v1h1v1h1v-1h14v-1h-3v-9h-4v9h-2v-13h1v-1h-5v14h-1v-14m2 1h2v13h-2zm6 5h2v8h-2z"/><path d="m563.29 610.65v1h1v3h1v-4h-1-1m4.5 0c-.831 0-1.5.669-1.5 1.5v1c0 .831.669 1.5 1.5 1.5.831 0 1.5-.669 1.5-1.5v-1c0-.831-.669-1.5-1.5-1.5m4 0c-.831 0-1.5.669-1.5 1.5v1c0 .831.669 1.5 1.5 1.5.831 0 1.5-.669 1.5-1.5v-1c0-.831-.669-1.5-1.5-1.5m-4 1c.277 0 .5.223.5.5v1c0 .277-.223.5-.5.5-.277 0-.5-.223-.5-.5v-1c0-.277.223-.5.5-.5m4 0c.277 0 .5.223.5.5v1c0 .277-.223.5-.5.5-.277 0-.5-.223-.5-.5v-1c0-.277.223-.5.5-.5"/></g></svg>
