<svg viewBox="0 0 24 24" xmlns="http://www.w3.org/2000/svg"><path transform="translate(1 .998)" d="m4 3v14h-1v1h1v1h1v-1h14v-1h-0.293l-3.576-3.576-4e-3 4e-3 -6e-3 -4e-3 -2.123 2.123-4.123-4.123h-3.875v-1.424h3.875l4.123-4.123 2.123 2.123 6e-3 -4e-3 4e-3 4e-3 3.869-3.869-0.707-0.707-3.166 3.166-2.127-2.125-2e-3 2e-3 -2e-3 -2e-3 -1.527 1.527h-6.469v-2.992h-1m1 3h6.461l-3 3h-3.461v-3m0 6.424h3.461l3 3h-6.461v-3m10.13 2.41 2.166 2.166h-12.29v-1.568h6.469l1.527 1.527 2e-3 -2e-3 2e-3 2e-3 2.127-2.125z" fill="#4d4d4d"/></svg>
