<svg viewBox="0 0 16 16" xmlns="http://www.w3.org/2000/svg"><g transform="translate(-421.7 -531.8)"><path transform="translate(421.7 531.8)" d="m2 2v12h12v-12h-12" fill="#4d4d4d"/><g fill="#fff"><path d="m423.7 535.8 2-2 2 2-2 2z"/><path d="m423.7 539.8 2-2 2 2-2 2z"/><path d="m423.7 543.8 2-2 2 2-2 2z"/><path d="m427.7 535.8 2-2 2 2-2 2z"/><path d="m427.7 539.8 2-2 2 2-2 2z"/><path d="m427.7 543.8 2-2 2 2-2 2z"/><path d="m431.7 535.8 2-2 2 2-2 2z"/><path d="m431.7 539.8 2-2 2 2-2 2z"/><path d="m431.7 543.8 2-2 2 2-2 2z"/></g></g></svg>
