<svg viewBox="0 0 22 22" xmlns="http://www.w3.org/2000/svg"><g transform="translate(-326-534.36)" fill="#4d4d4d"><path d="m329 552.4h16v1h-16z"/><g color-rendering="auto" fill-rule="evenodd" image-rendering="auto" shape-rendering="auto"><path d="m334 545.4c-1.167 0-2.443 0.538-3.473 1.053-0.753 0.377-1.25 0.682-1.527 0.857v1.191l0.277-0.186s0.725-0.484 1.695-0.969 2.194-0.947 3.03-0.947c0.333 0 0.742 0.182 1.199 0.525s0.947 0.828 1.447 1.328 1.01 1.015 1.553 1.422 1.134 0.725 1.801 0.725c1.167 0 2.443-0.538 3.473-1.053 0.753-0.376 1.25-0.682 1.527-0.857v-1.191l-0.277 0.186s-0.725 0.484-1.695 0.969-2.194 0.947-3.03 0.947c-0.333 0-0.742-0.18-1.199-0.523s-0.947-0.83-1.447-1.33-1.01-1.013-1.553-1.42-1.134-0.727-1.801-0.727" solid-color="#000000" isolation="auto" mix-blend-mode="normal" white-space="normal"/><path d="m336.96 537.36c-.341 0-.663.128-.902.33-.239.202-.402.461-.529.738-.254.554-.377 1.205-.506 1.829-.129.625-.262 1.223-.438 1.607-.088.192-.182.323-.266.394-.084.071-.149.1-.282.1-.129 0-.191-.028-.276-.102-.085-.074-.183-.212-.272-.41-.178-.397-.31-1.013-.44-1.648-.129-.635-.252-1.286-.508-1.837-.128-.275-.295-.534-.542-.728-.247-.194-.581-.299-.923-.271-.653.054-1.12.545-1.425 1.093-.305.549-.499 1.205-.639 1.849-.004.019-.006.036-.001.055h1c.126-.53.291-1.046.493-1.41.223-.402.436-.572.655-.59.13-.011.183.001.257.068.074.058.167.177.253.363.173.372.305.979.434 1.613.129.634.255 1.296.508 1.861.126.282.287.546.525.754.238.207.563.34.908.34.341 0 .663-.126.902-.328.239-.202.402-.463.529-.74.254-.554.377-1.203.506-1.827.129-.625.262-1.225.438-1.609.088-.192.182-.321.266-.392.084-.071.149-.102.282-.102.132 0 .196.029.278.1.082.07.175.201.261.392.172.383.299.983.424 1.609.125.626.25 1.275.508 1.831.129.278.295.54.538.742.243.201.568.324.913.324.345 0 .671-.124.913-.326.242-.202.406-.464.533-.742.253-.557.371-1.207.493-1.831.122-.625.247-1.224.421-1.605.087-.19.181-.319.266-.39.085-.071.155-.103.297-.103.284 0 .483.154.708.539.212.362.379.903.495 1.46h.995c-.006-.033-.009-.064-.015-.098-.128-.656-.314-1.324-.637-1.876-.323-.553-.855-1.025-1.545-1.025-.345 0-.671.126-.913.328-.242.202-.406.464-.533.742-.253.557-.371 1.207-.493 1.831-.122.625-.247 1.224-.421 1.605-.087.19-.181.319-.266.39-.085.071-.155.102-.297.102-.142 0-.214-.032-.301-.103-.087-.072-.184-.202-.272-.392-.177-.381-.307-.979-.432-1.603-.125-.624-.246-1.273-.495-1.827-.125-.277-.284-.537-.521-.74-.238-.203-.561-.332-.902-.332" solid-color="#000000" isolation="auto" mix-blend-mode="normal" white-space="normal"/></g></g></svg>
