<svg viewBox="0 0 16 16" xmlns="http://www.w3.org/2000/svg"><g transform="translate(-421.7 -531.8)" fill-rule="evenodd"><path d="m423.7 537.8v8h8v-8h-8m1 1h6v6h-6v-6" fill="#1d99f3"/><path d="m424.7 538.8h6v6h-6z" fill="#b3b3b3"/><path d="m431.2 533.8a4.5 4.5 0 0 0-4.5 4.5 4.5 4.5 0 0 0 4.5 4.5 4.5 4.5 0 0 0 4.5-4.5 4.5 4.5 0 0 0-4.5-4.5m0 1a3.5 3.5 0 0 1 3.5 3.5 3.5 3.5 0 0 1-3.5 3.5 3.5 3.5 0 0 1-3.5-3.5 3.5 3.5 0 0 1 3.5-3.5" fill="#1d99f3"/><circle cx="431.2" cy="538.3" r="3.5" fill="#b3b3b3"/></g></svg>
