<svg viewBox="0 0 16 16" xmlns="http://www.w3.org/2000/svg"><g transform="translate(-421.7 -531.8)" fill-rule="evenodd"><path d="m424.7 538.8h6v6h-6z" fill="#b3b3b3"/><path transform="translate(421.7 531.8)" d="m9 2.031a4.5 4.5 0 0 0-1.301 0.3477l0.5038 0.8731a3.5 3.5 0 0 1 0.797-0.2129v-1.008m1 2e-3v1.008a3.5 3.5 0 0 1 0.7969 0.211l0.5021-0.869a4.5 4.5 0 0 0-1.299-0.3498m-3.166 0.8477a4.5 4.5 0 0 0-0.9531 0.9531l0.8731 0.502a3.5 3.5 0 0 1 0.58-0.586l-0.5-0.869m5.332 0-0.502 0.873a3.5 3.5 0 0 1 0.586 0.58l0.87-0.5a4.5 4.5 0 0 0-0.954-0.9531m1.455 1.818-0.873 0.504a3.5 3.5 0 0 1 0.2129 0.797h1.008a4.5 4.5 0 0 0-0.3479-1.301m-8.238 0.001953a4.5 4.5 0 0 0-0.3496 1.299h-3.033v8h8v-3.031a4.5 4.5 0 0 0 1.301-0.3479l-0.5038-0.8731a3.5 3.5 0 0 1-0.797 0.211v-3.959h-3.96a3.5 3.5 0 0 1 0.212-0.7969l-0.869-0.5021m-2.383 2.299h2.03a4.5 4.5 0 0 0 3.97 3.967v2.033h-6v-6m3.04 0h2.96v2.959a3.5 3.5 0 0 1-2.961-2.959m6.92 0a3.5 3.5 0 0 1-0.2109 0.7969l0.869 0.5021a4.5 4.5 0 0 0 0.3498-1.299h-1.008m-0.7129 1.664a3.5 3.5 0 0 1-0.5801 0.5859l0.5 0.869a4.5 4.5 0 0 0 0.9531-0.953l-0.8731-0.502" fill="#4d4d4d"/></g></svg>
