<svg viewBox="0 0 22 22" xmlns="http://www.w3.org/2000/svg"><g transform="translate(0 -1030)"><g fill="#4d4d4d"><path transform="translate(-1 1029)" d="m17 4v3h3v-3h-3m1 1h1v1h-1v-1"/><path d="m3 1046v3h3v-3h-3m1 1h1v1h-1v-1"/></g><path transform="translate(-1 1029)" d="M17 5A12 12 0 0 0 5 17h1A11 11 0 0 1 17 6v-1" fill="#1d99f3"/><g fill="#4d4d4d"><path d="m18 1044h1v5h-1z"/><path d="m14 1044.97l1.905 1.891-1.873 1.935.576.565 2.392-2.5-2.392-2.5c.03-.016-.608.609-.608.609" color-rendering="auto" fill-rule="evenodd" image-rendering="auto" shape-rendering="auto" solid-color="#000000" isolation="auto" mix-blend-mode="normal" white-space="normal"/></g></g></svg>
