<svg viewBox="0 0 16 16" xmlns="http://www.w3.org/2000/svg"><g transform="translate(-421.7 -531.8)" fill="#4d4d4d"><g font-family="Sans" font-size="9" letter-spacing="0" word-spacing="0" line-height="125%"><text x="425.31" y="559.42"><tspan x="425.31" y="559.42"/></text><text x="426.04" y="553.56"><tspan x="426.04" y="553.56"/></text><text x="419.31" y="560.42"><tspan x="419.31" y="560.42"/></text><text x="425.31" y="559.42"><tspan x="425.31" y="559.42"/></text><text x="426.04" y="553.56"><tspan x="426.04" y="553.56"/></text><text x="419.31" y="560.42"><tspan x="419.31" y="560.42"/></text><text x="421.07" y="561.4"><tspan x="421.07" y="561.4"/></text><text x="421.81" y="555.53"><tspan x="421.81" y="555.53"/></text><text x="415.07" y="562.4"><tspan x="415.07" y="562.4"/></text></g><g transform="matrix(.02554 0 0 .02554 422.7 532.8)"><path d="m317.8 368.6c-1.712-2.094-4.09-3.142-7.132-3.142h-164.5v-109.6h54.81c4.948 0 9.233-1.809 12.85-5.426 3.616-3.616 5.424-7.898 5.424-12.85 0-4.565-1.431-8.47-4.283-11.7l-91.36-109.6c-3.617-4.184-8.28-6.279-13.99-6.279-5.712 0-10.37 2.092-13.99 6.279l-91.36 109.6c-2.86 3.234-4.285 7.139-4.285 11.7 0 4.952 1.811 9.234 5.424 12.85 3.617 3.617 7.902 5.426 12.85 5.426h54.82v171.3c0 0.574 0.094 1.67 0.284 3.288 0.191 1.619 0.479 2.714 0.859 3.282 0.378 0.575 0.903 1.335 1.569 2.286 0.662 0.951 1.521 1.622 2.565 1.998 1.047 0.377 2.334 0.568 3.858 0.568h274.1c2.471 0 4.613-0.903 6.42-2.711 1.807-1.807 2.71-3.948 2.71-6.42 0-1.909-0.663-3.9-1.995-6l-45.68-54.82"/><path d="m542.8 297.8c-3.614-3.61-7.898-5.424-12.85-5.424h-54.82v-171.3c0-0.572-0.096-1.665-0.288-3.287-0.191-1.619-0.479-2.712-0.855-3.284-0.379-0.571-0.903-1.334-1.57-2.284-0.667-0.949-1.522-1.617-2.57-1.999-1.047-0.378-2.327-0.571-3.854-0.571h-274.1c-2.474 0-4.611 0.905-6.423 2.712-1.805 1.809-2.708 3.951-2.708 6.423 0 2.093 0.662 3.996 1.997 5.71l45.68 54.82c1.713 2.284 4.093 3.426 7.137 3.426h164.4v109.6h-54.82c-4.948 0-9.232 1.81-12.85 5.42-3.617 3.621-5.427 7.909-5.427 12.85 0 4.568 1.43 8.466 4.287 11.71l91.36 109.6c3.806 4.381 8.467 6.567 13.99 6.567 5.514 0 10.17-2.187 13.98-6.567l91.36-109.6c2.851-3.241 4.284-7.139 4.284-11.71 5e-3 -4.942-1.81-9.226-5.423-12.84"/></g></g></svg>
