<svg viewBox="0 0 22 22" xmlns="http://www.w3.org/2000/svg"><path transform="translate(0-.002)" d="m3.666 3c-0.369 0-0.666 0.297-0.666 0.666v14.67c0 0.369 0.297 0.666 0.666 0.666h14.67c0.369 0 0.666-0.297 0.666-0.666v-14.67c0-0.369-0.297-0.666-0.666-0.666h-14.67m2.834 2c0.831 0 1.5 0.669 1.5 1.5s-0.669 1.5-1.5 1.5-1.5-0.669-1.5-1.5 0.669-1.5 1.5-1.5m9 0c0.831 0 1.5 0.669 1.5 1.5s-0.669 1.5-1.5 1.5-1.5-0.669-1.5-1.5 0.669-1.5 1.5-1.5m-4.5 4.5c0.831 0 1.5 0.669 1.5 1.5s-0.669 1.5-1.5 1.5-1.5-0.669-1.5-1.5 0.669-1.5 1.5-1.5m-4.5 4.5c0.831 0 1.5 0.669 1.5 1.5s-0.669 1.5-1.5 1.5-1.5-0.669-1.5-1.5 0.669-1.5 1.5-1.5m9 0c0.831 0 1.5 0.669 1.5 1.5s-0.669 1.5-1.5 1.5-1.5-0.669-1.5-1.5 0.669-1.5 1.5-1.5" fill="#4d4d4d" fill-rule="evenodd"/></svg>
