<svg viewBox="0 0 22 22" xmlns="http://www.w3.org/2000/svg"><g transform="translate(-445.7 -526.1)"><g transform="translate(27-.965)" fill="#4d4d4d"><path transform="translate(-18-.034)" d="m447.7 528.8 8.434 4.217-8.434 4.217-8.435-4.217z"/><path d="m429.7 545-6.083-3.042-2.351 1.176 8.435 4.217 8.434-4.217-2.351-1.176z"/></g><path transform="matrix(-.00017.04721.04721.00017 424.62 534.4)" d="m142.9 687.4-63.73 63.73c-4.054 4.056-10.63 4.056-14.68 0-4.053-4.053-4.053-10.62 0-14.68l56.39-56.39-56.39-56.39c-4.053-4.054-4.053-10.63 0-14.68 4.053-4.054 10.62-4.054 14.68 0l63.73 63.73c2.026 2.027 3.038 4.681 3.038 7.337 0 2.657-1.014 5.313-3.04 7.339z" fill="#1d99f3" stroke="#1d99f3" stroke-width="8.472"/></g></svg>
