<svg viewBox="0 0 22 22" xmlns="http://www.w3.org/2000/svg"><g transform="translate(0 -1030)"><path d="m16 1034v3h3v-3h-3m1 1h1v1h-1v-1" fill="#4d4d4d"/><g fill="#1d99f3"><g transform="translate(-1 1029)"><path d="m4 16v4h4v-4h-4m1 1h2v2h-2v-2"/><path d="M5.980469 4A2 2 0 0 0 4 6.01367 2 2 0 0 0 6.00586 8 2 2 0 0 0 8 6V5.975A2 2 0 0 0 5.980469 4m.00977 1A1 1 0 0 1 7 5.986328V6A1 1 0 0 1 6.00391 7 1 1 0 0 1 5 6.00586 1 1 0 0 1 5.990234 5"/></g><path d="m4.5 1036h1v3h-1z"/><path d="m4.5 1040h1v1h-1z"/></g><path d="m15.89 1035a11.56 11 0 0 0-11.39 10h1.047a10.51 10 0 0 1 10.35-9 10.51 10 0 0 1 0.1026 0v-1a11.56 11 0 0 0-0.1129 0z" fill="#4d4d4d"/></g></svg>
