<svg viewBox="0 0 24 24" xmlns="http://www.w3.org/2000/svg"><g transform="matrix(.4672 0 0 .4672 4 4)" fill="#4d4d4d"><path d="m7.132 0h5.187v5.275h-5.187z"/><path d="m14.27 0h5.185v5.275h-5.185z"/><path d="m21.4 0h5.185v5.275h-5.185z"/><path d="m29.06 0h5.186v5.275h-5.186z"/><path d="m7.132 7.244h5.187v5.274h-5.187z"/><path d="m14.27 7.244h5.185v5.274h-5.185z"/><path d="m21.4 7.244h5.185v5.274h-5.185z"/><path d="m29.06 7.244h5.186v5.274h-5.186z"/><path d="m7.132 14.49h5.187v5.275h-5.187z"/><path d="m14.27 14.49h5.185v5.275h-5.185z"/><path d="m21.4 14.49h5.185v5.275h-5.185z"/><path d="m29.06 14.49h5.186v5.275h-5.186z"/><path d="m7.132 21.73h5.187v5.274h-5.187z"/><path d="m14.27 21.73h5.185v5.274h-5.185z"/><path d="m21.4 21.73h5.185v5.274h-5.185z"/><path d="m29.06 21.73h5.186v5.274h-5.186z"/><path d="m0 0h5.185v5.275h-5.185z"/><path d="m0 7.244h5.185v5.274h-5.185z"/><path d="m0 14.49h5.185v5.275h-5.185z"/><path d="m0 21.73h5.185v5.274h-5.185z"/><path d="m0 28.98h5.185v5.275h-5.185z"/><path d="m7.132 28.98h5.187v5.275h-5.187z"/><path d="m14.27 28.98h5.185v5.275h-5.185z"/><path d="m21.4 28.98h5.185v5.275h-5.185z"/><path d="m29.06 28.98h5.186v5.275h-5.186z"/></g></svg>
