<svg viewBox="0 0 22 22" xmlns="http://www.w3.org/2000/svg"><g transform="translate(-327-533.36)"><g fill="#4d4d4d"><path d="m343 536.4v3h3v-3h-3m1 1h1v1h-1v-1"/><path d="m330 536.4v3h3v-3h-3m1 1h1v1h-1v-1"/><path d="m330 549.4v3h3v-3h-3m1 1h1v1h-1v-1"/><path d="m343 549.4v3h3v-3h-3m1 1h1v1h-1v-1"/><path d="m333 537.4h1v1h-1z"/><path d="m336 537.4h1v1h-1z"/><path d="m339 537.4h1v1h-1z"/><path d="m342 537.4h1v1h-1z"/><path d="m333 550.4h1v1h-1z"/><path d="m342 550.4h1v1h-1z"/><path d="m331 539.4h1v1h-1z"/><path d="m331 548.4h1v1h-1z"/><path d="m331 545.4h1v1h-1z"/><path d="m331 542.4h1v1h-1z"/><path d="m344 539.4h1v1h-1z"/><path d="m344 548.4h1v1h-1z"/></g><g fill="#1d99f3"><path d="m338 545.4a2 2 0 0 0-2 2 2 2 0 0 0 2 2 2 2 0 0 0 2-2 2 2 0 0 0-2-2m0 1a1 1 0 0 1 1 1 1 1 0 0 1-1 1 1 1 0 0 1-1-1 1 1 0 0 1 1-1"/><path d="m338 549.4a2 2 0 0 0-2 2 2 2 0 0 0 2 2 2 2 0 0 0 2-2 2 2 0 0 0-2-2m0 1a1 1 0 0 1 1 1 1 1 0 0 1-1 1 1 1 0 0 1-1-1 1 1 0 0 1 1-1"/></g><g fill="#4d4d4d"><path d="m344 545.4h1v1h-1z"/><path d="m344 542.4h1v1h-1z"/></g></g></svg>
