<svg viewBox="0 0 22 22" xmlns="http://www.w3.org/2000/svg"><path transform="translate(0-.002)" d="m3.5 3c-.277 0-.5.223-.5.5v15c0 .277.223.5.5.5h15c.277 0 .5-.223.5-.5v-15c0-.277-.223-.5-.5-.5h-15m1.3125 1.083984a.75 .75 0 0 1 .75 .75 .75 .75 0 0 1 -.75 .75 .75 .75 0 0 1 -.75 -.75 .75 .75 0 0 1 .75 -.75m12.398438 0a.75 .75 0 0 1 .75 .75 .75 .75 0 0 1 -.75 .75 .75 .75 0 0 1 -.75 -.75 .75 .75 0 0 1 .75 -.75m-6.210938.916016a6 6 0 0 1 6 6 6 6 0 0 1 -6 6 6 6 0 0 1 -6 -6 6 6 0 0 1 6 -6m0 3.5a2.5 2.5 0 0 0 -2.5 2.5 2.5 2.5 0 0 0 2.5 2.5 2.5 2.5 0 0 0 2.5 -2.5 2.5 2.5 0 0 0 -2.5 -2.5m-6.1875 7.984375a.75 .75 0 0 1 .75 .75 .75 .75 0 0 1 -.75 .75 .75 .75 0 0 1 -.75 -.75 .75 .75 0 0 1 .75 -.75m12.398438 0a.75 .75 0 0 1 .75 .75 .75 .75 0 0 1 -.75 .75 .75 .75 0 0 1 -.75 -.75 .75 .75 0 0 1 .75 -.75" fill="#4d4d4d" fill-rule="evenodd"/></svg>
