<svg viewBox="0 0 22 22" xmlns="http://www.w3.org/2000/svg"><g transform="matrix(.04927 0 0 .04927 2 2)" fill="#4d4d4d"><path d="m363.2 177.4-52.07-52.07c-1.406-1.407-3.314-2.197-5.303-2.197s-3.897 0.79-5.303 2.197l-14.14 14.14c-1.407 1.406-2.197 3.314-2.197 5.303s0.79 3.897 2.197 5.303l15.13 15.12h-52.54v-95.5c0-4.142-3.358-7.5-7.5-7.5h-20c-4.142 0-7.5 3.358-7.5 7.5v226c0 4.142 3.358 7.5 7.5 7.5h20c4.142 0 7.5-3.358 7.5-7.5v-95.5h52.54l-15.13 15.13c-1.407 1.406-2.197 3.314-2.197 5.303s0.79 3.897 2.197 5.303l14.14 14.14c1.406 1.407 3.314 2.197 5.303 2.197s3.897-0.79 5.303-2.197l52.07-52.07c2.929-2.929 2.929-7.678 0-10.61"/><path d="m143.9 62.18h-20c-4.142 0-7.5 3.358-7.5 7.5v95.5h-52.54l15.13-15.12c2.929-2.929 2.929-7.677 0-10.61l-14.14-14.14c-1.407-1.406-3.315-2.197-5.304-2.197s-3.897 0.79-5.303 2.197l-52.07 52.07c-1.407 1.406-2.197 3.314-2.197 5.303s0.79 3.897 2.197 5.303l52.07 52.07c1.407 1.407 3.314 2.197 5.303 2.197s3.897-0.79 5.304-2.197l14.14-14.14c2.929-2.929 2.928-7.678 0-10.61l-15.13-15.13h52.54v95.5c0 4.142 3.358 7.5 7.5 7.5h20c4.142 0 7.5-3.358 7.5-7.5v-226c-1e-4 -4.141-3.359-7.499-7.501-7.499"/></g></svg>
