<svg viewBox="0 0 22 22" xmlns="http://www.w3.org/2000/svg"><g transform="translate(-421.7 -525.8)" fill="#4d4d4d"><path transform="translate(421.7 525.8)" d="M4.5 3A1.499998 1.5 0 0 0 3 4.5 1.499998 1.5 0 0 0 4.5 6 1.499998 1.5 0 0 0 6 4.5 1.499998 1.5 0 0 0 4.5 3M4.5 4A.5 .5 0 0 1 5 4.5 .5 .5 0 0 1 4.5 5 .5 .5 0 0 1 4 4.5 .5 .5 0 0 1 4.5 4"/><path d="m426.2 541.8a1.5 1.5 0 0 0-1.5 1.5 1.5 1.5 0 0 0 1.5 1.5 1.5 1.5 0 0 0 1.5-1.5 1.5 1.5 0 0 0-1.5-1.5m0 1a0.5 0.5 0 0 1 0.5 0.5 0.5 0.5 0 0 1-0.5 0.5 0.5 0.5 0 0 1-0.5-0.5 0.5 0.5 0 0 1 0.5-0.5"/><path d="m439.2 528.8a1.5 1.5 0 0 0-1.5 1.5 1.5 1.5 0 0 0 1.5 1.5 1.5 1.5 0 0 0 1.5-1.5 1.5 1.5 0 0 0-1.5-1.5m0 1a0.5 0.5 0 0 1 0.5 0.5 0.5 0.5 0 0 1-0.5 0.5 0.5 0.5 0 0 1-0.5-0.5 0.5 0.5 0 0 1 0.5-0.5"/><path d="m425.7 530.8h1v12h-1z"/><path d="m438.7 530.8h1v4h-1z"/><path d="m437.7 539.8h1v5h-1z"/><path d="m435.7 541.8h5v1h-5z"/><path transform="translate(421.7 525.8)" d="m17 9a1 1 0 0 1-1 1h-10a2 2 0 0 0-2 2h1a1 1 0 0 1 1-1h10a2 2 0 0 0 2-2h-1"/></g></svg>
