<svg viewBox="0 0 22 22" xmlns="http://www.w3.org/2000/svg"><g fill="#4d4d4d"><path transform="matrix(1.012 0 0 .9986 -427.2 -525.1)" d="m432.21 528.79c-.654 0-1.202.418-1.408 1h-4.092-1v1 11.09c-.582.206-1 .754-1 1.408 0 .831.669 1.5 1.5 1.5.831 0 1.5-.669 1.5-1.5 0-.654-.418-1.202-1-1.408v-11.09h4.092c.15.425.483.758.908.908v6.092 1h1 .092c.206.582.754 1 1.408 1 .831 0 1.5-.669 1.5-1.5 0-.831-.669-1.5-1.5-1.5-.654 0-1.202.418-1.408 1h-.092v-6.092c.582-.206 1-.754 1-1.408 0-.831-.669-1.5-1.5-1.5"/><path transform="matrix(-6e-5 -.01567 .01567 -6e-5 12.53 20.53)" d="m345.4 248.3-194.3 194.3c-12.36 12.36-32.4 12.36-44.75 0-12.35-12.35-12.35-32.39 0-44.74l171.9-171.9-171.9-171.9c-12.35-12.36-12.35-32.39 0-44.75 12.35-12.36 32.39-12.36 44.75 0l194.3 194.3c6.177 6.18 9.262 14.27 9.262 22.37 0 8.099-3.091 16.2-9.267 22.37"/></g></svg>
