<svg viewBox="0 0 22 22" xmlns="http://www.w3.org/2000/svg"><path transform="matrix(.02655 0 0 .02655 3.16 2.998)" d="m483.2 0h-150.3c-27.56 0-66.04 15.94-85.52 35.42l-232.8 232.8c-19.48 19.48-19.48 51.37 0 70.85l179.6 179.6c19.48 19.48 51.37 19.48 70.85 0l232.8-232.8c19.48-19.48 35.42-57.97 35.42-85.52v-150.3c-1e-4 -27.55-22.54-50.1-50.1-50.1m-66.57 166.7c-27.61 0-50-22.38-50-50 0-27.61 22.39-50 50-50s50 22.39 50 50-22.39 50-50 50z" fill="#4d4d4d"/><path transform="matrix(.05831 0 0 .05831 11.53 11.68)" d="m117.2 31.59c-5.595-9.586-13.18-17.18-22.77-22.77-9.588-5.595-20.06-8.392-31.41-8.392-11.35 0-21.82 2.797-31.41 8.392-9.587 5.594-17.18 13.18-22.77 22.77-5.596 9.587-8.393 20.06-8.393 31.41 0 11.35 2.798 21.82 8.392 31.41 5.595 9.585 13.18 17.18 22.77 22.77 9.587 5.595 20.06 8.392 31.41 8.392 11.35 0 21.82-2.797 31.41-8.392 9.586-5.594 17.18-13.18 22.77-22.77 5.594-9.587 8.391-20.06 8.391-31.41 0-11.35-2.797-21.82-8.39-31.41m-24.69 46.15c1.032 1.031 1.549 2.255 1.549 3.667 0 1.466-0.517 2.716-1.549 3.747l-7.332 7.333c-1.032 1.032-2.281 1.548-3.748 1.548-1.412 0-2.636-0.516-3.666-1.548l-14.75-14.75-14.75 14.75c-1.032 1.032-2.254 1.548-3.666 1.548-1.467 0-2.716-0.516-3.748-1.548l-7.333-7.333c-1.032-1.031-1.548-2.281-1.548-3.747 0-1.412 0.516-2.636 1.548-3.667l14.75-14.75-14.75-14.75c-1.032-1.031-1.548-2.254-1.548-3.666 0-1.467 0.516-2.716 1.548-3.748l7.333-7.332c1.032-1.032 2.281-1.548 3.748-1.548 1.412 0 2.634 0.516 3.666 1.548l14.75 14.75 14.75-14.75c1.03-1.032 2.254-1.548 3.666-1.548 1.467 0 2.716 0.516 3.748 1.548l7.332 7.332c1.032 1.032 1.549 2.281 1.549 3.748 0 1.412-0.517 2.635-1.549 3.666l-14.75 14.75 14.75 14.75" fill="#da4453"/></svg>
