<svg viewBox="0 0 22 22" xmlns="http://www.w3.org/2000/svg"><g transform="translate(-326-534.36)"><path d="m337 546.4v1h4.5c1.385 0 2.5 1.115 2.5 2.5 0 0.819-0.396 1.535-1 1.99v-1.49h-1v3h3v-1h-1.076c0.658-0.632 1.076-1.51 1.076-2.5 0-1.939-1.561-3.5-3.5-3.5h-4.5" fill="#1d99f3"/><g fill="#4d4d4d"><path transform="translate(326 534.4)" d="m3 3v16h8v-1h-7v-14h14v8h1v-9h-16"/><path d="m331 539.4h12v1h-12z"/><path d="m331 541.4h9v1h-9z"/><path d="m331 544.4h12v1h-12z"/><path d="m331 546.4h4v1h-4z"/><path d="m331 549.4h9v1h-9z"/><path d="m338 551.4h3v1h-3z"/></g></g></svg>
