<svg viewBox="0 0 16 16" xmlns="http://www.w3.org/2000/svg"><g transform="translate(-421.7 -531.8)"><g fill="#4d4d4d"><path d="m424.6 541.2-0.37 0.929 0.252 0.101a2 2 0 0 0-0.6226 0.8283 2 2 0 0 0 1.117 2.599 2 2 0 0 0 2.599-1.117 2 2 0 0 0 0.12-1.029l0.25 0.1 0.37-0.929-3.716-1.482m1.487 1.67a1 1 0 0 1 0.5585 1.299 1 1 0 0 1-1.299 0.5585 1 1 0 0 1-0.5585-1.299 1 1 0 0 1 1.299-0.5585"/><path d="m424.08 536.26l3.742 3.317 1.497 1.327.663-.748-.202-.179c.333-.111.632-.307.865-.57.733-.827.657-2.091-.17-2.823-.827-.733-2.091-.657-2.823.17-.232.264-.391.584-.46.928l-2.448-2.17-.663.748m4.32 1.157c.366-.413.998-.451 1.412-.085.413.366.451.998.085 1.412-.366.413-.998.451-1.412.085-.413-.366-.451-.998-.085-1.412"/><path d="m433.9 533.8a2 2 0 0 0-1.727 2.24 2 2 0 0 0 2.24 1.727 2 2 0 0 0 1.327-0.7624l-0.792-0.611a1 1 0 0 1-0.6636 0.3812 1 1 0 0 1-1.12-0.8636 1 1 0 0 1 0.8636-1.12 1 1 0 0 1 0.7388 0.1999l0.611-0.792a2 2 0 0 0-1.478-0.3998"/></g><path transform="translate(421.7 531.8)" d="m14 7a7 7 0 0 0-7 7h1a6 6 0 0 1 6-6v-1" fill="#1d99f3"/></g></svg>
