<svg viewBox="0 0 22 22" xmlns="http://www.w3.org/2000/svg"><g fill="#4d4d4d"><path transform="matrix(1.535 0 0 1.535 -478.4 -820.3)" d="m313.2 546.4 3.712-9.845h1.43l2.671 7.177h-5.449l-0.962 2.668zm2.791-3.85h3.272l-1.609-4.441h-0.055z"/><path transform="matrix(.8506 0 0 .8506 -258.3 -448.2)" d="m321.26 549.27v-8.308h3.01q.975 0 1.682.65.719.638.719 1.613 0 .592-.313 1.044-.302.453-.812.685v.046q.615.209 1.01.719.394.511.394 1.183 0 1.021-.754 1.694-.743.673-1.764.673h-3.168m1.067-4.746h1.938q.603 0 .963-.394.371-.406.371-.882 0-.476-.36-.87-.348-.394-.928-.394h-1.984v2.541m0 3.725h2.147q.615 0 .998-.429.383-.429.383-.94 0-.511-.394-.928-.395-.429-1.033-.429h-2.1v2.727"/></g></svg>
