<svg viewBox="0 0 22 22" xmlns="http://www.w3.org/2000/svg"><g transform="translate(-421.7 -525.8)"><g fill="#4d4d4d"><path transform="translate(421.7 525.8)" d="m13.38 4-4.336 13.86-0.043 0.137h1.137l1.564-5h6.343l-3.518-9h-1.148m0.51 2h0.258l2.346 6h-4.48l1.877-6"/><g transform="scale(-1 1)" font-family="Sans" letter-spacing="0" word-spacing="0" line-height="125%"><g font-size="9"><text x="-455.76" y="549.41"><tspan x="-455.76" y="549.41"/></text><text x="-455.03" y="543.54"><tspan x="-455.03" y="543.54"/></text><text x="-461.76" y="550.41"><tspan x="-461.76" y="550.41"/></text></g><g font-size="12.46"><text x="-434.2" y="550.75"><tspan x="-434.2" y="550.75"/></text><text x="-433.18" y="542.63"><tspan x="-433.18" y="542.63"/></text><text x="-442.51" y="552.13"><tspan x="-442.51" y="552.13"/></text></g><g font-size="9"><text x="-451.96" y="546.78"><tspan x="-451.96" y="546.78"/></text><text x="-451.22" y="540.91"><tspan x="-451.22" y="540.91"/></text><text x="-457.96" y="547.78"><tspan x="-457.96" y="547.78"/></text></g></g><path transform="translate(421.7 525.8)" d="m2 4c0 0 4.134 14.02 4.139 14 .011.007.353.002.609 0 .163-.0001.199.0001.387 0 .366.003.815.009.83 0 .005.017 4.139-14 4.139-14h-1.104l-3.721 12h-.463c0 0-3.714-12-3.713-12z" color-rendering="auto" fill-rule="evenodd" image-rendering="auto" shape-rendering="auto" solid-color="#000000" isolation="auto" mix-blend-mode="normal" white-space="normal"/></g><path d="m436.7 539.79l-.99.99 2.01 2.01-2.01 2.01.99.99 2.01-2.01 2.01 2.01.99-.99-2.01-2.01 2.01-2.01-.99-.99-2.01 2.01-2.01-2.01" fill="#da4453"/></g></svg>
