<svg viewBox="0 0 22 22" xmlns="http://www.w3.org/2000/svg"><g transform="translate(-326-536.72)" fill="#4d4d4d"><g transform="matrix(.04923 0 0 .04923 329 539.7)"><path d="m319 55.26c3.314 0 6-2.687 6-6v-43.26c0-3.313-2.686-6-6-6h-43.26c-3.313 0-6 2.687-6 6v13.63h-79.61v-13.63c0-3.313-2.686-6-6-6h-43.26c-3.314 0-6 2.687-6 6v13.63h-79.61v-13.63c0-3.313-2.687-6-6-6h-43.26c-3.313 0-6 2.687-6 6v43.26c0 3.313 2.687 6 6 6h13.63v79.61h-13.63c-3.313 0-6 2.687-6 6v43.26c0 3.314 2.687 6 6 6h13.63v79.61h-13.63c-3.313 0-6 2.687-6 6v43.26c0 3.314 2.687 6 6 6h43.26c3.313 0 6-2.686 6-6v-13.63h79.61v13.63c0 3.314 2.686 6 6 6h43.26c3.314 0 6-2.686 6-6v-13.63h79.61v13.63c0 3.314 2.687 6 6 6h43.26c3.314 0 6-2.686 6-6v-43.26c0-3.313-2.686-6-6-6h-13.63v-79.61h13.63c3.314 0 6-2.686 6-6v-43.26c0-3.313-2.686-6-6-6h-13.63v-79.61h13.63m-29.63 79.61h-13.63c-3.313 0-6 2.687-6 6v43.26c0 3.314 2.687 6 6 6h13.63v79.61h-13.63c-3.313 0-6 2.687-6 6v13.63h-79.61v-13.63c0-3.313-2.686-6-6-6h-43.26c-3.314 0-6 2.687-6 6v13.63h-79.61v-13.63c0-3.313-2.687-6-6-6h-13.63v-79.61h13.63c3.313 0 6-2.686 6-6v-43.26c0-3.313-2.687-6-6-6h-13.63v-79.61h13.63c3.313 0 6-2.687 6-6v-13.63h79.61v13.63c0 3.313 2.686 6 6 6h43.26c3.314 0 6-2.687 6-6v-13.63h79.61v13.63c0 3.313 2.687 6 6 6h13.63v79.61"/><circle cx="162.5" cy="162.5" r="13.28"/></g><g stroke="#4d4d4d" stroke-linecap="round" stroke-linejoin="round"><rect x="336.9" y="542.1" width=".281" height="5.219" rx=".141" stroke-width=".533"/><rect transform="rotate(90)" x="547.7" y="-342.7" width=".281" height="5.689" rx=".141" ry=".153" stroke-width=".556"/></g></g></svg>
