<svg viewBox="0 0 22 22" xmlns="http://www.w3.org/2000/svg"><g transform="matrix(0 1-1 0 556.36-326)" fill="#4d4d4d"><path transform="matrix(.04923 0 0 .04923 329 537.4)" d="m319 55.26c3.314 0 6-2.687 6-6v-43.26c0-3.313-2.686-6-6-6h-43.26c-3.313 0-6 2.687-6 6v13.63h-79.61v-13.63c0-3.313-2.686-6-6-6h-43.26c-3.314 0-6 2.687-6 6v13.63h-79.61v-13.63c0-3.313-2.687-6-6-6h-43.26c-3.313 0-6 2.687-6 6v43.26c0 3.313 2.687 6 6 6h13.63v79.61h-13.63c-3.313 0-6 2.687-6 6v43.26c0 3.314 2.687 6 6 6h13.63v79.61h-13.63c-3.313 0-6 2.687-6 6v43.26c0 3.314 2.687 6 6 6h43.26c3.313 0 6-2.686 6-6v-13.63h79.61v13.63c0 3.314 2.686 6 6 6h43.26c3.314 0 6-2.686 6-6v-13.63h79.61v13.63c0 3.314 2.687 6 6 6h43.26c3.314 0 6-2.686 6-6v-43.26c0-3.313-2.686-6-6-6h-13.63v-79.61h13.63c3.314 0 6-2.686 6-6v-43.26c0-3.313-2.686-6-6-6h-13.63v-79.61h13.63m-29.63 79.61h-13.63c-3.313 0-6 2.687-6 6v43.26c0 3.314 2.687 6 6 6h13.63v79.61h-13.63c-3.313 0-6 2.687-6 6v13.63h-79.61v-13.63c0-3.313-2.686-6-6-6h-43.26c-3.314 0-6 2.687-6 6v13.63h-79.61v-13.63c0-3.313-2.687-6-6-6h-13.63v-79.61h13.63c3.313 0 6-2.686 6-6v-43.26c0-3.313-2.687-6-6-6h-13.63v-79.61h13.63c3.313 0 6-2.687 6-6v-13.63h79.61v13.63c0 3.313 2.686 6 6 6h43.26c3.314 0 6-2.687 6-6v-13.63h79.61v13.63c0 3.313 2.687 6 6 6h13.63v79.61"/><rect x="336.9" y="539.1" width="6.444" height="6.444" rx=".16" stroke="#4d4d4d" stroke-linecap="round" stroke-linejoin="round" stroke-width=".556"/></g></svg>
