<svg viewBox="0 0 22 22" xmlns="http://www.w3.org/2000/svg"><path transform="translate(0-.032)" d="m4.6 3c-0.443 0-0.799 0.358-0.799 0.801v14.4c0 0.443 0.356 0.801 0.799 0.801h12.8c0.443 0 0.799-0.358 0.799-0.801v-14.4c0-0.443-0.356-0.801-0.799-0.801h-12.8m3.563 4c0.967 0 1.75 0.783 1.75 1.75s-0.783 1.75-1.75 1.75-1.75-0.783-1.75-1.75 0.783-1.75 1.75-1.75m5.775 0.125v3.375h2.25l-3.375 4.5v-3.375l-2.25 0.094 3.375-4.594m-7.525 4.25h3.5v3.5h-3.5v-3.5" fill="#4d4d4d" stroke-opacity=".55" stroke-width="2.8"/></svg>
