<svg viewBox="0 0 22 22" xmlns="http://www.w3.org/2000/svg"><path transform="matrix(1.093 0 0 1.093 30.63 -7.492)" d="m-17.92 9.601q3.111 0 5.235 2.143t2.124 5.178q0 1.707-0.74 2.826-0.721 1.119-2.105 1.119-1.422 0-2.124-1.385-0.929 1.385-2.655 1.385-1.555 0-2.617-1.081-1.062-1.1-1.062-2.788 0-1.669 1.062-2.769t2.542-1.1q1.46 0 2.428 1.119h0.076v-0.853h1.366v4.95q0 0.493 0.266 0.891 0.284 0.398 0.853 0.398 1.347 0 1.347-2.712 0-2.504-1.745-4.23t-4.249-1.726-4.249 1.726-1.745 4.23 1.745 4.23 4.249 1.726q1.347 0 2.409-0.531l0.531 1.29q-1.328 0.607-2.94 0.607-3.148 0-5.292-2.124-2.143-2.143-2.143-5.197 0-3.035 2.143-5.178 2.162-2.143 5.292-2.143m-1.764 9.161q0.683 0.664 1.631 0.664t1.612-0.664q0.683-0.664 0.683-1.764t-0.683-1.764q-0.664-0.664-1.612-0.664t-1.631 0.664q-0.664 0.664-0.664 1.764t0.664 1.764" fill="#43be80"/></svg>
