<svg viewBox="0 0 22 22" xmlns="http://www.w3.org/2000/svg"><g fill="#4d4d4d"><path transform="matrix(.11417.00745-.00745.11417 3.93 2.548)" d="m141 124.1-31.44-31.44c7.577-10.94 11.37-23.13 11.37-36.57 0-8.738-1.697-17.09-5.088-25.07-3.391-7.975-7.974-14.85-13.75-20.62-5.775-5.775-12.65-10.36-20.62-13.75-7.976-3.392-16.33-5.087-25.07-5.087-8.738 0-17.09 1.695-25.07 5.087-7.975 3.391-14.85 7.974-20.62 13.75-5.775 5.775-10.36 12.65-13.75 20.62-3.392 7.975-5.087 16.33-5.087 25.07 0 8.738 1.695 17.09 5.087 25.07 3.391 7.974 7.974 14.85 13.75 20.62 5.775 5.776 12.65 10.36 20.62 13.75 7.975 3.392 16.33 5.087 25.07 5.087 13.44 0 25.64-3.79 36.57-11.37l31.44 31.35c2.199 2.322 4.947 3.483 8.249 3.483 3.177 0 5.929-1.161 8.249-3.483 2.322-2.321 3.483-5.072 3.483-8.249 1e-4 -3.237-1.128-5.987-3.391-8.247m-55.59-39c-8.04 8.04-17.7 12.05-29.01 12.05-11.3 0-20.97-4.02-29.01-12.05-8.04-8.04-12.05-17.7-12.05-29.01 0-11.3 4.02-20.97 12.05-29.01 8.03-8.04 17.7-12.05 29.01-12.05 11.3 0 20.97 4.02 29.01 12.05 8.04 8.03 12.05 17.7 12.05 29.01s-4.02 20.97-12.05 29.01"/><path transform="matrix(0-.91012-.91012 0-482.53-276.72)" d="m-311.2-538.8-6.593 0.056 3.248-5.737z" fill-rule="evenodd"/></g></svg>
