<svg viewBox="0 0 48 48" xmlns="http://www.w3.org/2000/svg"><defs><linearGradient id="b" x2="0" y1="540.8" y2="504.8" gradientUnits="userSpaceOnUse"><stop stop-color="#63984b" offset="0"/><stop stop-color="#8fc278" offset="1"/></linearGradient><linearGradient id="a" x2="0" y1="535.8" y2="511.8" gradientUnits="userSpaceOnUse"><stop stop-color="#2a2c2f" offset="0"/><stop stop-color="#424649" offset="1"/></linearGradient></defs><g transform="matrix(.8276 0 0 .8276 -314.1 -409.5)"><g fill-rule="evenodd"><rect x="379.6" y="504.8" width="58" height="38" rx="1.5" fill="url(#b)"/><rect x="395.6" y="510.8" width="26" height="26" rx="1" fill="url(#a)"/></g><path d="m399.5 515.6v3.636h-1.818v3.636h-1.818v1.818h1.818v3.636h1.818v1.818h1.818v-3.636h1.818v-1.818h3.636v1.818h1.818v1.818h1.818v1.818h1.818v3.636h1.818v-1.818h1.818v-3.636h1.818v-1.818h1.818v-1.818h1.818v-1.818h-1.818v-1.818h-1.818v-1.818h-1.818v-3.636h-1.818v-1.818h-1.818v3.636h-1.818v1.818h-1.818v1.818h-1.818v1.818h-3.636v-1.818h-1.818v-5.455z" fill="#e0e0e0"/><path d="m379.6 540.7h58v1h-58z" fill="#e6ed6e"/></g></svg>
