<svg viewBox="0 0 48 48" xmlns="http://www.w3.org/2000/svg" xmlns:xlink="http://www.w3.org/1999/xlink"><defs><linearGradient id="c" x1="414.1" x2="414.2" y1="533.6" y2="514" gradientUnits="userSpaceOnUse"><stop stop-color="#08f" offset="0"/><stop stop-color="#02c3ff" offset="1"/></linearGradient><linearGradient id="b" x1="415.3" x2="414.6" y1="537.1" y2="510.4" gradientUnits="userSpaceOnUse"><stop stop-color="#222c35" offset="0"/><stop stop-color="#545e67" offset="1"/></linearGradient><linearGradient id="a" x1="407.2" x2="424.1" y1="515.8" y2="532.6" gradientUnits="userSpaceOnUse"><stop stop-color="#18222a" offset="0"/><stop stop-color="#566069" offset="1"/></linearGradient><linearGradient id="d" x2="0" y1="563.4" y2="419.3" gradientUnits="userSpaceOnUse"><stop stop-color="#d3d3d3" offset="0"/><stop stop-color="#fcf9f9" offset="1"/></linearGradient></defs><g transform="matrix(.9231 0 0 .9231 -345.8 -466.7)"><rect transform="matrix(.3608 0 0 .3608 236.7 354.3)" x="382.1" y="419.3" width="144.1" height="144.1" rx="72.07" ry="72.06" fill="url(#d)" stroke-opacity=".55" stroke-width="6.929"/><g transform="matrix(1.071 0 0 1.074 -44.57 -30.69)"><path d="m401.3 523.8a14 14 0 0 1 14-14 14 14 0 0 1 14 14 14 14 0 0 1-14 14 14 14 0 0 1-14-14" fill="url(#b)"/><circle cx="415.3" cy="523.8" r="11" fill="url(#a)"/><circle cx="415.3" cy="523.8" r="10" fill="url(#c)"/></g></g></svg>
