<svg viewBox="0 0 48 48" xmlns="http://www.w3.org/2000/svg" xmlns:xlink="http://www.w3.org/1999/xlink"><defs><linearGradient id="f" x1="391.6" x2="390.9" y1="531.8" y2="507.7" gradientTransform="matrix(1.083 0 0 1.336 -49.73 -170.4)" gradientUnits="userSpaceOnUse"><stop stop-color="#d3d3d3" offset="0"/><stop stop-color="#fcf9f9" offset="1"/></linearGradient><linearGradient id="b" x2="0" y1="515.9" y2="510.7" gradientUnits="userSpaceOnUse" xlink:href="#a"/><linearGradient id="e" x1="415.3" x2="414.6" y1="537.1" y2="510.4" gradientUnits="userSpaceOnUse" xlink:href="#a"/><linearGradient id="c" x1="414.6" x2="414.2" y1="535.9" y2="514" gradientUnits="userSpaceOnUse"><stop stop-color="#197ff1" offset="0"/><stop stop-color="#21c6fb" offset="1"/></linearGradient><linearGradient id="d" x1="407.2" x2="424.1" y1="515.8" y2="532.6" gradientUnits="userSpaceOnUse" xlink:href="#a"/><linearGradient id="g" x1="376.2" x2="376" y1="509.1" y2="505.7" gradientUnits="userSpaceOnUse" xlink:href="#a"/><linearGradient id="a"><stop stop-color="#222c35" offset="0"/><stop stop-color="#545e67" offset="1"/></linearGradient></defs><g transform="matrix(.9231 0 0 .9231 -338.7 -459.6)"><rect x="372.2" y="506.1" width="6" height="3" rx="1" fill="url(#g)"/><rect x="366.9" y="507.8" width="52" height="32.05" rx="1.5" fill="url(#f)"/><g transform="matrix(1.301 0 0 1.301 -146 -157.8)"><path d="m401.3 523.8a14 14 0 0 1 14-14 14 14 0 0 1 14 14 14 14 0 0 1-14 14 14 14 0 0 1-14-14" fill="url(#e)"/><circle cx="415.3" cy="523.8" r="11" fill="url(#d)"/><circle cx="415.3" cy="523.8" r="10" fill="url(#c)"/></g><circle cx="372.7" cy="513.3" r="2.591" fill="url(#b)" fill-rule="evenodd"/></g></svg>
