<svg viewBox="0 0 48 48" xmlns="http://www.w3.org/2000/svg" xmlns:xlink="http://www.w3.org/1999/xlink"><defs><linearGradient id="b" x2="0" y1="530.8" y2="509.8" gradientUnits="userSpaceOnUse" xlink:href="#a"/><linearGradient id="a"><stop stop-color="#bfc1c1" offset="0"/><stop stop-color="#f1f2f3" offset="1"/></linearGradient><linearGradient id="c" x2="0" y1="531" y2="509.2" gradientUnits="userSpaceOnUse"><stop stop-color="#f0a23a" offset="0"/><stop stop-color="#fde46a" offset="1"/></linearGradient><linearGradient id="e" x2="0" y1="545.3" y2="533.3" gradientUnits="userSpaceOnUse" xlink:href="#a"/><linearGradient id="f" x2="0" y1="555.8" y2="502.8" gradientUnits="userSpaceOnUse"><stop stop-color="#141414" offset="0"/><stop stop-color="#2d2d2f" offset="1"/></linearGradient><linearGradient id="d" x2="0" y1="533.8" y2="521.8" gradientUnits="userSpaceOnUse"><stop stop-color="#08f" offset="0"/><stop stop-color="#02c3ff" offset="1"/></linearGradient></defs><g transform="matrix(.8691 0 0 .8691 -382 -435.3)"><g fill-rule="evenodd"><circle cx="467.1" cy="540.3" r="5" fill="url(#e)"/><circle cx="467.3" cy="528.8" r="5" fill="url(#d)"/><circle cx="481.7" cy="521.9" r="9.125" fill="url(#c)"/><circle cx="451.3" cy="522" r="8.75" fill="url(#b)"/></g><path d="m493.63 518.79c-1.849-7.735-5.198-9.771-8.897-9.431h-6.066c-.051-6.257-5.174-6.936-11.486-6.936-6.316 0-11.436.678-11.486 6.936 0 0-5.825 0-7.846 0-3.01 0-5.57 2.962-7.115 9.431-2.093 8.742-1.48 21.439 2.781 22.461 2.63.629 6.03-3.348 8.746-8.537l7 2.611c2.062 10.05 4.848 19.1 7.921 19.1 3.085 0 5.883-9.133 7.948-19.243l6.915-2.578c2.723 5.245 6.158 9.283 8.807 8.649 4.261-1.021 4.874-13.719 2.781-22.461m-10.667-3.302c1.151 0 2.08.932 2.08 2.081 0 1.15-.93 2.081-2.08 2.081-1.151 0-2.081-.932-2.081-2.081 0-1.15.93-2.081 2.081-2.081m-12.275 13.372c0 1.841-1.493 3.332-3.334 3.332-1.84 0-3.332-1.492-3.332-3.332 0-1.841 1.492-3.333 3.332-3.333 1.842 0 3.334 1.493 3.334 3.333m-12.937-5.634c0 .455-.369.823-.823.823h-2.849v2.849c0 .455-.369.823-.823.823h-2.732c-.454 0-.823-.368-.823-.823v-2.849h-1.853-.997c-.454 0-.823-.368-.823-.823v-2.732c0-.455.369-.823.823-.823h.997 1.853v-2.849c0-.455.369-.823.823-.823h2.732c.454 0 .823.368.823.823v2.849h2.849c.454 0 .823.368.823.823v2.732m12.474 16.749c0 1.585-1.285 2.869-2.871 2.869-1.585 0-2.869-1.284-2.869-2.869 0-.933.452-1.753 1.141-2.278.481-.366 1.076-.592 1.728-.592.543 0 1.046.159 1.478.421.832.503 1.393 1.407 1.393 2.449m8.447-16.03c-1.151 0-2.081-.933-2.081-2.082 0-1.148.93-2.08 2.081-2.08 1.151 0 2.08.933 2.08 2.08 0 1.15-.93 2.082-2.08 2.082m2.211 2.21c0-1.15.93-2.081 2.081-2.081 1.151 0 2.08.932 2.08 2.081 0 1.15-.93 2.081-2.08 2.081-1.151 0-2.081-.932-2.081-2.081m6.372-2.21c-.414 0-.776-.151-1.1-.359-.577-.37-.981-.987-.981-1.723 0-.736.404-1.351.981-1.721.324-.208.686-.359 1.1-.359 1.151 0 2.08.933 2.08 2.08 0 1.15-.93 2.082-2.08 2.082" fill="url(#f)"/></g></svg>
