<svg viewBox="0 0 48 48" xmlns="http://www.w3.org/2000/svg"><defs><linearGradient id="a" x1="432.2" x2="401.1" gradientTransform="matrix(0 1.027 1 0 -499.8 -396)" gradientUnits="userSpaceOnUse"><stop stop-color="#151515" offset="0"/><stop stop-color="#3f3f3f" offset="1"/></linearGradient></defs><g transform="matrix(.9231 0 0 .9231 -353.1 -459.5)"><path transform="translate(376.6 491.8)" d="m6 17.98v22.04c0 0.978 0.313 1.291 0.999 1.977l4.992 4.992c1.01 1.01 0.988 1.01 1.982 1.01h42.02c0.011 0 2.01 0.018 2.01-1.995v-3.367c-0.643-0.729-0.998-1.667-1-2.639 2e-3 -0.972 0.357-1.91 1-2.639v-19.39c0 0.03 0.024-1.97-1.943-1.97h-48.07c-1.989 0-1.989 1.984-1.989 1.984" fill="url(#a)"/><g fill="#fff"><path d="m393.6 535.7-3.728-2.116 3.728-2.116z" fill-rule="evenodd"/><g transform="matrix(.3637 0 0 .3626 593.5 561.4)"><ellipse cx="-462.6" cy="-130.5" rx="2.5" ry="2.5"/><ellipse cx="-458.1" cy="-123" rx="3" ry="3"/><ellipse cx="-460.6" cy="-138.5" rx="1.5" ry="1.5"/><path d="m-452.1-140-2.844 2.844 4.375 4.375-4.531 5.156 3 2.625 7-8-7-7"/></g><path d="m401.86 534.91v-2.39h.429v.332h.019q.102-.171.312-.288.215-.122.424-.122.556 0 .756.459.293-.459.834-.459.424 0 .639.273.215.268.215.732v1.463h-.449v-1.395q0-.361-.132-.512-.132-.151-.4-.151-.263 0-.439.224-.171.224-.171.512v1.322h-.449v-1.395q0-.361-.132-.512-.132-.151-.4-.151-.263 0-.439.224-.171.224-.171.512v1.322h-.449"/><path d="m407.1 534.99q-.541 0-.883-.361-.337-.361-.337-.912 0-.522.327-.898.332-.376.844-.376.532 0 .849.346.322.346.322.927l-.005.083h-1.888q.019.361.239.571.224.21.522.21.483 0 .654-.41l.4.166q-.117.278-.385.468-.268.185-.659.185m.644-1.561q-.015-.205-.19-.39-.171-.185-.512-.185-.249 0-.434.156-.18.156-.249.42h1.385"/><path d="m408.62 534.91v-2.39h.429v.332h.019q.102-.171.312-.288.215-.122.424-.122.556 0 .756.459.293-.459.834-.459.424 0 .639.273.215.268.215.732v1.463h-.449v-1.395q0-.361-.132-.512-.132-.151-.4-.151-.263 0-.439.224-.171.224-.171.512v1.322h-.449v-1.395q0-.361-.132-.512-.132-.151-.4-.151-.263 0-.439.224-.171.224-.171.512v1.322h-.449"/><path d="m412.99 532.81q.346-.366.883-.366.537 0 .883.366.346.361.346.907 0 .546-.346.912-.346.361-.883.361-.537 0-.883-.361-.346-.366-.346-.912 0-.546.346-.907m.332 1.537q.234.234.551.234.317 0 .546-.234.234-.239.234-.629 0-.39-.234-.624-.229-.239-.546-.239-.317 0-.551.239-.229.234-.229.624 0 .39.229.629"/><path d="m415.91 534.91h-.449v-2.39h.429v.39h.019q.068-.195.278-.322.215-.127.415-.127.2 0 .337.058l-.171.42q-.088-.034-.239-.034-.244 0-.434.195-.185.19-.185.502v1.307"/><path d="m417.92 535.96h-.463l.556-1.205-.985-2.239h.488l.712 1.717h.001l.693-1.717h.488l-1.498 3.444"/><path d="m421.68 534.99q-.4 0-.663-.195-.259-.195-.38-.488l.4-.166q.19.449.649.449.21 0 .341-.093.137-.093.137-.244 0-.234-.327-.317l-.483-.117q-.229-.058-.434-.22-.205-.166-.205-.444 0-.317.278-.512.283-.2.668-.2.317 0 .566.146.249.141.356.41l-.39.161q-.132-.317-.546-.317-.2 0-.337.083-.137.083-.137.224 0 .205.317.278l.473.112q.337.078.498.268.161.19.161.429 0 .322-.263.537-.263.215-.678.215"/><path d="m424.02 534.95q-.376 0-.576-.2-.195-.2-.195-.566v-1.254h-.42v-.41h.42v-.732h.449v.732h.585v.41h-.585v1.22q0 .39.322.39.122 0 .205-.039l.156.385q-.146.063-.361.063"/><path d="m425.22 531.92q-.093.093-.224.093-.132 0-.224-.093-.093-.093-.093-.224 0-.132.093-.224.093-.093.224-.093.132 0 .224.093.093.093.093.224 0 .132-.093.224m0 2.99h-.449v-2.39h.449v2.39"/><path d="m426.88 534.99q-.537 0-.883-.361-.346-.366-.346-.912 0-.546.346-.907.346-.366.883-.366.4 0 .663.195.263.195.385.493l-.41.171q-.185-.449-.668-.449-.298 0-.527.244-.224.244-.224.62 0 .376.224.62.229.244.527.244.502 0 .693-.449l.4.171q-.122.293-.395.493-.268.195-.668.195"/><path d="m428.78 531.42v2.151l1.034-1.049h.576v.019l-.932.932.976 1.42v.019h-.541l-.751-1.127-.361.361v.766h-.449v-3.493h.449"/></g></g></svg>
