<svg viewBox="0 0 48 48" xmlns="http://www.w3.org/2000/svg"><defs><linearGradient id="b" x1="408.3" x2="408.6" y1="544.9" y2="506.8" gradientTransform="matrix(1.529 0 0 1.529 -592.8 -769.1)" gradientUnits="userSpaceOnUse"><stop stop-color="#fa345d" offset="0"/><stop stop-color="#f76a8d" offset="1"/></linearGradient><linearGradient id="a" x2="0" y1="41" y2="23" gradientUnits="userSpaceOnUse"><stop stop-color="#ffb0d4" offset="0"/><stop stop-color="#fbf6fa" offset="1"/></linearGradient></defs><path transform="matrix(.92308 0 0 .92308-5.534-5.541)" d="m32 6c-14.4 0-26 11.6-26 26s11.6 26 26 26 26-11.6 26-26-11.6-26-26-26m0 23c1.662 0 3 1.338 3 3s-1.338 3-3 3-3-1.338-3-3 1.338-3 3-3z" fill="url(#b)"/><path transform="matrix(.92308 0 0 .92308-5.534-5.541)" d="m32 23c-4.986 0-9 4.01-9 9 0 4.986 4.01 9 9 9 4.986 0 9-4.01 9-9 0-4.986-4.01-9-9-9m0 6c1.662 0 3 1.338 3 3s-1.338 3-3 3-3-1.338-3-3 1.338-3 3-3" fill="url(#a)"/><path transform="matrix(.92308 0 0 .92308-5.534-5.541)" d="m32 24a8 8 0 0 0-8 8 8 8 0 0 0 8 8 8 8 0 0 0 8-8 8 8 0 0 0-8-8m0 1a7 7 0 0 1 7 7 7 7 0 0 1-7 7 7 7 0 0 1-7-7 7 7 0 0 1 7-7" fill="#f85278" stroke-linecap="round"/><path transform="matrix(.00888 0 0 .00887 35.11 19.72)" d="m900.2 0h-46.51c-11.05 0-20 8.954-20 20v24.89c0 11.05-8.954 20-20 20h-43.37c-11.05 0-20-8.955-20-20v-24.89c0-11.05-8.953-20-20-20h-522.2c-11.05 0-20 8.954-20 20v24.89c0 11.05-8.954 20-20 20h-43.37c-11.05 0-20-8.955-20-20v-24.89c0-11.05-8.954-20-20-20h-44.95c-11.05 0-20 8.954-20 20v900c0 11.05 8.954 20 20 20h44.95c11.05 0 20-8.954 20-20v-18.28c0-11.05 8.954-20 20-20h43.37c11.05 0 20 8.954 20 20v18.28c0 11.05 8.954 20 20 20h522.2c11.05 0 20-8.954 20-20v-18.28c0-11.05 8.954-20 20-20h43.37c11.05 0 20 8.954 20 20v18.28c0 11.05 8.954 20 20 20h46.51c11.05 0 20-8.954 20-20v-900c0-11.04-8.954-20-20-20m-712.1 765.4c0 11.05-8.954 20-20 20h-43.37c-11.05 0-20-8.954-20-20v-43.37c0-11.04 8.954-20 20-20h43.37c11.05 0 20 8.955 20 20v43.37m0-179.7c0 11.04-8.954 20-20 20h-43.37c-11.05 0-20-8.955-20-20v-43.37c0-11.04 8.954-20 20-20h43.37c11.05 0 20 8.955 20 20v43.37m0-179.7c0 11.05-8.954 20-20 20h-43.37c-11.05 0-20-8.953-20-20v-43.37c0-11.05 8.954-20 20-20h43.37c11.05 0 20 8.954 20 20v43.37m0-179.7c0 11.05-8.954 20-20 20h-43.37c-11.05 0-20-8.954-20-20v-43.37c0-11.04 8.954-20 20-20h43.37c11.05 0 20 8.955 20 20v43.37m475.7 608c0 11.05-8.954 20-20 20h-347.7c-11.05 0-20-8.953-20-20v-160.7c0-11.05 8.954-20 20-20h347.7c11.05 0 20 8.954 20 20v160.7m0-283.9c0 11.05-8.954 20-20 20h-347.7c-11.05 0-20-8.954-20-20v-160.7c0-11.05 8.954-20 20-20h347.7c11.05 0 20 8.955 20 20v160.7m0-283.9c0 11.05-8.954 20-20 20h-347.7c-11.05 0-20-8.954-20-20v-160.7c0-11.05 8.954-20 20-20h347.7c11.05 0 20 8.955 20 20v160.7m169.8 498.9c0 11.05-8.954 20-20 20h-43.37c-11.05 0-20-8.954-20-20v-43.37c0-11.04 8.954-20 20-20h43.37c11.05 0 20 8.955 20 20v43.37m0-179.7c0 11.04-8.954 20-20 20h-43.37c-11.05 0-20-8.955-20-20v-43.37c0-11.04 8.954-20 20-20h43.37c11.05 0 20 8.955 20 20v43.37m0-179.7c0 11.05-8.954 20-20 20h-43.37c-11.05 0-20-8.953-20-20v-43.37c0-11.05 8.954-20 20-20h43.37c11.05 0 20 8.954 20 20v43.37m0-179.7c0 11.05-8.954 20-20 20h-43.37c-11.05 0-20-8.954-20-20v-43.37c0-11.04 8.954-20 20-20h43.37c11.05 0 20 8.955 20 20v43.37" fill="#fdd1e6" stroke-opacity=".8"/></svg>
