<svg viewBox="0 0 48 48" xmlns="http://www.w3.org/2000/svg" xmlns:xlink="http://www.w3.org/1999/xlink"><defs><linearGradient id="c" x2="0" y1="527.8" y2="518.8" gradientTransform="matrix(.8571 0 0 .8889 52.65 68.64)" gradientUnits="userSpaceOnUse" xlink:href="#a"/><linearGradient id="b" x2="0" y1="527.8" y2="518.8" gradientTransform="matrix(.8571 0 0 .8889 44.65 68.64)" gradientUnits="userSpaceOnUse" xlink:href="#a"/><linearGradient id="d" x2="0" y1="527.8" y2="518.8" gradientTransform="matrix(.8571 0 0 .8889 60.65 68.64)" gradientUnits="userSpaceOnUse" xlink:href="#a"/><linearGradient id="a"><stop stop-color="#2a2c2f" offset="0"/><stop stop-color="#424649" offset="1"/></linearGradient><linearGradient id="e" x2="0" y1="547.8" y2="511.8" gradientTransform="matrix(1 0 0 .9687 61 10.21)" gradientUnits="userSpaceOnUse"><stop stop-color="#63984b" offset="0"/><stop stop-color="#8fc278" offset="1"/></linearGradient></defs><g transform="matrix(.8276 0 0 .8276 -268.6 -415.7)"><g transform="matrix(1 0 0 .737 -54.97 144.8)"><rect x="379.6" y="506" width="58" height="36.81" rx="1.453" fill="url(#e)" fill-rule="evenodd"/><path d="m379.6 538.8h58v2.688c-0.03 1.292-1.474 1.289-1.474 1.289h-54.58s-1.941 0.231-1.942-1.394z" fill="#e6ed6e"/></g><g transform="matrix(1.5 0 0 1.5-266.45-270.75)"><rect x="424.6" y="529.8" width="6" height="8" rx=".5" fill="url(#d)"/><rect x="416.6" y="529.8" width="6" height="8" rx=".5" fill="url(#c)"/><rect x="408.6" y="529.8" width="6" height="8" rx=".5" fill="url(#b)"/></g></g></svg>
