<svg viewBox="0 0 48 48" xmlns="http://www.w3.org/2000/svg"><defs><linearGradient id="b" x1="408.8" x2="408.6" y1="541" y2="506.8" gradientTransform="matrix(1.529 0 0 1.529 -592.8 -769.1)" gradientUnits="userSpaceOnUse"><stop stop-color="#8798a9" offset="0"/><stop stop-color="#bfc8d1" offset="1"/></linearGradient><linearGradient id="a" x2="0" y1="41" y2="23" gradientUnits="userSpaceOnUse"><stop stop-color="#3d434a" offset="0"/><stop stop-color="#5f6974" offset="1"/></linearGradient></defs><g transform="matrix(.9231 0 0 .9231 -353.1 -459.5)"><path transform="translate(376.6 491.8)" d="m32 6c-14.4 0-26 11.6-26 26s11.6 26 26 26 26-11.6 26-26-11.6-26-26-26m0 23c1.662 0 3 1.338 3 3s-1.338 3-3 3-3-1.338-3-3 1.338-3 3-3z" fill="url(#b)"/><path transform="translate(376.6 491.8)" d="m32 23c-4.986 0-9 4.01-9 9 0 4.986 4.01 9 9 9 4.986 0 9-4.01 9-9 0-4.986-4.01-9-9-9m0 6c1.662 0 3 1.338 3 3s-1.338 3-3 3-3-1.338-3-3 1.338-3 3-3" fill="url(#a)"/><path transform="translate(376.6 491.8)" d="m32 24a8 8 0 0 0-8 8 8 8 0 0 0 8 8 8 8 0 0 0 8-8 8 8 0 0 0-8-8m0 1a7 7 0 0 1 7 7 7 7 0 0 1-7 7 7 7 0 0 1-7-7 7 7 0 0 1 7-7" fill="#9da9b5" stroke-linecap="round"/></g></svg>
