<svg viewBox="0 0 32 32" xmlns="http://www.w3.org/2000/svg" xmlns:xlink="http://www.w3.org/1999/xlink"><defs><linearGradient id="d" x1="404.3" x2="403.8" y1="542.4" y2="525" gradientUnits="userSpaceOnUse"><stop stop-color="#289bf7" offset="0"/><stop stop-color="#4caaf4" offset="1"/></linearGradient><linearGradient id="c" x1="400.6" x2="400.6" y1="539.8" y2="527.6" gradientUnits="userSpaceOnUse" xlink:href="#b"/><linearGradient id="a" x1="-701.2" x2="-704" y1="647.8" y2="354.3" gradientUnits="userSpaceOnUse"><stop stop-color="#9fd2fa" offset="0"/><stop stop-color="#cde8fe" offset="1"/></linearGradient><linearGradient id="e" x1="59.12" x2="59.15" y1="-13.3" y2="-37.78" gradientTransform="matrix(4.175 0 0 4.168 -1070 447.7)" gradientUnits="userSpaceOnUse" xlink:href="#b"/><linearGradient id="b"><stop stop-color="#289bf7" offset="0"/><stop stop-color="#71b9f1" offset="1"/></linearGradient></defs><g transform="translate(-384.6 -515.8)"><path transform="matrix(.0558 0 0 .0558 437.3 505.4)" d="m-884.1 294.8c-4.626 0-8.349 3.718-8.349 8.335v161.4l468.2 1v-121.2c0-4.618-3.724-8.335-8.35-8.335h-272.6c-8.51 0.751-9.607-0.377-13.81-5.981-5.964-7.968-14.97-21.44-20.84-29.21-4.712-6.805-5.477-6.02-13.29-6.02z" fill="url(#e)"/><rect transform="matrix(.0558 0 0 .0558 437.3 505.4)" x="-890.3" y="356.8" width="463.8" height="295.1" rx="9.63" fill="url(#a)" stroke="url(#a)" stroke-width="2.378"/><rect x="387.6" y="525.3" width="25.88" height="16.47" rx=".537" fill="none" stroke="url(#d)" stroke-linecap="round" stroke-linejoin="round" stroke-width=".3"/><path d="m400.56 527.72c-.814 0-1.588.161-2.331.48-1.476.633-2.556 1.706-3.19 3.184-.318.74-.472 1.515-.472 2.329 0 .814.154 1.596.472 2.337.634 1.478 1.715 2.557 3.19 3.19.743.319 1.517.48 2.331.48.814 0 1.593-.163 2.337-.48 1.488-.635 2.563-1.715 3.196-3.19.319-.743.48-1.523.48-2.337 0-.814-.161-1.586-.48-2.329-.633-1.476-1.708-2.55-3.196-3.184-.744-.317-1.523-.48-2.337-.48m-.372 2.201c.306 0 .557.251.557.557v3.812l2.162 1.69c.25.186.288.538.102.779-.102.139-.27.212-.437.212-.121 0-.24-.046-.342-.12l-2.384-1.855c-.13-.102-.214-.26-.214-.437v-4.081c0-.306.251-.557.557-.557" fill="url(#c)" opacity=".99"/></g></svg>
