<svg viewBox="0 0 32 32" xmlns="http://www.w3.org/2000/svg" xmlns:xlink="http://www.w3.org/1999/xlink"><defs><linearGradient id="d" x1="404.3" x2="403.8" y1="542.4" y2="525" gradientUnits="userSpaceOnUse"><stop stop-color="#289bf7" offset="0"/><stop stop-color="#4caaf4" offset="1"/></linearGradient><linearGradient id="c" x1="400.4" x2="400.6" y1="539.7" y2="527.6" gradientUnits="userSpaceOnUse" xlink:href="#b"/><linearGradient id="a" x1="-701.2" x2="-704" y1="647.8" y2="354.3" gradientUnits="userSpaceOnUse"><stop stop-color="#9fd2fa" offset="0"/><stop stop-color="#cde8fe" offset="1"/></linearGradient><linearGradient id="e" x1="59.12" x2="59.15" y1="-13.3" y2="-37.78" gradientTransform="matrix(4.175 0 0 4.168 -1070 447.7)" gradientUnits="userSpaceOnUse" xlink:href="#b"/><linearGradient id="b"><stop stop-color="#289bf7" offset="0"/><stop stop-color="#71b9f1" offset="1"/></linearGradient></defs><g transform="translate(-384.6 -515.8)"><path transform="matrix(.0558 0 0 .0558 437.3 505.4)" d="m-884.1 294.8c-4.626 0-8.349 3.718-8.349 8.335v161.4l468.2 1v-121.2c0-4.618-3.724-8.335-8.35-8.335h-272.6c-8.51 0.751-9.607-0.377-13.81-5.981-5.964-7.968-14.97-21.44-20.84-29.21-4.712-6.805-5.477-6.02-13.29-6.02z" fill="url(#e)"/><rect transform="matrix(.0558 0 0 .0558 437.3 505.4)" x="-890.3" y="356.8" width="463.8" height="295.1" rx="9.63" fill="url(#a)" stroke="url(#a)" stroke-width="2.378"/><rect x="387.6" y="525.3" width="25.88" height="16.47" rx=".537" fill="none" stroke="url(#d)" stroke-linecap="round" stroke-linejoin="round" stroke-width=".3"/><path d="m400.6 527.6a6 6 0 0 0-6 6 6 6 0 0 0 6 6 6 6 0 0 0 6-6 6 6 0 0 0-6-6m1.514 2.672c0.022 1e-4 0.048 0.011 0.069 0.017 0.106 0.03 0.195 0.121 0.226 0.227l1.093 3.981 0.573-0.777c0.058-0.086 0.147-0.146 0.251-0.149h0.633c0.013 0 0.026 0.014 0.026 0.026v0.611c0 0.013-0.013 0.017-0.025 0.017h-0.469l-0.841 1.17c-0.144 0.19-0.503 0.124-0.573-0.105l-0.997-3.545-0.685 2.261c-0.042 0.128-0.178 0.216-0.312 0.219h-1.136l-0.928 3.072c-0.046 0.167-0.243 0.277-0.408 0.227-0.106-0.03-0.195-0.121-0.226-0.227l-1.102-3.989-0.563 0.777c-0.058 0.087-0.157 0.137-0.26 0.139h-0.65c-0.012 0-0.017-5e-3 -0.017-0.017v-0.611c0-0.013 5e-3 -0.026 0.017-0.026h0.494l0.841-1.152c0.144-0.19 0.502-0.123 0.572 0.105l0.989 3.545 0.693-2.27c0.042-0.128 0.17-0.225 0.304-0.227h1.136l0.936-3.055c0.035-0.125 0.151-0.219 0.278-0.236 0.021-2e-3 0.039-8e-3 0.061-8e-3" fill="url(#c)"/></g></svg>
