<svg viewBox="0 0 32 32" xmlns="http://www.w3.org/2000/svg"><defs><linearGradient id="c" x1="59.9" x2="59.15" y1="2.174" y2="-37.78" gradientTransform="matrix(4.175 0 0 4.168 -1070 447.7)" gradientUnits="userSpaceOnUse"><stop stop-color="#289bf7" offset="0"/><stop stop-color="#71b9f1" offset="1"/></linearGradient><linearGradient id="a" x1="-701.2" x2="-704" y1="647.8" y2="354.3" gradientUnits="userSpaceOnUse"><stop stop-color="#9fd2fa" offset="0"/><stop stop-color="#cde8fe" offset="1"/></linearGradient><linearGradient id="b" x1="-591" x2="-601.2" y1="664" y2="353" gradientUnits="userSpaceOnUse"><stop stop-color="#289bf7" offset="0"/><stop stop-color="#4caaf4" offset="1"/></linearGradient></defs><g transform="matrix(.07089 0 0 .07017 23.3 -40.67)"><path transform="matrix(.7872 0 0 .7952 415.3 430.1)" d="m-884.1 294.8c-4.626 0-8.349 3.718-8.349 8.335v161.4l468.2 1v-121.2c0-4.618-3.724-8.335-8.35-8.335h-272.6c-8.51 0.751-9.607-0.377-13.81-5.981-5.964-7.968-14.97-21.44-20.84-29.21-4.712-6.805-5.477-6.02-13.29-6.02z" fill="url(#c)"/><path transform="matrix(.7872 0 0 .7952 415.3 430.1)" d="m-880.6 428.5h444.6c5.335 0 9.63 4.295 9.63 9.63v204.2c0 5.335-4.295 9.63-9.63 9.63h-444.6c-5.335 0-9.63-4.295-9.63-9.63v-204.2c0-5.335 4.295-9.63 9.63-9.63z" fill="url(#a)" stroke="url(#a)" stroke-width="2.378"/><rect transform="matrix(.7872 0 0 .7952 415.3 430.1)" x="-890.3" y="356.8" width="463.8" height="295.1" rx="9.63" fill="none" stroke="url(#b)" stroke-linecap="round" stroke-linejoin="round" stroke-width="5.376"/></g></svg>
