<svg viewBox="0 0 32 32" xmlns="http://www.w3.org/2000/svg" xmlns:xlink="http://www.w3.org/1999/xlink"><defs><linearGradient id="d" x1="562.4" x2="562.7" y1="504.6" y2="546.4" gradientTransform="matrix(.5708 0 0 -.5697 24.38 830.5)" gradientUnits="userSpaceOnUse" xlink:href="#a"/><linearGradient id="e" x1="564.2" x2="564" y1="506.5" y2="548.2" gradientTransform="matrix(.5708 0 0 -.5697 23.52 831.7)" gradientUnits="userSpaceOnUse" xlink:href="#a"/><linearGradient id="c" x1="559.2" x2="560.1" y1="506" y2="546.7" gradientTransform="matrix(.5708 0 0 -.5697 25.8 830.9)" gradientUnits="userSpaceOnUse" xlink:href="#a"/><linearGradient id="f" x1="-591" x2="-601.2" y1="664" y2="353" gradientUnits="userSpaceOnUse"><stop stop-color="#289bf7" offset="0"/><stop stop-color="#4caaf4" offset="1"/></linearGradient><linearGradient id="a"><stop stop-color="#289bf7" offset="0"/><stop stop-color="#71b9f1" offset="1"/></linearGradient><linearGradient id="g" x1="59.12" x2="59.15" y1="-13.3" y2="-37.78" gradientTransform="matrix(4.175 0 0 4.168 -1070 447.7)" gradientUnits="userSpaceOnUse" xlink:href="#a"/><linearGradient id="b" x1="-701.2" x2="-704" y1="647.8" y2="354.3" gradientUnits="userSpaceOnUse"><stop stop-color="#9fd2fa" offset="0"/><stop stop-color="#cde8fe" offset="1"/></linearGradient></defs><g transform="translate(-384.57-515.8)"><g transform="matrix(.0558 0 0 .0558 437.3 505.4)"><path d="m-884.1 294.8c-4.626 0-8.349 3.718-8.349 8.335v161.4l468.2 1v-121.2c0-4.618-3.724-8.335-8.35-8.335h-272.6c-8.51 0.751-9.607-0.377-13.81-5.981-5.964-7.968-14.97-21.44-20.84-29.21-4.712-6.805-5.477-6.02-13.29-6.02z" fill="url(#g)"/><rect x="-890.3" y="356.8" width="463.8" height="295.1" rx="9.63" fill="url(#b)" stroke="url(#b)" stroke-width="2.378"/><rect x="-890.3" y="356.8" width="463.8" height="295.1" rx="9.63" fill="none" stroke="url(#f)" stroke-linecap="round" stroke-linejoin="round" stroke-width="5.376"/></g><g transform="matrix(.5 0 0 .5 225.1 268.2)" fill-rule="evenodd"><path d="m364 540.2c-3.974-3.795-11.97-10.05-18.05-8.134-3.398 1.072-5.04 4.17-1.173 4.239 7.898 0.142 11.77-0.416 19.22 3.895" fill="url(#e)"/><path d="m342.2 536.2c1.285-5.337 4.619-14.92 10.77-16.59 3.438-0.934 6.503 0.782 3.284 2.932-6.565 4.385-10.12 6.01-14.06 13.66" fill="url(#d)"/><path d="m345.5 543.3c-3.523-4.215-9.234-12.6-6.903-18.53 1.302-3.311 4.51-4.741 4.317-0.88-0.394 7.875-1.216 11.69 2.586 19.41" fill="url(#c)"/></g></g></svg>
