<svg viewBox="0 0 32 32" xmlns="http://www.w3.org/2000/svg" xmlns:xlink="http://www.w3.org/1999/xlink"><defs><linearGradient id="d" x1="-591" x2="-601.2" y1="664" y2="353" gradientUnits="userSpaceOnUse"><stop stop-color="#289bf7" offset="0"/><stop stop-color="#4caaf4" offset="1"/></linearGradient><linearGradient id="c" x1="400.6" x2="400.6" y1="539.2" y2="528" gradientUnits="userSpaceOnUse" xlink:href="#b"/><linearGradient id="a" x1="-701.2" x2="-704" y1="647.8" y2="354.3" gradientUnits="userSpaceOnUse"><stop stop-color="#9fd2fa" offset="0"/><stop stop-color="#cde8fe" offset="1"/></linearGradient><linearGradient id="e" x1="59.12" x2="59.15" y1="-13.3" y2="-37.78" gradientTransform="matrix(4.175 0 0 4.168 -1070 447.7)" gradientUnits="userSpaceOnUse" xlink:href="#b"/><linearGradient id="b"><stop stop-color="#289bf7" offset="0"/><stop stop-color="#71b9f1" offset="1"/></linearGradient></defs><g transform="translate(-384.57-515.8)"><g transform="matrix(.0558 0 0 .0558 437.3 505.4)"><path d="m-884.1 294.8c-4.626 0-8.349 3.718-8.349 8.335v161.4l468.2 1v-121.2c0-4.618-3.724-8.335-8.35-8.335h-272.6c-8.51 0.751-9.607-0.377-13.81-5.981-5.964-7.968-14.97-21.44-20.84-29.21-4.712-6.805-5.477-6.02-13.29-6.02z" fill="url(#e)"/><rect x="-890.3" y="356.8" width="463.8" height="295.1" rx="9.63" fill="url(#a)" stroke="url(#a)" stroke-width="2.378"/><rect x="-890.3" y="356.8" width="463.8" height="295.1" rx="9.63" fill="none" stroke="url(#d)" stroke-linecap="round" stroke-linejoin="round" stroke-width="5.376"/></g><path d="m400.85 527.72c-1.337.043 3.562 6.803-.211 6.371 3.147.872 3.867-3.189 3.225-5.176-.636-1.968-.967-.74-2.864-1.177-.057-.013-.106-.019-.149-.018m-3.749.942c-2.068-.003-1 .692-2 2.361-.957 1.594 7.558-1.261 5.931 2.306 1.801-2.723-1.838-4.664-3.927-4.666m1.455 3.051c-1.655-.004-3.32 1.876-3.786 3.303-.642 1.966.348 1.168 1.625 2.636 1.22 1.403 1.137-7.579 4.03-4.929-.572-.718-1.218-1.01-1.866-1.01m7.113.319c-1.117.107-5.193 5.287-5.875 1.925.143 3.262 4.229 2.692 5.92 1.467 1.675-1.214.404-1.149.234-3.089-.02-.232-.119-.319-.279-.304m-6.01 1.08c-3.058 1.144-1.253 4.854.434 6.084 1.672 1.218 1.218.029 3.01-.732 1.711-.727-6.857-3.423-3.444-5.352" fill="url(#c)" fill-rule="evenodd"/></g></svg>
