<svg viewBox="0 0 32 32" xmlns="http://www.w3.org/2000/svg" xmlns:xlink="http://www.w3.org/1999/xlink"><defs><linearGradient id="d" x1="-591" x2="-601.2" y1="664" y2="353" gradientUnits="userSpaceOnUse"><stop stop-color="#289bf7" offset="0"/><stop stop-color="#4caaf4" offset="1"/></linearGradient><linearGradient id="c" x1="399.1" x2="399.5" y1="539.4" y2="527.7" gradientUnits="userSpaceOnUse" xlink:href="#b"/><linearGradient id="a" x1="-701.2" x2="-704" y1="647.8" y2="354.3" gradientUnits="userSpaceOnUse"><stop stop-color="#9fd2fa" offset="0"/><stop stop-color="#cde8fe" offset="1"/></linearGradient><linearGradient id="e" x1="59.12" x2="59.15" y1="-13.3" y2="-37.78" gradientTransform="matrix(4.175 0 0 4.168 -1070 447.7)" gradientUnits="userSpaceOnUse" xlink:href="#b"/><linearGradient id="b"><stop stop-color="#289bf7" offset="0"/><stop stop-color="#71b9f1" offset="1"/></linearGradient></defs><g transform="translate(-384.57-515.8)"><g transform="matrix(.0558 0 0 .0558 437.3 505.4)"><path d="m-884.1 294.8c-4.626 0-8.349 3.718-8.349 8.335v161.4l468.2 1v-121.2c0-4.618-3.724-8.335-8.35-8.335h-272.6c-8.51 0.751-9.607-0.377-13.81-5.981-5.964-7.968-14.97-21.44-20.84-29.21-4.712-6.805-5.477-6.02-13.29-6.02z" fill="url(#e)"/><rect x="-890.3" y="356.8" width="463.8" height="295.1" rx="9.63" fill="url(#a)" stroke="url(#a)" stroke-width="2.378"/><rect x="-890.3" y="356.8" width="463.8" height="295.1" rx="9.63" fill="none" stroke="url(#d)" stroke-linecap="round" stroke-linejoin="round" stroke-width="5.376"/></g><path d="m399.46 527.73l.089.019c1.035-.344 3.358 1.01 2.841 2.216-.131.189-.109.526.049.738l-2.905 2.901c-.163-.162-.525-.159-.691 0l-4.804 4.603c-.438.42-.094.776.091.964l.862.86c.189.187.686.439 1.04.066l4.534-4.77c.158-.166.159-.522 0-.686 0 0 .002-.002 0-.002l2.917-2.91c.308.277.599.301.875.226.533-.146.83.375 1.149.755l-.144.141c-.213.215-.193.577.046.816.239.238.603.258.816.046l.953-.95c.213-.215.193-.577-.047-.815-.215-.216-.528-.244-.746-.09-.653-.732-.31-.842-1.172-1.794l-1.615-1.647c-1.163-1.138-2.673-1.137-4.137-.685" fill="url(#c)"/></g></svg>
