<svg viewBox="0 0 32 32" xmlns="http://www.w3.org/2000/svg" xmlns:xlink="http://www.w3.org/1999/xlink"><defs><linearGradient id="d" x1="-591" x2="-601.2" y1="664" y2="353" gradientUnits="userSpaceOnUse"><stop stop-color="#289bf7" offset="0"/><stop stop-color="#4caaf4" offset="1"/></linearGradient><linearGradient id="a" x1="399.5" x2="400.5" y1="539" y2="528.8" gradientUnits="userSpaceOnUse" xlink:href="#c"/><linearGradient id="b" x1="-701.2" x2="-704" y1="647.8" y2="354.3" gradientUnits="userSpaceOnUse"><stop stop-color="#9fd2fa" offset="0"/><stop stop-color="#cde8fe" offset="1"/></linearGradient><linearGradient id="e" x1="59.12" x2="59.15" y1="-13.3" y2="-37.78" gradientTransform="matrix(4.175 0 0 4.168 -1070 447.7)" gradientUnits="userSpaceOnUse" xlink:href="#c"/><linearGradient id="c"><stop stop-color="#289bf7" offset="0"/><stop stop-color="#71b9f1" offset="1"/></linearGradient></defs><g transform="translate(-384.57-515.8)"><g transform="matrix(.0558 0 0 .0558 437.3 505.4)"><path d="m-884.1 294.8c-4.626 0-8.349 3.718-8.349 8.335v161.4l468.2 1v-121.2c0-4.618-3.724-8.335-8.35-8.335h-272.6c-8.51 0.751-9.607-0.377-13.81-5.981-5.964-7.968-14.97-21.44-20.84-29.21-4.712-6.805-5.477-6.02-13.29-6.02z" fill="url(#e)"/><rect x="-890.3" y="356.8" width="463.8" height="295.1" rx="9.63" fill="url(#b)" stroke="url(#b)" stroke-width="2.378"/><rect x="-890.3" y="356.8" width="463.8" height="295.1" rx="9.63" fill="none" stroke="url(#d)" stroke-linecap="round" stroke-linejoin="round" stroke-width="5.376"/></g><path d="m400.47 528.83l-4.424 5.662c-.829 1.062-.597 2.953.464 3.782 1.062.829 2.953.597 3.782-.464l4.424-5.662.553-.708c.553-.708.398-1.969-.31-2.521-.708-.553-1.969-.398-2.522.31l-.553.708-3.318 4.247-.553.708c-.276.354-.199.984.155 1.261.354.276.984.199 1.261-.155l3.871-4.954.708.553-3.871 4.954c-.553.708-1.814.863-2.521.31-.708-.553-.863-1.814-.31-2.521l.553-.708 3.871-4.954c.829-1.062 2.721-1.294 3.782-.464 1.062.829 1.294 2.721.464 3.782l-.553.708-4.424 5.662c-1.106 1.416-3.627 1.725-5.04.619-1.416-1.106-1.725-3.627-.619-5.04l4.424-5.662.708.553z" fill="url(#a)" stroke="url(#a)" stroke-width=".06"/></g></svg>
