<svg viewBox="0 0 32 32" xmlns="http://www.w3.org/2000/svg" xmlns:xlink="http://www.w3.org/1999/xlink"><defs><linearGradient id="d" x1="-591" x2="-601.2" y1="664" y2="353" gradientUnits="userSpaceOnUse"><stop stop-color="#289bf7" offset="0"/><stop stop-color="#4caaf4" offset="1"/></linearGradient><linearGradient id="c" x2="0" y1="539.8" y2="530" gradientUnits="userSpaceOnUse" xlink:href="#b"/><linearGradient id="a" x1="-701.2" x2="-704" y1="647.8" y2="354.3" gradientUnits="userSpaceOnUse"><stop stop-color="#9fd2fa" offset="0"/><stop stop-color="#cde8fe" offset="1"/></linearGradient><linearGradient id="e" x1="59.12" x2="59.15" y1="-13.3" y2="-37.78" gradientTransform="matrix(4.175 0 0 4.168 -1070 447.7)" gradientUnits="userSpaceOnUse" xlink:href="#b"/><linearGradient id="b"><stop stop-color="#289bf7" offset="0"/><stop stop-color="#71b9f1" offset="1"/></linearGradient></defs><g transform="translate(-384.57-515.8)"><g transform="matrix(.0558 0 0 .0558 437.3 505.4)"><path d="m-884.1 294.8c-4.626 0-8.349 3.718-8.349 8.335v161.4l468.2 1v-121.2c0-4.618-3.724-8.335-8.35-8.335h-272.6c-8.51 0.751-9.607-0.377-13.81-5.981-5.964-7.968-14.97-21.44-20.84-29.21-4.712-6.805-5.477-6.02-13.29-6.02z" fill="url(#e)"/><rect x="-890.3" y="356.8" width="463.8" height="295.1" rx="9.63" fill="url(#a)" stroke="url(#a)" stroke-width="2.378"/><rect x="-890.3" y="356.8" width="463.8" height="295.1" rx="9.63" fill="none" stroke="url(#d)" stroke-linecap="round" stroke-linejoin="round" stroke-width="5.376"/></g><path d="m408.16 534.72c.691 0 1.252-.544 1.252-1.217 0-.672-.56-1.217-1.252-1.217-.691 0-1.251.545-1.251 1.217 0 .673.56 1.217 1.251 1.217m-4.588 0c.691 0 1.252-.544 1.252-1.217 0-.672-.56-1.217-1.252-1.217-.691 0-1.251.545-1.251 1.217 0 .673.56 1.217 1.251 1.217m-5.828 4.625c1.188 0 2.295-.336 3.228-.916.543-.337.547-1.059.091-1.501l-2.494-2.427c-.457-.443-.457-1.162 0-1.605l2.696-2.622c.456-.444.47-1.181-.056-1.543-.979-.675-2.175-1.072-3.466-1.072-3.316.0001-6.01 2.618-6.01 5.844 0 3.227 2.689 5.842 6.01 5.842" fill="url(#c)"/></g></svg>
