<svg version="1.1" viewBox="0 0 32 32" xmlns="http://www.w3.org/2000/svg" xmlns:xlink="http://www.w3.org/1999/xlink"><defs><linearGradient id="a" x1="407.2" x2="407.7" y1="545.5" y2="528.8" gradientTransform="matrix(1.281 0 0 1.281 -532.6 -671)" gradientUnits="userSpaceOnUse"><stop stop-color="#42a603" offset="0"/><stop stop-color="#78da06" offset="1"/></linearGradient></defs><g transform="translate(26.44 1.356)"><path d="m-20.21 1.765h19.52c0.5406 0 0.793 0.4676 0.9762 0.9762l0.8788 2.44c0.1832 0.5086-0.4356 0.9762-0.9762 0.9762h-21.28c-0.5406 0-1.159-0.4676-0.9762-0.9762l0.8788-2.44c0.1832-0.5086 0.4356-0.9762 0.9762-0.9762z" fill="#42a603" stroke="#42a603" stroke-width=".2434"/><path d="m-0.6833 1.893-3.075 21.01c-0.07687 0.524-0.4356 0.9544-0.9762 0.9544h-11.42c-0.5406 0-0.8993-0.4317-0.9762-0.9544l-3.075-21.01z" fill="#81f238" opacity=".3"/><path d="m1.174 5.672-2.098 20.77c-0.05252 0.5201-0.4356 0.9442-0.9762 0.9442h-17.08c-0.5406 0-0.9237-0.424-0.9762-0.9442l-2.098-20.77z" fill="url(#a)" stroke="#42a603" stroke-width=".5124"/><path d="m-14.44 19.71c-0.1255 0.2242-0.2242 0.5624-0.2242 0.7751 0 0.04868 0 0.1127 0.0013 0.1998l-1.56-2.685c-0.04996-0.08711-0.08711-0.2127-0.08711-0.3241 0-0.1127 0.03715-0.2498 0.08711-0.3369l0.7494-1.311-0.8366-0.474 2.722-0.04996 1.323 2.385-0.8494-0.4868zm1.199-7.859c0.237-0.4125 0.6239-0.6367 1.099-0.6367 0.5124 0 0.9121 0.237 1.199 0.7238l0.424 0.7123-1.473 2.84-2.385-1.68zm0.1742 10.02c-0.7123 0-1.299-0.5867-1.299-1.299 0-0.1998 0.08711-0.5368 0.2127-0.7494l0.3997-0.7123h2.959v2.759h-2.273m2.373-10.09c-0.187-0.3241-0.4369-0.5496-0.7366-0.6751h3.072c0.2742 0 0.4868 0.1127 0.6124 0.3254l0.7622 1.299 0.8237-0.4868-1.323 2.373-2.71-0.03843 0.8366-0.474zm4.732 7.36c0.3741 0 0.6867-0.09992 0.9493-0.2998l-1.549 2.697c-0.1255 0.2127-0.3497 0.3459-0.6111 0.3369h-1.462v0.9608l-1.399-2.335 1.399-2.335v0.9736h2.672m1.198-2.247c0.1127 0.1998 0.1755 0.4125 0.1755 0.6367 0 0.4497-0.287 0.9237-0.6867 1.148-0.187 0.09992-0.4509 0.1781-0.711 0.1627h-0.825l-1.473-2.548 2.385-1.361z" fill="#e7f5da"/></g></svg>
