<svg viewBox="0 0 32 32" xmlns="http://www.w3.org/2000/svg" xmlns:xlink="http://www.w3.org/1999/xlink"><defs><linearGradient id="d" x1="-591" x2="-601.2" y1="664" y2="353" gradientUnits="userSpaceOnUse"><stop stop-color="#289bf7" offset="0"/><stop stop-color="#4caaf4" offset="1"/></linearGradient><linearGradient id="c" x1="257" x2="269.7" y1="1708" y2="225.6" gradientUnits="userSpaceOnUse" xlink:href="#b"/><linearGradient id="a" x1="-701.2" x2="-704" y1="647.8" y2="354.3" gradientUnits="userSpaceOnUse"><stop stop-color="#9fd2fa" offset="0"/><stop stop-color="#cde8fe" offset="1"/></linearGradient><linearGradient id="e" x1="59.12" x2="59.15" y1="-13.3" y2="-37.78" gradientTransform="matrix(4.175 0 0 4.168 -1070 447.7)" gradientUnits="userSpaceOnUse" xlink:href="#b"/><linearGradient id="b"><stop stop-color="#289bf7" offset="0"/><stop stop-color="#71b9f1" offset="1"/></linearGradient></defs><g transform="matrix(.00823 0 0 .00815 13.77 10.04)"><path transform="matrix(6.777 0 0 6.846 4732 -2519)" d="m-884.1 294.8c-4.626 0-8.349 3.718-8.349 8.335v161.4l468.2 1v-121.2c0-4.618-3.724-8.335-8.35-8.335h-272.6c-8.51 0.751-9.607-0.377-13.81-5.981-5.964-7.968-14.97-21.44-20.84-29.21-4.712-6.805-5.477-6.02-13.29-6.02z" fill="url(#e)"/><rect transform="matrix(6.777 0 0 6.846 4732 -2519)" x="-890.3" y="356.8" width="463.8" height="295.1" rx="9.63" fill="url(#a)" stroke="url(#a)" stroke-width="2.378"/><rect transform="matrix(6.777 0 0 6.846 4732 -2519)" x="-890.3" y="356.8" width="463.8" height="295.1" rx="9.63" fill="none" stroke="url(#d)" stroke-linecap="round" stroke-linejoin="round" stroke-width="5.376"/><path d="m-498 1018 148.8 157.7 124-131.4v631h992.2v-631l124 131.4 148.8-157.7-768.9-815-768.9 815m1067-709.8v78.87l198.4 210.3v-289.2h-198.4z" fill="url(#c)"/></g></svg>
