<svg viewBox="0 0 22 22" xmlns="http://www.w3.org/2000/svg"><g transform="translate(0 -1030)"><path transform="matrix(.7834 0 0 .7834 4.881 226.1)" d="m3.555 1046.8c-.206-.387-.221-1.621-.03-2.548.412-2.01 1.307-3.861 2.618-5.423l.519-.619-2.391-2.531h7.259c.004.151 0 7.285 0 7.285l-2.552-2.344c-.441.169-2.848 2.458-3.504 3.33-.447.595-.973 1.588-1.247 2.355-.293.82-.443.929-.674.494z" fill="#fff" fill-opacity=".947" stroke="#f6f6f6" stroke-linecap="round" stroke-linejoin="round" stroke-width=".118"/><g transform="matrix(.2857 0 0 .2857 -208.7 987.1)" fill="#4d4d4d"><rect x="740.9" y="161.9" width="56" height="56" rx="28" fill-opacity=".98" stroke-width="1.083"/><path transform="matrix(.08013 0 0 .08013 753.8 174.8)" d="m299 161.3h-185.8v-46.28c0-41.34 33.64-74.98 74.98-74.98 33.76 0 63.51 22.72 72.36 55.24 2.898 10.66 13.89 16.95 24.55 14.05 10.66-2.898 16.95-13.89 14.05-24.55-13.57-49.9-59.2-84.74-111-84.74-63.4 0-115 51.58-115 115v46.72c-9.06 1.902-15.89 9.952-15.89 19.57v175c0 11.03 8.972 20 20 20h221.7c11.03 0 20-8.972 20-20v-175c0-11.03-8.972-20-20-20m-84 149.6c0.408 2.162-1.058 3.931-3.258 3.931h-46.68c-2.2 0-3.666-1.769-3.258-3.931l7.432-39.39c-5.626-5.131-9.157-12.52-9.157-20.73 0-15.5 12.56-28.06 28.06-28.06 15.5 0 28.06 12.56 28.06 28.06 0 7.991-3.346 15.2-8.707 20.3z" fill="#f6f6f6"/></g></g></svg>
