<svg viewBox="0 0 22 22" xmlns="http://www.w3.org/2000/svg"><g transform="translate(0 -1030)"><path transform="matrix(.7834 0 0 .7834 4.881 226.1)" d="m3.555 1046.8c-.206-.387-.221-1.621-.03-2.548.412-2.01 1.307-3.861 2.618-5.423l.519-.619-2.391-2.531h7.259c.004.151 0 7.285 0 7.285l-2.552-2.344c-.441.169-2.848 2.458-3.504 3.33-.447.595-.973 1.588-1.247 2.355-.293.82-.443.929-.674.494z" fill="#fff" fill-opacity=".947" stroke="#f6f6f6" stroke-linecap="round" stroke-linejoin="round" stroke-width=".118"/><g transform="matrix(.2857 0 0 .2857 -208.7 987.1)"><rect x="740.9" y="161.9" width="56" height="56" rx="28" fill="#4d4d4d" fill-opacity=".98" stroke-width="1.083"/><path transform="matrix(1.873 0 0 1.873 748.2 -1761)" d="m15.927 1040.17v-1.998c0-2.712-2.206-4.919-4.919-4.919-2.712 0-4.919 2.207-4.919 4.919v1.998c-.388.081-.68.426-.68.837v7.488c0 .472.384.855.856.855h9.485c.472 0 .856-.384.856-.855v-7.488c0-.411-.292-.756-.68-.837m-3.769 6.383c.017.093-.045.168-.139.168h-1.997c-.094 0-.157-.076-.139-.168l.318-1.685c-.241-.219-.392-.536-.392-.887 0-.663.537-1.2 1.2-1.2.663 0 1.2.537 1.2 1.2 0 .342-.143.65-.372.869zm2.058-6.402h-6.415v-1.98c0-1.769 1.439-3.207 3.207-3.207 1.769 0 3.207 1.439 3.207 3.207z" fill="#f6f6f6"/></g></g></svg>
