<svg viewBox="0 0 22 22" xmlns="http://www.w3.org/2000/svg"><g transform="translate(-421.7 -525.8)"><path d="m435.6 538.7a3 3 0 0 0-0.3246 3.86l0.725-0.725a2 2 0 0 1 0.3066-2.428 2 2 0 0 1 2.429-0.308l0.72-0.72a3 3 0 0 0-3.856 0.3204m0.3867 4.563a3 3 0 0 0 3.856-0.3204 3 3 0 0 0 0.3246-3.86l-0.725 0.725a2 2 0 0 1-0.3066 2.428 2 2 0 0 1-2.429 0.308l-0.72 0.72" fill="#fff"/><path transform="matrix(.9427 0 0 .9477 60.36 21.23)" d="m391.84 540.91c-.421-.329-.949-.524-1.523-.524-1.351 0-2.451 1.084-2.485 2.435-1.395.526-2.388 1.88-2.388 3.466 0 1.874 1.385 3.423 3.182 3.667v.034h12.73v-.006c1.775-.104 3.182-1.584 3.182-3.395 0-1.747-1.309-3.186-2.994-3.379.007-.106.011-.214.011-.322 0-2.707-2.271-4.901-5.072-4.901-2.073 0-3.856 1.202-4.643 2.925" fill="#4d4d4d"/><rect x="433.7" y="536.8" width="8" height="8" rx="4" fill="#1d99f3"/></g></svg>
