<svg viewBox="0 0 22 22" xmlns="http://www.w3.org/2000/svg"><g transform="translate(0 -1030)"><path d="m11 1033a8 8 0 0 0-8.001 8.001 8 8 0 0 0 8.001 7.999 8 8 0 0 0 7.999-7.999 8 8 0 0 0-7.999-8.001" fill="#4d4d4d" fill-rule="evenodd"/><g transform="matrix(.2917 0 0 .2917 5.75 1036)"><path d="m31.2 7h-26.4c-1 0-1.8.8-1.8 1.8v17.5c0 1 .8 1.8 1.8 1.8h26.5c1 0 1.8-.8 1.8-1.8v-17.5c-.1-1-.9-1.8-1.9-1.8" fill="none" fill-opacity=".12" stroke="#fff" stroke-linejoin="round" stroke-miterlimit="10" stroke-width="2"/><path d="m33 30h-30c-1.7 0-3-1.3-3-3v-1h36v1c0 1.7-1.3 3-3 3" fill="#fff"/></g></g></svg>
