<svg viewBox="0 0 22 22" xmlns="http://www.w3.org/2000/svg"><g transform="matrix(.07993 0 0 .07993 6.64 8.198)" fill="#4d4d4d"><path d="m20.72 77.21c-0.815-3.259-1.222-6.327-1.222-9.206v-10.43c0-1.412-0.516-2.634-1.548-3.666s-2.254-1.548-3.666-1.548c-1.413 0-2.635 0.516-3.667 1.548s-1.548 2.254-1.548 3.666v10.43c0 6.03 1.141 11.84 3.422 17.44l8.229-8.23"/><path d="m56 94.07c7.17 0 13.31-2.553 18.41-7.657 5.105-5.104 7.658-11.24 7.658-18.41v-10.43l29.41-29.41c0.543-0.543 0.815-1.168 0.815-1.874s-0.271-1.331-0.815-1.874l-6.68-6.681c-0.544-0.544-1.168-0.815-1.875-0.815-0.705 0-1.33 0.271-1.873 0.815l-100.5 100.5c-0.543 0.543-0.814 1.168-0.814 1.873 0 0.707 0.271 1.332 0.814 1.875l6.681 6.681c0.543 0.543 1.168 0.814 1.874 0.814s1.331-0.271 1.874-0.814l20.69-20.69c5.974 3.695 12.36 5.895 19.15 6.6v10.76h-20.86c-1.412 0-2.635 0.516-3.666 1.548-1.032 1.032-1.549 2.254-1.549 3.666 0 1.411 0.517 2.635 1.549 3.666 1.031 1.032 2.254 1.549 3.666 1.549h52.14c1.412 0 2.635-0.517 3.666-1.549 1.033-1.031 1.549-2.255 1.549-3.666 0-1.412-0.516-2.634-1.549-3.666-1.031-1.032-2.254-1.548-3.666-1.548h-20.86v-10.76c11.79-1.303 21.68-6.395 29.7-15.28 8.01-8.88 12.02-19.32 12.02-31.33v-10.43c0-1.412-0.516-2.634-1.547-3.666-1.033-1.032-2.255-1.548-3.667-1.548s-2.634 0.516-3.666 1.548-1.548 2.254-1.548 3.666v10.43c0 10.05-3.572 18.64-10.71 25.78s-15.74 10.71-25.79 10.71c-5.866 0-11.43-1.384-16.7-4.155l7.821-7.82c2.934 1.031 5.894 1.546 8.881 1.546"/><path d="m71.03 5.02c-4.481-3.205-9.492-4.808-15.03-4.808-7.17 0-13.31 2.554-18.41 7.659s-7.658 11.24-7.658 18.41v41.71l50.59-50.6c-1.847-5.05-5.01-9.179-9.491-12.38"/></g></svg>
