<svg viewBox="0 0 22 22" xmlns="http://www.w3.org/2000/svg"><path transform="translate(0 -1030)" d="m11 1033a8 8 0 0 0-8.001 8.001 8 8 0 0 0 8.001 7.999 8 8 0 0 0 7.999-7.999 8 8 0 0 0-7.999-8.001m-2.783 3.938c0.674 0 1.22 0.548 1.22 1.222 0 0.675-0.546 1.22-1.22 1.22-0.675 0-1.222-0.545-1.222-1.22s0.548-1.222 1.222-1.222m5.54 0c0.674 0 1.22 0.548 1.22 1.222 0 0.675-0.546 1.22-1.22 1.22-0.675 0-1.222-0.545-1.222-1.22s0.548-1.222 1.222-1.222m-2.759 4.657c1.987 0 3.759 1.13 4.516 2.881 0.13 0.3-7e-3 0.648-0.306 0.777-0.299 0.13-0.648-0.011-0.777-0.308-0.57-1.318-1.917-2.169-3.432-2.169-1.55 0-2.906 0.85-3.453 2.167-0.094 0.228-0.315 0.365-0.547 0.365-0.076 0-0.152-0.015-0.227-0.045-0.302-0.125-0.444-0.472-0.318-0.773 0.731-1.76 2.515-2.896 4.544-2.896" fill="#4d4d4d" fill-rule="evenodd"/></svg>
