<svg viewBox="0 0 22 22" xmlns="http://www.w3.org/2000/svg"><path transform="matrix(.9999 0 0 .9999 0 .008)" d="m11.09 2.545c-.104 0-.21.031-.299.096-.847.617-3.423 2.304-6.578 2.6-.38.035-.671.349-.678.73-.038 2.489.363 10.94 7.365 12.82.124.033.255.033.379 0 7-1.879 7.402-10.331 7.365-12.82-.005-.381-.298-.696-.678-.73-3.156-.295-5.731-1.983-6.58-2.6-.089-.065-.192-.096-.297-.096m-1.98 5.277c.143 0 .264.051.363.15l1.572 1.572 1.572-1.572c.1-.1.223-.15.365-.15.143 0 .263.051.363.15l.727.729c.1.1.15.221.15.363 0 .143-.051.264-.15.363l-1.572 1.572 1.572 1.572c.1.1.15.221.15.363 0 .143-.051.264-.15.363l-.727.729c-.1.1-.221.148-.363.148-.143 0-.263-.049-.363-.148l-1.574-1.572-1.572 1.572c-.1.1-.221.148-.363.148-.143 0-.263-.049-.363-.148l-.727-.729c-.1-.1-.15-.221-.15-.363 0-.143.051-.263.15-.363l1.572-1.572-1.572-1.572c-.1-.1-.15-.221-.15-.363 0-.143.051-.264.15-.363l.727-.729c.1-.1.221-.15.363-.15" fill="#cc5851" fill-opacity=".8" stroke-width="9.512"/></svg>
