<svg viewBox="0 0 22 22" xmlns="http://www.w3.org/2000/svg"><path transform="matrix(.02764.00247-.00247.02764 6.99 5.728)" d="m309.9 276.4-47.11-47.11c-9.383-9.345-24.92-9.06-34.63 0.652l-23.73 23.73c-1.499-0.826-3.051-1.69-4.683-2.605-14.99-8.304-35.5-19.68-57.08-41.29-21.65-21.65-33.04-42.19-41.37-57.19-0.879-1.589-1.721-3.121-2.553-4.575l15.93-15.9 7.831-7.84c9.724-9.727 9.993-25.26 0.632-34.63l-47.11-47.12c-9.361-9.359-24.91-9.08-34.63 0.652l-13.28 13.35 0.363 0.36c-4.452 5.68-8.172 12.23-10.94 19.3-2.552 6.725-4.141 13.14-4.867 19.57-6.22 51.56 17.34 98.69 81.29 162.6 88.4 88.39 159.6 81.71 162.7 81.39 6.693-0.8 13.11-2.399 19.63-4.931 7-2.736 13.55-6.45 19.23-10.89l0.29 0.258 13.45-13.17c9.704-9.725 9.984-25.26 0.627-34.65m138.1-126a288.2 288.2 0 0 1-261.4 312.7 288.2 288.2 0 0 1-312.7-261.4 288.2 288.2 0 0 1 261.4-312.7 288.2 288.2 0 0 1 312.7 261.4" fill="#4d4d4d"/></svg>
