<svg viewBox="0 0 22 22" xmlns="http://www.w3.org/2000/svg"><g transform="translate(-421.7 -525.8)"><path transform="matrix(.9427 0 0 .9477 60.36 21.23)" d="m391.84 540.91c-.421-.329-.949-.524-1.523-.524-1.351 0-2.451 1.084-2.485 2.435-1.395.526-2.388 1.88-2.388 3.466 0 1.874 1.385 3.423 3.182 3.667v.034h12.73v-.006c1.775-.104 3.182-1.584 3.182-3.395 0-1.747-1.309-3.186-2.994-3.379.007-.106.011-.214.011-.322 0-2.707-2.271-4.901-5.072-4.901-2.073 0-3.856 1.202-4.643 2.925" fill="#4d4d4d"/><circle cx="437.2" cy="540.3" r="4.5" fill="#1d99f3"/><g transform="scale(1-1)" fill="#fff"><rect x="436.7" y="-542.8" width="1" height="3" rx="0"/><rect x="436.7" y="-538.8" width="1" height="1" rx="0"/></g></g></svg>
