<svg viewBox="0 0 22 22" xmlns="http://www.w3.org/2000/svg"><path transform="translate(.0001-.002)" d="m11 3a8 8 0 0 0-8 8 8 8 0 0 0 8 8 8 8 0 0 0 8-8 8 8 0 0 0-8-8m-0.059 5.867c3.47-8e-3 4.741 1.518 4.795 1.584 0.116 0.147 0.211 0.303 0.294 0.481 0.08 0.191 0.14 0.393 0.161 0.591h0.01l8e-3 0.527c0 0.378-0.298 0.689-0.666 0.69l-1.85 4e-3c-0.367 0-0.663-0.308-0.663-0.694l-0.01-0.927c-0.042-0.013-0.091-0.023-0.141-0.043-0.458-0.128-1.084-0.305-1.932-0.303-0.847 2e-3 -1.474 0.183-1.927 0.313-0.053 0.02-0.1 0.03-0.145 0.041l2e-3 0.625v0.304c1e-3 0.386-0.298 0.697-0.666 0.698l-1.848 4e-3c-0.367 1e-3 -0.669-0.308-0.67-0.692l2e-3 -0.521h0.014c0.024-0.199 0.078-0.401 0.162-0.594 0.082-0.182 0.179-0.34 0.287-0.48 0.892-1.137 2.273-1.602 4.783-1.608" fill="#da4453" fill-rule="evenodd"/></svg>
