<svg viewBox="0 0 22 22" xmlns="http://www.w3.org/2000/svg" xmlns:xlink="http://www.w3.org/1999/xlink"><defs><linearGradient id="c" x1="384.7" x2="415.9" y1="531.6" y2="531.5" gradientUnits="userSpaceOnUse"><stop stop-color="#ac92ec" offset="0"/><stop stop-color="#64a9ff" offset=".137"/><stop stop-color="#4cdbb7" offset=".268"/><stop stop-color="#aee672" offset=".494"/><stop stop-color="#ffce53" offset=".741"/><stop stop-color="#fb6e51" offset=".93"/><stop stop-color="#ed5565" offset="1"/></linearGradient><linearGradient id="a" x1="-53.41" x2="40.66" gradientUnits="userSpaceOnUse"><stop stop-color="#161719" offset="0"/><stop stop-color="#424649" offset="1"/></linearGradient></defs><g transform="matrix(-.1683.03133-.03133-.1683 4.91-11.152)"><flowRoot font-family="sans-serif" font-size="12.5" letter-spacing="0" word-spacing="0" line-height="125%"><flowRegion stroke="url(#a)"><path id="b" d="m-427.8-178.1h100.2v116.8h-100.2z" stroke="none"/></flowRegion><flowPara/></flowRoot><g transform="translate(-.084.359)"><flowRoot font-family="sans-serif" font-size="12.5" letter-spacing="0" word-spacing="0" line-height="125%"><flowRegion stroke="url(#a)"><use xlink:href="#b"/></flowRegion><flowPara/></flowRoot><g transform="matrix(.94417 0 0 .94417-.39-7.643)"><circle transform="matrix(-3.088 -.5749 .5749 -3.088 920.2 1739)" cx="400.6" cy="531.7" r="14.88" fill="none" stroke="url(#c)" stroke-linecap="round" stroke-linejoin="round" stroke-width="1.759"/><path transform="matrix(-.05978-.01113.01113-.05978 9.887-105.56)" d="m405.7 6.232-232.6 405.7c-48.89 85.78-52.66 194.8 0 286.7 79.17 138.1 255.3 185.8 393.4 106.6s185.8-255.3 106.6-393.4l-232.6-405.7c-7.685-13.4-27.01-13.4-34.7 0m753.3 386.5a729.1 729.1 0 0 1-729.1 729.1 729.1 729.1 0 0 1-729.1-729.1 729.1 729.1 0 0 1 729.1-729.1 729.1 729.1 0 0 1 729.1 729.1" fill="#4d4d4d" opacity=".9"/></g></g></g></svg>
