<svg viewBox="0 0 22 22" xmlns="http://www.w3.org/2000/svg"><path transform="matrix(.1242 0 0 .1242 -44.66 -53)" d="m413.4 578.5-10.26-6.66 80.1-119.3 10.08 6.84zm19.8-75.06c-6 6.12-13.2 9.18-21.6 9.18s-15.66-3.06-21.78-9.18c-6-6.12-9-13.32-9-21.6s3-15.48 9-21.6c6.12-6.12 13.38-9.18 21.78-9.18s15.6 3.06 21.6 9.18c6.12 6.12 9.18 13.32 9.18 21.6s-3.06 15.48-9.18 21.6m73.44 67.32c-6 6.12-13.2 9.18-21.6 9.18s-15.66-3.06-21.78-9.18c-6-6.12-9-13.32-9-21.6s3-15.48 9-21.6c6.12-6.12 13.38-9.18 21.78-9.18s15.6 3.06 21.6 9.18c6.12 6.12 9.18 13.32 9.18 21.6s-3.06 15.48-9.18 21.6" fill="#4d4d4d"/></svg>
