<svg viewBox="0 0 22 22" xmlns="http://www.w3.org/2000/svg" xmlns:xlink="http://www.w3.org/1999/xlink"><defs><path id="a" d="m117.2 31.59c-5.595-9.586-13.18-17.18-22.77-22.77-9.588-5.595-20.06-8.392-31.41-8.392-11.35 0-21.82 2.797-31.41 8.392-9.587 5.594-17.18 13.18-22.77 22.77-5.596 9.587-8.393 20.06-8.393 31.41 0 11.35 2.798 21.82 8.392 31.41 5.595 9.585 13.18 17.18 22.77 22.77 9.587 5.595 20.06 8.392 31.41 8.392 11.35 0 21.82-2.797 31.41-8.392 9.586-5.594 17.18-13.18 22.77-22.77 5.594-9.587 8.391-20.06 8.391-31.41 0-11.35-2.797-21.82-8.39-31.41"/></defs><g transform="matrix(1 0 0 1 -436.8 -529)" fill="#4d4d4d"><use transform="matrix(.05594 0 0 .05594 439.4 531.7)" xlink:href="#a"/><use transform="matrix(.05594 0 0 .05594 439.5 540.7)" xlink:href="#a"/><use transform="matrix(.05594 0 0 .05594 448.6 531.7)" xlink:href="#a"/><use transform="matrix(.05594 0 0 .05594 448.5 540.6)" xlink:href="#a"/></g></svg>
