<svg viewBox="0 0 22 22" xmlns="http://www.w3.org/2000/svg"><g transform="matrix(.7207 0 0 .7273 28.65 -8.782)"><path transform="matrix(1.387 0 0 1.375 -39.76 12.03)" d="m10.93 3.014a7.928 8 0 0 0-7.928 8 7.928 8 0 0 0 7.928 8 7.928 8 0 0 0 7.928-8 7.928 8 0 0 0-7.928-8m0.8593 3.515v1.201c-1.531 0-2.962 0.596-4.029 1.674-1.062 1.073-1.643 2.507-1.641 4.037 5e-3 2.803 1.676 4.884 4.229 5.321-0.449-0.12-0.876-0.326-1.246-0.652-2.48-1.725-3.24-4.807-1.809-7.331 0.681-1.201 1.812-2.068 3.182-2.441 1.395-0.38 2.842-0.193 4.076 0.525l-0.596 1.041c-0.957-0.557-2.083-0.701-3.172-0.404-1.061 0.288-1.931 0.956-2.455 1.877-1.117 1.968-0.509 4.381 1.447 5.743 2.42 1.672 4.127 1.187 4.862 0.829-0.846 0.151-1.515 0.181-3.354-0.502-1.576-0.579-2.294-1.67-2.48-1.994-2e-3 -2e-3 -0.02-0.034-0.028-0.049-5e-3 -9e-3 -0.013-0.019-0.013-0.019h2e-3c-4e-3 -7e-3 -0.014-0.026-0.014-0.028l4e-3 -3e-3c-0.299-0.561-0.449-1.167-0.449-1.768 0-1.296 0.666-2.556 1.855-3.25 0.862-0.499 1.862-0.632 2.817-0.373 0.957 0.26 1.757 0.879 2.252 1.746l0.019 0.035-1.051 0.565c-0.337-0.588-0.88-1.01-1.529-1.186-0.646-0.175-1.331-0.083-1.914 0.254-0.807 0.472-1.258 1.328-1.258 2.207 0 0.426 0.11 0.868 0.338 1.268 0 1e-3 2e-3 5e-3 2e-3 5e-3 0.095 0.173 0.615 1.005 1.855 1.461 2.06 0.762 3.508 0.673 4.53 0.561 0 0-0.521 0.499-1.492 1.059-6e-3 0-0.011 0-0.016 1e-3 -0.691 0.423-2.034 0.952-3.373 0.936l-0.016 0.014c-3.522 0.181-6.389-1.581-6.394-5.446-4e-3 -1.852 0.702-3.587 1.988-4.888 1.293-1.307 3.021-2.026 4.871-2.026m-0.449 12.35 0.027-0.023c-0.355 0-0.693-0.034-1.019-0.09 0.322 0.086 0.654 0.109 0.992 0.113m3.373-0.936c0.128-0.078 0.248-0.155 0.329-0.22-0.02 4e-3 -0.154 0.109-0.397 0.228 0.023-4e-3 0.045-3e-3 0.068-8e-3" fill="#fff" stroke-width="1.3"/><ellipse cx="-24.49" cy="27.14" rx="10.85" ry="10.75" fill="none" stroke="#fff" stroke-width=".507"/></g></svg>
