<svg viewBox="0 0 22 22" xmlns="http://www.w3.org/2000/svg"><defs><linearGradient id="a" x1="301.2" x2="291.6" y1="970.8" y2="-409.6" gradientUnits="userSpaceOnUse"><stop stop-color="#dbdada" offset="0"/><stop stop-color="#fff" offset="1"/></linearGradient></defs><circle transform="matrix(.5699 0 0 .5699 -217.3 -292)" cx="400.6" cy="531.8" r="14" fill="#5ea5fb" fill-opacity="0"/><path transform="matrix(.01838 0 0 .01838 5.853 5.928)" d="m648.3 306.8h-69.51c-17.59 0-31.78 14.07-32.39 31.42-14.44 134.2-128 238.6-266.2 238.6-147.9 0-267.6-119.6-267.6-267.2 0-146.3 120.6-265.2 266.5-267.2v43.43c0 19.78 14.07 28.63 31.3 19.78l223.1-114.2c17.23-8.857 17.23-23.17 0-32.03l-223.1-113.9c-17.23-8.855-31.3 0-31.3 19.65v43.79c-219.9 2.063-400.3 180.9-400.3 400.9 0 221.4 179.7 400.9 401.4 400.9 212.1 0 385.8-164.1 400.3-372.3 0.121-17.47-14.56-31.66-32.27-31.66z" fill="#fff" stroke="url(#a)" stroke-width="1.586"/></svg>
