<svg viewBox="0 0 22 22" xmlns="http://www.w3.org/2000/svg"><g transform="matrix(.5699 0 0 .5699 -217.3 -292.1)"><circle transform="translate(.024.076)" cx="400.6" cy="531.8" r="14" fill="#5ea5fb" fill-opacity="0"/><path d="m400.6 517.8c-0.585 0-1.09 0.213-1.517 0.64s-0.64 0.932-0.64 1.517v10.8c0 0.585 0.213 1.09 0.64 1.517 0.427 0.428 0.932 0.646 1.517 0.646s1.095-0.218 1.522-0.646c0.427-0.427 0.64-0.932 0.64-1.517v-10.8c0-0.585-0.213-1.09-0.64-1.517-0.427-0.428-0.937-0.64-1.522-0.64m-6.163 4.352c-0.591-0.079-1.128 0.06-1.612 0.42-1.643 1.226-2.916 2.746-3.822 4.557s-1.36 3.743-1.36 5.791c0 1.755 0.343 3.427 1.029 5.02 0.686 1.597 1.608 2.978 2.767 4.137s2.539 2.081 4.137 2.767c1.597 0.686 3.275 1.029 5.03 1.029s3.427-0.343 5.02-1.029c1.597-0.686 2.978-1.608 4.137-2.767s2.08-2.539 2.767-4.137c0.686-1.597 1.029-3.269 1.029-5.02 0-2.047-0.454-3.979-1.36-5.791-0.906-1.811-2.18-3.331-3.822-4.557-0.472-0.36-1-0.499-1.601-0.42-0.596 0.079-1.069 0.362-1.417 0.845-0.36 0.472-0.499 1-0.415 1.591s0.362 1.068 0.835 1.428c1.102 0.832 1.955 1.852 2.557 3.055 0.602 1.204 0.903 2.487 0.903 3.848 0 1.17-0.227 2.286-0.682 3.349-0.456 1.063-1.072 1.98-1.848 2.756s-1.693 1.392-2.756 1.848-2.179 0.682-3.349 0.682-2.286-0.227-3.349-0.682c-1.063-0.456-1.985-1.072-2.761-1.848s-1.392-1.693-1.848-2.756-0.682-2.179-0.682-3.349c0-1.361 0.301-2.644 0.903-3.848s1.454-2.223 2.557-3.055c0.472-0.36 0.75-0.837 0.835-1.428 0.084-0.59-0.055-1.118-0.415-1.591-0.349-0.484-0.816-0.767-1.407-0.845" fill="#fff" fill-rule="evenodd"/></g></svg>
