<svg viewBox="0 0 22 22" xmlns="http://www.w3.org/2000/svg"><circle transform="matrix(.53426 0 0 .53426-203-273.1)" cx="400.6" cy="531.8" r="14" fill="#5ea5fb" fill-opacity="0"/><path transform="matrix(.4442 0 0 .4442 3.914 .845)" d="m12.2 15.267c0-3.322.896-6.43 2.448-9.113.376-.649-.191-1.451-.918-1.265-8.38 2.152-14.441 10.07-13.663 19.29.736 8.701 7.768 15.803 16.463 16.617 6.03.565 11.517-1.811 15.221-5.848.5-.546.073-1.432-.666-1.401-.196.009-.395.013-.594.013-10.1 0-18.291-8.189-18.291-18.293" fill="#fff"/></svg>
